<?xml version="1.0" encoding="UTF-8" standalone="no"?>
<!-- Created with Inkscape (http://www.inkscape.org/) -->

<svg
   xmlns:dc="http://purl.org/dc/elements/1.1/"
   xmlns:cc="http://creativecommons.org/ns#"
   xmlns:rdf="http://www.w3.org/1999/02/22-rdf-syntax-ns#"
   xmlns:svg="http://www.w3.org/2000/svg"
   xmlns="http://www.w3.org/2000/svg"
   xmlns:sodipodi="http://sodipodi.sourceforge.net/DTD/sodipodi-0.dtd"
   xmlns:inkscape="http://www.inkscape.org/namespaces/inkscape"
   width="1052.3622"
   height="744.09448"
   id="svg2"
   version="1.1"
   inkscape:version="0.47 r22583"
   sodipodi:docname="flyer_v1.svg">
  <defs
     id="defs4">
    <inkscape:perspective
       sodipodi:type="inkscape:persp3d"
       inkscape:vp_x="0 : 526.18109 : 1"
       inkscape:vp_y="0 : 1000 : 0"
       inkscape:vp_z="744.09448 : 526.18109 : 1"
       inkscape:persp3d-origin="372.04724 : 350.78739 : 1"
       id="perspective10" />
    <inkscape:perspective
       id="perspective9"
       inkscape:persp3d-origin="318.89764 : 212.6004 : 1"
       inkscape:vp_z="637.79529 : 318.9006 : 1"
       inkscape:vp_y="0 : 1000 : 0"
       inkscape:vp_x="0 : 318.9006 : 1"
       sodipodi:type="inkscape:persp3d" />
  </defs>
  <sodipodi:namedview
     id="base"
     pagecolor="#ffffff"
     bordercolor="#666666"
     borderopacity="1.0"
     inkscape:pageopacity="0.0"
     inkscape:pageshadow="2"
     inkscape:zoom="0.75128205"
     inkscape:cx="502.79481"
     inkscape:cy="381.42857"
     inkscape:document-units="px"
     inkscape:current-layer="layer1"
     showgrid="false"
     units="mm"
     showguides="true"
     inkscape:guide-bbox="true"
     inkscape:window-width="1440"
     inkscape:window-height="851"
     inkscape:window-x="0"
     inkscape:window-y="24"
     inkscape:window-maximized="1">
    <sodipodi:guide
       orientation="1,0"
       position="350,661.536"
       id="guide2899" />
    <sodipodi:guide
       orientation="1,0"
       position="700,583.003"
       id="guide2901" />
    <sodipodi:guide
       orientation="1,0"
       position="1050,541.74061"
       id="guide2903" />
    <sodipodi:guide
       orientation="0,1"
       position="319.45392,684.16382"
       id="guide2905" />
    <sodipodi:guide
       orientation="1,0"
       position="175,571.024"
       id="guide2907" />
    <sodipodi:guide
       orientation="0,1"
       position="-23.959044,31.945392"
       id="guide2982" />
    <sodipodi:guide
       orientation="0,1"
       position="175,70.546075"
       id="guide2984" />
    <sodipodi:guide
       orientation="1,0"
       position="320,258.22526"
       id="guide2986" />
    <sodipodi:guide
       orientation="1,0"
       position="670,435.25597"
       id="guide2988" />
    <sodipodi:guide
       orientation="1,0"
       position="1020,519.11263"
       id="guide3075" />
  </sodipodi:namedview>
  <metadata
     id="metadata7">
    <rdf:RDF>
      <cc:Work
         rdf:about="">
        <dc:format>image/svg+xml</dc:format>
        <dc:type
           rdf:resource="http://purl.org/dc/dcmitype/StillImage" />
        <dc:title></dc:title>
      </cc:Work>
    </rdf:RDF>
  </metadata>
  <g
     inkscape:label="Layer 1"
     inkscape:groupmode="layer"
     id="layer1"
     transform="translate(0,-308.26769)">
    <rect
       style="fill:#550000;fill-opacity:1;stroke:#000000;stroke-width:4.46510124;stroke-miterlimit:4;stroke-opacity:1;stroke-dasharray:none"
       id="rect2913"
       width="1050"
       height="743.48065"
       x="-1.9789554e-06"
       y="308.30072"
       rx="337.15134"
       ry="0"
       sodipodi:insensitive="true" />
    <path
       d="m 175,368.19835 c -60.84674,0.77159 -109.990556,50.39773 -109.990556,111.42646 0,61.50926 49.917186,111.42646 111.426436,111.42646 61.50926,0 111.42646,-49.9172 111.42646,-111.42646 0,-0.48055 -0.005,-0.95678 -0.0108,-1.43588 l 0,-87.80462 c -0.247,-12.23121 -10.19826,-22.09385 -22.46667,-22.18596 l -88.94899,0 c -0.16982,0 -0.33836,7e-4 -0.50742,0 -0.30933,-0.001 -0.61866,-0.004 -0.92846,0 z m 84.63056,16.69075 c 3.51679,3e-5 6.15166,0.57802 7.89195,1.73817 1.75234,1.14812 2.62342,2.88338 2.62345,5.20372 -4e-5,1.58319 -0.41849,2.88225 -1.25235,3.89739 -0.8339,1.00309 -2.06078,1.70515 -3.69227,2.11603 1.82484,0.47134 3.20303,1.28925 4.14571,2.46151 0.95469,1.16018 1.43586,2.64731 1.43587,4.44799 -10e-6,2.68293 -1.03322,4.71951 -3.08768,6.12138 -2.05451,1.3898 -5.04258,2.08365 -8.98235,2.08365 -1.38979,0 -2.78701,-0.10506 -4.18888,-0.33468 -1.3898,-0.21754 -2.76928,-0.55689 -4.1349,-1.00404 l 0,-5.37645 c 1.30518,0.6526 2.59476,1.14068 3.8758,1.47907 1.29311,0.3263 2.56623,0.49663 3.81102,0.49661 1.84902,2e-5 3.26394,-0.32032 4.24286,-0.96085 0.99097,-0.64051 1.47905,-1.56736 1.47906,-2.7638 0,-1.23267 -0.5071,-2.15695 -1.52225,-2.78539 -1.00307,-0.64051 -2.4889,-0.96084 -4.45878,-0.96085 l -2.78539,0 0,-4.50197 2.93654,0 c 1.75233,3e-5 3.05011,-0.26586 3.90818,-0.80971 0.85802,-0.55591 1.29552,-1.40234 1.29553,-2.52628 0,-1.0393 -0.41849,-1.83951 -1.25235,-2.40753 -0.83388,-0.56799 -2.0184,-0.85287 -3.54111,-0.85289 -1.12395,2e-5 -2.25268,0.12409 -3.40077,0.37786 -1.14809,0.25381 -2.29715,0.63811 -3.43316,1.13359 l 0,-5.11734 c 1.37772,-0.38671 2.74897,-0.6811 4.10251,-0.87449 1.35353,-0.19333 2.67855,-0.28067 3.98376,-0.2807 z m -82.61169,8.79882 c 20.74853,0.17529 41.26025,8.14221 56.81983,21.84049 23.2908,20.12988 33.10985,53.56837 26.526,83.44299 -5.75456,27.81848 -27.26526,51.03845 -53.63499,60.96553 -27.36528,11.04379 -60.23754,5.73684 -83.25946,-12.53426 -25.553466,-19.5274 -37.911996,-54.18231 -31.416596,-85.59142 7.71855,-38.05827 44.041216,-67.93157 82.957146,-68.11254 0.66964,-0.0106 1.33876,-0.0164 2.00807,-0.0108 z m 42.16809,69.34309 c -2.65582,-1.24304 -5.31154,-2.14712 -7.9672,-2.71224 -2.59929,-0.62148 -5.22676,-0.93226 -7.88243,-0.93233 -7.79775,7e-5 -13.81551,2.51454 -18.05332,7.54341 -4.18141,4.9725 -6.27209,12.12036 -6.27205,21.44362 l 0,43.73481 -30.34314,0 0,-94.92828 30.34314,0 0,15.59536 c 3.89879,-6.21545 8.36268,-10.73584 13.39167,-13.56119 5.08537,-2.88164 11.15965,-4.32252 18.22283,-4.32262 1.01702,1e-4 2.11887,0.0566 3.30554,0.16952 1.18653,0.0566 2.90993,0.22612 5.17021,0.50855 l 0.0847,27.46139"
       id="rect3134"
       style="fill:#ffffff;fill-opacity:1;stroke:none" />
    <text
       xml:space="preserve"
       style="font-size:41.34089661px;font-style:normal;font-weight:normal;fill:#000000;fill-opacity:1;stroke:none;font-family:Bitstream Vera Sans"
       x="82.661896"
       y="648.71582"
       id="text2915"><tspan
         sodipodi:role="line"
         id="tspan2917"
         x="82.661896"
         y="648.71582"
         style="fill:#ffffff">realraum</tspan></text>
    <text
       xml:space="preserve"
       style="font-size:21.41370964px;font-style:normal;font-weight:normal;fill:#000000;fill-opacity:1;stroke:none;font-family:Bitstream Vera Sans"
       x="138.18619"
       y="982.50061"
       id="text2919"
       transform="matrix(0.99998814,-0.00486934,0.00486934,0.99998814,0,0)"><tspan
         sodipodi:role="line"
         id="tspan2921"
         x="138.18619"
         y="982.50061"
         style="fill:#ffffff">der hackerspace</tspan><tspan
         sodipodi:role="line"
         x="138.18619"
         y="1009.2678"
         style="fill:#ffffff"
         id="tspan2923" /></text>
    <text
       id="text2929"
       y="1020.4168"
       x="253.35269"
       style="font-size:18.75284958px;font-style:normal;font-weight:normal;fill:#000000;fill-opacity:1;stroke:none;font-family:Bitstream Vera Sans"
       xml:space="preserve"><tspan
         style="fill:#ffffff"
         y="1020.4168"
         x="253.35269"
         id="tspan2931"
         sodipodi:role="line">in graz</tspan><tspan
         id="tspan2933"
         style="fill:#ffffff"
         y="1043.8579"
         x="253.35269"
         sodipodi:role="line" /></text>
    <path
       style="fill:#ffffff;fill-opacity:1;stroke:none"
       id="path3039"
       d="m 525,368.19835 c -60.84674,0.77159 -109.99056,50.39773 -109.99056,111.42646 0,61.50926 49.91719,111.42646 111.42644,111.42646 61.50926,0 111.42646,-49.9172 111.42646,-111.42646 0,-0.48055 -0.005,-0.95678 -0.0108,-1.43588 l 0,-87.80462 c -0.247,-12.23121 -10.19826,-22.09385 -22.46667,-22.18596 l -88.94899,0 c -0.16982,0 -0.33836,7e-4 -0.50742,0 -0.30933,-0.001 -0.61866,-0.004 -0.92846,0 z m 84.63056,16.69075 c 3.51679,3e-5 6.15166,0.57802 7.89195,1.73817 1.75234,1.14812 2.62342,2.88338 2.62345,5.20372 -4e-5,1.58319 -0.41849,2.88225 -1.25235,3.89739 -0.8339,1.00309 -2.06078,1.70515 -3.69227,2.11603 1.82484,0.47134 3.20303,1.28925 4.14571,2.46151 0.95469,1.16018 1.43586,2.64731 1.43587,4.44799 -10e-6,2.68293 -1.03322,4.71951 -3.08768,6.12138 -2.05451,1.3898 -5.04258,2.08365 -8.98235,2.08365 -1.38979,0 -2.78701,-0.10506 -4.18888,-0.33468 -1.3898,-0.21754 -2.76928,-0.55689 -4.1349,-1.00404 l 0,-5.37645 c 1.30518,0.6526 2.59476,1.14068 3.8758,1.47907 1.29311,0.3263 2.56623,0.49663 3.81102,0.49661 1.84902,2e-5 3.26394,-0.32032 4.24286,-0.96085 0.99097,-0.64051 1.47905,-1.56736 1.47906,-2.7638 0,-1.23267 -0.5071,-2.15695 -1.52225,-2.78539 -1.00307,-0.64051 -2.4889,-0.96084 -4.45878,-0.96085 l -2.78539,0 0,-4.50197 2.93654,0 c 1.75233,3e-5 3.05011,-0.26586 3.90818,-0.80971 0.85802,-0.55591 1.29552,-1.40234 1.29553,-2.52628 0,-1.0393 -0.41849,-1.83951 -1.25235,-2.40753 -0.83388,-0.56799 -2.0184,-0.85287 -3.54111,-0.85289 -1.12395,2e-5 -2.25268,0.12409 -3.40077,0.37786 -1.14809,0.25381 -2.29715,0.63811 -3.43316,1.13359 l 0,-5.11734 c 1.37772,-0.38671 2.74897,-0.6811 4.10251,-0.87449 1.35353,-0.19333 2.67855,-0.28067 3.98376,-0.2807 z m -82.61169,8.79882 c 20.74853,0.17529 41.26025,8.14221 56.81983,21.84049 23.2908,20.12988 33.10985,53.56837 26.526,83.44299 -5.75456,27.81848 -27.26526,51.03845 -53.63499,60.96553 -27.36528,11.04379 -60.23754,5.73684 -83.25946,-12.53426 -25.55347,-19.5274 -37.912,-54.18231 -31.4166,-85.59142 7.71855,-38.05827 44.04122,-67.93157 82.95715,-68.11254 0.66964,-0.0106 1.33876,-0.0164 2.00807,-0.0108 z m 42.16809,69.34309 c -2.65582,-1.24304 -5.31154,-2.14712 -7.9672,-2.71224 -2.59929,-0.62148 -5.22676,-0.93226 -7.88243,-0.93233 -7.79775,7e-5 -13.81551,2.51454 -18.05332,7.54341 -4.18141,4.9725 -6.27209,12.12036 -6.27205,21.44362 l 0,43.73481 -30.34314,0 0,-94.92828 30.34314,0 0,15.59536 c 3.89879,-6.21545 8.36268,-10.73584 13.39167,-13.56119 5.08537,-2.88164 11.15965,-4.32252 18.22283,-4.32262 1.01702,1e-4 2.11887,0.0566 3.30554,0.16952 1.18653,0.0566 2.90993,0.22612 5.17021,0.50855 l 0.0847,27.46139" />
    <text
       id="text3041"
       y="648.71582"
       x="432.6619"
       style="font-size:41.34089661px;font-style:normal;font-weight:normal;fill:#000000;fill-opacity:1;stroke:none;font-family:Bitstream Vera Sans"
       xml:space="preserve"><tspan
         style="fill:#ffffff"
         y="648.71582"
         x="432.6619"
         id="tspan3043"
         sodipodi:role="line">realraum</tspan></text>
    <text
       transform="matrix(0.99998814,-0.00486934,0.00486934,0.99998814,0,0)"
       id="text3045"
       y="984.19885"
       x="488.18085"
       style="font-size:21.41370964px;font-style:normal;font-weight:normal;fill:#000000;fill-opacity:1;stroke:none;font-family:Bitstream Vera Sans"
       xml:space="preserve"><tspan
         style="fill:#ffffff"
         y="984.19885"
         x="488.18085"
         id="tspan3047"
         sodipodi:role="line">der hackerspace</tspan><tspan
         id="tspan3049"
         style="fill:#ffffff"
         y="1010.966"
         x="488.18085"
         sodipodi:role="line" /></text>
    <text
       xml:space="preserve"
       style="font-size:18.75284958px;font-style:normal;font-weight:normal;fill:#000000;fill-opacity:1;stroke:none;font-family:Bitstream Vera Sans"
       x="603.35266"
       y="1020.4168"
       id="text3051"><tspan
         sodipodi:role="line"
         id="tspan3053"
         x="603.35266"
         y="1020.4168"
         style="fill:#ffffff">in graz</tspan><tspan
         sodipodi:role="line"
         x="603.35266"
         y="1043.8579"
         style="fill:#ffffff"
         id="tspan3055" /></text>
    <path
       d="M 875.64846,368.35241 C 814.80172,369.124 765.6579,418.75014 765.6579,479.77887 c 0,61.50926 49.91719,111.42646 111.42644,111.42646 61.50926,0 111.42646,-49.9172 111.42646,-111.42646 0,-0.48055 -0.005,-0.95678 -0.0108,-1.43588 l 0,-87.80462 c -0.247,-12.23121 -10.19826,-22.09385 -22.46667,-22.18596 l -88.94899,0 c -0.16982,0 -0.33836,7e-4 -0.50742,0 -0.30933,-0.001 -0.61866,-0.004 -0.92846,0 z m 84.63056,16.69075 c 3.51679,3e-5 6.15166,0.57802 7.89195,1.73817 1.75234,1.14812 2.62342,2.88338 2.62345,5.20372 -4e-5,1.58319 -0.41849,2.88225 -1.25235,3.89739 -0.8339,1.00309 -2.06078,1.70515 -3.69227,2.11603 1.82484,0.47134 3.20303,1.28925 4.14571,2.46151 0.95469,1.16018 1.43586,2.64731 1.43587,4.44799 -10e-6,2.68293 -1.03322,4.71951 -3.08768,6.12138 -2.05451,1.3898 -5.04258,2.08365 -8.98235,2.08365 -1.38979,0 -2.78701,-0.10506 -4.18888,-0.33468 -1.3898,-0.21754 -2.76928,-0.55689 -4.1349,-1.00404 l 0,-5.37645 c 1.30518,0.6526 2.59476,1.14068 3.8758,1.47907 1.29311,0.3263 2.56623,0.49663 3.81102,0.49661 1.84902,2e-5 3.26394,-0.32032 4.24286,-0.96085 0.99097,-0.64051 1.47905,-1.56736 1.47906,-2.7638 0,-1.23267 -0.5071,-2.15695 -1.52225,-2.78539 -1.00307,-0.64051 -2.4889,-0.96084 -4.45878,-0.96085 l -2.78539,0 0,-4.50197 2.93654,0 c 1.75233,3e-5 3.05011,-0.26586 3.90818,-0.80971 0.85802,-0.55591 1.29552,-1.40234 1.29553,-2.52628 0,-1.0393 -0.41849,-1.83951 -1.25235,-2.40753 -0.83388,-0.56799 -2.0184,-0.85287 -3.54111,-0.85289 -1.12395,2e-5 -2.25268,0.12409 -3.40077,0.37786 -1.14809,0.25381 -2.29715,0.63811 -3.43316,1.13359 l 0,-5.11734 c 1.37772,-0.38671 2.74897,-0.6811 4.10251,-0.87449 1.35353,-0.19333 2.67855,-0.28067 3.98376,-0.2807 z m -82.61169,8.79882 c 20.74853,0.17529 41.26025,8.14221 56.81983,21.84049 23.2908,20.12988 33.10985,53.56837 26.526,83.44299 -5.75456,27.81848 -27.26526,51.03845 -53.63499,60.96553 -27.36528,11.04379 -60.23754,5.73684 -83.25946,-12.53426 -25.55347,-19.5274 -37.912,-54.18231 -31.4166,-85.59142 7.71855,-38.05827 44.04122,-67.93157 82.95715,-68.11254 0.66964,-0.0106 1.33876,-0.0164 2.00807,-0.0108 z m 42.16809,69.34309 c -2.65582,-1.24304 -5.31154,-2.14712 -7.9672,-2.71224 -2.59929,-0.62148 -5.22676,-0.93226 -7.88243,-0.93233 -7.79775,7e-5 -13.81551,2.51454 -18.05332,7.54341 -4.18141,4.9725 -6.27209,12.12036 -6.27205,21.44362 l 0,43.73481 -30.34314,0 0,-94.92828 30.34314,0 0,15.59536 c 3.89879,-6.21545 8.36268,-10.73584 13.39167,-13.56119 5.08537,-2.88164 11.15965,-4.32252 18.22283,-4.32262 1.01702,10e-5 2.11887,0.0566 3.30554,0.16952 1.18653,0.0566 2.90993,0.22612 5.17021,0.50855 l 0.0847,27.46139"
       id="path3057"
       style="fill:#ffffff;fill-opacity:1;stroke:none" />
    <text
       xml:space="preserve"
       style="font-size:41.34089661px;font-style:normal;font-weight:normal;fill:#000000;fill-opacity:1;stroke:none;font-family:Bitstream Vera Sans"
       x="783.3103"
       y="648.86987"
       id="text3059"><tspan
         sodipodi:role="line"
         id="tspan3061"
         x="783.3103"
         y="648.86987"
         style="fill:#ffffff">realraum</tspan></text>
    <text
       xml:space="preserve"
       style="font-size:21.41370964px;font-style:normal;font-weight:normal;fill:#000000;fill-opacity:1;stroke:none;font-family:Bitstream Vera Sans"
       x="838.82385"
       y="986.06091"
       id="text3063"
       transform="matrix(0.99998814,-0.00486934,0.00486934,0.99998814,0,0)"><tspan
         sodipodi:role="line"
         id="tspan3065"
         x="838.82385"
         y="986.06091"
         style="fill:#ffffff">der hackerspace</tspan><tspan
         sodipodi:role="line"
         x="838.82385"
         y="1012.8281"
         style="fill:#ffffff"
         id="tspan3067" /></text>
    <text
       id="text3069"
       y="1020.5709"
       x="954.0011"
       style="font-size:18.75284958px;font-style:normal;font-weight:normal;fill:#000000;fill-opacity:1;stroke:none;font-family:Bitstream Vera Sans"
       xml:space="preserve"><tspan
         style="fill:#ffffff"
         y="1020.5709"
         x="954.0011"
         id="tspan3071"
         sodipodi:role="line">in graz</tspan><tspan
         id="tspan3073"
         style="fill:#ffffff"
         y="1044.012"
         x="954.0011"
         sodipodi:role="line" /></text>
  </g>
</svg>
