<?xml version="1.0" encoding="UTF-8" standalone="no"?>
<!-- Created with Inkscape (http://www.inkscape.org/) -->

<svg
   xmlns:dc="http://purl.org/dc/elements/1.1/"
   xmlns:cc="http://creativecommons.org/ns#"
   xmlns:rdf="http://www.w3.org/1999/02/22-rdf-syntax-ns#"
   xmlns:svg="http://www.w3.org/2000/svg"
   xmlns="http://www.w3.org/2000/svg"
   xmlns:sodipodi="http://sodipodi.sourceforge.net/DTD/sodipodi-0.dtd"
   xmlns:inkscape="http://www.inkscape.org/namespaces/inkscape"
   width="1052.3622"
   height="744.09448"
   id="svg3077"
   version="1.1"
   inkscape:version="0.47 r22583"
   sodipodi:docname="flyer_backside.svg">
  <defs
     id="defs3079">
    <inkscape:perspective
       sodipodi:type="inkscape:persp3d"
       inkscape:vp_x="0 : 372.04724 : 1"
       inkscape:vp_y="0 : 1000 : 0"
       inkscape:vp_z="1052.3622 : 372.04724 : 1"
       inkscape:persp3d-origin="526.18109 : 248.03149 : 1"
       id="perspective3086" />
    <inkscape:perspective
       id="perspective3196"
       inkscape:persp3d-origin="0.5 : 0.33333333 : 1"
       inkscape:vp_z="1 : 0.5 : 1"
       inkscape:vp_y="0 : 1000 : 0"
       inkscape:vp_x="0 : 0.5 : 1"
       sodipodi:type="inkscape:persp3d" />
    <inkscape:perspective
       id="perspective3302"
       inkscape:persp3d-origin="0.5 : 0.33333333 : 1"
       inkscape:vp_z="1 : 0.5 : 1"
       inkscape:vp_y="0 : 1000 : 0"
       inkscape:vp_x="0 : 0.5 : 1"
       sodipodi:type="inkscape:persp3d" />
  </defs>
  <sodipodi:namedview
     inkscape:document-units="mm"
     pagecolor="#ffffff"
     bordercolor="#666666"
     borderopacity="1.0"
     inkscape:pageopacity="0.0"
     inkscape:pageshadow="2"
     inkscape:zoom="0.73353323"
     inkscape:cx="525.154"
     inkscape:cy="365.07416"
     inkscape:current-layer="layer1"
     id="namedview3081"
     showgrid="false"
     showguides="true"
     inkscape:guide-bbox="true"
     units="mm"
     inkscape:window-width="1323"
     inkscape:window-height="859"
     inkscape:window-x="32"
     inkscape:window-y="24"
     inkscape:window-maximized="0"
     inkscape:snap-global="true">
    <sodipodi:guide
       orientation="1,0"
       position="700,567.118"
       id="guide3092" />
    <sodipodi:guide
       orientation="1,0"
       position="350,549.397"
       id="guide3094" />
    <sodipodi:guide
       orientation="1,0"
       position="72.253032,621.64873"
       id="guide3182" />
    <sodipodi:guide
       orientation="0,1"
       position="164.95504,685.72217"
       id="guide3184" />
    <sodipodi:guide
       orientation="1,0"
       position="299.91825,618.9222"
       id="guide3186" />
    <sodipodi:guide
       orientation="0,1"
       position="219.48563,46.351002"
       id="guide3218" />
    <sodipodi:guide
       orientation="1,0"
       position="380,685.722"
       id="guide3266" />
    <sodipodi:guide
       orientation="1,0"
       position="730,623.012"
       id="guide3268" />
  </sodipodi:namedview>
  <metadata
     id="metadata3083">
    <rdf:RDF>
      <cc:Work
         rdf:about="">
        <dc:format>image/svg+xml</dc:format>
        <dc:type
           rdf:resource="http://purl.org/dc/dcmitype/StillImage" />
        <dc:title></dc:title>
      </cc:Work>
    </rdf:RDF>
  </metadata>
  <g
     inkscape:label="Layer 1"
     inkscape:groupmode="layer"
     id="layer1"
     transform="translate(0,6.6406251e-6)">
    <flowRoot
       xml:space="preserve"
       id="flowRoot3162"
       style="font-size:12px;font-style:normal;font-weight:normal;text-align:justify;text-anchor:start;fill:#550000;fill-opacity:1;stroke:none;font-family:Bitstream Vera Sans"
       transform="translate(55.109375,141.11341)"><flowRegion
         id="flowRegion3164"><rect
           id="rect3166"
           width="227.66521"
           height="391.12973"
           x="17.143658"
           y="5.3323359"
           style="text-align:justify;text-anchor:start;fill:#550000" /></flowRegion><flowPara
         style="text-align:justify;text-anchor:start"
         id="flowPara3230">Der realraum ist ein Treffpunkt in Graz für Computer- und Elektronik-Interessierte. Wir sind Bastler und Computerbegeisterte, die Spaß am Tüfteln haben. Der Raum bietet den nötigen Platz und das erforderliche Equipment, um gemeinsam an neuen Projekten zu arbeiten, sich auszutauschen, Vorträge zu veranstalten und Ideen in die Tat umzusetzen.</flowPara><flowPara
         id="flowPara3174"
         style="text-align:justify;text-anchor:start" /><flowPara
         id="flowPara3176"
         style="text-align:justify;text-anchor:start">Das Projekt verfolgt ähnliche Ziele wie die in Wien entstandenen Projekte Metalab oder Happylab bzw der C-Base in Berlin. So etwas nennt sich Hackerspace, von denen es auf der ganzen Welt verstreut so einige gibt. </flowPara></flowRoot>    <text
       xml:space="preserve"
       style="font-size:21.41370964px;font-style:normal;font-weight:normal;fill:#2b0000;fill-opacity:1;stroke:none;font-family:Bitstream Vera Sans"
       x="113.55644"
       y="698.30469"
       id="text2919"
       transform="matrix(0.99998814,-0.00486934,0.00486934,0.99998814,0,0)"><tspan
         sodipodi:role="line"
         x="113.55644"
         y="698.30469"
         style="fill:#2b0000"
         id="tspan2923">www.realraum.at</tspan></text>
    <text
       transform="matrix(0.99998814,-0.00486934,0.00486934,0.99998814,0,0)"
       id="text3220"
       y="556.79474"
       x="298.28854"
       style="font-size:21.41370964px;font-style:normal;font-weight:normal;text-align:end;text-anchor:end;fill:#2b0000;fill-opacity:1;stroke:none;font-family:Bitstream Vera Sans"
       xml:space="preserve"><tspan
         id="tspan3222"
         style="text-align:end;text-anchor:end;fill:#2b0000"
         y="556.79474"
         x="298.28854"
         sodipodi:role="line">ESC Erdgeschoß links</tspan><tspan
         style="text-align:end;text-anchor:end;fill:#2b0000"
         y="583.56189"
         x="298.28854"
         sodipodi:role="line"
         id="tspan3226">Jakoministr. 16</tspan><tspan
         style="text-align:end;text-anchor:end;fill:#2b0000"
         y="610.32904"
         x="298.28854"
         sodipodi:role="line"
         id="tspan3224">8010 Graz</tspan></text>
    <path
       d="m 272.70229,49.400497 c -18.41409,0.233507 -33.28652,15.251902 -33.28652,33.72107 0,18.614593 15.10648,33.721083 33.72107,33.721083 18.6146,0 33.72108,-15.10649 33.72108,-33.721083 0,-0.145429 -0.002,-0.289551 -0.003,-0.434541 l 0,-26.572376 c -0.0747,-3.70154 -3.08628,-6.686278 -6.79908,-6.714153 l -26.91871,0 c -0.0514,0 -0.10239,2.12e-4 -0.15356,0 -0.0936,-3.03e-4 -0.18722,-0.0012 -0.28098,0 z m 25.61182,5.051134 c 1.06429,9e-6 1.86168,0.174927 2.38835,0.526024 0.53031,0.347456 0.79393,0.872599 0.79393,1.574805 -1e-5,0.479122 -0.12664,0.872258 -0.37899,1.17947 -0.25237,0.303566 -0.62366,0.516031 -1.1174,0.640376 0.55225,0.142642 0.96934,0.390167 1.25462,0.744929 0.28892,0.351106 0.43454,0.801157 0.43454,1.346098 0,0.811937 -0.31269,1.428269 -0.93443,1.852518 -0.62176,0.420596 -1.52604,0.630577 -2.71833,0.630577 -0.4206,0 -0.84344,-0.0318 -1.26769,-0.101285 -0.42059,-0.06583 -0.83807,-0.168532 -1.25135,-0.303853 l 0,-1.627079 c 0.39499,0.197497 0.78526,0.345205 1.17294,0.447612 0.39134,0.09875 0.77662,0.150295 1.15333,0.150289 0.55957,6e-6 0.98777,-0.09694 1.28402,-0.290782 0.2999,-0.193839 0.44761,-0.474332 0.44761,-0.836411 0,-0.373044 -0.15346,-0.65276 -0.46068,-0.842945 -0.30356,-0.193838 -0.75322,-0.29078 -1.34936,-0.290783 l -0.84295,0 0,-1.362435 0.88869,0 c 0.53031,10e-6 0.92306,-0.08046 1.18274,-0.245043 0.25966,-0.168235 0.39206,-0.424391 0.39206,-0.76453 0,-0.314524 -0.12664,-0.556692 -0.379,-0.728592 -0.25235,-0.171891 -0.61083,-0.258105 -1.07165,-0.258111 -0.34014,6e-6 -0.68173,0.03755 -1.02917,0.114352 -0.34745,0.07681 -0.69519,0.193112 -1.03898,0.343059 l 0,-1.548664 c 0.41694,-0.11703 0.83192,-0.206122 1.24154,-0.264648 0.40962,-0.05851 0.81061,-0.08494 1.20561,-0.08495 z m -25.00085,2.662793 c 6.27916,0.05305 12.48662,2.464084 17.19544,6.609604 7.04851,6.091921 10.02006,16.211434 8.02758,25.252409 -1.7415,8.418734 -8.2513,15.445813 -16.2316,18.450053 -8.28158,3.34219 -18.22973,1.73614 -25.19687,-3.79326 -7.73327,-5.909589 -11.47334,-16.397233 -9.50763,-25.902592 2.33587,-11.517602 13.32823,-20.558181 25.10538,-20.612948 0.20266,-0.0032 0.40516,-0.005 0.6077,-0.0033 z m 12.76137,20.985351 c -0.80374,-0.376182 -1.60744,-0.649785 -2.41112,-0.820807 -0.78662,-0.188079 -1.58178,-0.282131 -2.38546,-0.282152 -2.35985,2.1e-5 -4.18101,0.760977 -5.46349,2.282869 -1.26543,1.504828 -1.89814,3.66799 -1.89812,6.489492 l 0,13.235504 -9.18277,0 0,-28.728216 9.18277,0 0,4.719635 c 1.17989,-1.880986 2.5308,-3.248995 4.05273,-4.104033 1.539,-0.872073 3.37725,-1.308127 5.51478,-1.308158 0.30779,3.1e-5 0.64124,0.01713 1.00036,0.0513 0.35908,0.01713 0.88064,0.06843 1.56468,0.153903 l 0.0256,8.310661"
       id="rect3134"
       style="fill:#800000;fill-opacity:1;stroke:none" />
  </g>
</svg>
