<?xml version="1.0" encoding="UTF-8" standalone="no"?>
<!-- Created with Inkscape (http://www.inkscape.org/) -->

<svg
   xmlns:dc="http://purl.org/dc/elements/1.1/"
   xmlns:cc="http://creativecommons.org/ns#"
   xmlns:rdf="http://www.w3.org/1999/02/22-rdf-syntax-ns#"
   xmlns:svg="http://www.w3.org/2000/svg"
   xmlns="http://www.w3.org/2000/svg"
   version="1.0"
   width="184.25197"
   height="184.25197"
   id="svg2">
  <metadata
     id="metadata8">
    <rdf:RDF>
      <cc:Work
         rdf:about="">
        <dc:format>image/svg+xml</dc:format>
        <dc:type
           rdf:resource="http://purl.org/dc/dcmitype/StillImage" />
        <dc:title></dc:title>
      </cc:Work>
    </rdf:RDF>
  </metadata>
  <defs
     id="defs4" />
  <text
     x="78.897285"
     y="177.2852"
     id="text3529"
     xml:space="preserve"
     style="font-size:18.78186989px;font-style:normal;font-weight:normal;line-height:125%;letter-spacing:0px;word-spacing:0px;fill:#000000;fill-opacity:1;stroke:none;font-family:Sans"><tspan
       x="78.897285"
       y="177.2852"
       id="tspan3531"
       style="font-style:normal;font-variant:normal;font-weight:normal;font-stretch:normal;font-family:Trebuchet MS;-inkscape-font-specification:Trebuchet MS" /></text>
  <text
     x="89.766304"
     y="176.30391"
     id="text3537"
     xml:space="preserve"
     style="font-size:28px;font-style:normal;font-weight:normal;line-height:125%;letter-spacing:0px;word-spacing:0px;fill:#000000;fill-opacity:1;stroke:none;font-family:Sans"><tspan
       x="89.766304"
       y="176.30391"
       id="tspan3539" /></text>
  <path
     d="m 91.099934,10.629918 c -44.502617,0.564348 -80.445866,36.860345 -80.445866,81.496074 0,44.987178 36.508882,81.496058 81.496057,81.496058 44.987175,0 81.496045,-36.50888 81.496035,-81.496058 0,-0.351476 -0.004,-0.699778 -0.01,-1.050199 l 0,-64.219307 C 173.45762,17.910718 166.17937,10.69731 157.20639,10.629918 l -65.056265,0 c -0.124201,0 -0.247475,0 -0.371121,0 -0.226245,0 -0.452486,-0.0029 -0.67907,0 z"
     id="path3021"
     style="fill:#000000;fill-opacity:1;stroke:none" />
  <path
     d="m 92.576508,29.272695 c 15.175242,0.128207 30.177302,5.955126 41.557382,15.973896 17.03463,14.722776 24.21617,39.17932 19.4008,61.029289 -4.20881,20.34612 -19.9415,37.32895 -39.228,44.58951 -20.014665,8.0773 -44.057059,4.19583 -60.895028,-9.16744 C 34.722134,127.41583 25.683235,102.0696 30.433896,79.097355 36.079166,51.261967 62.645163,29.412956 91.107832,29.280606 c 0.489771,-0.0078 0.979159,-0.01204 1.468676,-0.0079 z"
     id="path3017"
     style="fill:#ffffff;fill-opacity:1;stroke:none" />
  <g
     transform="matrix(1.4123259,0,0,1.1264218,-40.443253,-20.38953)"
     id="text3003"
     style="font-size:163.52767944px;font-style:normal;font-variant:normal;font-weight:normal;font-stretch:normal;line-height:125%;letter-spacing:0px;word-spacing:0px;fill:#000000;fill-opacity:1;stroke:#000000;stroke-width:2.51986337;stroke-miterlimit:4;stroke-opacity:1;stroke-dasharray:none;font-family:Cagliostro;-inkscape-font-specification:Cagliostro">
    <path
       d="m 76.741376,119.79215 -0.07874,-37.739938 c 0.109005,-0.872093 0.01816,2.042528 0.01817,-0.137901 -1.4e-5,-2.180309 -0.03618,-1.666873 0.07285,-6.536443 0.07266,-2.010725 -0.01749,-3.706568 0.503388,-5.911232 0.654095,-2.725391 1.3904,-3.493707 3.897841,-3.493778 5.450898,7.1e-5 8.176357,1.199273 8.176384,3.597609 -2.7e-5,1.853379 0.05448,3.1616 0.163528,3.924664 0.654082,6.4e-5 3.815614,-1.471684 9.484601,-4.415247 5.668922,-2.943427 10.520242,-4.415175 14.553972,-4.415247 1.63522,7.2e-5 2.7254,0.436145 3.27055,1.308221 0.65406,0.7632 0.98111,2.616511 0.98117,5.559941 -6e-5,2.943561 -0.38162,5.178437 -1.1447,6.704635 -0.65416,0.109077 -1.85336,0.272605 -3.59761,0.490583 -1.63532,0.218095 -2.88903,0.381623 -3.76113,0.490583 -0.76318,0.109076 -1.90787,0.327113 -3.43408,0.654111 -1.5263,0.218094 -2.72551,0.43613 -3.59761,0.654111 -0.87219,0.109074 -1.96237,0.327111 -3.270562,0.65411 -1.19923,0.218093 -2.234909,0.490639 -3.107021,0.817639 -0.763163,0.32711 -1.580801,0.654165 -2.452916,0.981166 -1.744325,0.654164 -2.943527,1.526311 -3.597608,2.616443 l 0,10.629299 0.327055,27.799711 0,2.45292 c -2.9e-5,0.43608 -2.9e-5,1.36274 0,2.77997 -2.9e-5,1.30822 -0.05454,2.39841 -0.163528,3.27055 -2.8e-5,0.87215 -0.218065,1.7443 -0.654111,2.61644 -0.872174,1.41724 -3.161559,2.12586 -6.868162,2.12586 -3.597626,0 -3.456587,-0.44541 -4.110683,-0.88149 -1.308234,-0.87214 -1.598947,-6.37844 -1.598935,-16.7352"
       id="path3024"
       style="stroke:#000000;stroke-width:2.51986337;stroke-miterlimit:4;stroke-opacity:1;stroke-dasharray:none" />
  </g>
  <text
     x="149.76546"
     y="46.015991"
     id="text3841"
     xml:space="preserve"
     style="font-size:33.60087967px;font-style:normal;font-variant:normal;font-weight:normal;font-stretch:normal;line-height:125%;letter-spacing:0px;word-spacing:0px;fill:#ffffff;fill-opacity:1;stroke:#ffffff;stroke-width:2.19915318;stroke-miterlimit:4;stroke-opacity:1;stroke-dasharray:none;font-family:Varela Round;-inkscape-font-specification:Varela Round"><tspan
       x="149.76546"
       y="46.015991"
       id="tspan3843"
       style="font-style:normal;font-variant:normal;font-weight:normal;font-stretch:normal;fill:#ffffff;stroke:#ffffff;stroke-width:2.19915318;stroke-miterlimit:4;stroke-opacity:1;stroke-dasharray:none;font-family:Cagliostro;-inkscape-font-specification:Cagliostro">3</tspan></text>
</svg>
