<?xml version="1.0" encoding="UTF-8" standalone="no"?>
<!-- Created with Inkscape (http://www.inkscape.org/) -->

<svg
   xmlns:dc="http://purl.org/dc/elements/1.1/"
   xmlns:cc="http://creativecommons.org/ns#"
   xmlns:rdf="http://www.w3.org/1999/02/22-rdf-syntax-ns#"
   xmlns:svg="http://www.w3.org/2000/svg"
   xmlns="http://www.w3.org/2000/svg"
   xmlns:sodipodi="http://sodipodi.sourceforge.net/DTD/sodipodi-0.dtd"
   xmlns:inkscape="http://www.inkscape.org/namespaces/inkscape"
   version="1.0"
   width="177.16534"
   height="205.51181"
   id="svg2"
   sodipodi:version="0.32"
   inkscape:version="0.48.5 r10040"
   sodipodi:docname="logo-name.svg"
   inkscape:output_extension="org.inkscape.output.svg.inkscape"
   inkscape:export-filename="/home/equinox/realraum/git/logo/logo-aktuell.png"
   inkscape:export-xdpi="275.48813"
   inkscape:export-ydpi="275.48813">
  <sodipodi:namedview
     inkscape:window-height="998"
     inkscape:window-width="1400"
     inkscape:pageshadow="2"
     inkscape:pageopacity="0.0"
     guidetolerance="10.0"
     gridtolerance="10.0"
     objecttolerance="10.0"
     borderopacity="1.0"
     bordercolor="#666666"
     pagecolor="#ffffff"
     id="base"
     showgrid="false"
     inkscape:zoom="3.8197318"
     inkscape:cx="88.582672"
     inkscape:cy="102.75591"
     inkscape:window-x="0"
     inkscape:window-y="28"
     inkscape:current-layer="svg2"
     inkscape:document-units="mm"
     units="mm"
     showguides="true"
     inkscape:guide-bbox="true"
     inkscape:window-maximized="1"
     showborder="false"
     inkscape:showpageshadow="false" />
  <metadata
     id="metadata8">
    <rdf:RDF>
      <cc:Work
         rdf:about="">
        <dc:format>image/svg+xml</dc:format>
        <dc:type
           rdf:resource="http://purl.org/dc/dcmitype/StillImage" />
        <dc:title />
      </cc:Work>
    </rdf:RDF>
  </metadata>
  <defs
     id="defs4">
    <inkscape:perspective
       sodipodi:type="inkscape:persp3d"
       inkscape:vp_x="0 : 380.90848 : 1"
       inkscape:vp_y="0 : 1000 : 0"
       inkscape:vp_z="637.79529 : 380.90848 : 1"
       inkscape:persp3d-origin="318.89764 : 253.93899 : 1"
       id="perspective10" />
  </defs>
  <path
     style="fill:#000000;fill-opacity:1;stroke:none"
     d="M 87.637875,1.0013752 C 39.265496,1.6147822 0.19820224,41.083118 0.19820224,89.598987 c 0,48.897883 39.69770676,88.566343 88.59677876,88.566343 48.899079,0 88.565519,-39.66846 88.565509,-88.566343 0,-0.38203 0.007,-0.77623 0,-1.15712 l 0,-69.80228 C 177.16646,8.9161732 169.25677,1.0746262 159.50353,1.0013752 l -70.708549,0 -0.40655,0 c -0.24592,0 -0.504268,-0.0032 -0.750556,0 z m 67.518685,7.568169 c 2.16176,2.8e-5 4.02316,0.464049 5.4728,1.4698508 1.46679,0.987844 2.3142,2.579643 2.31421,4.347007 -1e-5,1.04568 -0.27695,2.096579 -0.75055,3.127342 -0.44721,0.946994 -0.94297,1.7618 -1.50111,2.408054 -0.40868,0.451679 -0.83822,0.912347 -1.2822,1.344757 1.24551,0.699346 2.29864,1.581051 3.09604,2.689515 l 0.0313,0 c 0.004,0.0068 -0.004,0.05574 0,0.06255 0.94249,1.267999 1.40728,2.781399 1.40729,4.409553 -1e-5,3.007682 -1.24782,5.538731 -3.59641,7.224161 -2.25967,1.640894 -5.04155,2.523448 -8.22483,2.626967 0,0 -0.0263,-9.69e-4 -0.0313,0 -0.78577,-2e-6 -1.56071,-0.396721 -2.0953,-0.969476 -0.42275,-0.455245 -0.81311,-0.950112 -0.81311,-1.688765 0,-0.340264 0.0139,-0.680919 0.0938,-1.000749 l 0.25019,-0.875656 0.87565,-0.03127 c 2.74874,-0.09239 4.69085,-0.690577 5.84807,-1.594944 1.15724,-0.904367 1.68875,-2.102376 1.68875,-4.002999 -1e-5,-1.857387 -0.73731,-2.955924 -2.75203,-3.846631 -0.52304,-0.235353 -0.93066,-0.44794 -1.2822,-0.688015 -0.35154,-0.240075 -0.81976,-0.442114 -0.90692,-1.313484 l -0.0313,-0.406555 0.21892,-0.344007 c 0.29378,-0.456992 0.75951,-1.049038 1.50111,-1.938953 l 0,-0.03127 c 0.71159,-0.826346 1.26982,-1.603555 1.65747,-2.314234 l 0,-0.03127 c 0.36623,-0.636069 0.53163,-1.242628 0.53164,-1.938952 -1e-5,-0.620902 -0.15477,-0.968007 -0.56291,-1.344758 -0.35249,-0.325347 -0.91275,-0.594176 -1.93894,-0.594195 -0.17966,9e-6 -0.84726,0.110212 -1.78256,0.344008 -0.4938,0.123457 -0.88728,0.216002 -1.18838,0.281461 -0.30111,0.06546 -0.37655,0.125156 -0.78183,0.125093 -0.74388,1.17e-4 -1.02,-0.263496 -1.40729,-0.531648 l -0.0313,-0.03127 -0.0313,-0.03127 c -0.44274,-0.3689 -0.87565,-0.904696 -0.87565,-1.626218 0,-0.804561 0.5142,-1.304867 0.96947,-1.626218 0.45526,-0.3213498 0.98196,-0.5927108 1.65748,-0.8443828 1.39309,-0.535763 2.81235,-0.81308 4.25314,-0.813109 z M 89.232805,21.266555 c 16.494815,0.139353 32.820035,6.498333 45.189675,17.388025 18.51588,16.002613 26.31218,42.581567 21.07809,66.33094 -4.5748,22.11478 -21.6617,40.55081 -42.62528,48.44253 -21.755049,8.77946 -47.903086,4.57998 -66.205216,-9.94495 C 26.355383,127.95945 16.519084,100.40133 21.682843,75.432127 27.819002,45.177035 56.700211,21.441683 87.637875,21.297829 c 0.532359,-0.0085 1.062847,-0.03576 1.59493,-0.03127 z m 29.521835,25.394021 c -6.19233,8.8e-5 -13.62645,1.806547 -22.329015,5.410303 -8.702665,3.603924 -13.569174,5.410381 -14.573279,5.410302 -0.167406,-0.93425 -0.250226,-2.54694 -0.250185,-4.816107 -4.1e-5,-2.93638 -4.172657,-4.409466 -12.540525,-4.409553 -3.849263,8.7e-5 -5.000316,0.947652 -6.004441,4.284459 -0.79962,2.69926 -0.670284,4.762349 -0.781829,7.224162 -0.167375,5.962012 -0.09384,5.336555 -0.09382,8.005996 0,0.04167 -6.6e-5,0.02388 0,0.06255 -0.0089,0.03298 -0.01943,0.04955 -0.03127,0.125094 l 0.125092,46.190848 c 0.0039,12.57312 0.471038,19.26458 2.470578,20.32773 1.004125,0.5339 0.794326,1.09456 6.317172,1.09456 5.690138,0 9.20014,-0.89178 10.539045,-2.62696 0.66939,-1.06779 1.000697,-2.12208 1.00074,-3.18989 0.167307,-1.0678 0.25014,-2.40129 0.250185,-4.003 -4.5e-5,-1.73517 -4.5e-5,-2.87489 0,-3.4088 l 0,-3.00225 -0.50037,-34.025483 0,-13.009749 c 1.004104,-1.334692 2.857568,-2.420244 5.535344,-3.221163 1.338816,-0.40036 2.58122,-0.787896 3.752776,-1.18839 1.33881,-0.40036 2.943807,-0.73373 4.784789,-1.00075 2.008256,-0.400358 3.664763,-0.679565 5.003693,-0.813109 1.33879,-0.266883 3.19227,-0.546087 5.53535,-0.813109 2.34294,-0.400357 4.08232,-0.648288 5.25388,-0.781835 1.3388,-0.133404 3.27509,-0.327173 5.78553,-0.594195 2.67766,-0.26688 4.49987,-0.491921 5.50407,-0.625469 1.17145,-1.868586 1.78248,-4.589717 1.78257,-8.193637 -9e-5,-3.603762 -0.52832,-5.88319 -1.53238,-6.817607 -0.83688,-1.067718 -2.49342,-1.594857 -5.0037,-1.594945 z"
     id="path3021"
     inkscape:connector-curvature="0" />
  <text
     xml:space="preserve"
     style="font-size:18.78186989px;font-style:normal;font-weight:normal;line-height:125%;letter-spacing:0px;word-spacing:0px;fill:#000000;fill-opacity:1;stroke:none;font-family:Sans"
     x="78.897285"
     y="199.81178"
     id="text3529"
     sodipodi:linespacing="125%"><tspan
       sodipodi:role="line"
       id="tspan3531"
       x="78.897285"
       y="199.81178"
       style="font-style:normal;font-variant:normal;font-weight:normal;font-stretch:normal;font-family:Trebuchet MS;-inkscape-font-specification:Trebuchet MS" /></text>
  <text
     xml:space="preserve"
     style="font-size:28px;font-style:normal;font-weight:normal;line-height:125%;letter-spacing:0px;word-spacing:0px;fill:#000000;fill-opacity:1;stroke:none;font-family:Sans"
     x="89.766304"
     y="198.83049"
     id="text3537"
     sodipodi:linespacing="125%"><tspan
       sodipodi:role="line"
       id="tspan3539"
       x="89.766304"
       y="198.83049" /></text>
  <g
     style="font-size:38.38488007px;font-style:normal;font-variant:normal;font-weight:normal;font-stretch:normal;line-height:125%;letter-spacing:0px;word-spacing:0px;fill:#000000;fill-opacity:1;stroke:#000000;stroke-width:0.75560778;stroke-miterlimit:4;stroke-opacity:1;font-family:Droid Sans;-inkscape-font-specification:Droid Sans"
     id="text3722"
     transform="translate(0,1.2667364)">
    <path
       d="m 0.37780378,199.26111 0.26869416,-8.52144 c 0.0255867,-0.20471 0.0383816,-0.56297 0.0383849,-1.07478 -3.26e-6,-0.51178 0.0127917,-0.89563 0.0383849,-1.15154 0.0511765,-0.25589 0.11515123,-0.56297 0.1919244,-0.92124 0.15353586,-0.63973 0.52458926,-0.95961 1.11316146,-0.95962 1.2794901,1e-5 1.9192375,0.2815 1.919244,0.84446 -6.5e-6,0.43505 0.012788,0.74213 0.038385,0.92124 0.1535328,2e-5 0.8956397,-0.34545 2.2263231,-1.03639 1.3306657,-0.69091 2.469416,-1.03637 3.4162543,-1.03639 0.383836,2e-5 0.639735,0.10237 0.767697,0.30708 0.153527,0.17914 0.230297,0.61417 0.23031,1.30508 -1.3e-5,0.69095 -0.08958,1.21554 -0.268694,1.57378 -0.153553,0.0256 -0.4350414,0.064 -0.8444677,0.11516 -0.3838605,0.0512 -0.6781443,0.0896 -0.8828522,0.11515 -0.1791405,0.0256 -0.4478344,0.0768 -0.8060825,0.15354 -0.3582689,0.0512 -0.6397577,0.10238 -0.8444673,0.15354 -0.2047288,0.0256 -0.4606277,0.0768 -0.7676976,0.15354 -0.2814977,0.0512 -0.5246017,0.11517 -0.7293128,0.19193 -0.1791373,0.0768 -0.3710615,0.15355 -0.5757732,0.2303 -0.4094458,0.15356 -0.6909346,0.35828 -0.8444673,0.61416 l 0,2.49502 0.07677,6.52543 0,0.57577 c -6.7e-6,0.10237 -6.7e-6,0.31988 0,0.65255 -6.7e-6,0.30708 -0.012802,0.56298 -0.038385,0.76769 -6.6e-6,0.20472 -0.051186,0.40944 -0.1535395,0.61416 -0.2047257,0.33267 -0.7421134,0.49901 -1.6121649,0.49901 -0.8444715,0 -1.34347437,-0.0512 -1.49701032,-0.15354 -0.30708215,-0.20472 -0.46062151,-1.5226 -0.46061856,-3.95365"
       style="letter-spacing:-0.95962203px;stroke:#000000;font-family:Cagliostro;-inkscape-font-specification:Cagliostro"
       id="path2992"
       inkscape:connector-curvature="0" />
    <path
       d="m 26.228821,193.84884 c -1.6e-5,1e-5 -2.930059,0.0128 -8.790138,0.0384 -0.946833,1e-5 -1.497016,0.0768 -1.650549,0.23031 -0.127956,0.17914 -0.19193,0.47342 -0.191925,0.88285 -5e-6,1.99602 0.562972,3.53142 1.688935,4.60619 1.151538,1.04919 2.456623,1.57378 3.915258,1.57378 1.458613,0 2.597363,-0.19193 3.416254,-0.57578 0.02557,1e-5 0.281474,-0.16633 0.767698,-0.499 0.486192,-0.33267 0.818861,-0.499 0.998006,-0.499 0.204703,0 0.358243,0.0768 0.460619,0.23031 0.102343,0.15354 0.153523,0.30708 0.15354,0.46061 -1.7e-5,0.97242 -0.716534,1.8041 -2.149554,2.49502 -1.433049,0.66534 -3.109187,0.99801 -5.028419,0.99801 -1.893662,0 -3.710544,-0.7677 -5.450653,-2.30309 -1.714527,-1.5354 -2.571789,-3.60818 -2.571787,-6.21835 -2e-6,-2.61017 0.80608,-4.75972 2.418247,-6.44866 1.63775,-1.68892 3.825686,-2.53339 6.563815,-2.53341 1.996001,2e-5 3.608164,0.58859 4.836495,1.76571 1.305069,1.22833 1.957611,2.71254 1.957629,4.45264 -1.8e-5,0.89566 -0.447841,1.34348 -1.343471,1.34347 M 16.248752,191.968 c 4.862074,1e-5 7.676962,-0.0256 8.444674,-0.0768 -0.07678,-1.02359 -0.473428,-1.86805 -1.189932,-2.53341 -0.69094,-0.66532 -1.573791,-0.99799 -2.648556,-0.998 -1.074787,1e-5 -2.085587,0.38386 -3.032406,1.15154 -0.921244,0.74212 -1.445837,1.561 -1.57378,2.45664"
       style="letter-spacing:-0.95962203px;stroke:#000000;font-family:Cagliostro;-inkscape-font-specification:Cagliostro"
       id="path2994"
       inkscape:connector-curvature="0" />
    <path
       d="m 41.621158,203.3683 c -0.76771,0 -1.125968,-0.42224 -1.074776,-1.26671 -1.2e-5,-0.28148 -0.0384,-0.42223 -0.115155,-0.42223 -0.204731,0.0768 -0.614169,0.29429 -1.228316,0.65254 -3.045208,1.86807 -5.719352,1.98322 -8.02244,0.34547 -1.049188,-0.74211 -1.573781,-1.7657 -1.57378,-3.07079 -1e-6,-1.97042 0.90844,-3.40346 2.725326,-4.29911 1.842469,-0.89564 4.119969,-1.34346 6.832509,-1.34347 0.486197,1e-5 0.844456,0.0128 1.074777,0.0384 -1.2e-5,-0.43501 0.01278,-0.74209 0.03838,-0.92123 -1.2e-5,-1.45862 -0.409451,-2.54619 -1.228317,-3.26272 -0.793297,-0.74209 -1.906457,-1.11314 -3.339484,-1.11316 -0.690935,2e-5 -1.433042,0.10238 -2.226323,0.30708 -0.793292,0.20473 -1.30509,0.30709 -1.535395,0.30708 -0.230313,1e-5 -0.422237,-0.14073 -0.575774,-0.42223 -0.127952,-0.28148 -0.191927,-0.65253 -0.191924,-1.11317 -3e-6,-0.4606 0.562975,-0.81886 1.688935,-1.07477 1.15154,-0.28148 2.251906,-0.42222 3.301099,-0.42224 2.482212,2e-5 4.36307,0.65256 5.642578,1.95763 1.305071,1.3051 1.957613,3.21155 1.957629,5.71935 l 0,7.90728 c -1.6e-5,0.69093 -0.127965,1.11317 -0.383849,1.26671 -0.255914,0.15354 -0.844482,0.23031 -1.765705,0.23031 m -1.42024,-4.03042 c 0.05117,-0.71651 0.07676,-1.48421 0.07677,-2.30309 -1.2e-5,-0.81887 -0.01281,-1.27949 -0.03838,-1.38186 -3.531418,0.33268 -5.680969,0.97243 -6.44866,1.91925 -0.409444,0.48621 -0.614163,1.04919 -0.614158,1.68893 -5e-6,1.35627 1.010796,2.0344 3.032405,2.0344 1.023588,0 1.932029,-0.23031 2.725327,-0.69093 0.818866,-0.4862 1.241099,-0.90843 1.266701,-1.2667"
       style="letter-spacing:-0.95962203px;stroke:#000000;font-family:Cagliostro;-inkscape-font-specification:Cagliostro"
       id="path2996"
       inkscape:connector-curvature="0" />
    <path
       d="m 48.405684,190.31744 -0.07677,-7.83052 c -3e-6,-0.51178 -3e-6,-0.99798 0,-1.45863 0.02559,-0.48618 0.03838,-0.90841 0.03838,-1.2667 l 0,-1.80409 c -3e-6,-1.15152 0.07677,-1.93201 0.230309,-2.34147 0.179126,-0.40941 0.678129,-0.61413 1.49701,-0.61416 0.844462,3e-5 1.369055,0.064 1.57378,0.19192 0.204713,0.10239 0.307073,0.35829 0.307079,0.7677 l 0.03838,14.16402 0.03838,8.44468 c -7e-6,0.7677 0.230302,1.38185 0.690928,1.84247 0.460611,0.46062 0.985203,0.69093 1.57378,0.69093 0.588559,0 1.177126,-0.064 1.765704,-0.19193 0.614147,-0.15353 0.997996,-0.2303 1.151547,-0.23031 0.332657,1e-5 0.498991,0.20473 0.499003,0.61416 -1.2e-5,0.87006 -0.601375,1.50981 -1.804089,1.91925 -0.844477,0.25589 -1.752918,0.38384 -2.725327,0.38384 -0.946834,0 -1.71453,-0.16633 -2.303092,-0.499 -0.588574,-0.33267 -1.049192,-0.74211 -1.381856,-1.22832 -0.307083,-0.4862 -0.550187,-1.17713 -0.729313,-2.07278 -0.255902,-1.2539 -0.383852,-3.07078 -0.383849,-5.45065 l 0,-4.03041"
       style="letter-spacing:-0.95962203px;stroke:#000000;font-family:Cagliostro;-inkscape-font-specification:Cagliostro"
       id="path2998"
       inkscape:connector-curvature="0" />
    <path
       d="m 59.739422,199.26111 0.268694,-8.52144 c 0.02559,-0.20471 0.03838,-0.56297 0.03838,-1.07478 -3e-6,-0.51178 0.01279,-0.89563 0.03838,-1.15154 0.05118,-0.25589 0.115151,-0.56297 0.191924,-0.92124 0.153536,-0.63973 0.524589,-0.95961 1.113162,-0.95962 1.27949,1e-5 1.919237,0.2815 1.919244,0.84446 -7e-6,0.43505 0.01279,0.74213 0.03838,0.92124 0.153532,2e-5 0.895639,-0.34545 2.226323,-1.03639 1.330665,-0.69091 2.469416,-1.03637 3.416254,-1.03639 0.383836,2e-5 0.639735,0.10237 0.767698,0.30708 0.153526,0.17914 0.230296,0.61417 0.230309,1.30508 -1.3e-5,0.69095 -0.08958,1.21554 -0.268694,1.57378 -0.153553,0.0256 -0.435042,0.064 -0.844468,0.11516 -0.38386,0.0512 -0.678144,0.0896 -0.882852,0.11515 -0.17914,0.0256 -0.447834,0.0768 -0.806082,0.15354 -0.358269,0.0512 -0.639758,0.10238 -0.844468,0.15354 -0.204729,0.0256 -0.460627,0.0768 -0.767697,0.15354 -0.281498,0.0512 -0.524602,0.11517 -0.729313,0.19193 -0.179137,0.0768 -0.371062,0.15355 -0.575773,0.2303 -0.409446,0.15356 -0.690935,0.35828 -0.844468,0.61416 l 0,2.49502 0.07677,6.52543 0,0.57577 c -7e-6,0.10237 -7e-6,0.31988 0,0.65255 -7e-6,0.30708 -0.0128,0.56298 -0.03838,0.76769 -6e-6,0.20472 -0.05119,0.40944 -0.153539,0.61416 -0.204726,0.33267 -0.742114,0.49901 -1.612165,0.49901 -0.844472,0 -1.343475,-0.0512 -1.497011,-0.15354 -0.307082,-0.20472 -0.460621,-1.5226 -0.460618,-3.95365"
       style="letter-spacing:-0.95962203px;stroke:#000000;font-family:Cagliostro;-inkscape-font-specification:Cagliostro"
       id="path3000"
       inkscape:connector-curvature="0" />
    <path
       d="m 82.74996,203.3683 c -0.76771,0 -1.125969,-0.42224 -1.074777,-1.26671 -1.2e-5,-0.28148 -0.0384,-0.42223 -0.115155,-0.42223 -0.204731,0.0768 -0.614169,0.29429 -1.228316,0.65254 -3.045208,1.86807 -5.719352,1.98322 -8.02244,0.34547 -1.049188,-0.74211 -1.573781,-1.7657 -1.57378,-3.07079 -10e-7,-1.97042 0.90844,-3.40346 2.725327,-4.29911 1.842468,-0.89564 4.119969,-1.34346 6.832508,-1.34347 0.486198,1e-5 0.844456,0.0128 1.074777,0.0384 -1.2e-5,-0.43501 0.01278,-0.74209 0.03838,-0.92123 -1.2e-5,-1.45862 -0.40945,-2.54619 -1.228316,-3.26272 -0.793298,-0.74209 -1.906458,-1.11314 -3.339485,-1.11316 -0.690934,2e-5 -1.433041,0.10238 -2.226323,0.30708 -0.793292,0.20473 -1.30509,0.30709 -1.535395,0.30708 -0.230313,1e-5 -0.422237,-0.14073 -0.575773,-0.42223 -0.127953,-0.28148 -0.191927,-0.65253 -0.191925,-1.11317 -2e-6,-0.4606 0.562975,-0.81886 1.688935,-1.07477 1.151541,-0.28148 2.251906,-0.42222 3.3011,-0.42224 2.482212,2e-5 4.363069,0.65256 5.642577,1.95763 1.305071,1.3051 1.957614,3.21155 1.957629,5.71935 l 0,7.90728 c -1.5e-5,0.69093 -0.127965,1.11317 -0.383849,1.26671 -0.255914,0.15354 -0.844481,0.23031 -1.765704,0.23031 m -1.420241,-4.03042 c 0.05117,-0.71651 0.07676,-1.48421 0.07677,-2.30309 -1.2e-5,-0.81887 -0.01281,-1.27949 -0.03838,-1.38186 -3.531417,0.33268 -5.680968,0.97243 -6.44866,1.91925 -0.409444,0.48621 -0.614163,1.04919 -0.614158,1.68893 -5e-6,1.35627 1.010796,2.0344 3.032406,2.0344 1.023588,0 1.932029,-0.23031 2.725326,-0.69093 0.818866,-0.4862 1.241099,-0.90843 1.266701,-1.2667"
       style="letter-spacing:-0.95962203px;stroke:#000000;font-family:Cagliostro;-inkscape-font-specification:Cagliostro"
       id="path3002"
       inkscape:connector-curvature="0" />
    <path
       d="m 100.93479,198.99242 0.19193,-6.98605 0,-1.99601 c -2e-5,-1.07477 0.0767,-1.88085 0.23031,-2.41825 0.17911,-0.56296 0.53737,-0.84445 1.07477,-0.84447 0.89563,2e-5 1.53538,0.064 1.91925,0.19193 0.15352,0.20473 0.23029,0.88286 0.23031,2.0344 l 0.11515,9.71137 0.15354,3.37787 c -2e-5,0.81888 -0.10238,1.24111 -0.30708,1.2667 -0.5374,0.0768 -1.03641,0.11515 -1.49701,0.11515 -0.43504,0 -0.74212,-0.0384 -0.92124,-0.11515 -0.15355,-0.10236 -0.25591,-0.23031 -0.30707,-0.38385 -0.0512,-0.17913 -0.0896,-0.35826 -0.11516,-0.53739 -0.0256,-0.17913 -0.0512,-0.35825 -0.0768,-0.53739 -0.0256,-0.40943 -0.0896,-0.58856 -0.19192,-0.53738 -0.3071,-0.0256 -0.92125,0.35826 -1.842478,1.15154 -0.358271,0.33267 -0.921249,0.62696 -1.688934,0.88286 -0.767709,0.28148 -1.70174,0.42223 -2.802097,0.42223 -1.100374,0 -2.085585,-0.2687 -2.955635,-0.80608 -0.844472,-0.53739 -1.471425,-1.2667 -1.880859,-2.18794 -0.716521,-1.68893 -1.07478,-3.58258 -1.074777,-5.68096 l 0.07677,-6.1032 0.03839,-0.69093 c -3e-6,-0.56296 0.115151,-0.9596 0.345463,-1.18993 0.230306,-0.25588 0.703719,-0.38383 1.420241,-0.38385 0.716512,2e-5 1.164336,0.064 1.343471,0.19193 0.204713,0.10237 0.307073,0.38386 0.307079,0.84446 l -0.07677,5.6042 c -6e-6,2.94284 0.307073,4.90047 0.921237,5.87288 0.281482,0.43504 0.69092,0.80609 1.228316,1.11316 0.56297,0.30709 1.228307,0.46063 1.996014,0.46062 0.767687,1e-5 1.650538,-0.15353 2.648557,-0.46062 0.998002,-0.30707 1.497002,-0.76769 1.497012,-1.38185"
       style="letter-spacing:-0.95962203px;stroke:#000000;font-family:Cagliostro;-inkscape-font-specification:Cagliostro"
       id="path3004"
       inkscape:connector-curvature="0" />
    <path
       d="m 111.44026,186.67087 1.65055,0.0384 c 0.0256,0.0256 0.14074,0.46063 0.34546,1.30508 0.20471,-0.0768 0.7421,-0.29427 1.61217,-0.65254 1.76569,-0.69091 3.14754,-1.03637 4.14556,-1.03639 1.66333,2e-5 2.99401,0.67815 3.99203,2.0344 l 0.38385,-0.2687 c 0.28147,-0.17911 0.4606,-0.29427 0.53739,-0.34546 l 0.46062,-0.2687 c 0.25588,-0.15352 0.4478,-0.25588 0.57577,-0.30707 0.12793,-0.0512 0.31985,-0.14073 0.57577,-0.2687 0.28147,-0.12793 0.51178,-0.2175 0.69093,-0.26869 0.2047,-0.0512 0.43501,-0.11514 0.69093,-0.19193 0.48619,-0.10234 1.03637,-0.15352 1.65055,-0.15354 2.68691,2e-5 4.40144,1.27952 5.14357,3.83849 0.20469,0.56299 0.33264,1.91926 0.38385,4.0688 l 0,7.13959 c -3e-5,0.87005 -0.15357,1.43303 -0.46062,1.68893 -0.28151,0.23031 -0.8317,0.34547 -1.65055,0.34547 -0.79331,0 -1.27952,-0.0512 -1.45862,-0.15354 -0.15357,-0.12795 -0.23034,-0.42224 -0.23031,-0.88286 l 0.11515,-2.30309 0,-4.60619 c -2e-5,-0.10235 -2e-5,-0.43502 0,-0.998 -2e-5,-0.56297 -0.0128,-1.04918 -0.0384,-1.45863 -3e-5,-0.40943 -0.064,-0.92122 -0.19193,-1.53539 -0.10238,-0.61415 -0.26871,-1.04918 -0.499,-1.30509 -0.63977,-0.7165 -1.5866,-1.07476 -2.84048,-1.07478 -2.37988,2e-5 -3.56981,0.78051 -3.5698,2.34148 l 0.11516,3.49303 0,5.22034 c -2e-5,1.12596 -0.10238,1.86807 -0.30708,2.22632 -0.10238,0.17913 -0.33268,0.2687 -0.69093,0.2687 -1.43305,0 -2.26472,-0.17913 -2.49501,-0.53739 -0.17915,-0.2559 -0.25592,-0.65254 -0.23031,-1.18993 0.0512,-0.53739 0.0768,-0.84447 0.0768,-0.92124 l 0.19192,-6.79412 c -1e-5,-1.45862 -0.24312,-2.45662 -0.72931,-2.99402 -0.48622,-0.53738 -1.24113,-0.80607 -2.26471,-0.80609 -2.45664,2e-5 -3.68496,0.47343 -3.68495,1.42024 l 0.0768,3.14756 -0.0768,6.64059 c -1e-5,0.15354 -1e-5,0.39665 0,0.72931 0.0256,0.30708 0.0256,0.5118 0,0.61416 l -0.0384,0.46062 c -0.0256,0.20472 -0.064,0.34546 -0.11516,0.42223 -0.30708,0.28149 -0.56298,0.43503 -0.7677,0.46062 -0.56298,0.0768 -1.0108,0.11516 -1.34347,0.11516 -0.30708,0 -0.52459,-0.0128 -0.65254,-0.0384 -0.10236,-0.0256 -0.19193,-0.064 -0.26869,-0.11515 -0.0768,-0.0768 -0.14075,-0.14075 -0.19193,-0.19193 -0.0512,-0.0768 -0.10236,-0.17913 -0.15354,-0.30708 -0.0256,-0.15354 -0.0512,-0.28149 -0.0768,-0.38385 0,-0.12795 0,-0.30707 0,-0.53738 l 0,-1.95763 0.15354,-7.98406 0.0768,-3.18594 0.0768,-0.7677 c 0,-0.30706 0.064,-0.55017 0.19193,-0.72931 0.15353,-0.20471 0.26869,-0.31986 0.34546,-0.34547 0.30707,-0.10234 0.56297,-0.15352 0.7677,-0.15354"
       style="letter-spacing:-0.95962203px;stroke:#000000;font-family:Cagliostro;-inkscape-font-specification:Cagliostro"
       id="path3006"
       inkscape:connector-curvature="0" />
    <path
       d="m 141.38646,198.33988 c 0.40943,-0.0512 0.71651,-0.0768 0.92124,-0.0768 1.63774,0 2.45662,0.79329 2.45663,2.37986 -1e-5,0.92124 -0.30709,1.68893 -0.92124,2.30309 -0.61416,0.61416 -1.38186,0.92124 -2.30309,0.92124 -0.48621,0 -1.11317,-0.24311 -1.88086,-0.72931 -0.74211,-0.5118 -1.11316,-1.25391 -1.11316,-2.22633 0,-0.58856 0.29428,-1.12595 0.88285,-1.61216 0.61415,-0.48621 1.2667,-0.80608 1.95763,-0.95962"
       style="letter-spacing:-0.95962203px;stroke:#000000;font-family:Cagliostro;-inkscape-font-specification:Cagliostro"
       id="path3008"
       inkscape:connector-curvature="0" />
    <path
       d="m 159.65466,203.3683 c -0.76771,0 -1.12597,-0.42224 -1.07478,-1.26671 -1e-5,-0.28148 -0.0384,-0.42223 -0.11515,-0.42223 -0.20473,0.0768 -0.61417,0.29429 -1.22832,0.65254 -3.0452,1.86807 -5.71935,1.98322 -8.02244,0.34547 -1.04918,-0.74211 -1.57378,-1.7657 -1.57378,-3.07079 0,-1.97042 0.90844,-3.40346 2.72533,-4.29911 1.84247,-0.89564 4.11997,-1.34346 6.83251,-1.34347 0.4862,1e-5 0.84445,0.0128 1.07478,0.0384 -2e-5,-0.43501 0.0128,-0.74209 0.0384,-0.92123 -10e-6,-1.45862 -0.40945,-2.54619 -1.22832,-3.26272 -0.79329,-0.74209 -1.90645,-1.11314 -3.33948,-1.11316 -0.69094,2e-5 -1.43304,0.10238 -2.22632,0.30708 -0.7933,0.20473 -1.30509,0.30709 -1.5354,0.30708 -0.23031,1e-5 -0.42224,-0.14073 -0.57577,-0.42223 -0.12795,-0.28148 -0.19193,-0.65253 -0.19193,-1.11317 0,-0.4606 0.56298,-0.81886 1.68894,-1.07477 1.15154,-0.28148 2.2519,-0.42222 3.3011,-0.42224 2.48221,2e-5 4.36307,0.65256 5.64258,1.95763 1.30507,1.3051 1.95761,3.21155 1.95762,5.71935 l 0,7.90728 c -1e-5,0.69093 -0.12796,1.11317 -0.38384,1.26671 -0.25592,0.15354 -0.84449,0.23031 -1.76571,0.23031 m -1.42024,-4.03042 c 0.0512,-0.71651 0.0768,-1.48421 0.0768,-2.30309 -1e-5,-0.81887 -0.0128,-1.27949 -0.0384,-1.38186 -3.53142,0.33268 -5.68097,0.97243 -6.44866,1.91925 -0.40945,0.48621 -0.61417,1.04919 -0.61416,1.68893 -10e-6,1.35627 1.01079,2.0344 3.0324,2.0344 1.02359,0 1.93203,-0.23031 2.72533,-0.69093 0.81887,-0.4862 1.2411,-0.90843 1.2667,-1.2667"
       style="letter-spacing:-0.95962203px;stroke:#000000;font-family:Cagliostro;-inkscape-font-specification:Cagliostro"
       id="path3010"
       inkscape:connector-curvature="0" />
    <path
       d="m 170.89184,192.23668 -0.0768,5.52742 c -1e-5,1.04919 0.17912,1.85528 0.53739,2.41825 0.35825,0.53739 0.95961,0.80608 1.80409,0.80608 0.84445,0 1.56097,-0.0768 2.14955,-0.23031 1.10035,-0.30707 1.65054,-0.15353 1.65055,0.46062 -10e-6,1.71453 -1.58659,2.57179 -4.75973,2.57179 -1.7913,0 -3.18595,-0.80608 -4.18395,-2.41825 -0.48621,-1.02359 -0.72931,-2.23911 -0.72931,-3.64656 l 0.0768,-4.45265 0.0768,-3.22433 c 0,-0.35824 -0.0512,-0.57576 -0.15354,-0.65254 -0.10236,-0.10235 -0.29429,-0.15353 -0.57577,-0.15354 l -1.49701,0.11515 c -0.63975,2e-5 -0.95963,-0.2047 -0.95963,-0.61415 0,-0.71651 0.0768,-1.21551 0.23031,-1.49701 0.17913,-0.30707 0.49901,-0.46061 0.95963,-0.46062 l 1.49701,0.11515 c 0.35825,2e-5 0.53738,-0.43501 0.53738,-1.30508 0,-0.10235 0,-0.16632 0,-0.19193 l 0,-2.18794 c 0,-0.66531 0.0128,-1.04916 0.0384,-1.15154 0.30707,-0.15352 1.31787,-0.23029 3.0324,-0.23031 0.46062,2e-5 0.69092,0.24312 0.69093,0.72931 l -0.11515,4.22234 c 0.30707,0.0256 0.80607,0.0384 1.49701,0.0384 l 3.07079,-0.23031 c 0.40942,2e-5 0.61414,0.24312 0.61416,0.72932 -2e-5,1.40746 -0.69094,2.11118 -2.07279,2.11116 l -2.49501,-0.15354 c -0.40945,2e-5 -0.66535,0.0256 -0.7677,0.0768 -0.0512,0.46064 -0.0768,1.42026 -0.0768,2.87887"
       style="letter-spacing:-0.95962203px;stroke:#000000;font-family:Cagliostro;-inkscape-font-specification:Cagliostro"
       id="path3012"
       inkscape:connector-curvature="0" />
  </g>
</svg>
