<?xml version="1.0" encoding="UTF-8" standalone="no"?>
<!-- Created with Inkscape (http://www.inkscape.org/) -->

<svg
   xmlns:dc="http://purl.org/dc/elements/1.1/"
   xmlns:cc="http://creativecommons.org/ns#"
   xmlns:rdf="http://www.w3.org/1999/02/22-rdf-syntax-ns#"
   xmlns:svg="http://www.w3.org/2000/svg"
   xmlns="http://www.w3.org/2000/svg"
   xmlns:sodipodi="http://sodipodi.sourceforge.net/DTD/sodipodi-0.dtd"
   xmlns:inkscape="http://www.inkscape.org/namespaces/inkscape"
   version="1.0"
   width="184.25197"
   height="184.25197"
   id="svg2"
   sodipodi:version="0.32"
   inkscape:version="0.48.5 r10040"
   sodipodi:docname="logo-lasercutter.dxf"
   inkscape:output_extension="org.inkscape.output.svg.inkscape">
  <sodipodi:namedview
     inkscape:window-height="998"
     inkscape:window-width="1400"
     inkscape:pageshadow="2"
     inkscape:pageopacity="0.0"
     guidetolerance="10.0"
     gridtolerance="10.0"
     objecttolerance="10.0"
     borderopacity="1.0"
     bordercolor="#666666"
     pagecolor="#ffffff"
     id="base"
     showgrid="false"
     inkscape:zoom="4.26047"
     inkscape:cx="92.125987"
     inkscape:cy="92.125987"
     inkscape:window-x="0"
     inkscape:window-y="28"
     inkscape:current-layer="svg2"
     inkscape:document-units="mm"
     units="mm"
     showguides="true"
     inkscape:guide-bbox="true"
     inkscape:window-maximized="1">
    <sodipodi:guide
       orientation="0,1"
       position="3.5433071,3.5433071"
       id="guide3509" />
    <sodipodi:guide
       orientation="1,0"
       position="3.5433071,3.5433071"
       id="guide3511" />
    <sodipodi:guide
       orientation="0,1"
       position="3.5433071,180.70866"
       id="guide3513" />
    <sodipodi:guide
       orientation="1,0"
       position="180.70866,3.5433071"
       id="guide3519" />
    <sodipodi:guide
       orientation="0,1"
       position="10.629921,10.629921"
       id="guide3521" />
    <sodipodi:guide
       orientation="1,0"
       position="10.629921,10.629921"
       id="guide3523" />
    <sodipodi:guide
       orientation="0,1"
       position="10.629921,173.62205"
       id="guide3525" />
    <sodipodi:guide
       orientation="1,0"
       position="173.62205,10.629921"
       id="guide3527" />
  </sodipodi:namedview>
  <metadata
     id="metadata8">
    <rdf:RDF>
      <cc:Work
         rdf:about="">
        <dc:format>image/svg+xml</dc:format>
        <dc:type
           rdf:resource="http://purl.org/dc/dcmitype/StillImage" />
        <dc:title></dc:title>
      </cc:Work>
    </rdf:RDF>
  </metadata>
  <defs
     id="defs4">
    <inkscape:perspective
       sodipodi:type="inkscape:persp3d"
       inkscape:vp_x="0 : 380.90848 : 1"
       inkscape:vp_y="0 : 1000 : 0"
       inkscape:vp_z="637.79529 : 380.90848 : 1"
       inkscape:persp3d-origin="318.89764 : 253.93899 : 1"
       id="perspective10" />
  </defs>
  <g
     style="font-size:163.52767943999998579px;font-style:normal;font-variant:normal;font-weight:normal;font-stretch:normal;line-height:125%;letter-spacing:0px;word-spacing:0px;fill:none;stroke:#000000;stroke-width:0.28092527;stroke-miterlimit:4;stroke-opacity:1;stroke-dasharray:none;font-family:Cagliostro;-inkscape-font-specification:Cagliostro"
     id="text3003-7"
     transform="matrix(1.4123259,0,0,1.1264218,-40.62212,-20.21162)"
     clip-path="none">
    <g
       id="g4886"
       style="stroke-width:0.28092527;stroke-miterlimit:4;stroke-dasharray:none">
      <path
         d="m 76.741376,119.79215 -0.07874,-37.739938 c 0.109005,-0.872093 0.01816,2.042528 0.01817,-0.137901 -1.4e-5,-2.180309 -0.03618,-1.666873 0.07285,-6.536443 0.07266,-2.010725 -0.01749,-3.706568 0.503388,-5.911232 0.654095,-2.725391 1.3904,-3.493707 3.897841,-3.493778 5.450898,7.1e-5 8.176357,1.199273 8.176384,3.597609 -2.7e-5,1.853379 0.05448,3.1616 0.163528,3.924664 0.654082,6.4e-5 3.815614,-1.471684 9.484601,-4.415247 5.668922,-2.943427 10.520242,-4.415175 14.553972,-4.415247 1.63522,7.2e-5 2.7254,0.436145 3.27055,1.308221 0.65406,0.7632 0.98111,2.616511 0.98117,5.559941 -6e-5,2.943561 -0.38162,5.178437 -1.1447,6.704635 -0.65416,0.109077 -1.85336,0.272605 -3.59761,0.490583 -1.63532,0.218095 -2.88903,0.381623 -3.76113,0.490583 -0.76318,0.109076 -1.90787,0.327113 -3.43408,0.654111 -1.5263,0.218094 -2.72551,0.43613 -3.59761,0.654111 -0.87219,0.109074 -1.96237,0.327111 -3.270562,0.65411 -1.19923,0.218093 -2.234909,0.490639 -3.107021,0.817639 -0.763163,0.32711 -1.580801,0.654165 -2.452916,0.981166 -1.744325,0.654164 -2.943527,1.526311 -3.597608,2.616443 l 0,10.629299 0.327055,27.799711 0,2.45292 c -2.9e-5,0.43608 -2.9e-5,1.36274 0,2.77997 -2.9e-5,1.30822 -0.05454,2.39841 -0.163528,3.27055 -2.8e-5,0.87215 -0.218065,1.7443 -0.654111,2.61644 -0.872174,1.41724 -3.161559,2.12586 -6.868162,2.12586 -3.597626,0 -3.456587,-0.44541 -4.110683,-0.88149 -1.308234,-0.87214 -1.598947,-6.37844 -1.598935,-16.7352"
         style="fill:none;stroke:#000000;stroke-width:0.28092527;stroke-miterlimit:4;stroke-opacity:1;stroke-dasharray:none"
         id="path3024-5"
         inkscape:connector-curvature="0"
         sodipodi:nodetypes="cccccccccccccccccccccccccccscc" />
      <path
         inkscape:connector-curvature="0"
         d="M 77.341366,69.198061 49.609409,103.96884 m 0.260518,2.18434 26.99316,-33.84446 m -0.09676,2.632304 -26.635881,33.396496 m 0.260517,2.18435 26.33907,-33.024357 m -0.02838,2.546571 -25.933684,32.516076 m 25.922819,-29.991469 0.01627,-0.0204 m -0.04327,0.05425 -25.445377,31.903829 m 0.45044,1.94621 25.000162,-31.345607 m 0.0052,2.504433 -24.554947,30.787394 m 0.576522,1.78813 23.98365,-30.071091 m 0.0052,2.504432 -23.374996,29.307949 m 0.61388,1.7413 22.766342,-28.544817 m 0.0052,2.504433 -22.157688,27.781674 m 0.691307,1.64421 21.471606,-26.92145 M 91.65435,83.895003 89.821853,86.192617 M 55.955653,128.65461 76.705586,102.638 M 94.840287,82.411407 89.821853,88.703601 M 56.724485,130.20162 76.710811,105.14244 M 97.517515,81.565639 89.821853,91.214585 M 57.524568,131.70944 76.716037,107.64687 M 99.987883,80.979236 89.821853,93.725569 M 58.355653,133.1784 76.721261,110.1513 M 102.36859,80.505253 89.821981,96.236392 M 59.228325,134.59521 76.726487,112.65573 M 104.71093,80.079373 89.851093,98.710875 M 60.119701,135.98858 76.731712,115.16017 M 107.06309,79.641184 89.880205,101.18536 M 61.065294,137.31396 76.736937,117.6646 M 109.41686,79.200963 89.909316,103.65984 M 62.016102,138.63281 76.758237,120.14888 M 111.65206,78.909415 89.938427,106.13433 M 63.035849,139.86521 76.782051,122.63 M 113.89175,78.612249 89.967539,108.60881 M 64.055597,141.09762 76.805866,125.11113 M 116.13881,78.305831 89.996651,111.08329 M 65.14231,142.24607 76.868674,127.54336 m 0.113685,2.36845 -10.744001,13.471 m 1.158149,1.05888 9.759079,-12.23609 m 0.31466,2.11645 -8.887372,11.14314 m 1.186366,1.02349 8.316025,-10.42676 m 1.256833,0.93514 -8.386492,10.51512 m 1.289899,0.89369 8.968275,-11.24457 m 1.94454,0.0729 -9.584745,12.01751 m 1.32807,0.84583 10.385726,-13.02179 m 2.614807,-0.76751 -11.672462,14.63513"
         style="fill:none;stroke:#000000;stroke-width:0.28092527;stroke-miterlimit:4;stroke-dasharray:none"
         id="path4889" />
    </g>
  </g>
  <path
     inkscape:connector-curvature="0"
     style="fill:none;stroke:#000000;stroke-width:0.35433072;stroke-miterlimit:4;stroke-opacity:1;stroke-dasharray:none"
     d="m 92.576508,29.272695 c 15.175242,0.128207 30.177302,5.955126 41.557382,15.973896 17.03463,14.722776 24.21617,39.17932 19.4008,61.029289 -4.20881,20.34612 -19.9415,37.32895 -39.228,44.58951 -20.014665,8.0773 -44.057059,4.19583 -60.895028,-9.16744 C 34.722134,127.41583 25.683235,102.0696 30.433896,79.097355 36.079166,51.261967 62.645163,29.412956 91.107832,29.280606 c 0.489771,-0.0078 0.979159,-0.01204 1.468676,-0.0079 z"
     id="path3017" />
  <path
     id="path4894"
     style="fill:none;stroke:#000000;stroke-width:0.35433071;stroke-miterlimit:4;stroke-dasharray:none"
     d="M 59.25128,38.808128 38.060763,59.998645 M 34.826678,66.061157 65.631361,35.256474 M 70.558362,33.1579 32.80984,70.906422 M 31.442589,75.1021 74.793892,31.750797 M 78.584829,30.788288 30.487305,78.885812 M 29.892551,82.308993 82.109222,30.092322 M 85.418774,29.611196 29.505606,85.524364 M 29.272347,88.58605 88.439356,29.419041 m 2.968477,-0.140049 -62.202836,62.202836 m 0.07877,2.749655 64.871909,-64.871909 m 2.680934,0.147494 -24.75196,24.75196 m 2.93446,-0.106033 24.396461,-24.396461 m 2.464849,0.363576 -24.167933,24.167935 m 2.513321,0.315106 24.083972,-24.083972 m 2.28017,0.548264 -24.027684,24.027677 m 1.806728,1.021699 24.501116,-24.501113 m 2.15457,0.673853 -25.543018,25.543019 m 0.182514,2.645913 27.477644,-27.477642 m 2.08351,0.744919 -28.55256,28.552556 m 4.228003,-1.399576 26.293537,-26.29354 m 1.96899,0.859441 -23.557991,23.557991 m 4.662711,-1.83428 20.78371,-20.78371 m 1.83071,0.997719 -18.08238,18.082381 m 4.0039,-1.175474 15.90918,-15.909189 m 1.71722,1.111213 -13.94933,13.949331 m 3.39451,-0.566082 12.25321,-12.253211 m 1.68894,1.139487 -10.90328,10.903277 m 2.64964,0.178788 9.8224,-9.822401 m 1.56876,1.259665 -9.24037,9.240375 m 1.27311,1.555319 9.5098,-9.509801 m 1.46328,1.365145 -10.48279,10.482786 m 0.2228,2.605635 11.70791,-11.707917 m 1.35749,1.470944 -13.28968,13.289673 m -0.97507,3.803498 15.61447,-15.614468 m 1.20282,1.62561 -54.795387,54.795387 m 0.04112,2.78731 55.957077,-55.957087 m 1.20282,1.62561 -57.118781,57.118787 m 0.04111,2.78731 58.280491,-58.280487 m 1.0145,1.813928 -59.253876,59.253869 m 0.0095,2.81897 60.241566,-60.241559 m 0.99714,1.83128 -61.238706,61.238709 m -0.129749,2.95817 62.365605,-62.365598 m 0.80423,2.024197 -63.566483,63.566481 M 69.105835,150.57594 150.52159,69.160179 m 0.784,2.04443 -80.113166,80.113171 m 2.086589,0.74184 78.792327,-78.792328 m 0.5515,2.276924 -77.193936,77.193934 m 2.320709,0.50772 75.424727,-75.42473 m 0.55151,2.276924 -73.655529,73.655526 m 2.320709,0.50772 71.75295,-71.752953 m 0.28258,2.545847 -69.471942,69.471946 m 2.596493,0.23193 67.158029,-67.158029 m 0.21011,2.618312 -64.771646,64.771647 m 2.873128,-0.0447 61.847738,-61.847737 m -0.0508,2.87921 -58.851915,58.851917 m 2.976858,-0.14843 55.687947,-55.687952 m -0.50094,3.329372 -51.761,51.761 m 3.42601,-0.59758 47.83405,-47.83406 m -0.99598,3.82441 -42.84745,42.84745 m 4.17393,-1.3455 37.56316,-37.56316 m -2.10729,4.93571 -30.40193,30.40194 m 6.22877,-3.40034 20.90311,-20.90312"
     inkscape:connector-curvature="0" />
  <text
     xml:space="preserve"
     style="font-size:18.78186989px;font-style:normal;font-weight:normal;line-height:125%;letter-spacing:0px;word-spacing:0px;fill:#000000;fill-opacity:1;stroke:none;font-family:Sans"
     x="78.897285"
     y="177.2852"
     id="text3529"
     sodipodi:linespacing="125%"><tspan
       sodipodi:role="line"
       id="tspan3531"
       x="78.897285"
       y="177.2852"
       style="font-style:normal;font-variant:normal;font-weight:normal;font-stretch:normal;font-family:Trebuchet MS;-inkscape-font-specification:Trebuchet MS" /></text>
  <text
     xml:space="preserve"
     style="font-size:28px;font-style:normal;font-weight:normal;line-height:125%;letter-spacing:0px;word-spacing:0px;fill:#000000;fill-opacity:1;stroke:none;font-family:Sans"
     x="89.766304"
     y="176.30391"
     id="text3537"
     sodipodi:linespacing="125%"><tspan
       sodipodi:role="line"
       id="tspan3539"
       x="89.766304"
       y="176.30391" /></text>
  <path
     inkscape:connector-curvature="0"
     style="fill:none;fill-opacity:1;stroke:#000000;stroke-opacity:1;stroke-width:0.35433071;stroke-miterlimit:4;stroke-dasharray:none"
     d="m 91.099934,10.629918 c -44.502617,0.564348 -80.445866,36.860345 -80.445866,81.496074 0,44.987178 36.508882,81.496058 81.496057,81.496058 44.987175,0 81.496045,-36.50888 81.496035,-81.496058 0,-0.351476 -0.004,-0.699778 -0.01,-1.050199 l 0,-64.219307 C 173.45762,17.910718 166.17937,10.69731 157.20639,10.629918 l -65.056265,0 c -0.124201,0 -0.247475,0 -0.371121,0 -0.226245,0 -0.452486,-0.0029 -0.67907,0 z"
     id="path3021" />
  <g
     transform="scale(1.033941,0.9671732)"
     style="font-size:38.47631073000000157px;font-style:normal;font-variant:normal;font-weight:normal;font-stretch:normal;line-height:125%;letter-spacing:0px;word-spacing:0px;fill:none;stroke:#000000;stroke-width:3.18897634;stroke-miterlimit:4;stroke-opacity:1;font-family:Varela Round;-inkscape-font-specification:Varela Round;stroke-dasharray:none"
     id="text3841">
    <path
       style="font-size:36px;font-style:normal;font-variant:normal;font-weight:normal;font-stretch:normal;text-indent:0;text-align:start;text-decoration:none;line-height:125%;letter-spacing:0px;word-spacing:0px;text-transform:none;direction:ltr;block-progression:tb;writing-mode:lr-tb;text-anchor:start;baseline-shift:baseline;color:#000000;fill:none;stroke:#000000;stroke-width:0.35433072;stroke-miterlimit:4;stroke-opacity:1;stroke-dasharray:none;marker:none;visibility:visible;display:inline;overflow:visible;enable-background:accumulate;font-family:Droid Sans;-inkscape-font-specification:Droid Sans"
       d="m 149.88162,17.70624 c -0.86191,2.9e-5 -1.68416,0.06448 -2.47838,0.226174 -0.75613,0.156477 -1.49148,0.368753 -2.17614,0.646213 -0.009,0.0036 -0.0214,-0.0036 -0.0302,0 -0.67333,0.263444 -1.31478,0.607417 -1.90412,0.96932 -0.56983,0.357578 -1.08945,0.742678 -1.57165,1.163184 l -0.90673,0.775455 0.69516,0.96932 1.57165,2.261746 0.69516,1.033941 0.96717,-0.743145 c 0.76437,-0.596272 1.56314,-1.062523 2.38771,-1.421669 0.75889,-0.336366 1.66468,-0.516949 2.7504,-0.51697 0.52763,1.9e-5 0.97506,0.05967 1.36009,0.193863 0.38515,0.134286 0.69344,0.320546 0.93695,0.549282 0.23585,0.213958 0.40806,0.476703 0.54403,0.807766 0.12899,0.314131 0.21156,0.681086 0.21157,1.163184 -1e-5,0.584994 -0.0916,1.0714 -0.27202,1.518601 -0.17858,0.442541 -0.42835,0.83436 -0.78583,1.163183 l -0.0302,0 c -0.33327,0.313867 -0.74589,0.577279 -1.32986,0.775456 -0.57275,0.194386 -1.26615,0.290809 -2.08547,0.290796 l -2.26681,0 -1.20897,0 0,1.292426 0,2.746406 0,1.292426 1.20897,0 2.26681,0 c 0.94135,1.1e-5 1.75658,0.06776 2.44816,0.226175 0.69054,0.155973 1.22693,0.395669 1.6321,0.678523 0.39508,0.267215 0.67894,0.571313 0.8765,0.96932 l 0,0.03231 c 0.18737,0.356113 0.30223,0.832074 0.30224,1.48629 -1e-5,0.677861 -0.0947,1.257441 -0.27201,1.744775 -0.1582,0.456567 -0.37817,0.818736 -0.72538,1.130873 l -0.0302,0 c -0.33491,0.308067 -0.78803,0.573615 -1.42053,0.775456 -0.61521,0.196322 -1.40168,0.323109 -2.35749,0.323107 -0.94659,2e-6 -1.94821,-0.138574 -3.02241,-0.420039 -1.05617,-0.279469 -2.03587,-0.656795 -2.93175,-1.163183 l -1.753,-1.001631 0,2.132504 0,3.069512 0,0.775456 0.63471,0.355417 c 1.07322,0.6074 2.20817,1.031593 3.41533,1.260115 1.17464,0.220079 2.4198,0.323107 3.71757,0.323107 1.65681,0 3.14826,-0.175389 4.44295,-0.613902 1.27192,-0.43081 2.37043,-1.066674 3.26421,-1.906329 0.87042,-0.81773 1.50253,-1.837727 1.93435,-2.972581 l 0.0302,0 c 0.003,-0.0083 -0.003,-0.02399 0,-0.03231 0.43107,-1.128655 0.66491,-2.384303 0.66493,-3.683415 -2e-5,-2.028065 -0.66147,-3.838499 -1.93434,-5.169705 -0.55495,-0.58679 -1.25555,-1.013615 -1.9948,-1.389358 0.46425,-0.325484 0.95796,-0.607266 1.32987,-1.033941 0.58853,-0.659122 1.04712,-1.453615 1.36008,-2.326368 0.31886,-0.889254 0.48357,-1.856477 0.48359,-2.875648 -2e-5,-1.097653 -0.19744,-2.140672 -0.57426,-3.101823 -0.003,-0.0081 0.003,-0.02424 0,-0.03231 l -0.0302,0 c -0.38044,-0.955723 -0.96287,-1.830583 -1.69256,-2.520231 -0.01,-0.0095 -0.0202,-0.02289 -0.0302,-0.03231 -0.75709,-0.712182 -1.67556,-1.247796 -2.72018,-1.615533 -1.06977,-0.38117 -2.27266,-0.549252 -3.59667,-0.549281 z"
       id="text5055"
       inkscape:connector-curvature="0"
       sodipodi:nodetypes="cccccccccccccccccccccccccccccccccccccssccccccccsssccccccccccccccccc" />
  </g>
</svg>
