<?xml version="1.0" encoding="UTF-8" standalone="no"?>
<!-- Created with Inkscape (http://www.inkscape.org/) -->

<svg
   xmlns:dc="http://purl.org/dc/elements/1.1/"
   xmlns:cc="http://creativecommons.org/ns#"
   xmlns:rdf="http://www.w3.org/1999/02/22-rdf-syntax-ns#"
   xmlns:svg="http://www.w3.org/2000/svg"
   xmlns="http://www.w3.org/2000/svg"
   xmlns:sodipodi="http://sodipodi.sourceforge.net/DTD/sodipodi-0.dtd"
   xmlns:inkscape="http://www.inkscape.org/namespaces/inkscape"
   version="1.0"
   width="184.25197"
   height="184.25197"
   id="svg2"
   sodipodi:version="0.32"
   inkscape:version="0.48.5 r10040"
   sodipodi:docname="logo-lasercutter.dxf"
   inkscape:output_extension="org.inkscape.output.svg.inkscape">
  <sodipodi:namedview
     inkscape:window-height="998"
     inkscape:window-width="1400"
     inkscape:pageshadow="2"
     inkscape:pageopacity="0.0"
     guidetolerance="10.0"
     gridtolerance="10.0"
     objecttolerance="10.0"
     borderopacity="1.0"
     bordercolor="#666666"
     pagecolor="#ffffff"
     id="base"
     showgrid="false"
     inkscape:zoom="4.2604701"
     inkscape:cx="92.125984"
     inkscape:cy="92.125984"
     inkscape:window-x="0"
     inkscape:window-y="28"
     inkscape:current-layer="svg2"
     inkscape:document-units="mm"
     units="mm"
     showguides="true"
     inkscape:guide-bbox="true"
     inkscape:window-maximized="1">
    <sodipodi:guide
       orientation="0,1"
       position="3.5433071,3.5433071"
       id="guide3509" />
    <sodipodi:guide
       orientation="1,0"
       position="3.5433071,3.5433071"
       id="guide3511" />
    <sodipodi:guide
       orientation="0,1"
       position="3.5433071,180.70866"
       id="guide3513" />
    <sodipodi:guide
       orientation="1,0"
       position="180.70866,3.5433071"
       id="guide3519" />
    <sodipodi:guide
       orientation="0,1"
       position="10.629921,10.629921"
       id="guide3521" />
    <sodipodi:guide
       orientation="1,0"
       position="10.629921,10.629921"
       id="guide3523" />
    <sodipodi:guide
       orientation="0,1"
       position="10.629921,173.62205"
       id="guide3525" />
    <sodipodi:guide
       orientation="1,0"
       position="173.62205,10.629921"
       id="guide3527" />
  </sodipodi:namedview>
  <metadata
     id="metadata8">
    <rdf:RDF>
      <cc:Work
         rdf:about="">
        <dc:format>image/svg+xml</dc:format>
        <dc:type
           rdf:resource="http://purl.org/dc/dcmitype/StillImage" />
        <dc:title></dc:title>
      </cc:Work>
    </rdf:RDF>
  </metadata>
  <defs
     id="defs4">
    <inkscape:perspective
       sodipodi:type="inkscape:persp3d"
       inkscape:vp_x="0 : 380.90848 : 1"
       inkscape:vp_y="0 : 1000 : 0"
       inkscape:vp_z="637.79529 : 380.90848 : 1"
       inkscape:persp3d-origin="318.89764 : 253.93899 : 1"
       id="perspective10" />
  </defs>
  <path
     id="path3021"
     d="m 91.099934,10.629918 c -44.502617,0.564348 -80.445866,36.860345 -80.445866,81.496074 0,44.987178 36.508882,81.496058 81.496057,81.496058 44.987175,0 81.496045,-36.50888 81.496035,-81.496058 0,-0.351476 -0.004,-0.699778 -0.01,-1.050199 l 0,-64.219307 C 173.45762,17.910718 166.17937,10.69731 157.20639,10.629918 l -65.056265,0 c -0.124201,0 -0.247475,0 -0.371121,0 -0.226245,0 -0.452486,-0.0029 -0.67907,0 z"
     style="fill:none;stroke:#000000;stroke-width:0.35433072;stroke-miterlimit:4;stroke-opacity:1;stroke-dasharray:none"
     inkscape:connector-curvature="0" />
  <path
     id="path3872"
     style="fill:none;stroke:#000000;stroke-width:0.35433071;stroke-miterlimit:4;stroke-dasharray:none"
     d="M 38.314918,31.052329 31.28236,38.084887 M 22.938706,49.256969 49.266598,22.929077 m 6.434247,-3.60582 -36.373249,36.373249 m -2.502374,5.330801 44.17002,-44.17002 M 65.536903,15.144053 15.212255,65.468701 M 13.8647,69.644682 69.643674,13.865708 M 73.510795,12.827015 12.89534,73.44247 M 12.098087,77.06815 77.064895,12.101342 M 80.450087,11.544577 11.59287,80.401794 m -0.505216,3.333644 72.642177,-72.642177 m 3.018173,-0.189747 -28.624407,28.624407 m 6.655266,-3.826838 24.987315,-24.987315 m 2.912277,-0.08385 -22.809695,22.809695 m 4.314323,-1.485896 21.323799,-21.323799 m 2.828427,0 -20.285989,20.285989 m 3.582629,-0.754202 19.531791,-19.531787 m 2.82842,0 -19.050659,19.050662 m 3.067647,-0.23922 18.811442,-18.811442 m 2.82843,0 -18.656683,18.65668 m 2.776721,0.05171 18.708382,-18.708386 m 2.82843,0 -18.855878,18.85588 m 2.610122,0.218304 19.074186,-19.074184 m 2.82843,0 -19.43776,19.43776 m 2.45599,0.372436 19.81019,-19.810196 m 2.82843,0 -20.35846,20.358459 m 2.28017,0.548263 20.90672,-20.906722 m 2.82842,0 -21.55706,21.557065 m 2.11714,0.71129 22.26835,-22.268355 m 2.82843,0 -22.99191,22.991909 m 1.96899,0.859441 23.85135,-23.85135 m 2.82842,0 -24.71079,24.71079 m 1.90837,0.920061 25.63085,-25.630851 m 2.82843,0 -26.62857,26.628569 m 1.83071,0.997718 27.62628,-27.626287 m 2.82843,0 -28.71842,28.718418 m 24.29925,-21.470814 7.19686,-7.19687 m 2.55557,0.272865 -6.25578,6.255776 m 2.79511,0.03331 5.65285,-5.652849 m 1.99826,0.830171 -5.38836,5.388361 m 1.84737,0.981055 5.37548,-5.37548 m 1.56145,1.26698 -5.47583,5.47583 m 1.03543,1.792999 5.88295,-5.882952 m 1.28919,1.539235 -6.69005,6.690052 m -0.59771,3.426132 8.33611,-8.336106 m 0.89951,1.928916 -10.39879,10.398792 m 1.32793,1.50049 9.76697,-9.766961 m 0.3285,2.499923 -9.19855,9.198554 m 0.30308,2.525339 9.00393,-9.003926 m 0,2.828427 -10.21338,10.213381 m -16.6275,19.455931 26.84088,-26.840884 m 0,2.828426 -25.84374,25.843738 m 0.99715,1.83128 24.84659,-24.846591 m 0,2.828428 -24.01162,24.011622 m 0.784,2.04443 23.22762,-23.227625 m 0,2.828427 -22.44363,22.443629 m 0.784,2.04443 21.65963,-21.659632 m 0,2.828427 -21.09285,21.092853 m 0.5515,2.276924 20.54135,-20.54135 m 0,2.828427 -19.98985,19.989847 m 0.45692,2.371512 19.53293,-19.532931 m 0,2.828427 -19.25035,19.250351 m 0.28258,2.545846 18.96777,-18.967771 m 0,2.828428 -18.70958,18.709582 m -0.0508,2.879209 18.76036,-18.760364 m 0,2.828427 -18.81115,18.811147 m -0.12219,2.950617 18.93334,-18.933337 m 0,2.828427 -19.43428,19.434273 m -0.50094,3.32937 19.93522,-19.935216 m 0,2.828428 -20.84332,20.843318 m -1.11035,3.93878 21.95367,-21.953671 m -0.0744,2.902807 -23.83004,23.830044 m -2.96706,5.79548 26.64652,-26.64652 m -0.15057,2.979004 -33.54211,33.542106 m -36.6873,39.51573 69.8041,-69.8041 m -0.50994,3.33836 -65.9558,65.9558 m 3.49883,-0.6704 61.78657,-61.78657 m -0.97994,3.80837 -56.99826,56.99826 m 3.99888,-1.17045 51.82893,-51.82893 m -1.63436,4.46278 -45.73179,45.73179 m 5.07448,-2.24605 38.41125,-38.41125 m -3.17188,6.00031 -29.23905,29.23905 m 8.72174,-5.89332 14.62399,-14.62399"
     inkscape:connector-curvature="0" />
  <text
     xml:space="preserve"
     style="font-size:18.78186989px;font-style:normal;font-weight:normal;line-height:125%;letter-spacing:0px;word-spacing:0px;fill:#000000;fill-opacity:1;stroke:none;font-family:Sans"
     x="78.897285"
     y="177.2852"
     id="text3529"
     sodipodi:linespacing="125%"><tspan
       sodipodi:role="line"
       id="tspan3531"
       x="78.897285"
       y="177.2852"
       style="font-style:normal;font-variant:normal;font-weight:normal;font-stretch:normal;font-family:Trebuchet MS;-inkscape-font-specification:Trebuchet MS" /></text>
  <text
     xml:space="preserve"
     style="font-size:28px;font-style:normal;font-weight:normal;line-height:125%;letter-spacing:0px;word-spacing:0px;fill:#000000;fill-opacity:1;stroke:none;font-family:Sans"
     x="89.766304"
     y="176.30391"
     id="text3537"
     sodipodi:linespacing="125%"><tspan
       sodipodi:role="line"
       id="tspan3539"
       x="89.766304"
       y="176.30391" /></text>
  <g
     transform="scale(1.033941,0.9671732)"
     style="font-size:38.47631073000000157px;font-style:normal;font-variant:normal;font-weight:normal;font-stretch:normal;line-height:125%;letter-spacing:0px;word-spacing:0px;fill:none;stroke:#000000;stroke-width:0.35433071;stroke-miterlimit:4;stroke-opacity:1;stroke-dasharray:none;font-family:Varela Round;-inkscape-font-specification:Varela Round"
     id="text3841">
    <g
       id="g3859"
       style="stroke-width:0.35433071;stroke-miterlimit:4;stroke-dasharray:none">
      <path
         style="font-size:36px;font-style:normal;font-variant:normal;font-weight:normal;font-stretch:normal;text-indent:0;text-align:start;text-decoration:none;line-height:125%;letter-spacing:0px;word-spacing:0px;text-transform:none;direction:ltr;block-progression:tb;writing-mode:lr-tb;text-anchor:start;baseline-shift:baseline;color:#000000;fill:none;stroke:#000000;stroke-width:0.35433071;stroke-miterlimit:4;stroke-opacity:1;stroke-dasharray:none;marker:none;visibility:visible;display:inline;overflow:visible;enable-background:accumulate;font-family:Droid Sans;-inkscape-font-specification:Droid Sans"
         d="m 149.88162,17.70624 c -0.86191,2.9e-5 -1.68416,0.06448 -2.47838,0.226174 -0.75613,0.156477 -1.49148,0.368753 -2.17614,0.646213 -0.009,0.0036 -0.0214,-0.0036 -0.0302,0 -0.67333,0.263444 -1.31478,0.607417 -1.90412,0.96932 -0.56983,0.357578 -1.08945,0.742678 -1.57165,1.163184 l -0.90673,0.775455 0.69516,0.96932 1.57165,2.261746 0.69516,1.033941 0.96717,-0.743145 c 0.76437,-0.596272 1.56314,-1.062523 2.38771,-1.421669 0.75889,-0.336366 1.66468,-0.516949 2.7504,-0.51697 0.52763,1.9e-5 0.97506,0.05967 1.36009,0.193863 0.38515,0.134286 0.69344,0.320546 0.93695,0.549282 0.23585,0.213958 0.40806,0.476703 0.54403,0.807766 0.12899,0.314131 0.21156,0.681086 0.21157,1.163184 -1e-5,0.584994 -0.0916,1.0714 -0.27202,1.518601 -0.17858,0.442541 -0.42835,0.83436 -0.78583,1.163183 l -0.0302,0 c -0.33327,0.313867 -0.74589,0.577279 -1.32986,0.775456 -0.57275,0.194386 -1.26615,0.290809 -2.08547,0.290796 l -2.26681,0 -1.20897,0 0,1.292426 0,2.746406 0,1.292426 1.20897,0 2.26681,0 c 0.94135,1.1e-5 1.75658,0.06776 2.44816,0.226175 0.69054,0.155973 1.22693,0.395669 1.6321,0.678523 0.39508,0.267215 0.67894,0.571313 0.8765,0.96932 l 0,0.03231 c 0.18737,0.356113 0.30223,0.832074 0.30224,1.48629 -1e-5,0.677861 -0.0947,1.257441 -0.27201,1.744775 -0.1582,0.456567 -0.37817,0.818736 -0.72538,1.130873 l -0.0302,0 c -0.33491,0.308067 -0.78803,0.573615 -1.42053,0.775456 -0.61521,0.196322 -1.40168,0.323109 -2.35749,0.323107 -0.94659,2e-6 -1.94821,-0.138574 -3.02241,-0.420039 -1.05617,-0.279469 -2.03587,-0.656795 -2.93175,-1.163183 l -1.753,-1.001631 0,2.132504 0,3.069512 0,0.775456 0.63471,0.355417 c 1.07322,0.6074 2.20817,1.031593 3.41533,1.260115 1.17464,0.220079 2.4198,0.323107 3.71757,0.323107 1.65681,0 3.14826,-0.175389 4.44295,-0.613902 1.27192,-0.43081 2.37043,-1.066674 3.26421,-1.906329 0.87042,-0.81773 1.50253,-1.837727 1.93435,-2.972581 l 0.0302,0 c 0.003,-0.0083 -0.003,-0.02399 0,-0.03231 0.43107,-1.128655 0.66491,-2.384303 0.66493,-3.683415 -2e-5,-2.028065 -0.66147,-3.838499 -1.93434,-5.169705 -0.55495,-0.58679 -1.25555,-1.013615 -1.9948,-1.389358 0.46425,-0.325484 0.95796,-0.607266 1.32987,-1.033941 0.58853,-0.659122 1.04712,-1.453615 1.36008,-2.326368 0.31886,-0.889254 0.48357,-1.856477 0.48359,-2.875648 -2e-5,-1.097653 -0.19744,-2.140672 -0.57426,-3.101823 -0.003,-0.0081 0.003,-0.02424 0,-0.03231 l -0.0302,0 c -0.38044,-0.955723 -0.96287,-1.830583 -1.69256,-2.520231 -0.01,-0.0095 -0.0202,-0.02289 -0.0302,-0.03231 -0.75709,-0.712182 -1.67556,-1.247796 -2.72018,-1.615533 -1.06977,-0.38117 -2.27266,-0.549252 -3.59667,-0.549281 z"
         id="text5055"
         inkscape:connector-curvature="0"
         sodipodi:nodetypes="cccccccccccccccccccccccccccccccccccccssccccccccsssccccccccccccccccc" />
      <path
         inkscape:connector-curvature="0"
         d="M 141.64597,22.652217 123.6858,41.852249 m 1.64264,1.168392 17.48352,-18.690472 m 2.3142,0.450462 -18.27152,19.532872 m 1.51727,1.302418 21.00067,-22.450426 m 2.36941,0.391445 -5.58916,5.975 m -16.27431,17.397791 15.07661,-16.117408 m 7.89127,-5.511612 -3.88936,4.157867 M 131.29377,48.341211 144.95513,33.73675 m 1.68187,1.126448 -4.81685,5.149379 m -9.11123,9.740218 8.46822,-9.052819 m 8.12053,-5.756701 -5.61464,6.002243 m -9.66119,10.328147 7.1553,-7.649262 m 10.43454,-8.230456 -5.93352,6.343143 m -10.3434,11.057444 6.41094,-6.853514 m 11.49602,-9.36521 -5.18191,5.539634 m -11.54765,12.344835 7.25844,-7.759519 m 9.77614,-7.5266 -2.59325,2.772274 m -13.278,14.19463 8.26961,-8.840489 m 2.52989,0.219882 -9.63617,10.301392 m 1.16334,1.680785 11.30451,-12.084908 m 4.08017,-1.437416 -14.3748,15.367151"
         style="fill:none;stroke:#000000;stroke-width:0.35433071;stroke-miterlimit:4;stroke-dasharray:none"
         id="path3862" />
    </g>
  </g>
  <g
     id="g3864"
     style="stroke-width:0.35433071;stroke-miterlimit:4;stroke-dasharray:none">
    <path
       inkscape:connector-curvature="0"
       style="fill:none;stroke:#000000;stroke-width:0.35433071;stroke-miterlimit:4;stroke-opacity:1;stroke-dasharray:none"
       d="m 92.576508,29.272695 c 15.175242,0.128207 30.177302,5.955126 41.557382,15.973896 17.03463,14.722776 24.21617,39.17932 19.4008,61.029289 -4.20881,20.34612 -19.9415,37.32895 -39.228,44.58951 -20.014665,8.0773 -44.057059,4.19583 -60.895028,-9.16744 C 34.722134,127.41583 25.683235,102.0696 30.433896,79.097355 36.079166,51.261967 62.645163,29.412956 91.107832,29.280606 c 0.489771,-0.0078 0.979159,-0.01204 1.468676,-0.0079 z"
       id="path3017" />
    <path
       inkscape:connector-curvature="0"
       d="m 38.794786,58.856733 -27.86991,27.86991 M 10.775523,89.704422 35.171286,65.308659 M 33.03295,70.275423 10.679488,92.628885 m 0.136087,2.69234 20.764776,-20.764776 M 30.625067,78.34016 10.951663,98.013564 m 0.158343,2.670086 18.865236,-18.865238 m -0.427036,3.255463 -18.063408,18.063405 m 0.374792,2.45364 17.42247,-17.422472 m -0.06735,2.895778 -16.980327,16.980324 m 0.537307,2.29112 16.494012,-16.494009 m 0.125288,2.70314 -16.040455,16.040459 m 0.578844,2.24958 15.828031,-15.828032 m 0.367936,2.460492 -15.558763,15.55876 m 0.758168,2.07026 15.168531,-15.16853 m 0.49377,2.33466 -14.904133,14.90413 m 0.758168,2.07026 14.782134,-14.78213 m 0.636169,2.19225 -14.545469,14.54547 m 0.919833,1.9086 14.261805,-14.26181 m 0.780949,2.04748 -14.122921,14.12292 m 0.919834,1.90859 14.070085,-14.07008 m 0.866997,1.96143 -13.871383,13.87138 m 1.069138,1.75929 13.669242,-13.66924 m 0.953332,1.87509 -13.553435,13.55344 m 1.091374,1.73705 13.488678,-13.48868 m 1.070937,1.7575 -13.349345,13.34934 m 1.210268,1.61816 13.269054,-13.26906 m 1.158979,1.66945 -13.217764,13.21777 m 1.248492,1.57993 13.201768,-13.20177 m 1.244063,1.58437 -13.099093,13.09909 m 1.346737,1.48169 13.087841,-13.08784 m 1.335486,1.49294 -13.076589,13.07659 m 1.397152,1.43127 13.111914,-13.11191 m 1.440216,1.38821 -13.07044,13.07044 m 1.48169,1.34674 13.108002,-13.108 m 1.547978,1.28045 -13.174291,13.17429 m 1.545431,1.28299 13.246149,-13.24614 m 1.675535,1.15289 -13.303527,13.30352 m 1.618159,1.21027 13.360904,-13.3609 m 1.675536,1.15289 -13.418282,13.41828 m 1.701368,1.12706 13.50981,-13.50981 m 1.875668,0.95276 -13.626189,13.62619 m 1.75929,1.06914 13.742567,-13.74257 m 1.875668,0.95276 -13.858946,13.85894 m 1.874281,0.95415 14.021001,-14.021 m 2.08659,0.74184 -14.198997,14.19899 m 1.908594,0.91984 14.376992,-14.377 m 2.116128,0.7123 -14.578402,14.57841 m 2.070259,0.75816 14.828852,-14.82885 m 2.320708,0.50772 -15.079301,15.0793 m 2.070259,0.75817 15.32975,-15.32975 m 2.523818,0.30461 -15.707685,15.70768 m 2.249582,0.57885 16.054595,-16.0546 m 2.596493,0.23194 -16.401505,16.4015 m 2.249583,0.57885 16.974787,-16.97479 m 2.945041,-0.11661 -17.476249,17.47624 m 2.453635,0.3748 17.967656,-17.96766 m 3.38846,-0.56003 -18.902481,18.90248 m 2.60973,0.2187 19.718761,-19.71876 m 3.88276,-1.05434 -20.909182,20.90918 m 2.69234,0.13609 22.390782,-22.39078 m 4.9155,-2.08707 -24.453304,24.4533 m 2.979005,-0.15058 27.412519,-27.41252 m 9.8668,-7.03837 -34.300313,34.30031"
       style="fill:none;stroke:#000000;stroke-width:0.35433071;stroke-miterlimit:4;stroke-dasharray:none"
       id="path3867" />
  </g>
  <path
     sodipodi:nodetypes="cccccccccccccccccccccccccccscc"
     inkscape:connector-curvature="0"
     id="path3024-5"
     style="font-size:163.52767943999998579px;font-style:normal;font-variant:normal;font-weight:normal;font-stretch:normal;line-height:125%;letter-spacing:0px;word-spacing:0px;fill:none;stroke:#000000;stroke-width:0.35433071;stroke-miterlimit:4;stroke-opacity:1;stroke-dasharray:none;font-family:Cagliostro;-inkscape-font-specification:Cagliostro"
     d="M 67.761713,114.72487 67.650506,72.21378 c 0.153951,-0.982344 0.02565,2.300748 0.02566,-0.155334 -1.9e-5,-2.455948 -0.0511,-1.877602 0.102888,-7.362792 0.10262,-2.264925 -0.0247,-4.175159 0.710948,-6.658541 0.923796,-3.06994 1.963698,-3.935388 5.505022,-3.935468 7.698444,8e-5 11.547681,1.350888 11.547719,4.052426 -3.8e-5,2.087686 0.07694,3.561295 0.230955,4.420827 0.923777,7.2e-5 5.38889,-1.657737 13.395347,-4.973431 8.006365,-3.31554 14.858015,-4.973349 20.554955,-4.97343 2.30946,8.1e-5 3.84915,0.491283 4.61908,1.473608 0.92375,0.859686 1.38565,2.947295 1.38573,6.262839 -8e-5,3.315691 -0.53897,5.833105 -1.61669,7.552247 -0.92388,0.122867 -2.61754,0.307068 -5.08099,0.552604 -2.30961,0.245667 -4.08026,0.429868 -5.31195,0.552603 -1.07785,0.122866 -2.69453,0.368467 -4.85004,0.736805 -2.15563,0.245666 -3.8493,0.491266 -5.08099,0.736805 -1.23182,0.122863 -2.77151,0.368465 -4.619105,0.736804 -1.693703,0.245664 -3.15642,0.552666 -4.388126,0.921006 -1.077835,0.368464 -2.232606,0.736866 -3.464317,1.105207 -2.463555,0.736864 -4.157219,1.71927 -5.080995,2.947218 l 0,11.973074 0.461909,31.314203 0,2.76302 c -4.1e-5,0.49121 -4.1e-5,1.53502 0,3.13142 -4.1e-5,1.47361 -0.07703,2.70162 -0.230955,3.68402 -4e-5,0.98241 -0.307979,1.96482 -0.923818,2.94721 -1.231794,1.59641 -4.465152,2.39462 -9.700083,2.39462 -5.081021,0 -4.881828,-0.50172 -5.805624,-0.99293 -1.847653,-0.9824 -2.258235,-7.18482 -2.258218,-18.8509" />
  <path
     id="path3040"
     style="fill:none;stroke:#000000;stroke-width:0.35433071;stroke-miterlimit:4;stroke-dasharray:none"
     d="m 73.635047,54.131301 -5.405728,5.405728 m -0.379322,3.20775 8.523855,-8.523855 m 2.690713,0.137714 -11.298953,11.298953 m -0.04009,2.868512 13.675496,-13.675496 m 2.080987,0.74744 -15.796567,15.796567 m -0.0296,2.85803 17.445363,-17.445363 m 0.493179,2.335248 -17.931163,17.931163 m 0.0074,2.821047 18.064211,-18.064211 m 2.992718,-0.164291 -21.04955,21.04955 m 0.0074,2.821047 25.58175,-25.58175 m 4.704537,-1.876109 -30.278906,30.278906 m 0.0074,2.821048 34.847473,-34.847468 m 4.27582,-1.447398 -39.115913,39.115913 M 91.249645,73.286256 110.7467,53.789206 M 86.235607,78.300294 67.714877,96.821024 M 95.325209,72.039119 114.23623,53.128102 M 86.235607,81.128721 67.722257,99.642071 M 98.90498,71.287776 117.40406,52.788697 M 86.235607,83.957148 67.729637,102.46312 M 102.28603,70.735155 120.31741,52.703776 M 86.235607,86.785575 67.737017,105.28417 M 105.61965,70.229958 122.77727,53.072337 M 86.256469,89.593141 67.744397,108.10521 M 108.92828,69.749759 124.43857,54.239469 M 86.297584,92.380453 67.751776,110.92626 M 112.26336,69.243102 125.3363,56.170169 M 86.338699,95.167765 67.759156,113.74731 M 115.498,68.836887 125.5903,58.744587 M 86.379814,97.955077 67.802441,116.53245 m 50.852399,-48.023969 6.96504,-6.965038 M 86.420929,100.74239 67.836075,119.32724 m 53.990345,-51.161919 3.5055,-3.505501 M 86.462044,103.5297 67.869708,122.12204 m 0.152549,2.67588 18.480902,-18.48091 m 0.04112,2.78732 -18.361456,18.36145 m 0.387422,2.44101 18.015149,-18.01515 m 0.04111,2.78731 -17.502493,17.50249 m 1.362027,1.4664 16.181581,-16.18158 m 0.0299,2.79853 -13.933123,13.93312 m 2.643425,0.18501 11.289698,-11.2897 m -0.03573,2.86415 -8.351993,8.352 m 3.215977,-0.38755 4.946839,-4.94684"
     inkscape:connector-curvature="0" />
</svg>
