<?xml version="1.0" encoding="UTF-8" standalone="no"?>
<!-- Created with Inkscape (http://www.inkscape.org/) -->

<svg
   xmlns:dc="http://purl.org/dc/elements/1.1/"
   xmlns:cc="http://creativecommons.org/ns#"
   xmlns:rdf="http://www.w3.org/1999/02/22-rdf-syntax-ns#"
   xmlns:svg="http://www.w3.org/2000/svg"
   xmlns="http://www.w3.org/2000/svg"
   xmlns:xlink="http://www.w3.org/1999/xlink"
   xmlns:sodipodi="http://sodipodi.sourceforge.net/DTD/sodipodi-0.dtd"
   xmlns:inkscape="http://www.inkscape.org/namespaces/inkscape"
   version="1.0"
   width="177.16534"
   height="177.16534"
   id="svg2"
   sodipodi:version="0.32"
   inkscape:version="0.91 r13725"
   sodipodi:docname="logo-noc3.svg"
   inkscape:output_extension="org.inkscape.output.svg.inkscape"
   inkscape:export-filename="/home/equinox/realraum/git/logo/logo-aktuell.png"
   inkscape:export-xdpi="275.48813"
   inkscape:export-ydpi="275.48813">
  <sodipodi:namedview
     inkscape:window-height="1028"
     inkscape:window-width="1920"
     inkscape:pageshadow="2"
     inkscape:pageopacity="0.0"
     guidetolerance="10.0"
     gridtolerance="10.0"
     objecttolerance="10.0"
     borderopacity="1.0"
     bordercolor="#666666"
     pagecolor="#ffffff"
     id="base"
     showgrid="false"
     inkscape:zoom="4.5889336"
     inkscape:cx="88.582672"
     inkscape:cy="88.582672"
     inkscape:window-x="0"
     inkscape:window-y="28"
     inkscape:current-layer="svg2"
     inkscape:document-units="mm"
     units="mm"
     showguides="true"
     inkscape:guide-bbox="true"
     inkscape:window-maximized="1"
     showborder="false"
     inkscape:showpageshadow="false" />
  <metadata
     id="metadata8">
    <rdf:RDF>
      <cc:Work
         rdf:about="">
        <dc:format>image/svg+xml</dc:format>
        <dc:type
           rdf:resource="http://purl.org/dc/dcmitype/StillImage" />
        <dc:title />
      </cc:Work>
    </rdf:RDF>
  </metadata>
  <defs
     id="defs4">
    <inkscape:path-effect
       effect="spiro"
       id="path-effect8220"
       is_visible="true" />
    <linearGradient
       inkscape:collect="always"
       id="linearGradient4262">
      <stop
         style="stop-color:#000000;stop-opacity:1;"
         offset="0"
         id="stop4264" />
      <stop
         style="stop-color:#000000;stop-opacity:0;"
         offset="1"
         id="stop4266" />
    </linearGradient>
    <inkscape:perspective
       sodipodi:type="inkscape:persp3d"
       inkscape:vp_x="0 : 380.90848 : 1"
       inkscape:vp_y="0 : 1000 : 0"
       inkscape:vp_z="637.79529 : 380.90848 : 1"
       inkscape:persp3d-origin="318.89764 : 253.93899 : 1"
       id="perspective10" />
    <radialGradient
       inkscape:collect="always"
       xlink:href="#linearGradient4262"
       id="radialGradient4268"
       cx="89.354865"
       cy="90.881958"
       fx="89.354865"
       fy="90.881958"
       r="38.486462"
       gradientTransform="matrix(1,0,0,1.0933661,0,-8.4852934)"
       gradientUnits="userSpaceOnUse" />
  </defs>
  <text
     xml:space="preserve"
     style="font-size:18.78186989px;font-style:normal;font-weight:normal;line-height:125%;letter-spacing:0px;word-spacing:0px;fill:#000000;fill-opacity:1;stroke:none;font-family:Sans"
     x="78.897285"
     y="170.19858"
     id="text3529"
     sodipodi:linespacing="125%"><tspan
       sodipodi:role="line"
       id="tspan3531"
       x="78.897285"
       y="170.19858"
       style="font-style:normal;font-variant:normal;font-weight:normal;font-stretch:normal;font-family:'Trebuchet MS';-inkscape-font-specification:'Trebuchet MS'" /></text>
  <text
     xml:space="preserve"
     style="font-size:28px;font-style:normal;font-weight:normal;line-height:125%;letter-spacing:0px;word-spacing:0px;fill:#000000;fill-opacity:1;stroke:none;font-family:Sans"
     x="89.766304"
     y="169.21729"
     id="text3537"
     sodipodi:linespacing="125%"><tspan
       sodipodi:role="line"
       id="tspan3539"
       x="89.766304"
       y="169.21729" /></text>
  <path
     id="text8369"
     style="color:#000000;font-style:normal;font-variant:normal;font-weight:normal;font-stretch:normal;font-size:184.84649658px;line-height:125%;font-family:'Droid Sans';-inkscape-font-specification:'Droid Sans';text-indent:0;text-align:start;text-decoration:none;text-decoration-line:none;text-decoration-style:solid;text-decoration-color:#000000;letter-spacing:0px;word-spacing:0px;text-transform:none;direction:ltr;block-progression:tb;writing-mode:lr-tb;baseline-shift:baseline;text-anchor:start;white-space:normal;clip-rule:nonzero;display:inline;overflow:visible;visibility:visible;opacity:1;isolation:auto;mix-blend-mode:normal;color-interpolation:sRGB;color-interpolation-filters:linearRGB;solid-color:#000000;solid-opacity:1;fill:#000000;fill-opacity:1;fill-rule:nonzero;stroke:none;stroke-width:1.77165353;stroke-linecap:butt;stroke-linejoin:miter;stroke-miterlimit:4;stroke-dasharray:none;stroke-dashoffset:0;stroke-opacity:1;color-rendering:auto;image-rendering:auto;shape-rendering:auto;text-rendering:auto;enable-background:accumulate"
     d="m 94.839844,47.119141 c -5.456871,0 -12.25171,1.446796 -20.441406,4.300781 l -0.002,0.002 -0.0039,0 c -2.965351,1.059054 -4.439537,1.576747 -5.386719,1.902344 -0.215998,-0.752328 -0.445897,-1.540196 -0.570312,-2.058594 -0.178592,-0.744131 -0.251953,-1.281197 -0.251953,-1.412109 l 0,-0.904297 -9.574219,0.203125 c -2.246907,0 -4.096489,0.596741 -5.349609,1.886718 -1.253121,1.289978 -1.820313,3.168788 -1.820313,5.46875 l 0,6.642579 -0.740234,28.105468 0.755859,39.490234 10.464844,0.40235 0.01563,0 c 3.249433,0 5.352459,-0.1694 6.681641,-0.83399 l 0.03711,-0.0176 0.03711,-0.0234 c 1.345964,-0.84123 1.894532,-2.51348 1.894532,-4.63282 l 0,-0.0137 -0.369141,-10.89257 c 0,-6.16746 -0.0623,-14.794115 -0.185547,-25.886727 l 0,-0.002 -0.361328,-24.1875 c 3.974849,-2.077475 9.755736,-3.197266 17.40625,-3.197265 7.949817,0 13.306281,2.40411 16.451171,7.179687 l 0.002,0.0039 0.002,0.0039 c 3.17403,4.70226 4.83984,11.928675 4.83984,21.6875 l -0.18554,23.656255 0,0.004 c 0,7.40863 0.18153,12.58903 0.5625,15.63672 l 0.0859,0.6836 0.6836,0.0859 c 3.97044,0.49631 7.45418,0.7461 10.46094,0.7461 1.5581,0 2.78106,-0.0462 3.69921,-0.14453 0.45908,-0.0492 0.84079,-0.10963 1.17188,-0.19727 0.31171,-0.0825 0.58716,-0.17862 0.87695,-0.44531 0.57317,-0.46349 0.72193,-1.07392 0.85547,-1.8418 0.13809,-0.79398 0.19727,-1.80066 0.19727,-3.0625 l 0.92382,-31.595705 0,-0.01367 c 0,-11.265937 -0.98388,-20.330852 -2.99218,-27.234375 l -0.004,-0.01367 -0.004,-0.01172 c -1.38201,-4.271669 -3.21737,-7.710415 -5.53906,-10.292969 -2.33143,-2.717126 -5.60068,-4.881837 -9.75976,-6.521484 -4.19406,-1.776918 -9.05388,-2.654297 -14.564459,-2.654297 z M 87.501953,-0.0703125 C 39.129574,0.54309377 0.0625,40.011473 0.0625,88.527344 c 0,48.897876 39.698584,88.566406 88.597656,88.566406 48.899084,0 88.564464,-39.66853 88.564454,-88.566406 0,-0.382029 0.007,-0.775366 0,-1.15625 l 0,-69.802735 C 177.03058,7.8449456 169.12043,0.00293777 159.36719,-0.0703125 l -70.707034,0 -0.408203,0 c -0.24592,0 -0.503712,-0.0031524 -0.75,0 z m 67.519527,7.5683594 c 2.16176,2.8e-5 4.02302,0.4649007 5.47266,1.4707031 1.46679,0.9878439 2.31444,2.578339 2.31445,4.345703 -1e-5,1.04568 -0.27835,2.09619 -0.75195,3.126953 -0.44721,0.946994 -0.94186,1.761949 -1.5,2.408203 -0.40868,0.451679 -0.83922,0.913293 -1.2832,1.345703 1.24551,0.699346 2.2983,1.58099 3.0957,2.689454 l 0.0312,0 c 0.004,0.0068 -0.004,0.05569 0,0.0625 0.94249,1.267999 1.40819,2.782002 1.4082,4.410156 -1e-5,3.007682 -1.24711,5.537226 -3.5957,7.222656 -2.25967,1.640894 -5.04133,2.523434 -8.22461,2.626953 0,0 -0.0263,-9.69e-4 -0.0312,0 -0.78577,-2e-6 -1.56111,-0.395995 -2.0957,-0.96875 -0.42275,-0.455245 -0.81445,-0.9508 -0.81445,-1.689453 0,-0.340264 0.0139,-0.68017 0.0937,-1 l 0.25196,-0.875 0.875,-0.03125 c 2.74874,-0.09239 4.69043,-0.691336 5.84765,-1.595703 1.15724,-0.904367 1.68946,-2.103283 1.68946,-4.003906 -1e-5,-1.857387 -0.73724,-2.954996 -2.75196,-3.845703 -0.52304,-0.235353 -0.93166,-0.447425 -1.2832,-0.6875 -0.35154,-0.240075 -0.81909,-0.443084 -0.90625,-1.314454 l -0.0312,-0.40625 0.21875,-0.34375 c 0.29378,-0.456991 0.7584,-1.049538 1.5,-1.939453 l 0,-0.03125 c 0.71159,-0.826346 1.27055,-1.603774 1.6582,-2.314453 l 0,-0.03125 c 0.36623,-0.636069 0.53124,-1.241176 0.53125,-1.9375 -1e-5,-0.620902 -0.15436,-0.968952 -0.5625,-1.345703 -0.35249,-0.325347 -0.91326,-0.593731 -1.93945,-0.59375 -0.17966,9e-6 -0.84595,0.109954 -1.78125,0.34375 -0.4938,0.123457 -0.88835,0.215791 -1.18945,0.28125 -0.30111,0.06546 -0.37597,0.125063 -0.78125,0.125 -0.74388,1.17e-4 -1.02091,-0.263098 -1.40821,-0.53125 l -0.0312,-0.03125 -0.0313,-0.03125 c -0.44273,-0.3689 -0.87499,-0.905431 -0.875,-1.626953 0,-0.8045604 0.51348,-1.3036493 0.96876,-1.625 0.45526,-0.3213497 0.98268,-0.5940315 1.6582,-0.8457031 1.39309,-0.5357633 2.81311,-0.812471 4.2539,-0.8125 z M 89.097656,20.195312 c 16.494814,0.139353 32.819814,6.497027 45.189454,17.386719 18.51588,16.002613 26.31221,42.582659 21.07812,66.332029 -4.5748,22.11478 -21.66142,40.55164 -42.625,48.44336 -21.755043,8.77946 -47.902944,4.57962 -66.205074,-9.94531 C 26.220465,126.88846 16.383116,99.330529 21.546875,74.361328 27.683034,44.106236 56.564289,20.370416 87.501953,20.226562 c 0.532359,-0.0085 1.06362,-0.03574 1.595703,-0.03125 z" />
</svg>
