  0
SECTION
  2
HEADER
  9
$ACADVER
  1
AC1014
  9
$HANDSEED
  5
FFFF
  9
$MEASUREMENT
 70
     1
  0
ENDSEC
  0
SECTION
  2
TABLES
  0
TABLE
  2
VPORT
  5
8
330
0
100
AcDbSymbolTable
 70
     4
  0
VPORT
  5
2E
330
8
100
AcDbSymbolTableRecord
100
AcDbViewportTableRecord
  2
*ACTIVE
 70
     0
 10
0.0
 20
0.0
 11
1.0
 21
1.0
 12
210.0
 22
148.5
 13
0.0
 23
0.0
 14
10.0
 24
10.0
 15
10.0
 25
10.0
 16
0.0
 26
0.0
 36
1.0
 17
0.0
 27
0.0
 37
0.0
 40
341.0
 41
1.24
 42
50.0
 43
0.0
 44
0.0
 50
0.0
 51
0.0
 71
     0
 72
   100
 73
     1
 74
     3
 75
     0
 76
     0
 77
     0
 78
     0
  0
ENDTAB
  0
TABLE
  2
LTYPE
  5
5
330
0
100
AcDbSymbolTable
 70
     1
  0
LTYPE
  5
14
330
5
100
AcDbSymbolTableRecord
100
AcDbLinetypeTableRecord
  2
BYBLOCK
 70
     0
  3

 72
    65
 73
     0
 40
0.0
  0
LTYPE
  5
15
330
5
100
AcDbSymbolTableRecord
100
AcDbLinetypeTableRecord
  2
BYLAYER
 70
     0
  3

 72
    65
 73
     0
 40
0.0
  0
LTYPE
  5
16
330
5
100
AcDbSymbolTableRecord
100
AcDbLinetypeTableRecord
  2
CONTINUOUS
 70
     0
  3
Solid line
 72
    65
 73
     0
 40
0.0
  0
ENDTAB
  0
TABLE
  2
LAYER
  5
2
100
AcDbSymbolTable
 70
1
  0
LAYER
  5
50
100
AcDbSymbolTableRecord
100
AcDbLayerTableRecord
  2
0
 70
0
  6
CONTINUOUS
  0
ENDTAB
  0
TABLE
  2
STYLE
  5
3
330
0
100
AcDbSymbolTable
 70
     1
  0
STYLE
  5
11
330
3
100
AcDbSymbolTableRecord
100
AcDbTextStyleTableRecord
  2
STANDARD
 70
     0
 40
0.0
 41
1.0
 50
0.0
 71
     0
 42
2.5
  3
txt
  4

  0
ENDTAB
  0
TABLE
  2
VIEW
  5
6
330
0
100
AcDbSymbolTable
 70
     0
  0
ENDTAB
  0
TABLE
  2
UCS
  5
7
330
0
100
AcDbSymbolTable
 70
     0
  0
ENDTAB
  0
TABLE
  2
APPID
  5
9
330
0
100
AcDbSymbolTable
 70
     2
  0
APPID
  5
12
330
9
100
AcDbSymbolTableRecord
100
AcDbRegAppTableRecord
  2
ACAD
 70
     0
  0
ENDTAB
  0
TABLE
  2
DIMSTYLE
  5
A
330
0
100
AcDbSymbolTable
 70
     1
  0
DIMSTYLE
105
27
330
A
100
AcDbSymbolTableRecord
100
AcDbDimStyleTableRecord
  2
ISO-25
 70
     0
  3

  4

  5

  6

  7

 40
1.0
 41
2.5
 42
0.625
 43
3.75
 44
1.25
 45
0.0
 46
0.0
 47
0.0
 48
0.0
140
2.5
141
2.5
142
0.0
143
0.03937007874016
144
1.0
145
0.0
146
1.0
147
0.625
 71
     0
 72
     0
 73
     0
 74
     0
 75
     0
 76
     0
 77
     1
 78
     8
170
     0
171
     3
172
     1
173
     0
174
     0
175
     0
176
     0
177
     0
178
     0
270
     2
271
     2
272
     2
273
     2
274
     3
340
11
275
     0
280
     0
281
     0
282
     0
283
     0
284
     8
285
     0
286
     0
287
     3
288
     0
  0
ENDTAB
  0
TABLE
  2
BLOCK_RECORD
  5
1
330
0
100
AcDbSymbolTable
 70
     1
  0
BLOCK_RECORD
  5
1F
330
1
100
AcDbSymbolTableRecord
100
AcDbBlockTableRecord
  2
*MODEL_SPACE
  0
BLOCK_RECORD
  5
1B
330
1
100
AcDbSymbolTableRecord
100
AcDbBlockTableRecord
  2
*PAPER_SPACE
  0
ENDTAB
  0
ENDSEC
  0
SECTION
  2
BLOCKS
  0
BLOCK
  5
20
330
1F
100
AcDbEntity
  8
0
100
AcDbBlockBegin
  2
*MODEL_SPACE
 70
     0
 10
0.0
 20
0.0
 30
0.0
  3
*MODEL_SPACE
  1

  0
ENDBLK
  5
21
330
1F
100
AcDbEntity
  8
0
100
AcDbBlockEnd
  0
BLOCK
  5
1C
330
1B
100
AcDbEntity
 67
     1
  8
0
100
AcDbBlockBegin
  2
*PAPER_SPACE
  1

  0
ENDBLK
  5
1D
330
1B
100
AcDbEntity
 67
     1
  8
0
100
AcDbBlockEnd
  0
ENDSEC
  0
SECTION
  2
ENTITIES
  0
SPLINE
  5
100
100
AcDbEntity
  8
0
 62
7
100
AcDbSpline
 70
8
 71
3
 72
8
 73
4
 74
0
 40
0
 40
0
 40
0
 40
0
 40
1
 40
1
 40
1
 40
1
 10
25.710426
 20
49.000001
 30
0.0
 10
13.150798
 20
48.840730
 30
0.0
 10
3.006815
 20
38.597193
 30
0.0
 10
3.006815
 20
25.999998
 30
0.0
  0
SPLINE
  5
101
100
AcDbEntity
  8
0
 62
7
100
AcDbSpline
 70
8
 71
3
 72
8
 73
4
 74
0
 40
0
 40
0
 40
0
 40
0
 40
1
 40
1
 40
1
 40
1
 10
3.006815
 20
25.999998
 30
0.0
 10
3.006815
 20
13.303617
 30
0.0
 10
13.310433
 20
3.000000
 30
0.0
 10
26.006813
 20
3.000000
 30
0.0
  0
SPLINE
  5
102
100
AcDbEntity
  8
0
 62
7
100
AcDbSpline
 70
8
 71
3
 72
8
 73
4
 74
0
 40
0
 40
0
 40
0
 40
0
 40
1
 40
1
 40
1
 40
1
 10
26.006813
 20
3.000000
 30
0.0
 10
38.703194
 20
3.000000
 30
0.0
 10
49.006808
 20
13.303617
 30
0.0
 10
49.006805
 20
25.999998
 30
0.0
  0
SPLINE
  5
103
100
AcDbEntity
  8
0
 62
7
100
AcDbSpline
 70
8
 71
3
 72
8
 73
4
 74
0
 40
0
 40
0
 40
0
 40
0
 40
1
 40
1
 40
1
 40
1
 10
49.006805
 20
25.999998
 30
0.0
 10
49.006805
 20
26.099193
 30
0.0
 10
49.005676
 20
26.197491
 30
0.0
 10
49.003983
 20
26.296388
 30
0.0
  0
LINE
  5
104
100
AcDbEntity
  8
0
 62
7
100
AcDbLine
 10
49.003983
 20
26.296388
 30
0.0
 11
49.003983
 21
44.420503
 31
0.0
  0
SPLINE
  5
105
100
AcDbEntity
  8
0
 62
7
100
AcDbSpline
 70
8
 71
3
 72
8
 73
4
 74
0
 40
0
 40
0
 40
0
 40
0
 40
1
 40
1
 40
1
 40
1
 10
49.003983
 20
44.420503
 30
0.0
 10
48.953595
 20
46.945198
 30
0.0
 10
46.899511
 20
48.980982
 30
0.0
 10
44.367137
 20
49.000001
 30
0.0
  0
LINE
  5
106
100
AcDbEntity
  8
0
 62
7
100
AcDbLine
 10
44.367137
 20
49.000001
 30
0.0
 11
26.006813
 21
49.000001
 31
0.0
  0
SPLINE
  5
107
100
AcDbEntity
  8
0
 62
7
100
AcDbSpline
 70
8
 71
3
 72
8
 73
4
 74
0
 40
0
 40
0
 40
0
 40
0
 40
1
 40
1
 40
1
 40
1
 10
26.006813
 20
49.000001
 30
0.0
 10
25.971761
 20
49.000001
 30
0.0
 10
25.936970
 20
49.000001
 30
0.0
 10
25.902074
 20
49.000001
 30
0.0
  0
SPLINE
  5
108
100
AcDbEntity
  8
0
 62
7
100
AcDbSpline
 70
8
 71
3
 72
8
 73
4
 74
0
 40
0
 40
0
 40
0
 40
0
 40
1
 40
1
 40
1
 40
1
 10
25.902074
 20
49.000001
 30
0.0
 10
25.838223
 20
49.000001
 30
0.0
 10
25.774373
 20
49.000820
 30
0.0
 10
25.710426
 20
49.000001
 30
0.0
  0
LINE
  5
109
100
AcDbEntity
  8
0
 62
7
100
AcDbLine
 10
25.710426
 20
49.000001
 30
0.0
 11
25.710426
 21
49.000001
 31
0.0
  0
SPLINE
  5
10a
100
AcDbEntity
  8
0
 62
7
100
AcDbSpline
 70
8
 71
3
 72
8
 73
4
 74
0
 40
0
 40
0
 40
0
 40
0
 40
1
 40
1
 40
1
 40
1
 10
26.127148
 20
43.738595
 30
0.0
 10
30.409938
 20
43.702413
 30
0.0
 10
34.643853
 20
42.057926
 30
0.0
 10
37.855565
 20
39.230407
 30
0.0
  0
SPLINE
  5
10b
100
AcDbEntity
  8
0
 62
7
100
AcDbSpline
 70
8
 71
3
 72
8
 73
4
 74
0
 40
0
 40
0
 40
0
 40
0
 40
1
 40
1
 40
1
 40
1
 10
37.855565
 20
39.230407
 30
0.0
 10
42.663116
 20
35.075312
 30
0.0
 10
44.689906
 20
28.173132
 30
0.0
 10
43.330901
 20
22.006585
 30
0.0
  0
SPLINE
  5
10c
100
AcDbEntity
  8
0
 62
7
100
AcDbSpline
 70
8
 71
3
 72
8
 73
4
 74
0
 40
0
 40
0
 40
0
 40
0
 40
1
 40
1
 40
1
 40
1
 10
43.330901
 20
22.006585
 30
0.0
 10
42.143082
 20
16.264458
 30
0.0
 10
37.702967
 20
11.471526
 30
0.0
 10
32.259888
 20
9.422435
 30
0.0
  0
SPLINE
  5
10d
100
AcDbEntity
  8
0
 62
7
100
AcDbSpline
 70
8
 71
3
 72
8
 73
4
 74
0
 40
0
 40
0
 40
0
 40
0
 40
1
 40
1
 40
1
 40
1
 10
32.259888
 20
9.422435
 30
0.0
 10
26.611305
 20
7.142841
 30
0.0
 10
19.826007
 20
8.238278
 30
0.0
 10
15.073958
 20
12.009690
 30
0.0
  0
SPLINE
  5
10e
100
AcDbEntity
  8
0
 62
7
100
AcDbSpline
 70
8
 71
3
 72
8
 73
4
 74
0
 40
0
 40
0
 40
0
 40
0
 40
1
 40
1
 40
1
 40
1
 10
15.073958
 20
12.009690
 30
0.0
 10
9.799358
 20
16.040422
 30
0.0
 10
7.248380
 20
23.193691
 30
0.0
 10
8.589122
 20
29.676969
 30
0.0
  0
SPLINE
  5
10f
100
AcDbEntity
  8
0
 62
7
100
AcDbSpline
 70
8
 71
3
 72
8
 73
4
 74
0
 40
0
 40
0
 40
0
 40
0
 40
1
 40
1
 40
1
 40
1
 10
8.589122
 20
29.676969
 30
0.0
 10
10.182342
 20
37.532734
 30
0.0
 10
17.679857
 20
43.699011
 30
0.0
 10
25.712655
 20
43.736363
 30
0.0
  0
SPLINE
  5
110
100
AcDbEntity
  8
0
 62
7
100
AcDbSpline
 70
8
 71
3
 72
8
 73
4
 74
0
 40
0
 40
0
 40
0
 40
0
 40
1
 40
1
 40
1
 40
1
 10
25.712655
 20
43.736363
 30
0.0
 10
25.850879
 20
43.738564
 30
0.0
 10
25.988995
 20
43.739761
 30
0.0
 10
26.127148
 20
43.738592
 30
0.0
  0
LINE
  5
111
100
AcDbEntity
  8
0
 62
7
100
AcDbLine
 10
26.127148
 20
43.738592
 30
0.0
 11
26.127148
 21
43.738595
 31
0.0
  0
LINE
  5
112
100
AcDbEntity
  8
0
 62
7
100
AcDbLine
 10
19.174341
 20
19.672303
 30
0.0
 11
19.142956
 21
31.669877
 31
0.0
  0
SPLINE
  5
113
100
AcDbEntity
  8
0
 62
7
100
AcDbSpline
 70
8
 71
3
 72
8
 73
4
 74
0
 40
0
 40
0
 40
0
 40
0
 40
1
 40
1
 40
1
 40
1
 10
19.142956
 20
31.669877
 30
0.0
 10
19.186405
 20
31.947116
 30
0.0
 10
19.150195
 20
31.020555
 30
0.0
 10
19.150199
 20
31.713716
 30
0.0
  0
SPLINE
  5
114
100
AcDbEntity
  8
0
 62
7
100
AcDbSpline
 70
8
 71
3
 72
8
 73
4
 74
0
 40
0
 40
0
 40
0
 40
0
 40
1
 40
1
 40
1
 40
1
 10
19.150199
 20
31.713716
 30
0.0
 10
19.150193
 20
32.406839
 30
0.0
 10
19.135778
 20
32.243617
 30
0.0
 10
19.179236
 20
33.791659
 30
0.0
  0
SPLINE
  5
115
100
AcDbEntity
  8
0
 62
7
100
AcDbSpline
 70
8
 71
3
 72
8
 73
4
 74
0
 40
0
 40
0
 40
0
 40
0
 40
1
 40
1
 40
1
 40
1
 10
19.179236
 20
33.791659
 30
0.0
 10
19.208198
 20
34.430871
 30
0.0
 10
19.172265
 20
34.969982
 30
0.0
 10
19.379881
 20
35.670848
 30
0.0
  0
SPLINE
  5
116
100
AcDbEntity
  8
0
 62
7
100
AcDbSpline
 70
8
 71
3
 72
8
 73
4
 74
0
 40
0
 40
0
 40
0
 40
0
 40
1
 40
1
 40
1
 40
1
 10
19.379881
 20
35.670848
 30
0.0
 10
19.640597
 20
36.537253
 30
0.0
 10
19.934081
 20
36.781501
 30
0.0
 10
20.933521
 20
36.781524
 30
0.0
  0
SPLINE
  5
117
100
AcDbEntity
  8
0
 62
7
100
AcDbSpline
 70
8
 71
3
 72
8
 73
4
 74
0
 40
0
 40
0
 40
0
 40
0
 40
1
 40
1
 40
1
 40
1
 10
20.933521
 20
36.781524
 30
0.0
 10
23.106193
 20
36.781501
 30
0.0
 10
24.192533
 20
36.400274
 30
0.0
 10
24.192544
 20
35.637840
 30
0.0
  0
SPLINE
  5
118
100
AcDbEntity
  8
0
 62
7
100
AcDbSpline
 70
8
 71
3
 72
8
 73
4
 74
0
 40
0
 40
0
 40
0
 40
0
 40
1
 40
1
 40
1
 40
1
 10
24.192544
 20
35.637840
 30
0.0
 10
24.192533
 20
35.048648
 30
0.0
 10
24.214259
 20
34.632763
 30
0.0
 10
24.257724
 20
34.390184
 30
0.0
  0
SPLINE
  5
119
100
AcDbEntity
  8
0
 62
7
100
AcDbSpline
 70
8
 71
3
 72
8
 73
4
 74
0
 40
0
 40
0
 40
0
 40
0
 40
1
 40
1
 40
1
 40
1
 10
24.257724
 20
34.390184
 30
0.0
 10
24.518435
 20
34.390164
 30
0.0
 10
25.778589
 20
34.858034
 30
0.0
 10
28.038189
 20
35.793796
 30
0.0
  0
SPLINE
  5
11a
100
AcDbEntity
  8
0
 62
7
100
AcDbSpline
 70
8
 71
3
 72
8
 73
4
 74
0
 40
0
 40
0
 40
0
 40
0
 40
1
 40
1
 40
1
 40
1
 10
28.038189
 20
35.793796
 30
0.0
 10
30.297763
 20
36.729516
 30
0.0
 10
32.231450
 20
37.197386
 30
0.0
 10
33.839253
 20
37.197409
 30
0.0
  0
SPLINE
  5
11b
100
AcDbEntity
  8
0
 62
7
100
AcDbSpline
 70
8
 71
3
 72
8
 73
4
 74
0
 40
0
 40
0
 40
0
 40
0
 40
1
 40
1
 40
1
 40
1
 10
33.839253
 20
37.197409
 30
0.0
 10
34.491035
 20
37.197386
 30
0.0
 10
34.925570
 20
37.058758
 30
0.0
 10
35.142861
 20
36.781524
 30
0.0
  0
SPLINE
  5
11c
100
AcDbEntity
  8
0
 62
7
100
AcDbSpline
 70
8
 71
3
 72
8
 73
4
 74
0
 40
0
 40
0
 40
0
 40
0
 40
1
 40
1
 40
1
 40
1
 10
35.142861
 20
36.781524
 30
0.0
 10
35.403563
 20
36.538902
 30
0.0
 10
35.533921
 20
35.949732
 30
0.0
 10
35.533945
 20
35.014012
 30
0.0
  0
SPLINE
  5
11d
100
AcDbEntity
  8
0
 62
7
100
AcDbSpline
 70
8
 71
3
 72
8
 73
4
 74
0
 40
0
 40
0
 40
0
 40
0
 40
1
 40
1
 40
1
 40
1
 10
35.533945
 20
35.014012
 30
0.0
 10
35.533921
 20
34.078250
 30
0.0
 10
35.381835
 20
33.367780
 30
0.0
 10
35.077680
 20
32.882600
 30
0.0
  0
SPLINE
  5
11e
100
AcDbEntity
  8
0
 62
7
100
AcDbSpline
 70
8
 71
3
 72
8
 73
4
 74
0
 40
0
 40
0
 40
0
 40
0
 40
1
 40
1
 40
1
 40
1
 10
35.077680
 20
32.882600
 30
0.0
 10
34.816938
 20
32.847924
 30
0.0
 10
34.338949
 20
32.795938
 30
0.0
 10
33.643709
 20
32.726643
 30
0.0
  0
SPLINE
  5
11f
100
AcDbEntity
  8
0
 62
7
100
AcDbSpline
 70
8
 71
3
 72
8
 73
4
 74
0
 40
0
 40
0
 40
0
 40
0
 40
1
 40
1
 40
1
 40
1
 10
33.643709
 20
32.726643
 30
0.0
 10
32.991887
 20
32.657310
 30
0.0
 10
32.492171
 20
32.605324
 30
0.0
 10
32.144561
 20
32.570686
 30
0.0
  0
SPLINE
  5
120
100
AcDbEntity
  8
0
 62
7
100
AcDbSpline
 70
8
 71
3
 72
8
 73
4
 74
0
 40
0
 40
0
 40
0
 40
0
 40
1
 40
1
 40
1
 40
1
 10
32.144561
 20
32.570686
 30
0.0
 10
31.840366
 20
32.536010
 30
0.0
 10
31.384104
 20
32.466696
 30
0.0
 10
30.775772
 20
32.362743
 30
0.0
  0
SPLINE
  5
121
100
AcDbEntity
  8
0
 62
7
100
AcDbSpline
 70
8
 71
3
 72
8
 73
4
 74
0
 40
0
 40
0
 40
0
 40
0
 40
1
 40
1
 40
1
 40
1
 10
30.775772
 20
32.362743
 30
0.0
 10
30.167405
 20
32.293411
 30
0.0
 10
29.689412
 20
32.224097
 30
0.0
 10
29.341802
 20
32.154800
 30
0.0
  0
SPLINE
  5
122
100
AcDbEntity
  8
0
 62
7
100
AcDbSpline
 70
8
 71
3
 72
8
 73
4
 74
0
 40
0
 40
0
 40
0
 40
0
 40
1
 40
1
 40
1
 40
1
 10
29.341802
 20
32.154800
 30
0.0
 10
28.994156
 20
32.120126
 30
0.0
 10
28.559621
 20
32.050811
 30
0.0
 10
28.038189
 20
31.946858
 30
0.0
  0
SPLINE
  5
123
100
AcDbEntity
  8
0
 62
7
100
AcDbSpline
 70
8
 71
3
 72
8
 73
4
 74
0
 40
0
 40
0
 40
0
 40
0
 40
1
 40
1
 40
1
 40
1
 10
28.038189
 20
31.946858
 30
0.0
 10
27.560188
 20
31.877526
 30
0.0
 10
27.147377
 20
31.790883
 30
0.0
 10
26.799762
 20
31.686930
 30
0.0
  0
SPLINE
  5
124
100
AcDbEntity
  8
0
 62
7
100
AcDbSpline
 70
8
 71
3
 72
8
 73
4
 74
0
 40
0
 40
0
 40
0
 40
0
 40
1
 40
1
 40
1
 40
1
 10
26.799762
 20
31.686930
 30
0.0
 10
26.495573
 20
31.582941
 30
0.0
 10
26.169671
 20
31.478970
 30
0.0
 10
25.822055
 20
31.375016
 30
0.0
  0
SPLINE
  5
125
100
AcDbEntity
  8
0
 62
7
100
AcDbSpline
 70
8
 71
3
 72
8
 73
4
 74
0
 40
0
 40
0
 40
0
 40
0
 40
1
 40
1
 40
1
 40
1
 10
25.822055
 20
31.375016
 30
0.0
 10
25.126785
 20
31.167056
 30
0.0
 10
24.648796
 20
30.889799
 30
0.0
 10
24.388086
 20
30.543245
 30
0.0
  0
LINE
  5
126
100
AcDbEntity
  8
0
 62
7
100
AcDbLine
 10
24.388086
 20
30.543245
 30
0.0
 11
24.388086
 21
27.164178
 31
0.0
  0
LINE
  5
127
100
AcDbEntity
  8
0
 62
7
100
AcDbLine
 10
24.388086
 20
27.164178
 30
0.0
 11
24.518446
 21
18.326614
 31
0.0
  0
LINE
  5
128
100
AcDbEntity
  8
0
 62
7
100
AcDbLine
 10
24.518446
 20
18.326614
 30
0.0
 11
24.518446
 21
17.546828
 31
0.0
  0
SPLINE
  5
129
100
AcDbEntity
  8
0
 62
7
100
AcDbSpline
 70
8
 71
3
 72
8
 73
4
 74
0
 40
0
 40
0
 40
0
 40
0
 40
1
 40
1
 40
1
 40
1
 10
24.518446
 20
17.546828
 30
0.0
 10
24.518435
 20
17.408198
 30
0.0
 10
24.518435
 20
17.113611
 30
0.0
 10
24.518446
 20
16.663072
 30
0.0
  0
SPLINE
  5
12a
100
AcDbEntity
  8
0
 62
7
100
AcDbSpline
 70
8
 71
3
 72
8
 73
4
 74
0
 40
0
 40
0
 40
0
 40
0
 40
1
 40
1
 40
1
 40
1
 10
24.518446
 20
16.663072
 30
0.0
 10
24.518435
 20
16.247187
 30
0.0
 10
24.496707
 20
15.900614
 30
0.0
 10
24.453266
 20
15.623360
 30
0.0
  0
SPLINE
  5
12b
100
AcDbEntity
  8
0
 62
7
100
AcDbSpline
 70
8
 71
3
 72
8
 73
4
 74
0
 40
0
 40
0
 40
0
 40
0
 40
1
 40
1
 40
1
 40
1
 10
24.453266
 20
15.623360
 30
0.0
 10
24.453255
 20
15.346102
 30
0.0
 10
24.366347
 20
15.068845
 30
0.0
 10
24.192544
 20
14.791590
 30
0.0
  0
SPLINE
  5
12c
100
AcDbEntity
  8
0
 62
7
100
AcDbSpline
 70
8
 71
3
 72
8
 73
4
 74
0
 40
0
 40
0
 40
0
 40
0
 40
1
 40
1
 40
1
 40
1
 10
24.192544
 20
14.791590
 30
0.0
 10
23.844904
 20
14.341048
 30
0.0
 10
22.932379
 20
14.115777
 30
0.0
 10
21.454965
 20
14.115777
 30
0.0
  0
SPLINE
  5
12d
100
AcDbEntity
  8
0
 62
7
100
AcDbSpline
 70
8
 71
3
 72
8
 73
4
 74
0
 40
0
 40
0
 40
0
 40
0
 40
1
 40
1
 40
1
 40
1
 10
21.454965
 20
14.115777
 30
0.0
 10
20.020988
 20
14.115777
 30
0.0
 10
20.077205
 20
14.257373
 30
0.0
 10
19.816489
 20
14.396004
 30
0.0
  0
SPLINE
  5
12e
100
AcDbEntity
  8
0
 62
7
100
AcDbSpline
 70
8
 71
3
 72
8
 73
4
 74
0
 40
0
 40
0
 40
0
 40
0
 40
1
 40
1
 40
1
 40
1
 10
19.816489
 20
14.396004
 30
0.0
 10
19.295040
 20
14.673258
 30
0.0
 10
19.179165
 20
16.423718
 30
0.0
 10
19.179170
 20
19.716145
 30
0.0
  0
SPLINE
  5
12f
100
AcDbEntity
  8
0
 62
7
100
AcDbSpline
 70
8
 71
3
 72
8
 73
4
 74
0
 40
0
 40
0
 40
0
 40
0
 40
1
 40
1
 40
1
 40
1
 10
43.735626
 20
47.166945
 30
0.0
 10
43.484119
 20
47.166937
 30
0.0
 10
43.244186
 20
47.149344
 30
0.0
 10
43.012432
 20
47.105209
 30
0.0
  0
SPLINE
  5
130
100
AcDbEntity
  8
0
 62
7
100
AcDbSpline
 70
8
 71
3
 72
8
 73
4
 74
0
 40
0
 40
0
 40
0
 40
0
 40
1
 40
1
 40
1
 40
1
 10
43.012432
 20
47.105209
 30
0.0
 10
42.791792
 20
47.062497
 30
0.0
 10
42.577216
 20
47.004555
 30
0.0
 10
42.377431
 20
46.928820
 30
0.0
  0
SPLINE
  5
131
100
AcDbEntity
  8
0
 62
7
100
AcDbSpline
 70
8
 71
3
 72
8
 73
4
 74
0
 40
0
 40
0
 40
0
 40
0
 40
1
 40
1
 40
1
 40
1
 10
42.377431
 20
46.928820
 30
0.0
 10
42.374805
 20
46.927837
 30
0.0
 10
42.371187
 20
46.929802
 30
0.0
 10
42.368619
 20
46.928820
 30
0.0
  0
SPLINE
  5
132
100
AcDbEntity
  8
0
 62
7
100
AcDbSpline
 70
8
 71
3
 72
8
 73
4
 74
0
 40
0
 40
0
 40
0
 40
0
 40
1
 40
1
 40
1
 40
1
 10
42.368619
 20
46.928820
 30
0.0
 10
42.172141
 20
46.856911
 30
0.0
 10
41.984965
 20
46.763021
 30
0.0
 10
41.812995
 20
46.664236
 30
0.0
  0
SPLINE
  5
133
100
AcDbEntity
  8
0
 62
7
100
AcDbSpline
 70
8
 71
3
 72
8
 73
4
 74
0
 40
0
 40
0
 40
0
 40
0
 40
1
 40
1
 40
1
 40
1
 10
41.812995
 20
46.664236
 30
0.0
 10
41.646718
 20
46.566633
 30
0.0
 10
41.495092
 20
46.461517
 30
0.0
 10
41.354385
 20
46.346736
 30
0.0
  0
LINE
  5
134
100
AcDbEntity
  8
0
 62
7
100
AcDbLine
 10
41.354385
 20
46.346736
 30
0.0
 11
41.089801
 21
46.135070
 31
0.0
  0
LINE
  5
135
100
AcDbEntity
  8
0
 62
7
100
AcDbLine
 10
41.089801
 20
46.135070
 30
0.0
 11
41.292649
 21
45.870486
 31
0.0
  0
LINE
  5
136
100
AcDbEntity
  8
0
 62
7
100
AcDbLine
 10
41.292649
 20
45.870486
 30
0.0
 11
41.751258
 21
45.253125
 31
0.0
  0
LINE
  5
137
100
AcDbEntity
  8
0
 62
7
100
AcDbLine
 10
41.751258
 20
45.253125
 30
0.0
 11
41.954107
 21
44.970903
 31
0.0
  0
LINE
  5
138
100
AcDbEntity
  8
0
 62
7
100
AcDbLine
 10
41.954107
 20
44.970903
 30
0.0
 11
42.236328
 21
45.173750
 31
0.0
  0
SPLINE
  5
139
100
AcDbEntity
  8
0
 62
7
100
AcDbSpline
 70
8
 71
3
 72
8
 73
4
 74
0
 40
0
 40
0
 40
0
 40
0
 40
1
 40
1
 40
1
 40
1
 10
42.236328
 20
45.173750
 30
0.0
 10
42.459372
 20
45.336507
 30
0.0
 10
42.692454
 20
45.463774
 30
0.0
 10
42.933065
 20
45.561806
 30
0.0
  0
SPLINE
  5
13a
100
AcDbEntity
  8
0
 62
7
100
AcDbSpline
 70
8
 71
3
 72
8
 73
4
 74
0
 40
0
 40
0
 40
0
 40
0
 40
1
 40
1
 40
1
 40
1
 10
42.933065
 20
45.561806
 30
0.0
 10
43.154509
 20
45.653620
 30
0.0
 10
43.418820
 20
45.702911
 30
0.0
 10
43.735634
 20
45.702917
 30
0.0
  0
SPLINE
  5
13b
100
AcDbEntity
  8
0
 62
7
100
AcDbSpline
 70
8
 71
3
 72
8
 73
4
 74
0
 40
0
 40
0
 40
0
 40
0
 40
1
 40
1
 40
1
 40
1
 10
43.735634
 20
45.702917
 30
0.0
 10
43.889597
 20
45.702912
 30
0.0
 10
44.020158
 20
45.686629
 30
0.0
 10
44.132510
 20
45.650000
 30
0.0
  0
SPLINE
  5
13c
100
AcDbEntity
  8
0
 62
7
100
AcDbSpline
 70
8
 71
3
 72
8
 73
4
 74
0
 40
0
 40
0
 40
0
 40
0
 40
1
 40
1
 40
1
 40
1
 10
44.132510
 20
45.650000
 30
0.0
 10
44.244897
 20
45.613346
 30
0.0
 10
44.334857
 20
45.562505
 30
0.0
 10
44.405913
 20
45.500070
 30
0.0
  0
SPLINE
  5
13d
100
AcDbEntity
  8
0
 62
7
100
AcDbSpline
 70
8
 71
3
 72
8
 73
4
 74
0
 40
0
 40
0
 40
0
 40
0
 40
1
 40
1
 40
1
 40
1
 10
44.405913
 20
45.500070
 30
0.0
 10
44.474734
 20
45.441668
 30
0.0
 10
44.524986
 20
45.369950
 30
0.0
 10
44.564662
 20
45.279584
 30
0.0
  0
SPLINE
  5
13e
100
AcDbEntity
  8
0
 62
7
100
AcDbSpline
 70
8
 71
3
 72
8
 73
4
 74
0
 40
0
 40
0
 40
0
 40
0
 40
1
 40
1
 40
1
 40
1
 10
44.564662
 20
45.279584
 30
0.0
 10
44.602301
 20
45.193839
 30
0.0
 10
44.626395
 20
45.093676
 30
0.0
 10
44.626398
 20
44.962083
 30
0.0
  0
SPLINE
  5
13f
100
AcDbEntity
  8
0
 62
7
100
AcDbSpline
 70
8
 71
3
 72
8
 73
4
 74
0
 40
0
 40
0
 40
0
 40
0
 40
1
 40
1
 40
1
 40
1
 10
44.626398
 20
44.962083
 30
0.0
 10
44.626395
 20
44.802405
 30
0.0
 10
44.599669
 20
44.669637
 30
0.0
 10
44.547022
 20
44.547570
 30
0.0
  0
SPLINE
  5
140
100
AcDbEntity
  8
0
 62
7
100
AcDbSpline
 70
8
 71
3
 72
8
 73
4
 74
0
 40
0
 40
0
 40
0
 40
0
 40
1
 40
1
 40
1
 40
1
 10
44.547022
 20
44.547570
 30
0.0
 10
44.494913
 20
44.426775
 30
0.0
 10
44.422029
 20
44.319825
 30
0.0
 10
44.317716
 20
44.230070
 30
0.0
  0
LINE
  5
141
100
AcDbEntity
  8
0
 62
7
100
AcDbLine
 10
44.317716
 20
44.230070
 30
0.0
 11
44.308904
 21
44.230070
 31
0.0
  0
SPLINE
  5
142
100
AcDbEntity
  8
0
 62
7
100
AcDbSpline
 70
8
 71
3
 72
8
 73
4
 74
0
 40
0
 40
0
 40
0
 40
0
 40
1
 40
1
 40
1
 40
1
 10
44.308904
 20
44.230070
 30
0.0
 10
44.211655
 20
44.144397
 30
0.0
 10
44.091252
 20
44.072497
 30
0.0
 10
43.920849
 20
44.018403
 30
0.0
  0
SPLINE
  5
143
100
AcDbEntity
  8
0
 62
7
100
AcDbSpline
 70
8
 71
3
 72
8
 73
4
 74
0
 40
0
 40
0
 40
0
 40
0
 40
1
 40
1
 40
1
 40
1
 10
43.920849
 20
44.018403
 30
0.0
 10
43.753720
 20
43.965344
 30
0.0
 10
43.551385
 20
43.939024
 30
0.0
 10
43.312307
 20
43.939028
 30
0.0
  0
LINE
  5
144
100
AcDbEntity
  8
0
 62
7
100
AcDbLine
 10
43.312307
 20
43.939028
 30
0.0
 11
42.650849
 21
43.939028
 31
0.0
  0
LINE
  5
145
100
AcDbEntity
  8
0
 62
7
100
AcDbLine
 10
42.650849
 20
43.939028
 30
0.0
 11
42.298070
 21
43.939028
 31
0.0
  0
LINE
  5
146
100
AcDbEntity
  8
0
 62
7
100
AcDbLine
 10
42.298070
 20
43.939028
 30
0.0
 11
42.298070
 21
43.586250
 31
0.0
  0
LINE
  5
147
100
AcDbEntity
  8
0
 62
7
100
AcDbLine
 10
42.298070
 20
43.586250
 30
0.0
 11
42.298070
 21
42.836597
 31
0.0
  0
LINE
  5
148
100
AcDbEntity
  8
0
 62
7
100
AcDbLine
 10
42.298070
 20
42.836597
 30
0.0
 11
42.298070
 21
42.483820
 31
0.0
  0
LINE
  5
149
100
AcDbEntity
  8
0
 62
7
100
AcDbLine
 10
42.298070
 20
42.483820
 30
0.0
 11
42.650849
 21
42.483820
 31
0.0
  0
LINE
  5
14a
100
AcDbEntity
  8
0
 62
7
100
AcDbLine
 10
42.650849
 20
42.483820
 30
0.0
 11
43.312307
 21
42.483820
 31
0.0
  0
SPLINE
  5
14b
100
AcDbEntity
  8
0
 62
7
100
AcDbSpline
 70
8
 71
3
 72
8
 73
4
 74
0
 40
0
 40
0
 40
0
 40
0
 40
1
 40
1
 40
1
 40
1
 10
43.312307
 20
42.483820
 30
0.0
 10
43.586994
 20
42.483817
 30
0.0
 10
43.824879
 20
42.465324
 30
0.0
 10
44.026683
 20
42.422083
 30
0.0
  0
SPLINE
  5
14c
100
AcDbEntity
  8
0
 62
7
100
AcDbSpline
 70
8
 71
3
 72
8
 73
4
 74
0
 40
0
 40
0
 40
0
 40
0
 40
1
 40
1
 40
1
 40
1
 10
44.026683
 20
42.422083
 30
0.0
 10
44.228183
 20
42.379509
 30
0.0
 10
44.384702
 20
42.314082
 30
0.0
 10
44.502931
 20
42.236875
 30
0.0
  0
SPLINE
  5
14d
100
AcDbEntity
  8
0
 62
7
100
AcDbSpline
 70
8
 71
3
 72
8
 73
4
 74
0
 40
0
 40
0
 40
0
 40
0
 40
1
 40
1
 40
1
 40
1
 10
44.502931
 20
42.236875
 30
0.0
 10
44.618216
 20
42.163937
 30
0.0
 10
44.701047
 20
42.080931
 30
0.0
 10
44.758695
 20
41.972292
 30
0.0
  0
LINE
  5
14e
100
AcDbEntity
  8
0
 62
7
100
AcDbLine
 10
44.758695
 20
41.972292
 30
0.0
 11
44.758695
 21
41.963473
 31
0.0
  0
SPLINE
  5
14f
100
AcDbEntity
  8
0
 62
7
100
AcDbSpline
 70
8
 71
3
 72
8
 73
4
 74
0
 40
0
 40
0
 40
0
 40
0
 40
1
 40
1
 40
1
 40
1
 10
44.758695
 20
41.963473
 30
0.0
 10
44.813370
 20
41.866269
 30
0.0
 10
44.846886
 20
41.736352
 30
0.0
 10
44.846889
 20
41.557778
 30
0.0
  0
SPLINE
  5
150
100
AcDbEntity
  8
0
 62
7
100
AcDbSpline
 70
8
 71
3
 72
8
 73
4
 74
0
 40
0
 40
0
 40
0
 40
0
 40
1
 40
1
 40
1
 40
1
 10
44.846889
 20
41.557778
 30
0.0
 10
44.846886
 20
41.372751
 30
0.0
 10
44.819255
 20
41.214550
 30
0.0
 10
44.767516
 20
41.081528
 30
0.0
  0
SPLINE
  5
151
100
AcDbEntity
  8
0
 62
7
100
AcDbSpline
 70
8
 71
3
 72
8
 73
4
 74
0
 40
0
 40
0
 40
0
 40
0
 40
1
 40
1
 40
1
 40
1
 10
44.767516
 20
41.081528
 30
0.0
 10
44.721353
 20
40.956905
 30
0.0
 10
44.657166
 20
40.858048
 30
0.0
 10
44.555849
 20
40.772848
 30
0.0
  0
LINE
  5
152
100
AcDbEntity
  8
0
 62
7
100
AcDbLine
 10
44.555849
 20
40.772848
 30
0.0
 11
44.547037
 21
40.772848
 31
0.0
  0
SPLINE
  5
153
100
AcDbEntity
  8
0
 62
7
100
AcDbSpline
 70
8
 71
3
 72
8
 73
4
 74
0
 40
0
 40
0
 40
0
 40
0
 40
1
 40
1
 40
1
 40
1
 10
44.547037
 20
40.772848
 30
0.0
 10
44.449310
 20
40.688758
 30
0.0
 10
44.317089
 20
40.616275
 30
0.0
 10
44.132525
 20
40.561181
 30
0.0
  0
SPLINE
  5
154
100
AcDbEntity
  8
0
 62
7
100
AcDbSpline
 70
8
 71
3
 72
8
 73
4
 74
0
 40
0
 40
0
 40
0
 40
0
 40
1
 40
1
 40
1
 40
1
 10
44.132525
 20
40.561181
 30
0.0
 10
43.953006
 20
40.507593
 30
0.0
 10
43.723513
 20
40.472986
 30
0.0
 10
43.444606
 20
40.472986
 30
0.0
  0
SPLINE
  5
155
100
AcDbEntity
  8
0
 62
7
100
AcDbSpline
 70
8
 71
3
 72
8
 73
4
 74
0
 40
0
 40
0
 40
0
 40
0
 40
1
 40
1
 40
1
 40
1
 10
43.444606
 20
40.472986
 30
0.0
 10
43.168390
 20
40.472986
 30
0.0
 10
42.876117
 20
40.510811
 30
0.0
 10
42.562664
 20
40.587639
 30
0.0
  0
SPLINE
  5
156
100
AcDbEntity
  8
0
 62
7
100
AcDbSpline
 70
8
 71
3
 72
8
 73
4
 74
0
 40
0
 40
0
 40
0
 40
0
 40
1
 40
1
 40
1
 40
1
 10
42.562664
 20
40.587639
 30
0.0
 10
42.254472
 20
40.663923
 30
0.0
 10
41.968595
 20
40.766917
 30
0.0
 10
41.707176
 20
40.905139
 30
0.0
  0
LINE
  5
157
100
AcDbEntity
  8
0
 62
7
100
AcDbLine
 10
41.707176
 20
40.905139
 30
0.0
 11
41.195649
 21
41.178542
 31
0.0
  0
LINE
  5
158
100
AcDbEntity
  8
0
 62
7
100
AcDbLine
 10
41.195649
 20
41.178542
 30
0.0
 11
41.195649
 21
40.596459
 31
0.0
  0
LINE
  5
159
100
AcDbEntity
  8
0
 62
7
100
AcDbLine
 10
41.195649
 20
40.596459
 30
0.0
 11
41.195649
 21
39.758611
 31
0.0
  0
LINE
  5
15a
100
AcDbEntity
  8
0
 62
7
100
AcDbLine
 10
41.195649
 20
39.758611
 30
0.0
 11
41.195649
 21
39.546945
 31
0.0
  0
LINE
  5
15b
100
AcDbEntity
  8
0
 62
7
100
AcDbLine
 10
41.195649
 20
39.546945
 30
0.0
 11
41.380858
 21
39.449931
 31
0.0
  0
SPLINE
  5
15c
100
AcDbEntity
  8
0
 62
7
100
AcDbSpline
 70
8
 71
3
 72
8
 73
4
 74
0
 40
0
 40
0
 40
0
 40
0
 40
1
 40
1
 40
1
 40
1
 10
41.380858
 20
39.449931
 30
0.0
 10
41.694024
 20
39.284136
 30
0.0
 10
42.025204
 20
39.168350
 30
0.0
 10
42.377455
 20
39.105973
 30
0.0
  0
SPLINE
  5
15d
100
AcDbEntity
  8
0
 62
7
100
AcDbSpline
 70
8
 71
3
 72
8
 73
4
 74
0
 40
0
 40
0
 40
0
 40
0
 40
1
 40
1
 40
1
 40
1
 10
42.377455
 20
39.105973
 30
0.0
 10
42.720216
 20
39.045900
 30
0.0
 10
43.083555
 20
39.017778
 30
0.0
 10
43.462246
 20
39.017778
 30
0.0
  0
SPLINE
  5
15e
100
AcDbEntity
  8
0
 62
7
100
AcDbSpline
 70
8
 71
3
 72
8
 73
4
 74
0
 40
0
 40
0
 40
0
 40
0
 40
1
 40
1
 40
1
 40
1
 10
43.462246
 20
39.017778
 30
0.0
 10
43.945705
 20
39.017778
 30
0.0
 10
44.380912
 20
39.065652
 30
0.0
 10
44.758704
 20
39.185347
 30
0.0
  0
SPLINE
  5
15f
100
AcDbEntity
  8
0
 62
7
100
AcDbSpline
 70
8
 71
3
 72
8
 73
4
 74
0
 40
0
 40
0
 40
0
 40
0
 40
1
 40
1
 40
1
 40
1
 10
44.758704
 20
39.185347
 30
0.0
 10
45.129851
 20
39.302940
 30
0.0
 10
45.450398
 20
39.476504
 30
0.0
 10
45.711204
 20
39.705695
 30
0.0
  0
SPLINE
  5
160
100
AcDbEntity
  8
0
 62
7
100
AcDbSpline
 70
8
 71
3
 72
8
 73
4
 74
0
 40
0
 40
0
 40
0
 40
0
 40
1
 40
1
 40
1
 40
1
 10
45.711204
 20
39.705695
 30
0.0
 10
45.965193
 20
39.928901
 30
0.0
 10
46.149644
 20
40.207317
 30
0.0
 10
46.275649
 20
40.517084
 30
0.0
  0
LINE
  5
161
100
AcDbEntity
  8
0
 62
7
100
AcDbLine
 10
46.275649
 20
40.517084
 30
0.0
 11
46.284462
 21
40.517084
 31
0.0
  0
SPLINE
  5
162
100
AcDbEntity
  8
0
 62
7
100
AcDbSpline
 70
8
 71
3
 72
8
 73
4
 74
0
 40
0
 40
0
 40
0
 40
0
 40
1
 40
1
 40
1
 40
1
 10
46.284462
 20
40.517084
 30
0.0
 10
46.285337
 20
40.519349
 30
0.0
 10
46.283586
 20
40.523632
 30
0.0
 10
46.284462
 20
40.525903
 30
0.0
  0
SPLINE
  5
163
100
AcDbEntity
  8
0
 62
7
100
AcDbSpline
 70
8
 71
3
 72
8
 73
4
 74
0
 40
0
 40
0
 40
0
 40
0
 40
1
 40
1
 40
1
 40
1
 10
46.284462
 20
40.525903
 30
0.0
 10
46.410248
 20
40.833978
 30
0.0
 10
46.478483
 20
41.176717
 30
0.0
 10
46.478489
 20
41.531320
 30
0.0
  0
SPLINE
  5
164
100
AcDbEntity
  8
0
 62
7
100
AcDbSpline
 70
8
 71
3
 72
8
 73
4
 74
0
 40
0
 40
0
 40
0
 40
0
 40
1
 40
1
 40
1
 40
1
 10
46.478489
 20
41.531320
 30
0.0
 10
46.478483
 20
42.084896
 30
0.0
 10
46.285471
 20
42.579068
 30
0.0
 10
45.914046
 20
42.942431
 30
0.0
  0
SPLINE
  5
165
100
AcDbEntity
  8
0
 62
7
100
AcDbSpline
 70
8
 71
3
 72
8
 73
4
 74
0
 40
0
 40
0
 40
0
 40
0
 40
1
 40
1
 40
1
 40
1
 10
45.914046
 20
42.942431
 30
0.0
 10
45.752111
 20
43.102600
 30
0.0
 10
45.547676
 20
43.219105
 30
0.0
 10
45.331962
 20
43.321667
 30
0.0
  0
SPLINE
  5
166
100
AcDbEntity
  8
0
 62
7
100
AcDbSpline
 70
8
 71
3
 72
8
 73
4
 74
0
 40
0
 40
0
 40
0
 40
0
 40
1
 40
1
 40
1
 40
1
 10
45.331962
 20
43.321667
 30
0.0
 10
45.467430
 20
43.410510
 30
0.0
 10
45.611495
 20
43.487425
 30
0.0
 10
45.720019
 20
43.603889
 30
0.0
  0
SPLINE
  5
167
100
AcDbEntity
  8
0
 62
7
100
AcDbSpline
 70
8
 71
3
 72
8
 73
4
 74
0
 40
0
 40
0
 40
0
 40
0
 40
1
 40
1
 40
1
 40
1
 10
45.720019
 20
43.603889
 30
0.0
 10
45.891753
 20
43.783802
 30
0.0
 10
46.025570
 20
44.000665
 30
0.0
 10
46.116892
 20
44.238890
 30
0.0
  0
SPLINE
  5
168
100
AcDbEntity
  8
0
 62
7
100
AcDbSpline
 70
8
 71
3
 72
8
 73
4
 74
0
 40
0
 40
0
 40
0
 40
0
 40
1
 40
1
 40
1
 40
1
 10
46.116892
 20
44.238890
 30
0.0
 10
46.209936
 20
44.481618
 30
0.0
 10
46.257998
 20
44.745629
 30
0.0
 10
46.258004
 20
45.023820
 30
0.0
  0
SPLINE
  5
169
100
AcDbEntity
  8
0
 62
7
100
AcDbSpline
 70
8
 71
3
 72
8
 73
4
 74
0
 40
0
 40
0
 40
0
 40
0
 40
1
 40
1
 40
1
 40
1
 10
46.258004
 20
45.023820
 30
0.0
 10
46.257998
 20
45.323433
 30
0.0
 10
46.200391
 20
45.608133
 30
0.0
 10
46.090434
 20
45.870487
 30
0.0
  0
SPLINE
  5
16a
100
AcDbEntity
  8
0
 62
7
100
AcDbSpline
 70
8
 71
3
 72
8
 73
4
 74
0
 40
0
 40
0
 40
0
 40
0
 40
1
 40
1
 40
1
 40
1
 10
46.090434
 20
45.870487
 30
0.0
 10
46.089559
 20
45.872698
 30
0.0
 10
46.091310
 20
45.877103
 30
0.0
 10
46.090434
 20
45.879306
 30
0.0
  0
LINE
  5
16b
100
AcDbEntity
  8
0
 62
7
100
AcDbLine
 10
46.090434
 20
45.879306
 30
0.0
 11
46.081622
 21
45.879306
 31
0.0
  0
SPLINE
  5
16c
100
AcDbEntity
  8
0
 62
7
100
AcDbSpline
 70
8
 71
3
 72
8
 73
4
 74
0
 40
0
 40
0
 40
0
 40
0
 40
1
 40
1
 40
1
 40
1
 10
46.081622
 20
45.879306
 30
0.0
 10
45.970609
 20
46.140178
 30
0.0
 10
45.800655
 20
46.378978
 30
0.0
 10
45.587731
 20
46.567223
 30
0.0
  0
SPLINE
  5
16d
100
AcDbEntity
  8
0
 62
7
100
AcDbSpline
 70
8
 71
3
 72
8
 73
4
 74
0
 40
0
 40
0
 40
0
 40
0
 40
1
 40
1
 40
1
 40
1
 10
45.587731
 20
46.567223
 30
0.0
 10
45.584813
 20
46.569816
 30
0.0
 10
45.581837
 20
46.573471
 30
0.0
 10
45.578919
 20
46.576042
 30
0.0
  0
SPLINE
  5
16e
100
AcDbEntity
  8
0
 62
7
100
AcDbSpline
 70
8
 71
3
 72
8
 73
4
 74
0
 40
0
 40
0
 40
0
 40
0
 40
1
 40
1
 40
1
 40
1
 10
45.578919
 20
46.576042
 30
0.0
 10
45.357999
 20
46.770437
 30
0.0
 10
45.089988
 20
46.916637
 30
0.0
 10
44.785167
 20
47.017014
 30
0.0
  0
SPLINE
  5
16f
100
AcDbEntity
  8
0
 62
7
100
AcDbSpline
 70
8
 71
3
 72
8
 73
4
 74
0
 40
0
 40
0
 40
0
 40
0
 40
1
 40
1
 40
1
 40
1
 10
44.785167
 20
47.017014
 30
0.0
 10
44.473007
 20
47.121057
 30
0.0
 10
44.122002
 20
47.166937
 30
0.0
 10
43.735655
 20
47.166945
 30
0.0
  0
LINE
  5
170
100
AcDbEntity
  8
0
 62
7
100
AcDbLine
 10
43.735655
 20
47.166945
 30
0.0
 11
43.735626
 21
47.166945
 31
0.0
  0
ENDSEC
  0
SECTION
  2
OBJECTS
  0
DICTIONARY
  5
C
330
0
100
AcDbDictionary
  3
ACAD_GROUP
350
D
  3
ACAD_MLINESTYLE
350
17
  0
DICTIONARY
  5
D
330
C
100
AcDbDictionary
  0
DICTIONARY
  5
1A
330
C
100
AcDbDictionary
  0
DICTIONARY
  5
17
330
C
100
AcDbDictionary
  3
STANDARD
350
18
  0
DICTIONARY
  5
19
330
C
100
AcDbDictionary
  0
ENDSEC
  0
EOF
