<?xml version="1.0" encoding="UTF-8" standalone="no"?>
<!-- Created with Inkscape (http://www.inkscape.org/) -->

<svg
   xmlns:dc="http://purl.org/dc/elements/1.1/"
   xmlns:cc="http://creativecommons.org/ns#"
   xmlns:rdf="http://www.w3.org/1999/02/22-rdf-syntax-ns#"
   xmlns:svg="http://www.w3.org/2000/svg"
   xmlns="http://www.w3.org/2000/svg"
   xmlns:sodipodi="http://sodipodi.sourceforge.net/DTD/sodipodi-0.dtd"
   xmlns:inkscape="http://www.inkscape.org/namespaces/inkscape"
   version="1.0"
   width="184.25197"
   height="184.25197"
   id="svg2"
   sodipodi:version="0.32"
   inkscape:version="0.48.5 r10040"
   sodipodi:docname="logo-klein.svg"
   inkscape:output_extension="org.inkscape.output.svg.inkscape">
  <metadata
     id="metadata8">
    <rdf:RDF>
      <cc:Work
         rdf:about="">
        <dc:format>image/svg+xml</dc:format>
        <dc:type
           rdf:resource="http://purl.org/dc/dcmitype/StillImage" />
        <dc:title></dc:title>
      </cc:Work>
    </rdf:RDF>
  </metadata>
  <sodipodi:namedview
     inkscape:window-height="998"
     inkscape:window-width="1400"
     inkscape:pageshadow="2"
     inkscape:pageopacity="0.0"
     guidetolerance="10.0"
     gridtolerance="10.0"
     objecttolerance="10.0"
     borderopacity="1.0"
     bordercolor="#666666"
     pagecolor="#ffffff"
     id="base"
     showgrid="false"
     inkscape:zoom="4.2658974"
     inkscape:cx="92.125984"
     inkscape:cy="92.125984"
     inkscape:window-x="0"
     inkscape:window-y="28"
     inkscape:current-layer="svg2"
     inkscape:document-units="mm"
     units="mm"
     showguides="true"
     inkscape:guide-bbox="true"
     inkscape:window-maximized="1">
    <sodipodi:guide
       orientation="0,1"
       position="3.5433071,3.5433071"
       id="guide3509" />
    <sodipodi:guide
       orientation="1,0"
       position="3.5433071,3.5433071"
       id="guide3511" />
    <sodipodi:guide
       orientation="0,1"
       position="3.5433071,180.70866"
       id="guide3513" />
    <sodipodi:guide
       orientation="1,0"
       position="180.70866,3.5433071"
       id="guide3519" />
    <sodipodi:guide
       orientation="0,1"
       position="10.629921,10.629921"
       id="guide3521" />
    <sodipodi:guide
       orientation="1,0"
       position="10.629921,10.629921"
       id="guide3523" />
    <sodipodi:guide
       orientation="0,1"
       position="10.629921,173.62205"
       id="guide3525" />
    <sodipodi:guide
       orientation="1,0"
       position="173.62205,10.629921"
       id="guide3527" />
  </sodipodi:namedview>
  <defs
     id="defs4">
    <inkscape:perspective
       sodipodi:type="inkscape:persp3d"
       inkscape:vp_x="0 : 380.90848 : 1"
       inkscape:vp_y="0 : 1000 : 0"
       inkscape:vp_z="637.79529 : 380.90848 : 1"
       inkscape:persp3d-origin="318.89764 : 253.93899 : 1"
       id="perspective10" />
  </defs>
  <text
     xml:space="preserve"
     style="font-size:18.78186989px;font-style:normal;font-weight:normal;line-height:125%;letter-spacing:0px;word-spacing:0px;fill:#000000;fill-opacity:1;stroke:none;font-family:Sans"
     x="78.897285"
     y="177.2852"
     id="text3529"
     sodipodi:linespacing="125%"><tspan
       sodipodi:role="line"
       id="tspan3531"
       x="78.897285"
       y="177.2852"
       style="font-style:normal;font-variant:normal;font-weight:normal;font-stretch:normal;font-family:Trebuchet MS;-inkscape-font-specification:Trebuchet MS" /></text>
  <text
     xml:space="preserve"
     style="font-size:28px;font-style:normal;font-weight:normal;line-height:125%;letter-spacing:0px;word-spacing:0px;fill:#000000;fill-opacity:1;stroke:none;font-family:Sans"
     x="89.766304"
     y="176.30391"
     id="text3537"
     sodipodi:linespacing="125%"><tspan
       sodipodi:role="line"
       id="tspan3539"
       x="89.766304"
       y="176.30391" /></text>
  <path
     inkscape:connector-curvature="0"
     style="fill:none;fill-opacity:1;stroke:#000000;stroke-opacity:1;stroke-width:0.35433071;stroke-miterlimit:4;stroke-dasharray:none"
     d="m 91.099934,10.629918 c -44.502617,0.564348 -80.445866,36.860345 -80.445866,81.496074 0,44.987178 36.508882,81.496058 81.496057,81.496058 44.987175,0 81.496045,-36.50888 81.496035,-81.496058 0,-0.351476 -0.004,-0.699778 -0.01,-1.050199 l 0,-64.219307 C 173.45762,17.910718 166.17937,10.69731 157.20639,10.629918 l -65.056265,0 c -0.124201,0 -0.247475,0 -0.371121,0 -0.226245,0 -0.452486,-0.0029 -0.67907,0 z"
     id="path3021" />
  <path
     inkscape:connector-curvature="0"
     style="fill:none;fill-opacity:1;stroke:#000000;stroke-width:0.35433070999999999;stroke-miterlimit:4;stroke-dasharray:none;stroke-opacity:1"
     d="m 92.576508,29.272695 c 15.175242,0.128207 30.177302,5.955126 41.557382,15.973896 17.03463,14.722776 24.21617,39.17932 19.4008,61.029289 -4.20881,20.34612 -19.9415,37.32895 -39.228,44.58951 -20.014665,8.0773 -44.057059,4.19583 -60.895028,-9.16744 C 34.722134,127.41583 25.683235,102.0696 30.433896,79.097355 36.079166,51.261967 62.645163,29.412956 91.107832,29.280606 c 0.489771,-0.0078 0.979159,-0.01204 1.468676,-0.0079 z"
     id="path3017" />
  <g
     style="font-size:163.52767943999998579px;font-style:normal;font-variant:normal;font-weight:normal;font-stretch:normal;line-height:125%;letter-spacing:0px;word-spacing:0px;fill:none;fill-opacity:1;stroke:#000000;stroke-width:0.28092527;stroke-miterlimit:4;stroke-opacity:1;stroke-dasharray:none;font-family:Cagliostro;-inkscape-font-specification:Cagliostro"
     id="text3003"
     transform="matrix(1.4123259,0,0,1.1264218,-40.443253,-20.38953)">
    <path
       d="m 76.741376,119.79215 -0.07874,-37.739938 c 0.109005,-0.872093 0.01816,2.042528 0.01817,-0.137901 -1.4e-5,-2.180309 -0.03618,-1.666873 0.07285,-6.536443 0.07266,-2.010725 -0.01749,-3.706568 0.503388,-5.911232 0.654095,-2.725391 1.3904,-3.493707 3.897841,-3.493778 5.450898,7.1e-5 8.176357,1.199273 8.176384,3.597609 -2.7e-5,1.853379 0.05448,3.1616 0.163528,3.924664 0.654082,6.4e-5 3.815614,-1.471684 9.484601,-4.415247 5.668922,-2.943427 10.520242,-4.415175 14.553972,-4.415247 1.63522,7.2e-5 2.7254,0.436145 3.27055,1.308221 0.65406,0.7632 0.98111,2.616511 0.98117,5.559941 -6e-5,2.943561 -0.38162,5.178437 -1.1447,6.704635 -0.65416,0.109077 -1.85336,0.272605 -3.59761,0.490583 -1.63532,0.218095 -2.88903,0.381623 -3.76113,0.490583 -0.76318,0.109076 -1.90787,0.327113 -3.43408,0.654111 -1.5263,0.218094 -2.72551,0.43613 -3.59761,0.654111 -0.87219,0.109074 -1.96237,0.327111 -3.270562,0.65411 -1.19923,0.218093 -2.234909,0.490639 -3.107021,0.817639 -0.763163,0.32711 -1.580801,0.654165 -2.452916,0.981166 -1.744325,0.654164 -2.943527,1.526311 -3.597608,2.616443 l 0,10.629299 0.327055,27.799711 0,2.45292 c -2.9e-5,0.43608 -2.9e-5,1.36274 0,2.77997 -2.9e-5,1.30822 -0.05454,2.39841 -0.163528,3.27055 -2.8e-5,0.87215 -0.218065,1.7443 -0.654111,2.61644 -0.872174,1.41724 -3.161559,2.12586 -6.868162,2.12586 -3.597626,0 -3.456587,-0.44541 -4.110683,-0.88149 -1.308234,-0.87214 -1.598947,-6.37844 -1.598935,-16.7352"
       style="stroke:#000000;stroke-width:0.28092527;stroke-miterlimit:4;stroke-opacity:1;stroke-dasharray:none;fill:none"
       id="path3024"
       inkscape:connector-curvature="0"
       sodipodi:nodetypes="cccccccccccccccccccccccccccscc" />
  </g>
  <g
     transform="scale(1.033941,0.9671732)"
     style="font-size:38.47631073000000157px;font-style:normal;font-variant:normal;font-weight:normal;font-stretch:normal;line-height:125%;letter-spacing:0px;word-spacing:0px;fill:none;stroke:#000000;stroke-width:3.18897634;stroke-miterlimit:4;stroke-opacity:1;font-family:Varela Round;-inkscape-font-specification:Varela Round;stroke-dasharray:none"
     id="text3841">
    <path
       style="font-size:36px;font-style:normal;font-variant:normal;font-weight:normal;font-stretch:normal;text-indent:0;text-align:start;text-decoration:none;line-height:125%;letter-spacing:0px;word-spacing:0px;text-transform:none;direction:ltr;block-progression:tb;writing-mode:lr-tb;text-anchor:start;baseline-shift:baseline;color:#000000;fill:none;stroke:#000000;stroke-width:0.35433072;stroke-miterlimit:4;stroke-opacity:1;stroke-dasharray:none;marker:none;visibility:visible;display:inline;overflow:visible;enable-background:accumulate;font-family:Droid Sans;-inkscape-font-specification:Droid Sans"
       d="m 149.88162,17.70624 c -0.86191,2.9e-5 -1.68416,0.06448 -2.47838,0.226174 -0.75613,0.156477 -1.49148,0.368753 -2.17614,0.646213 -0.009,0.0036 -0.0214,-0.0036 -0.0302,0 -0.67333,0.263444 -1.31478,0.607417 -1.90412,0.96932 -0.56983,0.357578 -1.08945,0.742678 -1.57165,1.163184 l -0.90673,0.775455 0.69516,0.96932 1.57165,2.261746 0.69516,1.033941 0.96717,-0.743145 c 0.76437,-0.596272 1.56314,-1.062523 2.38771,-1.421669 0.75889,-0.336366 1.66468,-0.516949 2.7504,-0.51697 0.52763,1.9e-5 0.97506,0.05967 1.36009,0.193863 0.38515,0.134286 0.69344,0.320546 0.93695,0.549282 0.23585,0.213958 0.40806,0.476703 0.54403,0.807766 0.12899,0.314131 0.21156,0.681086 0.21157,1.163184 -1e-5,0.584994 -0.0916,1.0714 -0.27202,1.518601 -0.17858,0.442541 -0.42835,0.83436 -0.78583,1.163183 l -0.0302,0 c -0.33327,0.313867 -0.74589,0.577279 -1.32986,0.775456 -0.57275,0.194386 -1.26615,0.290809 -2.08547,0.290796 l -2.26681,0 -1.20897,0 0,1.292426 0,2.746406 0,1.292426 1.20897,0 2.26681,0 c 0.94135,1.1e-5 1.75658,0.06776 2.44816,0.226175 0.69054,0.155973 1.22693,0.395669 1.6321,0.678523 0.39508,0.267215 0.67894,0.571313 0.8765,0.96932 l 0,0.03231 c 0.18737,0.356113 0.30223,0.832074 0.30224,1.48629 -1e-5,0.677861 -0.0947,1.257441 -0.27201,1.744775 -0.1582,0.456567 -0.37817,0.818736 -0.72538,1.130873 l -0.0302,0 c -0.33491,0.308067 -0.78803,0.573615 -1.42053,0.775456 -0.61521,0.196322 -1.40168,0.323109 -2.35749,0.323107 -0.94659,2e-6 -1.94821,-0.138574 -3.02241,-0.420039 -1.05617,-0.279469 -2.03587,-0.656795 -2.93175,-1.163183 l -1.753,-1.001631 0,2.132504 0,3.069512 0,0.775456 0.63471,0.355417 c 1.07322,0.6074 2.20817,1.031593 3.41533,1.260115 1.17464,0.220079 2.4198,0.323107 3.71757,0.323107 1.65681,0 3.14826,-0.175389 4.44295,-0.613902 1.27192,-0.43081 2.37043,-1.066674 3.26421,-1.906329 0.87042,-0.81773 1.50253,-1.837727 1.93435,-2.972581 l 0.0302,0 c 0.003,-0.0083 -0.003,-0.02399 0,-0.03231 0.43107,-1.128655 0.66491,-2.384303 0.66493,-3.683415 -2e-5,-2.028065 -0.66147,-3.838499 -1.93434,-5.169705 -0.55495,-0.58679 -1.25555,-1.013615 -1.9948,-1.389358 0.46425,-0.325484 0.95796,-0.607266 1.32987,-1.033941 0.58853,-0.659122 1.04712,-1.453615 1.36008,-2.326368 0.31886,-0.889254 0.48357,-1.856477 0.48359,-2.875648 -2e-5,-1.097653 -0.19744,-2.140672 -0.57426,-3.101823 -0.003,-0.0081 0.003,-0.02424 0,-0.03231 l -0.0302,0 c -0.38044,-0.955723 -0.96287,-1.830583 -1.69256,-2.520231 -0.01,-0.0095 -0.0202,-0.02289 -0.0302,-0.03231 -0.75709,-0.712182 -1.67556,-1.247796 -2.72018,-1.615533 -1.06977,-0.38117 -2.27266,-0.549252 -3.59667,-0.549281 z"
       id="text5055"
       inkscape:connector-curvature="0"
       sodipodi:nodetypes="cccccccccccccccccccccccccccccccccccccssccccccccsssccccccccccccccccc" />
  </g>
</svg>
