<?xml version="1.0" encoding="UTF-8" standalone="no"?>
<!-- Created with Inkscape (http://www.inkscape.org/) -->

<svg
   xmlns:dc="http://purl.org/dc/elements/1.1/"
   xmlns:cc="http://creativecommons.org/ns#"
   xmlns:rdf="http://www.w3.org/1999/02/22-rdf-syntax-ns#"
   xmlns:svg="http://www.w3.org/2000/svg"
   xmlns="http://www.w3.org/2000/svg"
   xmlns:xlink="http://www.w3.org/1999/xlink"
   xmlns:sodipodi="http://sodipodi.sourceforge.net/DTD/sodipodi-0.dtd"
   xmlns:inkscape="http://www.inkscape.org/namespaces/inkscape"
   version="1.0"
   width="100mm"
   height="100mm"
   id="svg2"
   sodipodi:version="0.32"
   inkscape:version="0.91 r13725"
   sodipodi:docname="logo-re_empty.svg"
   inkscape:output_extension="org.inkscape.output.svg.inkscape"
   inkscape:export-filename="/home/equinox/realraum/git/logo/logo-aktuell.png"
   inkscape:export-xdpi="275.48813"
   inkscape:export-ydpi="275.48813">
  <sodipodi:namedview
     inkscape:window-height="1151"
     inkscape:window-width="1920"
     inkscape:pageshadow="2"
     inkscape:pageopacity="0.0"
     guidetolerance="10.0"
     gridtolerance="10.0"
     objecttolerance="10.0"
     borderopacity="1.0"
     bordercolor="#666666"
     pagecolor="#ffffff"
     id="base"
     showgrid="false"
     inkscape:zoom="2.7516667"
     inkscape:cx="177.16535"
     inkscape:cy="177.16535"
     inkscape:window-x="0"
     inkscape:window-y="25"
     inkscape:current-layer="svg2"
     inkscape:document-units="mm"
     units="mm"
     showguides="false"
     inkscape:guide-bbox="true"
     inkscape:window-maximized="1"
     showborder="false"
     inkscape:showpageshadow="false" />
  <metadata
     id="metadata8">
    <rdf:RDF>
      <cc:Work
         rdf:about="">
        <dc:format>image/svg+xml</dc:format>
        <dc:type
           rdf:resource="http://purl.org/dc/dcmitype/StillImage" />
        <dc:title />
      </cc:Work>
    </rdf:RDF>
  </metadata>
  <defs
     id="defs4">
    <inkscape:perspective
       sodipodi:type="inkscape:persp3d"
       inkscape:vp_x="0 : 380.90848 : 1"
       inkscape:vp_y="0 : 1000 : 0"
       inkscape:vp_z="637.79529 : 380.90848 : 1"
       inkscape:persp3d-origin="318.89764 : 253.93899 : 1"
       id="perspective10" />
  </defs>
  <g
     id="g3397">
    <g
       id="g4409" />
  </g>
  <text
     xml:space="preserve"
     style="font-style:normal;font-weight:normal;font-size:52.42951965px;line-height:125%;font-family:Sans;letter-spacing:0px;word-spacing:0px;fill:#000000;fill-opacity:1;stroke:none"
     x="172.74368"
     y="378.11536"
     id="text3529"
     sodipodi:linespacing="125%"
     transform="scale(1.0000019,0.99999811)"><tspan
       sodipodi:role="line"
       id="tspan3531"
       x="172.74368"
       y="378.11536"
       style="font-style:normal;font-variant:normal;font-weight:normal;font-stretch:normal;font-family:'Trebuchet MS';-inkscape-font-specification:'Trebuchet MS'" /></text>
  <text
     xml:space="preserve"
     style="font-style:normal;font-weight:normal;font-size:78.16189575px;line-height:125%;font-family:Sans;letter-spacing:0px;word-spacing:0px;fill:#000000;fill-opacity:1;stroke:none"
     x="203.0845"
     y="375.37604"
     id="text3537"
     sodipodi:linespacing="125%"
     transform="scale(1.0000019,0.99999811)"><tspan
       sodipodi:role="line"
       id="tspan3539"
       x="203.0845"
       y="375.37604" /></text>
  <text
     sodipodi:linespacing="125%"
     id="text4902"
     y="378.11536"
     x="172.74368"
     style="font-style:normal;font-weight:normal;font-size:52.42951965px;line-height:125%;font-family:Sans;letter-spacing:0px;word-spacing:0px;fill:#000000;fill-opacity:1;stroke:none"
     xml:space="preserve"
     transform="scale(1.0000019,0.99999811)"><tspan
       style="font-style:normal;font-variant:normal;font-weight:normal;font-stretch:normal;font-family:'Trebuchet MS';-inkscape-font-specification:'Trebuchet MS'"
       y="378.11536"
       x="172.74368"
       id="tspan4904"
       sodipodi:role="line" /></text>
  <text
     sodipodi:linespacing="125%"
     id="text4906"
     y="375.37604"
     x="203.0845"
     style="font-style:normal;font-weight:normal;font-size:78.16189575px;line-height:125%;font-family:Sans;letter-spacing:0px;word-spacing:0px;fill:#000000;fill-opacity:1;stroke:none"
     xml:space="preserve"
     transform="scale(1.0000019,0.99999811)"><tspan
       y="375.37604"
       x="203.0845"
       id="tspan4908"
       sodipodi:role="line" /></text>
  <text
     xml:space="preserve"
     style="font-style:normal;font-weight:normal;font-size:52.42951965px;line-height:125%;font-family:Sans;letter-spacing:0px;word-spacing:0px;fill:#000000;fill-opacity:1;stroke:none"
     x="172.74368"
     y="378.11536"
     id="text4912"
     sodipodi:linespacing="125%"
     transform="scale(1.0000019,0.99999811)"><tspan
       sodipodi:role="line"
       id="tspan4914"
       x="172.74368"
       y="378.11536"
       style="font-style:normal;font-variant:normal;font-weight:normal;font-stretch:normal;font-family:'Trebuchet MS';-inkscape-font-specification:'Trebuchet MS'" /></text>
  <text
     xml:space="preserve"
     style="font-style:normal;font-weight:normal;font-size:78.16189575px;line-height:125%;font-family:Sans;letter-spacing:0px;word-spacing:0px;fill:#000000;fill-opacity:1;stroke:none"
     x="203.0845"
     y="375.37604"
     id="text4916"
     sodipodi:linespacing="125%"
     transform="scale(1.0000019,0.99999811)"><tspan
       sodipodi:role="line"
       id="tspan4918"
       x="203.0845"
       y="375.37604" /></text>
  <g
     id="g4413">
    <path
       id="path4975"
       d="M 174.87952,0.00283033 C 78.13461,1.2296398 -1.7838599e-8,80.166585 -1.7838599e-8,177.19813 -1.7838599e-8,274.99368 79.39529,354.33072 177.1936,354.33072 c 97.79832,0 177.13091,-79.33704 177.13089,-177.13259 0,-0.76406 0.014,-1.55231 0,-2.31407 l 0,-139.604726 C 353.93643,15.832552 338.1178,0.14932543 318.6113,0.00283033 l -141.4177,0 -0.81277,0 c -0.49184,0 -1.00873,-0.00636013 -1.50131,0 z M 309.91695,15.140093 c 4.32352,5.5e-5 8.04643,0.927121 10.94572,2.938723 2.93358,1.975676 4.62813,5.159596 4.62815,8.694316 -2e-5,2.091358 -0.5541,4.193322 -1.50131,6.254842 -0.89442,1.893981 -1.88516,3.523732 -3.00144,4.816239 -0.81736,0.903351 -1.67691,1.824274 -2.56488,2.689095 2.49103,1.398691 4.59737,3.162453 6.19216,5.379378 l 0.0627,0 c 0.008,0.01357 -0.008,0.111781 0,0.125404 1.88498,2.535991 2.81448,5.562234 2.81451,8.818538 -3e-5,6.015355 -2.49585,11.077865 -7.19304,14.448718 -4.51934,3.281781 -10.08278,5.046943 -16.44934,5.253974 0,0 -0.0526,-0.0024 -0.0627,0 -1.57154,0 -3.12124,-0.793526 -4.19042,-1.939035 -0.84551,-0.910481 -1.62671,-1.900336 -1.62671,-3.377637 0,-0.680529 0.0283,-1.362075 0.18811,-2.001741 l 0.50043,-1.750933 1.75094,-0.0627 c 5.49749,-0.184777 9.38133,-1.380803 11.69578,-3.189534 2.31448,-1.808732 3.37765,-4.204522 3.37765,-8.005769 -10e-6,-3.71476 -1.47417,-5.912036 -5.50361,-7.693449 -1.0461,-0.470698 -1.8618,-0.895749 -2.56489,-1.375897 -0.70308,-0.480148 -1.63932,-0.88484 -1.81364,-2.627577 l -0.0627,-0.812765 0.43773,-0.688542 c 0.58756,-0.913982 1.51941,-2.098245 3.00262,-3.878071 l 0,-0.06152 c 1.42318,-1.65269 2.53965,-3.207961 3.31495,-4.629318 l 0,-0.06271 c 0.73247,-1.27213 1.06236,-2.484244 1.06239,-3.876889 -3e-5,-1.241802 -0.30882,-1.936777 -1.12509,-2.690277 -0.705,-0.650696 -1.82571,-1.187758 -3.87809,-1.187794 -0.35932,1.8e-5 -1.69398,0.219769 -3.56458,0.687361 -0.98761,0.246912 -1.77457,0.43221 -2.37678,0.563132 -0.60222,0.130916 -0.75345,0.250941 -1.56401,0.250813 -1.48776,2.37e-4 -2.03993,-0.527267 -2.81451,-1.063572 l -0.0627,-0.06271 -0.0627,-0.0627 c -0.88548,-0.7378 -1.75094,-1.809192 -1.75094,-3.252234 0,-1.60912 1.02849,-2.609533 1.93904,-3.252234 0.91052,-0.642689 1.96392,-1.186067 3.31495,-1.689409 2.78619,-1.071525 5.62465,-1.625465 8.50624,-1.625525 z M 178.06906,40.533308 c 32.98969,0.278701 65.63976,12.996736 90.37909,34.776072 37.03182,32.00516 52.62436,85.16269 42.15616,132.66134 -9.14962,44.22947 -43.32326,81.10217 -85.2505,96.88558 C 181.84364,322.41519 129.5483,314.01648 92.943973,284.96668 52.314522,253.91945 32.641391,198.80331 42.968929,148.86501 55.241266,88.354949 113.00409,40.883721 174.87952,40.596013 c 1.06473,-0.01702 2.12538,-0.07169 3.18954,-0.06271 z"
       style="fill:#761407;fill-opacity:1;stroke:none"
       inkscape:connector-curvature="0" />
    <g
       id="g4401">
      <use
         x="0"
         y="0"
         xlink:href="#path3792"
         id="use3794"
         transform="matrix(-1,0,0,1,332.23517,0)"
         width="637.79529"
         height="637.80121" />
      <path
         inkscape:connector-curvature="0"
         style="fill:#761407;fill-opacity:1;stroke:none"
         d="m 237.11282,91.321577 c -12.38468,1.69e-4 -27.25295,3.613083 -44.65811,10.820583 -17.40536,7.20783 -27.13839,10.82074 -29.14661,10.82058 -0.33481,-1.8685 -0.50045,-5.09387 -0.50036,-9.63219 -9e-5,-5.872752 -8.34533,-8.818917 -25.0811,-8.819093 -7.69854,1.76e-4 -10.00065,1.895302 -12.0089,8.568903 -1.59924,5.3985 -1.34057,9.52467 -1.56366,14.44829 -0.33475,11.924 -0.18768,10.67309 -0.18764,16.01196 0,0.0833 -1.3e-4,0.0477 0,0.1251 -0.0178,0.066 -0.0388,0.0991 -0.0625,0.25019 l 0.25018,92.3815 c 0.008,25.1462 0.94208,38.52909 4.94117,40.65539 2.00825,1.06779 1.58865,2.18911 12.63436,2.18911 11.38029,0 18.40031,-1.78355 21.07813,-5.25391 1.33878,-2.13557 2.0014,-4.24415 2.00148,-6.37977 0.33461,-2.13559 0.50028,-4.80257 0.50037,-8.00598 -9e-5,-3.47033 -9e-5,-5.74977 0,-6.81758 l 0,-6.0045 -1.00074,-68.05083 0,-26.01944 c 2.00822,-2.66938 5.71515,-4.84048 11.07071,-6.44231 2.67763,-0.80072 5.16244,-1.5758 7.50556,-2.37678 2.67762,-0.80072 5.88762,-1.46745 9.5696,-2.00149 4.01651,-0.80072 7.32953,-1.35913 10.0074,-1.62621 2.67758,-0.53377 6.38456,-1.09218 11.07072,-1.62622 4.68589,-0.80071 8.16466,-1.29658 10.50778,-1.56366 2.6776,-0.26682 6.55019,-0.65435 11.57108,-1.1884 5.35533,-0.53376 8.99975,-0.98384 11.00816,-1.25093 2.3429,-3.73717 3.56497,-9.17942 3.56514,-16.38724 -1.7e-4,-7.20751 -1.05664,-11.766355 -3.06476,-13.635187 -1.67376,-2.135436 -4.98685,-3.189705 -10.00742,-3.189886 z"
         id="path4910" />
      <path
         style="fill:none;stroke:#000000;stroke-width:5.34946203;stroke-linecap:butt;stroke-linejoin:miter;stroke-miterlimit:4;stroke-dasharray:none;stroke-opacity:1"
         d="M 14.969756,207.98848 C 151.6415,96.075178 167.75741,109.81062 167.75741,109.81062"
         id="path3792"
         inkscape:connector-curvature="0"
         sodipodi:nodetypes="cc" />
      <g
         id="g4397">
        <rect
           y="208.56573"
           x="15.814789"
           height="115.37119"
           width="300.93765"
           id="rect3011"
           style="fill:#ffffff;fill-opacity:1;fill-rule:evenodd;stroke:#000000;stroke-width:6.82698774;stroke-linecap:butt;stroke-linejoin:round;stroke-miterlimit:4;stroke-dasharray:none;stroke-opacity:1" />
        <path
           sodipodi:nodetypes="cccsccccsccccccccccccsscccscscccccccccsccccccscccccsscsccccccccccccccsccscscccsscccccscccssccccccccccccccccccccscccccsscsscccccsccccccsccccssscsccccsccsccsccccsscccsccscccccccccsccscccccccscccscccsccccssccccccccccccccsssccssccccssccccsccccccccccsccccccssccccccsccccccccccccccssccccsssccccsssccccccscccsssccscccssccsccsccccsccsscccccscccscccsccccccccccccccscccssssccscssscccsssccccccscccc"
           inkscape:connector-curvature="0"
           id="text3781"
           d="m 249.2723,229.13679 -0.10277,0.019 c -0.7627,0.13768 -1.46998,0.56417 -2.20512,1.14247 -0.0628,-0.002 -0.11513,-0.0444 -0.1785,-0.0444 l -1.31261,0 -3.63314,0.10155 -16.31391,0.0994 -17.3669,-0.10155 -0.004,0 c -7.03614,0 -11.27035,0.0591 -12.97649,0.20734 l -0.002,0 -0.002,0.002 c -1.4793,0.13353 -2.61009,0.19676 -3.35185,0.19676 l 0.10457,0.004 c -0.81015,-0.0731 -1.54965,-0.0754 -2.22856,0.004 l -0.007,0 -0.007,0.002 c -0.73295,0.0956 -1.44912,0.4131 -2.01761,0.96899 l -0.0469,0.0465 -0.0433,0.0508 c -0.54115,0.635 -0.82572,1.42232 -1.03495,2.31671 -0.23711,0.93818 -0.31552,2.01539 -0.31552,3.37453 0,0.88937 0.22945,1.82613 0.76268,2.51769 0.53323,0.69156 1.27401,1.04925 2.02842,1.18903 0.45547,0.12949 0.89642,0.23852 1.31622,0.30888 l 0.0956,0.0148 0.0974,0 c 0.5176,0 1.10181,-0.0371 1.76518,-0.1079 0.62262,-0.0664 1.06381,-0.0931 1.08543,-0.0931 l 0.005,0 12.10742,-0.10156 0.005,0 c 2.08404,-0.0335 3.66952,-0.007 4.71135,0.0719 0.29173,0.0222 0.42261,0.0522 0.62205,0.0804 0.002,0.11722 0.008,0.0802 0.005,0.2158 -0.0133,0.67265 -0.0611,1.60237 -0.14606,2.76523 l -0.002,0.0233 0,0.0212 c -0.11631,2.38859 -0.1767,4.47868 -0.1767,6.27729 l 0,7.49592 -0.17128,17.23027 0,0.002 -0.0865,10.55311 0,3.90347 0.002,0.0423 c 0.0554,1.23453 0.0847,3.00642 0.0847,5.28926 l 0,0.0254 0,0.0233 c 0.0582,2.25432 0.14429,4.00556 0.26685,5.29983 l 0.005,0.0508 0.007,0.0508 c 0.19214,1.27766 0.26222,2.2349 1.18099,3.09738 0.87557,0.82192 1.6653,0.75742 2.75145,0.75742 1.00609,0 1.78606,-0.0323 2.39804,-0.11214 0.48552,-0.0633 0.87486,-0.091 1.14493,-0.091 l 0.0974,0 0.0955,-0.0169 c 0.55597,-0.0932 1.09683,-0.28877 1.57406,-0.70875 l 0.0775,-0.0677 0.0685,-0.0804 c 0.19036,-0.22336 0.37526,-0.33018 0.16589,-0.20734 l 0.0757,-0.0444 0.0703,-0.055 c 0.69751,-0.54565 0.83814,-1.28273 0.92136,-1.93799 0.0788,-0.29916 0.11904,-0.57797 0.14785,-0.89494 0.1501,-0.62606 0.14063,-1.02491 0.14063,-1.74122 l -0.004,0.13329 c 0.0611,-0.8598 0.14547,-2.57653 0.25964,-5.18558 l 0,-0.002 c 0.18127,-2.83711 0.26325,-8.6917 0.26325,-17.7613 l 0,-14.80145 0.0865,-18.35371 0,-0.004 c 0,-0.89531 0.11119,-1.23356 0.0559,-1.19537 0.10445,-0.0205 0.17457,-0.0465 0.39847,-0.0465 4.5054,0 7.79735,-0.0665 9.92575,-0.20523 l 0.018,-0.002 0.0162,-0.002 c 2.0854,-0.1984 4.47205,-0.29831 7.15086,-0.29831 l 4.06046,0 c 0.41638,0 0.65572,-0.0506 1.02052,-0.0635 0.40189,0.53542 0.68096,0.98098 1.20082,1.60794 0.9758,1.27811 1.87439,2.40253 2.69195,3.36184 l 0.0162,0.0212 0.0198,0.0212 c 0.79837,0.8699 1.86019,2.04712 3.18237,3.5311 1.31569,1.47673 2.16932,2.49125 2.41427,2.82659 l 0.0325,0.0465 0.0378,0.0444 c 0.42588,0.49972 2.21454,2.49463 5.55698,6.21381 1.67179,1.86023 2.96933,3.29821 3.89457,4.31603 0.92524,1.01783 1.41317,1.55569 1.70027,1.83643 l 0.1226,0.11848 0.14065,0.0825 c -0.29053,-0.17045 -0.16709,-0.14716 -0.0487,0.0381 l 0.11719,0.18195 0.15507,0.13751 c 0.15787,0.13894 0.17771,0.28378 0.0324,-0.0571 l 0.0992,0.23272 0.15506,0.18195 c 0.035,0.0411 0.10019,0.12979 0.1767,0.26446 l 0.0739,0.13117 0.0956,0.11214 c 0.11937,0.14007 0.15427,0.24355 0.0901,0.0931 0.0982,0.23043 0.21696,0.46522 0.39666,0.81666 -0.0943,-0.18439 0.0629,0.2493 0.0649,0.9965 l 0,0.006 -0.17309,10.41983 0,0.004 -0.17129,15.7916 -0.25964,6.29633 0,0.0381 c 0,1.12175 0.33636,2.2902 1.08002,3.03815 l 0.0775,0.0783 0.0865,0.0635 c 0.59921,0.43945 1.25215,0.73983 1.93466,0.83994 l 0.0847,0.0127 3.10843,0 c 1.72356,0 3.15045,-0.29894 4.15962,-1.4831 0.52565,-0.6168 0.91874,-1.3671 1.16116,-2.18341 0.24202,-0.67378 0.29677,-1.27114 0.357,-2.13685 0.0625,-0.89838 0.0902,-2.02127 0.0902,-3.39993 l 0,-0.0169 -0.17129,-8.92402 0,-18.94399 c 0,0.4591 -0.0559,0.31011 0.0379,0.11002 0.0938,-0.2001 0.27678,-0.53282 0.5337,-0.94784 0.51386,-0.83005 1.32827,-2.00788 2.42329,-3.49302 2.19002,-2.97028 5.50688,-7.18405 9.93476,-12.61592 l 0.005,-0.006 0.005,-0.006 c 4.32763,-5.41662 7.14448,-9.05483 8.52658,-11.02915 l 0.005,-0.008 0.005,-0.008 c 0.43671,-0.64054 0.83976,-1.17156 1.19722,-1.59101 0.48094,-0.56434 0.85017,-1.03225 1.13591,-1.45136 l 0.0379,-0.0529 0.0325,-0.0571 c 0.33446,-0.58867 0.54902,-1.35926 0.45617,-2.16225 -0.0472,-0.8982 -0.36504,-1.22836 -0.65991,-1.63543 -0.31734,-0.43809 -0.72086,-0.89407 -1.23869,-1.43022 -1.06875,-1.10654 -1.87173,-1.92105 -3.14631,-1.92105 -0.85239,0 -1.02701,0.35165 -1.36129,0.63894 -0.33429,0.28728 -0.68705,0.65112 -1.10707,1.11709 -0.84004,0.93194 -1.92739,2.26871 -3.29416,4.0431 -2.71115,3.4523 -4.76627,6.16863 -6.17541,8.16661 l -0.009,0.0127 -0.009,0.0127 c -1.27715,1.88955 -3.60275,4.99275 -6.9345,9.23927 -1.66284,2.11939 -2.95079,3.7052 -3.84229,4.73494 -0.314,0.3627 -0.50886,0.56137 -0.7158,0.77858 -0.25863,-0.29844 -0.56954,-0.68093 -0.99168,-1.28635 -0.53492,-0.76717 -0.98776,-1.37043 -1.38653,-1.83854 -0.16708,-0.22683 -0.33534,-0.42898 -0.70319,-0.8759 -0.41132,-0.49972 -0.986,-1.19293 -1.72912,-2.08185 -1.48625,-1.77784 -3.64194,-4.3391 -6.4657,-7.68634 l 0.0108,0.0106 c -5.58722,-6.75883 -8.72408,-10.59351 -9.03324,-11.00164 l 0.0325,0.0465 c -0.84448,-1.20325 -1.60564,-2.13777 -2.34576,-2.82445 -0.74012,-0.68669 -1.47346,-1.20595 -2.41968,-1.20595 l -0.10458,0 z m -164.453617,0.71087 c -1.411811,0 -2.718631,0.26379 -3.88916,0.82935 -1.223896,0.59135 -2.285645,1.73895 -2.39444,3.27088 l -0.0036,0.0656 0,0.0677 c 0,0.40489 -0.184829,2.17702 -0.584185,4.78783 -0.409466,2.60924 -0.730726,5.25154 -0.964628,7.92753 -0.22715,2.53178 -0.948808,9.67533 -2.158241,21.36647 -1.210049,11.62955 -1.958605,19.1586 -2.250196,22.64857 l 0,0.0148 -0.0018,0.0148 c -0.228781,3.35567 -0.461827,5.74143 -0.670731,7.02836 l -0.0072,0.036 -0.0036,0.036 c -0.177542,1.4583 -0.27226,2.58306 -0.27226,3.47185 l 0,0.0719 0.0054,0.0719 c 0.07512,0.96957 0.290786,2.02296 1.17378,2.64462 0.60167,0.4236 0.960879,0.3873 1.473085,0.42737 0.512205,0.0401 1.124242,0.0373 1.87336,0.002 1.578609,-0.0741 2.823062,-0.30719 3.788191,-1.31385 l 0.0036,-0.004 0.0018,-0.004 c 1.231444,-1.30048 1.387568,-3.12435 1.568646,-5.81394 l 0.0018,-0.0127 c 0.517913,-6.95505 0.920227,-12.36052 1.208037,-16.21051 0.286603,-3.83382 0.835156,-10.42325 1.640768,-19.74161 l 0,-0.0106 c 0.370599,-4.0298 0.623069,-6.81955 0.834809,-9.18427 0.86733,2.00908 1.208935,2.83863 3.083201,7.11722 3.165828,7.22699 6.128826,14.1147 8.890801,20.66406 l 0.0036,0.008 0.0036,0.008 c 2.820107,6.48321 4.49105,10.45967 4.88443,11.55596 0.49487,1.37911 1.15912,2.8642 1.99237,4.47048 l 0.018,0.0339 0.0198,0.0338 c 0.46381,0.79822 0.88366,1.42774 1.32884,1.92741 0.44519,0.49966 0.929,1.00073 1.78321,1.00073 1.05267,0 1.4378,-0.62342 1.93105,-1.22288 0.49326,-0.59947 1.00993,-1.38647 1.61012,-2.40766 l 0.005,-0.0106 0.005,-0.0106 c 1.17354,-2.06556 2.59461,-4.75391 4.27321,-8.08198 l 0.004,-0.006 0.004,-0.006 c 1.66674,-3.372 3.01571,-6.03227 4.04062,-7.96984 l -0.018,0.0317 c 1.15224,-2.06364 3.61013,-6.96901 7.47181,-14.88184 l 0.002,-0.004 c 2.75428,-5.60827 3.86095,-7.80373 5.15669,-10.39232 0.25556,3.4062 0.56607,7.67485 1.29459,18.94821 l 0,0.002 0,0.004 c 0.48961,7.13077 0.8571,12.58808 1.10166,16.36918 0.12227,1.89055 0.21327,3.36243 0.27406,4.41124 0.0608,1.04881 0.0884,1.76112 0.0884,1.80681 l 0,0.0212 0,0.0211 c 0.0602,2.57676 0.30604,4.58048 0.8925,6.15034 0.58646,1.56987 1.81855,2.80543 3.23466,2.80543 l 0.0126,0 0.0108,0 c 1.60847,-0.0343 2.88426,-0.10924 3.86392,-0.23696 0.97965,-0.12774 1.55806,-0.0743 2.3728,-0.79128 1.09963,-0.96773 1.23508,-2.43633 1.23508,-4.11715 0,-1.08988 -0.19827,-3.73345 -0.58779,-8.59186 -0.38952,-4.85842 -0.97459,-11.74663 -1.75256,-20.67252 l 0,-0.004 0,-0.002 c -1.26128,-13.99276 -1.92575,-21.27791 -2.06808,-22.54491 -0.0585,-1.09818 -0.204,-3.52688 -0.43453,-7.31398 -0.23349,-3.83562 -0.53725,-6.5814 -1.0007,-8.44588 l -0.0829,-0.33217 -0.19112,-0.26022 c -0.91695,-1.25528 -2.11015,-1.23682 -3.55921,-1.16364 -1.43267,0.001 -2.54092,0.12376 -3.49971,0.87378 l -0.27946,0.21792 -2.75325,5.92396 c -1.91067,3.80542 -4.92281,9.96622 -9.06209,18.53355 l -0.002,0.002 0,0.002 c -4.08876,8.51438 -6.74428,13.96469 -7.93158,16.28668 -1.21182,2.36993 -1.95288,3.83867 -2.27003,4.50856 -0.27511,0.58106 -0.52052,1.09099 -0.74105,1.54446 -0.20902,0.36645 -0.47372,0.80462 -0.80055,1.31596 l -0.009,0.0148 -0.009,0.0148 c -0.0747,0.12265 -0.14003,0.19109 -0.21276,0.30042 -0.15892,-0.3181 -0.28538,-0.5429 -0.49764,-1.02188 -0.74106,-1.67222 -1.60106,-3.68796 -2.57654,-6.04456 -0.9754,-2.3564 -1.97977,-4.81623 -3.01289,-7.37533 l -0.005,-0.0148 c -1.05584,-2.68304 -2.5329,-5.97504 -4.428262,-9.88667 l -0.02525,-0.055 c -5.607479,-12.68932 -8.973089,-20.22247 -10.163741,-22.73955 -0.09568,-0.22455 -0.220867,-0.42905 -0.362412,-0.65164 -0.066,-0.15742 -0.08106,-0.40502 -0.155061,-0.53527 -0.08665,-0.15251 -0.170808,-0.29563 -0.320942,-0.4718 -0.150133,-0.17616 -0.359936,-0.54374 -1.069203,-0.54374 l 0.961021,0.46757 -0.259638,-0.30254 c -0.09771,-0.11465 -0.197654,-0.22656 -0.357002,-0.3512 -0.159348,-0.12466 -0.381211,-0.31947 -0.863657,-0.31947 l 0.135229,0.008 -0.932173,-0.11002 -0.06671,0 z m -35.857089,0.50565 -12.181348,0.20311 c -1.481137,0 -2.669821,0.0741 -3.622311,0.24754 -0.937735,0.17074 -1.683688,0.29157 -2.372803,1.17421 -0.594455,0.71991 -0.650587,1.37842 -0.751868,2.17071 -0.103201,0.80731 -0.144243,1.77846 -0.144243,2.97467 l 0,0.0106 0.08655,7.59536 -0.08655,8.19622 -0.259638,36.21023 0,0.006 c 0,4.10756 0.05822,7.26408 0.176697,9.50585 0.05924,1.12088 0.131093,2.00765 0.23079,2.71444 0.04985,0.35339 0.104556,0.65953 0.185713,0.96053 0.08116,0.30099 0.136797,0.60693 0.49764,1.03035 l 0.0595,0.0698 0.06671,0.0614 c 0.779853,0.71173 1.443683,0.72961 2.43591,0.85897 0.992227,0.12937 2.259148,0.1883 3.844085,0.1883 l 15.814477,0 c 4.301254,0 7.609467,-0.0516 9.945578,-0.15445 1.168055,-0.0514 2.091109,-0.1151 2.794715,-0.19676 0.351802,-0.0408 0.648527,-0.0842 0.912339,-0.14175 0.26381,-0.0575 0.463109,-0.0789 0.825793,-0.31101 l 0.08655,-0.055 0.07933,-0.0698 c 0.442299,-0.38925 0.483644,-0.63136 0.600412,-0.89917 0.116768,-0.26781 0.218261,-0.55703 0.329957,-0.9034 0.22339,-0.69278 0.474633,-1.60502 0.768095,-2.7758 l -0.05409,0.17771 c 0.546239,-1.49558 0.887096,-2.53001 0.887096,-3.67074 0,-0.73724 -0.365907,-1.64875 -0.93037,-2.09031 -0.564463,-0.44156 -1.144007,-0.52047 -1.727313,-0.52047 l -0.128016,0 -3.674599,0.82089 c -1.444276,0.18691 -3.979689,0.29409 -7.518684,0.29409 -5.16999,0 -9.084469,-0.10189 -11.707149,-0.30043 -1.311339,-0.0993 -2.304993,-0.22576 -2.92273,-0.35756 -0.112858,-0.0241 -0.132421,-0.0378 -0.218169,-0.0614 -0.0218,-0.28926 -0.04244,-0.61543 -0.0595,-1.09594 -0.04177,-1.17629 -0.06311,-2.88639 -0.06311,-5.10519 l 0,-5.67007 0.08655,-8.21315 0,-0.008 c 0,-0.74239 0.03073,-1.94985 0.05589,-3.06143 l 17.763566,0.0931 0.0036,0 c 1.717686,0 2.779739,-0.0195 3.714266,-0.38505 1.192744,-0.46652 1.755907,-1.66127 2.221347,-3.06566 l 0.0036,-0.0127 0.0036,-0.0148 c 0.443448,-1.41236 0.690565,-2.73622 0.690565,-3.99867 0,-0.53444 -0.20484,-1.0731 -0.457973,-1.41964 -0.253135,-0.34653 -0.532136,-0.55445 -0.813173,-0.71933 -0.562072,-0.32977 -1.176161,-0.50436 -1.940072,-0.65376 -1.527821,-0.29879 -3.642678,-0.42737 -6.445874,-0.42737 l -1.473085,0 -13.400205,0.0931 c 0.0075,-7.88366 0.05482,-13.97744 0.146047,-18.18021 2.243612,-0.36233 5.61818,-0.62182 10.919219,-0.62202 l 10.623521,0.20311 0.01082,0 c 0.569759,0 1.066464,-0.0471 1.557828,-0.22004 0.473055,-0.16653 1.013039,-0.53769 1.336054,-1.22499 0.188552,-0.36526 0.325147,-0.80403 0.342578,-1.27789 0.05458,-0.33132 0.111788,-0.65307 0.111788,-1.00284 0,-0.39717 0.02584,-0.70804 0.0595,-0.90551 l 0.0054,-0.0254 0.36782,-2.5875 0,-0.1333 c 0,-0.84268 -0.374327,-1.55254 -0.804156,-2.0755 -0.382471,-0.49927 -0.729133,-0.62806 -1.052976,-0.73838 -0.34115,-0.11621 -0.698829,-0.18632 -1.11969,-0.24331 -0.838976,-0.11359 -1.923162,-0.16258 -3.299566,-0.16291 l -0.01082,0 -11.411451,-0.10155 z m 108.874866,0 c -2.32782,0 -4.23299,0.54625 -5.2703,2.3167 l -0.0162,0.0275 -0.0162,0.0296 c -0.92056,1.72831 -1.07101,4.08769 -1.07101,7.63979 l -0.0865,7.79848 0,0.0106 0,50.49967 c 0,1.75554 0.1194,3.11016 0.71221,4.26949 l 0.0162,0.0317 0.018,0.0317 c 0.48254,0.84932 1.18455,1.15348 1.89861,1.35193 0.71404,0.19844 1.53325,0.27293 2.51884,0.27293 2.05624,0 3.80598,-0.56929 4.91689,-2.07339 1.30773,-1.77057 1.45506,-4.37168 1.45506,-8.34644 l 0,-0.006 -0.25783,-39.3457 0,-12.05949 c 0,-0.86675 0.10186,-1.28126 0.10096,-1.33924 6.12315,0.0127 10.55505,1.38846 13.36234,3.85903 2.82029,2.48201 4.20831,6.048 4.20831,11.27035 0,4.08868 -1.06092,7.33907 -3.23827,10.06227 -2.17734,2.72321 -5.54967,4.91453 -10.20161,6.45078 l -0.8312,0.27504 -0.14243,0.99861 c -0.12833,0.90347 -0.19113,1.83834 -0.19113,2.79907 0,1.13283 0.35868,2.31607 1.11969,3.05507 0.76101,0.73901 1.72474,0.97534 2.74784,0.97534 3.97833,0 7.58843,-1.24252 10.69383,-3.71728 l 0.004,-0.004 c 3.0643,-2.39796 5.53546,-5.21435 7.37264,-8.448 l 0.009,-0.0148 0.007,-0.0148 c 0.90492,-1.66862 1.68039,-3.84287 2.39263,-6.55444 0.77992,-2.75009 1.19,-5.27293 1.19,-7.58691 0,-10.19943 -4.64813,-17.70931 -13.30283,-21.66266 l -0.005,-0.002 c -4.25595,-1.98124 -10.87899,-2.84985 -20.11293,-2.84985 z"
           style="color:#000000;font-style:normal;font-variant:normal;font-weight:bold;font-stretch:normal;font-size:128.3401947px;line-height:125%;font-family:'Ubuntu Mono';-inkscape-font-specification:'Ubuntu Mono Bold';text-indent:0;text-align:start;text-decoration:none;text-decoration-line:none;text-decoration-style:solid;text-decoration-color:#000000;letter-spacing:-6.78166246px;word-spacing:0px;text-transform:none;direction:ltr;block-progression:tb;writing-mode:lr-tb;baseline-shift:baseline;text-anchor:start;white-space:normal;clip-rule:nonzero;display:inline;overflow:visible;visibility:visible;opacity:1;isolation:auto;mix-blend-mode:normal;color-interpolation:sRGB;color-interpolation-filters:linearRGB;solid-color:#000000;solid-opacity:1;fill:#000000;fill-opacity:1;fill-rule:nonzero;stroke:none;stroke-width:2.9484067;stroke-linecap:butt;stroke-linejoin:miter;stroke-miterlimit:4;stroke-dasharray:none;stroke-dashoffset:0;stroke-opacity:1;color-rendering:auto;image-rendering:auto;shape-rendering:auto;text-rendering:auto;enable-background:accumulate" />
      </g>
    </g>
  </g>
</svg>
