<?xml version="1.0" encoding="UTF-8" standalone="no"?>
<!-- Created with Inkscape (http://www.inkscape.org/) -->

<svg
   xmlns:dc="http://purl.org/dc/elements/1.1/"
   xmlns:cc="http://creativecommons.org/ns#"
   xmlns:rdf="http://www.w3.org/1999/02/22-rdf-syntax-ns#"
   xmlns:svg="http://www.w3.org/2000/svg"
   xmlns="http://www.w3.org/2000/svg"
   xmlns:sodipodi="http://sodipodi.sourceforge.net/DTD/sodipodi-0.dtd"
   xmlns:inkscape="http://www.inkscape.org/namespaces/inkscape"
   version="1.0"
   width="79.865997"
   height="79.867126"
   id="svg2"
   sodipodi:version="0.32"
   inkscape:version="0.48.4 r9939"
   sodipodi:docname="logo-wiki.svg"
   inkscape:output_extension="org.inkscape.output.svg.inkscape">
  <metadata
     id="metadata7">
    <rdf:RDF>
      <cc:Work
         rdf:about="">
        <dc:format>image/svg+xml</dc:format>
        <dc:type
           rdf:resource="http://purl.org/dc/dcmitype/StillImage" />
        <dc:title></dc:title>
      </cc:Work>
    </rdf:RDF>
  </metadata>
  <sodipodi:namedview
     inkscape:window-height="1144"
     inkscape:window-width="1598"
     inkscape:pageshadow="2"
     inkscape:pageopacity="1"
     guidetolerance="10.0"
     gridtolerance="10.0"
     objecttolerance="10.0"
     borderopacity="1.0"
     bordercolor="#666666"
     pagecolor="#7b1407"
     id="base"
     showgrid="false"
     inkscape:zoom="4.214285"
     inkscape:cx="133.47643"
     inkscape:cy="23.134119"
     inkscape:window-x="1920"
     inkscape:window-y="27"
     inkscape:current-layer="svg2"
     showborder="false"
     inkscape:showpageshadow="false"
     showguides="true"
     inkscape:guide-bbox="true"
     inkscape:window-maximized="0">
    <sodipodi:guide
       orientation="0,1"
       position="83.881371,79.966116"
       id="guide3027" />
    <sodipodi:guide
       orientation="0,1"
       position="72.610183,-0.11864409"
       id="guide3029" />
    <sodipodi:guide
       orientation="0,1"
       position="113.54239,17.322037"
       id="guide3031" />
  </sodipodi:namedview>
  <defs
     id="defs4">
    <inkscape:perspective
       sodipodi:type="inkscape:persp3d"
       inkscape:vp_x="0 : 318.9006 : 1"
       inkscape:vp_y="0 : 1000 : 0"
       inkscape:vp_z="637.79529 : 318.9006 : 1"
       inkscape:persp3d-origin="318.89764 : 212.6004 : 1"
       id="perspective9" />
  </defs>
  <path
     style="fill:#ffffff;fill-opacity:1;stroke:none;stroke-width:0.98699999000000005;stroke-linejoin:round;stroke-miterlimit:4;stroke-dasharray:none;stroke-opacity:1"
     d="M 39.40625 0 C 17.600005 0.2765216 0 18.065924 0 39.9375 C 0 61.981279 17.893822 79.875 39.9375 79.875 C 61.981182 79.875001 79.875 61.98129 79.875 39.9375 C 79.875003 39.765282 79.877184 39.577956 79.875 39.40625 L 79.875 7.9375 C 79.78649 3.5540547 76.209242 0.0330102 71.8125 0 L 39.9375 0 C 39.876641 1.1626516e-11 39.810585 0.0002478 39.75 0 C 39.639139 -0.00047369999 39.517275 -0.00141 39.40625 0 z M 39.46875 4.5 C 39.567265 4.49875 39.682885 4.4995802 39.78125 4.5 C 39.835009 4.50022 39.8835 4.5000002 39.9375 4.5 L 68.21875 4.5 C 72.120042 4.52929 75.296456 7.6730302 75.375 11.5625 L 75.375 39.46875 C 75.376932 39.6211 75.375 39.784691 75.375 39.9375 C 75.375001 59.49715 59.497146 75.375004 39.9375 75.375 C 20.377857 75.375 4.5 59.497141 4.5 39.9375 C 4.5 20.53066 20.119784 4.7453602 39.46875 4.5 z M 66.375 9.8125 C 65.959948 9.81251 65.555415 9.84477 65.125 9.90625 C 64.694581 9.96775 64.250605 10.06453 63.8125 10.1875 L 63.8125 11.8125 C 64.173747 11.65494 64.541167 11.51822 64.90625 11.4375 C 65.271338 11.35681 65.642592 11.3125 66 11.3125 C 66.484217 11.3125 66.859826 11.41313 67.125 11.59375 C 67.390163 11.77438 67.499998 12.01326 67.5 12.34375 C 67.499996 12.70116 67.366596 12.97947 67.09375 13.15625 C 66.820888 13.32919 66.432231 13.40626 65.875 13.40625 L 64.9375 13.40625 L 64.9375 14.84375 L 65.8125 14.84375 C 66.438912 14.84375 66.899779 14.95257 67.21875 15.15625 C 67.541562 15.35609 67.718747 15.639271 67.71875 16.03125 C 67.718745 16.41172 67.565124 16.733819 67.25 16.9375 C 66.938708 17.14118 66.494236 17.21875 65.90625 17.21875 C 65.510414 17.21875 65.098706 17.16627 64.6875 17.0625 C 64.280136 16.9549 63.852543 16.801269 63.4375 16.59375 L 63.4375 18.3125 C 63.871762 18.45469 64.308048 18.55583 64.75 18.625 C 65.195789 18.69802 65.651798 18.75 66.09375 18.75 C 67.346578 18.75 68.284178 18.50445 68.9375 18.0625 C 69.590809 17.61671 69.93749 16.978159 69.9375 16.125 C 69.937495 15.55239 69.772335 15.08768 69.46875 14.71875 C 69.168985 14.34598 68.736538 14.08739 68.15625 13.9375 C 68.675053 13.80684 69.078578 13.56898 69.34375 13.25 C 69.608915 12.9272 69.718742 12.5347 69.71875 12.03125 C 69.718741 11.2934 69.46349 10.74009 68.90625 10.375 C 68.352848 10.00607 67.493323 9.8125101 66.375 9.8125 z M 40.125 12.59375 C 39.912164 12.59195 39.681695 12.62162 39.46875 12.625 C 27.093675 12.68255 15.548215 22.1789 13.09375 34.28125 C 11.028245 44.26919 14.967867 55.290379 23.09375 61.5 C 30.414607 67.31012 40.860474 68.980627 49.5625 65.46875 C 57.947945 62.31199 64.795079 54.939888 66.625 46.09375 C 68.718635 36.59377 65.593858 25.9637 58.1875 19.5625 C 53.239629 15.20651 46.722932 12.64949 40.125 12.59375 z M 50.8125 25.71875 C 51.135908 25.718779 51.466394 25.71409 51.84375 25.75 C 52.221061 25.768 52.781243 25.84769 53.5 25.9375 L 53.53125 34.65625 C 52.686713 34.26097 51.844487 33.96096 51 33.78125 C 50.173438 33.58363 49.344489 33.50002 48.5 33.5 C 46.020353 33.50002 44.097605 34.30709 42.75 35.90625 C 41.420333 37.487481 40.749986 39.754 40.75 42.71875 L 40.75 56.625 L 31.09375 56.625 L 31.09375 26.4375 L 40.75 26.4375 L 40.75 31.40625 C 41.989793 29.42976 43.400804 27.9922 45 27.09375 C 46.617124 26.17741 48.566443 25.71878 50.8125 25.71875 z "
     id="path3234" />
  <flowRoot
     xml:space="preserve"
     id="flowRoot2997"
     style="fill:black;stroke:none;stroke-opacity:1;stroke-width:1px;stroke-linejoin:miter;stroke-linecap:butt;fill-opacity:1;font-family:Sans;font-style:normal;font-weight:normal;font-size:40px;line-height:125%;letter-spacing:0px;word-spacing:0px"><flowRegion
       id="flowRegion2999"><rect
         id="rect3001"
         width="23.491529"
         height="80.796623"
         x="85.186455"
         y="2.2738922" /></flowRegion><flowPara
       id="flowPara3003"></flowPara></flowRoot>  <flowRoot
     xml:space="preserve"
     id="flowRoot3005"
     style="font-size:40px;font-style:normal;font-weight:normal;line-height:125%;letter-spacing:0px;word-spacing:0px;fill:#000000;fill-opacity:1;stroke:none;font-family:Sans"><flowRegion
       id="flowRegion3007"><rect
         id="rect3009"
         width="25.271191"
         height="85.661034"
         x="84.474594"
         y="1.9179598" /></flowRegion><flowPara
       id="flowPara3011">OLGA</flowPara><flowPara
       id="flowPara3013" /></flowRoot>  <text
     xml:space="preserve"
     style="font-size:39.15546036px;font-style:normal;font-weight:normal;line-height:125%;letter-spacing:0px;word-spacing:0px;fill:#000000;fill-opacity:1;stroke:none;font-family:Sans"
     x="124.65038"
     y="-3.8184555"
     id="text3015"
     sodipodi:linespacing="125%"
     transform="scale(1.0215689,0.9788865)"><tspan
       sodipodi:role="line"
       id="tspan3017"
       x="-1.8606825"
       y="122.69261"
       style="font-size:15.66218376px;font-style:normal;font-variant:normal;font-weight:bold;font-stretch:normal;text-align:start;line-height:100%;writing-mode:tb-rl;text-anchor:start;fill:#ffffff;font-family:Linux Biolinum O;-inkscape-font-specification:Linux Biolinum O Bold">OLGA</tspan></text>
  <text
     sodipodi:linespacing="125%"
     id="text3019"
     y="-3.6985204"
     x="106.9929"
     style="font-size:39.13939285px;font-style:normal;font-weight:normal;line-height:125%;letter-spacing:0px;word-spacing:0px;fill:#000000;fill-opacity:1;stroke:none;font-family:Sans"
     xml:space="preserve"
     transform="scale(1.0219883,0.97848479)"><tspan
       style="font-size:15.65575695px;font-style:normal;font-variant:normal;font-weight:bold;font-stretch:normal;text-align:start;line-height:100%;writing-mode:tb-rl;text-anchor:start;fill:#ffffff;font-family:Linux Biolinum O;-inkscape-font-specification:Linux Biolinum O Bold"
       y="105.03593"
       x="-1.7415508"
       id="tspan3021"
       sodipodi:role="line">MaSha</tspan></text>
  <text
     xml:space="preserve"
     style="font-size:40.43012619px;font-style:normal;font-weight:normal;line-height:125%;letter-spacing:0px;word-spacing:0px;fill:#000000;fill-opacity:1;stroke:none;font-family:Sans"
     x="86.766579"
     y="-4.0606914"
     id="text3023"
     sodipodi:linespacing="125%"
     transform="scale(1.0526968,0.94994114)"><tspan
       sodipodi:role="line"
       id="tspan3025"
       x="-2.160809"
       y="84.866699"
       style="font-size:16.17205048px;font-style:normal;font-variant:normal;font-weight:bold;font-stretch:normal;text-align:start;line-height:100%;writing-mode:tb-rl;text-anchor:start;fill:#ffffff;font-family:Linux Biolinum O;-inkscape-font-specification:Linux Biolinum O Bold">LoHTR</tspan></text>
</svg>
