  0
SECTION
  2
HEADER
  9
$ACADVER
  1
AC1014
  9
$HANDSEED
  5
FFFF
  9
$MEASUREMENT
 70
     1
  0
ENDSEC
  0
SECTION
  2
TABLES
  0
TABLE
  2
VPORT
  5
8
330
0
100
AcDbSymbolTable
 70
     4
  0
VPORT
  5
2E
330
8
100
AcDbSymbolTableRecord
100
AcDbViewportTableRecord
  2
*ACTIVE
 70
     0
 10
0.0
 20
0.0
 11
1.0
 21
1.0
 12
210.0
 22
148.5
 13
0.0
 23
0.0
 14
10.0
 24
10.0
 15
10.0
 25
10.0
 16
0.0
 26
0.0
 36
1.0
 17
0.0
 27
0.0
 37
0.0
 40
341.0
 41
1.24
 42
50.0
 43
0.0
 44
0.0
 50
0.0
 51
0.0
 71
     0
 72
   100
 73
     1
 74
     3
 75
     0
 76
     0
 77
     0
 78
     0
  0
ENDTAB
  0
TABLE
  2
LTYPE
  5
5
330
0
100
AcDbSymbolTable
 70
     1
  0
LTYPE
  5
14
330
5
100
AcDbSymbolTableRecord
100
AcDbLinetypeTableRecord
  2
BYBLOCK
 70
     0
  3

 72
    65
 73
     0
 40
0.0
  0
LTYPE
  5
15
330
5
100
AcDbSymbolTableRecord
100
AcDbLinetypeTableRecord
  2
BYLAYER
 70
     0
  3

 72
    65
 73
     0
 40
0.0
  0
LTYPE
  5
16
330
5
100
AcDbSymbolTableRecord
100
AcDbLinetypeTableRecord
  2
CONTINUOUS
 70
     0
  3
Solid line
 72
    65
 73
     0
 40
0.0
  0
ENDTAB
  0
TABLE
  2
LAYER
  5
2
100
AcDbSymbolTable
 70
2
  0
LAYER
  5
50
100
AcDbSymbolTableRecord
100
AcDbLayerTableRecord
  2
0
 70
0
  6
CONTINUOUS
  0
LAYER
  5
51
100
AcDbSymbolTableRecord
100
AcDbLayerTableRecord
  2
Layer_1
 70
0
  6
CONTINUOUS
  0
ENDTAB
  0
TABLE
  2
STYLE
  5
3
330
0
100
AcDbSymbolTable
 70
     1
  0
STYLE
  5
11
330
3
100
AcDbSymbolTableRecord
100
AcDbTextStyleTableRecord
  2
STANDARD
 70
     0
 40
0.0
 41
1.0
 50
0.0
 71
     0
 42
2.5
  3
txt
  4

  0
ENDTAB
  0
TABLE
  2
VIEW
  5
6
330
0
100
AcDbSymbolTable
 70
     0
  0
ENDTAB
  0
TABLE
  2
UCS
  5
7
330
0
100
AcDbSymbolTable
 70
     0
  0
ENDTAB
  0
TABLE
  2
APPID
  5
9
330
0
100
AcDbSymbolTable
 70
     2
  0
APPID
  5
12
330
9
100
AcDbSymbolTableRecord
100
AcDbRegAppTableRecord
  2
ACAD
 70
     0
  0
ENDTAB
  0
TABLE
  2
DIMSTYLE
  5
A
330
0
100
AcDbSymbolTable
 70
     1
  0
DIMSTYLE
105
27
330
A
100
AcDbSymbolTableRecord
100
AcDbDimStyleTableRecord
  2
ISO-25
 70
     0
  3

  4

  5

  6

  7

 40
1.0
 41
2.5
 42
0.625
 43
3.75
 44
1.25
 45
0.0
 46
0.0
 47
0.0
 48
0.0
140
2.5
141
2.5
142
0.0
143
0.03937007874016
144
1.0
145
0.0
146
1.0
147
0.625
 71
     0
 72
     0
 73
     0
 74
     0
 75
     0
 76
     0
 77
     1
 78
     8
170
     0
171
     3
172
     1
173
     0
174
     0
175
     0
176
     0
177
     0
178
     0
270
     2
271
     2
272
     2
273
     2
274
     3
340
11
275
     0
280
     0
281
     0
282
     0
283
     0
284
     8
285
     0
286
     0
287
     3
288
     0
  0
ENDTAB
  0
TABLE
  2
BLOCK_RECORD
  5
1
330
0
100
AcDbSymbolTable
 70
     1
  0
BLOCK_RECORD
  5
1F
330
1
100
AcDbSymbolTableRecord
100
AcDbBlockTableRecord
  2
*MODEL_SPACE
  0
BLOCK_RECORD
  5
1B
330
1
100
AcDbSymbolTableRecord
100
AcDbBlockTableRecord
  2
*PAPER_SPACE
  0
ENDTAB
  0
ENDSEC
  0
SECTION
  2
BLOCKS
  0
BLOCK
  5
20
330
1F
100
AcDbEntity
  8
0
100
AcDbBlockBegin
  2
*MODEL_SPACE
 70
     0
 10
0.0
 20
0.0
 30
0.0
  3
*MODEL_SPACE
  1

  0
ENDBLK
  5
21
330
1F
100
AcDbEntity
  8
0
100
AcDbBlockEnd
  0
BLOCK
  5
1C
330
1B
100
AcDbEntity
 67
     1
  8
0
100
AcDbBlockBegin
  2
*PAPER_SPACE
  1

  0
ENDBLK
  5
1D
330
1B
100
AcDbEntity
 67
     1
  8
0
100
AcDbBlockEnd
  0
ENDSEC
  0
SECTION
  2
ENTITIES
  0
SPLINE
  5
100
100
AcDbEntity
  8
Layer_1
 62
7
100
AcDbSpline
 70
8
 71
3
 72
8
 73
4
 74
0
 40
0
 40
0
 40
0
 40
0
 40
1
 40
1
 40
1
 40
1
 10
86.914203
 20
188.655907
 30
0.0
 10
77.710997
 20
188.539202
 30
0.0
 10
70.278152
 20
181.030056
 30
0.0
 10
70.278152
 20
171.799549
 30
0.0
  0
SPLINE
  5
101
100
AcDbEntity
  8
Layer_1
 62
7
100
AcDbSpline
 70
8
 71
3
 72
8
 73
4
 74
0
 40
0
 40
0
 40
0
 40
0
 40
1
 40
1
 40
1
 40
1
 10
70.278152
 20
171.799549
 30
0.0
 10
70.278152
 20
162.496361
 30
0.0
 10
77.830937
 20
154.949140
 30
0.0
 10
87.134351
 20
154.949140
 30
0.0
  0
SPLINE
  5
102
100
AcDbEntity
  8
Layer_1
 62
7
100
AcDbSpline
 70
8
 71
3
 72
8
 73
4
 74
0
 40
0
 40
0
 40
0
 40
0
 40
1
 40
1
 40
1
 40
1
 10
87.134351
 20
154.949140
 30
0.0
 10
96.437767
 20
154.949140
 30
0.0
 10
103.984604
 20
162.496361
 30
0.0
 10
103.984602
 20
171.799549
 30
0.0
  0
SPLINE
  5
103
100
AcDbEntity
  8
Layer_1
 62
7
100
AcDbSpline
 70
8
 71
3
 72
8
 73
4
 74
0
 40
0
 40
0
 40
0
 40
0
 40
1
 40
1
 40
1
 40
1
 10
103.984602
 20
171.799549
 30
0.0
 10
103.984602
 20
171.872232
 30
0.0
 10
103.985934
 20
171.947233
 30
0.0
 10
103.984602
 20
172.019699
 30
0.0
  0
SPLINE
  5
104
100
AcDbEntity
  8
Layer_1
 62
7
100
AcDbSpline
 70
8
 71
3
 72
8
 73
4
 74
0
 40
0
 40
0
 40
0
 40
0
 40
1
 40
1
 40
1
 40
1
 10
103.984602
 20
185.300105
 30
0.0
 10
103.947686
 20
187.150058
 30
0.0
 10
102.442809
 20
188.641970
 30
0.0
 10
100.587182
 20
188.655907
 30
0.0
  0
LWPOLYLINE
  5
105
100
AcDbEntity
  8
Layer_1
 62
7
100
AcDbPolyline
 90
2
 70
1
 10
103.984602
 20
172.019699
 30
0.0
 10
103.984602
 20
185.300105
 30
0.0
  0
SPLINE
  5
106
100
AcDbEntity
  8
Layer_1
 62
7
100
AcDbSpline
 70
8
 71
3
 72
8
 73
4
 74
0
 40
0
 40
0
 40
0
 40
0
 40
1
 40
1
 40
1
 40
1
 10
87.057002
 20
188.655907
 30
0.0
 10
87.010214
 20
188.655907
 30
0.0
 10
86.961061
 20
188.656507
 30
0.0
 10
86.914203
 20
188.655907
 30
0.0
  0
LWPOLYLINE
  5
107
100
AcDbEntity
  8
Layer_1
 62
7
100
AcDbPolyline
 90
3
 70
1
 10
100.587182
 20
188.655907
 30
0.0
 10
87.134351
 20
188.655907
 30
0.0
 10
87.057002
 20
188.655907
 30
0.0
  0
SPLINE
  5
108
100
AcDbEntity
  8
Layer_1
 62
7
100
AcDbSpline
 70
8
 71
3
 72
8
 73
4
 74
0
 40
0
 40
0
 40
0
 40
0
 40
1
 40
1
 40
1
 40
1
 10
99.760138
 20
187.216006
 30
0.0
 10
100.171429
 20
187.216001
 30
0.0
 10
100.525575
 20
187.127717
 30
0.0
 10
100.801379
 20
186.936356
 30
0.0
  0
SPLINE
  5
109
100
AcDbEntity
  8
Layer_1
 62
7
100
AcDbSpline
 70
8
 71
3
 72
8
 73
4
 74
0
 40
0
 40
0
 40
0
 40
0
 40
1
 40
1
 40
1
 40
1
 10
100.801379
 20
186.936356
 30
0.0
 10
101.080447
 20
186.748411
 30
0.0
 10
101.241673
 20
186.445560
 30
0.0
 10
101.241675
 20
186.109306
 30
0.0
  0
SPLINE
  5
10a
100
AcDbEntity
  8
Layer_1
 62
7
100
AcDbSpline
 70
8
 71
3
 72
8
 73
4
 74
0
 40
0
 40
0
 40
0
 40
0
 40
1
 40
1
 40
1
 40
1
 10
101.241675
 20
186.109306
 30
0.0
 10
101.241673
 20
185.910357
 30
0.0
 10
101.188983
 20
185.710416
 30
0.0
 10
101.098877
 20
185.514305
 30
0.0
  0
SPLINE
  5
10b
100
AcDbEntity
  8
Layer_1
 62
7
100
AcDbSpline
 70
8
 71
3
 72
8
 73
4
 74
0
 40
0
 40
0
 40
0
 40
0
 40
1
 40
1
 40
1
 40
1
 10
101.098877
 20
185.514305
 30
0.0
 10
101.013792
 20
185.334133
 30
0.0
 10
100.919470
 20
185.179110
 30
0.0
 10
100.813280
 20
185.056155
 30
0.0
  0
SPLINE
  5
10c
100
AcDbEntity
  8
Layer_1
 62
7
100
AcDbSpline
 70
8
 71
3
 72
8
 73
4
 74
0
 40
0
 40
0
 40
0
 40
0
 40
1
 40
1
 40
1
 40
1
 10
100.813280
 20
185.056155
 30
0.0
 10
100.735526
 20
184.970220
 30
0.0
 10
100.653802
 20
184.882574
 30
0.0
 10
100.569332
 20
184.800305
 30
0.0
  0
SPLINE
  5
10d
100
AcDbEntity
  8
Layer_1
 62
7
100
AcDbSpline
 70
8
 71
3
 72
8
 73
4
 74
0
 40
0
 40
0
 40
0
 40
0
 40
1
 40
1
 40
1
 40
1
 10
100.569332
 20
184.800305
 30
0.0
 10
100.806299
 20
184.667249
 30
0.0
 10
101.006665
 20
184.499498
 30
0.0
 10
101.158377
 20
184.288605
 30
0.0
  0
LWPOLYLINE
  5
10e
100
AcDbEntity
  8
Layer_1
 62
7
100
AcDbPolyline
 90
2
 70
1
 10
86.914203
 20
188.655907
 30
0.0
 10
86.914203
 20
188.655907
 30
0.0
  0
SPLINE
  5
10f
100
AcDbEntity
  8
Layer_1
 62
7
100
AcDbSpline
 70
8
 71
3
 72
8
 73
4
 74
0
 40
0
 40
0
 40
0
 40
0
 40
1
 40
1
 40
1
 40
1
 10
101.164332
 20
184.288605
 30
0.0
 10
101.165093
 20
184.287311
 30
0.0
 10
101.163571
 20
184.278000
 30
0.0
 10
101.164332
 20
184.276704
 30
0.0
  0
SPLINE
  5
110
100
AcDbEntity
  8
Layer_1
 62
7
100
AcDbSpline
 70
8
 71
3
 72
8
 73
4
 74
0
 40
0
 40
0
 40
0
 40
0
 40
1
 40
1
 40
1
 40
1
 10
101.164332
 20
184.276704
 30
0.0
 10
101.343647
 20
184.035458
 30
0.0
 10
101.432077
 20
183.747522
 30
0.0
 10
101.432079
 20
183.437754
 30
0.0
  0
SPLINE
  5
111
100
AcDbEntity
  8
Layer_1
 62
7
100
AcDbSpline
 70
8
 71
3
 72
8
 73
4
 74
0
 40
0
 40
0
 40
0
 40
0
 40
1
 40
1
 40
1
 40
1
 10
101.432079
 20
183.437754
 30
0.0
 10
101.432077
 20
182.865520
 30
0.0
 10
101.194672
 20
182.383969
 30
0.0
 10
100.747835
 20
182.063303
 30
0.0
  0
SPLINE
  5
112
100
AcDbEntity
  8
Layer_1
 62
7
100
AcDbSpline
 70
8
 71
3
 72
8
 73
4
 74
0
 40
0
 40
0
 40
0
 40
0
 40
1
 40
1
 40
1
 40
1
 10
100.747835
 20
182.063303
 30
0.0
 10
100.317916
 20
181.751111
 30
0.0
 10
99.788643
 20
181.583198
 30
0.0
 10
99.183000
 20
181.563503
 30
0.0
  0
SPLINE
  5
113
100
AcDbEntity
  8
Layer_1
 62
7
100
AcDbSpline
 70
8
 71
3
 72
8
 73
4
 74
0
 40
0
 40
0
 40
0
 40
0
 40
1
 40
1
 40
1
 40
1
 10
99.183000
 20
181.563503
 30
0.0
 10
99.183000
 20
181.563503
 30
0.0
 10
99.177996
 20
181.563687
 30
0.0
 10
99.177045
 20
181.563503
 30
0.0
  0
SPLINE
  5
114
100
AcDbEntity
  8
Layer_1
 62
7
100
AcDbSpline
 70
8
 71
3
 72
8
 73
4
 74
0
 40
0
 40
0
 40
0
 40
0
 40
1
 40
1
 40
1
 40
1
 10
99.177045
 20
181.563503
 30
0.0
 10
99.027546
 20
181.563503
 30
0.0
 10
98.880108
 20
181.638982
 30
0.0
 10
98.778398
 20
181.747953
 30
0.0
  0
SPLINE
  5
115
100
AcDbEntity
  8
Layer_1
 62
7
100
AcDbSpline
 70
8
 71
3
 72
8
 73
4
 74
0
 40
0
 40
0
 40
0
 40
0
 40
1
 40
1
 40
1
 40
1
 10
98.778398
 20
181.747953
 30
0.0
 10
98.697967
 20
181.834567
 30
0.0
 10
98.623698
 20
181.928719
 30
0.0
 10
98.623698
 20
182.069253
 30
0.0
  0
SPLINE
  5
116
100
AcDbEntity
  8
Layer_1
 62
7
100
AcDbSpline
 70
8
 71
3
 72
8
 73
4
 74
0
 40
0
 40
0
 40
0
 40
0
 40
1
 40
1
 40
1
 40
1
 10
98.623698
 20
182.069253
 30
0.0
 10
98.623698
 20
182.133991
 30
0.0
 10
98.626343
 20
182.198803
 30
0.0
 10
98.641544
 20
182.259653
 30
0.0
  0
LWPOLYLINE
  5
117
100
AcDbEntity
  8
Layer_1
 62
7
100
AcDbPolyline
 90
2
 70
1
 10
101.158377
 20
184.288605
 30
0.0
 10
101.164332
 20
184.288605
 30
0.0
  0
SPLINE
  5
118
100
AcDbEntity
  8
Layer_1
 62
7
100
AcDbSpline
 70
8
 71
3
 72
8
 73
4
 74
0
 40
0
 40
0
 40
0
 40
0
 40
1
 40
1
 40
1
 40
1
 10
98.855744
 20
182.432203
 30
0.0
 10
99.378712
 20
182.449780
 30
0.0
 10
99.748213
 20
182.563590
 30
0.0
 10
99.968383
 20
182.735653
 30
0.0
  0
SPLINE
  5
119
100
AcDbEntity
  8
Layer_1
 62
7
100
AcDbSpline
 70
8
 71
3
 72
8
 73
4
 74
0
 40
0
 40
0
 40
0
 40
0
 40
1
 40
1
 40
1
 40
1
 10
99.968383
 20
182.735653
 30
0.0
 10
100.188556
 20
182.907715
 30
0.0
 10
100.289680
 20
183.135645
 30
0.0
 10
100.289680
 20
183.497253
 30
0.0
  0
SPLINE
  5
11a
100
AcDbEntity
  8
Layer_1
 62
7
100
AcDbSpline
 70
8
 71
3
 72
8
 73
4
 74
0
 40
0
 40
0
 40
0
 40
0
 40
1
 40
1
 40
1
 40
1
 10
100.289680
 20
183.497253
 30
0.0
 10
100.289678
 20
183.850635
 30
0.0
 10
100.149401
 20
184.059640
 30
0.0
 10
99.766086
 20
184.229103
 30
0.0
  0
SPLINE
  5
11b
100
AcDbEntity
  8
Layer_1
 62
7
100
AcDbSpline
 70
8
 71
3
 72
8
 73
4
 74
0
 40
0
 40
0
 40
0
 40
0
 40
1
 40
1
 40
1
 40
1
 10
99.766086
 20
184.229103
 30
0.0
 10
99.666573
 20
184.273881
 30
0.0
 10
99.589021
 20
184.314327
 30
0.0
 10
99.522138
 20
184.360003
 30
0.0
  0
SPLINE
  5
11c
100
AcDbEntity
  8
Layer_1
 62
7
100
AcDbSpline
 70
8
 71
3
 72
8
 73
4
 74
0
 40
0
 40
0
 40
0
 40
0
 40
1
 40
1
 40
1
 40
1
 10
99.522138
 20
184.360003
 30
0.0
 10
99.455254
 20
184.405679
 30
0.0
 10
99.366172
 20
184.444119
 30
0.0
 10
99.349589
 20
184.609903
 30
0.0
  0
LWPOLYLINE
  5
11d
100
AcDbEntity
  8
Layer_1
 62
7
100
AcDbPolyline
 90
3
 70
1
 10
98.641544
 20
182.259653
 30
0.0
 10
98.689145
 20
182.426253
 30
0.0
 10
98.855744
 20
182.432203
 30
0.0
  0
SPLINE
  5
11e
100
AcDbEntity
  8
Layer_1
 62
7
100
AcDbSpline
 70
8
 71
3
 72
8
 73
4
 74
0
 40
0
 40
0
 40
0
 40
0
 40
1
 40
1
 40
1
 40
1
 10
99.385285
 20
184.752704
 30
0.0
 10
99.441179
 20
184.839650
 30
0.0
 10
99.529788
 20
184.952291
 30
0.0
 10
99.670883
 20
185.121604
 30
0.0
  0
LWPOLYLINE
  5
11f
100
AcDbEntity
  8
Layer_1
 62
7
100
AcDbPolyline
 90
3
 70
1
 10
99.349589
 20
184.609903
 30
0.0
 10
99.343634
 20
184.687254
 30
0.0
 10
99.385285
 20
184.752704
 30
0.0
  0
SPLINE
  5
120
100
AcDbEntity
  8
Layer_1
 62
7
100
AcDbSpline
 70
8
 71
3
 72
8
 73
4
 74
0
 40
0
 40
0
 40
0
 40
0
 40
1
 40
1
 40
1
 40
1
 10
99.670883
 20
185.127553
 30
0.0
 10
99.806268
 20
185.284772
 30
0.0
 10
99.912476
 20
185.432641
 30
0.0
 10
99.986229
 20
185.567853
 30
0.0
  0
LWPOLYLINE
  5
121
100
AcDbEntity
  8
Layer_1
 62
7
100
AcDbPolyline
 90
2
 70
1
 10
99.670883
 20
185.121604
 30
0.0
 10
99.670883
 20
185.127553
 30
0.0
  0
SPLINE
  5
122
100
AcDbEntity
  8
Layer_1
 62
7
100
AcDbSpline
 70
8
 71
3
 72
8
 73
4
 74
0
 40
0
 40
0
 40
0
 40
0
 40
1
 40
1
 40
1
 40
1
 10
99.986229
 20
185.573803
 30
0.0
 10
100.055907
 20
185.694820
 30
0.0
 10
100.087375
 20
185.810222
 30
0.0
 10
100.087377
 20
185.942703
 30
0.0
  0
SPLINE
  5
123
100
AcDbEntity
  8
Layer_1
 62
7
100
AcDbSpline
 70
8
 71
3
 72
8
 73
4
 74
0
 40
0
 40
0
 40
0
 40
0
 40
1
 40
1
 40
1
 40
1
 10
100.087377
 20
185.942703
 30
0.0
 10
100.087375
 20
186.060834
 30
0.0
 10
100.057931
 20
186.126874
 30
0.0
 10
99.980279
 20
186.198553
 30
0.0
  0
SPLINE
  5
124
100
AcDbEntity
  8
Layer_1
 62
7
100
AcDbSpline
 70
8
 71
3
 72
8
 73
4
 74
0
 40
0
 40
0
 40
0
 40
0
 40
1
 40
1
 40
1
 40
1
 10
99.980279
 20
186.198553
 30
0.0
 10
99.913216
 20
186.260453
 30
0.0
 10
99.806622
 20
186.311600
 30
0.0
 10
99.611382
 20
186.311603
 30
0.0
  0
SPLINE
  5
125
100
AcDbEntity
  8
Layer_1
 62
7
100
AcDbSpline
 70
8
 71
3
 72
8
 73
4
 74
0
 40
0
 40
0
 40
0
 40
0
 40
1
 40
1
 40
1
 40
1
 10
99.611382
 20
186.311603
 30
0.0
 10
99.577200
 20
186.311602
 30
0.0
 10
99.450184
 20
186.290635
 30
0.0
 10
99.272236
 20
186.246153
 30
0.0
  0
SPLINE
  5
126
100
AcDbEntity
  8
Layer_1
 62
7
100
AcDbSpline
 70
8
 71
3
 72
8
 73
4
 74
0
 40
0
 40
0
 40
0
 40
0
 40
1
 40
1
 40
1
 40
1
 10
99.272236
 20
186.246153
 30
0.0
 10
99.178287
 20
186.222665
 30
0.0
 10
99.103425
 20
186.205057
 30
0.0
 10
99.046138
 20
186.192603
 30
0.0
  0
SPLINE
  5
127
100
AcDbEntity
  8
Layer_1
 62
7
100
AcDbSpline
 70
8
 71
3
 72
8
 73
4
 74
0
 40
0
 40
0
 40
0
 40
0
 40
1
 40
1
 40
1
 40
1
 10
99.046138
 20
186.192603
 30
0.0
 10
98.988850
 20
186.180149
 30
0.0
 10
98.974497
 20
186.168791
 30
0.0
 10
98.897389
 20
186.168803
 30
0.0
  0
SPLINE
  5
128
100
AcDbEntity
  8
Layer_1
 62
7
100
AcDbSpline
 70
8
 71
3
 72
8
 73
4
 74
0
 40
0
 40
0
 40
0
 40
0
 40
1
 40
1
 40
1
 40
1
 10
98.897389
 20
186.168803
 30
0.0
 10
98.755860
 20
186.168781
 30
0.0
 10
98.703326
 20
186.218935
 30
0.0
 10
98.629642
 20
186.269953
 30
0.0
  0
LWPOLYLINE
  5
129
100
AcDbEntity
  8
Layer_1
 62
7
100
AcDbPolyline
 90
2
 70
1
 10
99.986229
 20
185.567853
 30
0.0
 10
99.986229
 20
185.573803
 30
0.0
  0
SPLINE
  5
12a
100
AcDbEntity
  8
Layer_1
 62
7
100
AcDbSpline
 70
8
 71
3
 72
8
 73
4
 74
0
 40
0
 40
0
 40
0
 40
0
 40
1
 40
1
 40
1
 40
1
 10
98.617732
 20
186.281852
 30
0.0
 10
98.533497
 20
186.352038
 30
0.0
 10
98.451133
 20
186.453977
 30
0.0
 10
98.451133
 20
186.591252
 30
0.0
  0
SPLINE
  5
12b
100
AcDbEntity
  8
Layer_1
 62
7
100
AcDbSpline
 70
8
 71
3
 72
8
 73
4
 74
0
 40
0
 40
0
 40
0
 40
0
 40
1
 40
1
 40
1
 40
1
 10
98.451133
 20
186.591252
 30
0.0
 10
98.451133
 20
186.744326
 30
0.0
 10
98.548963
 20
186.839513
 30
0.0
 10
98.635582
 20
186.900652
 30
0.0
  0
SPLINE
  5
12c
100
AcDbEntity
  8
Layer_1
 62
7
100
AcDbSpline
 70
8
 71
3
 72
8
 73
4
 74
0
 40
0
 40
0
 40
0
 40
0
 40
1
 40
1
 40
1
 40
1
 10
98.635582
 20
186.900652
 30
0.0
 10
98.722198
 20
186.961791
 30
0.0
 10
98.822407
 20
187.013420
 30
0.0
 10
98.950929
 20
187.061302
 30
0.0
  0
SPLINE
  5
12d
100
AcDbEntity
  8
Layer_1
 62
7
100
AcDbSpline
 70
8
 71
3
 72
8
 73
4
 74
0
 40
0
 40
0
 40
0
 40
0
 40
1
 40
1
 40
1
 40
1
 10
98.950929
 20
187.061302
 30
0.0
 10
99.215975
 20
187.163235
 30
0.0
 10
99.486000
 20
187.215997
 30
0.0
 10
99.760121
 20
187.216002
 30
0.0
  0
LWPOLYLINE
  5
12e
100
AcDbEntity
  8
Layer_1
 62
7
100
AcDbPolyline
 90
3
 70
1
 10
98.629642
 20
186.269953
 30
0.0
 10
98.623687
 20
186.275903
 30
0.0
 10
98.617732
 20
186.281852
 30
0.0
  0
SPLINE
  5
12f
100
AcDbEntity
  8
Layer_1
 62
7
100
AcDbSpline
 70
8
 71
3
 72
8
 73
4
 74
0
 40
0
 40
0
 40
0
 40
0
 40
1
 40
1
 40
1
 40
1
 10
87.217651
 20
184.800305
 30
0.0
 10
90.355913
 20
184.773792
 30
0.0
 10
93.461908
 20
183.563949
 30
0.0
 10
95.815325
 20
181.492103
 30
0.0
  0
SPLINE
  5
130
100
AcDbEntity
  8
Layer_1
 62
7
100
AcDbSpline
 70
8
 71
3
 72
8
 73
4
 74
0
 40
0
 40
0
 40
0
 40
0
 40
1
 40
1
 40
1
 40
1
 10
95.815325
 20
181.492103
 30
0.0
 10
99.338109
 20
178.447487
 30
0.0
 10
100.821413
 20
173.390642
 30
0.0
 10
99.825589
 20
168.872146
 30
0.0
  0
SPLINE
  5
131
100
AcDbEntity
  8
Layer_1
 62
7
100
AcDbSpline
 70
8
 71
3
 72
8
 73
4
 74
0
 40
0
 40
0
 40
0
 40
0
 40
1
 40
1
 40
1
 40
1
 10
99.825589
 20
168.872146
 30
0.0
 10
98.955199
 20
164.664644
 30
0.0
 10
95.704288
 20
161.157052
 30
0.0
 10
91.715811
 20
159.655593
 30
0.0
  0
SPLINE
  5
132
100
AcDbEntity
  8
Layer_1
 62
7
100
AcDbSpline
 70
8
 71
3
 72
8
 73
4
 74
0
 40
0
 40
0
 40
0
 40
0
 40
1
 40
1
 40
1
 40
1
 10
91.715811
 20
159.655593
 30
0.0
 10
87.576750
 20
157.985235
 30
0.0
 10
82.601890
 20
158.784217
 30
0.0
 10
79.119773
 20
161.547694
 30
0.0
  0
SPLINE
  5
133
100
AcDbEntity
  8
Layer_1
 62
7
100
AcDbSpline
 70
8
 71
3
 72
8
 73
4
 74
0
 40
0
 40
0
 40
0
 40
0
 40
1
 40
1
 40
1
 40
1
 10
79.119773
 20
161.547694
 30
0.0
 10
75.254751
 20
164.501184
 30
0.0
 10
73.383322
 20
169.744323
 30
0.0
 10
74.365765
 20
174.494900
 30
0.0
  0
SPLINE
  5
134
100
AcDbEntity
  8
Layer_1
 62
7
100
AcDbSpline
 70
8
 71
3
 72
8
 73
4
 74
0
 40
0
 40
0
 40
0
 40
0
 40
1
 40
1
 40
1
 40
1
 10
74.365765
 20
174.494900
 30
0.0
 10
75.533216
 20
180.251157
 30
0.0
 10
81.028082
 20
184.766986
 30
0.0
 10
86.914203
 20
184.794355
 30
0.0
  0
SPLINE
  5
135
100
AcDbEntity
  8
Layer_1
 62
7
100
AcDbSpline
 70
8
 71
3
 72
8
 73
4
 74
0
 40
0
 40
0
 40
0
 40
0
 40
1
 40
1
 40
1
 40
1
 10
86.914203
 20
184.794355
 30
0.0
 10
87.015489
 20
184.795972
 30
0.0
 10
87.116418
 20
184.801158
 30
0.0
 10
87.217651
 20
184.800304
 30
0.0
  0
LWPOLYLINE
  5
136
100
AcDbEntity
  8
Layer_1
 62
7
100
AcDbPolyline
 90
2
 70
1
 10
99.760121
 20
187.216002
 30
0.0
 10
99.760138
 20
187.216006
 30
0.0
  0
SPLINE
  5
137
100
AcDbEntity
  8
Layer_1
 62
7
100
AcDbSpline
 70
8
 71
3
 72
8
 73
4
 74
0
 40
0
 40
0
 40
0
 40
0
 40
1
 40
1
 40
1
 40
1
 10
92.834401
 20
179.968903
 30
0.0
 10
91.656264
 20
179.968886
 30
0.0
 10
90.241867
 20
179.625194
 30
0.0
 10
88.586138
 20
178.939552
 30
0.0
  0
SPLINE
  5
138
100
AcDbEntity
  8
Layer_1
 62
7
100
AcDbSpline
 70
8
 71
3
 72
8
 73
4
 74
0
 40
0
 40
0
 40
0
 40
0
 40
1
 40
1
 40
1
 40
1
 10
88.586138
 20
178.939552
 30
0.0
 10
86.930391
 20
178.253879
 30
0.0
 10
86.004502
 20
177.910187
 30
0.0
 10
85.813463
 20
177.910202
 30
0.0
  0
SPLINE
  5
139
100
AcDbEntity
  8
Layer_1
 62
7
100
AcDbSpline
 70
8
 71
3
 72
8
 73
4
 74
0
 40
0
 40
0
 40
0
 40
0
 40
1
 40
1
 40
1
 40
1
 10
85.813463
 20
177.910202
 30
0.0
 10
85.781613
 20
178.087950
 30
0.0
 10
85.765856
 20
178.394776
 30
0.0
 10
85.765864
 20
178.826502
 30
0.0
  0
SPLINE
  5
13a
100
AcDbEntity
  8
Layer_1
 62
7
100
AcDbSpline
 70
8
 71
3
 72
8
 73
4
 74
0
 40
0
 40
0
 40
0
 40
0
 40
1
 40
1
 40
1
 40
1
 10
85.765864
 20
178.826502
 30
0.0
 10
85.765856
 20
179.385170
 30
0.0
 10
84.971984
 20
179.665436
 30
0.0
 10
83.379935
 20
179.665452
 30
0.0
  0
SPLINE
  5
13b
100
AcDbEntity
  8
Layer_1
 62
7
100
AcDbSpline
 70
8
 71
3
 72
8
 73
4
 74
0
 40
0
 40
0
 40
0
 40
0
 40
1
 40
1
 40
1
 40
1
 10
83.379935
 20
179.665452
 30
0.0
 10
82.647584
 20
179.665436
 30
0.0
 10
82.428588
 20
179.485155
 30
0.0
 10
82.237545
 20
178.850302
 30
0.0
  0
SPLINE
  5
13c
100
AcDbEntity
  8
Layer_1
 62
7
100
AcDbSpline
 70
8
 71
3
 72
8
 73
4
 74
0
 40
0
 40
0
 40
0
 40
0
 40
1
 40
1
 40
1
 40
1
 10
82.237545
 20
178.850302
 30
0.0
 10
82.085412
 20
178.336748
 30
0.0
 10
82.110019
 20
177.944230
 30
0.0
 10
82.088796
 20
177.475851
 30
0.0
  0
SPLINE
  5
13d
100
AcDbEntity
  8
Layer_1
 62
7
100
AcDbSpline
 70
8
 71
3
 72
8
 73
4
 74
0
 40
0
 40
0
 40
0
 40
0
 40
1
 40
1
 40
1
 40
1
 10
82.088796
 20
177.475851
 30
0.0
 10
82.056952
 20
176.341534
 30
0.0
 10
82.070943
 20
176.460532
 30
0.0
 10
82.070946
 20
175.952651
 30
0.0
  0
SPLINE
  5
13e
100
AcDbEntity
  8
Layer_1
 62
7
100
AcDbSpline
 70
8
 71
3
 72
8
 73
4
 74
0
 40
0
 40
0
 40
0
 40
0
 40
1
 40
1
 40
1
 40
1
 10
82.070946
 20
175.952651
 30
0.0
 10
82.070946
 20
175.944723
 30
0.0
 10
82.070934
 20
175.948107
 30
0.0
 10
82.070946
 20
175.940750
 30
0.0
  0
SPLINE
  5
13f
100
AcDbEntity
  8
Layer_1
 62
7
100
AcDbSpline
 70
8
 71
3
 72
8
 73
4
 74
0
 40
0
 40
0
 40
0
 40
0
 40
1
 40
1
 40
1
 40
1
 10
82.070946
 20
175.940750
 30
0.0
 10
82.069253
 20
175.934475
 30
0.0
 10
82.067250
 20
175.931323
 30
0.0
 10
82.064997
 20
175.916950
 30
0.0
  0
LWPOLYLINE
  5
140
100
AcDbEntity
  8
Layer_1
 62
7
100
AcDbPolyline
 90
2
 70
1
 10
87.217651
 20
184.800304
 30
0.0
 10
87.217651
 20
184.800305
 30
0.0
  0
SPLINE
  5
141
100
AcDbEntity
  8
Layer_1
 62
7
100
AcDbSpline
 70
8
 71
3
 72
8
 73
4
 74
0
 40
0
 40
0
 40
0
 40
0
 40
1
 40
1
 40
1
 40
1
 10
82.088797
 20
167.128796
 30
0.0
 10
82.089539
 20
164.736666
 30
0.0
 10
82.178415
 20
163.463566
 30
0.0
 10
82.558843
 20
163.261294
 30
0.0
  0
SPLINE
  5
142
100
AcDbEntity
  8
Layer_1
 62
7
100
AcDbSpline
 70
8
 71
3
 72
8
 73
4
 74
0
 40
0
 40
0
 40
0
 40
0
 40
1
 40
1
 40
1
 40
1
 10
82.558843
 20
163.261294
 30
0.0
 10
82.749885
 20
163.159715
 30
0.0
 10
82.709969
 20
163.053045
 30
0.0
 10
83.760732
 20
163.053045
 30
0.0
  0
SPLINE
  5
143
100
AcDbEntity
  8
Layer_1
 62
7
100
AcDbSpline
 70
8
 71
3
 72
8
 73
4
 74
0
 40
0
 40
0
 40
0
 40
0
 40
1
 40
1
 40
1
 40
1
 10
83.760732
 20
163.053045
 30
0.0
 10
84.843323
 20
163.053045
 30
0.0
 10
85.511127
 20
163.222713
 30
0.0
 10
85.765864
 20
163.552844
 30
0.0
  0
SPLINE
  5
144
100
AcDbEntity
  8
Layer_1
 62
7
100
AcDbSpline
 70
8
 71
3
 72
8
 73
4
 74
0
 40
0
 40
0
 40
0
 40
0
 40
1
 40
1
 40
1
 40
1
 10
85.765864
 20
163.552844
 30
0.0
 10
85.893220
 20
163.755999
 30
0.0
 10
85.956254
 20
163.956586
 30
0.0
 10
85.956262
 20
164.159744
 30
0.0
  0
SPLINE
  5
145
100
AcDbEntity
  8
Layer_1
 62
7
100
AcDbSpline
 70
8
 71
3
 72
8
 73
4
 74
0
 40
0
 40
0
 40
0
 40
0
 40
1
 40
1
 40
1
 40
1
 10
85.956262
 20
164.159744
 30
0.0
 10
85.988094
 20
164.362901
 30
0.0
 10
86.003853
 20
164.616608
 30
0.0
 10
86.003862
 20
164.921345
 30
0.0
  0
SPLINE
  5
146
100
AcDbEntity
  8
Layer_1
 62
7
100
AcDbSpline
 70
8
 71
3
 72
8
 73
4
 74
0
 40
0
 40
0
 40
0
 40
0
 40
1
 40
1
 40
1
 40
1
 10
86.003862
 20
164.921345
 30
0.0
 10
86.003853
 20
165.251474
 30
0.0
 10
86.003853
 20
165.468314
 30
0.0
 10
86.003862
 20
165.569895
 30
0.0
  0
LWPOLYLINE
  5
147
100
AcDbEntity
  8
Layer_1
 62
7
100
AcDbPolyline
 90
2
 70
1
 10
82.064997
 20
175.916950
 30
0.0
 10
82.088797
 20
167.128796
 30
0.0
  0
SPLINE
  5
148
100
AcDbEntity
  8
Layer_1
 62
7
100
AcDbSpline
 70
8
 71
3
 72
8
 73
4
 74
0
 40
0
 40
0
 40
0
 40
0
 40
1
 40
1
 40
1
 40
1
 10
85.908663
 20
175.089900
 30
0.0
 10
86.099701
 20
175.343835
 30
0.0
 10
86.452336
 20
175.550369
 30
0.0
 10
86.961803
 20
175.702750
 30
0.0
  0
SPLINE
  5
149
100
AcDbEntity
  8
Layer_1
 62
7
100
AcDbSpline
 70
8
 71
3
 72
8
 73
4
 74
0
 40
0
 40
0
 40
0
 40
0
 40
1
 40
1
 40
1
 40
1
 10
86.961803
 20
175.702750
 30
0.0
 10
87.216523
 20
175.778921
 30
0.0
 10
87.452900
 20
175.852653
 30
0.0
 10
87.675797
 20
175.928850
 30
0.0
  0
SPLINE
  5
14a
100
AcDbEntity
  8
Layer_1
 62
7
100
AcDbSpline
 70
8
 71
3
 72
8
 73
4
 74
0
 40
0
 40
0
 40
0
 40
0
 40
1
 40
1
 40
1
 40
1
 10
87.675797
 20
175.928850
 30
0.0
 10
87.930516
 20
176.005022
 30
0.0
 10
88.235878
 20
176.068448
 30
0.0
 10
88.586139
 20
176.119250
 30
0.0
  0
SPLINE
  5
14b
100
AcDbEntity
  8
Layer_1
 62
7
100
AcDbSpline
 70
8
 71
3
 72
8
 73
4
 74
0
 40
0
 40
0
 40
0
 40
0
 40
1
 40
1
 40
1
 40
1
 10
88.586139
 20
176.119250
 30
0.0
 10
88.968225
 20
176.195421
 30
0.0
 10
89.283387
 20
176.248543
 30
0.0
 10
89.538129
 20
176.273950
 30
0.0
  0
SPLINE
  5
14c
100
AcDbEntity
  8
Layer_1
 62
7
100
AcDbSpline
 70
8
 71
3
 72
8
 73
4
 74
0
 40
0
 40
0
 40
0
 40
0
 40
1
 40
1
 40
1
 40
1
 10
89.538129
 20
176.273950
 30
0.0
 10
89.792844
 20
176.324727
 30
0.0
 10
90.145482
 20
176.377847
 30
0.0
 10
90.591271
 20
176.428650
 30
0.0
  0
SPLINE
  5
14d
100
AcDbEntity
  8
Layer_1
 62
7
100
AcDbSpline
 70
8
 71
3
 72
8
 73
4
 74
0
 40
0
 40
0
 40
0
 40
0
 40
1
 40
1
 40
1
 40
1
 10
90.591271
 20
176.428650
 30
0.0
 10
91.037033
 20
176.504821
 30
0.0
 10
91.367963
 20
176.551992
 30
0.0
 10
91.590861
 20
176.577400
 30
0.0
  0
SPLINE
  5
14e
100
AcDbEntity
  8
Layer_1
 62
7
100
AcDbSpline
 70
8
 71
3
 72
8
 73
4
 74
0
 40
0
 40
0
 40
0
 40
0
 40
1
 40
1
 40
1
 40
1
 10
91.590861
 20
176.577400
 30
0.0
 10
91.845578
 20
176.602781
 30
0.0
 10
92.213971
 20
176.639647
 30
0.0
 10
92.691601
 20
176.690450
 30
0.0
  0
SPLINE
  5
14f
100
AcDbEntity
  8
Layer_1
 62
7
100
AcDbSpline
 70
8
 71
3
 72
8
 73
4
 74
0
 40
0
 40
0
 40
0
 40
0
 40
1
 40
1
 40
1
 40
1
 10
92.691601
 20
176.690450
 30
0.0
 10
93.201046
 20
176.741226
 30
0.0
 10
93.547735
 20
176.784042
 30
0.0
 10
93.738792
 20
176.809451
 30
0.0
  0
SPLINE
  5
150
100
AcDbEntity
  8
Layer_1
 62
7
100
AcDbSpline
 70
8
 71
3
 72
8
 73
4
 74
0
 40
0
 40
0
 40
0
 40
0
 40
1
 40
1
 40
1
 40
1
 10
93.738792
 20
176.809451
 30
0.0
 10
93.961669
 20
177.164963
 30
0.0
 10
94.077922
 20
177.682678
 30
0.0
 10
94.077939
 20
178.368351
 30
0.0
  0
SPLINE
  5
151
100
AcDbEntity
  8
Layer_1
 62
7
100
AcDbSpline
 70
8
 71
3
 72
8
 73
4
 74
0
 40
0
 40
0
 40
0
 40
0
 40
1
 40
1
 40
1
 40
1
 10
94.077939
 20
178.368351
 30
0.0
 10
94.077922
 20
179.053994
 30
0.0
 10
93.977422
 20
179.487672
 30
0.0
 10
93.786392
 20
179.665452
 30
0.0
  0
SPLINE
  5
152
100
AcDbEntity
  8
Layer_1
 62
7
100
AcDbSpline
 70
8
 71
3
 72
8
 73
4
 74
0
 40
0
 40
0
 40
0
 40
0
 40
1
 40
1
 40
1
 40
1
 10
93.786392
 20
179.665452
 30
0.0
 10
93.627170
 20
179.868593
 30
0.0
 10
93.312000
 20
179.968885
 30
0.0
 10
92.834401
 20
179.968902
 30
0.0
  0
LWPOLYLINE
  5
153
100
AcDbEntity
  8
Layer_1
 62
7
100
AcDbPolyline
 90
4
 70
1
 10
86.003862
 20
165.569895
 30
0.0
 10
86.003862
 20
166.141095
 30
0.0
 10
85.908663
 20
172.614698
 30
0.0
 10
85.908663
 20
175.089900
 30
0.0
  0
LWPOLYLINE
  5
154
100
AcDbEntity
  8
Layer_1
 62
7
100
AcDbPolyline
 90
2
 70
1
 10
92.834401
 20
179.968902
 30
0.0
 10
92.834401
 20
179.968903
 30
0.0
  0
ENDSEC
  0
SECTION
  2
OBJECTS
  0
DICTIONARY
  5
C
330
0
100
AcDbDictionary
  3
ACAD_GROUP
350
D
  3
ACAD_MLINESTYLE
350
17
  0
DICTIONARY
  5
D
330
C
100
AcDbDictionary
  0
DICTIONARY
  5
1A
330
C
100
AcDbDictionary
  0
DICTIONARY
  5
17
330
C
100
AcDbDictionary
  3
STANDARD
350
18
  0
DICTIONARY
  5
19
330
C
100
AcDbDictionary
  0
ENDSEC
  0
EOF
