  0
SECTION
  2
HEADER
  9
$ACADVER
  1
AC1009
  9
$EXTMIN
 10
0.0
 20
0.0
 30
0.0
  9
$EXTMAX
 10
1000.0
 20
1000.0
 30
0.0
  9
$FILLMODE
 70
 0
  9
$SPLFRAME
 70
 1
  0
ENDSEC
  0
SECTION
  2
TABLES
  0
TABLE
  2
LAYER
 70
1
  0
LAYER
  2
0
 70
     0
 62
     7
  6
CONTINUOUS
  0
ENDTAB
  0
ENDSEC
  0
SECTION
  2
ENTITIES
  0
POLYLINE
  8
0
 62
     0
 66
     1
 10
0
 20
0
 30
0.0
 70
     1
 40
0
 41
0
  0
VERTEX
  8
0
 10
3.65088
 20
1.13265
 30
0.0
 40
0
 41
0
  0
VERTEX
  8
0
 10
3.58762
 20
1.15419
 30
0.0
 40
0
 41
0
  0
VERTEX
  8
0
 10
3.52513
 20
1.16157
 30
0.0
 40
0
 41
0
  0
VERTEX
  8
0
 10
3.44287
 20
1.14665
 30
0.0
 40
0
 41
0
  0
VERTEX
  8
0
 10
3.38183
 20
1.10173
 30
0.0
 40
0
 41
0
  0
VERTEX
  8
0
 10
3.34451
 20
1.02962
 30
0.0
 40
0
 41
0
  0
VERTEX
  8
0
 10
3.33208
 20
0.931586
 30
0.0
 40
0
 41
0
  0
VERTEX
  8
0
 10
3.33208
 20
0.584526
 30
0.0
 40
0
 41
0
  0
VERTEX
  8
0
 10
3.09131
 20
0.584526
 30
0.0
 40
0
 41
0
  0
VERTEX
  8
0
 10
3.09131
 20
1.33778
 30
0.0
 40
0
 41
0
  0
VERTEX
  8
0
 10
3.33208
 20
1.33778
 30
0.0
 40
0
 41
0
  0
VERTEX
  8
0
 10
3.33208
 20
1.21403
 30
0.0
 40
0
 41
0
  0
VERTEX
  8
0
 10
3.38183
 20
1.27794
 30
0.0
 40
0
 41
0
  0
VERTEX
  8
0
 10
3.43838
 20
1.32162
 30
0.0
 40
0
 41
0
  0
VERTEX
  8
0
 10
3.50472
 20
1.34738
 30
0.0
 40
0
 41
0
  0
VERTEX
  8
0
 10
3.58296
 20
1.35596
 30
0.0
 40
0
 41
0
  0
VERTEX
  8
0
 10
3.60915
 20
1.3546
 30
0.0
 40
0
 41
0
  0
VERTEX
  8
0
 10
3.65018
 20
1.35053
 30
0.0
 40
0
 41
0
  0
VERTEX
  8
0
 10
3.65088
 20
1.13265
 30
0.0
 40
0
 41
0
  0
SEQEND
 8
0
  0
POLYLINE
  8
0
 62
     7
 66
     1
 10
0
 20
0
 30
0.0
 70
     1
 40
0
 41
0
  0
VERTEX
  8
0
 10
3.16851
 20
1.03814
 30
0.0
 40
0
 41
0
  0
VERTEX
  8
0
 10
3.20508
 20
1.03472
 30
0.0
 40
0
 41
0
  0
VERTEX
  8
0
 10
3.23113
 20
1.02431
 30
0.0
 40
0
 41
0
  0
VERTEX
  8
0
 10
3.24675
 20
1.00716
 30
0.0
 40
0
 41
0
  0
VERTEX
  8
0
 10
3.25196
 20
0.983018
 30
0.0
 40
0
 41
0
  0
VERTEX
  8
0
 10
3.24203
 20
0.952094
 30
0.0
 40
0
 41
0
  0
VERTEX
  8
0
 10
3.21272
 20
0.935331
 30
0.0
 40
0
 41
0
  0
VERTEX
  8
0
 10
3.24561
 20
0.915799
 30
0.0
 40
0
 41
0
  0
VERTEX
  8
0
 10
3.257
 20
0.880479
 30
0.0
 40
0
 41
0
  0
VERTEX
  8
0
 10
3.25088
 20
0.852431
 30
0.0
 40
0
 41
0
  0
VERTEX
  8
0
 10
3.23253
 20
0.831922
 30
0.0
 40
0
 41
0
  0
VERTEX
  8
0
 10
3.20247
 20
0.819553
 30
0.0
 40
0
 41
0
  0
VERTEX
  8
0
 10
3.16124
 20
0.815375
 30
0.0
 40
0
 41
0
  0
VERTEX
  8
0
 10
3.12799
 20
0.818033
 30
0.0
 40
0
 41
0
  0
VERTEX
  8
0
 10
3.09521
 20
0.82601
 30
0.0
 40
0
 41
0
  0
VERTEX
  8
0
 10
3.09521
 20
0.868653
 30
0.0
 40
0
 41
0
  0
VERTEX
  8
0
 10
3.12592
 20
0.856933
 30
0.0
 40
0
 41
0
  0
VERTEX
  8
0
 10
3.15619
 20
0.852974
 30
0.0
 40
0
 41
0
  0
VERTEX
  8
0
 10
3.18983
 20
0.860622
 30
0.0
 40
0
 41
0
  0
VERTEX
  8
0
 10
3.20161
 20
0.882542
 30
0.0
 40
0
 41
0
  0
VERTEX
  8
0
 10
3.18951
 20
0.904622
 30
0.0
 40
0
 41
0
  0
VERTEX
  8
0
 10
3.15414
 20
0.912272
 30
0.0
 40
0
 41
0
  0
VERTEX
  8
0
 10
3.132
 20
0.912272
 30
0.0
 40
0
 41
0
  0
VERTEX
  8
0
 10
3.132
 20
0.947971
 30
0.0
 40
0
 41
0
  0
VERTEX
  8
0
 10
3.15533
 20
0.947971
 30
0.0
 40
0
 41
0
  0
VERTEX
  8
0
 10
3.18636
 20
0.954428
 30
0.0
 40
0
 41
0
  0
VERTEX
  8
0
 10
3.19661
 20
0.974447
 30
0.0
 40
0
 41
0
  0
VERTEX
  8
0
 10
3.18668
 20
0.993544
 30
0.0
 40
0
 41
0
  0
VERTEX
  8
0
 10
3.15858
 20
1.00032
 30
0.0
 40
0
 41
0
  0
VERTEX
  8
0
 10
3.13163
 20
0.997342
 30
0.0
 40
0
 41
0
  0
VERTEX
  8
0
 10
3.10433
 20
0.988336
 30
0.0
 40
0
 41
0
  0
VERTEX
  8
0
 10
3.10433
 20
1.02897
 30
0.0
 40
0
 41
0
  0
VERTEX
  8
0
 10
3.13687
 20
1.03586
 30
0.0
 40
0
 41
0
  0
VERTEX
  8
0
 10
3.16851
 20
1.03814
 30
0.0
 40
0
 41
0
  0
SEQEND
 8
0
  0
POLYLINE
  8
0
 62
     0
 66
     1
 10
0
 20
0
 30
0.0
 70
     1
 40
0
 41
0
  0
VERTEX
  8
0
 10
0.893826
 20
1.81104
 30
0.0
 40
0
 41
0
  0
VERTEX
  8
0
 10
0.713433
 20
1.79069
 30
0.0
 40
0
 41
0
  0
VERTEX
  8
0
 10
0.545518
 20
1.73665
 30
0.0
 40
0
 41
0
  0
VERTEX
  8
0
 10
0.393718
 20
1.65256
 30
0.0
 40
0
 41
0
  0
VERTEX
  8
0
 10
0.261447
 20
1.54194
 30
0.0
 40
0
 41
0
  0
VERTEX
  8
0
 10
0.152399
 20
1.40836
 30
0.0
 40
0
 41
0
  0
VERTEX
  8
0
 10
0.0700956
 20
1.25537
 30
0.0
 40
0
 41
0
  0
VERTEX
  8
0
 10
0.0181207
 20
1.08659
 30
0.0
 40
0
 41
0
  0
VERTEX
  8
0
 10
0
 20
0.90549
 30
0.0
 40
0
 41
0
  0
VERTEX
  8
0
 10
0.0183919
 20
0.72309
 30
0.0
 40
0
 41
0
  0
VERTEX
  8
0
 10
0.0711806
 20
0.553168
 30
0.0
 40
0
 41
0
  0
VERTEX
  8
0
 10
0.154676
 20
0.39936
 30
0.0
 40
0
 41
0
  0
VERTEX
  8
0
 10
0.2653
 20
0.265354
 30
0.0
 40
0
 41
0
  0
VERTEX
  8
0
 10
0.399306
 20
0.154731
 30
0.0
 40
0
 41
0
  0
VERTEX
  8
0
 10
0.553114
 20
0.0712349
 30
0.0
 40
0
 41
0
  0
VERTEX
  8
0
 10
0.723036
 20
0.0184463
 30
0.0
 40
0
 41
0
  0
VERTEX
  8
0
 10
0.90549
 20
-0
 30
0.0
 40
0
 41
0
  0
VERTEX
  8
0
 10
1.08789
 20
0.0184463
 30
0.0
 40
0
 41
0
  0
VERTEX
  8
0
 10
1.25787
 20
0.0712349
 30
0.0
 40
0
 41
0
  0
VERTEX
  8
0
 10
1.41168
 20
0.154731
 30
0.0
 40
0
 41
0
  0
VERTEX
  8
0
 10
1.54568
 20
0.265354
 30
0.0
 40
0
 41
0
  0
VERTEX
  8
0
 10
1.65631
 20
0.39936
 30
0.0
 40
0
 41
0
  0
VERTEX
  8
0
 10
1.73981
 20
0.553168
 30
0.0
 40
0
 41
0
  0
VERTEX
  8
0
 10
1.79258
 20
0.72309
 30
0.0
 40
0
 41
0
  0
VERTEX
  8
0
 10
1.81104
 20
0.90549
 30
0.0
 40
0
 41
0
  0
VERTEX
  8
0
 10
1.81093
 20
0.917156
 30
0.0
 40
0
 41
0
  0
VERTEX
  8
0
 10
1.81093
 20
1.63075
 30
0.0
 40
0
 41
0
  0
VERTEX
  8
0
 10
1.80658
 20
1.66704
 30
0.0
 40
0
 41
0
  0
VERTEX
  8
0
 10
1.79557
 20
1.70079
 30
0.0
 40
0
 41
0
  0
VERTEX
  8
0
 10
1.77854
 20
1.73128
 30
0.0
 40
0
 41
0
  0
VERTEX
  8
0
 10
1.75624
 20
1.75792
 30
0.0
 40
0
 41
0
  0
VERTEX
  8
0
 10
1.72939
 20
1.77989
 30
0.0
 40
0
 41
0
  0
VERTEX
  8
0
 10
1.69863
 20
1.79656
 30
0.0
 40
0
 41
0
  0
VERTEX
  8
0
 10
1.66471
 20
1.80718
 30
0.0
 40
0
 41
0
  0
VERTEX
  8
0
 10
1.62836
 20
1.81104
 30
0.0
 40
0
 41
0
  0
VERTEX
  8
0
 10
0.901367
 20
1.81104
 30
0.0
 40
0
 41
0
  0
VERTEX
  8
0
 10
0.893826
 20
1.81104
 30
0.0
 40
0
 41
0
  0
SEQEND
 8
0
  0
POLYLINE
  8
0
 62
     7
 66
     1
 10
0
 20
0
 30
0.0
 70
     1
 40
0
 41
0
  0
VERTEX
  8
0
 10
0.910265
 20
1.60389
 30
0.0
 40
0
 41
0
  0
VERTEX
  8
0
 10
1.03575
 20
1.59119
 30
0.0
 40
0
 41
0
  0
VERTEX
  8
0
 10
1.1569
 20
1.55637
 30
0.0
 40
0
 41
0
  0
VERTEX
  8
0
 10
1.27018
 20
1.50092
 30
0.0
 40
0
 41
0
  0
VERTEX
  8
0
 10
1.37202
 20
1.42637
 30
0.0
 40
0
 41
0
  0
VERTEX
  8
0
 10
1.493
 20
1.28559
 30
0.0
 40
0
 41
0
  0
VERTEX
  8
0
 10
1.57081
 20
1.11702
 30
0.0
 40
0
 41
0
  0
VERTEX
  8
0
 10
1.60303
 20
0.933649
 30
0.0
 40
0
 41
0
  0
VERTEX
  8
0
 10
1.58757
 20
0.748264
 30
0.0
 40
0
 41
0
  0
VERTEX
  8
0
 10
1.52983
 20
0.58686
 30
0.0
 40
0
 41
0
  0
VERTEX
  8
0
 10
1.43246
 20
0.446072
 30
0.0
 40
0
 41
0
  0
VERTEX
  8
0
 10
1.3036
 20
0.332519
 30
0.0
 40
0
 41
0
  0
VERTEX
  8
0
 10
1.15169
 20
0.252875
 30
0.0
 40
0
 41
0
  0
VERTEX
  8
0
 10
0.978461
 20
0.210069
 30
0.0
 40
0
 41
0
  0
VERTEX
  8
0
 10
0.800131
 20
0.214464
 30
0.0
 40
0
 41
0
  0
VERTEX
  8
0
 10
0.628418
 20
0.263564
 30
0.0
 40
0
 41
0
  0
VERTEX
  8
0
 10
0.475097
 20
0.35471
 30
0.0
 40
0
 41
0
  0
VERTEX
  8
0
 10
0.340115
 20
0.494467
 30
0.0
 40
0
 41
0
  0
VERTEX
  8
0
 10
0.249729
 20
0.666287
 30
0.0
 40
0
 41
0
  0
VERTEX
  8
0
 10
0.208171
 20
0.856282
 30
0.0
 40
0
 41
0
  0
VERTEX
  8
0
 10
0.219781
 20
1.05029
 30
0.0
 40
0
 41
0
  0
VERTEX
  8
0
 10
0.253743
 20
1.16282
 30
0.0
 40
0
 41
0
  0
VERTEX
  8
0
 10
0.307075
 20
1.26704
 30
0.0
 40
0
 41
0
  0
VERTEX
  8
0
 10
0.377225
 20
1.36095
 30
0.0
 40
0
 41
0
  0
VERTEX
  8
0
 10
0.461751
 20
1.44249
 30
0.0
 40
0
 41
0
  0
VERTEX
  8
0
 10
0.55816
 20
1.5096
 30
0.0
 40
0
 41
0
  0
VERTEX
  8
0
 10
0.663954
 20
1.56022
 30
0.0
 40
0
 41
0
  0
VERTEX
  8
0
 10
0.776693
 20
1.59229
 30
0.0
 40
0
 41
0
  0
VERTEX
  8
0
 10
0.893935
 20
1.60379
 30
0.0
 40
0
 41
0
  0
VERTEX
  8
0
 10
0.910265
 20
1.60389
 30
0.0
 40
0
 41
0
  0
SEQEND
 8
0
  0
POLYLINE
  8
0
 62
     0
 66
     1
 10
0
 20
0
 30
0.0
 40
0
 41
0
  0
VERTEX
  8
0
 10
0.636501
 20
0.656413
 30
0.0
 40
0
 41
0
  0
VERTEX
  8
0
 10
0.635308
 20
1.12874
 30
0.0
 40
0
 41
0
  0
VERTEX
  8
0
 10
0.636014
 20
1.12983
 30
0.0
 40
0
 41
0
  0
VERTEX
  8
0
 10
0.636068
 20
1.12348
 30
0.0
 40
0
 41
0
  0
VERTEX
  8
0
 10
0.635742
 20
1.12028
 30
0.0
 40
0
 41
0
  0
VERTEX
  8
0
 10
0.635579
 20
1.13048
 30
0.0
 40
0
 41
0
  0
VERTEX
  8
0
 10
0.635471
 20
1.14621
 30
0.0
 40
0
 41
0
  0
VERTEX
  8
0
 10
0.635471
 20
1.1588
 30
0.0
 40
0
 41
0
  0
VERTEX
  8
0
 10
0.635796
 20
1.17763
 30
0.0
 40
0
 41
0
  0
VERTEX
  8
0
 10
0.636719
 20
1.21229
 30
0.0
 40
0
 41
0
  0
VERTEX
  8
0
 10
0.638021
 20
1.24837
 30
0.0
 40
0
 41
0
  0
VERTEX
  8
0
 10
0.644586
 20
1.28624
 30
0.0
 40
0
 41
0
  0
VERTEX
  8
0
 10
0.65294
 20
1.30751
 30
0.0
 40
0
 41
0
  0
VERTEX
  8
0
 10
0.664279
 20
1.32091
 30
0.0
 40
0
 41
0
  0
VERTEX
  8
0
 10
0.681044
 20
1.32796
 30
0.0
 40
0
 41
0
  0
VERTEX
  8
0
 10
0.705783
 20
1.32997
 30
0.0
 40
0
 41
0
  0
VERTEX
  8
0
 10
0.761882
 20
1.3272
 30
0.0
 40
0
 41
0
  0
VERTEX
  8
0
 10
0.801975
 20
1.31874
 30
0.0
 40
0
 41
0
  0
VERTEX
  8
0
 10
0.826064
 20
1.30469
 30
0.0
 40
0
 41
0
  0
VERTEX
  8
0
 10
0.834093
 20
1.28494
 30
0.0
 40
0
 41
0
  0
VERTEX
  8
0
 10
0.836643
 20
1.23584
 30
0.0
 40
0
 41
0
  0
VERTEX
  8
0
 10
0.851671
 20
1.23931
 30
0.0
 40
0
 41
0
  0
VERTEX
  8
0
 10
0.881511
 20
1.24968
 30
0.0
 40
0
 41
0
  0
VERTEX
  8
0
 10
0.926107
 20
1.26693
 30
0.0
 40
0
 41
0
  0
VERTEX
  8
0
 10
0.98546
 20
1.29107
 30
0.0
 40
0
 41
0
  0
VERTEX
  8
0
 10
1.10927
 20
1.33257
 30
0.0
 40
0
 41
0
  0
VERTEX
  8
0
 10
1.21387
 20
1.34635
 30
0.0
 40
0
 41
0
  0
VERTEX
  8
0
 10
1.24593
 20
1.34228
 30
0.0
 40
0
 41
0
  0
VERTEX
  8
0
 10
1.26519
 20
1.32997
 30
0.0
 40
0
 41
0
  0
VERTEX
  8
0
 10
1.27669
 20
1.30545
 30
0.0
 40
0
 41
0
  0
VERTEX
  8
0
 10
1.2806
 20
1.26042
 30
0.0
 40
0
 41
0
  0
VERTEX
  8
0
 10
1.2761
 20
1.21181
 30
0.0
 40
0
 41
0
  0
VERTEX
  8
0
 10
1.26264
 20
1.17649
 30
0.0
 40
0
 41
0
  0
VERTEX
  8
0
 10
1.24083
 20
1.17394
 30
0.0
 40
0
 41
0
  0
VERTEX
  8
0
 10
1.20616
 20
1.17036
 30
0.0
 40
0
 41
0
  0
VERTEX
  8
0
 10
1.14714
 20
1.16417
 30
0.0
 40
0
 41
0
  0
VERTEX
  8
0
 10
1.09326
 20
1.15603
 30
0.0
 40
0
 41
0
  0
VERTEX
  8
0
 10
1.03678
 20
1.14784
 30
0.0
 40
0
 41
0
  0
VERTEX
  8
0
 10
0.98546
 20
1.13965
 30
0.0
 40
0
 41
0
  0
VERTEX
  8
0
 10
0.93674
 20
1.12939
 30
0.0
 40
0
 41
0
  0
VERTEX
  8
0
 10
0.898221
 20
1.11713
 30
0.0
 40
0
 41
0
  0
VERTEX
  8
0
 10
0.863553
 20
1.10281
 30
0.0
 40
0
 41
0
  0
VERTEX
  8
0
 10
0.841797
 20
1.08436
 30
0.0
 40
0
 41
0
  0
VERTEX
  8
0
 10
0.841797
 20
0.951335
 30
0.0
 40
0
 41
0
  0
VERTEX
  8
0
 10
0.846897
 20
0.603407
 30
0.0
 40
0
 41
0
  0
VERTEX
  8
0
 10
0.846897
 20
0.5727
 30
0.0
 40
0
 41
0
  0
VERTEX
  8
0
 10
0.846897
 20
0.537924
 30
0.0
 40
0
 41
0
  0
VERTEX
  8
0
 10
0.844347
 20
0.496962
 30
0.0
 40
0
 41
0
  0
VERTEX
  8
0
 10
0.834093
 20
0.464247
 30
0.0
 40
0
 41
0
  0
VERTEX
  8
0
 10
0.796875
 20
0.444282
 30
0.0
 40
0
 41
0
  0
VERTEX
  8
0
 10
0.726292
 20
0.437608
 30
0.0
 40
0
 41
0
  0
VERTEX
  8
0
 10
0.693847
 20
0.438585
 30
0.0
 40
0
 41
0
  0
VERTEX
  8
0
 10
0.676704
 20
0.441135
 30
0.0
 40
0
 41
0
  0
VERTEX
  8
0
 10
0.66824
 20
0.444661
 30
0.0
 40
0
 41
0
  0
VERTEX
  8
0
 10
0.661783
 20
0.448676
 30
0.0
 40
0
 41
0
  0
VERTEX
  8
0
 10
0.649197
 20
0.467774
 30
0.0
 40
0
 41
0
  0
VERTEX
  8
0
 10
0.641547
 20
0.508897
 30
0.0
 40
0
 41
0
  0
VERTEX
  8
0
 10
0.63775
 20
0.572265
 30
0.0
 40
0
 41
0
  0
VERTEX
  8
0
 10
0.636719
 20
0.658094
 30
0.0
 40
0
 41
0
  0
SEQEND
 8
0
  0
POLYLINE
  8
0
 62
     0
 66
     1
 10
0
 20
0
 30
0.0
 40
2.8471
 41
2.8471
  0
VERTEX
  8
0
 10
0.636501
 20
0.656413
 30
0.0
 40
0.0395431
 41
0.0395431
  0
VERTEX
  8
0
 10
0.635308
 20
1.12874
 30
0.0
 40
0.0395431
 41
0.0395431
  0
VERTEX
  8
0
 10
0.636014
 20
1.12983
 30
0.0
 40
0.0395431
 41
0.0395431
  0
VERTEX
  8
0
 10
0.636068
 20
1.12348
 30
0.0
 40
0.0395431
 41
0.0395431
  0
VERTEX
  8
0
 10
0.635742
 20
1.12028
 30
0.0
 40
0.0395431
 41
0.0395431
  0
VERTEX
  8
0
 10
0.635579
 20
1.13048
 30
0.0
 40
0.0395431
 41
0.0395431
  0
VERTEX
  8
0
 10
0.635471
 20
1.14621
 30
0.0
 40
0.0395431
 41
0.0395431
  0
VERTEX
  8
0
 10
0.635471
 20
1.1588
 30
0.0
 40
0.0395431
 41
0.0395431
  0
VERTEX
  8
0
 10
0.635796
 20
1.17763
 30
0.0
 40
0.0395431
 41
0.0395431
  0
VERTEX
  8
0
 10
0.636719
 20
1.21229
 30
0.0
 40
0.0395431
 41
0.0395431
  0
VERTEX
  8
0
 10
0.638021
 20
1.24837
 30
0.0
 40
0.0395431
 41
0.0395431
  0
VERTEX
  8
0
 10
0.644586
 20
1.28624
 30
0.0
 40
0.0395431
 41
0.0395431
  0
VERTEX
  8
0
 10
0.65294
 20
1.30751
 30
0.0
 40
0.0395431
 41
0.0395431
  0
VERTEX
  8
0
 10
0.664279
 20
1.32091
 30
0.0
 40
0.0395431
 41
0.0395431
  0
VERTEX
  8
0
 10
0.681044
 20
1.32796
 30
0.0
 40
0.0395431
 41
0.0395431
  0
VERTEX
  8
0
 10
0.705783
 20
1.32997
 30
0.0
 40
0.0395431
 41
0.0395431
  0
VERTEX
  8
0
 10
0.761882
 20
1.3272
 30
0.0
 40
0.0395431
 41
0.0395431
  0
VERTEX
  8
0
 10
0.801975
 20
1.31874
 30
0.0
 40
0.0395431
 41
0.0395431
  0
VERTEX
  8
0
 10
0.826064
 20
1.30469
 30
0.0
 40
0.0395431
 41
0.0395431
  0
VERTEX
  8
0
 10
0.834093
 20
1.28494
 30
0.0
 40
0.0395431
 41
0.0395431
  0
VERTEX
  8
0
 10
0.836643
 20
1.23584
 30
0.0
 40
0.0395431
 41
0.0395431
  0
VERTEX
  8
0
 10
0.851671
 20
1.23931
 30
0.0
 40
0.0395431
 41
0.0395431
  0
VERTEX
  8
0
 10
0.881511
 20
1.24968
 30
0.0
 40
0.0395431
 41
0.0395431
  0
VERTEX
  8
0
 10
0.926107
 20
1.26693
 30
0.0
 40
0.0395431
 41
0.0395431
  0
VERTEX
  8
0
 10
0.98546
 20
1.29107
 30
0.0
 40
0.0395431
 41
0.0395431
  0
VERTEX
  8
0
 10
1.10927
 20
1.33257
 30
0.0
 40
0.0395431
 41
0.0395431
  0
VERTEX
  8
0
 10
1.21387
 20
1.34635
 30
0.0
 40
0.0395431
 41
0.0395431
  0
VERTEX
  8
0
 10
1.24593
 20
1.34228
 30
0.0
 40
0.0395431
 41
0.0395431
  0
VERTEX
  8
0
 10
1.26519
 20
1.32997
 30
0.0
 40
0.0395431
 41
0.0395431
  0
VERTEX
  8
0
 10
1.27669
 20
1.30545
 30
0.0
 40
0.0395431
 41
0.0395431
  0
VERTEX
  8
0
 10
1.2806
 20
1.26042
 30
0.0
 40
0.0395431
 41
0.0395431
  0
VERTEX
  8
0
 10
1.2761
 20
1.21181
 30
0.0
 40
0.0395431
 41
0.0395431
  0
VERTEX
  8
0
 10
1.26264
 20
1.17649
 30
0.0
 40
0.0395431
 41
0.0395431
  0
VERTEX
  8
0
 10
1.24083
 20
1.17394
 30
0.0
 40
0.0395431
 41
0.0395431
  0
VERTEX
  8
0
 10
1.20616
 20
1.17036
 30
0.0
 40
0.0395431
 41
0.0395431
  0
VERTEX
  8
0
 10
1.14714
 20
1.16417
 30
0.0
 40
0.0395431
 41
0.0395431
  0
VERTEX
  8
0
 10
1.09326
 20
1.15603
 30
0.0
 40
0.0395431
 41
0.0395431
  0
VERTEX
  8
0
 10
1.03678
 20
1.14784
 30
0.0
 40
0.0395431
 41
0.0395431
  0
VERTEX
  8
0
 10
0.98546
 20
1.13965
 30
0.0
 40
0.0395431
 41
0.0395431
  0
VERTEX
  8
0
 10
0.93674
 20
1.12939
 30
0.0
 40
0.0395431
 41
0.0395431
  0
VERTEX
  8
0
 10
0.898221
 20
1.11713
 30
0.0
 40
0.0395431
 41
0.0395431
  0
VERTEX
  8
0
 10
0.863553
 20
1.10281
 30
0.0
 40
0.0395431
 41
0.0395431
  0
VERTEX
  8
0
 10
0.841797
 20
1.08436
 30
0.0
 40
0.0395431
 41
0.0395431
  0
VERTEX
  8
0
 10
0.841797
 20
0.951335
 30
0.0
 40
0.0395431
 41
0.0395431
  0
VERTEX
  8
0
 10
0.846897
 20
0.603407
 30
0.0
 40
0.0395431
 41
0.0395431
  0
VERTEX
  8
0
 10
0.846897
 20
0.5727
 30
0.0
 40
0.0395431
 41
0.0395431
  0
VERTEX
  8
0
 10
0.846897
 20
0.537924
 30
0.0
 40
0.0395431
 41
0.0395431
  0
VERTEX
  8
0
 10
0.844347
 20
0.496962
 30
0.0
 40
0.0395431
 41
0.0395431
  0
VERTEX
  8
0
 10
0.834093
 20
0.464247
 30
0.0
 40
0.0395431
 41
0.0395431
  0
VERTEX
  8
0
 10
0.796875
 20
0.444282
 30
0.0
 40
0.0395431
 41
0.0395431
  0
VERTEX
  8
0
 10
0.726292
 20
0.437608
 30
0.0
 40
0.0395431
 41
0.0395431
  0
VERTEX
  8
0
 10
0.693847
 20
0.438585
 30
0.0
 40
0.0395431
 41
0.0395431
  0
VERTEX
  8
0
 10
0.676704
 20
0.441135
 30
0.0
 40
0.0395431
 41
0.0395431
  0
VERTEX
  8
0
 10
0.66824
 20
0.444661
 30
0.0
 40
0.0395431
 41
0.0395431
  0
VERTEX
  8
0
 10
0.661783
 20
0.448676
 30
0.0
 40
0.0395431
 41
0.0395431
  0
VERTEX
  8
0
 10
0.649197
 20
0.467774
 30
0.0
 40
0.0395431
 41
0.0395431
  0
VERTEX
  8
0
 10
0.641547
 20
0.508897
 30
0.0
 40
0.0395431
 41
0.0395431
  0
VERTEX
  8
0
 10
0.63775
 20
0.572265
 30
0.0
 40
0.0395431
 41
0.0395431
  0
VERTEX
  8
0
 10
0.636719
 20
0.658094
 30
0.0
 40
0.0395431
 41
0.0395431
  0
SEQEND
 8
0
  0
TEXT
  8
0
 62
     7
 10
1.49874
 20
1.43089
 30
0
 40
0.373343
  1
3
 50
0
  0
POLYLINE
  8
0
 62
     7
 66
     1
 10
0
 20
0
 30
0.0
 70
     1
 40
1.75932
 41
1.75932
  0
VERTEX
  8
0
 10
1.65087
 20
1.57824
 30
0.0
 40
0.024435
 41
0.024435
  0
VERTEX
  8
0
 10
1.69233
 20
1.55458
 30
0.0
 40
0.024435
 41
0.024435
  0
VERTEX
  8
0
 10
1.70731
 20
1.51031
 30
0.0
 40
0.024435
 41
0.024435
  0
VERTEX
  8
0
 10
1.70031
 20
1.4745
 30
0.0
 40
0.024435
 41
0.024435
  0
VERTEX
  8
0
 10
1.67953
 20
1.44781
 30
0.0
 40
0.024435
 41
0.024435
  0
VERTEX
  8
0
 10
1.64578
 20
1.43121
 30
0.0
 40
0.024435
 41
0.024435
  0
VERTEX
  8
0
 10
1.60032
 20
1.42567
 30
0.0
 40
0.024435
 41
0.024435
  0
VERTEX
  8
0
 10
1.56494
 20
1.42914
 30
0.0
 40
0.024435
 41
0.024435
  0
VERTEX
  8
0
 10
1.5274
 20
1.43912
 30
0.0
 40
0.024435
 41
0.024435
  0
VERTEX
  8
0
 10
1.5274
 20
1.47493
 30
0.0
 40
0.024435
 41
0.024435
  0
VERTEX
  8
0
 10
1.56104
 20
1.46126
 30
0.0
 40
0.024435
 41
0.024435
  0
VERTEX
  8
0
 10
1.59924
 20
1.45671
 30
0.0
 40
0.024435
 41
0.024435
  0
VERTEX
  8
0
 10
1.62989
 20
1.46012
 30
0.0
 40
0.024435
 41
0.024435
  0
VERTEX
  8
0
 10
1.65218
 20
1.47037
 30
0.0
 40
0.024435
 41
0.024435
  0
VERTEX
  8
0
 10
1.66581
 20
1.48731
 30
0.0
 40
0.024435
 41
0.024435
  0
VERTEX
  8
0
 10
1.67042
 20
1.51031
 30
0.0
 40
0.024435
 41
0.024435
  0
VERTEX
  8
0
 10
1.66612
 20
1.5319
 30
0.0
 40
0.024435
 41
0.024435
  0
VERTEX
  8
0
 10
1.65349
 20
1.54807
 30
0.0
 40
0.024435
 41
0.024435
  0
VERTEX
  8
0
 10
1.60639
 20
1.56174
 30
0.0
 40
0.024435
 41
0.024435
  0
VERTEX
  8
0
 10
1.57449
 20
1.56174
 30
0.0
 40
0.024435
 41
0.024435
  0
VERTEX
  8
0
 10
1.57449
 20
1.59213
 30
0.0
 40
0.024435
 41
0.024435
  0
VERTEX
  8
0
 10
1.60792
 20
1.59213
 30
0.0
 40
0.024435
 41
0.024435
  0
VERTEX
  8
0
 10
1.64958
 20
1.60297
 30
0.0
 40
0.024435
 41
0.024435
  0
VERTEX
  8
0
 10
1.66411
 20
1.63444
 30
0.0
 40
0.024435
 41
0.024435
  0
VERTEX
  8
0
 10
1.64914
 20
1.66678
 30
0.0
 40
0.024435
 41
0.024435
  0
VERTEX
  8
0
 10
1.60639
 20
1.67806
 30
0.0
 40
0.024435
 41
0.024435
  0
VERTEX
  8
0
 10
1.57383
 20
1.67481
 30
0.0
 40
0.024435
 41
0.024435
  0
VERTEX
  8
0
 10
1.53564
 20
1.66461
 30
0.0
 40
0.024435
 41
0.024435
  0
VERTEX
  8
0
 10
1.53564
 20
1.6976
 30
0.0
 40
0.024435
 41
0.024435
  0
VERTEX
  8
0
 10
1.57493
 20
1.70628
 30
0.0
 40
0.024435
 41
0.024435
  0
VERTEX
  8
0
 10
1.60965
 20
1.70931
 30
0.0
 40
0.024435
 41
0.024435
  0
VERTEX
  8
0
 10
1.64729
 20
1.70449
 30
0.0
 40
0.024435
 41
0.024435
  0
VERTEX
  8
0
 10
1.67626
 20
1.69
 30
0.0
 40
0.024435
 41
0.024435
  0
VERTEX
  8
0
 10
1.69476
 20
1.66754
 30
0.0
 40
0.024435
 41
0.024435
  0
VERTEX
  8
0
 10
1.70101
 20
1.63835
 30
0.0
 40
0.024435
 41
0.024435
  0
VERTEX
  8
0
 10
1.68799
 20
1.59993
 30
0.0
 40
0.024435
 41
0.024435
  0
VERTEX
  8
0
 10
1.65087
 20
1.57824
 30
0.0
 40
0.024435
 41
0.024435
  0
SEQEND
 8
0
  0
ENDSEC
  0
EOF
