<?xml version="1.0" encoding="UTF-8" standalone="no"?>
<!-- Created with Inkscape (http://www.inkscape.org/) -->

<svg
   xmlns:dc="http://purl.org/dc/elements/1.1/"
   xmlns:cc="http://creativecommons.org/ns#"
   xmlns:rdf="http://www.w3.org/1999/02/22-rdf-syntax-ns#"
   xmlns:svg="http://www.w3.org/2000/svg"
   xmlns="http://www.w3.org/2000/svg"
   xmlns:sodipodi="http://sodipodi.sourceforge.net/DTD/sodipodi-0.dtd"
   xmlns:inkscape="http://www.inkscape.org/namespaces/inkscape"
   version="1.0"
   width="79.865997"
   height="79.867126"
   id="svg2"
   sodipodi:version="0.32"
   inkscape:version="0.48.5 r10040"
   sodipodi:docname="logo-inverted.svg"
   inkscape:output_extension="org.inkscape.output.svg.inkscape">
  <metadata
     id="metadata7">
    <rdf:RDF>
      <cc:Work
         rdf:about="">
        <dc:format>image/svg+xml</dc:format>
        <dc:type
           rdf:resource="http://purl.org/dc/dcmitype/StillImage" />
      </cc:Work>
    </rdf:RDF>
  </metadata>
  <sodipodi:namedview
     inkscape:window-height="998"
     inkscape:window-width="1400"
     inkscape:pageshadow="2"
     inkscape:pageopacity="1"
     guidetolerance="10.0"
     gridtolerance="10.0"
     objecttolerance="10.0"
     borderopacity="1.0"
     bordercolor="#666666"
     pagecolor="#000000"
     id="base"
     showgrid="false"
     inkscape:zoom="9.8288249"
     inkscape:cx="39.932999"
     inkscape:cy="39.933563"
     inkscape:window-x="0"
     inkscape:window-y="28"
     inkscape:current-layer="svg2"
     showborder="false"
     inkscape:showpageshadow="false"
     inkscape:window-maximized="1" />
  <defs
     id="defs4">
    <inkscape:perspective
       sodipodi:type="inkscape:persp3d"
       inkscape:vp_x="0 : 318.9006 : 1"
       inkscape:vp_y="0 : 1000 : 0"
       inkscape:vp_z="637.79529 : 318.9006 : 1"
       inkscape:persp3d-origin="318.89764 : 212.6004 : 1"
       id="perspective9" />
  </defs>
  <path
     id="path3021"
     d="M 39.515239,3.9597566 C 19.930462,4.2081122 4.112504,20.181309 4.112504,39.824667 c 0,19.798024 16.066882,35.864906 35.864905,35.864906 19.798022,0 35.864899,-16.066882 35.864895,-35.864906 0,-0.15468 -0.0018,-0.30796 -0.0044,-0.462174 l 0,-28.261728 C 75.759331,7.1639018 72.556308,3.9894137 68.607466,3.9597566 l -28.630057,0 c -0.05466,0 -0.10891,0 -0.163324,0 -0.09957,0 -0.199131,-0.00132 -0.298846,0 z"
     style="fill:none;fill-opacity:1;stroke:none;stroke-opacity:1"
     inkscape:connector-curvature="0" />
  <path
     style="fill:#ffffff;stroke:none;stroke-width:0.10000000000000001;stroke-linejoin:round;stroke-miterlimit:4;stroke-opacity:1;stroke-dasharray:none;fill-opacity:1"
     d="M 39.40625 0 C 17.600005 0.2765216 0 18.065924 0 39.9375 C 0 61.981279 17.893822 79.875 39.9375 79.875 C 61.981182 79.875001 79.875 61.98129 79.875 39.9375 C 79.875003 39.765282 79.8772 39.577956 79.875 39.40625 L 79.875 9.875 C 80.091715 5.3898132 75.296432 -0.06873136 70.1875 0 L 39.9375 0 C 39.876641 0 39.810585 0.0002478 39.75 0 C 39.639139 -0.00047369999 39.517275 -0.00141 39.40625 0 z M 39.46875 4.5 C 39.56726 4.49875 39.682885 4.4995802 39.78125 4.5 C 39.83501 4.50022 39.8835 4.5000002 39.9375 4.5 L 68.21875 4.5 C 72.120042 4.52929 75.296456 7.6730302 75.375 11.5625 L 75.375 39.46875 C 75.3769 39.6211 75.375 39.784691 75.375 39.9375 C 75.375001 59.49715 59.497146 75.375004 39.9375 75.375 C 20.377857 75.375 4.5 59.497141 4.5 39.9375 C 4.5 20.53066 20.119784 4.7453602 39.46875 4.5 z M 66.84375 7.03125 C 66.260409 7.0312632 65.689026 7.1268251 65.125 7.34375 C 64.851498 7.4456465 64.653074 7.55739 64.46875 7.6875 C 64.284427 7.8176101 64.0625 8.0179928 64.0625 8.34375 C 64.0625 8.6358848 64.226996 8.8506363 64.40625 9 L 64.4375 9.03125 C 64.594305 9.1398181 64.698822 9.2500484 65 9.25 C 65.164089 9.2500264 65.190588 9.213993 65.3125 9.1875 C 65.434411 9.161007 65.612575 9.1437344 65.8125 9.09375 C 66.191177 8.999089 66.458513 8.9375044 66.53125 8.9375 C 66.946731 8.9375088 67.169786 9.0557704 67.3125 9.1875 C 67.477746 9.340041 67.562496 9.4673535 67.5625 9.71875 C 67.562496 10.000679 67.492031 10.273714 67.34375 10.53125 C 67.1868 10.818993 66.944358 11.134174 66.65625 11.46875 C 66.355991 11.829062 66.181449 12.064968 66.0625 12.25 L 65.96875 12.40625 L 65.96875 12.5625 C 66.00405 12.915305 66.201419 12.996545 66.34375 13.09375 C 66.486081 13.19095 66.663233 13.27971 66.875 13.375 C 67.690708 13.735634 67.968746 14.185471 67.96875 14.9375 C 67.96875 15.707035 67.749783 16.196335 67.28125 16.5625 C 66.812717 16.928666 66.050396 17.150089 64.9375 17.1875 L 64.5625 17.21875 L 64.46875 17.5625 C 64.43636 17.691994 64.4375 17.830982 64.4375 17.96875 C 64.4375 18.267816 64.578844 18.471926 64.75 18.65625 C 64.966441 18.888151 65.306865 19.03125 65.625 19.03125 C 66.913831 18.98935 68.053869 18.664374 68.96875 18 C 69.919638 17.317592 70.406245 16.280267 70.40625 15.0625 C 70.406245 14.403284 70.225336 13.794645 69.84375 13.28125 C 69.84195 13.27865 69.84555 13.25277 69.84375 13.25 L 69.8125 13.25 C 69.489656 12.801201 69.066776 12.439403 68.5625 12.15625 C 68.742255 11.981172 68.928288 11.80788 69.09375 11.625 C 69.319728 11.36334 69.506438 11.039671 69.6875 10.65625 C 69.879259 10.238916 69.999996 9.7983804 70 9.375 C 69.999996 8.6594187 69.656364 8.0249637 69.0625 7.625 C 68.475581 7.2177662 67.718989 7.0312588 66.84375 7.03125 z M 39.53125 12.15625 C 27.005357 12.214495 15.296879 21.84391 12.8125 34.09375 C 10.721822 44.203411 14.712585 55.339704 22.9375 61.625 C 30.347578 67.505927 40.910668 69.24217 49.71875 65.6875 C 58.206383 62.492262 65.14778 55.016451 67 46.0625 C 69.119155 36.446733 65.965375 25.666718 58.46875 19.1875 C 53.460586 14.778425 46.834593 12.21267 40.15625 12.15625 C 39.940822 12.15445 39.746789 12.15275 39.53125 12.15625 z M 52.125 22.4375 C 53.141351 22.437539 53.817418 22.661449 54.15625 23.09375 C 54.562775 23.472084 54.749965 24.384642 54.75 25.84375 C 54.749965 27.302924 54.505534 28.399688 54.03125 29.15625 C 53.624666 29.21032 52.896619 29.298197 51.8125 29.40625 C 50.796083 29.514365 50.010794 29.602234 49.46875 29.65625 C 48.994408 29.71032 48.292349 29.80665 47.34375 29.96875 C 46.395097 30.076864 45.635794 30.204442 45.09375 30.3125 C 44.551649 30.36657 43.875593 30.4629 43.0625 30.625 C 42.317133 30.73311 41.667051 30.86915 41.125 31.03125 C 40.650665 31.193402 40.167053 31.36915 39.625 31.53125 C 38.540835 31.855532 37.781537 32.272102 37.375 32.8125 L 37.375 38.09375 L 37.5625 51.875 L 37.5625 53.09375 C 37.562482 53.309923 37.562482 53.766204 37.5625 54.46875 C 37.562482 55.117259 37.536489 55.661414 37.46875 56.09375 C 37.468733 56.52609 37.33352 56.942668 37.0625 57.375 C 36.520411 58.07755 35.116297 58.4375 32.8125 58.4375 C 30.576437 58.4375 30.656545 58.216173 30.25 58 C 29.442476 57.570639 29.252484 54.847099 29.25 49.78125 L 29.1875 31.0625 C 29.190887 31.040884 29.215961 31.04403 29.21875 31.03125 C 29.217691 31.016807 29.22047 31.007302 29.21875 31 C 29.218741 29.919186 29.18223 30.16393 29.25 27.75 C 29.29516 26.75325 29.238755 25.90539 29.5625 24.8125 C 29.969045 23.461477 30.441529 23.093785 32 23.09375 C 35.387943 23.093785 37.062483 23.686103 37.0625 24.875 C 37.062483 25.79375 37.088471 26.434232 37.15625 26.8125 C 37.562787 26.812531 39.539007 26.084178 43.0625 24.625 C 46.585953 23.165892 49.617882 22.437539 52.125 22.4375 z "
     id="path5796" />
</svg>
