<?xml version="1.0" encoding="UTF-8" standalone="no"?>
<!-- Created with Inkscape (http://www.inkscape.org/) -->

<svg
   xmlns:dc="http://purl.org/dc/elements/1.1/"
   xmlns:cc="http://creativecommons.org/ns#"
   xmlns:rdf="http://www.w3.org/1999/02/22-rdf-syntax-ns#"
   xmlns:svg="http://www.w3.org/2000/svg"
   xmlns="http://www.w3.org/2000/svg"
   xmlns:sodipodi="http://sodipodi.sourceforge.net/DTD/sodipodi-0.dtd"
   xmlns:inkscape="http://www.inkscape.org/namespaces/inkscape"
   version="1.0"
   width="184.25197"
   height="184.25197"
   id="svg2"
   sodipodi:version="0.32"
   inkscape:version="0.48.5 r10040"
   sodipodi:docname="logo-aktuell.svg"
   inkscape:output_extension="org.inkscape.output.svg.inkscape"
   inkscape:export-filename="/home/equinox/realraum/git/logo/logo-aktuell.png"
   inkscape:export-xdpi="275.48813"
   inkscape:export-ydpi="275.48813">
  <sodipodi:namedview
     inkscape:window-height="748"
     inkscape:window-width="1280"
     inkscape:pageshadow="2"
     inkscape:pageopacity="0.0"
     guidetolerance="10.0"
     gridtolerance="10.0"
     objecttolerance="10.0"
     borderopacity="1.0"
     bordercolor="#666666"
     pagecolor="#ffffff"
     id="base"
     showgrid="false"
     inkscape:zoom="2.9036325"
     inkscape:cx="92.125984"
     inkscape:cy="92.125984"
     inkscape:window-x="0"
     inkscape:window-y="28"
     inkscape:current-layer="svg2"
     inkscape:document-units="mm"
     units="mm"
     showguides="true"
     inkscape:guide-bbox="true"
     inkscape:window-maximized="1">
    <sodipodi:guide
       orientation="0,1"
       position="3.5433071,3.5433071"
       id="guide3509" />
    <sodipodi:guide
       orientation="1,0"
       position="3.5433071,3.5433071"
       id="guide3511" />
    <sodipodi:guide
       orientation="0,1"
       position="3.5433071,180.70866"
       id="guide3513" />
    <sodipodi:guide
       orientation="1,0"
       position="180.70866,3.5433071"
       id="guide3519" />
    <sodipodi:guide
       orientation="0,1"
       position="10.629921,10.629921"
       id="guide3521" />
    <sodipodi:guide
       orientation="1,0"
       position="10.629921,10.629921"
       id="guide3523" />
    <sodipodi:guide
       orientation="0,1"
       position="10.629921,173.62205"
       id="guide3525" />
    <sodipodi:guide
       orientation="1,0"
       position="173.62205,10.629921"
       id="guide3527" />
  </sodipodi:namedview>
  <metadata
     id="metadata8">
    <rdf:RDF>
      <cc:Work
         rdf:about="">
        <dc:format>image/svg+xml</dc:format>
        <dc:type
           rdf:resource="http://purl.org/dc/dcmitype/StillImage" />
        <dc:title></dc:title>
      </cc:Work>
    </rdf:RDF>
  </metadata>
  <defs
     id="defs4">
    <inkscape:perspective
       sodipodi:type="inkscape:persp3d"
       inkscape:vp_x="0 : 380.90848 : 1"
       inkscape:vp_y="0 : 1000 : 0"
       inkscape:vp_z="637.79529 : 380.90848 : 1"
       inkscape:persp3d-origin="318.89764 : 253.93899 : 1"
       id="perspective10" />
  </defs>
  <path
     id="path3021"
     d="m 91.099934,10.629918 c -44.502617,0.564348 -80.445866,36.860345 -80.445866,81.496074 0,44.987178 36.508882,81.496058 81.496057,81.496058 44.987175,0 81.496045,-36.50888 81.496035,-81.496058 0,-0.351476 -0.004,-0.699778 -0.01,-1.050199 l 0,-64.219307 C 173.45762,17.910718 166.17937,10.69731 157.20639,10.629918 l -65.056265,0 c -0.124201,0 -0.247475,0 -0.371121,0 -0.226245,0 -0.452486,-0.0029 -0.67907,0 z"
     style="fill:#000000;stroke:#000000;stroke-width:0.35433071999999999;stroke-miterlimit:4;stroke-opacity:1;stroke-dasharray:none;fill-opacity:1"
     inkscape:connector-curvature="0" />
  <path
     id="path3017"
     d="m 92.576508,29.272695 c 15.175242,0.128207 30.177302,5.955126 41.557382,15.973896 17.03463,14.722776 24.21617,39.17932 19.4008,61.029289 -4.20881,20.34612 -19.9415,37.32895 -39.228,44.58951 -20.014665,8.0773 -44.057059,4.19583 -60.895028,-9.16744 C 34.722134,127.41583 25.683235,102.0696 30.433896,79.097355 36.079166,51.261967 62.645163,29.412956 91.107832,29.280606 c 0.489771,-0.0078 0.979159,-0.01204 1.468676,-0.0079 z"
     style="fill:#ffffff;stroke:#000000;stroke-width:0.35433071999999999;stroke-miterlimit:4;stroke-opacity:1;stroke-dasharray:none;fill-opacity:1"
     inkscape:connector-curvature="0" />
  <text
     xml:space="preserve"
     style="font-size:18.78186989px;font-style:normal;font-weight:normal;line-height:125%;letter-spacing:0px;word-spacing:0px;fill:#000000;fill-opacity:1;stroke:none;font-family:Sans"
     x="78.897285"
     y="177.2852"
     id="text3529"
     sodipodi:linespacing="125%"><tspan
       sodipodi:role="line"
       id="tspan3531"
       x="78.897285"
       y="177.2852"
       style="font-style:normal;font-variant:normal;font-weight:normal;font-stretch:normal;font-family:Trebuchet MS;-inkscape-font-specification:Trebuchet MS" /></text>
  <text
     xml:space="preserve"
     style="font-size:28px;font-style:normal;font-weight:normal;line-height:125%;letter-spacing:0px;word-spacing:0px;fill:#000000;fill-opacity:1;stroke:none;font-family:Sans"
     x="89.766304"
     y="176.30391"
     id="text3537"
     sodipodi:linespacing="125%"><tspan
       sodipodi:role="line"
       id="tspan3539"
       x="89.766304"
       y="176.30391" /></text>
  <path
     sodipodi:nodetypes="cccccccccccccccccccccccccccscc"
     inkscape:connector-curvature="0"
     id="path3024-5"
     style="font-size:163.52767943999998579px;font-style:normal;font-variant:normal;font-weight:normal;font-stretch:normal;line-height:125%;letter-spacing:0px;word-spacing:0px;fill:#000000;stroke:#000000;stroke-width:0.35433070999999999;stroke-miterlimit:4;stroke-opacity:1;stroke-dasharray:none;font-family:Cagliostro;-inkscape-font-specification:Cagliostro;fill-opacity:1"
     d="M 67.761713,114.72487 67.650506,72.21378 c 0.153951,-0.982344 0.02565,2.300748 0.02566,-0.155334 -1.9e-5,-2.455948 -0.0511,-1.877602 0.102888,-7.362792 0.10262,-2.264925 -0.0247,-4.175159 0.710948,-6.658541 0.923796,-3.06994 1.963698,-3.935388 5.505022,-3.935468 7.698444,8e-5 11.547681,1.350888 11.547719,4.052426 -3.8e-5,2.087686 0.07694,3.561295 0.230955,4.420827 0.923777,7.2e-5 5.38889,-1.657737 13.395347,-4.973431 8.006365,-3.31554 14.858015,-4.973349 20.554955,-4.97343 2.30946,8.1e-5 3.84915,0.491283 4.61908,1.473608 0.92375,0.859686 1.38565,2.947295 1.38573,6.262839 -8e-5,3.315691 -0.53897,5.833105 -1.61669,7.552247 -0.92388,0.122867 -2.61754,0.307068 -5.08099,0.552604 -2.30961,0.245667 -4.08026,0.429868 -5.31195,0.552603 -1.07785,0.122866 -2.69453,0.368467 -4.85004,0.736805 -2.15563,0.245666 -3.8493,0.491266 -5.08099,0.736805 -1.23182,0.122863 -2.77151,0.368465 -4.619105,0.736804 -1.693703,0.245664 -3.15642,0.552666 -4.388126,0.921006 -1.077835,0.368464 -2.232606,0.736866 -3.464317,1.105207 -2.463555,0.736864 -4.157219,1.71927 -5.080995,2.947218 l 0,11.973074 0.461909,31.314203 0,2.76302 c -4.1e-5,0.49121 -4.1e-5,1.53502 0,3.13142 -4.1e-5,1.47361 -0.07703,2.70162 -0.230955,3.68402 -4e-5,0.98241 -0.307979,1.96482 -0.923818,2.94721 -1.231794,1.59641 -4.465152,2.39462 -9.700083,2.39462 -5.081021,0 -4.881828,-0.50172 -5.805624,-0.99293 -1.847653,-0.9824 -2.258235,-7.18482 -2.258218,-18.8509" />
  <path
     style="font-size:33.60087966999999765px;font-style:normal;font-variant:normal;font-weight:normal;font-stretch:normal;text-indent:0;text-align:start;text-decoration:none;line-height:125%;letter-spacing:0px;word-spacing:0px;text-transform:none;direction:ltr;block-progression:tb;writing-mode:lr-tb;text-anchor:start;baseline-shift:baseline;color:#000000;fill:#ffffff;stroke:#ffffff;stroke-width:0.35433071999999999;stroke-miterlimit:4;stroke-opacity:1;stroke-dasharray:none;marker:none;visibility:visible;display:inline;overflow:visible;enable-background:accumulate;font-family:Varela Round;-inkscape-font-specification:Varela Round;fill-opacity:1"
     d="m 153.21875,17.59375 c -1.32553,2.7e-5 -2.62461,0.257085 -3.90625,0.75 -0.62148,0.231543 -1.11241,0.45435 -1.53125,0.75 -0.41884,0.29565 -0.90625,0.759786 -0.90625,1.5 0,0.663817 0.40518,1.160603 0.8125,1.5 l 0.0313,0.03125 0.0313,0.03125 c 0.35631,0.246706 0.59688,0.500107 1.28125,0.5 0.37286,5.8e-5 0.44173,-0.06478 0.71875,-0.125 0.27702,-0.06022 0.63946,-0.136417 1.09375,-0.25 0.86047,-0.215098 1.49097,-0.312491 1.65625,-0.3125 0.9441,1.8e-5 1.45696,0.231922 1.78125,0.53125 0.37549,0.34662 0.53124,0.678756 0.53125,1.25 -1e-5,0.640635 -0.16307,1.196052 -0.5,1.78125 l 0,0.03125 c -0.35664,0.65384 -0.87658,1.364743 -1.53125,2.125 l 0,0.03125 c -0.68228,0.818742 -1.10471,1.360807 -1.375,1.78125 l -0.21875,0.3125 0.0313,0.375 c 0.0802,0.801682 0.52033,0.997875 0.84375,1.21875 0.32342,0.220875 0.7063,0.408469 1.1875,0.625 1.85354,0.819471 2.53124,1.822411 2.53125,3.53125 0,1.748618 -0.49785,2.855461 -1.5625,3.6875 -1.06465,0.832039 -2.84616,1.383747 -5.375,1.46875 l -0.8125,0.03125 -0.21875,0.8125 c -0.0736,0.294251 -0.0937,0.593199 -0.0937,0.90625 0,0.679577 0.36108,1.143664 0.75,1.5625 0.49182,0.526948 1.2146,0.874998 1.9375,0.875 0.005,-8.92e-4 0.0313,0 0.0313,0 2.92862,-0.09524 5.48361,-0.89659 7.5625,-2.40625 2.16071,-1.550635 3.31249,-3.889112 3.3125,-6.65625 -1e-5,-1.497939 -0.44542,-2.89591 -1.3125,-4.0625 -0.004,-0.0063 0.004,-0.02497 0,-0.03125 l -0.0313,0 c -0.7336,-1.019812 -1.69788,-1.856585 -2.84375,-2.5 0.40846,-0.397827 0.81152,-0.803193 1.1875,-1.21875 0.51349,-0.594568 0.96357,-1.347494 1.375,-2.21875 0.43571,-0.948326 0.68749,-1.91295 0.6875,-2.875 -1e-5,-1.626016 -0.77556,-3.09116 -2.125,-4 -1.33366,-0.925361 -3.04244,-1.343724 -5.03125,-1.34375 z"
     id="text3841"
     inkscape:connector-curvature="0"
     sodipodi:nodetypes="ccssccccscccccccccccscsscccsccccccccccccccc" />
</svg>
