<?xml version="1.0" encoding="UTF-8" standalone="no"?>
<!-- Created with Inkscape (http://www.inkscape.org/) -->

<svg
   xmlns:dc="http://purl.org/dc/elements/1.1/"
   xmlns:cc="http://creativecommons.org/ns#"
   xmlns:rdf="http://www.w3.org/1999/02/22-rdf-syntax-ns#"
   xmlns:svg="http://www.w3.org/2000/svg"
   xmlns="http://www.w3.org/2000/svg"
   xmlns:xlink="http://www.w3.org/1999/xlink"
   xmlns:sodipodi="http://sodipodi.sourceforge.net/DTD/sodipodi-0.dtd"
   xmlns:inkscape="http://www.inkscape.org/namespaces/inkscape"
   version="1.0"
   width="100mm"
   height="100mm"
   id="svg2"
   sodipodi:version="0.32"
   inkscape:version="0.91 r13725"
   sodipodi:docname="logo-re_open.svg"
   inkscape:output_extension="org.inkscape.output.svg.inkscape"
   inkscape:export-filename="/home/equinox/realraum/git/logo/logo-aktuell.png"
   inkscape:export-xdpi="275.48813"
   inkscape:export-ydpi="275.48813">
  <sodipodi:namedview
     inkscape:window-height="1028"
     inkscape:window-width="1920"
     inkscape:pageshadow="2"
     inkscape:pageopacity="0.0"
     guidetolerance="10.0"
     gridtolerance="10.0"
     objecttolerance="10.0"
     borderopacity="1.0"
     bordercolor="#666666"
     pagecolor="#ffffff"
     id="base"
     showgrid="false"
     inkscape:zoom="2.2944666"
     inkscape:cx="178.03701"
     inkscape:cy="177.16536"
     inkscape:window-x="0"
     inkscape:window-y="28"
     inkscape:current-layer="svg2"
     inkscape:document-units="mm"
     units="mm"
     showguides="false"
     inkscape:guide-bbox="true"
     inkscape:window-maximized="1"
     showborder="false"
     inkscape:showpageshadow="false" />
  <metadata
     id="metadata8">
    <rdf:RDF>
      <cc:Work
         rdf:about="">
        <dc:format>image/svg+xml</dc:format>
        <dc:type
           rdf:resource="http://purl.org/dc/dcmitype/StillImage" />
        <dc:title />
      </cc:Work>
    </rdf:RDF>
  </metadata>
  <defs
     id="defs4">
    <inkscape:perspective
       sodipodi:type="inkscape:persp3d"
       inkscape:vp_x="0 : 380.90848 : 1"
       inkscape:vp_y="0 : 1000 : 0"
       inkscape:vp_z="637.79529 : 380.90848 : 1"
       inkscape:persp3d-origin="318.89764 : 253.93899 : 1"
       id="perspective10" />
  </defs>
  <text
     xml:space="preserve"
     style="font-style:normal;font-weight:normal;font-size:52.42951965px;line-height:125%;font-family:Sans;letter-spacing:0px;word-spacing:0px;fill:#000000;fill-opacity:1;stroke:none"
     x="172.74368"
     y="378.11536"
     id="text3529"
     sodipodi:linespacing="125%"
     transform="scale(1.0000019,0.99999812)"><tspan
       sodipodi:role="line"
       id="tspan3531"
       x="172.74368"
       y="378.11536"
       style="font-style:normal;font-variant:normal;font-weight:normal;font-stretch:normal;font-family:'Trebuchet MS';-inkscape-font-specification:'Trebuchet MS'" /></text>
  <text
     xml:space="preserve"
     style="font-style:normal;font-weight:normal;font-size:78.16189575px;line-height:125%;font-family:Sans;letter-spacing:0px;word-spacing:0px;fill:#000000;fill-opacity:1;stroke:none"
     x="203.0845"
     y="375.37604"
     id="text3537"
     sodipodi:linespacing="125%"
     transform="scale(1.0000019,0.99999812)"><tspan
       sodipodi:role="line"
       id="tspan3539"
       x="203.0845"
       y="375.37604" /></text>
  <text
     sodipodi:linespacing="125%"
     id="text4902"
     y="378.11536"
     x="172.74368"
     style="font-style:normal;font-weight:normal;font-size:52.42951965px;line-height:125%;font-family:Sans;letter-spacing:0px;word-spacing:0px;fill:#000000;fill-opacity:1;stroke:none"
     xml:space="preserve"
     transform="scale(1.0000019,0.99999812)"><tspan
       style="font-style:normal;font-variant:normal;font-weight:normal;font-stretch:normal;font-family:'Trebuchet MS';-inkscape-font-specification:'Trebuchet MS'"
       y="378.11536"
       x="172.74368"
       id="tspan4904"
       sodipodi:role="line" /></text>
  <text
     sodipodi:linespacing="125%"
     id="text4906"
     y="375.37604"
     x="203.0845"
     style="font-style:normal;font-weight:normal;font-size:78.16189575px;line-height:125%;font-family:Sans;letter-spacing:0px;word-spacing:0px;fill:#000000;fill-opacity:1;stroke:none"
     xml:space="preserve"
     transform="scale(1.0000019,0.99999812)"><tspan
       y="375.37604"
       x="203.0845"
       id="tspan4908"
       sodipodi:role="line" /></text>
  <text
     xml:space="preserve"
     style="font-style:normal;font-weight:normal;font-size:52.42951965px;line-height:125%;font-family:Sans;letter-spacing:0px;word-spacing:0px;fill:#000000;fill-opacity:1;stroke:none"
     x="172.74368"
     y="378.11536"
     id="text4912"
     sodipodi:linespacing="125%"
     transform="scale(1.0000019,0.99999812)"><tspan
       sodipodi:role="line"
       id="tspan4914"
       x="172.74368"
       y="378.11536"
       style="font-style:normal;font-variant:normal;font-weight:normal;font-stretch:normal;font-family:'Trebuchet MS';-inkscape-font-specification:'Trebuchet MS'" /></text>
  <text
     xml:space="preserve"
     style="font-style:normal;font-weight:normal;font-size:78.16189575px;line-height:125%;font-family:Sans;letter-spacing:0px;word-spacing:0px;fill:#000000;fill-opacity:1;stroke:none"
     x="203.0845"
     y="375.37604"
     id="text4916"
     sodipodi:linespacing="125%"
     transform="scale(1.0000019,0.99999812)"><tspan
       sodipodi:role="line"
       id="tspan4918"
       x="203.0845"
       y="375.37604" /></text>
  <g
     id="g3408">
    <path
       id="path4975"
       d="M 174.87952,0.00283033 C 78.13461,1.2296398 -1.7838599e-8,80.166585 -1.7838599e-8,177.19813 -1.7838599e-8,274.99368 79.39529,354.33072 177.1936,354.33072 c 97.79832,0 177.13091,-79.33704 177.13089,-177.13259 0,-0.76406 0.014,-1.55231 0,-2.31407 l 0,-139.604726 C 353.93643,15.832552 338.1178,0.14932543 318.6113,0.00283033 l -141.4177,0 -0.81277,0 c -0.49184,0 -1.00873,-0.00636013 -1.50131,0 z M 309.91695,15.140093 c 4.32352,5.5e-5 8.04643,0.927121 10.94572,2.938723 2.93358,1.975676 4.62813,5.159596 4.62815,8.694316 -2e-5,2.091358 -0.5541,4.193322 -1.50131,6.254842 -0.89442,1.893981 -1.88516,3.523732 -3.00144,4.816239 -0.81736,0.903351 -1.67691,1.824274 -2.56488,2.689095 2.49103,1.398691 4.59737,3.162453 6.19216,5.379378 l 0.0627,0 c 0.008,0.01357 -0.008,0.111781 0,0.125404 1.88498,2.535991 2.81448,5.562234 2.81451,8.818538 -3e-5,6.015355 -2.49585,11.077865 -7.19304,14.448718 -4.51934,3.281781 -10.08278,5.046943 -16.44934,5.253974 0,0 -0.0526,-0.0024 -0.0627,0 -1.57154,0 -3.12124,-0.793526 -4.19042,-1.939035 -0.84551,-0.910481 -1.62671,-1.900336 -1.62671,-3.377637 0,-0.680529 0.0283,-1.362075 0.18811,-2.001741 l 0.50043,-1.750933 1.75094,-0.0627 c 5.49749,-0.184777 9.38133,-1.380803 11.69578,-3.189534 2.31448,-1.808732 3.37765,-4.204522 3.37765,-8.005769 -1e-5,-3.71476 -1.47417,-5.912036 -5.50361,-7.693449 -1.0461,-0.470698 -1.8618,-0.895749 -2.56489,-1.375897 -0.70308,-0.480148 -1.63932,-0.88484 -1.81364,-2.627577 l -0.0627,-0.812765 0.43773,-0.688542 c 0.58756,-0.913982 1.51941,-2.098245 3.00262,-3.878071 l 0,-0.06152 c 1.42318,-1.65269 2.53965,-3.207961 3.31495,-4.629318 l 0,-0.06271 c 0.73247,-1.27213 1.06236,-2.484244 1.06239,-3.876889 -3e-5,-1.241802 -0.30882,-1.936777 -1.12509,-2.690277 -0.705,-0.650696 -1.82571,-1.187758 -3.87809,-1.187794 -0.35932,1.8e-5 -1.69398,0.219769 -3.56458,0.687361 -0.98761,0.246912 -1.77457,0.43221 -2.37678,0.563132 -0.60222,0.130916 -0.75345,0.250941 -1.56401,0.250813 -1.48776,2.37e-4 -2.03993,-0.527267 -2.81451,-1.063572 l -0.0627,-0.06271 -0.0627,-0.0627 c -0.88548,-0.7378 -1.75094,-1.809192 -1.75094,-3.252234 0,-1.60912 1.02849,-2.609533 1.93904,-3.252234 0.91052,-0.642689 1.96392,-1.186067 3.31495,-1.689409 2.78619,-1.071525 5.62465,-1.625465 8.50624,-1.625525 z M 178.06906,40.533308 c 32.98969,0.278701 65.63976,12.996736 90.37909,34.776072 37.03182,32.00516 52.62436,85.16269 42.15616,132.66134 -9.14962,44.22947 -43.32326,81.10217 -85.2505,96.88558 C 181.84364,322.41519 129.5483,314.01648 92.943973,284.96668 52.314522,253.91945 32.641391,198.80331 42.968929,148.86501 55.241266,88.354949 113.00409,40.883721 174.87952,40.596013 c 1.06473,-0.01702 2.12538,-0.07169 3.18954,-0.06271 z"
       style="fill:#761407;fill-opacity:1;stroke:none"
       inkscape:connector-curvature="0" />
    <g
       id="g3395">
      <use
         x="0"
         y="0"
         xlink:href="#path3792"
         id="use3794"
         transform="matrix(-1,0,0,1,332.23517,0)"
         width="637.79529"
         height="637.80121" />
      <path
         inkscape:connector-curvature="0"
         style="fill:#761407;fill-opacity:1;stroke:none"
         d="m 237.11282,91.321577 c -12.38468,1.69e-4 -27.25295,3.613083 -44.65811,10.820583 -17.40536,7.20783 -27.13839,10.82074 -29.14661,10.82058 -0.33481,-1.8685 -0.50045,-5.09387 -0.50036,-9.63219 -9e-5,-5.872752 -8.34533,-8.818917 -25.0811,-8.819093 -7.69854,1.76e-4 -10.00065,1.895302 -12.0089,8.568903 -1.59924,5.3985 -1.34057,9.52467 -1.56366,14.44829 -0.33475,11.924 -0.18768,10.67309 -0.18764,16.01196 0,0.0833 -1.3e-4,0.0477 0,0.1251 -0.0178,0.066 -0.0388,0.0991 -0.0625,0.25019 l 0.25018,92.3815 c 0.008,25.1462 0.94208,38.52909 4.94117,40.65539 2.00825,1.06779 1.58865,2.18911 12.63436,2.18911 11.38029,0 18.40031,-1.78355 21.07813,-5.25391 1.33878,-2.13557 2.0014,-4.24415 2.00148,-6.37977 0.33461,-2.13559 0.50028,-4.80257 0.50037,-8.00598 -9e-5,-3.47033 -9e-5,-5.74977 0,-6.81758 l 0,-6.0045 -1.00074,-68.05083 0,-26.01944 c 2.00822,-2.66938 5.71515,-4.84048 11.07071,-6.44231 2.67763,-0.80072 5.16244,-1.5758 7.50556,-2.37678 2.67762,-0.80072 5.88762,-1.46745 9.5696,-2.00149 4.01651,-0.80072 7.32953,-1.35913 10.0074,-1.62621 2.67758,-0.53377 6.38456,-1.09218 11.07072,-1.62622 4.68589,-0.80071 8.16466,-1.29658 10.50778,-1.56366 2.6776,-0.26682 6.55019,-0.65435 11.57108,-1.1884 5.35533,-0.53376 8.99975,-0.98384 11.00816,-1.25093 2.3429,-3.73717 3.56497,-9.17942 3.56514,-16.38724 -1.7e-4,-7.20751 -1.05664,-11.766355 -3.06476,-13.635187 -1.67376,-2.135436 -4.98685,-3.189705 -10.00742,-3.189886 z"
         id="path4910" />
      <g
         id="g3392">
        <rect
           y="208.56573"
           x="15.814789"
           height="115.37119"
           width="300.93765"
           id="rect3011"
           style="fill:#ffffff;fill-opacity:1;fill-rule:evenodd;stroke:#000000;stroke-width:6.82698774;stroke-linecap:butt;stroke-linejoin:round;stroke-miterlimit:4;stroke-dasharray:none;stroke-opacity:1" />
      </g>
      <g
         transform="scale(0.92315902,1.083237)"
         style="font-style:normal;font-variant:normal;font-weight:bold;font-stretch:normal;font-size:140.83100891px;line-height:125%;font-family:'Ubuntu Mono';-inkscape-font-specification:'Ubuntu Mono Bold';text-align:start;letter-spacing:0px;word-spacing:0px;writing-mode:lr-tb;text-anchor:start;fill:#00bc00;fill-opacity:1;stroke:none"
         id="text3781">
        <g
           id="g3386">
          <path
             id="path3378"
             style=""
             d="m 62.037764,245.79231 q 0,6.33739 0.422493,11.97063 0.563324,5.49241 1.971634,9.57651 1.549141,4.0841 4.22493,6.47823 2.67579,2.39413 7.182382,2.39413 4.365761,0 7.04155,-2.39413 2.816621,-2.39413 4.224931,-6.47823 1.549141,-4.22493 1.971634,-9.71734 0.563324,-5.49241 0.563324,-11.8298 0,-6.3374 -0.563324,-11.82981 -0.422493,-5.63324 -1.971634,-9.71734 -1.40831,-4.0841 -4.0841,-6.47822 -2.675789,-2.39413 -7.182381,-2.39413 -4.506592,0 -7.182382,2.39413 -2.675789,2.39412 -4.22493,6.61905 -1.40831,4.0841 -1.971634,9.57651 -0.422493,5.49241 -0.422493,11.82981 z m -17.603876,0 q 0,-22.53296 8.309029,-33.94028 8.30903,-11.54814 23.096286,-11.54814 15.35058,0 23.377947,11.54814 8.02737,11.40732 8.02737,33.94028 0,22.53296 -8.168201,34.0811 -8.168198,11.40731 -23.096285,11.40731 -15.35058,0 -23.518779,-11.40731 -8.027367,-11.54814 -8.027367,-34.0811 z" />
          <path
             id="path3380"
             style=""
             d="m 142.5931,201.28971 q 16.61806,0 25.77208,6.90072 9.15401,6.75989 9.15401,22.2513 0,15.63224 -9.29485,22.67379 -9.15401,6.90072 -26.05373,6.90072 l -6.19657,0 0,29.43368 -17.32221,0 0,-86.04775 q 2.53496,-0.56332 5.63324,-0.98581 3.23911,-0.4225 6.47823,-0.56333 3.23911,-0.28166 6.33739,-0.42249 3.09828,-0.14083 5.49241,-0.14083 z m 1.97164,15.06892 q -1.54915,0 -4.36577,0.14083 -2.67579,0 -4.22493,0.28166 l 0,28.1662 7.04155,0 q 8.30903,0 12.53396,-3.23911 4.22493,-3.37995 4.22493,-11.40731 0,-7.60488 -4.22493,-10.70316 -4.0841,-3.23911 -10.98481,-3.23911 z" />
          <path
             id="path3382"
             style=""
             d="m 190.33481,289.44992 0,-87.17439 52.81163,0 0,14.36476 -35.48941,0 0,19.57551 30.84199,0 0,14.36476 -30.84199,0 0,24.5046 38.58769,0 0,14.36476 -55.90991,0 z" />
          <path
             id="path3384"
             style=""
             d="m 301.87298,289.44992 q -5.9149,-14.50559 -12.95645,-28.87036 -6.90072,-14.50559 -14.92809,-29.01118 l 0,57.88154 -15.63224,0 0,-87.17439 13.94227,0 q 3.94327,6.19656 7.88653,13.51977 3.94327,7.18238 7.60488,14.36477 3.80244,7.18238 6.90072,13.94227 3.23911,6.75988 5.49241,11.8298 l 0,-53.65661 15.63224,0 0,87.17439 -13.94227,0 z" />
        </g>
      </g>
      <path
         style="fill:none;stroke:#000000;stroke-width:5.34946203;stroke-linecap:butt;stroke-linejoin:miter;stroke-miterlimit:4;stroke-dasharray:none;stroke-opacity:1"
         d="M 14.969756,207.98848 C 151.6415,96.075178 167.75741,109.81062 167.75741,109.81062"
         id="path3792"
         inkscape:connector-curvature="0"
         sodipodi:nodetypes="cc" />
    </g>
  </g>
</svg>
