<?xml version="1.0" encoding="UTF-8" standalone="no"?>
<!-- Created with Inkscape (http://www.inkscape.org/) -->

<svg
   xmlns:dc="http://purl.org/dc/elements/1.1/"
   xmlns:cc="http://creativecommons.org/ns#"
   xmlns:rdf="http://www.w3.org/1999/02/22-rdf-syntax-ns#"
   xmlns:svg="http://www.w3.org/2000/svg"
   xmlns="http://www.w3.org/2000/svg"
   xmlns:sodipodi="http://sodipodi.sourceforge.net/DTD/sodipodi-0.dtd"
   xmlns:inkscape="http://www.inkscape.org/namespaces/inkscape"
   version="1.0"
   width="100"
   height="100"
   id="svg2"
   sodipodi:version="0.32"
   inkscape:version="0.48.5 r10040"
   sodipodi:docname="logo-inverted.svg"
   inkscape:output_extension="org.inkscape.output.svg.inkscape">
  <metadata
     id="metadata7">
    <rdf:RDF>
      <cc:Work
         rdf:about="">
        <dc:format>image/svg+xml</dc:format>
        <dc:type
           rdf:resource="http://purl.org/dc/dcmitype/StillImage" />
      </cc:Work>
    </rdf:RDF>
  </metadata>
  <sodipodi:namedview
     inkscape:window-height="998"
     inkscape:window-width="1400"
     inkscape:pageshadow="2"
     inkscape:pageopacity="1"
     guidetolerance="10.0"
     gridtolerance="10.0"
     objecttolerance="10.0"
     borderopacity="1.0"
     bordercolor="#666666"
     pagecolor="#000000"
     id="base"
     showgrid="false"
     inkscape:zoom="7.8499988"
     inkscape:cx="50.000007"
     inkscape:cy="50.000007"
     inkscape:window-x="0"
     inkscape:window-y="28"
     inkscape:current-layer="svg2"
     showborder="false"
     inkscape:showpageshadow="false"
     inkscape:window-maximized="1" />
  <defs
     id="defs4">
    <inkscape:perspective
       sodipodi:type="inkscape:persp3d"
       inkscape:vp_x="0 : 318.9006 : 1"
       inkscape:vp_y="0 : 1000 : 0"
       inkscape:vp_z="637.79529 : 318.9006 : 1"
       inkscape:persp3d-origin="318.89764 : 212.6004 : 1"
       id="perspective9" />
  </defs>
  <path
     id="path3021"
     d="M 39.515239,24.09263 C 19.930462,24.340986 4.112504,40.314183 4.112504,59.957541 c 0,19.798024 16.066882,35.864906 35.864905,35.864906 19.798022,0 35.864899,-16.066882 35.864895,-35.864906 0,-0.15468 -0.0018,-0.30796 -0.0044,-0.462174 l 0,-28.261728 c -0.07857,-3.936864 -3.281596,-7.111352 -7.230438,-7.141009 l -28.630057,0 c -0.05466,0 -0.10891,0 -0.163324,0 -0.09957,0 -0.199131,-0.0013 -0.298846,0 z"
     style="fill:none;stroke:none"
     inkscape:connector-curvature="0" />
  <path
     style="fill:#ffffff;fill-opacity:1;stroke:none"
     d="M 49.330528,0.00880754 C 22.032483,0.35499654 0,22.626341 0,50.008341 c 0,27.597588 22.400297,49.999529 49.995571,49.999529 27.595279,0 49.995571,-22.401928 49.995571,-49.999529 3e-6,-0.215608 0.0028,-0.450129 0,-0.665096 l 0,-36.971486 C 100.26244,6.7565545 94.259483,-0.07724046 87.863891,0.00880754 l -37.86832,0 c -0.07619,0 -0.158878,3.1e-4 -0.234721,0 -0.138781,-5.93e-4 -0.291336,-0.0018 -0.430322,0 z m 0.07824,5.63374996 c 0.12332,-0.0016 0.268064,-5.26e-4 0.391202,0 0.0673,2.75e-4 0.128001,0 0.195601,0 l 35.403749,0 c 4.883814,0.03667 8.860193,3.972458 8.958518,8.8418575 l 0,34.937077 c 0.0024,0.190734 0,0.39554 0,0.586849 10e-7,24.487596 -19.876617,44.365788 -44.362267,44.365783 -24.485647,0 -44.3622672,-19.878198 -44.3622672,-44.365783 0,-24.296287 19.5535532,-44.0586065 43.7754642,-44.3657835 z m 34.269265,3.168984 c -0.730253,1.7e-5 -1.445536,0.119655 -2.151609,0.391233 -0.342382,0.127569 -0.590778,0.267465 -0.821524,0.430356 -0.230743,0.162891 -0.508562,0.4137595 -0.508562,0.8215885 0,0.365737 0.205924,0.634594 0.430322,0.821589 l 0.03912,0.03912 c 0.196296,0.135921 0.327135,0.273923 0.704163,0.273863 0.205414,3.3e-5 0.238587,-0.04508 0.391202,-0.07825 0.152614,-0.03317 0.375647,-0.05479 0.625922,-0.11737 0.474046,-0.118511 0.808709,-0.195611 0.899764,-0.195617 0.520118,1.1e-5 0.799349,0.148068 0.978004,0.312987 0.206863,0.190972 0.312957,0.350361 0.312962,0.665095 -5e-6,0.35296 -0.08822,0.694784 -0.273841,1.017205 -0.196478,0.360238 -0.499977,0.754827 -0.860644,1.173698 -0.375878,0.451091 -0.594377,0.746432 -0.743283,0.978082 l -0.117361,0.195616 0,0.195616 c 0.04419,0.441693 0.291266,0.543401 0.469442,0.665096 0.178177,0.121689 0.399944,0.232811 0.665043,0.352109 1.02114,0.451494 1.369201,1.014665 1.369206,1.956163 0,0.963416 -0.274113,1.575992 -0.860644,2.03441 -0.586531,0.45842 -1.540839,0.73563 -2.934012,0.782466 l -0.469442,0.03912 -0.117361,0.430356 c -0.04055,0.16212 -0.03912,0.336125 -0.03912,0.508603 0,0.374414 0.176941,0.629948 0.391202,0.860712 0.270951,0.290327 0.697109,0.469479 1.095365,0.469479 1.613417,-0.05246 3.040568,-0.459309 4.185857,-1.291068 1.190365,-0.854337 1.799521,-2.15301 1.799528,-3.677587 -7e-6,-0.825302 -0.226477,-1.587284 -0.704163,-2.230026 -0.0023,-0.0033 0.0023,-0.03566 0,-0.03912 l -0.03912,0 c -0.404151,-0.561872 -0.933531,-1.014823 -1.564807,-1.369314 0.225025,-0.219188 0.45791,-0.43614 0.665043,-0.665096 0.282889,-0.327584 0.516621,-0.732799 0.743283,-1.212821 0.240053,-0.522479 0.391197,-1.074005 0.391202,-1.604054 -5e-6,-0.895868 -0.43018,-1.69017 -1.173605,-2.1909035 -0.734732,-0.509834 -1.681868,-0.743331 -2.777532,-0.743342 z M 49.487009,15.227757 C 33.806529,15.300671 19.149326,27.35617 16.039268,42.69229 13.422062,55.349025 18.41788,69.291045 28.714201,77.159887 37.990472,84.522481 51.213827,86.696161 62.240183,82.245912 72.865386,78.245651 81.554941,68.88635 83.873634,57.676501 86.526488,45.638094 82.578443,32.142114 73.193829,24.030492 c -6.269447,-5.519917 -14.564165,-8.7321 -22.924417,-8.802735 -0.269682,-0.0023 -0.512582,-0.0044 -0.782403,0 z m 15.765426,12.871555 c 1.272314,4.9e-5 2.118646,0.280371 2.542811,0.821588 0.508906,0.473653 0.743239,1.616126 0.743283,3.442848 -4.4e-5,1.826805 -0.306034,3.199893 -0.899764,4.147066 -0.50898,0.06769 -1.420382,0.17771 -2.777531,0.312986 -1.272397,0.135354 -2.255458,0.245361 -2.934013,0.312986 -0.593803,0.06769 -1.472672,0.188293 -2.660171,0.391233 -1.187567,0.135353 -2.138097,0.295073 -2.816652,0.430356 -0.678626,0.06769 -1.524944,0.188293 -2.542811,0.391233 -0.933084,0.135347 -1.746886,0.305662 -2.42545,0.508602 -0.593794,0.203005 -1.199201,0.423032 -1.877768,0.625972 -1.357207,0.405983 -2.30773,0.927506 -2.816652,1.604054 l 0,6.611832 0.234721,17.25336 0,1.525808 c -2.2e-5,0.270636 -2.2e-5,0.841875 0,1.721423 -2.2e-5,0.811897 -0.03256,1.493149 -0.11736,2.03441 -2.1e-5,0.541266 -0.169287,1.062798 -0.508562,1.604054 -0.678612,0.879554 -2.436345,1.330191 -5.320343,1.330191 -2.799205,0 -2.698922,-0.277089 -3.207853,-0.547726 -1.010895,-0.537536 -1.248736,-3.947257 -1.251846,-10.289419 l -0.07824,-23.434836 c 0.0042,-0.02707 0.03563,-0.02312 0.03912,-0.03912 -0.0013,-0.01808 0.0022,-0.02998 0,-0.03912 -1.1e-5,-1.353119 -0.04572,-1.046713 0.03912,-4.06882 0.05653,-1.247875 -0.01408,-2.309349 0.391202,-3.677587 0.508932,-1.691406 1.100408,-2.151736 3.051373,-2.15178 4.24118,4.4e-5 6.337445,0.741593 6.337467,2.230027 -2.2e-5,1.150224 0.03251,1.952072 0.11736,2.425642 0.508922,3.9e-5 2.982843,-0.911818 7.393711,-2.738628 4.410818,-1.826723 8.206324,-2.73858 11.344848,-2.738629 z"
     id="path5796"
     inkscape:connector-curvature="0" />
</svg>
