<?xml version="1.0" encoding="UTF-8" standalone="no"?>
<!-- Created with Inkscape (http://www.inkscape.org/) -->

<svg
   xmlns:dc="http://purl.org/dc/elements/1.1/"
   xmlns:cc="http://creativecommons.org/ns#"
   xmlns:rdf="http://www.w3.org/1999/02/22-rdf-syntax-ns#"
   xmlns:svg="http://www.w3.org/2000/svg"
   xmlns="http://www.w3.org/2000/svg"
   xmlns:sodipodi="http://sodipodi.sourceforge.net/DTD/sodipodi-0.dtd"
   xmlns:inkscape="http://www.inkscape.org/namespaces/inkscape"
   version="1.0"
   width="3543.3069"
   height="3543.3069"
   id="svg2"
   sodipodi:version="0.32"
   inkscape:version="0.48.5 r10040"
   sodipodi:docname="logo-leds.svg"
   inkscape:output_extension="org.inkscape.output.svg.inkscape">
  <metadata
     id="metadata7">
    <rdf:RDF>
      <cc:Work
         rdf:about="">
        <dc:format>image/svg+xml</dc:format>
        <dc:type
           rdf:resource="http://purl.org/dc/dcmitype/StillImage" />
      </cc:Work>
      <cc:Work
         rdf:about="">
        <dc:format>image/svg+xml</dc:format>
        <dc:type
           rdf:resource="http://purl.org/dc/dcmitype/StillImage" />
      </cc:Work>
    </rdf:RDF>
  </metadata>
  <sodipodi:namedview
     inkscape:window-height="998"
     inkscape:window-width="1400"
     inkscape:pageshadow="2"
     inkscape:pageopacity="1"
     guidetolerance="10.0"
     gridtolerance="10.0"
     objecttolerance="10.0"
     borderopacity="1.0"
     bordercolor="#666666"
     pagecolor="#000000"
     id="base"
     showgrid="false"
     inkscape:zoom="0.22154446"
     inkscape:cx="1771.6534"
     inkscape:cy="1771.6534"
     inkscape:window-x="0"
     inkscape:window-y="28"
     inkscape:current-layer="svg2"
     showborder="false"
     inkscape:showpageshadow="false"
     units="m"
     inkscape:window-maximized="1" />
  <defs
     id="defs4">
    <inkscape:perspective
       sodipodi:type="inkscape:persp3d"
       inkscape:vp_x="0 : 318.9006 : 1"
       inkscape:vp_y="0 : 1000 : 0"
       inkscape:vp_z="637.79529 : 318.9006 : 1"
       inkscape:persp3d-origin="318.89764 : 212.6004 : 1"
       id="perspective9" />
  </defs>
  <rect
     style="fill:#ffffff;fill-opacity:1;stroke:none"
     id="rect6200"
     width="66.485382"
     height="207.76683"
     x="1630.1219"
     y="-2507.1616"
     transform="matrix(-0.49211456,0.87053045,-0.87053053,-0.49211441,0,0)" />
  <rect
     style="fill:#ffffff;fill-opacity:1;stroke:none"
     id="rect6202"
     width="66.485374"
     height="207.76685"
     x="449.02939"
     y="-2621.8545"
     transform="matrix(0,1,-1,0,0,0)" />
  <rect
     style="fill:#ffffff;fill-opacity:1;stroke:none"
     id="rect7175"
     width="66.485374"
     height="207.76685"
     x="445.39352"
     y="-2102.7988"
     transform="matrix(0,1,-1,0,0,0)" />
  <rect
     style="fill:#ffffff;fill-opacity:1;stroke:none"
     id="rect7177"
     width="66.485367"
     height="207.76685"
     x="803.20941"
     y="-1421.7219"
     transform="matrix(0.22633155,0.97405032,-0.97405034,0.22633147,0,0)" />
  <rect
     style="fill:#ffffff;fill-opacity:1;stroke:none"
     id="rect7179"
     width="66.485382"
     height="207.76683"
     x="1122.1708"
     y="-521.60522"
     transform="matrix(0.55461489,0.83210716,-0.83210726,0.55461473,0,0)" />
  <rect
     style="fill:#ffffff;fill-opacity:1;stroke:none"
     id="rect7181"
     width="66.48539"
     height="207.76682"
     x="1094.8094"
     y="529.7605"
     transform="matrix(0.86386177,0.50372893,-0.50372908,0.86386169,0,0)"
     inkscape:transform-center-y="-91.779804"
     inkscape:transform-center-x="109.62807" />
  <rect
     style="fill:#ffffff;fill-opacity:1;stroke:none"
     id="rect7183"
     width="66.48539"
     height="207.76678"
     x="601.98944"
     y="1467.2257"
     transform="matrix(0.99567064,0.09295146,-0.0929515,0.99567064,0,0)" />
  <rect
     style="fill:#ffffff;fill-opacity:1;stroke:none"
     id="rect7185"
     width="66.48539"
     height="207.76682"
     x="-155.18214"
     y="2110.7908"
     transform="matrix(0.9558095,-0.29398674,0.29398684,0.95580947,0,0)" />
  <rect
     style="fill:#ffffff;fill-opacity:1;stroke:none"
     id="rect7187"
     width="66.485382"
     height="207.7668"
     x="1091.0703"
     y="-2587.7886"
     transform="matrix(-0.75692148,0.65350584,-0.65350599,-0.75692135,0,0)"
     inkscape:transform-center-x="81.998387"
     inkscape:transform-center-y="-89.417441" />
  <rect
     style="fill:#ffffff;fill-opacity:1;stroke:none"
     id="rect7189"
     width="66.485382"
     height="207.76683"
     x="-869.10388"
     y="-2653.0303"
     transform="matrix(-0.66262918,0.74894764,-0.74894777,-0.66262903,0,0)" />
  <rect
     style="fill:#ffffff;fill-opacity:1;stroke:none"
     id="rect7191"
     width="66.485382"
     height="207.76686"
     x="1945.5085"
     y="-2586.4111"
     transform="matrix(-0.48897245,0.87229923,-0.87229931,-0.4889723,0,0)"
     inkscape:transform-center-x="-54.999282"
     inkscape:transform-center-y="-1.2400683e-05" />
  <rect
     style="fill:#ffffff;fill-opacity:1;stroke:none"
     id="rect7193"
     width="66.485374"
     height="207.76685"
     x="3033.9082"
     y="-1838.1146"
     transform="matrix(0,1,-1,0,0,0)" />
  <rect
     style="fill:#ffffff;fill-opacity:1;stroke:none"
     id="rect7195"
     width="66.485374"
     height="207.76685"
     x="3500.7151"
     y="-1295.1283"
     transform="matrix(0.31691675,0.94845336,-0.9484534,0.31691663,0,0)" />
  <rect
     style="fill:#ffffff;fill-opacity:1;stroke:none"
     id="rect7197"
     width="66.485382"
     height="207.76685"
     x="3756.8098"
     y="-148.82903"
     transform="matrix(0.69356428,0.72039474,-0.72039488,0.69356414,0,0)"
     inkscape:transform-center-y="20.514473"
     inkscape:transform-center-x="-2.1315405" />
  <rect
     style="fill:#ffffff;fill-opacity:1;stroke:none"
     id="rect7199"
     width="66.48539"
     height="207.76682"
     x="3686.2676"
     y="419.12387"
     transform="matrix(0.85744254,0.51457972,-0.51457987,0.85744245,0,0)" />
  <rect
     style="fill:#ffffff;fill-opacity:1;stroke:none"
     id="rect8170"
     width="66.485382"
     height="207.76686"
     x="-1628.595"
     y="-2682.7358"
     transform="matrix(-0.67184464,0.74069209,-0.74069223,-0.6718445,0,0)" />
  <rect
     style="fill:#ffffff;fill-opacity:1;stroke:none"
     id="rect8172"
     width="66.485382"
     height="207.76677"
     x="-3109.5657"
     y="-991.26904"
     transform="matrix(-0.99979344,-0.02032434,0.02032434,-0.99979344,0,0)" />
  <rect
     style="fill:#ffffff;fill-opacity:1;stroke:none"
     id="rect8174"
     width="66.48539"
     height="207.7668"
     x="-3051.1667"
     y="-1613.4547"
     transform="matrix(-0.9996342,0.02704572,-0.02704574,-0.9996342,0,0)" />
  <rect
     style="fill:#ffffff;fill-opacity:1;stroke:none"
     id="rect8176"
     width="66.48539"
     height="207.7668"
     x="-3314.5305"
     y="-1641.7256"
     transform="matrix(-0.99154241,-0.12978307,0.12978313,-0.9915424,0,0)"
     inkscape:transform-center-x="-34.046282"
     inkscape:transform-center-y="4.1059553" />
  <rect
     style="fill:#ffffff;fill-opacity:1;stroke:none"
     id="rect8178"
     width="66.485374"
     height="207.76685"
     x="213.91237"
     y="-2300.0215"
     transform="matrix(-0.27092735,0.9625998,-0.96259983,-0.27092725,0,0)" />
  <rect
     style="fill:#ffffff;fill-opacity:1;stroke:none"
     id="rect8180"
     width="66.485374"
     height="207.76685"
     x="1166.4489"
     y="-1356.8971"
     transform="matrix(0.27936526,0.9601849,-0.96018493,0.27936516,0,0)" />
  <rect
     style="fill:#ffffff;fill-opacity:1;stroke:none"
     id="rect8182"
     width="66.485397"
     height="207.76686"
     x="1485.4353"
     y="-135.96727"
     transform="matrix(0.70831043,0.70590108,-0.70590123,0.70831028,0,0)" />
  <rect
     style="fill:#ffffff;fill-opacity:1;stroke:none"
     id="rect8184"
     width="66.48539"
     height="207.76685"
     x="1261.0286"
     y="935.6059"
     transform="matrix(0.93644728,0.35080833,-0.35080845,0.93644724,0,0)" />
  <rect
     style="fill:#ffffff;fill-opacity:1;stroke:none"
     id="rect8186"
     width="66.48539"
     height="207.7668"
     x="-2153.2839"
     y="-2333.6938"
     transform="matrix(-0.95141677,0.30790605,-0.30790616,-0.95141673,0,0)" />
  <rect
     style="fill:#ffffff;fill-opacity:1;stroke:none"
     id="rect8188"
     width="66.48539"
     height="207.7668"
     x="-2919.3416"
     y="-1807.0792"
     transform="matrix(-0.99696852,-0.07780592,0.07780596,-0.99696852,0,0)" />
  <rect
     style="fill:#ffffff;fill-opacity:1;stroke:none"
     id="rect8190"
     width="66.48539"
     height="207.7668"
     x="-601.90112"
     y="-2094.0874"
     transform="matrix(-0.99344809,0.11428428,-0.11428432,-0.99344808,0,0)" />
  <rect
     style="fill:#ffffff;fill-opacity:1;stroke:none"
     id="rect8192"
     width="66.485382"
     height="207.76682"
     x="3441.4497"
     y="133.43703"
     transform="matrix(0.77841806,0.62774622,-0.62774638,0.77841794,0,0)" />
  <rect
     style="fill:#ffffff;fill-opacity:1;stroke:none"
     id="rect8194"
     width="66.485382"
     height="207.76682"
     x="3330.1873"
     y="-864.51343"
     transform="matrix(0.45413327,0.89093376,-0.89093384,0.45413313,0,0)" />
  <rect
     style="fill:#ffffff;fill-opacity:1;stroke:none"
     id="rect8196"
     width="66.485374"
     height="207.76685"
     x="2691.0781"
     y="-1901.76"
     transform="matrix(-0.01695847,0.99985619,-0.99985619,-0.01695847,0,0)" />
  <rect
     style="fill:#ffffff;fill-opacity:1;stroke:none"
     id="rect8198"
     width="66.485382"
     height="207.76682"
     x="435.36249"
     y="-2569.8215"
     transform="matrix(-0.83938293,0.54354052,-0.54354067,-0.83938283,0,0)" />
  <rect
     style="fill:#ff0000;fill-opacity:1;stroke:none"
     id="rect8200"
     width="66.485374"
     height="207.76685"
     x="548.4978"
     y="-2793.7273"
     transform="matrix(0,1,-1,0,0,0)" />
  <rect
     style="fill:#ff0000;fill-opacity:1;stroke:none"
     id="rect8202"
     width="66.485374"
     height="207.76685"
     x="785.8714"
     y="-2783.415"
     transform="matrix(0,1,-1,0,0,0)" />
  <rect
     style="fill:#ff0000;fill-opacity:1;stroke:none"
     id="rect8204"
     width="66.485374"
     height="207.76685"
     x="1016.2327"
     y="-2786.8528"
     transform="matrix(0,1,-1,0,0,0)" />
  <rect
     style="fill:#ff0000;fill-opacity:1;stroke:none"
     id="rect8206"
     width="66.48539"
     height="207.7668"
     x="-2890.1848"
     y="-802.54767"
     transform="scale(-1,-1)" />
  <rect
     style="fill:#ff0000;fill-opacity:1;stroke:none"
     id="rect8208"
     width="66.48539"
     height="207.7668"
     x="-2891.5222"
     y="-1039.8662"
     transform="scale(-1,-1)" />
  <rect
     style="fill:#ff0000;fill-opacity:1;stroke:none"
     id="rect8210"
     width="66.485374"
     height="207.76685"
     x="1537.0405"
     y="-1945.6251"
     transform="matrix(0.19691814,0.98041993,-0.98041995,0.19691806,0,0)" />
  <rect
     style="fill:#ff0000;fill-opacity:1;stroke:none"
     id="rect8212"
     width="66.485374"
     height="207.76685"
     x="1555.5989"
     y="-2123.7961"
     transform="matrix(0.10964487,0.99397083,-0.99397083,0.10964483,0,0)"
     inkscape:transform-center-y="-26.022346"
     inkscape:transform-center-x="8.8919522" />
  <rect
     style="fill:#ff0000;fill-opacity:1;stroke:none"
     id="rect8214"
     width="66.485374"
     height="207.76685"
     x="1155.6981"
     y="-1626.7701"
     transform="matrix(0,1,-1,0,0,0)" />
  <rect
     style="fill:#ff0000;fill-opacity:1;stroke:none"
     id="rect8216"
     width="66.485374"
     height="207.76685"
     x="2386.4541"
     y="-1633.3386"
     transform="matrix(0,1,-1,0,0,0)" />
  <rect
     style="fill:#ff0000;fill-opacity:1;stroke:none"
     id="rect8220"
     width="66.48539"
     height="207.7668"
     x="-1441.9578"
     y="-2253.2246"
     transform="scale(-1,-1)" />
  <rect
     style="fill:#ff0000;fill-opacity:1;stroke:none"
     id="rect8222"
     width="66.48539"
     height="207.7668"
     x="-1441.8964"
     y="-1882.881"
     transform="scale(-1,-1)" />
  <rect
     style="fill:#ff0000;fill-opacity:1;stroke:none"
     id="rect8224"
     width="66.48539"
     height="207.7668"
     x="-1438.5814"
     y="-1573.0482"
     transform="scale(-1,-1)" />
  <rect
     style="fill:#ff0000;fill-opacity:1;stroke:none"
     id="rect8226"
     width="66.48539"
     height="207.7668"
     x="-1673.432"
     y="-2249.8484"
     transform="scale(-1,-1)" />
  <rect
     style="fill:#ff0000;fill-opacity:1;stroke:none"
     id="rect8228"
     width="66.48539"
     height="207.7668"
     x="-1673.3707"
     y="-1879.7648"
     transform="scale(-1,-1)" />
  <rect
     style="fill:#ff0000;fill-opacity:1;stroke:none"
     id="rect8230"
     width="66.485367"
     height="207.76685"
     x="-1858.2072"
     y="1299.1923"
     transform="matrix(-0.2398035,-0.97082145,0.97082147,-0.23980341,0,0)"
     inkscape:transform-center-x="51.558834"
     inkscape:transform-center-y="-63.385964" />
  <rect
     style="fill:#ff0000;fill-opacity:1;stroke:none"
     id="rect8232"
     width="66.485374"
     height="207.76685"
     x="-1878.6193"
     y="1090.3779"
     transform="matrix(-0.3620327,-0.93216539,0.93216544,-0.36203258,0,0)"
     inkscape:transform-center-x="2.256754"
     inkscape:transform-center-y="281.13443" />
  <g
     transform="matrix(16.247529,0,0,16.247526,327.57032,336.01958)"
     id="g4102"
     style="stroke:#b4b4b4;stroke-opacity:1">
    <path
       inkscape:connector-curvature="0"
       style="fill:none;stroke:#b4b4b4;stroke-width:0.1;stroke-miterlimit:4;stroke-opacity:1;stroke-dasharray:none"
       d="M 87.59498,7.0240997 C 43.092363,7.5884477 7.1491142,43.884445 7.1491142,88.520174 c 0,44.987176 36.5088818,81.496056 81.4960568,81.496056 44.987179,0 81.496049,-36.50888 81.496039,-81.496056 0,-0.351476 -0.004,-0.699778 -0.01,-1.050199 l 0,-64.219307 C 169.95267,14.3049 162.67442,7.0914917 153.70144,7.0240997 l -65.056269,0 c -0.124201,0 -0.247475,0 -0.371121,0 -0.226245,0 -0.452486,-0.0029 -0.67907,0 z"
       id="path3021" />
    <path
       inkscape:connector-curvature="0"
       style="fill:none;stroke:#b4b4b4;stroke-width:0.1;stroke-miterlimit:4;stroke-opacity:1;stroke-dasharray:none"
       d="m 89.071554,25.666877 c 15.175246,0.128207 30.177306,5.955126 41.557386,15.973896 17.03463,14.722776 24.21617,39.17932 19.4008,61.029287 -4.20881,20.34612 -19.9415,37.32895 -39.228,44.58951 -20.014669,8.0773 -44.057063,4.19583 -60.895032,-9.16744 C 31.21718,123.81001 22.178281,98.463782 26.928942,75.491537 32.574212,47.656149 59.140209,25.807138 87.602878,25.674788 c 0.489771,-0.0078 0.979159,-0.01204 1.468676,-0.0079 z"
       id="path3017" />
    <path
       d="M 64.256759,111.11905 64.145552,68.607962 c 0.153951,-0.982344 0.02565,2.300748 0.02566,-0.155334 -1.9e-5,-2.455948 -0.0511,-1.877602 0.102888,-7.362792 0.10262,-2.264925 -0.0247,-4.175159 0.710948,-6.658541 0.923796,-3.06994 1.963698,-3.935388 5.505022,-3.935468 7.698444,8e-5 11.547681,1.350888 11.547719,4.052426 -3.8e-5,2.087686 0.07694,3.561295 0.230955,4.420827 0.923777,7.2e-5 5.38889,-1.657737 13.395347,-4.973431 8.006369,-3.31554 14.858019,-4.973349 20.554959,-4.97343 2.30946,8.1e-5 3.84915,0.491283 4.61908,1.473608 0.92375,0.859686 1.38565,2.947295 1.38573,6.262839 -8e-5,3.315691 -0.53897,5.833105 -1.61669,7.552247 -0.92388,0.122867 -2.61754,0.307068 -5.08099,0.552604 -2.30961,0.245667 -4.08026,0.429868 -5.31195,0.552603 -1.07785,0.122866 -2.69453,0.368467 -4.85004,0.736805 -2.15563,0.245666 -3.8493,0.491266 -5.08099,0.736805 -1.231824,0.122863 -2.771514,0.368465 -4.619109,0.736804 -1.693703,0.245664 -3.15642,0.552666 -4.388126,0.921006 -1.077835,0.368464 -2.232606,0.736866 -3.464317,1.105207 -2.463555,0.736864 -4.157219,1.71927 -5.080995,2.947218 l 0,11.973074 0.461909,31.314201 0,2.76302 c -4.1e-5,0.49121 -4.1e-5,1.53502 0,3.13142 -4.1e-5,1.47361 -0.07703,2.70162 -0.230955,3.68402 -4e-5,0.98241 -0.307979,1.96482 -0.923818,2.94721 -1.231794,1.59641 -4.465152,2.39462 -9.700083,2.39462 -5.081021,0 -4.881828,-0.50172 -5.805624,-0.99293 -1.847653,-0.9824 -2.258235,-7.18482 -2.258218,-18.8509"
       style="font-size:163.52767944px;font-style:normal;font-variant:normal;font-weight:normal;font-stretch:normal;line-height:125%;letter-spacing:0px;word-spacing:0px;fill:none;stroke:#b4b4b4;stroke-width:0.1;stroke-miterlimit:4;stroke-opacity:1;stroke-dasharray:none;font-family:Cagliostro;-inkscape-font-specification:Cagliostro"
       id="path3024-5"
       inkscape:connector-curvature="0"
       sodipodi:nodetypes="cccccccccccccccccccccccccccscc" />
    <path
       sodipodi:nodetypes="ccssccccscccccccccccscsscccsccccccccccccccc"
       inkscape:connector-curvature="0"
       id="text3841"
       d="m 149.7138,13.987932 c -1.32553,2.7e-5 -2.62461,0.257085 -3.90625,0.75 -0.62148,0.231543 -1.11241,0.45435 -1.53125,0.75 -0.41884,0.29565 -0.90625,0.759786 -0.90625,1.5 0,0.663817 0.40518,1.160603 0.8125,1.5 l 0.0313,0.03125 0.0313,0.03125 c 0.35631,0.246706 0.59688,0.500107 1.28125,0.5 0.37286,5.8e-5 0.44173,-0.06478 0.71875,-0.125 0.27702,-0.06022 0.63946,-0.136417 1.09375,-0.25 0.86047,-0.215098 1.49097,-0.312491 1.65625,-0.3125 0.9441,1.8e-5 1.45696,0.231922 1.78125,0.53125 0.37549,0.34662 0.53124,0.678756 0.53125,1.25 -1e-5,0.640635 -0.16307,1.196052 -0.5,1.78125 l 0,0.03125 c -0.35664,0.65384 -0.87658,1.364743 -1.53125,2.125 l 0,0.03125 c -0.68228,0.818742 -1.10471,1.360807 -1.375,1.78125 l -0.21875,0.3125 0.0313,0.375 c 0.0802,0.801682 0.52033,0.997875 0.84375,1.21875 0.32342,0.220875 0.7063,0.408469 1.1875,0.625 1.85354,0.819471 2.53124,1.822411 2.53125,3.53125 0,1.748618 -0.49785,2.855461 -1.5625,3.6875 -1.06465,0.832039 -2.84616,1.383747 -5.375,1.46875 l -0.8125,0.03125 -0.21875,0.8125 c -0.0736,0.294251 -0.0937,0.593199 -0.0937,0.90625 0,0.679577 0.36108,1.143664 0.75,1.5625 0.49182,0.526948 1.2146,0.874998 1.9375,0.875 0.005,-8.92e-4 0.0313,0 0.0313,0 2.92862,-0.09524 5.48361,-0.89659 7.5625,-2.40625 2.16071,-1.550635 3.31249,-3.889112 3.3125,-6.65625 -10e-6,-1.497939 -0.44542,-2.89591 -1.3125,-4.0625 -0.004,-0.0063 0.004,-0.02497 0,-0.03125 l -0.0313,0 c -0.7336,-1.019812 -1.69788,-1.856585 -2.84375,-2.5 0.40846,-0.397827 0.81152,-0.803193 1.1875,-1.21875 0.51349,-0.594568 0.96357,-1.347494 1.375,-2.21875 0.43571,-0.948326 0.68749,-1.91295 0.6875,-2.875 -1e-5,-1.626016 -0.77556,-3.09116 -2.125,-4 -1.33366,-0.925361 -3.04244,-1.343724 -5.03125,-1.34375 z"
       style="font-size:33.60087967px;font-style:normal;font-variant:normal;font-weight:normal;font-stretch:normal;text-indent:0;text-align:start;text-decoration:none;line-height:125%;letter-spacing:0px;word-spacing:0px;text-transform:none;direction:ltr;block-progression:tb;writing-mode:lr-tb;text-anchor:start;baseline-shift:baseline;color:#000000;fill:none;stroke:#b4b4b4;stroke-width:0.1;stroke-miterlimit:4;stroke-opacity:1;stroke-dasharray:none;marker:none;visibility:visible;display:inline;overflow:visible;enable-background:accumulate;font-family:Varela Round;-inkscape-font-specification:Varela Round" />
  </g>
</svg>
