<?xml version="1.0" encoding="UTF-8" standalone="no"?>
<!-- Created with Inkscape (http://www.inkscape.org/) -->
<svg
   xmlns:dc="http://purl.org/dc/elements/1.1/"
   xmlns:cc="http://creativecommons.org/ns#"
   xmlns:rdf="http://www.w3.org/1999/02/22-rdf-syntax-ns#"
   xmlns:svg="http://www.w3.org/2000/svg"
   xmlns="http://www.w3.org/2000/svg"
   xmlns:sodipodi="http://sodipodi.sourceforge.net/DTD/sodipodi-0.dtd"
   xmlns:inkscape="http://www.inkscape.org/namespaces/inkscape"
   version="1.0"
   width="637.79529"
   height="761.81696"
   id="svg2"
   sodipodi:version="0.32"
   inkscape:version="0.46"
   sodipodi:docname="logo-schrift-bl.svg"
   inkscape:output_extension="org.inkscape.output.svg.inkscape">
  <metadata
     id="metadata8">
    <rdf:RDF>
      <cc:Work
         rdf:about="">
        <dc:format>image/svg+xml</dc:format>
        <dc:type
           rdf:resource="http://purl.org/dc/dcmitype/StillImage" />
      </cc:Work>
    </rdf:RDF>
  </metadata>
  <sodipodi:namedview
     inkscape:window-height="1144"
     inkscape:window-width="1919"
     inkscape:pageshadow="2"
     inkscape:pageopacity="0.0"
     guidetolerance="10.0"
     gridtolerance="10.0"
     objecttolerance="10.0"
     borderopacity="1.0"
     bordercolor="#666666"
     pagecolor="#ffffff"
     id="base"
     showgrid="false"
     inkscape:zoom="0.64844973"
     inkscape:cx="-10.349158"
     inkscape:cy="380.90848"
     inkscape:window-x="1"
     inkscape:window-y="55"
     inkscape:current-layer="svg2" />
  <defs
     id="defs4">
    <inkscape:perspective
       sodipodi:type="inkscape:persp3d"
       inkscape:vp_x="0 : 380.90848 : 1"
       inkscape:vp_y="0 : 1000 : 0"
       inkscape:vp_z="637.79529 : 380.90848 : 1"
       inkscape:persp3d-origin="318.89764 : 253.93899 : 1"
       id="perspective10" />
  </defs>
  <path
     style="fill:#000000;fill-opacity:1;stroke:none;stroke-width:0.98720366000000004;stroke-linejoin:round;stroke-miterlimit:4;stroke-dasharray:none;stroke-opacity:1"
     id="rect3134"
     d="M 314.79457,0.49953 C 140.92341,2.70438 0.493602,144.51239 0.493602,318.90357 C 0.493602,494.6679 143.13333,637.30761 318.89764,637.3076 C 494.66197,637.3076 637.30168,494.66791 637.30167,318.90357 C 637.30167,317.5304 637.28818,316.16956 637.27082,314.8005 L 637.27082,63.89651 C 636.56502,28.9455 608.12901,0.76276 573.07173,0.49953 L 318.89764,0.49953 C 318.41239,0.49953 317.93076,0.50156 317.44768,0.49953 C 316.56375,0.49579 315.67983,0.4883 314.79457,0.49953 z M 556.62862,48.1938 C 566.67794,48.19388 574.20715,49.8455 579.18006,53.16067 C 584.18742,56.44146 586.67656,61.4 586.67664,68.03043 C 586.67653,72.55444 585.48081,76.26655 583.09802,79.16732 C 580.71514,82.03368 577.20928,84.03984 572.54728,85.21394 C 577.7618,86.56081 581.70002,88.89801 584.39373,92.24777 C 587.12179,95.56302 588.49675,99.81252 588.49679,104.95802 C 588.49674,112.62455 585.54434,118.44413 579.67366,122.45003 C 573.80285,126.42141 565.26436,128.4041 554.00636,128.4041 C 550.03499,128.4041 546.04241,128.10389 542.03652,127.44775 C 538.06512,126.82612 534.12323,125.85642 530.22092,124.57869 L 530.22092,109.21533 C 533.95053,111.08016 537.63552,112.47486 541.29612,113.4418 C 544.99123,114.37423 548.6292,114.86094 552.18621,114.8609 C 557.46985,114.86094 561.51301,113.94556 564.3103,112.11524 C 567.14202,110.28496 568.53673,107.63647 568.53677,104.21761 C 568.53675,100.69521 567.08771,98.05406 564.1869,96.25828 C 561.32059,94.42801 557.07478,93.51266 551.4458,93.51262 L 543.48647,93.51262 L 543.48647,80.64812 L 551.87771,80.64812 C 556.88505,80.6482 560.59349,79.88843 563.04545,78.33437 C 565.49727,76.74583 566.74742,74.32713 566.74746,71.11544 C 566.74745,68.14561 565.55162,65.85901 563.16885,64.23586 C 560.78599,62.61282 557.40122,61.79878 553.05001,61.7987 C 549.83832,61.79878 546.61293,62.15331 543.33222,62.87846 C 540.05155,63.60373 536.76808,64.70188 533.52189,66.11772 L 533.52189,51.49477 C 537.45875,50.38976 541.37715,49.54853 545.24493,48.99591 C 549.11267,48.44345 552.89894,48.19388 556.62862,48.1938 z M 320.56354,73.33665 C 379.85301,73.83754 438.46579,96.60324 482.9277,135.74643 C 549.48177,193.26809 577.53998,288.81946 558.72643,374.18697 C 542.28263,453.679 480.81525,520.03068 405.46306,548.39757 C 327.26603,579.9555 233.3327,564.79075 167.54697,512.58058 C 94.52722,456.78053 59.21237,357.75321 77.77314,268.00087 C 99.82914,159.24837 203.62214,73.88461 314.82542,73.3675 C 316.73895,73.33714 318.65098,73.32049 320.56354,73.33665 z M 441.05997,271.48635 C 433.4709,267.93434 425.88211,265.35092 418.29349,263.73606 C 410.86594,261.96017 403.35787,261.07209 395.76924,261.0719 C 373.48697,261.07209 356.29106,268.25727 344.18139,282.6274 C 332.2329,296.83645 326.25874,317.26163 326.25886,343.90309 L 326.25886,468.87647 L 239.55252,468.87647 L 239.55252,197.61643 L 326.25886,197.61643 L 326.25886,242.18057 C 337.39974,224.41975 350.15543,211.50262 364.52591,203.42912 C 379.05749,195.19476 396.4149,191.07739 416.59812,191.07711 C 419.50428,191.07739 422.65283,191.23886 426.04378,191.56151 C 429.43433,191.72326 434.35899,192.20766 440.81779,193.01471 L 441.05997,271.48635" />
  <path
     style="font-size:30.28391075px;font-style:normal;font-variant:normal;font-weight:bold;font-stretch:normal;text-align:start;line-height:100%;writing-mode:lr-tb;text-anchor:start;fill:#000000;fill-opacity:1;stroke:none;stroke-width:1px;stroke-linecap:butt;stroke-linejoin:miter;stroke-opacity:1;font-family:ae_AlMothnna"
     id="text5129"
     d="M 52.31129,708.75118 C 50.34116,707.82912 48.37112,707.15845 46.40111,706.73921 C 44.47292,706.2782 42.52383,706.04766 40.55383,706.04762 C 34.76936,706.04766 30.3053,707.91292 27.16163,711.64342 C 24.0598,715.33205 22.508913,720.63446 22.508943,727.55055 L 22.508943,759.99362 L 0,759.99362 L 0,689.5746 L 22.508943,689.5746 L 22.508943,701.14344 C 25.40112,696.53274 28.7125,693.17941 32.44306,691.08358 C 36.21546,688.94591 40.72144,687.87705 45.96099,687.87701 C 46.71543,687.87705 47.53279,687.91898 48.41309,688.00273 C 49.29327,688.04469 50.5717,688.17047 52.24842,688.37996 L 52.31129,708.75118 M 133.92191,724.59547 L 133.92191,731.00864 L 81.29627,731.00864 C 81.84116,736.29009 83.74833,740.25118 87.0178,742.89186 C 90.28722,745.53259 94.8561,746.85296 100.72437,746.85292 C 105.46084,746.85296 110.30214,746.16134 115.24828,744.77808 C 120.23626,743.35294 125.35002,741.21523 130.5896,738.36492 L 130.5896,755.71818 C 125.26618,757.73017 119.94284,759.23911 114.61955,760.24512 C 109.29616,761.29302 103.97283,761.81695 98.64953,761.81695 C 85.90702,761.81695 75.99386,758.58944 68.91007,752.13437 C 61.86814,745.63736 58.3472,736.54159 58.34721,724.84698 C 58.3472,713.36203 61.80528,704.3291 68.72145,697.7482 C 75.67951,691.16748 85.23636,687.87705 97.39206,687.87701 C 108.45785,687.87705 117.30211,691.2094 123.92493,697.87397 C 130.58951,704.53869 133.92182,713.44583 133.92191,724.59547 M 110.78422,717.11345 C 110.78418,712.83806 109.5267,709.40093 107.0118,706.80208 C 104.53868,704.16145 101.29018,702.84107 97.26628,702.84104 C 92.90699,702.84107 89.36507,704.07761 86.64058,706.55059 C 83.91599,708.98177 82.21839,712.50276 81.54777,717.11345 L 110.78422,717.11345 M 182.46077,728.30507 C 177.76613,728.30511 174.22419,729.10149 171.83502,730.69428 C 169.48766,732.28712 168.31405,734.63441 168.31408,737.73619 C 168.31405,740.58649 169.25717,742.82897 171.14338,744.46368 C 173.07153,746.05652 175.73318,746.85296 179.12841,746.85292 C 183.36188,746.85296 186.92478,745.34398 189.81701,742.32597 C 192.70919,739.26612 194.15529,735.45177 194.15534,730.8829 L 194.15534,728.30507 L 182.46077,728.30507 M 216.8529,719.81702 L 216.8529,759.99362 L 194.15534,759.99362 L 194.15534,749.55653 C 191.13733,753.83196 187.74213,756.9547 183.96975,758.92476 C 180.19722,760.8529 175.60745,761.81695 170.2003,761.81695 C 162.90685,761.81695 156.97573,759.7002 152.40692,755.46668 C 147.87997,751.19123 145.61648,745.65832 145.61652,738.86793 C 145.61648,730.61047 148.44582,724.55359 154.10452,720.69727 C 159.80509,716.84103 168.7332,714.91288 180.8889,714.91284 L 194.15534,714.91284 L 194.15534,713.15241 C 194.15529,709.58955 192.75109,706.99079 189.94279,705.35599 C 187.13435,703.6794 182.75411,702.84107 176.80208,702.84104 C 171.98171,702.84107 167.49669,703.32313 163.34702,704.28714 C 159.19731,705.25126 155.34103,706.69736 151.77818,708.62547 L 151.77818,691.46081 C 156.59851,690.28723 161.4398,689.40699 166.3021,688.82009 C 171.16435,688.19143 176.0266,687.87705 180.8889,687.87701 C 193.58941,687.87705 202.74805,690.392 208.36491,695.42185 C 214.02351,700.40994 216.85281,708.54165 216.8529,719.81702 M 237.91575,662.16148 L 260.42469,662.16148 L 260.42469,759.99362 L 237.91575,759.99362 L 237.91575,662.16148 M 334.49042,708.75118 C 332.52031,707.82912 330.55024,707.15845 328.58026,706.73921 C 326.65203,706.2782 324.70293,706.04766 322.73296,706.04762 C 316.9485,706.04766 312.48444,707.91292 309.34075,711.64342 C 306.23894,715.33205 304.68802,720.63446 304.68806,727.55055 L 304.68806,759.99362 L 282.17912,759.99362 L 282.17912,689.5746 L 304.68806,689.5746 L 304.68806,701.14344 C 307.58026,696.53274 310.8916,693.17941 314.62219,691.08358 C 318.39459,688.94591 322.90057,687.87705 328.14014,687.87701 C 328.89457,687.87705 329.71192,687.91898 330.59221,688.00273 C 331.47241,688.04469 332.75085,688.17047 334.42753,688.37996 L 334.49042,708.75118 M 377.37058,728.30507 C 372.67594,728.30511 369.13405,729.10149 366.74487,730.69428 C 364.39753,732.28712 363.2239,734.63441 363.2239,737.73619 C 363.2239,740.58649 364.16699,742.82897 366.05324,744.46368 C 367.98134,746.05652 370.64303,746.85296 374.03827,746.85292 C 378.27175,746.85296 381.83459,745.34398 384.72687,742.32597 C 387.61902,739.26612 389.06515,735.45177 389.0652,730.8829 L 389.0652,728.30507 L 377.37058,728.30507 M 411.76277,719.81702 L 411.76277,759.99362 L 389.0652,759.99362 L 389.0652,749.55653 C 386.04718,753.83196 382.65199,756.9547 378.87956,758.92476 C 375.10709,760.8529 370.5173,761.81695 365.11016,761.81695 C 357.81672,761.81695 351.8856,759.7002 347.31678,755.46668 C 342.78983,751.19123 340.52635,745.65832 340.52635,738.86793 C 340.52635,730.61047 343.35568,724.55359 349.01437,720.69727 C 354.71495,716.84103 363.64305,714.91288 375.79876,714.91284 L 389.0652,714.91284 L 389.0652,713.15241 C 389.06515,709.58955 387.66094,706.99079 384.85264,705.35599 C 382.04422,703.6794 377.66397,702.84107 371.71193,702.84104 C 366.89156,702.84107 362.40654,703.32313 358.25688,704.28714 C 354.10717,705.25126 350.25089,706.69736 346.68803,708.62547 L 346.68803,691.46081 C 351.50836,690.28723 356.34967,689.40699 361.21195,688.82009 C 366.07416,688.19143 370.93646,687.87705 375.79876,687.87701 C 388.49926,687.87705 397.65791,690.392 403.27476,695.42185 C 408.93332,700.40994 411.76267,708.54165 411.76277,719.81702 M 432.0711,732.58049 L 432.0711,689.5746 L 454.70577,689.5746 L 454.70577,696.6165 C 454.70573,700.4309 454.68476,705.2303 454.64289,711.01469 C 454.60095,716.75722 454.57999,720.59254 454.58003,722.52063 C 454.57999,728.17933 454.72669,732.26615 455.02015,734.78111 C 455.31351,737.25418 455.8165,739.05654 456.5291,740.18825 C 457.45122,741.65535 458.64585,742.78709 460.11296,743.58348 C 461.62189,744.37988 463.34045,744.77808 465.26863,744.77808 C 469.96319,744.77808 473.65177,742.97571 476.33447,739.37089 C 479.01703,735.76616 480.35837,730.75717 480.35841,724.34396 L 480.35841,689.5746 L 502.86736,689.5746 L 502.86736,759.99362 L 480.35841,759.99362 L 480.35841,749.80799 C 476.96316,753.91576 473.35839,756.9547 469.54408,758.92476 C 465.77156,760.8529 461.60093,761.81695 457.03211,761.81695 C 448.90035,761.81695 442.69681,759.32296 438.42136,754.33494 C 434.18781,749.34695 432.07106,742.09547 432.0711,732.58049 M 589.88511,701.26917 C 592.73541,696.90998 596.10961,693.59858 600.00791,691.33504 C 603.94791,689.02975 608.26531,687.87705 612.96001,687.87701 C 621.04971,687.87705 627.21141,690.37108 631.44501,695.35902 C 635.67841,700.34708 637.79511,707.59858 637.79531,717.11345 L 637.79531,759.99362 L 615.16061,759.99362 L 615.16061,723.27511 C 615.20241,722.73026 615.22341,722.16437 615.22351,721.57751 C 615.26531,720.99074 615.28621,720.15242 615.28631,719.06256 C 615.28621,714.07457 614.55271,710.46979 613.08571,708.24819 C 611.61861,705.98478 609.25031,704.85307 605.98091,704.85299 C 601.70541,704.85307 598.39411,706.61351 596.04681,710.13444 C 593.74141,713.65541 592.54681,718.74821 592.46301,725.41283 L 592.46301,759.99362 L 569.82834,759.99362 L 569.82834,723.27511 C 569.82828,715.47878 569.15762,710.46979 567.81634,708.24819 C 566.47498,705.98478 564.08579,704.85307 560.64871,704.85299 C 556.3313,704.85307 552.99899,706.63448 550.65173,710.19728 C 548.3044,713.7183 547.13072,718.76916 547.13077,725.34999 L 547.13077,759.99362 L 524.4961,759.99362 L 524.4961,689.5746 L 547.13077,689.5746 L 547.13077,699.88592 C 549.89719,695.90401 553.06184,692.907 556.62478,690.89491 C 560.22951,688.88301 564.19055,687.87705 568.50796,687.87701 C 573.37017,687.87705 577.66661,689.05072 581.39721,691.39793 C 585.12761,693.74531 587.95701,697.03569 589.88511,701.26917" />
</svg>
