<?xml version="1.0" encoding="UTF-8" standalone="no"?>
<!-- Created with Inkscape (http://www.inkscape.org/) -->

<svg
   xmlns:dc="http://purl.org/dc/elements/1.1/"
   xmlns:cc="http://creativecommons.org/ns#"
   xmlns:rdf="http://www.w3.org/1999/02/22-rdf-syntax-ns#"
   xmlns:svg="http://www.w3.org/2000/svg"
   xmlns="http://www.w3.org/2000/svg"
   xmlns:sodipodi="http://sodipodi.sourceforge.net/DTD/sodipodi-0.dtd"
   xmlns:inkscape="http://www.inkscape.org/namespaces/inkscape"
   version="1.0"
   width="177.16534"
   height="177.16534"
   id="svg2"
   sodipodi:version="0.32"
   inkscape:version="0.48.5 r10040"
   sodipodi:docname="logo-piday.svg"
   inkscape:output_extension="org.inkscape.output.svg.inkscape"
   inkscape:export-filename="/home/equinox/realraum/git/logo/logo-aktuell.png"
   inkscape:export-xdpi="275.48813"
   inkscape:export-ydpi="275.48813">
  <sodipodi:namedview
     inkscape:window-height="998"
     inkscape:window-width="1400"
     inkscape:pageshadow="2"
     inkscape:pageopacity="0.0"
     guidetolerance="10.0"
     gridtolerance="10.0"
     objecttolerance="10.0"
     borderopacity="1.0"
     bordercolor="#666666"
     pagecolor="#ffffff"
     id="base"
     showgrid="false"
     inkscape:zoom="1.7982365"
     inkscape:cx="353.74234"
     inkscape:cy="88.65042"
     inkscape:window-x="0"
     inkscape:window-y="28"
     inkscape:current-layer="g4588"
     inkscape:document-units="mm"
     units="mm"
     showguides="true"
     inkscape:guide-bbox="true"
     inkscape:window-maximized="1"
     showborder="false"
     inkscape:showpageshadow="false" />
  <metadata
     id="metadata8">
    <rdf:RDF>
      <cc:Work
         rdf:about="">
        <dc:format>image/svg+xml</dc:format>
        <dc:type
           rdf:resource="http://purl.org/dc/dcmitype/StillImage" />
        <dc:title />
      </cc:Work>
    </rdf:RDF>
  </metadata>
  <defs
     id="defs4">
    <inkscape:perspective
       sodipodi:type="inkscape:persp3d"
       inkscape:vp_x="0 : 380.90848 : 1"
       inkscape:vp_y="0 : 1000 : 0"
       inkscape:vp_z="637.79529 : 380.90848 : 1"
       inkscape:persp3d-origin="318.89764 : 253.93899 : 1"
       id="perspective10" />
  </defs>
  <text
     xml:space="preserve"
     style="font-size:18.78186989px;font-style:normal;font-weight:normal;line-height:125%;letter-spacing:0px;word-spacing:0px;fill:#000000;fill-opacity:1;stroke:none;font-family:Sans"
     x="78.897285"
     y="170.19858"
     id="text3529"
     sodipodi:linespacing="125%"><tspan
       sodipodi:role="line"
       id="tspan3531"
       x="78.897285"
       y="170.19858"
       style="font-style:normal;font-variant:normal;font-weight:normal;font-stretch:normal;font-family:Trebuchet MS;-inkscape-font-specification:Trebuchet MS" /></text>
  <text
     xml:space="preserve"
     style="font-size:28px;font-style:normal;font-weight:normal;line-height:125%;letter-spacing:0px;word-spacing:0px;fill:#000000;fill-opacity:1;stroke:none;font-family:Sans"
     x="89.766304"
     y="169.21729"
     id="text3537"
     sodipodi:linespacing="125%"><tspan
       sodipodi:role="line"
       id="tspan3539"
       x="89.766304"
       y="169.21729" /></text>
  <text
     xml:space="preserve"
     style="font-size:36px;font-style:normal;font-variant:normal;font-weight:bold;font-stretch:normal;line-height:125%;letter-spacing:0px;word-spacing:0px;fill:#000000;fill-opacity:1;stroke:none;font-family:Cagliostro;-inkscape-font-specification:Cagliostro Bold"
     x="-35.433067"
     y="68.609253"
     id="text3705"
     sodipodi:linespacing="125%"><tspan
       sodipodi:role="line"
       id="tspan3707"
       x="-35.433067"
       y="68.609253" /></text>
  <g
     id="g4588">
    <g
       id="text4481"
       style="font-size:36px;font-style:normal;font-variant:normal;font-weight:normal;font-stretch:normal;line-height:125%;letter-spacing:0px;word-spacing:0px;fill:#000000;fill-opacity:1;stroke:none;font-family:Cagliostro;-inkscape-font-specification:Cagliostro">
      <text
         xml:space="preserve"
         style="font-size:36px;font-style:normal;font-variant:normal;font-weight:normal;font-stretch:normal;line-height:125%;letter-spacing:0px;word-spacing:0px;fill:#000000;fill-opacity:1;stroke:none;font-family:Cagliostro;-inkscape-font-specification:Cagliostro"
         x="207.38721"
         y="43.990231"
         id="text4823"
         sodipodi:linespacing="125%"><tspan
           sodipodi:role="line"
           id="tspan4825"
           x="207.38721"
           y="43.990231" /></text>
      <text
         xml:space="preserve"
         style="font-size:36px;font-style:normal;font-variant:normal;font-weight:normal;font-stretch:normal;line-height:125%;letter-spacing:0px;word-spacing:0px;fill:#000000;fill-opacity:1;stroke:none;font-family:Cagliostro;-inkscape-font-specification:Cagliostro"
         x="199.12076"
         y="38.427773"
         id="text4827"
         sodipodi:linespacing="125%"><tspan
           sodipodi:role="line"
           id="tspan4829"
           x="199.12076"
           y="38.427773" /></text>
    </g>
    <g
       id="g5414">
      <path
         style="fill:#000000;fill-opacity:1;stroke:none"
         d="M 87.5 -0.0625 C 39.127621 0.55090627 0.0625 40.015379 0.0625 88.53125 C 0.0625 137.42913 39.757178 177.09375 88.65625 177.09375 C 137.55533 177.09375 177.21876 137.42913 177.21875 88.53125 C 177.21875 88.149221 177.22575 87.755884 177.21875 87.375 L 177.21875 17.5625 C 177.02472 7.8390858 169.12824 0.01075027 159.375 -0.0625 L 88.65625 -0.0625 L 88.25 -0.0625 C 88.00408 -0.0625 87.746288 -0.0656524 87.5 -0.0625 z M 155.875 8.75 C 158.01439 8.750028 159.83904 9.1868243 161.28125 10.1875 C 162.74125 11.170806 163.59373 12.771953 163.59375 14.53125 C 163.59373 15.57204 163.34492 16.602216 162.875 17.625 L 162.875 17.65625 L 162.84375 17.65625 C 162.40122 18.593374 161.93012 19.388484 161.375 20.03125 C 160.98463 20.462714 160.54794 20.898884 160.125 21.3125 C 161.32602 22.000534 162.38151 22.859556 163.15625 23.9375 C 163.16525 23.94948 163.1785 23.95672 163.1875 23.96875 C 164.1195 25.227158 164.59373 26.731323 164.59375 28.34375 C 164.59373 31.324307 163.36073 33.89075 161.03125 35.5625 L 161.03125 35.53125 L 161 35.53125 C 158.76558 37.146202 156.01202 38.022981 152.875 38.125 C 152.8407 36.740449 152.84275 36.739312 152.84375 38.125 C 152.05371 38.124998 151.25574 37.762851 150.71875 37.1875 C 150.29654 36.732819 149.90625 36.190052 149.90625 35.4375 C 149.90625 35.098335 149.95085 34.790505 150.03125 34.46875 L 150.25 33.5625 L 151.1875 33.53125 C 153.88917 33.44044 155.74947 32.848366 156.875 31.96875 C 158.00053 31.089134 158.5625 29.922138 158.5625 28.0625 C 158.56249 26.252784 157.84539 25.214881 155.875 24.34375 C 155.35757 24.110915 154.94556 23.896513 154.59375 23.65625 C 154.24194 23.415987 153.74605 23.210355 153.65625 22.3125 L 153.625 21.875 L 153.84375 21.53125 C 154.13721 21.074756 154.61218 20.471645 155.34375 19.59375 L 155.375 19.59375 C 156.07417 18.781816 156.58928 18.008204 156.96875 17.3125 L 157 17.28125 C 157.35599 16.662962 157.49999 16.082003 157.5 15.40625 C 157.49999 14.808758 157.35936 14.454336 156.96875 14.09375 C 156.63588 13.786499 156.06408 13.562519 155.0625 13.5625 C 154.89758 13.562509 154.2324 13.676295 153.3125 13.90625 C 152.82542 14.028032 152.45414 14.12274 152.15625 14.1875 C 151.85836 14.25226 151.79174 14.28131 151.375 14.28125 C 150.61072 14.281369 150.35418 14.016866 149.96875 13.75 L 149.9375 13.71875 L 149.875 13.6875 C 149.43078 13.317355 149 12.736039 149 12 C 149 11.175896 149.54374 10.697068 150 10.375 C 150.45626 10.052932 150.98756 9.811633 151.65625 9.5625 C 153.036 9.031855 154.44702 8.750029 155.875 8.75 z M 89.09375 20.1875 C 105.58857 20.326853 121.91161 26.704058 134.28125 37.59375 C 152.79713 53.596363 160.60909 80.156875 155.375 103.90625 C 150.8002 126.02103 133.71358 144.45203 112.75 152.34375 C 90.994949 161.12321 64.83338 156.93118 46.53125 142.40625 C 26.216559 126.8826 16.398741 99.344201 21.5625 74.375 C 27.698659 44.119908 56.562336 20.362604 87.5 20.21875 C 88.032359 20.21025 88.561667 20.18301 89.09375 20.1875 z M 171.625 29.5625 C 172.59323 29.562503 173.53799 29.809265 174.21875 30.46875 C 174.89951 31.128235 175.15624 32.073892 175.15625 33.03125 C 175.15624 34.170835 174.73272 35.26727 173.9375 36.0625 C 173.14227 36.857725 172.04584 37.281249 170.90625 37.28125 C 170.03687 37.281249 169.28873 36.925571 168.46875 36.40625 L 168.4375 36.40625 C 167.43931 35.717845 166.84375 34.508731 166.84375 33.28125 C 166.84375 32.315862 167.38357 31.42499 168.125 30.8125 L 168.15625 30.8125 C 168.85989 30.255457 169.6261 29.84351 170.46875 29.65625 C 170.78274 31.051768 170.77027 31.033059 170.59375 29.625 C 171.00298 29.57385 171.32968 29.56251 171.625 29.5625 z M 118.625 45.59375 C 112.43267 45.593838 104.98382 47.396244 96.28125 51 C 87.578585 54.603924 82.722855 56.406329 81.71875 56.40625 C 81.551344 55.472 81.468709 53.862917 81.46875 51.59375 C 81.468709 48.65737 77.305368 47.187587 68.9375 47.1875 C 65.088237 47.187587 63.910375 48.131943 62.90625 51.46875 C 62.10663 54.16801 62.236545 56.225687 62.125 58.6875 C 61.957625 64.649512 62.03123 64.018059 62.03125 66.6875 C 62.03125 66.72917 62.031184 66.71133 62.03125 66.75 C 62.02235 66.78298 62.01184 66.799456 62 66.875 L 62.125 113.0625 C 62.1289 125.63562 62.62546 132.3431 64.625 133.40625 C 65.629125 133.94015 65.414654 134.5 70.9375 134.5 C 76.627638 134.5 80.129845 133.61018 81.46875 131.875 C 82.13814 130.80721 82.468707 129.75531 82.46875 128.6875 C 82.636057 127.6197 82.718705 126.28921 82.71875 124.6875 C 82.718705 122.95233 82.718705 121.81516 82.71875 121.28125 L 82.71875 118.28125 L 82.21875 84.25 L 82.21875 71.21875 C 83.222854 69.884058 85.072224 68.800919 87.75 68 C 89.088816 67.59964 90.328444 67.212994 91.5 66.8125 C 92.83881 66.41214 94.440268 66.07952 96.28125 65.8125 C 98.289506 65.412142 99.942316 65.133544 101.28125 65 C 102.62004 64.733117 104.50067 64.454522 106.84375 64.1875 C 109.18669 63.787143 110.92219 63.539797 112.09375 63.40625 C 113.43255 63.272846 115.36456 63.079522 117.875 62.8125 C 120.55266 62.54562 122.3708 62.321048 123.375 62.1875 C 124.54645 60.318914 125.15616 57.60392 125.15625 54 C 125.15616 50.396238 124.62906 48.121917 123.625 47.1875 C 122.78812 46.119782 121.13528 45.593838 118.625 45.59375 z "
         id="path4498" />
      <text
         sodipodi:linespacing="125%"
         id="text4831"
         y="36.278492"
         x="179.29486"
         style="font-size:36px;font-style:normal;font-variant:normal;font-weight:normal;font-stretch:normal;text-align:start;line-height:125%;letter-spacing:0px;word-spacing:0px;writing-mode:lr-tb;text-anchor:start;fill:#000000;fill-opacity:1;stroke:none;font-family:Cagliostro;-inkscape-font-specification:Cagliostro;stroke-width:2.12598425;stroke-miterlimit:4;stroke-dasharray:none"
         xml:space="preserve"><tspan
           style="stroke:#000000;stroke-width:2.12598425;stroke-miterlimit:4;stroke-opacity:1;stroke-dasharray:none"
           y="36.278492"
           x="179.29486"
           id="tspan4839"
           sodipodi:role="line">1415926535897932384626433832795</tspan></text>
    </g>
  </g>
</svg>
