  0
SECTION
  2
HEADER
  9
$ACADVER
  1
AC1014
  9
$HANDSEED
  5
FFFF
  9
$MEASUREMENT
 70
     1
  0
ENDSEC
  0
SECTION
  2
TABLES
  0
TABLE
  2
VPORT
  5
8
330
0
100
AcDbSymbolTable
 70
     4
  0
VPORT
  5
2E
330
8
100
AcDbSymbolTableRecord
100
AcDbViewportTableRecord
  2
*ACTIVE
 70
     0
 10
0.0
 20
0.0
 11
1.0
 21
1.0
 12
210.0
 22
148.5
 13
0.0
 23
0.0
 14
10.0
 24
10.0
 15
10.0
 25
10.0
 16
0.0
 26
0.0
 36
1.0
 17
0.0
 27
0.0
 37
0.0
 40
341.0
 41
1.24
 42
50.0
 43
0.0
 44
0.0
 50
0.0
 51
0.0
 71
     0
 72
   100
 73
     1
 74
     3
 75
     0
 76
     0
 77
     0
 78
     0
  0
ENDTAB
  0
TABLE
  2
LTYPE
  5
5
330
0
100
AcDbSymbolTable
 70
     1
  0
LTYPE
  5
14
330
5
100
AcDbSymbolTableRecord
100
AcDbLinetypeTableRecord
  2
BYBLOCK
 70
     0
  3

 72
    65
 73
     0
 40
0.0
  0
LTYPE
  5
15
330
5
100
AcDbSymbolTableRecord
100
AcDbLinetypeTableRecord
  2
BYLAYER
 70
     0
  3

 72
    65
 73
     0
 40
0.0
  0
LTYPE
  5
16
330
5
100
AcDbSymbolTableRecord
100
AcDbLinetypeTableRecord
  2
CONTINUOUS
 70
     0
  3
Solid line
 72
    65
 73
     0
 40
0.0
  0
ENDTAB
  0
TABLE
  2
LAYER
  5
2
100
AcDbSymbolTable
 70
1
  0
LAYER
  5
50
100
AcDbSymbolTableRecord
100
AcDbLayerTableRecord
  2
0
 70
0
  6
CONTINUOUS
  0
ENDTAB
  0
TABLE
  2
STYLE
  5
3
330
0
100
AcDbSymbolTable
 70
     1
  0
STYLE
  5
11
330
3
100
AcDbSymbolTableRecord
100
AcDbTextStyleTableRecord
  2
STANDARD
 70
     0
 40
0.0
 41
1.0
 50
0.0
 71
     0
 42
2.5
  3
txt
  4

  0
ENDTAB
  0
TABLE
  2
VIEW
  5
6
330
0
100
AcDbSymbolTable
 70
     0
  0
ENDTAB
  0
TABLE
  2
UCS
  5
7
330
0
100
AcDbSymbolTable
 70
     0
  0
ENDTAB
  0
TABLE
  2
APPID
  5
9
330
0
100
AcDbSymbolTable
 70
     2
  0
APPID
  5
12
330
9
100
AcDbSymbolTableRecord
100
AcDbRegAppTableRecord
  2
ACAD
 70
     0
  0
ENDTAB
  0
TABLE
  2
DIMSTYLE
  5
A
330
0
100
AcDbSymbolTable
 70
     1
  0
DIMSTYLE
105
27
330
A
100
AcDbSymbolTableRecord
100
AcDbDimStyleTableRecord
  2
ISO-25
 70
     0
  3

  4

  5

  6

  7

 40
1.0
 41
2.5
 42
0.625
 43
3.75
 44
1.25
 45
0.0
 46
0.0
 47
0.0
 48
0.0
140
2.5
141
2.5
142
0.0
143
0.03937007874016
144
1.0
145
0.0
146
1.0
147
0.625
 71
     0
 72
     0
 73
     0
 74
     0
 75
     0
 76
     0
 77
     1
 78
     8
170
     0
171
     3
172
     1
173
     0
174
     0
175
     0
176
     0
177
     0
178
     0
270
     2
271
     2
272
     2
273
     2
274
     3
340
11
275
     0
280
     0
281
     0
282
     0
283
     0
284
     8
285
     0
286
     0
287
     3
288
     0
  0
ENDTAB
  0
TABLE
  2
BLOCK_RECORD
  5
1
330
0
100
AcDbSymbolTable
 70
     1
  0
BLOCK_RECORD
  5
1F
330
1
100
AcDbSymbolTableRecord
100
AcDbBlockTableRecord
  2
*MODEL_SPACE
  0
BLOCK_RECORD
  5
1B
330
1
100
AcDbSymbolTableRecord
100
AcDbBlockTableRecord
  2
*PAPER_SPACE
  0
ENDTAB
  0
ENDSEC
  0
SECTION
  2
BLOCKS
  0
BLOCK
  5
20
330
1F
100
AcDbEntity
  8
0
100
AcDbBlockBegin
  2
*MODEL_SPACE
 70
     0
 10
0.0
 20
0.0
 30
0.0
  3
*MODEL_SPACE
  1

  0
ENDBLK
  5
21
330
1F
100
AcDbEntity
  8
0
100
AcDbBlockEnd
  0
BLOCK
  5
1C
330
1B
100
AcDbEntity
 67
     1
  8
0
100
AcDbBlockBegin
  2
*PAPER_SPACE
  1

  0
ENDBLK
  5
1D
330
1B
100
AcDbEntity
 67
     1
  8
0
100
AcDbBlockEnd
  0
ENDSEC
  0
SECTION
  2
ENTITIES
  0
LINE
  5
100
100
AcDbEntity
  8
0
 62
7
100
AcDbLine
 10
42.300068
 20
46.305126
 30
0.0
 11
36.457887
 21
40.462996
 31
0.0
  0
LINE
  5
101
100
AcDbEntity
  8
0
 62
7
100
AcDbLine
 10
36.940913
 20
40.080248
 30
0.0
 11
42.848821
 21
45.988109
 31
0.0
  0
LINE
  5
102
100
AcDbEntity
  8
0
 62
7
100
AcDbLine
 10
43.921279
 20
46.194790
 30
0.0
 11
37.421106
 21
39.694670
 31
0.0
  0
LINE
  5
103
100
AcDbEntity
  8
0
 62
7
100
AcDbLine
 10
37.897932
 20
39.305721
 30
0.0
 11
44.525017
 21
45.932751
 31
0.0
  0
LINE
  5
104
100
AcDbEntity
  8
0
 62
7
100
AcDbLine
 10
44.207148
 20
44.749118
 30
0.0
 11
38.345838
 21
38.887856
 31
0.0
  0
LINE
  5
105
100
AcDbEntity
  8
0
 62
7
100
AcDbLine
 10
38.793714
 20
38.469961
 30
0.0
 11
43.691584
 21
43.367789
 31
0.0
  0
LINE
  5
106
100
AcDbEntity
  8
0
 62
7
100
AcDbLine
 10
44.244429
 20
43.054863
 30
0.0
 11
39.209235
 21
38.019711
 31
0.0
  0
LINE
  5
107
100
AcDbEntity
  8
0
 62
7
100
AcDbLine
 10
39.624762
 20
37.569462
 30
0.0
 11
44.733326
 21
42.677989
 31
0.0
  0
LINE
  5
108
100
AcDbEntity
  8
0
 62
7
100
AcDbLine
 10
44.897057
 20
41.975947
 30
0.0
 11
43.476212
 21
40.555114
 31
0.0
  0
LINE
  5
109
100
AcDbEntity
  8
0
 62
7
100
AcDbLine
 10
39.997391
 20
37.076323
 30
0.0
 11
42.537724
 21
39.616638
 31
0.0
  0
LINE
  5
10a
100
AcDbEntity
  8
0
 62
7
100
AcDbLine
 10
43.018487
 20
39.231623
 30
0.0
 11
40.365573
 21
36.578731
 31
0.0
  0
LINE
  5
10b
100
AcDbEntity
  8
0
 62
7
100
AcDbLine
 10
40.733751
 20
36.081139
 30
0.0
 11
43.938153
 21
39.285515
 31
0.0
  0
LINE
  5
10c
100
AcDbEntity
  8
0
 62
7
100
AcDbLine
 10
45.190898
 20
39.672481
 30
0.0
 11
41.101930
 21
35.583547
 31
0.0
  0
LINE
  5
10d
100
AcDbEntity
  8
0
 62
7
100
AcDbLine
 10
8.521158
 20
43.694165
 30
0.0
 11
6.368507
 21
41.541531
 31
0.0
  0
LINE
  5
10e
100
AcDbEntity
  8
0
 62
7
100
AcDbLine
 10
3.814532
 20
38.121808
 30
0.0
 11
11.873445
 21
46.180655
 31
0.0
  0
LINE
  5
10f
100
AcDbEntity
  8
0
 62
7
100
AcDbLine
 10
13.842955
 20
47.284380
 30
0.0
 11
2.709178
 21
36.150695
 31
0.0
  0
LINE
  5
110
100
AcDbEntity
  8
0
 62
7
100
AcDbLine
 10
1.943207
 20
34.518962
 30
0.0
 11
15.463558
 21
48.039202
 31
0.0
  0
LINE
  5
111
100
AcDbEntity
  8
0
 62
7
100
AcDbLine
 10
16.853751
 20
48.563615
 30
0.0
 11
1.449481
 21
33.159471
 31
0.0
  0
LINE
  5
112
100
AcDbEntity
  8
0
 62
7
100
AcDbLine
 10
1.036997
 20
31.881222
 30
0.0
 11
18.110825
 21
48.954911
 31
0.0
  0
LINE
  5
113
100
AcDbEntity
  8
0
 62
7
100
AcDbLine
 10
19.294543
 20
49.272850
 30
0.0
 11
0.740278
 21
30.718737
 31
0.0
  0
LINE
  5
114
100
AcDbEntity
  8
0
 62
7
100
AcDbLine
 10
0.496241
 20
29.608933
 30
0.0
 11
20.382446
 21
49.494975
 31
0.0
  0
LINE
  5
115
100
AcDbEntity
  8
0
 62
7
100
AcDbLine
 10
21.418646
 20
49.665399
 30
0.0
 11
0.341595
 21
28.588520
 31
0.0
  0
LINE
  5
116
100
AcDbEntity
  8
0
 62
7
100
AcDbLine
 10
0.186949
 20
27.568106
 30
0.0
 11
22.422569
 21
49.803544
 31
0.0
  0
LINE
  5
117
100
AcDbEntity
  8
0
 62
7
100
AcDbLine
 10
23.346425
 20
49.861625
 30
0.0
 11
14.584554
 21
41.099825
 31
0.0
  0
LINE
  5
118
100
AcDbEntity
  8
0
 62
7
100
AcDbLine
 10
16.621717
 20
42.271202
 30
0.0
 11
24.270282
 21
49.919705
 31
0.0
  0
LINE
  5
119
100
AcDbEntity
  8
0
 62
7
100
AcDbLine
 10
25.161724
 20
49.945371
 30
0.0
 11
18.179724
 21
42.963427
 31
0.0
  0
LINE
  5
11a
100
AcDbEntity
  8
0
 62
7
100
AcDbLine
 10
19.500329
 20
43.418253
 30
0.0
 11
26.027501
 21
49.945371
 31
0.0
  0
LINE
  5
11b
100
AcDbEntity
  8
0
 62
7
100
AcDbLine
 10
26.893276
 20
49.945371
 30
0.0
 11
20.683776
 21
43.735922
 31
0.0
  0
LINE
  5
11c
100
AcDbEntity
  8
0
 62
7
100
AcDbLine
 10
21.780411
 20
43.966780
 30
0.0
 11
27.759050
 21
49.945371
 31
0.0
  0
LINE
  5
11d
100
AcDbEntity
  8
0
 62
7
100
AcDbLine
 10
28.624826
 20
49.945371
 30
0.0
 11
22.793458
 21
44.114050
 31
0.0
  0
LINE
  5
11e
100
AcDbEntity
  8
0
 62
7
100
AcDbLine
 10
23.732459
 20
44.187274
 30
0.0
 11
29.490602
 21
49.945371
 31
0.0
  0
LINE
  5
11f
100
AcDbEntity
  8
0
 62
7
100
AcDbLine
 10
30.356381
 20
49.945371
 30
0.0
 11
24.645607
 21
44.234646
 31
0.0
  0
LINE
  5
120
100
AcDbEntity
  8
0
 62
7
100
AcDbLine
 10
25.495557
 20
44.218819
 30
0.0
 11
31.222151
 21
49.945371
 31
0.0
  0
LINE
  5
121
100
AcDbEntity
  8
0
 62
7
100
AcDbLine
 10
32.087930
 20
49.945371
 30
0.0
 11
26.316186
 21
44.173672
 31
0.0
  0
LINE
  5
122
100
AcDbEntity
  8
0
 62
7
100
AcDbLine
 10
27.115137
 20
44.106850
 30
0.0
 11
32.953706
 21
49.945371
 31
0.0
  0
LINE
  5
123
100
AcDbEntity
  8
0
 62
7
100
AcDbLine
 10
33.819485
 20
49.945371
 30
0.0
 11
27.869624
 21
43.995561
 31
0.0
  0
LINE
  5
124
100
AcDbEntity
  8
0
 62
7
100
AcDbLine
 10
28.621397
 20
43.881560
 30
0.0
 11
34.685255
 21
49.945371
 31
0.0
  0
LINE
  5
125
100
AcDbEntity
  8
0
 62
7
100
AcDbLine
 10
35.551034
 20
49.945371
 30
0.0
 11
29.319353
 21
43.713740
 31
0.0
  0
LINE
  5
126
100
AcDbEntity
  8
0
 62
7
100
AcDbLine
 10
30.017305
 20
43.545919
 30
0.0
 11
36.416810
 21
49.945371
 31
0.0
  0
LINE
  5
127
100
AcDbEntity
  8
0
 62
7
100
AcDbLine
 10
37.282583
 20
49.945371
 30
0.0
 11
30.684013
 21
43.346852
 31
0.0
  0
LINE
  5
128
100
AcDbEntity
  8
0
 62
7
100
AcDbLine
 10
31.332063
 20
43.129129
 30
0.0
 11
38.148359
 21
49.945371
 31
0.0
  0
LINE
  5
129
100
AcDbEntity
  8
0
 62
7
100
AcDbLine
 10
39.014135
 20
49.945371
 30
0.0
 11
31.976359
 21
42.907652
 31
0.0
  0
LINE
  5
12a
100
AcDbEntity
  8
0
 62
7
100
AcDbLine
 10
32.579064
 20
42.644581
 30
0.0
 11
39.879913
 21
49.945371
 31
0.0
  0
LINE
  5
12b
100
AcDbEntity
  8
0
 62
7
100
AcDbLine
 10
40.745684
 20
49.945371
 30
0.0
 11
33.181764
 21
42.381511
 31
0.0
  0
LINE
  5
12c
100
AcDbEntity
  8
0
 62
7
100
AcDbLine
 10
33.765911
 20
42.099884
 30
0.0
 11
41.611463
 21
49.945371
 31
0.0
  0
LINE
  5
12d
100
AcDbEntity
  8
0
 62
7
100
AcDbLine
 10
42.477238
 20
49.945371
 30
0.0
 11
34.326288
 21
41.794487
 31
0.0
  0
LINE
  5
12e
100
AcDbEntity
  8
0
 62
7
100
AcDbLine
 10
34.886666
 20
41.489090
 30
0.0
 11
43.343012
 21
49.945371
 31
0.0
  0
LINE
  5
12f
100
AcDbEntity
  8
0
 62
7
100
AcDbLine
 10
44.208787
 20
49.945371
 30
0.0
 11
35.418141
 21
41.154794
 31
0.0
  0
LINE
  5
130
100
AcDbEntity
  8
0
 62
7
100
AcDbLine
 10
35.938014
 20
40.808895
 30
0.0
 11
45.059033
 21
49.929841
 31
0.0
  0
LINE
  5
131
100
AcDbEntity
  8
0
 62
7
100
AcDbLine
 10
45.841288
 20
49.846319
 30
0.0
 11
43.454010
 21
47.459061
 31
0.0
  0
LINE
  5
132
100
AcDbEntity
  8
0
 62
7
100
AcDbLine
 10
44.368316
 20
47.507593
 30
0.0
 11
46.512311
 21
49.651568
 31
0.0
  0
LINE
  5
133
100
AcDbEntity
  8
0
 62
7
100
AcDbLine
 10
47.123974
 20
49.397457
 30
0.0
 11
45.103068
 21
47.376568
 31
0.0
  0
LINE
  5
134
100
AcDbEntity
  8
0
 62
7
100
AcDbLine
 10
45.689006
 20
47.096730
 30
0.0
 11
47.685508
 21
49.093217
 31
0.0
  0
LINE
  5
135
100
AcDbEntity
  8
0
 62
7
100
AcDbLine
 10
48.163463
 20
48.705400
 30
0.0
 11
46.100568
 21
46.642524
 31
0.0
  0
LINE
  5
136
100
AcDbEntity
  8
0
 62
7
100
AcDbLine
 10
46.296176
 20
45.972361
 30
0.0
 11
48.605028
 21
48.281190
 31
0.0
  0
LINE
  5
137
100
AcDbEntity
  8
0
 62
7
100
AcDbLine
 10
48.999642
 20
47.810037
 30
0.0
 11
45.928955
 21
44.739371
 31
0.0
  0
LINE
  5
138
100
AcDbEntity
  8
0
 62
7
100
AcDbLine
 10
45.732768
 20
43.677420
 30
0.0
 11
49.320543
 21
47.265163
 31
0.0
  0
LINE
  5
139
100
AcDbEntity
  8
0
 62
7
100
AcDbLine
 10
49.595879
 20
46.674731
 30
0.0
 11
46.158404
 21
43.237282
 31
0.0
  0
LINE
  5
13a
100
AcDbEntity
  8
0
 62
7
100
AcDbLine
 10
46.464547
 20
42.677656
 30
0.0
 11
49.808960
 21
46.022037
 31
0.0
  0
LINE
  5
13b
100
AcDbEntity
  8
0
 62
7
100
AcDbLine
 10
49.909513
 20
45.256822
 30
0.0
 11
46.600474
 21
41.947810
 31
0.0
  0
LINE
  5
13c
100
AcDbEntity
  8
0
 62
7
100
AcDbLine
 10
46.358912
 20
40.840483
 30
0.0
 11
49.942710
 21
44.424253
 31
0.0
  0
LINE
  5
13d
100
AcDbEntity
  8
0
 62
7
100
AcDbLine
 10
49.942710
 20
43.558484
 30
0.0
 11
41.421547
 21
35.037390
 31
0.0
  0
LINE
  5
13e
100
AcDbEntity
  8
0
 62
7
100
AcDbLine
 10
41.726773
 20
34.476844
 30
0.0
 11
49.942710
 21
42.692715
 31
0.0
  0
LINE
  5
13f
100
AcDbEntity
  8
0
 62
7
100
AcDbLine
 10
49.942710
 20
41.826947
 30
0.0
 11
42.031996
 21
33.916297
 31
0.0
  0
LINE
  5
140
100
AcDbEntity
  8
0
 62
7
100
AcDbLine
 10
42.337222
 20
33.355751
 30
0.0
 11
49.942710
 21
40.961178
 31
0.0
  0
LINE
  5
141
100
AcDbEntity
  8
0
 62
7
100
AcDbLine
 10
49.942710
 20
40.095409
 30
0.0
 11
42.592803
 21
32.745562
 31
0.0
  0
LINE
  5
142
100
AcDbEntity
  8
0
 62
7
100
AcDbLine
 10
42.832782
 20
32.119772
 30
0.0
 11
49.942710
 21
39.229641
 31
0.0
  0
LINE
  5
143
100
AcDbEntity
  8
0
 62
7
100
AcDbLine
 10
49.942710
 20
38.363872
 30
0.0
 11
43.072761
 21
31.493980
 31
0.0
  0
LINE
  5
144
100
AcDbEntity
  8
0
 62
7
100
AcDbLine
 10
43.312743
 20
30.868190
 30
0.0
 11
49.942710
 21
37.498104
 31
0.0
  0
LINE
  5
145
100
AcDbEntity
  8
0
 62
7
100
AcDbLine
 10
49.942710
 20
36.632336
 30
0.0
 11
43.486231
 21
30.175910
 31
0.0
  0
LINE
  5
146
100
AcDbEntity
  8
0
 62
7
100
AcDbLine
 10
43.655045
 20
29.478954
 30
0.0
 11
49.942710
 21
35.766567
 31
0.0
  0
LINE
  5
147
100
AcDbEntity
  8
0
 62
7
100
AcDbLine
 10
49.942710
 20
34.900798
 30
0.0
 11
43.823859
 21
28.781998
 31
0.0
  0
LINE
  5
148
100
AcDbEntity
  8
0
 62
7
100
AcDbLine
 10
43.963723
 20
28.056089
 30
0.0
 11
49.942710
 21
34.035029
 31
0.0
  0
LINE
  5
149
100
AcDbEntity
  8
0
 62
7
100
AcDbLine
 10
49.942710
 20
33.169261
 30
0.0
 11
44.050218
 21
27.276816
 31
0.0
  0
LINE
  5
14a
100
AcDbEntity
  8
0
 62
7
100
AcDbLine
 10
44.136714
 20
26.497545
 30
0.0
 11
49.942710
 21
32.303493
 31
0.0
  0
LINE
  5
14b
100
AcDbEntity
  8
0
 62
7
100
AcDbLine
 10
49.942710
 20
31.437724
 30
0.0
 11
44.215747
 21
25.710807
 31
0.0
  0
LINE
  5
14c
100
AcDbEntity
  8
0
 62
7
100
AcDbLine
 10
44.200197
 20
24.829494
 30
0.0
 11
49.942705
 21
30.571955
 31
0.0
  0
LINE
  5
14d
100
AcDbEntity
  8
0
 62
7
100
AcDbLine
 10
49.942705
 20
29.706187
 30
0.0
 11
44.184649
 21
23.948181
 31
0.0
  0
LINE
  5
14e
100
AcDbEntity
  8
0
 62
7
100
AcDbLine
 10
44.147246
 20
23.045010
 30
0.0
 11
49.942705
 21
28.840418
 31
0.0
  0
LINE
  5
14f
100
AcDbEntity
  8
0
 62
7
100
AcDbLine
 10
49.942705
 20
27.974650
 30
0.0
 11
43.993912
 21
22.025909
 31
0.0
  0
LINE
  5
150
100
AcDbEntity
  8
0
 62
7
100
AcDbLine
 10
43.840575
 20
21.006805
 30
0.0
 11
49.942705
 21
27.108881
 31
0.0
  0
LINE
  5
151
100
AcDbEntity
  8
0
 62
7
100
AcDbLine
 10
49.942705
 20
26.243112
 30
0.0
 11
43.562606
 21
19.863068
 31
0.0
  0
LINE
  5
152
100
AcDbEntity
  8
0
 62
7
100
AcDbLine
 10
43.222728
 20
18.657426
 30
0.0
 11
49.942705
 21
25.377343
 31
0.0
  0
LINE
  5
153
100
AcDbEntity
  8
0
 62
7
100
AcDbLine
 10
49.919930
 20
24.488807
 30
0.0
 11
42.625605
 21
17.194541
 31
0.0
  0
LINE
  5
154
100
AcDbEntity
  8
0
 62
7
100
AcDbLine
 10
41.717395
 20
15.420571
 30
0.0
 11
49.873840
 21
23.576948
 31
0.0
  0
LINE
  5
155
100
AcDbEntity
  8
0
 62
7
100
AcDbLine
 10
49.827750
 20
22.665088
 30
0.0
 11
39.560579
 21
12.398005
 31
0.0
  0
LINE
  5
156
100
AcDbEntity
  8
0
 62
7
100
AcDbLine
 10
28.330672
 20
0.302421
 30
0.0
 11
49.697561
 21
21.669135
 31
0.0
  0
LINE
  5
157
100
AcDbEntity
  8
0
 62
7
100
AcDbLine
 10
49.541472
 20
20.647279
 30
0.0
 11
29.352539
 21
0.458510
 31
0.0
  0
LINE
  5
158
100
AcDbEntity
  8
0
 62
7
100
AcDbLine
 10
30.423522
 20
0.663716
 30
0.0
 11
49.336263
 21
19.576305
 31
0.0
  0
LINE
  5
159
100
AcDbEntity
  8
0
 62
7
100
AcDbLine
 10
49.036303
 20
18.410578
 30
0.0
 11
31.589255
 21
0.963670
 31
0.0
  0
LINE
  5
15a
100
AcDbEntity
  8
0
 62
7
100
AcDbLine
 10
32.813306
 20
1.321940
 30
0.0
 11
48.678033
 21
17.186540
 31
0.0
  0
LINE
  5
15b
100
AcDbEntity
  8
0
 62
7
100
AcDbLine
 10
48.177760
 20
15.820503
 30
0.0
 11
34.179355
 21
1.822210
 31
0.0
  0
LINE
  5
15c
100
AcDbEntity
  8
0
 62
7
100
AcDbLine
 10
35.732641
 20
2.509718
 30
0.0
 11
47.490245
 21
14.267225
 31
0.0
  0
LINE
  5
15d
100
AcDbEntity
  8
0
 62
7
100
AcDbLine
 10
46.519338
 20
12.430557
 30
0.0
 11
37.569326
 21
3.480616
 31
0.0
  0
LINE
  5
15e
100
AcDbEntity
  8
0
 62
7
100
AcDbLine
 10
40.239033
 20
5.284535
 30
0.0
 11
44.715407
 21
9.760870
 31
0.0
  0
LINE
  5
15f
100
AcDbEntity
  8
0
 62
7
100
AcDbLine
 10
19.332576
 20
36.629797
 30
0.0
 11
17.677894
 21
34.975129
 31
0.0
  0
LINE
  5
160
100
AcDbEntity
  8
0
 62
7
100
AcDbLine
 10
17.561785
 20
33.993251
 30
0.0
 11
20.170919
 21
36.602364
 31
0.0
  0
LINE
  5
161
100
AcDbEntity
  8
0
 62
7
100
AcDbLine
 10
20.994541
 20
36.560211
 30
0.0
 11
17.535955
 21
33.101653
 31
0.0
  0
LINE
  5
162
100
AcDbEntity
  8
0
 62
7
100
AcDbLine
 10
17.523681
 20
32.223614
 30
0.0
 11
21.709721
 21
36.409621
 31
0.0
  0
LINE
  5
163
100
AcDbEntity
  8
0
 62
7
100
AcDbLine
 10
22.346707
 20
36.180833
 30
0.0
 11
17.511411
 21
31.345576
 31
0.0
  0
LINE
  5
164
100
AcDbEntity
  8
0
 62
7
100
AcDbLine
 10
17.502349
 20
30.470746
 30
0.0
 11
22.842338
 21
35.810692
 31
0.0
  0
LINE
  5
165
100
AcDbEntity
  8
0
 62
7
100
AcDbLine
 10
22.993302
 20
35.095883
 30
0.0
 11
17.504610
 21
29.607236
 31
0.0
  0
LINE
  5
166
100
AcDbEntity
  8
0
 62
7
100
AcDbLine
 10
17.506868
 20
28.743727
 30
0.0
 11
23.036285
 21
34.273099
 31
0.0
  0
LINE
  5
167
100
AcDbEntity
  8
0
 62
7
100
AcDbLine
 10
23.952351
 20
34.323388
 30
0.0
 11
17.509128
 21
27.880217
 31
0.0
  0
LINE
  5
168
100
AcDbEntity
  8
0
 62
7
100
AcDbLine
 10
17.511386
 20
27.016707
 30
0.0
 11
25.341909
 21
34.847164
 31
0.0
  0
LINE
  5
169
100
AcDbEntity
  8
0
 62
7
100
AcDbLine
 10
26.781954
 20
35.421432
 30
0.0
 11
17.513645
 21
26.153198
 31
0.0
  0
LINE
  5
16a
100
AcDbEntity
  8
0
 62
7
100
AcDbLine
 10
17.515903
 20
25.289688
 30
0.0
 11
28.182640
 21
35.956338
 31
0.0
  0
LINE
  5
16b
100
AcDbEntity
  8
0
 62
7
100
AcDbLine
 10
29.491460
 20
36.399380
 30
0.0
 11
17.518161
 21
24.426178
 31
0.0
  0
LINE
  5
16c
100
AcDbEntity
  8
0
 62
7
100
AcDbLine
 10
24.724368
 20
30.766553
 30
0.0
 11
30.692378
 21
36.734511
 31
0.0
  0
LINE
  5
16d
100
AcDbEntity
  8
0
 62
7
100
AcDbLine
 10
23.189582
 20
29.231779
 30
0.0
 11
17.520424
 21
23.562668
 31
0.0
  0
LINE
  5
16e
100
AcDbEntity
  8
0
 62
7
100
AcDbLine
 10
25.971889
 20
31.148296
 30
0.0
 11
31.760516
 21
36.936872
 31
0.0
  0
LINE
  5
16f
100
AcDbEntity
  8
0
 62
7
100
AcDbLine
 10
23.189582
 20
28.366010
 30
0.0
 11
17.522684
 21
22.699158
 31
0.0
  0
LINE
  5
170
100
AcDbEntity
  8
0
 62
7
100
AcDbLine
 10
27.067650
 20
31.378279
 30
0.0
 11
32.730180
 21
37.040762
 31
0.0
  0
LINE
  5
171
100
AcDbEntity
  8
0
 62
7
100
AcDbLine
 10
23.189582
 20
27.500242
 30
0.0
 11
17.524943
 21
21.835648
 31
0.0
  0
LINE
  5
172
100
AcDbEntity
  8
0
 62
7
100
AcDbLine
 10
28.102582
 20
31.547434
 30
0.0
 11
33.621952
 21
37.066756
 31
0.0
  0
LINE
  5
173
100
AcDbEntity
  8
0
 62
7
100
AcDbLine
 10
23.189582
 20
26.634473
 30
0.0
 11
17.527201
 21
20.972139
 31
0.0
  0
LINE
  5
174
100
AcDbEntity
  8
0
 62
7
100
AcDbLine
 10
29.122999
 20
31.702072
 30
0.0
 11
34.374909
 21
36.953941
 31
0.0
  0
LINE
  5
175
100
AcDbEntity
  8
0
 62
7
100
AcDbLine
 10
23.195967
 20
25.775090
 30
0.0
 11
17.529461
 21
20.108630
 31
0.0
  0
LINE
  5
176
100
AcDbEntity
  8
0
 62
7
100
AcDbLine
 10
30.135762
 20
31.849059
 30
0.0
 11
34.883429
 21
36.596687
 31
0.0
  0
LINE
  5
177
100
AcDbEntity
  8
0
 62
7
100
AcDbLine
 10
23.208553
 20
24.921907
 30
0.0
 11
17.531719
 21
19.245120
 31
0.0
  0
LINE
  5
178
100
AcDbEntity
  8
0
 62
7
100
AcDbLine
 10
31.156622
 20
32.004144
 30
0.0
 11
35.158226
 21
36.005709
 31
0.0
  0
LINE
  5
179
100
AcDbEntity
  8
0
 62
7
100
AcDbLine
 10
23.221138
 20
24.068723
 30
0.0
 11
17.533978
 21
18.381610
 31
0.0
  0
LINE
  5
17a
100
AcDbEntity
  8
0
 62
7
100
AcDbLine
 10
32.146740
 20
32.128485
 30
0.0
 11
35.235972
 21
35.217692
 31
0.0
  0
LINE
  5
17b
100
AcDbEntity
  8
0
 62
7
100
AcDbLine
 10
23.233723
 20
23.215540
 30
0.0
 11
17.547228
 21
17.529090
 31
0.0
  0
LINE
  5
17c
100
AcDbEntity
  8
0
 62
7
100
AcDbLine
 10
33.113040
 20
32.229008
 30
0.0
 11
35.245026
 21
34.360974
 31
0.0
  0
LINE
  5
17d
100
AcDbEntity
  8
0
 62
7
100
AcDbLine
 10
23.246308
 20
22.362357
 30
0.0
 11
17.557523
 21
16.673618
 31
0.0
  0
LINE
  5
17e
100
AcDbEntity
  8
0
 62
7
100
AcDbLine
 10
34.083856
 20
32.334048
 30
0.0
 11
35.156882
 21
33.407066
 31
0.0
  0
LINE
  5
17f
100
AcDbEntity
  8
0
 62
7
100
AcDbLine
 10
23.258894
 20
21.509174
 30
0.0
 11
17.567818
 21
15.818141
 31
0.0
  0
LINE
  5
180
100
AcDbEntity
  8
0
 62
7
100
AcDbLine
 10
17.614513
 20
14.999067
 30
0.0
 11
23.271479
 21
20.655991
 31
0.0
  0
LINE
  5
181
100
AcDbEntity
  8
0
 62
7
100
AcDbLine
 10
23.284066
 20
19.802805
 30
0.0
 11
17.663663
 21
14.182448
 31
0.0
  0
LINE
  5
182
100
AcDbEntity
  8
0
 62
7
100
AcDbLine
 10
17.782252
 20
13.435265
 30
0.0
 11
23.296651
 21
18.949622
 31
0.0
  0
LINE
  5
183
100
AcDbEntity
  8
0
 62
7
100
AcDbLine
 10
23.309235
 20
18.096439
 30
0.0
 11
17.951759
 21
12.739006
 31
0.0
  0
LINE
  5
184
100
AcDbEntity
  8
0
 62
7
100
AcDbLine
 10
18.368672
 20
12.290148
 30
0.0
 11
23.321821
 21
17.243256
 31
0.0
  0
LINE
  5
185
100
AcDbEntity
  8
0
 62
7
100
AcDbLine
 10
23.330973
 20
16.386638
 30
0.0
 11
19.066073
 21
12.121775
 31
0.0
  0
LINE
  5
186
100
AcDbEntity
  8
0
 62
7
100
AcDbLine
 10
19.875220
 20
12.065144
 30
0.0
 11
23.330973
 21
15.520870
 31
0.0
  0
LINE
  5
187
100
AcDbEntity
  8
0
 62
7
100
AcDbLine
 10
23.320034
 20
14.644167
 30
0.0
 11
20.763506
 21
12.087657
 31
0.0
  0
LINE
  5
188
100
AcDbEntity
  8
0
 62
7
100
AcDbLine
 10
21.747910
 20
12.206286
 30
0.0
 11
23.262128
 21
13.720490
 31
0.0
  0
LINE
  5
189
100
AcDbEntity
  8
0
 62
5
100
AcDbLine
 10
17.534761
 20
18.082384
 30
0.0
 11
17.500721
 21
31.094833
 31
0.0
  0
SPLINE
  5
18a
100
AcDbEntity
  8
0
 62
5
100
AcDbSpline
 70
8
 71
3
 72
8
 73
4
 74
0
 40
0
 40
0
 40
0
 40
0
 40
1
 40
1
 40
1
 40
1
 10
17.500721
 20
31.094833
 30
0.0
 10
17.547845
 20
31.395524
 30
0.0
 10
17.508572
 20
30.390585
 30
0.0
 10
17.508575
 20
31.142380
 30
0.0
  0
SPLINE
  5
18b
100
AcDbEntity
  8
0
 62
5
100
AcDbSpline
 70
8
 71
3
 72
8
 73
4
 74
0
 40
0
 40
0
 40
0
 40
0
 40
1
 40
1
 40
1
 40
1
 10
17.508575
 20
31.142380
 30
0.0
 10
17.508569
 20
31.894135
 30
0.0
 10
17.492934
 20
31.717106
 30
0.0
 10
17.540069
 20
33.396097
 30
0.0
  0
SPLINE
  5
18c
100
AcDbEntity
  8
0
 62
5
100
AcDbSpline
 70
8
 71
3
 72
8
 73
4
 74
0
 40
0
 40
0
 40
0
 40
0
 40
1
 40
1
 40
1
 40
1
 10
17.540069
 20
33.396097
 30
0.0
 10
17.571481
 20
34.089380
 30
0.0
 10
17.532508
 20
34.674094
 30
0.0
 10
17.757689
 20
35.434246
 30
0.0
  0
SPLINE
  5
18d
100
AcDbEntity
  8
0
 62
5
100
AcDbSpline
 70
8
 71
3
 72
8
 73
4
 74
0
 40
0
 40
0
 40
0
 40
0
 40
1
 40
1
 40
1
 40
1
 10
17.757689
 20
35.434246
 30
0.0
 10
18.040461
 20
36.373941
 30
0.0
 10
18.358772
 20
36.638850
 30
0.0
 10
19.442764
 20
36.638875
 30
0.0
  0
SPLINE
  5
18e
100
AcDbEntity
  8
0
 62
5
100
AcDbSpline
 70
8
 71
3
 72
8
 73
4
 74
0
 40
0
 40
0
 40
0
 40
0
 40
1
 40
1
 40
1
 40
1
 10
19.442764
 20
36.638875
 30
0.0
 10
21.799242
 20
36.638850
 30
0.0
 10
22.977485
 20
36.225374
 30
0.0
 10
22.977497
 20
35.398446
 30
0.0
  0
SPLINE
  5
18f
100
AcDbEntity
  8
0
 62
5
100
AcDbSpline
 70
8
 71
3
 72
8
 73
4
 74
0
 40
0
 40
0
 40
0
 40
0
 40
1
 40
1
 40
1
 40
1
 10
22.977497
 20
35.398446
 30
0.0
 10
22.977485
 20
34.759415
 30
0.0
 10
23.001048
 20
34.308350
 30
0.0
 10
23.048192
 20
34.045251
 30
0.0
  0
SPLINE
  5
190
100
AcDbEntity
  8
0
 62
5
100
AcDbSpline
 70
8
 71
3
 72
8
 73
4
 74
0
 40
0
 40
0
 40
0
 40
0
 40
1
 40
1
 40
1
 40
1
 10
23.048192
 20
34.045251
 30
0.0
 10
23.330958
 20
34.045229
 30
0.0
 10
24.697720
 20
34.552677
 30
0.0
 10
27.148479
 20
35.567595
 30
0.0
  0
SPLINE
  5
191
100
AcDbEntity
  8
0
 62
5
100
AcDbSpline
 70
8
 71
3
 72
8
 73
4
 74
0
 40
0
 40
0
 40
0
 40
0
 40
1
 40
1
 40
1
 40
1
 10
27.148479
 20
35.567595
 30
0.0
 10
29.599213
 20
36.582467
 30
0.0
 10
31.696488
 20
37.089915
 30
0.0
 10
33.440308
 20
37.089939
 30
0.0
  0
SPLINE
  5
192
100
AcDbEntity
  8
0
 62
5
100
AcDbSpline
 70
8
 71
3
 72
8
 73
4
 74
0
 40
0
 40
0
 40
0
 40
0
 40
1
 40
1
 40
1
 40
1
 10
33.440308
 20
37.089939
 30
0.0
 10
34.147232
 20
37.089915
 30
0.0
 10
34.618526
 20
36.939560
 30
0.0
 10
34.854202
 20
36.638875
 30
0.0
  0
SPLINE
  5
193
100
AcDbEntity
  8
0
 62
5
100
AcDbSpline
 70
8
 71
3
 72
8
 73
4
 74
0
 40
0
 40
0
 40
0
 40
0
 40
1
 40
1
 40
1
 40
1
 10
34.854202
 20
36.638875
 30
0.0
 10
35.136957
 20
36.375729
 30
0.0
 10
35.278345
 20
35.736721
 30
0.0
 10
35.278370
 20
34.721849
 30
0.0
  0
SPLINE
  5
194
100
AcDbEntity
  8
0
 62
5
100
AcDbSpline
 70
8
 71
3
 72
8
 73
4
 74
0
 40
0
 40
0
 40
0
 40
0
 40
1
 40
1
 40
1
 40
1
 10
35.278370
 20
34.721849
 30
0.0
 10
35.278345
 20
33.706931
 30
0.0
 10
35.113392
 20
32.936361
 30
0.0
 10
34.783505
 20
32.410140
 30
0.0
  0
SPLINE
  5
195
100
AcDbEntity
  8
0
 62
5
100
AcDbSpline
 70
8
 71
3
 72
8
 73
4
 74
0
 40
0
 40
0
 40
0
 40
0
 40
1
 40
1
 40
1
 40
1
 10
34.783505
 20
32.410140
 30
0.0
 10
34.500707
 20
32.372531
 30
0.0
 10
33.982282
 20
32.316148
 30
0.0
 10
33.228224
 20
32.240991
 30
0.0
  0
SPLINE
  5
196
100
AcDbEntity
  8
0
 62
5
100
AcDbSpline
 70
8
 71
3
 72
8
 73
4
 74
0
 40
0
 40
0
 40
0
 40
0
 40
1
 40
1
 40
1
 40
1
 10
33.228224
 20
32.240991
 30
0.0
 10
32.521257
 20
32.165793
 30
0.0
 10
31.979263
 20
32.109410
 30
0.0
 10
31.602248
 20
32.071841
 30
0.0
  0
SPLINE
  5
197
100
AcDbEntity
  8
0
 62
5
100
AcDbSpline
 70
8
 71
3
 72
8
 73
4
 74
0
 40
0
 40
0
 40
0
 40
0
 40
1
 40
1
 40
1
 40
1
 10
31.602248
 20
32.071841
 30
0.0
 10
31.272319
 20
32.034233
 30
0.0
 10
30.777457
 20
31.959055
 30
0.0
 10
30.117661
 20
31.846309
 30
0.0
  0
SPLINE
  5
198
100
AcDbEntity
  8
0
 62
5
100
AcDbSpline
 70
8
 71
3
 72
8
 73
4
 74
0
 40
0
 40
0
 40
0
 40
0
 40
1
 40
1
 40
1
 40
1
 10
30.117661
 20
31.846309
 30
0.0
 10
29.457825
 20
31.771111
 30
0.0
 10
28.939397
 20
31.695934
 30
0.0
 10
28.562379
 20
31.620776
 30
0.0
  0
SPLINE
  5
199
100
AcDbEntity
  8
0
 62
5
100
AcDbSpline
 70
8
 71
3
 72
8
 73
4
 74
0
 40
0
 40
0
 40
0
 40
0
 40
1
 40
1
 40
1
 40
1
 10
28.562379
 20
31.620776
 30
0.0
 10
28.185321
 20
31.583169
 30
0.0
 10
27.714027
 20
31.507991
 30
0.0
 10
27.148479
 20
31.395244
 30
0.0
  0
SPLINE
  5
19a
100
AcDbEntity
  8
0
 62
5
100
AcDbSpline
 70
8
 71
3
 72
8
 73
4
 74
0
 40
0
 40
0
 40
0
 40
0
 40
1
 40
1
 40
1
 40
1
 10
27.148479
 20
31.395244
 30
0.0
 10
26.630042
 20
31.320047
 30
0.0
 10
26.182308
 20
31.226075
 30
0.0
 10
25.805282
 20
31.113328
 30
0.0
  0
SPLINE
  5
19b
100
AcDbEntity
  8
0
 62
5
100
AcDbSpline
 70
8
 71
3
 72
8
 73
4
 74
0
 40
0
 40
0
 40
0
 40
0
 40
1
 40
1
 40
1
 40
1
 10
25.805282
 20
31.113328
 30
0.0
 10
25.475361
 20
31.000543
 30
0.0
 10
25.121887
 20
30.887777
 30
0.0
 10
24.744863
 20
30.775029
 30
0.0
  0
SPLINE
  5
19c
100
AcDbEntity
  8
0
 62
5
100
AcDbSpline
 70
8
 71
3
 72
8
 73
4
 74
0
 40
0
 40
0
 40
0
 40
0
 40
1
 40
1
 40
1
 40
1
 10
24.744863
 20
30.775029
 30
0.0
 10
23.990774
 20
30.549479
 30
0.0
 10
23.472347
 20
30.248769
 30
0.0
 10
23.189581
 20
29.872899
 30
0.0
  0
LINE
  5
19d
100
AcDbEntity
  8
0
 62
5
100
AcDbLine
 10
23.189581
 20
29.872899
 30
0.0
 11
23.189581
 21
26.207996
 31
0.0
  0
LINE
  5
19e
100
AcDbEntity
  8
0
 62
5
100
AcDbLine
 10
23.189581
 20
26.207996
 30
0.0
 11
23.330971
 21
16.622863
 31
0.0
  0
LINE
  5
19f
100
AcDbEntity
  8
0
 62
5
100
AcDbLine
 10
23.330971
 20
16.622863
 30
0.0
 11
23.330971
 21
15.777111
 31
0.0
  0
SPLINE
  5
1a0
100
AcDbEntity
  8
0
 62
5
100
AcDbSpline
 70
8
 71
3
 72
8
 73
4
 74
0
 40
0
 40
0
 40
0
 40
0
 40
1
 40
1
 40
1
 40
1
 10
23.330971
 20
15.777111
 30
0.0
 10
23.330958
 20
15.626757
 30
0.0
 10
23.330958
 20
15.307251
 30
0.0
 10
23.330971
 20
14.818603
 30
0.0
  0
SPLINE
  5
1a1
100
AcDbEntity
  8
0
 62
5
100
AcDbSpline
 70
8
 71
3
 72
8
 73
4
 74
0
 40
0
 40
0
 40
0
 40
0
 40
1
 40
1
 40
1
 40
1
 10
23.330971
 20
14.818603
 30
0.0
 10
23.330958
 20
14.367535
 30
0.0
 10
23.307394
 20
13.991646
 30
0.0
 10
23.260276
 20
13.690939
 30
0.0
  0
SPLINE
  5
1a2
100
AcDbEntity
  8
0
 62
5
100
AcDbSpline
 70
8
 71
3
 72
8
 73
4
 74
0
 40
0
 40
0
 40
0
 40
0
 40
1
 40
1
 40
1
 40
1
 10
23.260276
 20
13.690939
 30
0.0
 10
23.260264
 20
13.390228
 30
0.0
 10
23.166004
 20
13.089517
 30
0.0
 10
22.977497
 20
12.788810
 30
0.0
  0
SPLINE
  5
1a3
100
AcDbEntity
  8
0
 62
5
100
AcDbSpline
 70
8
 71
3
 72
8
 73
4
 74
0
 40
0
 40
0
 40
0
 40
0
 40
1
 40
1
 40
1
 40
1
 10
22.977497
 20
12.788810
 30
0.0
 10
22.600447
 20
12.300159
 30
0.0
 10
21.610723
 20
12.055828
 30
0.0
 10
20.008322
 20
12.055828
 30
0.0
  0
SPLINE
  5
1a4
100
AcDbEntity
  8
0
 62
5
100
AcDbSpline
 70
8
 71
3
 72
8
 73
4
 74
0
 40
0
 40
0
 40
0
 40
0
 40
1
 40
1
 40
1
 40
1
 10
20.008322
 20
12.055828
 30
0.0
 10
18.453032
 20
12.055828
 30
0.0
 10
18.514004
 20
12.209402
 30
0.0
 10
18.231232
 20
12.359761
 30
0.0
  0
SPLINE
  5
1a5
100
AcDbEntity
  8
0
 62
5
100
AcDbSpline
 70
8
 71
3
 72
8
 73
4
 74
0
 40
0
 40
0
 40
0
 40
0
 40
1
 40
1
 40
1
 40
1
 10
18.231232
 20
12.359761
 30
0.0
 10
17.665670
 20
12.660469
 30
0.0
 10
17.539991
 20
14.559001
 30
0.0
 10
17.539997
 20
18.129933
 30
0.0
  0
SPLINE
  5
1a6
100
AcDbEntity
  8
0
 62
5
100
AcDbSpline
 70
8
 71
3
 72
8
 73
4
 74
0
 40
0
 40
0
 40
0
 40
0
 40
1
 40
1
 40
1
 40
1
 10
25.130518
 20
44.238903
 30
0.0
 10
29.775630
 20
44.199659
 30
0.0
 10
34.367730
 20
42.416066
 30
0.0
 10
37.851148
 20
39.349366
 30
0.0
  0
SPLINE
  5
1a7
100
AcDbEntity
  8
0
 62
5
100
AcDbSpline
 70
8
 71
3
 72
8
 73
4
 74
0
 40
0
 40
0
 40
0
 40
0
 40
1
 40
1
 40
1
 40
1
 10
37.851148
 20
39.349366
 30
0.0
 10
43.065412
 20
34.842792
 30
0.0
 10
45.263666
 20
27.356756
 30
0.0
 10
43.789690
 20
20.668578
 30
0.0
  0
SPLINE
  5
1a8
100
AcDbEntity
  8
0
 62
5
100
AcDbSpline
 70
8
 71
3
 72
8
 73
4
 74
0
 40
0
 40
0
 40
0
 40
0
 40
1
 40
1
 40
1
 40
1
 10
43.789690
 20
20.668578
 30
0.0
 10
42.501385
 20
14.440727
 30
0.0
 10
37.685639
 20
9.242360
 30
0.0
 10
31.782083
 20
7.019933
 30
0.0
  0
SPLINE
  5
1a9
100
AcDbEntity
  8
0
 62
5
100
AcDbSpline
 70
8
 71
3
 72
8
 73
4
 74
0
 40
0
 40
0
 40
0
 40
0
 40
1
 40
1
 40
1
 40
1
 10
31.782083
 20
7.019933
 30
0.0
 10
25.655636
 20
4.547512
 30
0.0
 10
18.296308
 20
5.735611
 30
0.0
 10
13.142240
 20
9.826046
 30
0.0
  0
SPLINE
  5
1aa
100
AcDbEntity
  8
0
 62
5
100
AcDbSpline
 70
8
 71
3
 72
8
 73
4
 74
0
 40
0
 40
0
 40
0
 40
0
 40
1
 40
1
 40
1
 40
1
 10
13.142240
 20
9.826046
 30
0.0
 10
7.421415
 20
14.197739
 30
0.0
 10
4.654626
 20
21.956104
 30
0.0
 10
6.108794
 20
28.987802
 30
0.0
  0
SPLINE
  5
1ab
100
AcDbEntity
  8
0
 62
5
100
AcDbSpline
 70
8
 71
3
 72
8
 73
4
 74
0
 40
0
 40
0
 40
0
 40
0
 40
1
 40
1
 40
1
 40
1
 10
6.108794
 20
28.987802
 30
0.0
 10
7.836799
 20
37.508087
 30
0.0
 10
15.968596
 20
44.195970
 30
0.0
 10
24.680960
 20
44.236481
 30
0.0
  0
SPLINE
  5
1ac
100
AcDbEntity
  8
0
 62
5
100
AcDbSpline
 70
8
 71
3
 72
8
 73
4
 74
0
 40
0
 40
0
 40
0
 40
0
 40
1
 40
1
 40
1
 40
1
 10
24.680960
 20
44.236481
 30
0.0
 10
24.830877
 20
44.238880
 30
0.0
 10
24.980678
 20
44.240167
 30
0.0
 10
25.130518
 20
44.238909
 30
0.0
  0
LINE
  5
1ad
100
AcDbEntity
  8
0
 62
5
100
AcDbLine
 10
25.130518
 20
44.238909
 30
0.0
 11
25.130518
 21
44.238903
 31
0.0
  0
LINE
  5
1ae
100
AcDbEntity
  8
0
 62
7
100
AcDbLine
 10
8.668045
 20
35.183364
 30
0.0
 11
0.137123
 21
26.652512
 31
0.0
  0
LINE
  5
1af
100
AcDbEntity
  8
0
 62
7
100
AcDbLine
 10
0.091407
 20
25.741028
 30
0.0
 11
7.558899
 21
33.208459
 31
0.0
  0
LINE
  5
1b0
100
AcDbEntity
  8
0
 62
7
100
AcDbLine
 10
6.904359
 20
31.688156
 30
0.0
 11
0.062010
 21
24.845863
 31
0.0
  0
LINE
  5
1b1
100
AcDbEntity
  8
0
 62
7
100
AcDbLine
 10
0.103667
 20
24.021750
 30
0.0
 11
6.459721
 21
30.377753
 31
0.0
  0
LINE
  5
1b2
100
AcDbEntity
  8
0
 62
7
100
AcDbLine
 10
6.167311
 20
29.219576
 30
0.0
 11
0.145323
 21
23.197639
 31
0.0
  0
LINE
  5
1b3
100
AcDbEntity
  8
0
 62
7
100
AcDbLine
 10
0.193791
 20
22.380337
 30
0.0
 11
5.968401
 21
28.154900
 31
0.0
  0
LINE
  5
1b4
100
AcDbEntity
  8
0
 62
7
100
AcDbLine
 10
5.837686
 20
27.158417
 30
0.0
 11
0.308514
 21
21.629291
 31
0.0
  0
LINE
  5
1b5
100
AcDbEntity
  8
0
 62
7
100
AcDbLine
 10
0.423238
 20
20.878244
 30
0.0
 11
5.756219
 21
26.211183
 31
0.0
  0
LINE
  5
1b6
100
AcDbEntity
  8
0
 62
7
100
AcDbLine
 10
5.735606
 20
25.324798
 30
0.0
 11
0.537963
 21
20.127197
 31
0.0
  0
LINE
  5
1b7
100
AcDbEntity
  8
0
 62
7
100
AcDbLine
 10
0.702432
 20
19.425897
 30
0.0
 11
5.751214
 21
24.474638
 31
0.0
  0
LINE
  5
1b8
100
AcDbEntity
  8
0
 62
7
100
AcDbLine
 10
5.789565
 20
23.647219
 30
0.0
 11
0.879615
 21
18.737306
 31
0.0
  0
LINE
  5
1b9
100
AcDbEntity
  8
0
 62
7
100
AcDbLine
 10
1.056798
 20
18.048724
 30
0.0
 11
5.901725
 21
22.893609
 31
0.0
  0
LINE
  5
1ba
100
AcDbEntity
  8
0
 62
7
100
AcDbLine
 10
6.014350
 20
22.140465
 30
0.0
 11
1.251845
 21
17.377997
 31
0.0
  0
LINE
  5
1bb
100
AcDbEntity
  8
0
 62
7
100
AcDbLine
 10
1.483918
 20
16.744301
 30
0.0
 11
6.126974
 21
21.387319
 31
0.0
  0
LINE
  5
1bc
100
AcDbEntity
  8
0
 62
7
100
AcDbLine
 10
6.278116
 20
20.672690
 30
0.0
 11
1.715992
 21
16.110605
 31
0.0
  0
LINE
  5
1bd
100
AcDbEntity
  8
0
 62
7
100
AcDbLine
 10
1.948065
 20
15.476906
 30
0.0
 11
6.472846
 21
20.001651
 31
0.0
  0
LINE
  5
1be
100
AcDbEntity
  8
0
 62
7
100
AcDbLine
 10
6.667576
 20
19.330614
 30
0.0
 11
2.215238
 21
14.878310
 31
0.0
  0
LINE
  5
1bf
100
AcDbEntity
  8
0
 62
7
100
AcDbLine
 10
2.496797
 20
14.294096
 30
0.0
 11
6.862306
 21
18.659574
 31
0.0
  0
LINE
  5
1c0
100
AcDbEntity
  8
0
 62
7
100
AcDbLine
 10
7.101353
 20
18.032846
 30
0.0
 11
2.778356
 21
13.709884
 31
0.0
  0
LINE
  5
1c1
100
AcDbEntity
  8
0
 62
7
100
AcDbLine
 10
3.059915
 20
13.125673
 30
0.0
 11
7.366739
 21
17.432463
 31
0.0
  0
LINE
  5
1c2
100
AcDbEntity
  8
0
 62
7
100
AcDbLine
 10
7.632125
 20
16.832078
 30
0.0
 11
3.386124
 21
12.586112
 31
0.0
  0
LINE
  5
1c3
100
AcDbEntity
  8
0
 62
7
100
AcDbLine
 10
3.713385
 20
12.047601
 30
0.0
 11
7.897511
 21
16.231692
 31
0.0
  0
LINE
  5
1c4
100
AcDbEntity
  8
0
 62
7
100
AcDbLine
 10
8.189324
 20
15.657737
 30
0.0
 11
4.040646
 21
11.509090
 31
0.0
  0
LINE
  5
1c5
100
AcDbEntity
  8
0
 62
7
100
AcDbLine
 10
4.374713
 20
10.977389
 30
0.0
 11
8.503569
 21
15.106210
 31
0.0
  0
LINE
  5
1c6
100
AcDbEntity
  8
0
 62
7
100
AcDbLine
 10
8.831381
 20
14.568249
 30
0.0
 11
4.745174
 21
10.482075
 31
0.0
  0
LINE
  5
1c7
100
AcDbEntity
  8
0
 62
7
100
AcDbLine
 10
5.115635
 20
9.986766
 30
0.0
 11
9.177265
 21
14.048362
 31
0.0
  0
LINE
  5
1c8
100
AcDbEntity
  8
0
 62
7
100
AcDbLine
 10
9.532026
 20
13.537351
 30
0.0
 11
5.486096
 21
9.491452
 31
0.0
  0
LINE
  5
1c9
100
AcDbEntity
  8
0
 62
7
100
AcDbLine
 10
5.868257
 20
9.007845
 30
0.0
 11
9.909290
 21
13.048846
 31
0.0
  0
LINE
  5
1ca
100
AcDbEntity
  8
0
 62
7
100
AcDbLine
 10
10.290095
 20
12.563876
 30
0.0
 11
6.280490
 21
8.554305
 31
0.0
  0
LINE
  5
1cb
100
AcDbEntity
  8
0
 62
7
100
AcDbLine
 10
6.692724
 20
8.100766
 30
0.0
 11
10.698884
 21
12.106893
 31
0.0
  0
LINE
  5
1cc
100
AcDbEntity
  8
0
 62
7
100
AcDbLine
 10
11.107674
 20
11.649913
 30
0.0
 11
7.104957
 21
7.647229
 31
0.0
  0
LINE
  5
1cd
100
AcDbEntity
  8
0
 62
7
100
AcDbLine
 10
7.532623
 20
7.209124
 30
0.0
 11
11.546152
 21
11.222617
 31
0.0
  0
LINE
  5
1ce
100
AcDbEntity
  8
0
 62
7
100
AcDbLine
 10
11.986999
 20
10.797695
 30
0.0
 11
7.986165
 21
6.796893
 31
0.0
  0
LINE
  5
1cf
100
AcDbEntity
  8
0
 62
7
100
AcDbLine
 10
8.439707
 20
6.384663
 30
0.0
 11
12.452039
 21
10.396962
 31
0.0
  0
LINE
  5
1d0
100
AcDbEntity
  8
0
 62
7
100
AcDbLine
 10
12.925872
 20
10.005020
 30
0.0
 11
8.893249
 21
5.972432
 31
0.0
  0
LINE
  5
1d1
100
AcDbEntity
  8
0
 62
7
100
AcDbLine
 10
9.366302
 20
5.579714
 30
0.0
 11
13.420921
 21
9.634296
 31
0.0
  0
LINE
  5
1d2
100
AcDbEntity
  8
0
 62
7
100
AcDbLine
 10
13.933799
 20
9.281403
 30
0.0
 11
9.861617
 21
5.209255
 31
0.0
  0
LINE
  5
1d3
100
AcDbEntity
  8
0
 62
7
100
AcDbLine
 10
10.356932
 20
4.838796
 30
0.0
 11
14.446677
 21
8.928506
 31
0.0
  0
LINE
  5
1d4
100
AcDbEntity
  8
0
 62
7
100
AcDbLine
 10
14.959555
 20
8.575613
 30
0.0
 11
10.852247
 21
4.468337
 31
0.0
  0
LINE
  5
1d5
100
AcDbEntity
  8
0
 62
7
100
AcDbLine
 10
11.373032
 20
4.123349
 30
0.0
 11
15.508356
 21
8.258643
 31
0.0
  0
LINE
  5
1d6
100
AcDbEntity
  8
0
 62
7
100
AcDbLine
 10
16.082495
 20
7.967006
 30
0.0
 11
11.911546
 21
3.796092
 31
0.0
  0
LINE
  5
1d7
100
AcDbEntity
  8
0
 62
7
100
AcDbLine
 10
12.450061
 20
3.468833
 30
0.0
 11
16.656633
 21
7.675372
 31
0.0
  0
LINE
  5
1d8
100
AcDbEntity
  8
0
 62
7
100
AcDbLine
 10
17.230771
 20
7.383735
 30
0.0
 11
12.988576
 21
3.141576
 31
0.0
  0
LINE
  5
1d9
100
AcDbEntity
  8
0
 62
7
100
AcDbLine
 10
13.562290
 20
2.849516
 30
0.0
 11
17.854089
 21
7.141281
 31
0.0
  0
LINE
  5
1da
100
AcDbEntity
  8
0
 62
7
100
AcDbLine
 10
18.492790
 20
6.914205
 30
0.0
 11
14.146507
 21
2.567960
 31
0.0
  0
LINE
  5
1db
100
AcDbEntity
  8
0
 62
7
100
AcDbLine
 10
14.730723
 20
2.286401
 30
0.0
 11
19.131491
 21
6.687137
 31
0.0
  0
LINE
  5
1dc
100
AcDbEntity
  8
0
 62
7
100
AcDbLine
 10
19.779233
 20
6.469103
 30
0.0
 11
15.316814
 21
2.006721
 31
0.0
  0
LINE
  5
1dd
100
AcDbEntity
  8
0
 62
7
100
AcDbLine
 10
15.950516
 20
1.774653
 30
0.0
 11
20.489597
 21
6.313692
 31
0.0
  0
LINE
  5
1de
100
AcDbEntity
  8
0
 62
7
100
AcDbLine
 10
21.199961
 20
6.158284
 30
0.0
 11
16.584218
 21
1.542576
 31
0.0
  0
LINE
  5
1df
100
AcDbEntity
  8
0
 62
7
100
AcDbLine
 10
17.217920
 20
1.310505
 30
0.0
 11
21.910325
 21
6.002872
 31
0.0
  0
LINE
  5
1e0
100
AcDbEntity
  8
0
 62
7
100
AcDbLine
 10
22.682860
 20
5.909632
 30
0.0
 11
17.874771
 21
1.101581
 31
0.0
  0
LINE
  5
1e1
100
AcDbEntity
  8
0
 62
7
100
AcDbLine
 10
18.563363
 20
0.924402
 30
0.0
 11
23.477641
 21
5.838639
 31
0.0
  0
LINE
  5
1e2
100
AcDbEntity
  8
0
 62
7
100
AcDbLine
 10
24.272422
 20
5.767643
 30
0.0
 11
19.251956
 21
0.747220
 31
0.0
  0
LINE
  5
1e3
100
AcDbEntity
  8
0
 62
7
100
AcDbLine
 10
19.940548
 20
0.570035
 30
0.0
 11
25.136495
 21
5.765941
 31
0.0
  0
LINE
  5
1e4
100
AcDbEntity
  8
0
 62
7
100
AcDbLine
 10
26.037962
 20
5.801637
 30
0.0
 11
20.688522
 21
0.452236
 31
0.0
  0
LINE
  5
1e5
100
AcDbEntity
  8
0
 62
7
100
AcDbLine
 10
21.439575
 20
0.337515
 30
0.0
 11
26.939437
 21
5.837332
 31
0.0
  0
LINE
  5
1e6
100
AcDbEntity
  8
0
 62
7
100
AcDbLine
 10
27.976637
 20
6.008754
 30
0.0
 11
22.190628
 21
0.222792
 31
0.0
  0
LINE
  5
1e7
100
AcDbEntity
  8
0
 62
7
100
AcDbLine
 10
22.989461
 20
0.155849
 30
0.0
 11
29.025331
 21
6.191673
 31
0.0
  0
LINE
  5
1e8
100
AcDbEntity
  8
0
 62
7
100
AcDbLine
 10
30.213836
 20
6.514400
 30
0.0
 11
23.813580
 21
0.114196
 31
0.0
  0
LINE
  5
1e9
100
AcDbEntity
  8
0
 62
7
100
AcDbLine
 10
24.637700
 20
0.072540
 30
0.0
 11
31.491470
 21
6.926255
 31
0.0
  0
LINE
  5
1ea
100
AcDbEntity
  8
0
 62
7
100
AcDbLine
 10
32.996096
 20
7.565096
 30
0.0
 11
25.510986
 21
0.080052
 31
0.0
  0
LINE
  5
1eb
100
AcDbEntity
  8
0
 62
7
100
AcDbLine
 10
26.422854
 20
0.126145
 30
0.0
 11
34.813771
 21
8.516993
 31
0.0
  0
LINE
  5
1ec
100
AcDbEntity
  8
0
 62
7
100
AcDbLine
 10
37.833980
 20
10.671406
 30
0.0
 11
27.334723
 21
0.172237
 31
0.0
  0
SPLINE
  5
1ed
100
AcDbEntity
  8
0
 62
1
100
AcDbSpline
 70
8
 71
3
 72
8
 73
4
 74
0
 40
0
 40
0
 40
0
 40
0
 40
1
 40
1
 40
1
 40
1
 10
24.678542
 20
49.945372
 30
0.0
 10
11.056383
 20
49.772627
 30
0.0
 10
0.054230
 20
38.662589
 30
0.0
 10
0.054230
 20
24.999796
 30
0.0
  0
SPLINE
  5
1ee
100
AcDbEntity
  8
0
 62
1
100
AcDbSpline
 70
8
 71
3
 72
8
 73
4
 74
0
 40
0
 40
0
 40
0
 40
0
 40
1
 40
1
 40
1
 40
1
 10
0.054230
 20
24.999796
 30
0.0
 10
0.054230
 20
11.229425
 30
0.0
 10
11.229523
 20
0.054226
 30
0.0
 10
25.000003
 20
0.054226
 30
0.0
  0
SPLINE
  5
1ef
100
AcDbEntity
  8
0
 62
1
100
AcDbSpline
 70
8
 71
3
 72
8
 73
4
 74
0
 40
0
 40
0
 40
0
 40
0
 40
1
 40
1
 40
1
 40
1
 10
25.000003
 20
0.054226
 30
0.0
 10
38.770484
 20
0.054226
 30
0.0
 10
49.945773
 20
11.229425
 30
0.0
 10
49.945770
 20
24.999796
 30
0.0
  0
SPLINE
  5
1f0
100
AcDbEntity
  8
0
 62
1
100
AcDbSpline
 70
8
 71
3
 72
8
 73
4
 74
0
 40
0
 40
0
 40
0
 40
0
 40
1
 40
1
 40
1
 40
1
 10
49.945770
 20
24.999796
 30
0.0
 10
49.945770
 20
25.107381
 30
0.0
 10
49.944641
 20
25.213995
 30
0.0
 10
49.942694
 20
25.321257
 30
0.0
  0
LINE
  5
1f1
100
AcDbEntity
  8
0
 62
1
100
AcDbLine
 10
49.942694
 20
25.321257
 30
0.0
 11
49.942694
 21
44.978493
 31
0.0
  0
SPLINE
  5
1f2
100
AcDbEntity
  8
0
 62
1
100
AcDbSpline
 70
8
 71
3
 72
8
 73
4
 74
0
 40
0
 40
0
 40
0
 40
0
 40
1
 40
1
 40
1
 40
1
 10
49.942694
 20
44.978493
 30
0.0
 10
49.888044
 20
47.716752
 30
0.0
 10
47.660187
 20
49.924743
 30
0.0
 10
44.913578
 20
49.945372
 30
0.0
  0
LINE
  5
1f3
100
AcDbEntity
  8
0
 62
1
100
AcDbLine
 10
44.913578
 20
49.945372
 30
0.0
 11
24.999989
 21
49.945372
 31
0.0
  0
SPLINE
  5
1f4
100
AcDbEntity
  8
0
 62
1
100
AcDbSpline
 70
8
 71
3
 72
8
 73
4
 74
0
 40
0
 40
0
 40
0
 40
0
 40
1
 40
1
 40
1
 40
1
 10
24.999989
 20
49.945372
 30
0.0
 10
24.961972
 20
49.945372
 30
0.0
 10
24.924237
 20
49.945372
 30
0.0
 10
24.886390
 20
49.945372
 30
0.0
  0
SPLINE
  5
1f5
100
AcDbEntity
  8
0
 62
1
100
AcDbSpline
 70
8
 71
3
 72
8
 73
4
 74
0
 40
0
 40
0
 40
0
 40
0
 40
1
 40
1
 40
1
 40
1
 10
24.886390
 20
49.945372
 30
0.0
 10
24.817137
 20
49.945372
 30
0.0
 10
24.747885
 20
49.946261
 30
0.0
 10
24.678528
 20
49.945372
 30
0.0
  0
LINE
  5
1f6
100
AcDbEntity
  8
0
 62
1
100
AcDbLine
 10
24.678528
 20
49.945372
 30
0.0
 11
24.678542
 21
49.945372
 31
0.0
  0
SPLINE
  5
1f7
100
AcDbEntity
  8
0
 62
5
100
AcDbSpline
 70
8
 71
3
 72
8
 73
4
 74
0
 40
0
 40
0
 40
0
 40
0
 40
1
 40
1
 40
1
 40
1
 10
44.123170
 20
47.536429
 30
0.0
 10
43.717427
 20
47.536421
 30
0.0
 10
43.319785
 20
47.457736
 30
0.0
 10
42.927476
 20
47.306857
 30
0.0
  0
SPLINE
  5
1f8
100
AcDbEntity
  8
0
 62
5
100
AcDbSpline
 70
8
 71
3
 72
8
 73
4
 74
0
 40
0
 40
0
 40
0
 40
0
 40
1
 40
1
 40
1
 40
1
 10
42.927476
 20
47.306857
 30
0.0
 10
42.737241
 20
47.235983
 30
0.0
 10
42.586969
 20
47.167783
 30
0.0
 10
42.458764
 20
47.077286
 30
0.0
  0
SPLINE
  5
1f9
100
AcDbEntity
  8
0
 62
5
100
AcDbSpline
 70
8
 71
3
 72
8
 73
4
 74
0
 40
0
 40
0
 40
0
 40
0
 40
1
 40
1
 40
1
 40
1
 10
42.458764
 20
47.077286
 30
0.0
 10
42.330556
 20
46.986788
 30
0.0
 10
42.181359
 20
46.844718
 30
0.0
 10
42.181359
 20
46.618142
 30
0.0
  0
SPLINE
  5
1fa
100
AcDbEntity
  8
0
 62
5
100
AcDbSpline
 70
8
 71
3
 72
8
 73
4
 74
0
 40
0
 40
0
 40
0
 40
0
 40
1
 40
1
 40
1
 40
1
 10
42.181359
 20
46.618142
 30
0.0
 10
42.181359
 20
46.414951
 30
0.0
 10
42.305388
 20
46.262887
 30
0.0
 10
42.430068
 20
46.158999
 30
0.0
  0
LINE
  5
1fb
100
AcDbEntity
  8
0
 62
5
100
AcDbLine
 10
42.430068
 20
46.158999
 30
0.0
 11
42.439663
 21
46.149432
 31
0.0
  0
LINE
  5
1fc
100
AcDbEntity
  8
0
 62
5
100
AcDbLine
 10
42.439663
 20
46.149432
 30
0.0
 11
42.449259
 21
46.139865
 31
0.0
  0
SPLINE
  5
1fd
100
AcDbEntity
  8
0
 62
5
100
AcDbSpline
 70
8
 71
3
 72
8
 73
4
 74
0
 40
0
 40
0
 40
0
 40
0
 40
1
 40
1
 40
1
 40
1
 10
42.449259
 20
46.139865
 30
0.0
 10
42.558324
 20
46.064349
 30
0.0
 10
42.631964
 20
45.986784
 30
0.0
 10
42.841446
 20
45.986817
 30
0.0
  0
SPLINE
  5
1fe
100
AcDbEntity
  8
0
 62
5
100
AcDbSpline
 70
8
 71
3
 72
8
 73
4
 74
0
 40
0
 40
0
 40
0
 40
0
 40
1
 40
1
 40
1
 40
1
 10
42.841446
 20
45.986817
 30
0.0
 10
42.955580
 20
45.986799
 30
0.0
 10
42.976659
 20
46.006643
 30
0.0
 10
43.061453
 20
46.025079
 30
0.0
  0
SPLINE
  5
1ff
100
AcDbEntity
  8
0
 62
5
100
AcDbSpline
 70
8
 71
3
 72
8
 73
4
 74
0
 40
0
 40
0
 40
0
 40
0
 40
1
 40
1
 40
1
 40
1
 10
43.061453
 20
46.025079
 30
0.0
 10
43.146249
 20
46.043510
 30
0.0
 10
43.257191
 20
46.066835
 30
0.0
 10
43.396250
 20
46.101603
 30
0.0
  0
SPLINE
  5
200
100
AcDbEntity
  8
0
 62
5
100
AcDbSpline
 70
8
 71
3
 72
8
 73
4
 74
0
 40
0
 40
0
 40
0
 40
0
 40
1
 40
1
 40
1
 40
1
 10
43.396250
 20
46.101603
 30
0.0
 10
43.659637
 20
46.167443
 30
0.0
 10
43.852632
 20
46.197255
 30
0.0
 10
43.903225
 20
46.197258
 30
0.0
  0
SPLINE
  5
201
100
AcDbEntity
  8
0
 62
5
100
AcDbSpline
 70
8
 71
3
 72
8
 73
4
 74
0
 40
0
 40
0
 40
0
 40
0
 40
1
 40
1
 40
1
 40
1
 10
43.903225
 20
46.197258
 30
0.0
 10
44.192213
 20
46.197252
 30
0.0
 10
44.349196
 20
46.126267
 30
0.0
 10
44.448462
 20
46.034644
 30
0.0
  0
SPLINE
  5
202
100
AcDbEntity
  8
0
 62
5
100
AcDbSpline
 70
8
 71
3
 72
8
 73
4
 74
0
 40
0
 40
0
 40
0
 40
0
 40
1
 40
1
 40
1
 40
1
 10
44.448462
 20
46.034644
 30
0.0
 10
44.563397
 20
45.928545
 30
0.0
 10
44.611073
 20
45.826880
 30
0.0
 10
44.611076
 20
45.652025
 30
0.0
  0
SPLINE
  5
203
100
AcDbEntity
  8
0
 62
5
100
AcDbSpline
 70
8
 71
3
 72
8
 73
4
 74
0
 40
0
 40
0
 40
0
 40
0
 40
1
 40
1
 40
1
 40
1
 10
44.611076
 20
45.652025
 30
0.0
 10
44.611073
 20
45.455929
 30
0.0
 10
44.561159
 20
45.285919
 30
0.0
 10
44.458026
 20
45.106792
 30
0.0
  0
LINE
  5
204
100
AcDbEntity
  8
0
 62
5
100
AcDbLine
 10
44.458026
 20
45.106792
 30
0.0
 11
44.458026
 21
45.097225
 31
0.0
  0
SPLINE
  5
205
100
AcDbEntity
  8
0
 62
5
100
AcDbSpline
 70
8
 71
3
 72
8
 73
4
 74
0
 40
0
 40
0
 40
0
 40
0
 40
1
 40
1
 40
1
 40
1
 10
44.458026
 20
45.097225
 30
0.0
 10
44.348860
 20
44.897088
 30
0.0
 10
44.189706
 20
44.679483
 30
0.0
 10
43.989315
 20
44.446773
 30
0.0
  0
LINE
  5
206
100
AcDbEntity
  8
0
 62
5
100
AcDbLine
 10
43.989315
 20
44.446773
 30
0.0
 11
43.989315
 21
44.437205
 31
0.0
  0
SPLINE
  5
207
100
AcDbEntity
  8
0
 62
5
100
AcDbSpline
 70
8
 71
3
 72
8
 73
4
 74
0
 40
0
 40
0
 40
0
 40
0
 40
1
 40
1
 40
1
 40
1
 10
43.989315
 20
44.437205
 30
0.0
 10
43.780467
 20
44.186592
 30
0.0
 10
43.651164
 20
44.020668
 30
0.0
 10
43.568431
 20
43.891973
 30
0.0
  0
LINE
  5
208
100
AcDbEntity
  8
0
 62
5
100
AcDbLine
 10
43.568431
 20
43.891973
 30
0.0
 11
43.501471
 21
43.796318
 31
0.0
  0
LINE
  5
209
100
AcDbEntity
  8
0
 62
5
100
AcDbLine
 10
43.501471
 20
43.796318
 30
0.0
 11
43.511066
 21
43.681532
 31
0.0
  0
SPLINE
  5
20a
100
AcDbEntity
  8
0
 62
5
100
AcDbSpline
 70
8
 71
3
 72
8
 73
4
 74
0
 40
0
 40
0
 40
0
 40
0
 40
1
 40
1
 40
1
 40
1
 10
43.511066
 20
43.681532
 30
0.0
 10
43.535620
 20
43.436141
 30
0.0
 10
43.670339
 20
43.376087
 30
0.0
 10
43.769336
 20
43.308478
 30
0.0
  0
SPLINE
  5
20b
100
AcDbEntity
  8
0
 62
5
100
AcDbSpline
 70
8
 71
3
 72
8
 73
4
 74
0
 40
0
 40
0
 40
0
 40
0
 40
1
 40
1
 40
1
 40
1
 10
43.769336
 20
43.308478
 30
0.0
 10
43.868334
 20
43.240869
 30
0.0
 10
43.985533
 20
43.183448
 30
0.0
 10
44.132827
 20
43.117169
 30
0.0
  0
SPLINE
  5
20c
100
AcDbEntity
  8
0
 62
5
100
AcDbSpline
 70
8
 71
3
 72
8
 73
4
 74
0
 40
0
 40
0
 40
0
 40
0
 40
1
 40
1
 40
1
 40
1
 10
44.132827
 20
43.117169
 30
0.0
 10
44.700190
 20
42.866332
 30
0.0
 10
44.907635
 20
42.559337
 30
0.0
 10
44.907637
 20
42.036269
 30
0.0
  0
SPLINE
  5
20d
100
AcDbEntity
  8
0
 62
5
100
AcDbSpline
 70
8
 71
3
 72
8
 73
4
 74
0
 40
0
 40
0
 40
0
 40
0
 40
1
 40
1
 40
1
 40
1
 10
44.907637
 20
42.036269
 30
0.0
 10
44.907637
 20
41.501025
 30
0.0
 10
44.755249
 20
41.162225
 30
0.0
 10
44.429361
 20
40.907542
 30
0.0
  0
SPLINE
  5
20e
100
AcDbEntity
  8
0
 62
5
100
AcDbSpline
 70
8
 71
3
 72
8
 73
4
 74
0
 40
0
 40
0
 40
0
 40
0
 40
1
 40
1
 40
1
 40
1
 10
44.429361
 20
40.907542
 30
0.0
 10
44.103471
 20
40.652859
 30
0.0
 10
43.558155
 20
40.483984
 30
0.0
 10
42.784082
 20
40.457965
 30
0.0
  0
LINE
  5
20f
100
AcDbEntity
  8
0
 62
5
100
AcDbLine
 10
42.784082
 20
40.457965
 30
0.0
 11
42.535379
 21
40.448397
 31
0.0
  0
LINE
  5
210
100
AcDbEntity
  8
0
 62
5
100
AcDbLine
 10
42.535379
 20
40.448397
 30
0.0
 11
42.468422
 21
40.199695
 31
0.0
  0
SPLINE
  5
211
100
AcDbEntity
  8
0
 62
5
100
AcDbSpline
 70
8
 71
3
 72
8
 73
4
 74
0
 40
0
 40
0
 40
0
 40
0
 40
1
 40
1
 40
1
 40
1
 10
42.468422
 20
40.199695
 30
0.0
 10
42.445900
 20
40.109626
 30
0.0
 10
42.439737
 20
40.018119
 30
0.0
 10
42.439737
 20
39.922295
 30
0.0
  0
SPLINE
  5
212
100
AcDbEntity
  8
0
 62
5
100
AcDbSpline
 70
8
 71
3
 72
8
 73
4
 74
0
 40
0
 40
0
 40
0
 40
0
 40
1
 40
1
 40
1
 40
1
 10
42.439737
 20
39.922295
 30
0.0
 10
42.439737
 20
39.714280
 30
0.0
 10
42.550263
 20
39.572225
 30
0.0
 10
42.669310
 20
39.444022
 30
0.0
  0
SPLINE
  5
213
100
AcDbEntity
  8
0
 62
5
100
AcDbSpline
 70
8
 71
3
 72
8
 73
4
 74
0
 40
0
 40
0
 40
0
 40
0
 40
1
 40
1
 40
1
 40
1
 10
42.669310
 20
39.444022
 30
0.0
 10
42.819856
 20
39.282725
 30
0.0
 10
43.041099
 20
39.176189
 30
0.0
 10
43.262375
 20
39.176188
 30
0.0
  0
SPLINE
  5
214
100
AcDbEntity
  8
0
 62
5
100
AcDbSpline
 70
8
 71
3
 72
8
 73
4
 74
0
 40
0
 40
0
 40
0
 40
0
 40
1
 40
1
 40
1
 40
1
 10
43.262375
 20
39.176188
 30
0.0
 10
43.263786
 20
39.176461
 30
0.0
 10
43.271942
 20
39.176188
 30
0.0
 10
43.271942
 20
39.176188
 30
0.0
  0
SPLINE
  5
215
100
AcDbEntity
  8
0
 62
5
100
AcDbSpline
 70
8
 71
3
 72
8
 73
4
 74
0
 40
0
 40
0
 40
0
 40
0
 40
1
 40
1
 40
1
 40
1
 10
43.271942
 20
39.176188
 30
0.0
 10
44.168390
 20
39.205340
 30
0.0
 10
44.950465
 20
39.450630
 30
0.0
 10
45.586808
 20
39.912730
 30
0.0
  0
SPLINE
  5
216
100
AcDbEntity
  8
0
 62
5
100
AcDbSpline
 70
8
 71
3
 72
8
 73
4
 74
0
 40
0
 40
0
 40
0
 40
0
 40
1
 40
1
 40
1
 40
1
 10
45.586808
 20
39.912730
 30
0.0
 10
46.248199
 20
40.387372
 30
0.0
 10
46.600756
 20
41.103170
 30
0.0
 10
46.600759
 20
41.950178
 30
0.0
  0
SPLINE
  5
217
100
AcDbEntity
  8
0
 62
5
100
AcDbSpline
 70
8
 71
3
 72
8
 73
4
 74
0
 40
0
 40
0
 40
0
 40
0
 40
1
 40
1
 40
1
 40
1
 10
46.600759
 20
41.950178
 30
0.0
 10
46.600756
 20
42.408690
 30
0.0
 10
46.464415
 20
42.836603
 30
0.0
 10
46.199004
 20
43.193691
 30
0.0
  0
SPLINE
  5
218
100
AcDbEntity
  8
0
 62
5
100
AcDbSpline
 70
8
 71
3
 72
8
 73
4
 74
0
 40
0
 40
0
 40
0
 40
0
 40
1
 40
1
 40
1
 40
1
 10
46.199004
 20
43.193691
 30
0.0
 10
46.197876
 20
43.195610
 30
0.0
 10
46.200133
 20
43.201333
 30
0.0
 10
46.199004
 20
43.203258
 30
0.0
  0
LINE
  5
219
100
AcDbEntity
  8
0
 62
5
100
AcDbLine
 10
46.199004
 20
43.203258
 30
0.0
 11
46.189409
 21
43.203258
 31
0.0
  0
SPLINE
  5
21a
100
AcDbEntity
  8
0
 62
5
100
AcDbSpline
 70
8
 71
3
 72
8
 73
4
 74
0
 40
0
 40
0
 40
0
 40
0
 40
1
 40
1
 40
1
 40
1
 10
46.189409
 20
43.203258
 30
0.0
 10
45.964853
 20
43.515418
 30
0.0
 10
45.669688
 20
43.771550
 30
0.0
 10
45.318940
 20
43.968497
 30
0.0
  0
SPLINE
  5
21b
100
AcDbEntity
  8
0
 62
5
100
AcDbSpline
 70
8
 71
3
 72
8
 73
4
 74
0
 40
0
 40
0
 40
0
 40
0
 40
1
 40
1
 40
1
 40
1
 10
45.318940
 20
43.968497
 30
0.0
 10
45.443967
 20
44.090270
 30
0.0
 10
45.567346
 20
44.214350
 30
0.0
 10
45.682431
 20
44.341550
 30
0.0
  0
SPLINE
  5
21c
100
AcDbEntity
  8
0
 62
5
100
AcDbSpline
 70
8
 71
3
 72
8
 73
4
 74
0
 40
0
 40
0
 40
0
 40
0
 40
1
 40
1
 40
1
 40
1
 10
45.682431
 20
44.341550
 30
0.0
 10
45.839609
 20
44.523545
 30
0.0
 10
45.977378
 20
44.754012
 30
0.0
 10
46.103317
 20
45.020700
 30
0.0
  0
SPLINE
  5
21d
100
AcDbEntity
  8
0
 62
5
100
AcDbSpline
 70
8
 71
3
 72
8
 73
4
 74
0
 40
0
 40
0
 40
0
 40
0
 40
1
 40
1
 40
1
 40
1
 10
46.103317
 20
45.020700
 30
0.0
 10
46.236687
 20
45.310978
 30
0.0
 10
46.313756
 20
45.606245
 30
0.0
 10
46.313759
 20
45.900724
 30
0.0
  0
SPLINE
  5
21e
100
AcDbEntity
  8
0
 62
5
100
AcDbSpline
 70
8
 71
3
 72
8
 73
4
 74
0
 40
0
 40
0
 40
0
 40
0
 40
1
 40
1
 40
1
 40
1
 10
46.313759
 20
45.900724
 30
0.0
 10
46.313756
 20
46.398440
 30
0.0
 10
46.076362
 20
46.846914
 30
0.0
 10
45.663302
 20
47.125106
 30
0.0
  0
SPLINE
  5
21f
100
AcDbEntity
  8
0
 62
5
100
AcDbSpline
 70
8
 71
3
 72
8
 73
4
 74
0
 40
0
 40
0
 40
0
 40
0
 40
1
 40
1
 40
1
 40
1
 10
45.663302
 20
47.125106
 30
0.0
 10
45.255070
 20
47.408354
 30
0.0
 10
44.732016
 20
47.536414
 30
0.0
 10
44.123246
 20
47.536422
 30
0.0
  0
LINE
  5
220
100
AcDbEntity
  8
0
 62
5
100
AcDbLine
 10
44.123246
 20
47.536422
 30
0.0
 11
44.123170
 21
47.536429
 31
0.0
  0
ENDSEC
  0
SECTION
  2
OBJECTS
  0
DICTIONARY
  5
C
330
0
100
AcDbDictionary
  3
ACAD_GROUP
350
D
  3
ACAD_MLINESTYLE
350
17
  0
DICTIONARY
  5
D
330
C
100
AcDbDictionary
  0
DICTIONARY
  5
1A
330
C
100
AcDbDictionary
  0
DICTIONARY
  5
17
330
C
100
AcDbDictionary
  3
STANDARD
350
18
  0
DICTIONARY
  5
19
330
C
100
AcDbDictionary
  0
ENDSEC
  0
EOF
