  0
SECTION
  2
HEADER
  9
$ACADVER
  1
AC1014
  9
$HANDSEED
  5
FFFF
  9
$MEASUREMENT
 70
     1
  0
ENDSEC
  0
SECTION
  2
TABLES
  0
TABLE
  2
VPORT
  5
8
330
0
100
AcDbSymbolTable
 70
     4
  0
VPORT
  5
2E
330
8
100
AcDbSymbolTableRecord
100
AcDbViewportTableRecord
  2
*ACTIVE
 70
     0
 10
0.0
 20
0.0
 11
1.0
 21
1.0
 12
210.0
 22
148.5
 13
0.0
 23
0.0
 14
10.0
 24
10.0
 15
10.0
 25
10.0
 16
0.0
 26
0.0
 36
1.0
 17
0.0
 27
0.0
 37
0.0
 40
341.0
 41
1.24
 42
50.0
 43
0.0
 44
0.0
 50
0.0
 51
0.0
 71
     0
 72
   100
 73
     1
 74
     3
 75
     0
 76
     0
 77
     0
 78
     0
  0
ENDTAB
  0
TABLE
  2
LTYPE
  5
5
330
0
100
AcDbSymbolTable
 70
     1
  0
LTYPE
  5
14
330
5
100
AcDbSymbolTableRecord
100
AcDbLinetypeTableRecord
  2
BYBLOCK
 70
     0
  3

 72
    65
 73
     0
 40
0.0
  0
LTYPE
  5
15
330
5
100
AcDbSymbolTableRecord
100
AcDbLinetypeTableRecord
  2
BYLAYER
 70
     0
  3

 72
    65
 73
     0
 40
0.0
  0
LTYPE
  5
16
330
5
100
AcDbSymbolTableRecord
100
AcDbLinetypeTableRecord
  2
CONTINUOUS
 70
     0
  3
Solid line
 72
    65
 73
     0
 40
0.0
  0
ENDTAB
  0
TABLE
  2
LAYER
  5
2
100
AcDbSymbolTable
 70
1
  0
LAYER
  5
50
100
AcDbSymbolTableRecord
100
AcDbLayerTableRecord
  2
0
 70
0
  6
CONTINUOUS
  0
ENDTAB
  0
TABLE
  2
STYLE
  5
3
330
0
100
AcDbSymbolTable
 70
     1
  0
STYLE
  5
11
330
3
100
AcDbSymbolTableRecord
100
AcDbTextStyleTableRecord
  2
STANDARD
 70
     0
 40
0.0
 41
1.0
 50
0.0
 71
     0
 42
2.5
  3
txt
  4

  0
ENDTAB
  0
TABLE
  2
VIEW
  5
6
330
0
100
AcDbSymbolTable
 70
     0
  0
ENDTAB
  0
TABLE
  2
UCS
  5
7
330
0
100
AcDbSymbolTable
 70
     0
  0
ENDTAB
  0
TABLE
  2
APPID
  5
9
330
0
100
AcDbSymbolTable
 70
     2
  0
APPID
  5
12
330
9
100
AcDbSymbolTableRecord
100
AcDbRegAppTableRecord
  2
ACAD
 70
     0
  0
ENDTAB
  0
TABLE
  2
DIMSTYLE
  5
A
330
0
100
AcDbSymbolTable
 70
     1
  0
DIMSTYLE
105
27
330
A
100
AcDbSymbolTableRecord
100
AcDbDimStyleTableRecord
  2
ISO-25
 70
     0
  3

  4

  5

  6

  7

 40
1.0
 41
2.5
 42
0.625
 43
3.75
 44
1.25
 45
0.0
 46
0.0
 47
0.0
 48
0.0
140
2.5
141
2.5
142
0.0
143
0.03937007874016
144
1.0
145
0.0
146
1.0
147
0.625
 71
     0
 72
     0
 73
     0
 74
     0
 75
     0
 76
     0
 77
     1
 78
     8
170
     0
171
     3
172
     1
173
     0
174
     0
175
     0
176
     0
177
     0
178
     0
270
     2
271
     2
272
     2
273
     2
274
     3
340
11
275
     0
280
     0
281
     0
282
     0
283
     0
284
     8
285
     0
286
     0
287
     3
288
     0
  0
ENDTAB
  0
TABLE
  2
BLOCK_RECORD
  5
1
330
0
100
AcDbSymbolTable
 70
     1
  0
BLOCK_RECORD
  5
1F
330
1
100
AcDbSymbolTableRecord
100
AcDbBlockTableRecord
  2
*MODEL_SPACE
  0
BLOCK_RECORD
  5
1B
330
1
100
AcDbSymbolTableRecord
100
AcDbBlockTableRecord
  2
*PAPER_SPACE
  0
ENDTAB
  0
ENDSEC
  0
SECTION
  2
BLOCKS
  0
BLOCK
  5
20
330
1F
100
AcDbEntity
  8
0
100
AcDbBlockBegin
  2
*MODEL_SPACE
 70
     0
 10
0.0
 20
0.0
 30
0.0
  3
*MODEL_SPACE
  1

  0
ENDBLK
  5
21
330
1F
100
AcDbEntity
  8
0
100
AcDbBlockEnd
  0
BLOCK
  5
1C
330
1B
100
AcDbEntity
 67
     1
  8
0
100
AcDbBlockBegin
  2
*PAPER_SPACE
  1

  0
ENDBLK
  5
1D
330
1B
100
AcDbEntity
 67
     1
  8
0
100
AcDbBlockEnd
  0
ENDSEC
  0
SECTION
  2
ENTITIES
  0
LINE
  5
100
100
AcDbEntity
  8
0
 62
7
100
AcDbLine
 10
20.781447
 20
36.722944
 30
0.0
 11
19.255830
 21
35.197328
 31
0.0
  0
LINE
  5
101
100
AcDbEntity
  8
0
 62
7
100
AcDbLine
 10
19.148777
 20
34.292029
 30
0.0
 11
21.554398
 21
36.697651
 31
0.0
  0
LINE
  5
102
100
AcDbEntity
  8
0
 62
7
100
AcDbLine
 10
22.313777
 20
36.658785
 30
0.0
 11
19.124962
 21
33.469969
 31
0.0
  0
LINE
  5
103
100
AcDbEntity
  8
0
 62
7
100
AcDbLine
 10
19.113647
 20
32.660411
 30
0.0
 11
22.973176
 21
36.519940
 31
0.0
  0
LINE
  5
104
100
AcDbEntity
  8
0
 62
7
100
AcDbLine
 10
23.560477
 20
36.308996
 30
0.0
 11
19.102335
 21
31.850854
 31
0.0
  0
LINE
  5
105
100
AcDbEntity
  8
0
 62
7
100
AcDbLine
 10
19.093981
 20
31.044254
 30
0.0
 11
24.017450
 21
35.967723
 31
0.0
  0
LINE
  5
106
100
AcDbEntity
  8
0
 62
7
100
AcDbLine
 10
24.156636
 20
35.308664
 30
0.0
 11
19.096063
 21
30.248092
 31
0.0
  0
LINE
  5
107
100
AcDbEntity
  8
0
 62
7
100
AcDbLine
 10
19.098152
 20
29.451930
 30
0.0
 11
24.196274
 21
34.550051
 31
0.0
  0
LINE
  5
108
100
AcDbEntity
  8
0
 62
7
100
AcDbLine
 10
25.040885
 20
34.596418
 30
0.0
 11
19.100234
 21
28.655767
 31
0.0
  0
LINE
  5
109
100
AcDbEntity
  8
0
 62
7
100
AcDbLine
 10
19.102323
 20
27.859605
 30
0.0
 11
26.322061
 21
35.079343
 31
0.0
  0
LINE
  5
10a
100
AcDbEntity
  8
0
 62
7
100
AcDbLine
 10
27.649786
 20
35.608823
 30
0.0
 11
19.104406
 21
27.063443
 31
0.0
  0
LINE
  5
10b
100
AcDbEntity
  8
0
 62
7
100
AcDbLine
 10
19.106494
 20
26.267280
 30
0.0
 11
28.941226
 21
36.102010
 31
0.0
  0
LINE
  5
10c
100
AcDbEntity
  8
0
 62
7
100
AcDbLine
 10
30.147957
 20
36.510498
 30
0.0
 11
19.108577
 21
25.471118
 31
0.0
  0
LINE
  5
10d
100
AcDbEntity
  8
0
 62
7
100
AcDbLine
 10
25.752678
 20
31.316990
 30
0.0
 11
31.255180
 21
36.819491
 31
0.0
  0
LINE
  5
10e
100
AcDbEntity
  8
0
 62
7
100
AcDbLine
 10
24.337605
 20
29.901917
 30
0.0
 11
19.110643
 21
24.674956
 31
0.0
  0
LINE
  5
10f
100
AcDbEntity
  8
0
 62
7
100
AcDbLine
 10
26.902892
 20
31.668960
 30
0.0
 11
32.240003
 21
37.006069
 31
0.0
  0
LINE
  5
110
100
AcDbEntity
  8
0
 62
7
100
AcDbLine
 10
24.337605
 20
29.103672
 30
0.0
 11
19.112726
 21
23.878794
 31
0.0
  0
LINE
  5
111
100
AcDbEntity
  8
0
 62
7
100
AcDbLine
 10
27.913183
 20
31.881006
 30
0.0
 11
33.134035
 21
37.101857
 31
0.0
  0
LINE
  5
112
100
AcDbEntity
  8
0
 62
7
100
AcDbLine
 10
24.337605
 20
28.305428
 30
0.0
 11
19.114809
 21
23.082631
 31
0.0
  0
LINE
  5
113
100
AcDbEntity
  8
0
 62
7
100
AcDbLine
 10
28.867391
 20
32.036968
 30
0.0
 11
33.956247
 21
37.125824
 31
0.0
  0
LINE
  5
114
100
AcDbEntity
  8
0
 62
7
100
AcDbLine
 10
24.337605
 20
27.507183
 30
0.0
 11
19.116891
 21
22.286468
 31
0.0
  0
LINE
  5
115
100
AcDbEntity
  8
0
 62
7
100
AcDbLine
 10
29.808212
 20
32.179546
 30
0.0
 11
34.650474
 21
37.021808
 31
0.0
  0
LINE
  5
116
100
AcDbEntity
  8
0
 62
7
100
AcDbLine
 10
24.343492
 20
26.714825
 30
0.0
 11
19.118974
 21
21.490308
 31
0.0
  0
LINE
  5
117
100
AcDbEntity
  8
0
 62
7
100
AcDbLine
 10
30.741981
 20
32.315068
 30
0.0
 11
35.119330
 21
36.692417
 31
0.0
  0
LINE
  5
118
100
AcDbEntity
  8
0
 62
7
100
AcDbLine
 10
24.355096
 20
25.928184
 30
0.0
 11
19.121057
 21
20.694145
 31
0.0
  0
LINE
  5
119
100
AcDbEntity
  8
0
 62
7
100
AcDbLine
 10
31.683215
 20
32.458058
 30
0.0
 11
35.372689
 21
36.147531
 31
0.0
  0
LINE
  5
11a
100
AcDbEntity
  8
0
 62
7
100
AcDbLine
 10
24.366699
 20
25.141542
 30
0.0
 11
19.123140
 21
19.897982
 31
0.0
  0
LINE
  5
11b
100
AcDbEntity
  8
0
 62
7
100
AcDbLine
 10
32.596102
 20
32.572701
 30
0.0
 11
35.444374
 21
35.420973
 31
0.0
  0
LINE
  5
11c
100
AcDbEntity
  8
0
 62
7
100
AcDbLine
 10
24.378303
 20
24.354901
 30
0.0
 11
19.135356
 21
19.111953
 31
0.0
  0
LINE
  5
11d
100
AcDbEntity
  8
0
 62
7
100
AcDbLine
 10
33.487033
 20
32.665385
 30
0.0
 11
35.452722
 21
34.631073
 31
0.0
  0
LINE
  5
11e
100
AcDbEntity
  8
0
 62
7
100
AcDbLine
 10
24.389907
 20
23.568259
 30
0.0
 11
19.144848
 21
18.323202
 31
0.0
  0
LINE
  5
11f
100
AcDbEntity
  8
0
 62
7
100
AcDbLine
 10
34.382123
 20
32.762232
 30
0.0
 11
35.371453
 21
33.751562
 31
0.0
  0
LINE
  5
120
100
AcDbEntity
  8
0
 62
7
100
AcDbLine
 10
24.401510
 20
22.781618
 30
0.0
 11
19.154340
 21
17.534447
 31
0.0
  0
LINE
  5
121
100
AcDbEntity
  8
0
 62
7
100
AcDbLine
 10
19.197393
 20
16.779254
 30
0.0
 11
24.413114
 21
21.994978
 31
0.0
  0
LINE
  5
122
100
AcDbEntity
  8
0
 62
7
100
AcDbLine
 10
24.424719
 20
21.208334
 30
0.0
 11
19.242708
 21
16.026325
 31
0.0
  0
LINE
  5
123
100
AcDbEntity
  8
0
 62
7
100
AcDbLine
 10
19.352047
 20
15.337417
 30
0.0
 11
24.436322
 21
20.421693
 31
0.0
  0
LINE
  5
124
100
AcDbEntity
  8
0
 62
7
100
AcDbLine
 10
24.447924
 20
19.635052
 30
0.0
 11
19.508332
 21
14.695461
 31
0.0
  0
LINE
  5
125
100
AcDbEntity
  8
0
 62
7
100
AcDbLine
 10
19.892726
 20
14.281610
 30
0.0
 11
24.459528
 21
18.848411
 31
0.0
  0
LINE
  5
126
100
AcDbEntity
  8
0
 62
7
100
AcDbLine
 10
24.467966
 20
18.058604
 30
0.0
 11
20.535730
 21
14.126368
 31
0.0
  0
LINE
  5
127
100
AcDbEntity
  8
0
 62
7
100
AcDbLine
 10
21.281763
 20
14.074154
 30
0.0
 11
24.467966
 21
17.260358
 31
0.0
  0
LINE
  5
128
100
AcDbEntity
  8
0
 62
7
100
AcDbLine
 10
24.457883
 20
16.452032
 30
0.0
 11
22.100765
 21
14.094912
 31
0.0
  0
LINE
  5
129
100
AcDbEntity
  8
0
 62
7
100
AcDbLine
 10
23.008385
 20
14.204287
 30
0.0
 11
24.404493
 21
15.600395
 31
0.0
  0
LINE
  5
12a
100
AcDbEntity
  8
0
 62
7
100
AcDbLine
 10
41.332455
 20
45.816902
 30
0.0
 11
36.091656
 21
40.576104
 31
0.0
  0
LINE
  5
12b
100
AcDbEntity
  8
0
 62
7
100
AcDbLine
 10
36.570979
 20
40.257182
 30
0.0
 11
41.672691
 21
45.358892
 31
0.0
  0
LINE
  5
12c
100
AcDbEntity
  8
0
 62
7
100
AcDbLine
 10
42.347978
 20
45.235935
 30
0.0
 11
37.016326
 21
39.904286
 31
0.0
  0
LINE
  5
12d
100
AcDbEntity
  8
0
 62
7
100
AcDbLine
 10
37.459068
 20
39.548780
 30
0.0
 11
43.587086
 21
45.676799
 31
0.0
  0
LINE
  5
12e
100
AcDbEntity
  8
0
 62
7
100
AcDbLine
 10
44.278482
 20
45.569951
 30
0.0
 11
42.647560
 21
43.939028
 31
0.0
  0
LINE
  5
12f
100
AcDbEntity
  8
0
 62
7
100
AcDbLine
 10
37.898699
 20
39.190166
 30
0.0
 11
42.298070
 21
43.589537
 31
0.0
  0
LINE
  5
130
100
AcDbEntity
  8
0
 62
7
100
AcDbLine
 10
44.600752
 20
45.093975
 30
0.0
 11
43.465832
 21
43.959053
 31
0.0
  0
LINE
  5
131
100
AcDbEntity
  8
0
 62
7
100
AcDbLine
 10
38.311669
 20
38.804891
 30
0.0
 11
42.298070
 21
42.791293
 31
0.0
  0
LINE
  5
132
100
AcDbEntity
  8
0
 62
7
100
AcDbLine
 10
42.788843
 20
42.483820
 30
0.0
 11
41.383280
 21
41.078257
 31
0.0
  0
LINE
  5
133
100
AcDbEntity
  8
0
 62
7
100
AcDbLine
 10
38.724611
 20
38.419588
 30
0.0
 11
41.195648
 21
40.890626
 31
0.0
  0
LINE
  5
134
100
AcDbEntity
  8
0
 62
7
100
AcDbLine
 10
43.565228
 20
42.461962
 30
0.0
 11
41.926871
 21
40.823603
 31
0.0
  0
LINE
  5
135
100
AcDbEntity
  8
0
 62
7
100
AcDbLine
 10
39.107725
 20
38.004455
 30
0.0
 11
41.195648
 21
40.092381
 31
0.0
  0
LINE
  5
136
100
AcDbEntity
  8
0
 62
7
100
AcDbLine
 10
44.240458
 20
42.338948
 30
0.0
 11
42.509051
 21
40.607537
 31
0.0
  0
LINE
  5
137
100
AcDbEntity
  8
0
 62
7
100
AcDbLine
 10
39.490836
 20
37.589322
 30
0.0
 11
41.361555
 21
39.460042
 31
0.0
  0
LINE
  5
138
100
AcDbEntity
  8
0
 62
7
100
AcDbLine
 10
44.716107
 20
42.016349
 30
0.0
 11
43.204020
 21
40.504263
 31
0.0
  0
LINE
  5
139
100
AcDbEntity
  8
0
 62
7
100
AcDbLine
 10
39.834402
 20
37.134644
 30
0.0
 11
41.952424
 21
39.252665
 31
0.0
  0
LINE
  5
13a
100
AcDbEntity
  8
0
 62
7
100
AcDbLine
 10
44.805112
 20
41.307109
 30
0.0
 11
44.048398
 21
40.550395
 31
0.0
  0
LINE
  5
13b
100
AcDbEntity
  8
0
 62
7
100
AcDbLine
 10
40.173862
 20
36.675861
 30
0.0
 11
42.586944
 21
39.088941
 31
0.0
  0
LINE
  5
13c
100
AcDbEntity
  8
0
 62
7
100
AcDbLine
 10
43.325169
 20
39.028923
 30
0.0
 11
40.513325
 21
36.217077
 31
0.0
  0
LINE
  5
13d
100
AcDbEntity
  8
0
 62
7
100
AcDbLine
 10
40.852787
 20
35.758294
 30
0.0
 11
44.151457
 21
39.056964
 31
0.0
  0
LINE
  5
13e
100
AcDbEntity
  8
0
 62
7
100
AcDbLine
 10
45.342054
 20
39.449317
 30
0.0
 11
41.147472
 21
35.254734
 31
0.0
  0
LINE
  5
13f
100
AcDbEntity
  8
0
 62
7
100
AcDbLine
 10
10.813321
 20
43.236343
 30
0.0
 11
8.828577
 21
41.251599
 31
0.0
  0
LINE
  5
140
100
AcDbEntity
  8
0
 62
7
100
AcDbLine
 10
6.473813
 20
38.098589
 30
0.0
 11
13.904129
 21
45.528905
 31
0.0
  0
LINE
  5
141
100
AcDbEntity
  8
0
 62
7
100
AcDbLine
 10
15.720016
 20
46.546548
 30
0.0
 11
5.454677
 21
36.281209
 31
0.0
  0
LINE
  5
142
100
AcDbEntity
  8
0
 62
7
100
AcDbLine
 10
4.748452
 20
34.776738
 30
0.0
 11
17.214213
 21
47.242499
 31
0.0
  0
LINE
  5
143
100
AcDbEntity
  8
0
 62
7
100
AcDbLine
 10
18.495970
 20
47.726012
 30
0.0
 11
4.293236
 21
33.523278
 31
0.0
  0
LINE
  5
144
100
AcDbEntity
  8
0
 62
7
100
AcDbLine
 10
3.912926
 20
32.344724
 30
0.0
 11
19.654992
 21
48.086789
 31
0.0
  0
LINE
  5
145
100
AcDbEntity
  8
0
 62
7
100
AcDbLine
 10
20.746380
 20
48.379932
 30
0.0
 11
3.639352
 21
31.272903
 31
0.0
  0
LINE
  5
146
100
AcDbEntity
  8
0
 62
7
100
AcDbLine
 10
3.414349
 20
30.249656
 30
0.0
 11
21.749426
 21
48.584733
 31
0.0
  0
LINE
  5
147
100
AcDbEntity
  8
0
 62
7
100
AcDbLine
 10
22.704802
 20
48.741864
 30
0.0
 11
3.271766
 21
29.308827
 31
0.0
  0
LINE
  5
148
100
AcDbEntity
  8
0
 62
7
100
AcDbLine
 10
3.129182
 20
28.367999
 30
0.0
 11
23.630419
 21
48.869236
 31
0.0
  0
LINE
  5
149
100
AcDbEntity
  8
0
 62
7
100
AcDbLine
 10
24.482214
 20
48.922786
 30
0.0
 11
16.403771
 21
40.844343
 31
0.0
  0
LINE
  5
14a
100
AcDbEntity
  8
0
 62
7
100
AcDbLine
 10
18.282035
 20
41.924361
 30
0.0
 11
25.334010
 21
48.976337
 31
0.0
  0
LINE
  5
14b
100
AcDbEntity
  8
0
 62
7
100
AcDbLine
 10
26.155920
 20
49.000001
 30
0.0
 11
19.718517
 21
42.562599
 31
0.0
  0
LINE
  5
14c
100
AcDbEntity
  8
0
 62
7
100
AcDbLine
 10
20.936115
 20
42.981951
 30
0.0
 11
26.954164
 21
49.000001
 31
0.0
  0
LINE
  5
14d
100
AcDbEntity
  8
0
 62
7
100
AcDbLine
 10
27.752409
 20
49.000001
 30
0.0
 11
22.027253
 21
43.274844
 31
0.0
  0
LINE
  5
14e
100
AcDbEntity
  8
0
 62
7
100
AcDbLine
 10
23.038350
 20
43.487697
 30
0.0
 11
28.550656
 21
49.000001
 31
0.0
  0
LINE
  5
14f
100
AcDbEntity
  8
0
 62
7
100
AcDbLine
 10
29.348898
 20
49.000001
 30
0.0
 11
23.972379
 21
43.623481
 31
0.0
  0
LINE
  5
150
100
AcDbEntity
  8
0
 62
7
100
AcDbLine
 10
24.838137
 20
43.690994
 30
0.0
 11
30.147144
 21
49.000001
 31
0.0
  0
LINE
  5
151
100
AcDbEntity
  8
0
 62
7
100
AcDbLine
 10
30.945390
 20
49.000001
 30
0.0
 11
25.680060
 21
43.734672
 31
0.0
  0
LINE
  5
152
100
AcDbEntity
  8
0
 62
7
100
AcDbLine
 10
26.463712
 20
43.720078
 30
0.0
 11
31.743633
 21
49.000000
 31
0.0
  0
LINE
  5
153
100
AcDbEntity
  8
0
 62
7
100
AcDbLine
 10
32.541879
 20
49.000000
 30
0.0
 11
27.220331
 21
43.678452
 31
0.0
  0
LINE
  5
154
100
AcDbEntity
  8
0
 62
7
100
AcDbLine
 10
27.956966
 20
43.616842
 30
0.0
 11
33.340125
 21
49.000000
 31
0.0
  0
LINE
  5
155
100
AcDbEntity
  8
0
 62
7
100
AcDbLine
 10
34.138370
 20
49.000000
 30
0.0
 11
28.652603
 21
43.514232
 31
0.0
  0
LINE
  5
156
100
AcDbEntity
  8
0
 62
7
100
AcDbLine
 10
29.345738
 20
43.409123
 30
0.0
 11
34.936613
 21
49.000000
 31
0.0
  0
LINE
  5
157
100
AcDbEntity
  8
0
 62
7
100
AcDbLine
 10
35.734859
 20
49.000000
 30
0.0
 11
29.989249
 21
43.254391
 31
0.0
  0
LINE
  5
158
100
AcDbEntity
  8
0
 62
7
100
AcDbLine
 10
30.632764
 20
43.099659
 30
0.0
 11
36.533105
 21
49.000000
 31
0.0
  0
LINE
  5
159
100
AcDbEntity
  8
0
 62
7
100
AcDbLine
 10
37.331348
 20
49.000000
 30
0.0
 11
31.247467
 21
42.916117
 31
0.0
  0
LINE
  5
15a
100
AcDbEntity
  8
0
 62
7
100
AcDbLine
 10
31.844971
 20
42.715376
 30
0.0
 11
38.129594
 21
49.000000
 31
0.0
  0
LINE
  5
15b
100
AcDbEntity
  8
0
 62
7
100
AcDbLine
 10
38.927840
 20
49.000000
 30
0.0
 11
32.439012
 21
42.511173
 31
0.0
  0
LINE
  5
15c
100
AcDbEntity
  8
0
 62
7
100
AcDbLine
 10
32.994704
 20
42.268619
 30
0.0
 11
39.726085
 21
49.000000
 31
0.0
  0
LINE
  5
15d
100
AcDbEntity
  8
0
 62
7
100
AcDbLine
 10
40.524328
 20
49.000000
 30
0.0
 11
33.550394
 21
42.026066
 31
0.0
  0
LINE
  5
15e
100
AcDbEntity
  8
0
 62
7
100
AcDbLine
 10
34.088979
 20
41.766404
 30
0.0
 11
41.322574
 21
49.000000
 31
0.0
  0
LINE
  5
15f
100
AcDbEntity
  8
0
 62
7
100
AcDbLine
 10
42.120820
 20
49.000000
 30
0.0
 11
34.605646
 21
41.484826
 31
0.0
  0
LINE
  5
160
100
AcDbEntity
  8
0
 62
7
100
AcDbLine
 10
35.122313
 20
41.203248
 30
0.0
 11
42.919063
 21
49.000000
 31
0.0
  0
LINE
  5
161
100
AcDbEntity
  8
0
 62
7
100
AcDbLine
 10
43.717309
 20
49.000000
 30
0.0
 11
35.612332
 21
40.895024
 31
0.0
  0
LINE
  5
162
100
AcDbEntity
  8
0
 62
7
100
AcDbLine
 10
42.470121
 20
46.954565
 30
0.0
 11
44.501235
 21
48.985682
 31
0.0
  0
LINE
  5
163
100
AcDbEntity
  8
0
 62
7
100
AcDbLine
 10
45.222473
 20
48.908673
 30
0.0
 11
43.456953
 21
47.143154
 31
0.0
  0
LINE
  5
164
100
AcDbEntity
  8
0
 62
7
100
AcDbLine
 10
44.245795
 20
47.133754
 30
0.0
 11
45.841155
 21
48.729113
 31
0.0
  0
LINE
  5
165
100
AcDbEntity
  8
0
 62
7
100
AcDbLine
 10
46.405109
 20
48.494820
 30
0.0
 11
44.884394
 21
46.974105
 31
0.0
  0
LINE
  5
166
100
AcDbEntity
  8
0
 62
7
100
AcDbLine
 10
45.405762
 20
46.697230
 30
0.0
 11
46.922842
 21
48.214310
 31
0.0
  0
LINE
  5
167
100
AcDbEntity
  8
0
 62
7
100
AcDbLine
 10
47.363518
 20
47.856740
 30
0.0
 11
45.818117
 21
46.311339
 31
0.0
  0
LINE
  5
168
100
AcDbEntity
  8
0
 62
7
100
AcDbLine
 10
46.110339
 20
45.805315
 30
0.0
 11
47.770638
 21
47.465614
 31
0.0
  0
LINE
  5
169
100
AcDbEntity
  8
0
 62
7
100
AcDbLine
 10
48.134476
 20
47.031208
 30
0.0
 11
46.246395
 21
45.143127
 31
0.0
  0
LINE
  5
16a
100
AcDbEntity
  8
0
 62
7
100
AcDbLine
 10
46.077708
 20
44.176196
 30
0.0
 11
48.430344
 21
46.528831
 31
0.0
  0
LINE
  5
16b
100
AcDbEntity
  8
0
 62
7
100
AcDbLine
 10
48.684205
 20
45.984448
 30
0.0
 11
45.749436
 21
43.049677
 31
0.0
  0
LINE
  5
16c
100
AcDbEntity
  8
0
 62
7
100
AcDbLine
 10
46.124207
 20
42.626206
 30
0.0
 11
48.880663
 21
45.382659
 31
0.0
  0
LINE
  5
16d
100
AcDbEntity
  8
0
 62
7
100
AcDbLine
 10
48.973373
 20
44.677125
 30
0.0
 11
46.377338
 21
42.081089
 31
0.0
  0
LINE
  5
16e
100
AcDbEntity
  8
0
 62
7
100
AcDbLine
 10
46.462874
 20
41.368382
 30
0.0
 11
49.003983
 21
43.909490
 31
0.0
  0
LINE
  5
16f
100
AcDbEntity
  8
0
 62
7
100
AcDbLine
 10
49.003983
 20
43.111245
 30
0.0
 11
46.121540
 21
40.228802
 31
0.0
  0
LINE
  5
170
100
AcDbEntity
  8
0
 62
7
100
AcDbLine
 10
41.428890
 20
34.737906
 30
0.0
 11
49.003983
 21
42.313000
 31
0.0
  0
LINE
  5
171
100
AcDbEntity
  8
0
 62
7
100
AcDbLine
 10
49.003983
 20
41.514755
 30
0.0
 11
41.710305
 21
34.221078
 31
0.0
  0
LINE
  5
172
100
AcDbEntity
  8
0
 62
7
100
AcDbLine
 10
41.991723
 20
33.704250
 30
0.0
 11
49.003983
 21
40.716510
 31
0.0
  0
LINE
  5
173
100
AcDbEntity
  8
0
 62
7
100
AcDbLine
 10
49.003983
 20
39.918265
 30
0.0
 11
42.227370
 21
33.141652
 31
0.0
  0
LINE
  5
174
100
AcDbEntity
  8
0
 62
7
100
AcDbLine
 10
42.448632
 20
32.564668
 30
0.0
 11
49.003983
 21
39.120020
 31
0.0
  0
LINE
  5
175
100
AcDbEntity
  8
0
 62
7
100
AcDbLine
 10
49.003983
 20
38.321775
 30
0.0
 11
42.669892
 21
31.987684
 31
0.0
  0
LINE
  5
176
100
AcDbEntity
  8
0
 62
7
100
AcDbLine
 10
42.891154
 20
31.410701
 30
0.0
 11
49.003983
 21
37.523530
 31
0.0
  0
LINE
  5
177
100
AcDbEntity
  8
0
 62
7
100
AcDbLine
 10
49.003983
 20
36.725285
 30
0.0
 11
43.051112
 21
30.772414
 31
0.0
  0
LINE
  5
178
100
AcDbEntity
  8
0
 62
7
100
AcDbLine
 10
43.206757
 20
30.129815
 30
0.0
 11
49.003983
 21
35.927040
 31
0.0
  0
LINE
  5
179
100
AcDbEntity
  8
0
 62
7
100
AcDbLine
 10
49.003983
 20
35.128795
 30
0.0
 11
43.362403
 21
29.487216
 31
0.0
  0
LINE
  5
17a
100
AcDbEntity
  8
0
 62
7
100
AcDbLine
 10
43.491356
 20
28.817923
 30
0.0
 11
49.003983
 21
34.330550
 31
0.0
  0
LINE
  5
17b
100
AcDbEntity
  8
0
 62
7
100
AcDbLine
 10
49.003983
 20
33.532305
 30
0.0
 11
43.571106
 21
28.099428
 31
0.0
  0
LINE
  5
17c
100
AcDbEntity
  8
0
 62
7
100
AcDbLine
 10
43.650857
 20
27.380934
 30
0.0
 11
49.003983
 21
32.734061
 31
0.0
  0
LINE
  5
17d
100
AcDbEntity
  8
0
 62
7
100
AcDbLine
 10
49.003983
 20
31.935815
 30
0.0
 11
43.723724
 21
26.655556
 31
0.0
  0
LINE
  5
17e
100
AcDbEntity
  8
0
 62
7
100
AcDbLine
 10
43.709387
 20
25.842979
 30
0.0
 11
49.003977
 21
31.137570
 31
0.0
  0
LINE
  5
17f
100
AcDbEntity
  8
0
 62
7
100
AcDbLine
 10
49.003977
 20
30.339325
 30
0.0
 11
43.695053
 21
25.030402
 31
0.0
  0
LINE
  5
180
100
AcDbEntity
  8
0
 62
7
100
AcDbLine
 10
43.660568
 20
24.197672
 30
0.0
 11
49.003977
 21
29.541081
 31
0.0
  0
LINE
  5
181
100
AcDbEntity
  8
0
 62
7
100
AcDbLine
 10
49.003977
 20
28.742836
 30
0.0
 11
43.519192
 21
23.258052
 31
0.0
  0
LINE
  5
182
100
AcDbEntity
  8
0
 62
7
100
AcDbLine
 10
43.377815
 20
22.318430
 30
0.0
 11
49.003977
 21
27.944591
 31
0.0
  0
LINE
  5
183
100
AcDbEntity
  8
0
 62
7
100
AcDbLine
 10
49.003977
 20
27.146345
 30
0.0
 11
43.121529
 21
21.263898
 31
0.0
  0
LINE
  5
184
100
AcDbEntity
  8
0
 62
7
100
AcDbLine
 10
42.808164
 20
20.152287
 30
0.0
 11
49.003977
 21
26.348100
 31
0.0
  0
LINE
  5
185
100
AcDbEntity
  8
0
 62
7
100
AcDbLine
 10
48.982980
 20
25.528864
 30
0.0
 11
42.257613
 21
18.803496
 31
0.0
  0
LINE
  5
186
100
AcDbEntity
  8
0
 62
7
100
AcDbLine
 10
41.420243
 20
17.167883
 30
0.0
 11
48.940483
 21
24.688123
 31
0.0
  0
LINE
  5
187
100
AcDbEntity
  8
0
 62
7
100
AcDbLine
 10
48.897989
 20
23.847382
 30
0.0
 11
39.431660
 21
14.381054
 31
0.0
  0
LINE
  5
188
100
AcDbEntity
  8
0
 62
7
100
AcDbLine
 10
29.077689
 20
3.228837
 30
0.0
 11
48.777957
 21
22.929105
 31
0.0
  0
LINE
  5
189
100
AcDbEntity
  8
0
 62
7
100
AcDbLine
 10
48.634040
 20
21.986946
 30
0.0
 11
30.019848
 21
3.372753
 31
0.0
  0
LINE
  5
18a
100
AcDbEntity
  8
0
 62
7
100
AcDbLine
 10
31.007296
 20
3.561955
 30
0.0
 11
48.444839
 21
20.999498
 31
0.0
  0
LINE
  5
18b
100
AcDbEntity
  8
0
 62
7
100
AcDbLine
 10
48.168278
 20
19.924691
 30
0.0
 11
32.082102
 21
3.838516
 31
0.0
  0
LINE
  5
18c
100
AcDbEntity
  8
0
 62
7
100
AcDbLine
 10
33.210675
 20
4.168843
 30
0.0
 11
47.837951
 21
18.796119
 31
0.0
  0
LINE
  5
18d
100
AcDbEntity
  8
0
 62
7
100
AcDbLine
 10
47.376698
 20
17.536623
 30
0.0
 11
34.470171
 21
4.630095
 31
0.0
  0
LINE
  5
18e
100
AcDbEntity
  8
0
 62
7
100
AcDbLine
 10
35.902302
 20
5.263981
 30
0.0
 11
46.742810
 21
16.104489
 31
0.0
  0
LINE
  5
18f
100
AcDbEntity
  8
0
 62
7
100
AcDbLine
 10
45.847635
 20
14.411068
 30
0.0
 11
37.595725
 21
6.159159
 31
0.0
  0
LINE
  5
190
100
AcDbEntity
  8
0
 62
7
100
AcDbLine
 10
40.057194
 20
7.822384
 30
0.0
 11
44.184409
 21
11.949599
 31
0.0
  0
SPLINE
  5
191
100
AcDbEntity
  8
0
 62
5
100
AcDbSpline
 70
8
 71
3
 72
8
 73
4
 74
0
 40
0
 40
0
 40
0
 40
0
 40
1
 40
1
 40
1
 40
1
 10
26.127148
 20
43.738595
 30
0.0
 10
30.409938
 20
43.702413
 30
0.0
 10
34.643853
 20
42.057926
 30
0.0
 10
37.855565
 20
39.230407
 30
0.0
  0
SPLINE
  5
192
100
AcDbEntity
  8
0
 62
5
100
AcDbSpline
 70
8
 71
3
 72
8
 73
4
 74
0
 40
0
 40
0
 40
0
 40
0
 40
1
 40
1
 40
1
 40
1
 10
37.855565
 20
39.230407
 30
0.0
 10
42.663116
 20
35.075312
 30
0.0
 10
44.689906
 20
28.173132
 30
0.0
 10
43.330901
 20
22.006585
 30
0.0
  0
SPLINE
  5
193
100
AcDbEntity
  8
0
 62
5
100
AcDbSpline
 70
8
 71
3
 72
8
 73
4
 74
0
 40
0
 40
0
 40
0
 40
0
 40
1
 40
1
 40
1
 40
1
 10
43.330901
 20
22.006585
 30
0.0
 10
42.143082
 20
16.264458
 30
0.0
 10
37.702967
 20
11.471526
 30
0.0
 10
32.259888
 20
9.422435
 30
0.0
  0
SPLINE
  5
194
100
AcDbEntity
  8
0
 62
5
100
AcDbSpline
 70
8
 71
3
 72
8
 73
4
 74
0
 40
0
 40
0
 40
0
 40
0
 40
1
 40
1
 40
1
 40
1
 10
32.259888
 20
9.422435
 30
0.0
 10
26.611305
 20
7.142841
 30
0.0
 10
19.826007
 20
8.238278
 30
0.0
 10
15.073958
 20
12.009690
 30
0.0
  0
SPLINE
  5
195
100
AcDbEntity
  8
0
 62
5
100
AcDbSpline
 70
8
 71
3
 72
8
 73
4
 74
0
 40
0
 40
0
 40
0
 40
0
 40
1
 40
1
 40
1
 40
1
 10
15.073958
 20
12.009690
 30
0.0
 10
9.799358
 20
16.040422
 30
0.0
 10
7.248380
 20
23.193691
 30
0.0
 10
8.589122
 20
29.676969
 30
0.0
  0
SPLINE
  5
196
100
AcDbEntity
  8
0
 62
5
100
AcDbSpline
 70
8
 71
3
 72
8
 73
4
 74
0
 40
0
 40
0
 40
0
 40
0
 40
1
 40
1
 40
1
 40
1
 10
8.589122
 20
29.676969
 30
0.0
 10
10.182342
 20
37.532734
 30
0.0
 10
17.679857
 20
43.699011
 30
0.0
 10
25.712655
 20
43.736363
 30
0.0
  0
SPLINE
  5
197
100
AcDbEntity
  8
0
 62
5
100
AcDbSpline
 70
8
 71
3
 72
8
 73
4
 74
0
 40
0
 40
0
 40
0
 40
0
 40
1
 40
1
 40
1
 40
1
 10
25.712655
 20
43.736363
 30
0.0
 10
25.850879
 20
43.738564
 30
0.0
 10
25.988995
 20
43.739761
 30
0.0
 10
26.127148
 20
43.738592
 30
0.0
  0
LINE
  5
198
100
AcDbEntity
  8
0
 62
5
100
AcDbLine
 10
26.127148
 20
43.738592
 30
0.0
 11
26.127148
 21
43.738595
 31
0.0
  0
LINE
  5
199
100
AcDbEntity
  8
0
 62
7
100
AcDbLine
 10
10.948751
 20
35.389322
 30
0.0
 11
3.083243
 21
27.523815
 31
0.0
  0
LINE
  5
19a
100
AcDbEntity
  8
0
 62
7
100
AcDbLine
 10
3.041092
 20
26.683419
 30
0.0
 11
9.926118
 21
33.568446
 31
0.0
  0
LINE
  5
19b
100
AcDbEntity
  8
0
 62
7
100
AcDbLine
 10
9.322633
 20
32.166714
 30
0.0
 11
3.013989
 21
25.858071
 31
0.0
  0
LINE
  5
19c
100
AcDbEntity
  8
0
 62
7
100
AcDbLine
 10
3.052396
 20
25.098232
 30
0.0
 11
8.912677
 21
30.958514
 31
0.0
  0
LINE
  5
19d
100
AcDbEntity
  8
0
 62
7
100
AcDbLine
 10
8.643074
 20
29.890666
 30
0.0
 11
3.090803
 21
24.338395
 31
0.0
  0
LINE
  5
19e
100
AcDbEntity
  8
0
 62
7
100
AcDbLine
 10
3.135491
 20
23.584837
 30
0.0
 11
8.459679
 21
28.909026
 31
0.0
  0
LINE
  5
19f
100
AcDbEntity
  8
0
 62
7
100
AcDbLine
 10
8.339160
 20
27.990262
 30
0.0
 11
3.241265
 21
22.892368
 31
0.0
  0
LINE
  5
1a0
100
AcDbEntity
  8
0
 62
7
100
AcDbLine
 10
3.347040
 20
22.199896
 30
0.0
 11
8.264048
 21
27.116905
 31
0.0
  0
LINE
  5
1a1
100
AcDbEntity
  8
0
 62
7
100
AcDbLine
 10
8.245040
 20
26.299652
 30
0.0
 11
3.452815
 21
21.507427
 31
0.0
  0
LINE
  5
1a2
100
AcDbEntity
  8
0
 62
7
100
AcDbLine
 10
3.604455
 20
20.860822
 30
0.0
 11
8.259431
 21
25.515798
 31
0.0
  0
LINE
  5
1a3
100
AcDbEntity
  8
0
 62
7
100
AcDbLine
 10
8.294791
 20
24.752912
 30
0.0
 11
3.767818
 21
20.225938
 31
0.0
  0
LINE
  5
1a4
100
AcDbEntity
  8
0
 62
7
100
AcDbLine
 10
3.931180
 20
19.591057
 30
0.0
 11
8.398202
 21
24.058079
 31
0.0
  0
LINE
  5
1a5
100
AcDbEntity
  8
0
 62
7
100
AcDbLine
 10
8.502042
 20
23.363674
 30
0.0
 11
4.111013
 21
18.972646
 31
0.0
  0
LINE
  5
1a6
100
AcDbEntity
  8
0
 62
7
100
AcDbLine
 10
4.324985
 20
18.388372
 30
0.0
 11
8.605882
 21
22.669269
 31
0.0
  0
LINE
  5
1a7
100
AcDbEntity
  8
0
 62
7
100
AcDbLine
 10
8.745235
 20
22.010376
 30
0.0
 11
4.538957
 21
17.804099
 31
0.0
  0
LINE
  5
1a8
100
AcDbEntity
  8
0
 62
7
100
AcDbLine
 10
4.752929
 20
17.219826
 30
0.0
 11
8.924776
 21
21.391671
 31
0.0
  0
LINE
  5
1a9
100
AcDbEntity
  8
0
 62
7
100
AcDbLine
 10
9.104317
 20
20.772969
 30
0.0
 11
4.999262
 21
16.667915
 31
0.0
  0
LINE
  5
1aa
100
AcDbEntity
  8
0
 62
7
100
AcDbLine
 10
5.258859
 20
16.129265
 30
0.0
 11
9.283858
 21
20.154265
 31
0.0
  0
LINE
  5
1ab
100
AcDbEntity
  8
0
 62
7
100
AcDbLine
 10
9.504259
 20
19.576421
 30
0.0
 11
5.518457
 21
15.590619
 31
0.0
  0
LINE
  5
1ac
100
AcDbEntity
  8
0
 62
7
100
AcDbLine
 10
5.778054
 20
15.051972
 30
0.0
 11
9.748945
 21
19.022862
 31
0.0
  0
LINE
  5
1ad
100
AcDbEntity
  8
0
 62
7
100
AcDbLine
 10
9.993631
 20
18.469302
 30
0.0
 11
6.078818
 21
14.554491
 31
0.0
  0
LINE
  5
1ae
100
AcDbEntity
  8
0
 62
7
100
AcDbLine
 10
6.380553
 20
14.057980
 30
0.0
 11
10.238317
 21
17.915743
 31
0.0
  0
LINE
  5
1af
100
AcDbEntity
  8
0
 62
7
100
AcDbLine
 10
10.507368
 20
17.386551
 30
0.0
 11
6.682288
 21
13.561469
 31
0.0
  0
LINE
  5
1b0
100
AcDbEntity
  8
0
 62
7
100
AcDbLine
 10
6.990298
 20
13.071235
 30
0.0
 11
10.797102
 21
16.878040
 31
0.0
  0
LINE
  5
1b1
100
AcDbEntity
  8
0
 62
7
100
AcDbLine
 10
11.099344
 20
16.382035
 30
0.0
 11
7.331863
 21
12.614554
 31
0.0
  0
LINE
  5
1b2
100
AcDbEntity
  8
0
 62
7
100
AcDbLine
 10
7.673427
 20
12.157874
 30
0.0
 11
11.418249
 21
15.902697
 31
0.0
  0
LINE
  5
1b3
100
AcDbEntity
  8
0
 62
7
100
AcDbLine
 10
11.745339
 20
15.431541
 30
0.0
 11
8.014992
 21
11.701193
 31
0.0
  0
LINE
  5
1b4
100
AcDbEntity
  8
0
 62
7
100
AcDbLine
 10
8.367344
 20
11.255302
 30
0.0
 11
12.093177
 21
14.981134
 31
0.0
  0
LINE
  5
1b5
100
AcDbEntity
  8
0
 62
7
100
AcDbLine
 10
12.444279
 20
14.533990
 30
0.0
 11
8.747424
 21
10.837136
 31
0.0
  0
LINE
  5
1b6
100
AcDbEntity
  8
0
 62
7
100
AcDbLine
 10
9.127503
 20
10.418970
 30
0.0
 11
12.821182
 21
14.112649
 31
0.0
  0
LINE
  5
1b7
100
AcDbEntity
  8
0
 62
7
100
AcDbLine
 10
13.198086
 20
13.691308
 30
0.0
 11
9.507582
 21
10.000804
 31
0.0
  0
LINE
  5
1b8
100
AcDbEntity
  8
0
 62
7
100
AcDbLine
 10
9.901889
 20
9.596868
 30
0.0
 11
13.602363
 21
13.297340
 31
0.0
  0
LINE
  5
1b9
100
AcDbEntity
  8
0
 62
7
100
AcDbLine
 10
14.008824
 20
12.905557
 30
0.0
 11
10.320055
 21
9.216788
 31
0.0
  0
LINE
  5
1ba
100
AcDbEntity
  8
0
 62
7
100
AcDbLine
 10
10.738221
 20
8.836708
 30
0.0
 11
14.437591
 21
12.536077
 31
0.0
  0
LINE
  5
1bb
100
AcDbEntity
  8
0
 62
7
100
AcDbLine
 10
14.874464
 20
12.174705
 30
0.0
 11
11.156387
 21
8.456628
 31
0.0
  0
LINE
  5
1bc
100
AcDbEntity
  8
0
 62
7
100
AcDbLine
 10
11.592542
 20
8.094540
 30
0.0
 11
15.330899
 21
11.832895
 31
0.0
  0
LINE
  5
1bd
100
AcDbEntity
  8
0
 62
7
100
AcDbLine
 10
15.803772
 20
11.507524
 30
0.0
 11
12.049222
 21
7.752975
 31
0.0
  0
LINE
  5
1be
100
AcDbEntity
  8
0
 62
7
100
AcDbLine
 10
12.505902
 20
7.411410
 30
0.0
 11
16.276646
 21
11.182152
 31
0.0
  0
LINE
  5
1bf
100
AcDbEntity
  8
0
 62
7
100
AcDbLine
 10
16.749519
 20
10.856781
 30
0.0
 11
12.962582
 21
7.069844
 31
0.0
  0
LINE
  5
1c0
100
AcDbEntity
  8
0
 62
7
100
AcDbLine
 10
13.442746
 20
6.751763
 30
0.0
 11
17.255515
 21
10.564532
 31
0.0
  0
LINE
  5
1c1
100
AcDbEntity
  8
0
 62
7
100
AcDbLine
 10
17.784870
 20
10.295642
 30
0.0
 11
13.939256
 21
6.450028
 31
0.0
  0
LINE
  5
1c2
100
AcDbEntity
  8
0
 62
7
100
AcDbLine
 10
14.435767
 20
6.148293
 30
0.0
 11
18.314225
 21
10.026752
 31
0.0
  0
LINE
  5
1c3
100
AcDbEntity
  8
0
 62
7
100
AcDbLine
 10
18.843580
 20
9.757862
 30
0.0
 11
14.932278
 21
5.846561
 31
0.0
  0
LINE
  5
1c4
100
AcDbEntity
  8
0
 62
7
100
AcDbLine
 10
15.461241
 20
5.577278
 30
0.0
 11
19.418279
 21
9.534316
 31
0.0
  0
LINE
  5
1c5
100
AcDbEntity
  8
0
 62
7
100
AcDbLine
 10
20.007161
 20
9.324952
 30
0.0
 11
15.999889
 21
5.317682
 31
0.0
  0
LINE
  5
1c6
100
AcDbEntity
  8
0
 62
7
100
AcDbLine
 10
16.538537
 20
5.058083
 30
0.0
 11
20.596043
 21
9.115592
 31
0.0
  0
LINE
  5
1c7
100
AcDbEntity
  8
0
 62
7
100
AcDbLine
 10
21.193262
 20
8.914565
 30
0.0
 11
17.078913
 21
4.800213
 31
0.0
  0
LINE
  5
1c8
100
AcDbEntity
  8
0
 62
7
100
AcDbLine
 10
17.663186
 20
4.586244
 30
0.0
 11
21.848217
 21
8.771275
 31
0.0
  0
LINE
  5
1c9
100
AcDbEntity
  8
0
 62
7
100
AcDbLine
 10
22.503173
 20
8.627985
 30
0.0
 11
18.247459
 21
4.372271
 31
0.0
  0
LINE
  5
1ca
100
AcDbEntity
  8
0
 62
7
100
AcDbLine
 10
18.831732
 20
4.158299
 30
0.0
 11
23.158128
 21
8.484695
 31
0.0
  0
LINE
  5
1cb
100
AcDbEntity
  8
0
 62
7
100
AcDbLine
 10
23.870406
 20
8.398727
 30
0.0
 11
19.437348
 21
3.965671
 31
0.0
  0
LINE
  5
1cc
100
AcDbEntity
  8
0
 62
7
100
AcDbLine
 10
20.072230
 20
3.802307
 30
0.0
 11
24.603193
 21
8.333272
 31
0.0
  0
LINE
  5
1cd
100
AcDbEntity
  8
0
 62
7
100
AcDbLine
 10
25.335981
 20
8.267813
 30
0.0
 11
20.707112
 21
3.638945
 31
0.0
  0
LINE
  5
1ce
100
AcDbEntity
  8
0
 62
7
100
AcDbLine
 10
21.341994
 20
3.475581
 30
0.0
 11
26.132657
 21
8.266244
 31
0.0
  0
LINE
  5
1cf
100
AcDbEntity
  8
0
 62
7
100
AcDbLine
 10
26.963813
 20
8.299154
 30
0.0
 11
22.031627
 21
3.366970
 31
0.0
  0
LINE
  5
1d0
100
AcDbEntity
  8
0
 62
7
100
AcDbLine
 10
22.724097
 20
3.261193
 30
0.0
 11
27.794969
 21
8.332066
 31
0.0
  0
LINE
  5
1d1
100
AcDbEntity
  8
0
 62
7
100
AcDbLine
 10
28.751268
 20
8.490119
 30
0.0
 11
23.416567
 21
3.155419
 31
0.0
  0
LINE
  5
1d2
100
AcDbEntity
  8
0
 62
7
100
AcDbLine
 10
24.153091
 20
3.093697
 30
0.0
 11
29.718164
 21
8.658770
 31
0.0
  0
LINE
  5
1d3
100
AcDbEntity
  8
0
 62
7
100
AcDbLine
 10
30.813965
 20
8.956328
 30
0.0
 11
24.912929
 21
3.055293
 31
0.0
  0
LINE
  5
1d4
100
AcDbEntity
  8
0
 62
7
100
AcDbLine
 10
25.672767
 20
3.016885
 30
0.0
 11
31.991943
 21
9.336061
 31
0.0
  0
LINE
  5
1d5
100
AcDbEntity
  8
0
 62
7
100
AcDbLine
 10
33.379207
 20
9.925078
 30
0.0
 11
26.477941
 21
3.023814
 31
0.0
  0
LINE
  5
1d6
100
AcDbEntity
  8
0
 62
7
100
AcDbLine
 10
27.318682
 20
3.066311
 30
0.0
 11
35.055104
 21
10.802733
 31
0.0
  0
LINE
  5
1d7
100
AcDbEntity
  8
0
 62
7
100
AcDbLine
 10
37.839735
 20
12.789117
 30
0.0
 11
28.159424
 21
3.108808
 31
0.0
  0
SPLINE
  5
1d8
100
AcDbEntity
  8
0
 62
1
100
AcDbSpline
 70
8
 71
3
 72
8
 73
4
 74
0
 40
0
 40
0
 40
0
 40
0
 40
1
 40
1
 40
1
 40
1
 10
25.710426
 20
49.000001
 30
0.0
 10
13.150798
 20
48.840730
 30
0.0
 10
3.006815
 20
38.597193
 30
0.0
 10
3.006815
 20
25.999998
 30
0.0
  0
SPLINE
  5
1d9
100
AcDbEntity
  8
0
 62
1
100
AcDbSpline
 70
8
 71
3
 72
8
 73
4
 74
0
 40
0
 40
0
 40
0
 40
0
 40
1
 40
1
 40
1
 40
1
 10
3.006815
 20
25.999998
 30
0.0
 10
3.006815
 20
13.303617
 30
0.0
 10
13.310433
 20
3.000000
 30
0.0
 10
26.006813
 20
3.000000
 30
0.0
  0
SPLINE
  5
1da
100
AcDbEntity
  8
0
 62
1
100
AcDbSpline
 70
8
 71
3
 72
8
 73
4
 74
0
 40
0
 40
0
 40
0
 40
0
 40
1
 40
1
 40
1
 40
1
 10
26.006813
 20
3.000000
 30
0.0
 10
38.703194
 20
3.000000
 30
0.0
 10
49.006808
 20
13.303617
 30
0.0
 10
49.006805
 20
25.999998
 30
0.0
  0
SPLINE
  5
1db
100
AcDbEntity
  8
0
 62
1
100
AcDbSpline
 70
8
 71
3
 72
8
 73
4
 74
0
 40
0
 40
0
 40
0
 40
0
 40
1
 40
1
 40
1
 40
1
 10
49.006805
 20
25.999998
 30
0.0
 10
49.006805
 20
26.099193
 30
0.0
 10
49.005676
 20
26.197491
 30
0.0
 10
49.003983
 20
26.296388
 30
0.0
  0
LINE
  5
1dc
100
AcDbEntity
  8
0
 62
1
100
AcDbLine
 10
49.003983
 20
26.296388
 30
0.0
 11
49.003983
 21
44.420503
 31
0.0
  0
SPLINE
  5
1dd
100
AcDbEntity
  8
0
 62
1
100
AcDbSpline
 70
8
 71
3
 72
8
 73
4
 74
0
 40
0
 40
0
 40
0
 40
0
 40
1
 40
1
 40
1
 40
1
 10
49.003983
 20
44.420503
 30
0.0
 10
48.953595
 20
46.945198
 30
0.0
 10
46.899511
 20
48.980982
 30
0.0
 10
44.367137
 20
49.000001
 30
0.0
  0
LINE
  5
1de
100
AcDbEntity
  8
0
 62
1
100
AcDbLine
 10
44.367137
 20
49.000001
 30
0.0
 11
26.006813
 21
49.000001
 31
0.0
  0
SPLINE
  5
1df
100
AcDbEntity
  8
0
 62
1
100
AcDbSpline
 70
8
 71
3
 72
8
 73
4
 74
0
 40
0
 40
0
 40
0
 40
0
 40
1
 40
1
 40
1
 40
1
 10
26.006813
 20
49.000001
 30
0.0
 10
25.971761
 20
49.000001
 30
0.0
 10
25.936970
 20
49.000001
 30
0.0
 10
25.902074
 20
49.000001
 30
0.0
  0
SPLINE
  5
1e0
100
AcDbEntity
  8
0
 62
1
100
AcDbSpline
 70
8
 71
3
 72
8
 73
4
 74
0
 40
0
 40
0
 40
0
 40
0
 40
1
 40
1
 40
1
 40
1
 10
25.902074
 20
49.000001
 30
0.0
 10
25.838223
 20
49.000001
 30
0.0
 10
25.774373
 20
49.000820
 30
0.0
 10
25.710426
 20
49.000001
 30
0.0
  0
LINE
  5
1e1
100
AcDbEntity
  8
0
 62
1
100
AcDbLine
 10
25.710426
 20
49.000001
 30
0.0
 11
25.710426
 21
49.000001
 31
0.0
  0
SPLINE
  5
1e2
100
AcDbEntity
  8
0
 62
5
100
AcDbSpline
 70
8
 71
3
 72
8
 73
4
 74
0
 40
0
 40
0
 40
0
 40
0
 40
1
 40
1
 40
1
 40
1
 10
43.735625
 20
47.166945
 30
0.0
 10
43.484120
 20
47.166937
 30
0.0
 10
43.244186
 20
47.149345
 30
0.0
 10
43.012431
 20
47.105209
 30
0.0
  0
SPLINE
  5
1e3
100
AcDbEntity
  8
0
 62
5
100
AcDbSpline
 70
8
 71
3
 72
8
 73
4
 74
0
 40
0
 40
0
 40
0
 40
0
 40
1
 40
1
 40
1
 40
1
 10
43.012431
 20
47.105209
 30
0.0
 10
42.791792
 20
47.062497
 30
0.0
 10
42.577216
 20
47.004555
 30
0.0
 10
42.377431
 20
46.928820
 30
0.0
  0
SPLINE
  5
1e4
100
AcDbEntity
  8
0
 62
5
100
AcDbSpline
 70
8
 71
3
 72
8
 73
4
 74
0
 40
0
 40
0
 40
0
 40
0
 40
1
 40
1
 40
1
 40
1
 10
42.377431
 20
46.928820
 30
0.0
 10
42.374891
 20
46.927832
 30
0.0
 10
42.371193
 20
46.929808
 30
0.0
 10
42.368625
 20
46.928820
 30
0.0
  0
SPLINE
  5
1e5
100
AcDbEntity
  8
0
 62
5
100
AcDbSpline
 70
8
 71
3
 72
8
 73
4
 74
0
 40
0
 40
0
 40
0
 40
0
 40
1
 40
1
 40
1
 40
1
 10
42.368625
 20
46.928820
 30
0.0
 10
42.172145
 20
46.856911
 30
0.0
 10
41.984970
 20
46.763021
 30
0.0
 10
41.813000
 20
46.664237
 30
0.0
  0
SPLINE
  5
1e6
100
AcDbEntity
  8
0
 62
5
100
AcDbSpline
 70
8
 71
3
 72
8
 73
4
 74
0
 40
0
 40
0
 40
0
 40
0
 40
1
 40
1
 40
1
 40
1
 10
41.813000
 20
46.664237
 30
0.0
 10
41.646723
 20
46.566633
 30
0.0
 10
41.495097
 20
46.461517
 30
0.0
 10
41.354392
 20
46.346736
 30
0.0
  0
LINE
  5
1e7
100
AcDbEntity
  8
0
 62
5
100
AcDbLine
 10
41.354392
 20
46.346736
 30
0.0
 11
41.089806
 21
46.135070
 31
0.0
  0
LINE
  5
1e8
100
AcDbEntity
  8
0
 62
5
100
AcDbLine
 10
41.089806
 20
46.135070
 30
0.0
 11
41.292656
 21
45.870487
 31
0.0
  0
LINE
  5
1e9
100
AcDbEntity
  8
0
 62
5
100
AcDbLine
 10
41.292656
 20
45.870487
 30
0.0
 11
41.751264
 21
45.253125
 31
0.0
  0
LINE
  5
1ea
100
AcDbEntity
  8
0
 62
5
100
AcDbLine
 10
41.751264
 20
45.253125
 30
0.0
 11
41.954111
 21
44.970903
 31
0.0
  0
LINE
  5
1eb
100
AcDbEntity
  8
0
 62
5
100
AcDbLine
 10
41.954111
 20
44.970903
 30
0.0
 11
42.236334
 21
45.173750
 31
0.0
  0
SPLINE
  5
1ec
100
AcDbEntity
  8
0
 62
5
100
AcDbSpline
 70
8
 71
3
 72
8
 73
4
 74
0
 40
0
 40
0
 40
0
 40
0
 40
1
 40
1
 40
1
 40
1
 10
42.236334
 20
45.173750
 30
0.0
 10
42.459377
 20
45.336507
 30
0.0
 10
42.692461
 20
45.463774
 30
0.0
 10
42.933070
 20
45.561806
 30
0.0
  0
SPLINE
  5
1ed
100
AcDbEntity
  8
0
 62
5
100
AcDbSpline
 70
8
 71
3
 72
8
 73
4
 74
0
 40
0
 40
0
 40
0
 40
0
 40
1
 40
1
 40
1
 40
1
 10
42.933070
 20
45.561806
 30
0.0
 10
43.154515
 20
45.653620
 30
0.0
 10
43.418825
 20
45.702911
 30
0.0
 10
43.735639
 20
45.702917
 30
0.0
  0
SPLINE
  5
1ee
100
AcDbEntity
  8
0
 62
5
100
AcDbSpline
 70
8
 71
3
 72
8
 73
4
 74
0
 40
0
 40
0
 40
0
 40
0
 40
1
 40
1
 40
1
 40
1
 10
43.735639
 20
45.702917
 30
0.0
 10
43.889603
 20
45.702912
 30
0.0
 10
44.020164
 20
45.686630
 30
0.0
 10
44.132517
 20
45.650000
 30
0.0
  0
SPLINE
  5
1ef
100
AcDbEntity
  8
0
 62
5
100
AcDbSpline
 70
8
 71
3
 72
8
 73
4
 74
0
 40
0
 40
0
 40
0
 40
0
 40
1
 40
1
 40
1
 40
1
 10
44.132517
 20
45.650000
 30
0.0
 10
44.244903
 20
45.613346
 30
0.0
 10
44.334862
 20
45.562505
 30
0.0
 10
44.405920
 20
45.500070
 30
0.0
  0
SPLINE
  5
1f0
100
AcDbEntity
  8
0
 62
5
100
AcDbSpline
 70
8
 71
3
 72
8
 73
4
 74
0
 40
0
 40
0
 40
0
 40
0
 40
1
 40
1
 40
1
 40
1
 10
44.405920
 20
45.500070
 30
0.0
 10
44.474740
 20
45.441668
 30
0.0
 10
44.524992
 20
45.369950
 30
0.0
 10
44.564667
 20
45.279583
 30
0.0
  0
SPLINE
  5
1f1
100
AcDbEntity
  8
0
 62
5
100
AcDbSpline
 70
8
 71
3
 72
8
 73
4
 74
0
 40
0
 40
0
 40
0
 40
0
 40
1
 40
1
 40
1
 40
1
 10
44.564667
 20
45.279583
 30
0.0
 10
44.602307
 20
45.193839
 30
0.0
 10
44.626400
 20
45.093676
 30
0.0
 10
44.626403
 20
44.962083
 30
0.0
  0
SPLINE
  5
1f2
100
AcDbEntity
  8
0
 62
5
100
AcDbSpline
 70
8
 71
3
 72
8
 73
4
 74
0
 40
0
 40
0
 40
0
 40
0
 40
1
 40
1
 40
1
 40
1
 10
44.626403
 20
44.962083
 30
0.0
 10
44.626400
 20
44.802405
 30
0.0
 10
44.599677
 20
44.669637
 30
0.0
 10
44.547028
 20
44.547570
 30
0.0
  0
SPLINE
  5
1f3
100
AcDbEntity
  8
0
 62
5
100
AcDbSpline
 70
8
 71
3
 72
8
 73
4
 74
0
 40
0
 40
0
 40
0
 40
0
 40
1
 40
1
 40
1
 40
1
 10
44.547028
 20
44.547570
 30
0.0
 10
44.494918
 20
44.426775
 30
0.0
 10
44.422035
 20
44.319824
 30
0.0
 10
44.317722
 20
44.230070
 30
0.0
  0
LINE
  5
1f4
100
AcDbEntity
  8
0
 62
5
100
AcDbLine
 10
44.317722
 20
44.230070
 30
0.0
 11
44.308917
 21
44.230070
 31
0.0
  0
SPLINE
  5
1f5
100
AcDbEntity
  8
0
 62
5
100
AcDbSpline
 70
8
 71
3
 72
8
 73
4
 74
0
 40
0
 40
0
 40
0
 40
0
 40
1
 40
1
 40
1
 40
1
 10
44.308917
 20
44.230070
 30
0.0
 10
44.211669
 20
44.144397
 30
0.0
 10
44.091267
 20
44.072497
 30
0.0
 10
43.920864
 20
44.018403
 30
0.0
  0
SPLINE
  5
1f6
100
AcDbEntity
  8
0
 62
5
100
AcDbSpline
 70
8
 71
3
 72
8
 73
4
 74
0
 40
0
 40
0
 40
0
 40
0
 40
1
 40
1
 40
1
 40
1
 10
43.920864
 20
44.018403
 30
0.0
 10
43.753735
 20
43.965344
 30
0.0
 10
43.551399
 20
43.939025
 30
0.0
 10
43.312320
 20
43.939028
 30
0.0
  0
LINE
  5
1f7
100
AcDbEntity
  8
0
 62
5
100
AcDbLine
 10
43.312320
 20
43.939028
 30
0.0
 11
42.650864
 21
43.939028
 31
0.0
  0
LINE
  5
1f8
100
AcDbEntity
  8
0
 62
5
100
AcDbLine
 10
42.650864
 20
43.939028
 30
0.0
 11
42.298084
 21
43.939028
 31
0.0
  0
LINE
  5
1f9
100
AcDbEntity
  8
0
 62
5
100
AcDbLine
 10
42.298084
 20
43.939028
 30
0.0
 11
42.298084
 21
43.586250
 31
0.0
  0
LINE
  5
1fa
100
AcDbEntity
  8
0
 62
5
100
AcDbLine
 10
42.298084
 20
43.586250
 30
0.0
 11
42.298084
 21
42.836597
 31
0.0
  0
LINE
  5
1fb
100
AcDbEntity
  8
0
 62
5
100
AcDbLine
 10
42.298084
 20
42.836597
 30
0.0
 11
42.298084
 21
42.483820
 31
0.0
  0
LINE
  5
1fc
100
AcDbEntity
  8
0
 62
5
100
AcDbLine
 10
42.298084
 20
42.483820
 30
0.0
 11
42.650864
 21
42.483820
 31
0.0
  0
LINE
  5
1fd
100
AcDbEntity
  8
0
 62
5
100
AcDbLine
 10
42.650864
 20
42.483820
 30
0.0
 11
43.312320
 21
42.483820
 31
0.0
  0
SPLINE
  5
1fe
100
AcDbEntity
  8
0
 62
5
100
AcDbSpline
 70
8
 71
3
 72
8
 73
4
 74
0
 40
0
 40
0
 40
0
 40
0
 40
1
 40
1
 40
1
 40
1
 10
43.312320
 20
42.483820
 30
0.0
 10
43.587007
 20
42.483817
 30
0.0
 10
43.824892
 20
42.465323
 30
0.0
 10
44.026698
 20
42.422083
 30
0.0
  0
SPLINE
  5
1ff
100
AcDbEntity
  8
0
 62
5
100
AcDbSpline
 70
8
 71
3
 72
8
 73
4
 74
0
 40
0
 40
0
 40
0
 40
0
 40
1
 40
1
 40
1
 40
1
 10
44.026698
 20
42.422083
 30
0.0
 10
44.228196
 20
42.379509
 30
0.0
 10
44.384716
 20
42.314082
 30
0.0
 10
44.502945
 20
42.236875
 30
0.0
  0
SPLINE
  5
200
100
AcDbEntity
  8
0
 62
5
100
AcDbSpline
 70
8
 71
3
 72
8
 73
4
 74
0
 40
0
 40
0
 40
0
 40
0
 40
1
 40
1
 40
1
 40
1
 10
44.502945
 20
42.236875
 30
0.0
 10
44.618230
 20
42.163937
 30
0.0
 10
44.701062
 20
42.080931
 30
0.0
 10
44.758709
 20
41.972292
 30
0.0
  0
LINE
  5
201
100
AcDbEntity
  8
0
 62
5
100
AcDbLine
 10
44.758709
 20
41.972292
 30
0.0
 11
44.758709
 21
41.963472
 31
0.0
  0
SPLINE
  5
202
100
AcDbEntity
  8
0
 62
5
100
AcDbSpline
 70
8
 71
3
 72
8
 73
4
 74
0
 40
0
 40
0
 40
0
 40
0
 40
1
 40
1
 40
1
 40
1
 10
44.758709
 20
41.963472
 30
0.0
 10
44.813384
 20
41.866269
 30
0.0
 10
44.846900
 20
41.736351
 30
0.0
 10
44.846903
 20
41.557778
 30
0.0
  0
SPLINE
  5
203
100
AcDbEntity
  8
0
 62
5
100
AcDbSpline
 70
8
 71
3
 72
8
 73
4
 74
0
 40
0
 40
0
 40
0
 40
0
 40
1
 40
1
 40
1
 40
1
 10
44.846903
 20
41.557778
 30
0.0
 10
44.846900
 20
41.372750
 30
0.0
 10
44.819274
 20
41.214550
 30
0.0
 10
44.767531
 20
41.081528
 30
0.0
  0
SPLINE
  5
204
100
AcDbEntity
  8
0
 62
5
100
AcDbSpline
 70
8
 71
3
 72
8
 73
4
 74
0
 40
0
 40
0
 40
0
 40
0
 40
1
 40
1
 40
1
 40
1
 10
44.767531
 20
41.081528
 30
0.0
 10
44.721368
 20
40.956905
 30
0.0
 10
44.657179
 20
40.858048
 30
0.0
 10
44.555864
 20
40.772847
 30
0.0
  0
LINE
  5
205
100
AcDbEntity
  8
0
 62
5
100
AcDbLine
 10
44.555864
 20
40.772847
 30
0.0
 11
44.547059
 21
40.772847
 31
0.0
  0
SPLINE
  5
206
100
AcDbEntity
  8
0
 62
5
100
AcDbSpline
 70
8
 71
3
 72
8
 73
4
 74
0
 40
0
 40
0
 40
0
 40
0
 40
1
 40
1
 40
1
 40
1
 10
44.547059
 20
40.772847
 30
0.0
 10
44.449331
 20
40.688758
 30
0.0
 10
44.317113
 20
40.616275
 30
0.0
 10
44.132548
 20
40.561181
 30
0.0
  0
SPLINE
  5
207
100
AcDbEntity
  8
0
 62
5
100
AcDbSpline
 70
8
 71
3
 72
8
 73
4
 74
0
 40
0
 40
0
 40
0
 40
0
 40
1
 40
1
 40
1
 40
1
 10
44.132548
 20
40.561181
 30
0.0
 10
43.953029
 20
40.507593
 30
0.0
 10
43.723535
 20
40.472986
 30
0.0
 10
43.444628
 20
40.472986
 30
0.0
  0
SPLINE
  5
208
100
AcDbEntity
  8
0
 62
5
100
AcDbSpline
 70
8
 71
3
 72
8
 73
4
 74
0
 40
0
 40
0
 40
0
 40
0
 40
1
 40
1
 40
1
 40
1
 10
43.444628
 20
40.472986
 30
0.0
 10
43.168412
 20
40.472986
 30
0.0
 10
42.876140
 20
40.510811
 30
0.0
 10
42.562687
 20
40.587639
 30
0.0
  0
SPLINE
  5
209
100
AcDbEntity
  8
0
 62
5
100
AcDbSpline
 70
8
 71
3
 72
8
 73
4
 74
0
 40
0
 40
0
 40
0
 40
0
 40
1
 40
1
 40
1
 40
1
 10
42.562687
 20
40.587639
 30
0.0
 10
42.254495
 20
40.663922
 30
0.0
 10
41.968618
 20
40.766916
 30
0.0
 10
41.707198
 20
40.905139
 30
0.0
  0
LINE
  5
20a
100
AcDbEntity
  8
0
 62
5
100
AcDbLine
 10
41.707198
 20
40.905139
 30
0.0
 11
41.195670
 21
41.178542
 31
0.0
  0
LINE
  5
20b
100
AcDbEntity
  8
0
 62
5
100
AcDbLine
 10
41.195670
 20
41.178542
 30
0.0
 11
41.195670
 21
40.596458
 31
0.0
  0
LINE
  5
20c
100
AcDbEntity
  8
0
 62
5
100
AcDbLine
 10
41.195670
 20
40.596458
 30
0.0
 11
41.195670
 21
39.758611
 31
0.0
  0
LINE
  5
20d
100
AcDbEntity
  8
0
 62
5
100
AcDbLine
 10
41.195670
 20
39.758611
 30
0.0
 11
41.195670
 21
39.546944
 31
0.0
  0
LINE
  5
20e
100
AcDbEntity
  8
0
 62
5
100
AcDbLine
 10
41.195670
 20
39.546944
 30
0.0
 11
41.380881
 21
39.449931
 31
0.0
  0
SPLINE
  5
20f
100
AcDbEntity
  8
0
 62
5
100
AcDbSpline
 70
8
 71
3
 72
8
 73
4
 74
0
 40
0
 40
0
 40
0
 40
0
 40
1
 40
1
 40
1
 40
1
 10
41.380881
 20
39.449931
 30
0.0
 10
41.694046
 20
39.284136
 30
0.0
 10
42.025226
 20
39.168349
 30
0.0
 10
42.377479
 20
39.105972
 30
0.0
  0
SPLINE
  5
210
100
AcDbEntity
  8
0
 62
5
100
AcDbSpline
 70
8
 71
3
 72
8
 73
4
 74
0
 40
0
 40
0
 40
0
 40
0
 40
1
 40
1
 40
1
 40
1
 10
42.377479
 20
39.105972
 30
0.0
 10
42.720237
 20
39.045900
 30
0.0
 10
43.083579
 20
39.017778
 30
0.0
 10
43.462267
 20
39.017778
 30
0.0
  0
SPLINE
  5
211
100
AcDbEntity
  8
0
 62
5
100
AcDbSpline
 70
8
 71
3
 72
8
 73
4
 74
0
 40
0
 40
0
 40
0
 40
0
 40
1
 40
1
 40
1
 40
1
 10
43.462267
 20
39.017778
 30
0.0
 10
43.945728
 20
39.017778
 30
0.0
 10
44.380935
 20
39.065652
 30
0.0
 10
44.758726
 20
39.185347
 30
0.0
  0
SPLINE
  5
212
100
AcDbEntity
  8
0
 62
5
100
AcDbSpline
 70
8
 71
3
 72
8
 73
4
 74
0
 40
0
 40
0
 40
0
 40
0
 40
1
 40
1
 40
1
 40
1
 10
44.758726
 20
39.185347
 30
0.0
 10
45.129873
 20
39.302940
 30
0.0
 10
45.450421
 20
39.476504
 30
0.0
 10
45.711226
 20
39.705695
 30
0.0
  0
SPLINE
  5
213
100
AcDbEntity
  8
0
 62
5
100
AcDbSpline
 70
8
 71
3
 72
8
 73
4
 74
0
 40
0
 40
0
 40
0
 40
0
 40
1
 40
1
 40
1
 40
1
 10
45.711226
 20
39.705695
 30
0.0
 10
45.965217
 20
39.928900
 30
0.0
 10
46.149666
 20
40.207316
 30
0.0
 10
46.275673
 20
40.517083
 30
0.0
  0
LINE
  5
214
100
AcDbEntity
  8
0
 62
5
100
AcDbLine
 10
46.275673
 20
40.517083
 30
0.0
 11
46.284478
 21
40.517083
 31
0.0
  0
SPLINE
  5
215
100
AcDbEntity
  8
0
 62
5
100
AcDbSpline
 70
8
 71
3
 72
8
 73
4
 74
0
 40
0
 40
0
 40
0
 40
0
 40
1
 40
1
 40
1
 40
1
 10
46.284478
 20
40.517083
 30
0.0
 10
46.285325
 20
40.519341
 30
0.0
 10
46.283632
 20
40.523631
 30
0.0
 10
46.284478
 20
40.525903
 30
0.0
  0
SPLINE
  5
216
100
AcDbEntity
  8
0
 62
5
100
AcDbSpline
 70
8
 71
3
 72
8
 73
4
 74
0
 40
0
 40
0
 40
0
 40
0
 40
1
 40
1
 40
1
 40
1
 10
46.284478
 20
40.525903
 30
0.0
 10
46.410265
 20
40.833978
 30
0.0
 10
46.478500
 20
41.176717
 30
0.0
 10
46.478506
 20
41.531320
 30
0.0
  0
SPLINE
  5
217
100
AcDbEntity
  8
0
 62
5
100
AcDbSpline
 70
8
 71
3
 72
8
 73
4
 74
0
 40
0
 40
0
 40
0
 40
0
 40
1
 40
1
 40
1
 40
1
 10
46.478506
 20
41.531320
 30
0.0
 10
46.478500
 20
42.084896
 30
0.0
 10
46.285489
 20
42.579068
 30
0.0
 10
45.914064
 20
42.942431
 30
0.0
  0
SPLINE
  5
218
100
AcDbEntity
  8
0
 62
5
100
AcDbSpline
 70
8
 71
3
 72
8
 73
4
 74
0
 40
0
 40
0
 40
0
 40
0
 40
1
 40
1
 40
1
 40
1
 10
45.914064
 20
42.942431
 30
0.0
 10
45.752128
 20
43.102600
 30
0.0
 10
45.547692
 20
43.219105
 30
0.0
 10
45.331978
 20
43.321667
 30
0.0
  0
SPLINE
  5
219
100
AcDbEntity
  8
0
 62
5
100
AcDbSpline
 70
8
 71
3
 72
8
 73
4
 74
0
 40
0
 40
0
 40
0
 40
0
 40
1
 40
1
 40
1
 40
1
 10
45.331978
 20
43.321667
 30
0.0
 10
45.467448
 20
43.410510
 30
0.0
 10
45.611511
 20
43.487425
 30
0.0
 10
45.720037
 20
43.603889
 30
0.0
  0
SPLINE
  5
21a
100
AcDbEntity
  8
0
 62
5
100
AcDbSpline
 70
8
 71
3
 72
8
 73
4
 74
0
 40
0
 40
0
 40
0
 40
0
 40
1
 40
1
 40
1
 40
1
 10
45.720037
 20
43.603889
 30
0.0
 10
45.891769
 20
43.783801
 30
0.0
 10
46.025587
 20
44.000664
 30
0.0
 10
46.116909
 20
44.238889
 30
0.0
  0
SPLINE
  5
21b
100
AcDbEntity
  8
0
 62
5
100
AcDbSpline
 70
8
 71
3
 72
8
 73
4
 74
0
 40
0
 40
0
 40
0
 40
0
 40
1
 40
1
 40
1
 40
1
 10
46.116909
 20
44.238889
 30
0.0
 10
46.209952
 20
44.481618
 30
0.0
 10
46.258014
 20
44.745629
 30
0.0
 10
46.258020
 20
45.023820
 30
0.0
  0
SPLINE
  5
21c
100
AcDbEntity
  8
0
 62
5
100
AcDbSpline
 70
8
 71
3
 72
8
 73
4
 74
0
 40
0
 40
0
 40
0
 40
0
 40
1
 40
1
 40
1
 40
1
 10
46.258020
 20
45.023820
 30
0.0
 10
46.258014
 20
45.323433
 30
0.0
 10
46.200407
 20
45.608133
 30
0.0
 10
46.090451
 20
45.870487
 30
0.0
  0
SPLINE
  5
21d
100
AcDbEntity
  8
0
 62
5
100
AcDbSpline
 70
8
 71
3
 72
8
 73
4
 74
0
 40
0
 40
0
 40
0
 40
0
 40
1
 40
1
 40
1
 40
1
 10
46.090451
 20
45.870487
 30
0.0
 10
46.089604
 20
45.872688
 30
0.0
 10
46.091297
 20
45.877102
 30
0.0
 10
46.090451
 20
45.879306
 30
0.0
  0
LINE
  5
21e
100
AcDbEntity
  8
0
 62
5
100
AcDbLine
 10
46.090451
 20
45.879306
 30
0.0
 11
46.081645
 21
45.879306
 31
0.0
  0
SPLINE
  5
21f
100
AcDbEntity
  8
0
 62
5
100
AcDbSpline
 70
8
 71
3
 72
8
 73
4
 74
0
 40
0
 40
0
 40
0
 40
0
 40
1
 40
1
 40
1
 40
1
 10
46.081645
 20
45.879306
 30
0.0
 10
45.970633
 20
46.140178
 30
0.0
 10
45.800679
 20
46.378978
 30
0.0
 10
45.587753
 20
46.567223
 30
0.0
  0
SPLINE
  5
220
100
AcDbEntity
  8
0
 62
5
100
AcDbSpline
 70
8
 71
3
 72
8
 73
4
 74
0
 40
0
 40
0
 40
0
 40
0
 40
1
 40
1
 40
1
 40
1
 10
45.587753
 20
46.567223
 30
0.0
 10
45.584847
 20
46.569819
 30
0.0
 10
45.581855
 20
46.573471
 30
0.0
 10
45.578948
 20
46.576042
 30
0.0
  0
SPLINE
  5
221
100
AcDbEntity
  8
0
 62
5
100
AcDbSpline
 70
8
 71
3
 72
8
 73
4
 74
0
 40
0
 40
0
 40
0
 40
0
 40
1
 40
1
 40
1
 40
1
 10
45.578948
 20
46.576042
 30
0.0
 10
45.358027
 20
46.770438
 30
0.0
 10
45.090018
 20
46.916638
 30
0.0
 10
44.785195
 20
47.017014
 30
0.0
  0
SPLINE
  5
222
100
AcDbEntity
  8
0
 62
5
100
AcDbSpline
 70
8
 71
3
 72
8
 73
4
 74
0
 40
0
 40
0
 40
0
 40
0
 40
1
 40
1
 40
1
 40
1
 10
44.785195
 20
47.017014
 30
0.0
 10
44.473035
 20
47.121058
 30
0.0
 10
44.122030
 20
47.166937
 30
0.0
 10
43.735684
 20
47.166945
 30
0.0
  0
LINE
  5
223
100
AcDbEntity
  8
0
 62
5
100
AcDbLine
 10
43.735684
 20
47.166945
 30
0.0
 11
43.735625
 21
47.166945
 31
0.0
  0
LINE
  5
224
100
AcDbEntity
  8
0
 62
5
100
AcDbLine
 10
19.123861
 20
19.622093
 30
0.0
 11
19.092476
 21
31.619667
 31
0.0
  0
SPLINE
  5
225
100
AcDbEntity
  8
0
 62
5
100
AcDbSpline
 70
8
 71
3
 72
8
 73
4
 74
0
 40
0
 40
0
 40
0
 40
0
 40
1
 40
1
 40
1
 40
1
 10
19.092476
 20
31.619667
 30
0.0
 10
19.135925
 20
31.896906
 30
0.0
 10
19.099715
 20
30.970345
 30
0.0
 10
19.099718
 20
31.663506
 30
0.0
  0
SPLINE
  5
226
100
AcDbEntity
  8
0
 62
5
100
AcDbSpline
 70
8
 71
3
 72
8
 73
4
 74
0
 40
0
 40
0
 40
0
 40
0
 40
1
 40
1
 40
1
 40
1
 10
19.099718
 20
31.663506
 30
0.0
 10
19.099713
 20
32.356629
 30
0.0
 10
19.085296
 20
32.193407
 30
0.0
 10
19.128755
 20
33.741449
 30
0.0
  0
SPLINE
  5
227
100
AcDbEntity
  8
0
 62
5
100
AcDbSpline
 70
8
 71
3
 72
8
 73
4
 74
0
 40
0
 40
0
 40
0
 40
0
 40
1
 40
1
 40
1
 40
1
 10
19.128755
 20
33.741449
 30
0.0
 10
19.157717
 20
34.380661
 30
0.0
 10
19.121784
 20
34.919772
 30
0.0
 10
19.329401
 20
35.620637
 30
0.0
  0
SPLINE
  5
228
100
AcDbEntity
  8
0
 62
5
100
AcDbSpline
 70
8
 71
3
 72
8
 73
4
 74
0
 40
0
 40
0
 40
0
 40
0
 40
1
 40
1
 40
1
 40
1
 10
19.329401
 20
35.620637
 30
0.0
 10
19.590116
 20
36.487043
 30
0.0
 10
19.883600
 20
36.731291
 30
0.0
 10
20.883040
 20
36.731314
 30
0.0
  0
SPLINE
  5
229
100
AcDbEntity
  8
0
 62
5
100
AcDbSpline
 70
8
 71
3
 72
8
 73
4
 74
0
 40
0
 40
0
 40
0
 40
0
 40
1
 40
1
 40
1
 40
1
 10
20.883040
 20
36.731314
 30
0.0
 10
23.055712
 20
36.731291
 30
0.0
 10
24.142052
 20
36.350063
 30
0.0
 10
24.142063
 20
35.587629
 30
0.0
  0
SPLINE
  5
22a
100
AcDbEntity
  8
0
 62
5
100
AcDbSpline
 70
8
 71
3
 72
8
 73
4
 74
0
 40
0
 40
0
 40
0
 40
0
 40
1
 40
1
 40
1
 40
1
 10
24.142063
 20
35.587629
 30
0.0
 10
24.142052
 20
34.998438
 30
0.0
 10
24.163777
 20
34.582553
 30
0.0
 10
24.207244
 20
34.339974
 30
0.0
  0
SPLINE
  5
22b
100
AcDbEntity
  8
0
 62
5
100
AcDbSpline
 70
8
 71
3
 72
8
 73
4
 74
0
 40
0
 40
0
 40
0
 40
0
 40
1
 40
1
 40
1
 40
1
 10
24.207244
 20
34.339974
 30
0.0
 10
24.467954
 20
34.339953
 30
0.0
 10
25.728108
 20
34.807824
 30
0.0
 10
27.987708
 20
35.743586
 30
0.0
  0
SPLINE
  5
22c
100
AcDbEntity
  8
0
 62
5
100
AcDbSpline
 70
8
 71
3
 72
8
 73
4
 74
0
 40
0
 40
0
 40
0
 40
0
 40
1
 40
1
 40
1
 40
1
 10
27.987708
 20
35.743586
 30
0.0
 10
30.247282
 20
36.679305
 30
0.0
 10
32.180970
 20
37.147176
 30
0.0
 10
33.788773
 20
37.147199
 30
0.0
  0
SPLINE
  5
22d
100
AcDbEntity
  8
0
 62
5
100
AcDbSpline
 70
8
 71
3
 72
8
 73
4
 74
0
 40
0
 40
0
 40
0
 40
0
 40
1
 40
1
 40
1
 40
1
 10
33.788773
 20
37.147199
 30
0.0
 10
34.440554
 20
37.147176
 30
0.0
 10
34.875089
 20
37.008548
 30
0.0
 10
35.092380
 20
36.731314
 30
0.0
  0
SPLINE
  5
22e
100
AcDbEntity
  8
0
 62
5
100
AcDbSpline
 70
8
 71
3
 72
8
 73
4
 74
0
 40
0
 40
0
 40
0
 40
0
 40
1
 40
1
 40
1
 40
1
 10
35.092380
 20
36.731314
 30
0.0
 10
35.353083
 20
36.488691
 30
0.0
 10
35.483442
 20
35.899522
 30
0.0
 10
35.483464
 20
34.963802
 30
0.0
  0
SPLINE
  5
22f
100
AcDbEntity
  8
0
 62
5
100
AcDbSpline
 70
8
 71
3
 72
8
 73
4
 74
0
 40
0
 40
0
 40
0
 40
0
 40
1
 40
1
 40
1
 40
1
 10
35.483464
 20
34.963802
 30
0.0
 10
35.483442
 20
34.028040
 30
0.0
 10
35.331355
 20
33.317570
 30
0.0
 10
35.027198
 20
32.832390
 30
0.0
  0
SPLINE
  5
230
100
AcDbEntity
  8
0
 62
5
100
AcDbSpline
 70
8
 71
3
 72
8
 73
4
 74
0
 40
0
 40
0
 40
0
 40
0
 40
1
 40
1
 40
1
 40
1
 10
35.027198
 20
32.832390
 30
0.0
 10
34.766459
 20
32.797714
 30
0.0
 10
34.288470
 20
32.745728
 30
0.0
 10
33.593230
 20
32.676433
 30
0.0
  0
SPLINE
  5
231
100
AcDbEntity
  8
0
 62
5
100
AcDbSpline
 70
8
 71
3
 72
8
 73
4
 74
0
 40
0
 40
0
 40
0
 40
0
 40
1
 40
1
 40
1
 40
1
 10
33.593230
 20
32.676433
 30
0.0
 10
32.941407
 20
32.607100
 30
0.0
 10
32.441690
 20
32.555114
 30
0.0
 10
32.094080
 20
32.520476
 30
0.0
  0
SPLINE
  5
232
100
AcDbEntity
  8
0
 62
5
100
AcDbSpline
 70
8
 71
3
 72
8
 73
4
 74
0
 40
0
 40
0
 40
0
 40
0
 40
1
 40
1
 40
1
 40
1
 10
32.094080
 20
32.520476
 30
0.0
 10
31.789886
 20
32.485800
 30
0.0
 10
31.333623
 20
32.416486
 30
0.0
 10
30.725291
 20
32.312533
 30
0.0
  0
SPLINE
  5
233
100
AcDbEntity
  8
0
 62
5
100
AcDbSpline
 70
8
 71
3
 72
8
 73
4
 74
0
 40
0
 40
0
 40
0
 40
0
 40
1
 40
1
 40
1
 40
1
 10
30.725291
 20
32.312533
 30
0.0
 10
30.116924
 20
32.243201
 30
0.0
 10
29.638933
 20
32.173887
 30
0.0
 10
29.291322
 20
32.104590
 30
0.0
  0
SPLINE
  5
234
100
AcDbEntity
  8
0
 62
5
100
AcDbSpline
 70
8
 71
3
 72
8
 73
4
 74
0
 40
0
 40
0
 40
0
 40
0
 40
1
 40
1
 40
1
 40
1
 10
29.291322
 20
32.104590
 30
0.0
 10
28.943675
 20
32.069916
 30
0.0
 10
28.509141
 20
32.000601
 30
0.0
 10
27.987708
 20
31.896648
 30
0.0
  0
SPLINE
  5
235
100
AcDbEntity
  8
0
 62
5
100
AcDbSpline
 70
8
 71
3
 72
8
 73
4
 74
0
 40
0
 40
0
 40
0
 40
0
 40
1
 40
1
 40
1
 40
1
 10
27.987708
 20
31.896648
 30
0.0
 10
27.509708
 20
31.827316
 30
0.0
 10
27.096896
 20
31.740673
 30
0.0
 10
26.749282
 20
31.636719
 30
0.0
  0
SPLINE
  5
236
100
AcDbEntity
  8
0
 62
5
100
AcDbSpline
 70
8
 71
3
 72
8
 73
4
 74
0
 40
0
 40
0
 40
0
 40
0
 40
1
 40
1
 40
1
 40
1
 10
26.749282
 20
31.636719
 30
0.0
 10
26.445093
 20
31.532731
 30
0.0
 10
26.119191
 20
31.428759
 30
0.0
 10
25.771574
 20
31.324805
 30
0.0
  0
SPLINE
  5
237
100
AcDbEntity
  8
0
 62
5
100
AcDbSpline
 70
8
 71
3
 72
8
 73
4
 74
0
 40
0
 40
0
 40
0
 40
0
 40
1
 40
1
 40
1
 40
1
 10
25.771574
 20
31.324805
 30
0.0
 10
25.076304
 20
31.116846
 30
0.0
 10
24.598315
 20
30.839589
 30
0.0
 10
24.337605
 20
30.493035
 30
0.0
  0
LINE
  5
238
100
AcDbEntity
  8
0
 62
5
100
AcDbLine
 10
24.337605
 20
30.493035
 30
0.0
 11
24.337605
 21
27.113967
 31
0.0
  0
LINE
  5
239
100
AcDbEntity
  8
0
 62
5
100
AcDbLine
 10
24.337605
 20
27.113967
 30
0.0
 11
24.467966
 21
18.276403
 31
0.0
  0
LINE
  5
23a
100
AcDbEntity
  8
0
 62
5
100
AcDbLine
 10
24.467966
 20
18.276403
 30
0.0
 11
24.467966
 21
17.496618
 31
0.0
  0
SPLINE
  5
23b
100
AcDbEntity
  8
0
 62
5
100
AcDbSpline
 70
8
 71
3
 72
8
 73
4
 74
0
 40
0
 40
0
 40
0
 40
0
 40
1
 40
1
 40
1
 40
1
 10
24.467966
 20
17.496618
 30
0.0
 10
24.467954
 20
17.357987
 30
0.0
 10
24.467954
 20
17.063401
 30
0.0
 10
24.467966
 20
16.612862
 30
0.0
  0
SPLINE
  5
23c
100
AcDbEntity
  8
0
 62
5
100
AcDbSpline
 70
8
 71
3
 72
8
 73
4
 74
0
 40
0
 40
0
 40
0
 40
0
 40
1
 40
1
 40
1
 40
1
 10
24.467966
 20
16.612862
 30
0.0
 10
24.467954
 20
16.196976
 30
0.0
 10
24.446226
 20
15.850404
 30
0.0
 10
24.402785
 20
15.573149
 30
0.0
  0
SPLINE
  5
23d
100
AcDbEntity
  8
0
 62
5
100
AcDbSpline
 70
8
 71
3
 72
8
 73
4
 74
0
 40
0
 40
0
 40
0
 40
0
 40
1
 40
1
 40
1
 40
1
 10
24.402785
 20
15.573149
 30
0.0
 10
24.402774
 20
15.295891
 30
0.0
 10
24.315866
 20
15.018633
 30
0.0
 10
24.142063
 20
14.741381
 30
0.0
  0
SPLINE
  5
23e
100
AcDbEntity
  8
0
 62
5
100
AcDbSpline
 70
8
 71
3
 72
8
 73
4
 74
0
 40
0
 40
0
 40
0
 40
0
 40
1
 40
1
 40
1
 40
1
 10
24.142063
 20
14.741381
 30
0.0
 10
23.794423
 20
14.290839
 30
0.0
 10
22.881898
 20
14.065566
 30
0.0
 10
21.404484
 20
14.065566
 30
0.0
  0
SPLINE
  5
23f
100
AcDbEntity
  8
0
 62
5
100
AcDbSpline
 70
8
 71
3
 72
8
 73
4
 74
0
 40
0
 40
0
 40
0
 40
0
 40
1
 40
1
 40
1
 40
1
 10
21.404484
 20
14.065566
 30
0.0
 10
19.970507
 20
14.065566
 30
0.0
 10
20.026724
 20
14.207163
 30
0.0
 10
19.766008
 20
14.345793
 30
0.0
  0
SPLINE
  5
240
100
AcDbEntity
  8
0
 62
5
100
AcDbSpline
 70
8
 71
3
 72
8
 73
4
 74
0
 40
0
 40
0
 40
0
 40
0
 40
1
 40
1
 40
1
 40
1
 10
19.766008
 20
14.345793
 30
0.0
 10
19.244559
 20
14.623048
 30
0.0
 10
19.128684
 20
16.373509
 30
0.0
 10
19.128689
 20
19.665936
 30
0.0
  0
ENDSEC
  0
SECTION
  2
OBJECTS
  0
DICTIONARY
  5
C
330
0
100
AcDbDictionary
  3
ACAD_GROUP
350
D
  3
ACAD_MLINESTYLE
350
17
  0
DICTIONARY
  5
D
330
C
100
AcDbDictionary
  0
DICTIONARY
  5
1A
330
C
100
AcDbDictionary
  0
DICTIONARY
  5
17
330
C
100
AcDbDictionary
  3
STANDARD
350
18
  0
DICTIONARY
  5
19
330
C
100
AcDbDictionary
  0
ENDSEC
  0
EOF
