  0
SECTION
  2
HEADER
  9
$ACADVER
  1
AC1014
  9
$HANDSEED
  5
FFFF
  9
$MEASUREMENT
 70
     1
  0
ENDSEC
  0
SECTION
  2
TABLES
  0
TABLE
  2
VPORT
  5
8
330
0
100
AcDbSymbolTable
 70
     4
  0
VPORT
  5
2E
330
8
100
AcDbSymbolTableRecord
100
AcDbViewportTableRecord
  2
*ACTIVE
 70
     0
 10
0.0
 20
0.0
 11
1.0
 21
1.0
 12
210.0
 22
148.5
 13
0.0
 23
0.0
 14
10.0
 24
10.0
 15
10.0
 25
10.0
 16
0.0
 26
0.0
 36
1.0
 17
0.0
 27
0.0
 37
0.0
 40
341.0
 41
1.24
 42
50.0
 43
0.0
 44
0.0
 50
0.0
 51
0.0
 71
     0
 72
   100
 73
     1
 74
     3
 75
     0
 76
     0
 77
     0
 78
     0
  0
ENDTAB
  0
TABLE
  2
LTYPE
  5
5
330
0
100
AcDbSymbolTable
 70
     1
  0
LTYPE
  5
14
330
5
100
AcDbSymbolTableRecord
100
AcDbLinetypeTableRecord
  2
BYBLOCK
 70
     0
  3

 72
    65
 73
     0
 40
0.0
  0
LTYPE
  5
15
330
5
100
AcDbSymbolTableRecord
100
AcDbLinetypeTableRecord
  2
BYLAYER
 70
     0
  3

 72
    65
 73
     0
 40
0.0
  0
LTYPE
  5
16
330
5
100
AcDbSymbolTableRecord
100
AcDbLinetypeTableRecord
  2
CONTINUOUS
 70
     0
  3
Solid line
 72
    65
 73
     0
 40
0.0
  0
ENDTAB
  0
TABLE
  2
LAYER
  5
2
100
AcDbSymbolTable
 70
1
  0
LAYER
  5
50
100
AcDbSymbolTableRecord
100
AcDbLayerTableRecord
  2
0
 70
0
  6
CONTINUOUS
  0
ENDTAB
  0
TABLE
  2
STYLE
  5
3
330
0
100
AcDbSymbolTable
 70
     1
  0
STYLE
  5
11
330
3
100
AcDbSymbolTableRecord
100
AcDbTextStyleTableRecord
  2
STANDARD
 70
     0
 40
0.0
 41
1.0
 50
0.0
 71
     0
 42
2.5
  3
txt
  4

  0
ENDTAB
  0
TABLE
  2
VIEW
  5
6
330
0
100
AcDbSymbolTable
 70
     0
  0
ENDTAB
  0
TABLE
  2
UCS
  5
7
330
0
100
AcDbSymbolTable
 70
     0
  0
ENDTAB
  0
TABLE
  2
APPID
  5
9
330
0
100
AcDbSymbolTable
 70
     2
  0
APPID
  5
12
330
9
100
AcDbSymbolTableRecord
100
AcDbRegAppTableRecord
  2
ACAD
 70
     0
  0
ENDTAB
  0
TABLE
  2
DIMSTYLE
  5
A
330
0
100
AcDbSymbolTable
 70
     1
  0
DIMSTYLE
105
27
330
A
100
AcDbSymbolTableRecord
100
AcDbDimStyleTableRecord
  2
ISO-25
 70
     0
  3

  4

  5

  6

  7

 40
1.0
 41
2.5
 42
0.625
 43
3.75
 44
1.25
 45
0.0
 46
0.0
 47
0.0
 48
0.0
140
2.5
141
2.5
142
0.0
143
0.03937007874016
144
1.0
145
0.0
146
1.0
147
0.625
 71
     0
 72
     0
 73
     0
 74
     0
 75
     0
 76
     0
 77
     1
 78
     8
170
     0
171
     3
172
     1
173
     0
174
     0
175
     0
176
     0
177
     0
178
     0
270
     2
271
     2
272
     2
273
     2
274
     3
340
11
275
     0
280
     0
281
     0
282
     0
283
     0
284
     8
285
     0
286
     0
287
     3
288
     0
  0
ENDTAB
  0
TABLE
  2
BLOCK_RECORD
  5
1
330
0
100
AcDbSymbolTable
 70
     1
  0
BLOCK_RECORD
  5
1F
330
1
100
AcDbSymbolTableRecord
100
AcDbBlockTableRecord
  2
*MODEL_SPACE
  0
BLOCK_RECORD
  5
1B
330
1
100
AcDbSymbolTableRecord
100
AcDbBlockTableRecord
  2
*PAPER_SPACE
  0
ENDTAB
  0
ENDSEC
  0
SECTION
  2
BLOCKS
  0
BLOCK
  5
20
330
1F
100
AcDbEntity
  8
0
100
AcDbBlockBegin
  2
*MODEL_SPACE
 70
     0
 10
0.0
 20
0.0
 30
0.0
  3
*MODEL_SPACE
  1

  0
ENDBLK
  5
21
330
1F
100
AcDbEntity
  8
0
100
AcDbBlockEnd
  0
BLOCK
  5
1C
330
1B
100
AcDbEntity
 67
     1
  8
0
100
AcDbBlockBegin
  2
*PAPER_SPACE
  1

  0
ENDBLK
  5
1D
330
1B
100
AcDbEntity
 67
     1
  8
0
100
AcDbBlockEnd
  0
ENDSEC
  0
SECTION
  2
ENTITIES
  0
LINE
  5
100
100
AcDbEntity
  8
0
 62
7
100
AcDbLine
 10
19.123861
 20
19.622093
 30
0.0
 11
19.092476
 21
31.619667
 31
0.0
  0
SPLINE
  5
101
100
AcDbEntity
  8
0
 62
7
100
AcDbSpline
 70
8
 71
3
 72
8
 73
4
 74
0
 40
0
 40
0
 40
0
 40
0
 40
1
 40
1
 40
1
 40
1
 10
19.092476
 20
31.619667
 30
0.0
 10
19.135925
 20
31.896906
 30
0.0
 10
19.099715
 20
30.970345
 30
0.0
 10
19.099719
 20
31.663506
 30
0.0
  0
SPLINE
  5
102
100
AcDbEntity
  8
0
 62
7
100
AcDbSpline
 70
8
 71
3
 72
8
 73
4
 74
0
 40
0
 40
0
 40
0
 40
0
 40
1
 40
1
 40
1
 40
1
 10
19.099719
 20
31.663506
 30
0.0
 10
19.099713
 20
32.356629
 30
0.0
 10
19.085298
 20
32.193407
 30
0.0
 10
19.128756
 20
33.741449
 30
0.0
  0
SPLINE
  5
103
100
AcDbEntity
  8
0
 62
7
100
AcDbSpline
 70
8
 71
3
 72
8
 73
4
 74
0
 40
0
 40
0
 40
0
 40
0
 40
1
 40
1
 40
1
 40
1
 10
19.128756
 20
33.741449
 30
0.0
 10
19.157717
 20
34.380661
 30
0.0
 10
19.121785
 20
34.919772
 30
0.0
 10
19.329401
 20
35.620637
 30
0.0
  0
SPLINE
  5
104
100
AcDbEntity
  8
0
 62
7
100
AcDbSpline
 70
8
 71
3
 72
8
 73
4
 74
0
 40
0
 40
0
 40
0
 40
0
 40
1
 40
1
 40
1
 40
1
 10
19.329401
 20
35.620637
 30
0.0
 10
19.590117
 20
36.487043
 30
0.0
 10
19.883600
 20
36.731291
 30
0.0
 10
20.883041
 20
36.731314
 30
0.0
  0
SPLINE
  5
105
100
AcDbEntity
  8
0
 62
7
100
AcDbSpline
 70
8
 71
3
 72
8
 73
4
 74
0
 40
0
 40
0
 40
0
 40
0
 40
1
 40
1
 40
1
 40
1
 10
20.883041
 20
36.731314
 30
0.0
 10
23.055713
 20
36.731291
 30
0.0
 10
24.142053
 20
36.350063
 30
0.0
 10
24.142064
 20
35.587629
 30
0.0
  0
SPLINE
  5
106
100
AcDbEntity
  8
0
 62
7
100
AcDbSpline
 70
8
 71
3
 72
8
 73
4
 74
0
 40
0
 40
0
 40
0
 40
0
 40
1
 40
1
 40
1
 40
1
 10
24.142064
 20
35.587629
 30
0.0
 10
24.142053
 20
34.998438
 30
0.0
 10
24.163779
 20
34.582553
 30
0.0
 10
24.207244
 20
34.339974
 30
0.0
  0
SPLINE
  5
107
100
AcDbEntity
  8
0
 62
7
100
AcDbSpline
 70
8
 71
3
 72
8
 73
4
 74
0
 40
0
 40
0
 40
0
 40
0
 40
1
 40
1
 40
1
 40
1
 10
24.207244
 20
34.339974
 30
0.0
 10
24.467955
 20
34.339953
 30
0.0
 10
25.728109
 20
34.807824
 30
0.0
 10
27.987709
 20
35.743586
 30
0.0
  0
SPLINE
  5
108
100
AcDbEntity
  8
0
 62
7
100
AcDbSpline
 70
8
 71
3
 72
8
 73
4
 74
0
 40
0
 40
0
 40
0
 40
0
 40
1
 40
1
 40
1
 40
1
 10
27.987709
 20
35.743586
 30
0.0
 10
30.247283
 20
36.679305
 30
0.0
 10
32.180970
 20
37.147176
 30
0.0
 10
33.788773
 20
37.147199
 30
0.0
  0
SPLINE
  5
109
100
AcDbEntity
  8
0
 62
7
100
AcDbSpline
 70
8
 71
3
 72
8
 73
4
 74
0
 40
0
 40
0
 40
0
 40
0
 40
1
 40
1
 40
1
 40
1
 10
33.788773
 20
37.147199
 30
0.0
 10
34.440555
 20
37.147176
 30
0.0
 10
34.875090
 20
37.008548
 30
0.0
 10
35.092381
 20
36.731314
 30
0.0
  0
SPLINE
  5
10a
100
AcDbEntity
  8
0
 62
7
100
AcDbSpline
 70
8
 71
3
 72
8
 73
4
 74
0
 40
0
 40
0
 40
0
 40
0
 40
1
 40
1
 40
1
 40
1
 10
35.092381
 20
36.731314
 30
0.0
 10
35.353082
 20
36.488692
 30
0.0
 10
35.483441
 20
35.899522
 30
0.0
 10
35.483465
 20
34.963802
 30
0.0
  0
SPLINE
  5
10b
100
AcDbEntity
  8
0
 62
7
100
AcDbSpline
 70
8
 71
3
 72
8
 73
4
 74
0
 40
0
 40
0
 40
0
 40
0
 40
1
 40
1
 40
1
 40
1
 10
35.483465
 20
34.963802
 30
0.0
 10
35.483441
 20
34.028040
 30
0.0
 10
35.331355
 20
33.317570
 30
0.0
 10
35.027199
 20
32.832390
 30
0.0
  0
SPLINE
  5
10c
100
AcDbEntity
  8
0
 62
7
100
AcDbSpline
 70
8
 71
3
 72
8
 73
4
 74
0
 40
0
 40
0
 40
0
 40
0
 40
1
 40
1
 40
1
 40
1
 10
35.027199
 20
32.832390
 30
0.0
 10
34.766458
 20
32.797714
 30
0.0
 10
34.288469
 20
32.745728
 30
0.0
 10
33.593229
 20
32.676433
 30
0.0
  0
SPLINE
  5
10d
100
AcDbEntity
  8
0
 62
7
100
AcDbSpline
 70
8
 71
3
 72
8
 73
4
 74
0
 40
0
 40
0
 40
0
 40
0
 40
1
 40
1
 40
1
 40
1
 10
33.593229
 20
32.676433
 30
0.0
 10
32.941407
 20
32.607100
 30
0.0
 10
32.441691
 20
32.555114
 30
0.0
 10
32.094081
 20
32.520476
 30
0.0
  0
SPLINE
  5
10e
100
AcDbEntity
  8
0
 62
7
100
AcDbSpline
 70
8
 71
3
 72
8
 73
4
 74
0
 40
0
 40
0
 40
0
 40
0
 40
1
 40
1
 40
1
 40
1
 10
32.094081
 20
32.520476
 30
0.0
 10
31.789885
 20
32.485800
 30
0.0
 10
31.333624
 20
32.416486
 30
0.0
 10
30.725292
 20
32.312533
 30
0.0
  0
SPLINE
  5
10f
100
AcDbEntity
  8
0
 62
7
100
AcDbSpline
 70
8
 71
3
 72
8
 73
4
 74
0
 40
0
 40
0
 40
0
 40
0
 40
1
 40
1
 40
1
 40
1
 10
30.725292
 20
32.312533
 30
0.0
 10
30.116924
 20
32.243201
 30
0.0
 10
29.638932
 20
32.173887
 30
0.0
 10
29.291321
 20
32.104590
 30
0.0
  0
SPLINE
  5
110
100
AcDbEntity
  8
0
 62
7
100
AcDbSpline
 70
8
 71
3
 72
8
 73
4
 74
0
 40
0
 40
0
 40
0
 40
0
 40
1
 40
1
 40
1
 40
1
 10
29.291321
 20
32.104590
 30
0.0
 10
28.943675
 20
32.069916
 30
0.0
 10
28.509141
 20
32.000601
 30
0.0
 10
27.987709
 20
31.896648
 30
0.0
  0
SPLINE
  5
111
100
AcDbEntity
  8
0
 62
7
100
AcDbSpline
 70
8
 71
3
 72
8
 73
4
 74
0
 40
0
 40
0
 40
0
 40
0
 40
1
 40
1
 40
1
 40
1
 10
27.987709
 20
31.896648
 30
0.0
 10
27.509708
 20
31.827316
 30
0.0
 10
27.096897
 20
31.740673
 30
0.0
 10
26.749282
 20
31.636719
 30
0.0
  0
SPLINE
  5
112
100
AcDbEntity
  8
0
 62
7
100
AcDbSpline
 70
8
 71
3
 72
8
 73
4
 74
0
 40
0
 40
0
 40
0
 40
0
 40
1
 40
1
 40
1
 40
1
 10
26.749282
 20
31.636719
 30
0.0
 10
26.445093
 20
31.532731
 30
0.0
 10
26.119191
 20
31.428760
 30
0.0
 10
25.771575
 20
31.324805
 30
0.0
  0
SPLINE
  5
113
100
AcDbEntity
  8
0
 62
7
100
AcDbSpline
 70
8
 71
3
 72
8
 73
4
 74
0
 40
0
 40
0
 40
0
 40
0
 40
1
 40
1
 40
1
 40
1
 10
25.771575
 20
31.324805
 30
0.0
 10
25.076305
 20
31.116846
 30
0.0
 10
24.598315
 20
30.839589
 30
0.0
 10
24.337605
 20
30.493035
 30
0.0
  0
LINE
  5
114
100
AcDbEntity
  8
0
 62
7
100
AcDbLine
 10
24.337605
 20
30.493035
 30
0.0
 11
24.337605
 21
27.113967
 31
0.0
  0
LINE
  5
115
100
AcDbEntity
  8
0
 62
7
100
AcDbLine
 10
24.337605
 20
27.113967
 30
0.0
 11
24.467966
 21
18.276404
 31
0.0
  0
LINE
  5
116
100
AcDbEntity
  8
0
 62
7
100
AcDbLine
 10
24.467966
 20
18.276404
 30
0.0
 11
24.467966
 21
17.496618
 31
0.0
  0
SPLINE
  5
117
100
AcDbEntity
  8
0
 62
7
100
AcDbSpline
 70
8
 71
3
 72
8
 73
4
 74
0
 40
0
 40
0
 40
0
 40
0
 40
1
 40
1
 40
1
 40
1
 10
24.467966
 20
17.496618
 30
0.0
 10
24.467955
 20
17.357987
 30
0.0
 10
24.467955
 20
17.063401
 30
0.0
 10
24.467966
 20
16.612862
 30
0.0
  0
SPLINE
  5
118
100
AcDbEntity
  8
0
 62
7
100
AcDbSpline
 70
8
 71
3
 72
8
 73
4
 74
0
 40
0
 40
0
 40
0
 40
0
 40
1
 40
1
 40
1
 40
1
 10
24.467966
 20
16.612862
 30
0.0
 10
24.467955
 20
16.196977
 30
0.0
 10
24.446227
 20
15.850404
 30
0.0
 10
24.402786
 20
15.573150
 30
0.0
  0
SPLINE
  5
119
100
AcDbEntity
  8
0
 62
7
100
AcDbSpline
 70
8
 71
3
 72
8
 73
4
 74
0
 40
0
 40
0
 40
0
 40
0
 40
1
 40
1
 40
1
 40
1
 10
24.402786
 20
15.573150
 30
0.0
 10
24.402774
 20
15.295892
 30
0.0
 10
24.315867
 20
15.018635
 30
0.0
 10
24.142064
 20
14.741380
 30
0.0
  0
SPLINE
  5
11a
100
AcDbEntity
  8
0
 62
7
100
AcDbSpline
 70
8
 71
3
 72
8
 73
4
 74
0
 40
0
 40
0
 40
0
 40
0
 40
1
 40
1
 40
1
 40
1
 10
24.142064
 20
14.741380
 30
0.0
 10
23.794424
 20
14.290838
 30
0.0
 10
22.881899
 20
14.065567
 30
0.0
 10
21.404485
 20
14.065567
 30
0.0
  0
SPLINE
  5
11b
100
AcDbEntity
  8
0
 62
7
100
AcDbSpline
 70
8
 71
3
 72
8
 73
4
 74
0
 40
0
 40
0
 40
0
 40
0
 40
1
 40
1
 40
1
 40
1
 10
21.404485
 20
14.065567
 30
0.0
 10
19.970508
 20
14.065567
 30
0.0
 10
20.026724
 20
14.207163
 30
0.0
 10
19.766008
 20
14.345793
 30
0.0
  0
SPLINE
  5
11c
100
AcDbEntity
  8
0
 62
7
100
AcDbSpline
 70
8
 71
3
 72
8
 73
4
 74
0
 40
0
 40
0
 40
0
 40
0
 40
1
 40
1
 40
1
 40
1
 10
19.766008
 20
14.345793
 30
0.0
 10
19.244560
 20
14.623048
 30
0.0
 10
19.128685
 20
16.373508
 30
0.0
 10
19.128689
 20
19.665935
 30
0.0
  0
LINE
  5
11d
100
AcDbEntity
  8
0
 62
7
100
AcDbLine
 10
19.363011
 20
35.706018
 30
0.0
 11
8.309337
 21
24.652343
 31
0.0
  0
LINE
  5
11e
100
AcDbEntity
  8
0
 62
7
100
AcDbLine
 10
8.413177
 20
23.957939
 30
0.0
 11
19.172374
 21
34.717135
 31
0.0
  0
LINE
  5
11f
100
AcDbEntity
  8
0
 62
7
100
AcDbLine
 10
19.133806
 20
33.880323
 30
0.0
 11
8.517017
 21
23.263534
 31
0.0
  0
LINE
  5
120
100
AcDbEntity
  8
0
 62
7
100
AcDbLine
 10
8.620857
 20
22.569127
 30
0.0
 11
19.119340
 21
33.067611
 31
0.0
  0
LINE
  5
121
100
AcDbEntity
  8
0
 62
7
100
AcDbLine
 10
19.108028
 20
32.258053
 30
0.0
 11
8.771127
 21
21.921152
 31
0.0
  0
LINE
  5
122
100
AcDbEntity
  8
0
 62
7
100
AcDbLine
 10
19.103697
 20
31.455478
 30
0.0
 11
19.110182
 21
31.461963
 31
0.0
  0
LINE
  5
123
100
AcDbEntity
  8
0
 62
7
100
AcDbLine
 10
19.092935
 20
31.444717
 30
0.0
 11
8.950669
 21
21.302449
 31
0.0
  0
LINE
  5
124
100
AcDbEntity
  8
0
 62
7
100
AcDbLine
 10
9.130210
 20
20.683746
 30
0.0
 11
19.095018
 21
30.648554
 31
0.0
  0
LINE
  5
125
100
AcDbEntity
  8
0
 62
7
100
AcDbLine
 10
19.097091
 20
29.852392
 30
0.0
 11
9.309740
 21
20.065041
 31
0.0
  0
LINE
  5
126
100
AcDbEntity
  8
0
 62
7
100
AcDbLine
 10
9.539536
 20
19.496592
 30
0.0
 11
19.099173
 21
29.056230
 31
0.0
  0
LINE
  5
127
100
AcDbEntity
  8
0
 62
7
100
AcDbLine
 10
19.101246
 20
28.260068
 30
0.0
 11
9.784212
 21
18.943034
 31
0.0
  0
LINE
  5
128
100
AcDbEntity
  8
0
 62
7
100
AcDbLine
 10
10.028898
 20
18.389472
 30
0.0
 11
19.103329
 21
27.463905
 31
0.0
  0
LINE
  5
129
100
AcDbEntity
  8
0
 62
7
100
AcDbLine
 10
19.105402
 20
26.667743
 30
0.0
 11
10.273574
 21
17.835914
 31
0.0
  0
LINE
  5
12a
100
AcDbEntity
  8
0
 62
7
100
AcDbLine
 10
10.549122
 20
17.313217
 30
0.0
 11
19.107484
 21
25.871580
 31
0.0
  0
LINE
  5
12b
100
AcDbEntity
  8
0
 62
7
100
AcDbLine
 10
25.068020
 20
31.033841
 30
0.0
 11
24.337605
 21
30.303427
 31
0.0
  0
LINE
  5
12c
100
AcDbEntity
  8
0
 62
7
100
AcDbLine
 10
10.838885
 20
16.804706
 30
0.0
 11
19.109596
 21
25.075419
 31
0.0
  0
LINE
  5
12d
100
AcDbEntity
  8
0
 62
7
100
AcDbLine
 10
26.337902
 20
31.505478
 30
0.0
 11
24.337605
 21
29.505182
 31
0.0
  0
LINE
  5
12e
100
AcDbEntity
  8
0
 62
7
100
AcDbLine
 10
11.145334
 20
16.312909
 30
0.0
 11
19.111678
 21
24.279254
 31
0.0
  0
LINE
  5
12f
100
AcDbEntity
  8
0
 62
7
100
AcDbLine
 10
27.405017
 20
31.774349
 30
0.0
 11
24.337605
 21
28.706937
 31
0.0
  0
LINE
  5
130
100
AcDbEntity
  8
0
 62
7
100
AcDbLine
 10
11.464238
 20
15.833571
 30
0.0
 11
19.113761
 21
23.483093
 31
0.0
  0
LINE
  5
131
100
AcDbEntity
  8
0
 62
7
100
AcDbLine
 10
28.389681
 20
31.960767
 30
0.0
 11
24.337605
 21
27.908692
 31
0.0
  0
LINE
  5
132
100
AcDbEntity
  8
0
 62
7
100
AcDbLine
 10
11.795500
 20
15.366587
 30
0.0
 11
19.115844
 21
22.686931
 31
0.0
  0
LINE
  5
133
100
AcDbEntity
  8
0
 62
7
100
AcDbLine
 10
29.338606
 20
32.111447
 30
0.0
 11
24.337656
 21
27.110498
 31
0.0
  0
LINE
  5
134
100
AcDbEntity
  8
0
 62
7
100
AcDbLine
 10
12.143339
 20
14.916181
 30
0.0
 11
19.117927
 21
21.890770
 31
0.0
  0
LINE
  5
135
100
AcDbEntity
  8
0
 62
7
100
AcDbLine
 10
30.272239
 20
32.246835
 30
0.0
 11
24.349260
 21
26.323857
 31
0.0
  0
LINE
  5
136
100
AcDbEntity
  8
0
 62
7
100
AcDbLine
 10
12.498632
 20
14.473227
 30
0.0
 11
19.120009
 21
21.094605
 31
0.0
  0
LINE
  5
137
100
AcDbEntity
  8
0
 62
7
100
AcDbLine
 10
31.209786
 20
32.386136
 30
0.0
 11
24.360864
 21
25.537215
 31
0.0
  0
LINE
  5
138
100
AcDbEntity
  8
0
 62
7
100
AcDbLine
 10
12.875536
 20
14.051887
 30
0.0
 11
19.122092
 21
20.298444
 31
0.0
  0
LINE
  5
139
100
AcDbEntity
  8
0
 62
7
100
AcDbLine
 10
32.147974
 20
32.526083
 30
0.0
 11
24.372467
 21
24.750575
 31
0.0
  0
LINE
  5
13a
100
AcDbEntity
  8
0
 62
7
100
AcDbLine
 10
13.254518
 20
13.632623
 30
0.0
 11
19.130582
 21
19.508688
 31
0.0
  0
LINE
  5
13b
100
AcDbEntity
  8
0
 62
7
100
AcDbLine
 10
33.038902
 20
32.618766
 30
0.0
 11
24.384071
 21
23.963931
 31
0.0
  0
LINE
  5
13c
100
AcDbEntity
  8
0
 62
7
100
AcDbLine
 10
13.660979
 20
13.240842
 30
0.0
 11
19.140074
 21
18.719937
 31
0.0
  0
LINE
  5
13d
100
AcDbEntity
  8
0
 62
7
100
AcDbLine
 10
33.931620
 20
32.713235
 30
0.0
 11
24.395674
 21
23.177291
 31
0.0
  0
LINE
  5
13e
100
AcDbEntity
  8
0
 62
7
100
AcDbLine
 10
14.067440
 20
12.849057
 30
0.0
 11
19.149566
 21
17.931182
 31
0.0
  0
LINE
  5
13f
100
AcDbEntity
  8
0
 62
7
100
AcDbLine
 10
34.827275
 20
32.810646
 30
0.0
 11
24.407278
 21
22.390650
 31
0.0
  0
LINE
  5
140
100
AcDbEntity
  8
0
 62
7
100
AcDbLine
 10
14.500592
 20
12.483963
 30
0.0
 11
19.174601
 21
17.157973
 31
0.0
  0
LINE
  5
141
100
AcDbEntity
  8
0
 62
7
100
AcDbLine
 10
19.219915
 20
16.405040
 30
0.0
 11
14.937466
 21
12.122592
 31
0.0
  0
LINE
  5
142
100
AcDbEntity
  8
0
 62
7
100
AcDbLine
 10
15.399092
 20
11.785973
 30
0.0
 11
19.288961
 21
15.675841
 31
0.0
  0
LINE
  5
143
100
AcDbEntity
  8
0
 62
7
100
AcDbLine
 10
19.414381
 20
15.003019
 30
0.0
 11
15.871966
 21
11.460601
 31
0.0
  0
LINE
  5
144
100
AcDbEntity
  8
0
 62
7
100
AcDbLine
 10
16.344839
 20
11.135232
 30
0.0
 11
19.659522
 21
14.449912
 31
0.0
  0
LINE
  5
145
100
AcDbEntity
  8
0
 62
7
100
AcDbLine
 10
20.160482
 20
14.152630
 30
0.0
 11
16.817713
 21
10.809860
 31
0.0
  0
LINE
  5
146
100
AcDbEntity
  8
0
 62
7
100
AcDbLine
 10
17.331853
 20
10.525755
 30
0.0
 11
20.906516
 21
14.100418
 31
0.0
  0
LINE
  5
147
100
AcDbEntity
  8
0
 62
7
100
AcDbLine
 10
21.681589
 20
14.077243
 30
0.0
 11
17.861208
 21
10.256862
 31
0.0
  0
LINE
  5
148
100
AcDbEntity
  8
0
 62
7
100
AcDbLine
 10
18.390563
 20
9.987971
 30
0.0
 11
22.530207
 21
14.127615
 31
0.0
  0
LINE
  5
149
100
AcDbEntity
  8
0
 62
7
100
AcDbLine
 10
23.572443
 20
14.371607
 30
0.0
 11
18.919919
 21
9.719081
 31
0.0
  0
SPLINE
  5
14a
100
AcDbEntity
  8
0
 62
7
100
AcDbSpline
 70
8
 71
3
 72
8
 73
4
 74
0
 40
0
 40
0
 40
0
 40
0
 40
1
 40
1
 40
1
 40
1
 10
26.127148
 20
43.738595
 30
0.0
 10
30.409938
 20
43.702413
 30
0.0
 10
34.643853
 20
42.057926
 30
0.0
 10
37.855565
 20
39.230407
 30
0.0
  0
SPLINE
  5
14b
100
AcDbEntity
  8
0
 62
7
100
AcDbSpline
 70
8
 71
3
 72
8
 73
4
 74
0
 40
0
 40
0
 40
0
 40
0
 40
1
 40
1
 40
1
 40
1
 10
37.855565
 20
39.230407
 30
0.0
 10
42.663116
 20
35.075312
 30
0.0
 10
44.689906
 20
28.173132
 30
0.0
 10
43.330901
 20
22.006585
 30
0.0
  0
SPLINE
  5
14c
100
AcDbEntity
  8
0
 62
7
100
AcDbSpline
 70
8
 71
3
 72
8
 73
4
 74
0
 40
0
 40
0
 40
0
 40
0
 40
1
 40
1
 40
1
 40
1
 10
43.330901
 20
22.006585
 30
0.0
 10
42.143082
 20
16.264458
 30
0.0
 10
37.702967
 20
11.471526
 30
0.0
 10
32.259888
 20
9.422435
 30
0.0
  0
SPLINE
  5
14d
100
AcDbEntity
  8
0
 62
7
100
AcDbSpline
 70
8
 71
3
 72
8
 73
4
 74
0
 40
0
 40
0
 40
0
 40
0
 40
1
 40
1
 40
1
 40
1
 10
32.259888
 20
9.422435
 30
0.0
 10
26.611305
 20
7.142841
 30
0.0
 10
19.826007
 20
8.238278
 30
0.0
 10
15.073958
 20
12.009690
 30
0.0
  0
SPLINE
  5
14e
100
AcDbEntity
  8
0
 62
7
100
AcDbSpline
 70
8
 71
3
 72
8
 73
4
 74
0
 40
0
 40
0
 40
0
 40
0
 40
1
 40
1
 40
1
 40
1
 10
15.073958
 20
12.009690
 30
0.0
 10
9.799358
 20
16.040422
 30
0.0
 10
7.248380
 20
23.193691
 30
0.0
 10
8.589122
 20
29.676969
 30
0.0
  0
SPLINE
  5
14f
100
AcDbEntity
  8
0
 62
7
100
AcDbSpline
 70
8
 71
3
 72
8
 73
4
 74
0
 40
0
 40
0
 40
0
 40
0
 40
1
 40
1
 40
1
 40
1
 10
8.589122
 20
29.676969
 30
0.0
 10
10.182342
 20
37.532734
 30
0.0
 10
17.679857
 20
43.699011
 30
0.0
 10
25.712655
 20
43.736363
 30
0.0
  0
SPLINE
  5
150
100
AcDbEntity
  8
0
 62
7
100
AcDbSpline
 70
8
 71
3
 72
8
 73
4
 74
0
 40
0
 40
0
 40
0
 40
0
 40
1
 40
1
 40
1
 40
1
 10
25.712655
 20
43.736363
 30
0.0
 10
25.850879
 20
43.738564
 30
0.0
 10
25.988995
 20
43.739761
 30
0.0
 10
26.127148
 20
43.738592
 30
0.0
  0
LINE
  5
151
100
AcDbEntity
  8
0
 62
7
100
AcDbLine
 10
26.127148
 20
43.738592
 30
0.0
 11
26.127148
 21
43.738595
 31
0.0
  0
LINE
  5
152
100
AcDbEntity
  8
0
 62
7
100
AcDbLine
 10
16.722028
 20
41.047484
 30
0.0
 11
10.741593
 21
35.067049
 31
0.0
  0
LINE
  5
153
100
AcDbEntity
  8
0
 62
7
100
AcDbLine
 10
9.828862
 20
33.356074
 30
0.0
 11
18.522629
 21
42.049840
 31
0.0
  0
LINE
  5
154
100
AcDbEntity
  8
0
 62
7
100
AcDbLine
 10
19.913138
 20
42.642104
 30
0.0
 11
9.259666
 21
31.988632
 31
0.0
  0
LINE
  5
155
100
AcDbEntity
  8
0
 62
7
100
AcDbLine
 10
8.873797
 20
30.804519
 30
0.0
 11
21.108498
 21
43.039220
 31
0.0
  0
LINE
  5
156
100
AcDbEntity
  8
0
 62
7
100
AcDbLine
 10
22.178385
 20
43.310861
 30
0.0
 11
8.604195
 21
29.736671
 31
0.0
  0
LINE
  5
157
100
AcDbEntity
  8
0
 62
7
100
AcDbLine
 10
8.436342
 20
28.770574
 30
0.0
 11
23.173047
 21
43.507278
 31
0.0
  0
LINE
  5
158
100
AcDbEntity
  8
0
 62
7
100
AcDbLine
 10
24.107076
 20
43.643063
 30
0.0
 11
8.327138
 21
27.863124
 31
0.0
  0
LINE
  5
159
100
AcDbEntity
  8
0
 62
7
100
AcDbLine
 10
8.261307
 20
26.999049
 30
0.0
 11
24.959552
 21
43.697293
 31
0.0
  0
LINE
  5
15a
100
AcDbEntity
  8
0
 62
7
100
AcDbLine
 10
25.797322
 20
43.736818
 30
0.0
 11
8.242299
 21
26.181796
 31
0.0
  0
LINE
  5
15b
100
AcDbEntity
  8
0
 62
7
100
AcDbLine
 10
8.264530
 20
25.405782
 30
0.0
 11
26.572824
 21
43.714076
 31
0.0
  0
LINE
  5
15c
100
AcDbEntity
  8
0
 62
7
100
AcDbLine
 10
27.329443
 20
43.672450
 30
0.0
 11
20.343890
 21
36.686897
 31
0.0
  0
LINE
  5
15d
100
AcDbEntity
  8
0
 62
7
100
AcDbLine
 10
21.172060
 20
36.716822
 30
0.0
 11
28.057283
 21
43.602045
 31
0.0
  0
LINE
  5
15e
100
AcDbEntity
  8
0
 62
7
100
AcDbLine
 10
28.752919
 20
43.499436
 30
0.0
 11
21.932191
 21
36.678708
 31
0.0
  0
LINE
  5
15f
100
AcDbEntity
  8
0
 62
7
100
AcDbLine
 10
22.641506
 20
36.589778
 30
0.0
 11
29.438538
 21
43.386810
 31
0.0
  0
LINE
  5
160
100
AcDbEntity
  8
0
 62
7
100
AcDbLine
 10
30.082053
 20
43.232078
 30
0.0
 11
23.300906
 21
36.450933
 31
0.0
  0
LINE
  5
161
100
AcDbEntity
  8
0
 62
7
100
AcDbLine
 10
23.810805
 20
36.162587
 30
0.0
 11
30.725564
 21
43.077346
 31
0.0
  0
LINE
  5
162
100
AcDbEntity
  8
0
 62
7
100
AcDbLine
 10
31.333632
 20
42.887169
 30
0.0
 11
24.124825
 21
35.678362
 31
0.0
  0
LINE
  5
163
100
AcDbEntity
  8
0
 62
7
100
AcDbLine
 10
24.176334
 20
34.931626
 30
0.0
 11
31.931136
 21
42.686427
 31
0.0
  0
LINE
  5
164
100
AcDbEntity
  8
0
 62
7
100
AcDbLine
 10
32.519149
 20
42.476195
 30
0.0
 11
24.460982
 21
34.418029
 31
0.0
  0
LINE
  5
165
100
AcDbEntity
  8
0
 62
7
100
AcDbLine
 10
25.654218
 20
34.813020
 30
0.0
 11
33.074839
 21
42.233642
 31
0.0
  0
LINE
  5
166
100
AcDbEntity
  8
0
 62
7
100
AcDbLine
 10
33.630531
 20
41.991088
 30
0.0
 11
26.981943
 21
35.342500
 31
0.0
  0
LINE
  5
167
100
AcDbEntity
  8
0
 62
7
100
AcDbLine
 10
28.297863
 20
35.860174
 30
0.0
 11
34.163488
 21
41.725799
 31
0.0
  0
LINE
  5
168
100
AcDbEntity
  8
0
 62
7
100
AcDbLine
 10
34.680155
 20
41.444221
 30
0.0
 11
29.576906
 21
36.340971
 31
0.0
  0
LINE
  5
169
100
AcDbEntity
  8
0
 62
7
100
AcDbLine
 10
30.706895
 20
36.672716
 30
0.0
 11
35.196820
 21
41.162643
 31
0.0
  0
LINE
  5
16a
100
AcDbEntity
  8
0
 62
7
100
AcDbLine
 10
35.681457
 20
40.849034
 30
0.0
 11
31.744646
 21
36.912222
 31
0.0
  0
LINE
  5
16b
100
AcDbEntity
  8
0
 62
7
100
AcDbLine
 10
32.702652
 20
37.071983
 30
0.0
 11
36.160781
 21
40.530112
 31
0.0
  0
LINE
  5
16c
100
AcDbEntity
  8
0
 62
7
100
AcDbLine
 10
36.637437
 20
40.208523
 30
0.0
 11
33.560289
 21
37.131376
 31
0.0
  0
LINE
  5
16d
100
AcDbEntity
  8
0
 62
7
100
AcDbLine
 10
34.308076
 20
37.080918
 30
0.0
 11
37.080176
 21
39.853018
 31
0.0
  0
LINE
  5
16e
100
AcDbEntity
  8
0
 62
7
100
AcDbLine
 10
37.522915
 20
39.497513
 30
0.0
 11
34.915077
 21
36.889673
 31
0.0
  0
LINE
  5
16f
100
AcDbEntity
  8
0
 62
7
100
AcDbLine
 10
35.274377
 20
36.450728
 30
0.0
 11
37.958254
 21
39.134605
 31
0.0
  0
LINE
  5
170
100
AcDbEntity
  8
0
 62
7
100
AcDbLine
 10
38.371224
 20
38.749331
 30
0.0
 11
35.412748
 21
35.790856
 31
0.0
  0
LINE
  5
171
100
AcDbEntity
  8
0
 62
7
100
AcDbLine
 10
35.475627
 20
35.055487
 30
0.0
 11
38.779859
 21
38.359722
 31
0.0
  0
LINE
  5
172
100
AcDbEntity
  8
0
 62
7
100
AcDbLine
 10
39.162973
 20
37.944589
 30
0.0
 11
35.412330
 21
34.193948
 31
0.0
  0
LINE
  5
173
100
AcDbEntity
  8
0
 62
7
100
AcDbLine
 10
35.137144
 20
33.120516
 30
0.0
 11
39.543894
 21
37.527266
 31
0.0
  0
LINE
  5
174
100
AcDbEntity
  8
0
 62
7
100
AcDbLine
 10
39.883357
 20
37.068483
 30
0.0
 11
24.418881
 21
21.604007
 31
0.0
  0
LINE
  5
175
100
AcDbEntity
  8
0
 62
7
100
AcDbLine
 10
24.430486
 20
20.817366
 30
0.0
 11
40.222816
 21
36.609699
 31
0.0
  0
LINE
  5
176
100
AcDbEntity
  8
0
 62
7
100
AcDbLine
 10
40.562279
 20
36.150916
 30
0.0
 11
24.442090
 21
20.030725
 31
0.0
  0
LINE
  5
177
100
AcDbEntity
  8
0
 62
7
100
AcDbLine
 10
24.453692
 20
19.244084
 30
0.0
 11
40.901741
 21
35.692133
 31
0.0
  0
LINE
  5
178
100
AcDbEntity
  8
0
 62
7
100
AcDbLine
 10
41.188056
 20
35.180202
 30
0.0
 11
24.465295
 21
18.457443
 31
0.0
  0
LINE
  5
179
100
AcDbEntity
  8
0
 62
7
100
AcDbLine
 10
24.467976
 20
17.661867
 30
0.0
 11
41.469485
 21
34.663374
 31
0.0
  0
LINE
  5
17a
100
AcDbEntity
  8
0
 62
7
100
AcDbLine
 10
41.750900
 20
34.146546
 30
0.0
 11
24.467976
 21
16.863622
 31
0.0
  0
LINE
  5
17b
100
AcDbEntity
  8
0
 62
7
100
AcDbLine
 10
24.431358
 20
16.028760
 30
0.0
 11
42.032318
 21
33.629718
 31
0.0
  0
LINE
  5
17c
100
AcDbEntity
  8
0
 62
7
100
AcDbLine
 10
42.259290
 20
33.058445
 30
0.0
 11
24.319415
 21
15.118571
 31
0.0
  0
LINE
  5
17d
100
AcDbEntity
  8
0
 62
7
100
AcDbLine
 10
19.503202
 20
9.504124
 30
0.0
 11
42.480538
 21
32.481461
 31
0.0
  0
LINE
  5
17e
100
AcDbEntity
  8
0
 62
7
100
AcDbLine
 10
42.701800
 20
31.904477
 30
0.0
 11
20.092084
 21
9.294760
 31
0.0
  0
LINE
  5
17f
100
AcDbEntity
  8
0
 62
7
100
AcDbLine
 10
20.680966
 20
9.085397
 30
0.0
 11
42.917912
 21
31.322342
 31
0.0
  0
LINE
  5
180
100
AcDbEntity
  8
0
 62
7
100
AcDbLine
 10
43.073557
 20
30.679744
 30
0.0
 11
21.287713
 21
8.893900
 31
0.0
  0
LINE
  5
181
100
AcDbEntity
  8
0
 62
7
100
AcDbLine
 10
21.942669
 20
8.750610
 30
0.0
 11
43.229203
 21
30.037145
 31
0.0
  0
LINE
  5
182
100
AcDbEntity
  8
0
 62
7
100
AcDbLine
 10
43.384851
 20
29.394547
 30
0.0
 11
22.597624
 21
8.607321
 31
0.0
  0
LINE
  5
183
100
AcDbEntity
  8
0
 62
7
100
AcDbLine
 10
23.252580
 20
8.464031
 30
0.0
 11
43.502857
 21
28.714309
 31
0.0
  0
LINE
  5
184
100
AcDbEntity
  8
0
 62
7
100
AcDbLine
 10
43.582607
 20
27.995814
 30
0.0
 11
23.976081
 21
8.389287
 31
0.0
  0
LINE
  5
185
100
AcDbEntity
  8
0
 62
7
100
AcDbLine
 10
24.708869
 20
8.323831
 30
0.0
 11
43.662357
 21
27.277319
 31
0.0
  0
LINE
  5
186
100
AcDbEntity
  8
0
 62
7
100
AcDbLine
 10
43.721655
 20
26.538374
 30
0.0
 11
25.441657
 21
8.258375
 31
0.0
  0
LINE
  5
187
100
AcDbEntity
  8
0
 62
7
100
AcDbLine
 10
26.252518
 20
8.270991
 30
0.0
 11
43.707324
 21
25.725796
 31
0.0
  0
LINE
  5
188
100
AcDbEntity
  8
0
 62
7
100
AcDbLine
 10
43.692987
 20
24.913219
 30
0.0
 11
27.083669
 21
8.303901
 31
0.0
  0
LINE
  5
189
100
AcDbEntity
  8
0
 62
7
100
AcDbLine
 10
27.923804
 20
8.345791
 30
0.0
 11
43.640180
 21
24.062168
 31
0.0
  0
LINE
  5
18a
100
AcDbEntity
  8
0
 62
7
100
AcDbLine
 10
43.498804
 20
23.122546
 30
0.0
 11
28.890699
 21
8.514441
 31
0.0
  0
LINE
  5
18b
100
AcDbEntity
  8
0
 62
7
100
AcDbLine
 10
29.857596
 20
8.683092
 30
0.0
 11
43.357427
 21
22.182926
 31
0.0
  0
LINE
  5
18c
100
AcDbEntity
  8
0
 62
7
100
AcDbLine
 10
43.076340
 20
21.103593
 30
0.0
 11
30.983837
 21
9.011090
 31
0.0
  0
LINE
  5
18d
100
AcDbEntity
  8
0
 62
7
100
AcDbLine
 10
32.161813
 20
9.390820
 30
0.0
 11
42.762972
 21
19.991979
 31
0.0
  0
LINE
  5
18e
100
AcDbEntity
  8
0
 62
7
100
AcDbLine
 10
42.168247
 20
18.599012
 30
0.0
 11
33.588147
 21
10.018909
 31
0.0
  0
LINE
  5
18f
100
AcDbEntity
  8
0
 62
7
100
AcDbLine
 10
35.346045
 20
10.978560
 30
0.0
 11
41.245367
 21
16.877885
 31
0.0
  0
SPLINE
  5
190
100
AcDbEntity
  8
0
 62
7
100
AcDbSpline
 70
8
 71
3
 72
8
 73
4
 74
0
 40
0
 40
0
 40
0
 40
0
 40
1
 40
1
 40
1
 40
1
 10
25.710426
 20
49.000001
 30
0.0
 10
13.150798
 20
48.840730
 30
0.0
 10
3.006815
 20
38.597193
 30
0.0
 10
3.006815
 20
25.999998
 30
0.0
  0
SPLINE
  5
191
100
AcDbEntity
  8
0
 62
7
100
AcDbSpline
 70
8
 71
3
 72
8
 73
4
 74
0
 40
0
 40
0
 40
0
 40
0
 40
1
 40
1
 40
1
 40
1
 10
3.006815
 20
25.999998
 30
0.0
 10
3.006815
 20
13.303617
 30
0.0
 10
13.310433
 20
3.000000
 30
0.0
 10
26.006813
 20
3.000000
 30
0.0
  0
SPLINE
  5
192
100
AcDbEntity
  8
0
 62
7
100
AcDbSpline
 70
8
 71
3
 72
8
 73
4
 74
0
 40
0
 40
0
 40
0
 40
0
 40
1
 40
1
 40
1
 40
1
 10
26.006813
 20
3.000000
 30
0.0
 10
38.703194
 20
3.000000
 30
0.0
 10
49.006808
 20
13.303617
 30
0.0
 10
49.006805
 20
25.999998
 30
0.0
  0
SPLINE
  5
193
100
AcDbEntity
  8
0
 62
7
100
AcDbSpline
 70
8
 71
3
 72
8
 73
4
 74
0
 40
0
 40
0
 40
0
 40
0
 40
1
 40
1
 40
1
 40
1
 10
49.006805
 20
25.999998
 30
0.0
 10
49.006805
 20
26.099193
 30
0.0
 10
49.005676
 20
26.197491
 30
0.0
 10
49.003983
 20
26.296388
 30
0.0
  0
LINE
  5
194
100
AcDbEntity
  8
0
 62
7
100
AcDbLine
 10
49.003983
 20
26.296388
 30
0.0
 11
49.003983
 21
44.420503
 31
0.0
  0
SPLINE
  5
195
100
AcDbEntity
  8
0
 62
7
100
AcDbSpline
 70
8
 71
3
 72
8
 73
4
 74
0
 40
0
 40
0
 40
0
 40
0
 40
1
 40
1
 40
1
 40
1
 10
49.003983
 20
44.420503
 30
0.0
 10
48.953595
 20
46.945198
 30
0.0
 10
46.899511
 20
48.980982
 30
0.0
 10
44.367137
 20
49.000001
 30
0.0
  0
LINE
  5
196
100
AcDbEntity
  8
0
 62
7
100
AcDbLine
 10
44.367137
 20
49.000001
 30
0.0
 11
26.006813
 21
49.000001
 31
0.0
  0
SPLINE
  5
197
100
AcDbEntity
  8
0
 62
7
100
AcDbSpline
 70
8
 71
3
 72
8
 73
4
 74
0
 40
0
 40
0
 40
0
 40
0
 40
1
 40
1
 40
1
 40
1
 10
26.006813
 20
49.000001
 30
0.0
 10
25.971761
 20
49.000001
 30
0.0
 10
25.936970
 20
49.000001
 30
0.0
 10
25.902074
 20
49.000001
 30
0.0
  0
SPLINE
  5
198
100
AcDbEntity
  8
0
 62
7
100
AcDbSpline
 70
8
 71
3
 72
8
 73
4
 74
0
 40
0
 40
0
 40
0
 40
0
 40
1
 40
1
 40
1
 40
1
 10
25.902074
 20
49.000001
 30
0.0
 10
25.838223
 20
49.000001
 30
0.0
 10
25.774373
 20
49.000820
 30
0.0
 10
25.710426
 20
49.000001
 30
0.0
  0
LINE
  5
199
100
AcDbEntity
  8
0
 62
7
100
AcDbLine
 10
25.710426
 20
49.000001
 30
0.0
 11
25.710426
 21
49.000001
 31
0.0
  0
SPLINE
  5
19a
100
AcDbEntity
  8
0
 62
7
100
AcDbSpline
 70
8
 71
3
 72
8
 73
4
 74
0
 40
0
 40
0
 40
0
 40
0
 40
1
 40
1
 40
1
 40
1
 10
43.735626
 20
47.166945
 30
0.0
 10
43.484119
 20
47.166937
 30
0.0
 10
43.244186
 20
47.149344
 30
0.0
 10
43.012432
 20
47.105209
 30
0.0
  0
SPLINE
  5
19b
100
AcDbEntity
  8
0
 62
7
100
AcDbSpline
 70
8
 71
3
 72
8
 73
4
 74
0
 40
0
 40
0
 40
0
 40
0
 40
1
 40
1
 40
1
 40
1
 10
43.012432
 20
47.105209
 30
0.0
 10
42.791792
 20
47.062497
 30
0.0
 10
42.577216
 20
47.004555
 30
0.0
 10
42.377431
 20
46.928820
 30
0.0
  0
SPLINE
  5
19c
100
AcDbEntity
  8
0
 62
7
100
AcDbSpline
 70
8
 71
3
 72
8
 73
4
 74
0
 40
0
 40
0
 40
0
 40
0
 40
1
 40
1
 40
1
 40
1
 10
42.377431
 20
46.928820
 30
0.0
 10
42.374805
 20
46.927837
 30
0.0
 10
42.371187
 20
46.929802
 30
0.0
 10
42.368619
 20
46.928820
 30
0.0
  0
SPLINE
  5
19d
100
AcDbEntity
  8
0
 62
7
100
AcDbSpline
 70
8
 71
3
 72
8
 73
4
 74
0
 40
0
 40
0
 40
0
 40
0
 40
1
 40
1
 40
1
 40
1
 10
42.368619
 20
46.928820
 30
0.0
 10
42.172141
 20
46.856911
 30
0.0
 10
41.984965
 20
46.763021
 30
0.0
 10
41.812995
 20
46.664236
 30
0.0
  0
SPLINE
  5
19e
100
AcDbEntity
  8
0
 62
7
100
AcDbSpline
 70
8
 71
3
 72
8
 73
4
 74
0
 40
0
 40
0
 40
0
 40
0
 40
1
 40
1
 40
1
 40
1
 10
41.812995
 20
46.664236
 30
0.0
 10
41.646718
 20
46.566633
 30
0.0
 10
41.495092
 20
46.461517
 30
0.0
 10
41.354385
 20
46.346736
 30
0.0
  0
LINE
  5
19f
100
AcDbEntity
  8
0
 62
7
100
AcDbLine
 10
41.354385
 20
46.346736
 30
0.0
 11
41.089801
 21
46.135070
 31
0.0
  0
LINE
  5
1a0
100
AcDbEntity
  8
0
 62
7
100
AcDbLine
 10
41.089801
 20
46.135070
 30
0.0
 11
41.292649
 21
45.870486
 31
0.0
  0
LINE
  5
1a1
100
AcDbEntity
  8
0
 62
7
100
AcDbLine
 10
41.292649
 20
45.870486
 30
0.0
 11
41.751258
 21
45.253125
 31
0.0
  0
LINE
  5
1a2
100
AcDbEntity
  8
0
 62
7
100
AcDbLine
 10
41.751258
 20
45.253125
 30
0.0
 11
41.954107
 21
44.970903
 31
0.0
  0
LINE
  5
1a3
100
AcDbEntity
  8
0
 62
7
100
AcDbLine
 10
41.954107
 20
44.970903
 30
0.0
 11
42.236328
 21
45.173750
 31
0.0
  0
SPLINE
  5
1a4
100
AcDbEntity
  8
0
 62
7
100
AcDbSpline
 70
8
 71
3
 72
8
 73
4
 74
0
 40
0
 40
0
 40
0
 40
0
 40
1
 40
1
 40
1
 40
1
 10
42.236328
 20
45.173750
 30
0.0
 10
42.459372
 20
45.336507
 30
0.0
 10
42.692454
 20
45.463774
 30
0.0
 10
42.933065
 20
45.561806
 30
0.0
  0
SPLINE
  5
1a5
100
AcDbEntity
  8
0
 62
7
100
AcDbSpline
 70
8
 71
3
 72
8
 73
4
 74
0
 40
0
 40
0
 40
0
 40
0
 40
1
 40
1
 40
1
 40
1
 10
42.933065
 20
45.561806
 30
0.0
 10
43.154509
 20
45.653620
 30
0.0
 10
43.418820
 20
45.702911
 30
0.0
 10
43.735634
 20
45.702917
 30
0.0
  0
SPLINE
  5
1a6
100
AcDbEntity
  8
0
 62
7
100
AcDbSpline
 70
8
 71
3
 72
8
 73
4
 74
0
 40
0
 40
0
 40
0
 40
0
 40
1
 40
1
 40
1
 40
1
 10
43.735634
 20
45.702917
 30
0.0
 10
43.889597
 20
45.702912
 30
0.0
 10
44.020158
 20
45.686629
 30
0.0
 10
44.132510
 20
45.650000
 30
0.0
  0
SPLINE
  5
1a7
100
AcDbEntity
  8
0
 62
7
100
AcDbSpline
 70
8
 71
3
 72
8
 73
4
 74
0
 40
0
 40
0
 40
0
 40
0
 40
1
 40
1
 40
1
 40
1
 10
44.132510
 20
45.650000
 30
0.0
 10
44.244897
 20
45.613346
 30
0.0
 10
44.334857
 20
45.562505
 30
0.0
 10
44.405913
 20
45.500070
 30
0.0
  0
SPLINE
  5
1a8
100
AcDbEntity
  8
0
 62
7
100
AcDbSpline
 70
8
 71
3
 72
8
 73
4
 74
0
 40
0
 40
0
 40
0
 40
0
 40
1
 40
1
 40
1
 40
1
 10
44.405913
 20
45.500070
 30
0.0
 10
44.474734
 20
45.441668
 30
0.0
 10
44.524986
 20
45.369950
 30
0.0
 10
44.564662
 20
45.279584
 30
0.0
  0
SPLINE
  5
1a9
100
AcDbEntity
  8
0
 62
7
100
AcDbSpline
 70
8
 71
3
 72
8
 73
4
 74
0
 40
0
 40
0
 40
0
 40
0
 40
1
 40
1
 40
1
 40
1
 10
44.564662
 20
45.279584
 30
0.0
 10
44.602301
 20
45.193839
 30
0.0
 10
44.626395
 20
45.093676
 30
0.0
 10
44.626398
 20
44.962083
 30
0.0
  0
SPLINE
  5
1aa
100
AcDbEntity
  8
0
 62
7
100
AcDbSpline
 70
8
 71
3
 72
8
 73
4
 74
0
 40
0
 40
0
 40
0
 40
0
 40
1
 40
1
 40
1
 40
1
 10
44.626398
 20
44.962083
 30
0.0
 10
44.626395
 20
44.802405
 30
0.0
 10
44.599669
 20
44.669637
 30
0.0
 10
44.547022
 20
44.547570
 30
0.0
  0
SPLINE
  5
1ab
100
AcDbEntity
  8
0
 62
7
100
AcDbSpline
 70
8
 71
3
 72
8
 73
4
 74
0
 40
0
 40
0
 40
0
 40
0
 40
1
 40
1
 40
1
 40
1
 10
44.547022
 20
44.547570
 30
0.0
 10
44.494913
 20
44.426775
 30
0.0
 10
44.422029
 20
44.319825
 30
0.0
 10
44.317716
 20
44.230070
 30
0.0
  0
LINE
  5
1ac
100
AcDbEntity
  8
0
 62
7
100
AcDbLine
 10
44.317716
 20
44.230070
 30
0.0
 11
44.308904
 21
44.230070
 31
0.0
  0
SPLINE
  5
1ad
100
AcDbEntity
  8
0
 62
7
100
AcDbSpline
 70
8
 71
3
 72
8
 73
4
 74
0
 40
0
 40
0
 40
0
 40
0
 40
1
 40
1
 40
1
 40
1
 10
44.308904
 20
44.230070
 30
0.0
 10
44.211655
 20
44.144397
 30
0.0
 10
44.091252
 20
44.072497
 30
0.0
 10
43.920849
 20
44.018403
 30
0.0
  0
SPLINE
  5
1ae
100
AcDbEntity
  8
0
 62
7
100
AcDbSpline
 70
8
 71
3
 72
8
 73
4
 74
0
 40
0
 40
0
 40
0
 40
0
 40
1
 40
1
 40
1
 40
1
 10
43.920849
 20
44.018403
 30
0.0
 10
43.753720
 20
43.965344
 30
0.0
 10
43.551385
 20
43.939024
 30
0.0
 10
43.312307
 20
43.939028
 30
0.0
  0
LINE
  5
1af
100
AcDbEntity
  8
0
 62
7
100
AcDbLine
 10
43.312307
 20
43.939028
 30
0.0
 11
42.650849
 21
43.939028
 31
0.0
  0
LINE
  5
1b0
100
AcDbEntity
  8
0
 62
7
100
AcDbLine
 10
42.650849
 20
43.939028
 30
0.0
 11
42.298070
 21
43.939028
 31
0.0
  0
LINE
  5
1b1
100
AcDbEntity
  8
0
 62
7
100
AcDbLine
 10
42.298070
 20
43.939028
 30
0.0
 11
42.298070
 21
43.586250
 31
0.0
  0
LINE
  5
1b2
100
AcDbEntity
  8
0
 62
7
100
AcDbLine
 10
42.298070
 20
43.586250
 30
0.0
 11
42.298070
 21
42.836597
 31
0.0
  0
LINE
  5
1b3
100
AcDbEntity
  8
0
 62
7
100
AcDbLine
 10
42.298070
 20
42.836597
 30
0.0
 11
42.298070
 21
42.483820
 31
0.0
  0
LINE
  5
1b4
100
AcDbEntity
  8
0
 62
7
100
AcDbLine
 10
42.298070
 20
42.483820
 30
0.0
 11
42.650849
 21
42.483820
 31
0.0
  0
LINE
  5
1b5
100
AcDbEntity
  8
0
 62
7
100
AcDbLine
 10
42.650849
 20
42.483820
 30
0.0
 11
43.312307
 21
42.483820
 31
0.0
  0
SPLINE
  5
1b6
100
AcDbEntity
  8
0
 62
7
100
AcDbSpline
 70
8
 71
3
 72
8
 73
4
 74
0
 40
0
 40
0
 40
0
 40
0
 40
1
 40
1
 40
1
 40
1
 10
43.312307
 20
42.483820
 30
0.0
 10
43.586994
 20
42.483817
 30
0.0
 10
43.824879
 20
42.465324
 30
0.0
 10
44.026683
 20
42.422083
 30
0.0
  0
SPLINE
  5
1b7
100
AcDbEntity
  8
0
 62
7
100
AcDbSpline
 70
8
 71
3
 72
8
 73
4
 74
0
 40
0
 40
0
 40
0
 40
0
 40
1
 40
1
 40
1
 40
1
 10
44.026683
 20
42.422083
 30
0.0
 10
44.228183
 20
42.379509
 30
0.0
 10
44.384702
 20
42.314082
 30
0.0
 10
44.502931
 20
42.236875
 30
0.0
  0
SPLINE
  5
1b8
100
AcDbEntity
  8
0
 62
7
100
AcDbSpline
 70
8
 71
3
 72
8
 73
4
 74
0
 40
0
 40
0
 40
0
 40
0
 40
1
 40
1
 40
1
 40
1
 10
44.502931
 20
42.236875
 30
0.0
 10
44.618216
 20
42.163937
 30
0.0
 10
44.701047
 20
42.080931
 30
0.0
 10
44.758695
 20
41.972292
 30
0.0
  0
LINE
  5
1b9
100
AcDbEntity
  8
0
 62
7
100
AcDbLine
 10
44.758695
 20
41.972292
 30
0.0
 11
44.758695
 21
41.963473
 31
0.0
  0
SPLINE
  5
1ba
100
AcDbEntity
  8
0
 62
7
100
AcDbSpline
 70
8
 71
3
 72
8
 73
4
 74
0
 40
0
 40
0
 40
0
 40
0
 40
1
 40
1
 40
1
 40
1
 10
44.758695
 20
41.963473
 30
0.0
 10
44.813370
 20
41.866269
 30
0.0
 10
44.846886
 20
41.736352
 30
0.0
 10
44.846889
 20
41.557778
 30
0.0
  0
SPLINE
  5
1bb
100
AcDbEntity
  8
0
 62
7
100
AcDbSpline
 70
8
 71
3
 72
8
 73
4
 74
0
 40
0
 40
0
 40
0
 40
0
 40
1
 40
1
 40
1
 40
1
 10
44.846889
 20
41.557778
 30
0.0
 10
44.846886
 20
41.372751
 30
0.0
 10
44.819255
 20
41.214550
 30
0.0
 10
44.767516
 20
41.081528
 30
0.0
  0
SPLINE
  5
1bc
100
AcDbEntity
  8
0
 62
7
100
AcDbSpline
 70
8
 71
3
 72
8
 73
4
 74
0
 40
0
 40
0
 40
0
 40
0
 40
1
 40
1
 40
1
 40
1
 10
44.767516
 20
41.081528
 30
0.0
 10
44.721353
 20
40.956905
 30
0.0
 10
44.657166
 20
40.858048
 30
0.0
 10
44.555849
 20
40.772848
 30
0.0
  0
LINE
  5
1bd
100
AcDbEntity
  8
0
 62
7
100
AcDbLine
 10
44.555849
 20
40.772848
 30
0.0
 11
44.547037
 21
40.772848
 31
0.0
  0
SPLINE
  5
1be
100
AcDbEntity
  8
0
 62
7
100
AcDbSpline
 70
8
 71
3
 72
8
 73
4
 74
0
 40
0
 40
0
 40
0
 40
0
 40
1
 40
1
 40
1
 40
1
 10
44.547037
 20
40.772848
 30
0.0
 10
44.449310
 20
40.688758
 30
0.0
 10
44.317089
 20
40.616275
 30
0.0
 10
44.132525
 20
40.561181
 30
0.0
  0
SPLINE
  5
1bf
100
AcDbEntity
  8
0
 62
7
100
AcDbSpline
 70
8
 71
3
 72
8
 73
4
 74
0
 40
0
 40
0
 40
0
 40
0
 40
1
 40
1
 40
1
 40
1
 10
44.132525
 20
40.561181
 30
0.0
 10
43.953006
 20
40.507593
 30
0.0
 10
43.723513
 20
40.472986
 30
0.0
 10
43.444606
 20
40.472986
 30
0.0
  0
SPLINE
  5
1c0
100
AcDbEntity
  8
0
 62
7
100
AcDbSpline
 70
8
 71
3
 72
8
 73
4
 74
0
 40
0
 40
0
 40
0
 40
0
 40
1
 40
1
 40
1
 40
1
 10
43.444606
 20
40.472986
 30
0.0
 10
43.168390
 20
40.472986
 30
0.0
 10
42.876117
 20
40.510811
 30
0.0
 10
42.562664
 20
40.587639
 30
0.0
  0
SPLINE
  5
1c1
100
AcDbEntity
  8
0
 62
7
100
AcDbSpline
 70
8
 71
3
 72
8
 73
4
 74
0
 40
0
 40
0
 40
0
 40
0
 40
1
 40
1
 40
1
 40
1
 10
42.562664
 20
40.587639
 30
0.0
 10
42.254472
 20
40.663923
 30
0.0
 10
41.968595
 20
40.766917
 30
0.0
 10
41.707176
 20
40.905139
 30
0.0
  0
LINE
  5
1c2
100
AcDbEntity
  8
0
 62
7
100
AcDbLine
 10
41.707176
 20
40.905139
 30
0.0
 11
41.195649
 21
41.178542
 31
0.0
  0
LINE
  5
1c3
100
AcDbEntity
  8
0
 62
7
100
AcDbLine
 10
41.195649
 20
41.178542
 30
0.0
 11
41.195649
 21
40.596459
 31
0.0
  0
LINE
  5
1c4
100
AcDbEntity
  8
0
 62
7
100
AcDbLine
 10
41.195649
 20
40.596459
 30
0.0
 11
41.195649
 21
39.758611
 31
0.0
  0
LINE
  5
1c5
100
AcDbEntity
  8
0
 62
7
100
AcDbLine
 10
41.195649
 20
39.758611
 30
0.0
 11
41.195649
 21
39.546945
 31
0.0
  0
LINE
  5
1c6
100
AcDbEntity
  8
0
 62
7
100
AcDbLine
 10
41.195649
 20
39.546945
 30
0.0
 11
41.380858
 21
39.449931
 31
0.0
  0
SPLINE
  5
1c7
100
AcDbEntity
  8
0
 62
7
100
AcDbSpline
 70
8
 71
3
 72
8
 73
4
 74
0
 40
0
 40
0
 40
0
 40
0
 40
1
 40
1
 40
1
 40
1
 10
41.380858
 20
39.449931
 30
0.0
 10
41.694024
 20
39.284136
 30
0.0
 10
42.025204
 20
39.168350
 30
0.0
 10
42.377455
 20
39.105973
 30
0.0
  0
SPLINE
  5
1c8
100
AcDbEntity
  8
0
 62
7
100
AcDbSpline
 70
8
 71
3
 72
8
 73
4
 74
0
 40
0
 40
0
 40
0
 40
0
 40
1
 40
1
 40
1
 40
1
 10
42.377455
 20
39.105973
 30
0.0
 10
42.720216
 20
39.045900
 30
0.0
 10
43.083555
 20
39.017778
 30
0.0
 10
43.462246
 20
39.017778
 30
0.0
  0
SPLINE
  5
1c9
100
AcDbEntity
  8
0
 62
7
100
AcDbSpline
 70
8
 71
3
 72
8
 73
4
 74
0
 40
0
 40
0
 40
0
 40
0
 40
1
 40
1
 40
1
 40
1
 10
43.462246
 20
39.017778
 30
0.0
 10
43.945705
 20
39.017778
 30
0.0
 10
44.380912
 20
39.065652
 30
0.0
 10
44.758704
 20
39.185347
 30
0.0
  0
SPLINE
  5
1ca
100
AcDbEntity
  8
0
 62
7
100
AcDbSpline
 70
8
 71
3
 72
8
 73
4
 74
0
 40
0
 40
0
 40
0
 40
0
 40
1
 40
1
 40
1
 40
1
 10
44.758704
 20
39.185347
 30
0.0
 10
45.129851
 20
39.302940
 30
0.0
 10
45.450398
 20
39.476504
 30
0.0
 10
45.711204
 20
39.705695
 30
0.0
  0
SPLINE
  5
1cb
100
AcDbEntity
  8
0
 62
7
100
AcDbSpline
 70
8
 71
3
 72
8
 73
4
 74
0
 40
0
 40
0
 40
0
 40
0
 40
1
 40
1
 40
1
 40
1
 10
45.711204
 20
39.705695
 30
0.0
 10
45.965193
 20
39.928901
 30
0.0
 10
46.149644
 20
40.207317
 30
0.0
 10
46.275649
 20
40.517084
 30
0.0
  0
LINE
  5
1cc
100
AcDbEntity
  8
0
 62
7
100
AcDbLine
 10
46.275649
 20
40.517084
 30
0.0
 11
46.284462
 21
40.517084
 31
0.0
  0
SPLINE
  5
1cd
100
AcDbEntity
  8
0
 62
7
100
AcDbSpline
 70
8
 71
3
 72
8
 73
4
 74
0
 40
0
 40
0
 40
0
 40
0
 40
1
 40
1
 40
1
 40
1
 10
46.284462
 20
40.517084
 30
0.0
 10
46.285337
 20
40.519349
 30
0.0
 10
46.283586
 20
40.523632
 30
0.0
 10
46.284462
 20
40.525903
 30
0.0
  0
SPLINE
  5
1ce
100
AcDbEntity
  8
0
 62
7
100
AcDbSpline
 70
8
 71
3
 72
8
 73
4
 74
0
 40
0
 40
0
 40
0
 40
0
 40
1
 40
1
 40
1
 40
1
 10
46.284462
 20
40.525903
 30
0.0
 10
46.410248
 20
40.833978
 30
0.0
 10
46.478483
 20
41.176717
 30
0.0
 10
46.478489
 20
41.531320
 30
0.0
  0
SPLINE
  5
1cf
100
AcDbEntity
  8
0
 62
7
100
AcDbSpline
 70
8
 71
3
 72
8
 73
4
 74
0
 40
0
 40
0
 40
0
 40
0
 40
1
 40
1
 40
1
 40
1
 10
46.478489
 20
41.531320
 30
0.0
 10
46.478483
 20
42.084896
 30
0.0
 10
46.285471
 20
42.579068
 30
0.0
 10
45.914046
 20
42.942431
 30
0.0
  0
SPLINE
  5
1d0
100
AcDbEntity
  8
0
 62
7
100
AcDbSpline
 70
8
 71
3
 72
8
 73
4
 74
0
 40
0
 40
0
 40
0
 40
0
 40
1
 40
1
 40
1
 40
1
 10
45.914046
 20
42.942431
 30
0.0
 10
45.752111
 20
43.102600
 30
0.0
 10
45.547676
 20
43.219105
 30
0.0
 10
45.331962
 20
43.321667
 30
0.0
  0
SPLINE
  5
1d1
100
AcDbEntity
  8
0
 62
7
100
AcDbSpline
 70
8
 71
3
 72
8
 73
4
 74
0
 40
0
 40
0
 40
0
 40
0
 40
1
 40
1
 40
1
 40
1
 10
45.331962
 20
43.321667
 30
0.0
 10
45.467430
 20
43.410510
 30
0.0
 10
45.611495
 20
43.487425
 30
0.0
 10
45.720019
 20
43.603889
 30
0.0
  0
SPLINE
  5
1d2
100
AcDbEntity
  8
0
 62
7
100
AcDbSpline
 70
8
 71
3
 72
8
 73
4
 74
0
 40
0
 40
0
 40
0
 40
0
 40
1
 40
1
 40
1
 40
1
 10
45.720019
 20
43.603889
 30
0.0
 10
45.891753
 20
43.783802
 30
0.0
 10
46.025570
 20
44.000665
 30
0.0
 10
46.116892
 20
44.238890
 30
0.0
  0
SPLINE
  5
1d3
100
AcDbEntity
  8
0
 62
7
100
AcDbSpline
 70
8
 71
3
 72
8
 73
4
 74
0
 40
0
 40
0
 40
0
 40
0
 40
1
 40
1
 40
1
 40
1
 10
46.116892
 20
44.238890
 30
0.0
 10
46.209936
 20
44.481618
 30
0.0
 10
46.257998
 20
44.745629
 30
0.0
 10
46.258004
 20
45.023820
 30
0.0
  0
SPLINE
  5
1d4
100
AcDbEntity
  8
0
 62
7
100
AcDbSpline
 70
8
 71
3
 72
8
 73
4
 74
0
 40
0
 40
0
 40
0
 40
0
 40
1
 40
1
 40
1
 40
1
 10
46.258004
 20
45.023820
 30
0.0
 10
46.257998
 20
45.323433
 30
0.0
 10
46.200391
 20
45.608133
 30
0.0
 10
46.090434
 20
45.870487
 30
0.0
  0
SPLINE
  5
1d5
100
AcDbEntity
  8
0
 62
7
100
AcDbSpline
 70
8
 71
3
 72
8
 73
4
 74
0
 40
0
 40
0
 40
0
 40
0
 40
1
 40
1
 40
1
 40
1
 10
46.090434
 20
45.870487
 30
0.0
 10
46.089559
 20
45.872698
 30
0.0
 10
46.091310
 20
45.877103
 30
0.0
 10
46.090434
 20
45.879306
 30
0.0
  0
LINE
  5
1d6
100
AcDbEntity
  8
0
 62
7
100
AcDbLine
 10
46.090434
 20
45.879306
 30
0.0
 11
46.081622
 21
45.879306
 31
0.0
  0
SPLINE
  5
1d7
100
AcDbEntity
  8
0
 62
7
100
AcDbSpline
 70
8
 71
3
 72
8
 73
4
 74
0
 40
0
 40
0
 40
0
 40
0
 40
1
 40
1
 40
1
 40
1
 10
46.081622
 20
45.879306
 30
0.0
 10
45.970609
 20
46.140178
 30
0.0
 10
45.800655
 20
46.378978
 30
0.0
 10
45.587731
 20
46.567223
 30
0.0
  0
SPLINE
  5
1d8
100
AcDbEntity
  8
0
 62
7
100
AcDbSpline
 70
8
 71
3
 72
8
 73
4
 74
0
 40
0
 40
0
 40
0
 40
0
 40
1
 40
1
 40
1
 40
1
 10
45.587731
 20
46.567223
 30
0.0
 10
45.584813
 20
46.569816
 30
0.0
 10
45.581837
 20
46.573471
 30
0.0
 10
45.578919
 20
46.576042
 30
0.0
  0
SPLINE
  5
1d9
100
AcDbEntity
  8
0
 62
7
100
AcDbSpline
 70
8
 71
3
 72
8
 73
4
 74
0
 40
0
 40
0
 40
0
 40
0
 40
1
 40
1
 40
1
 40
1
 10
45.578919
 20
46.576042
 30
0.0
 10
45.357999
 20
46.770437
 30
0.0
 10
45.089988
 20
46.916637
 30
0.0
 10
44.785167
 20
47.017014
 30
0.0
  0
SPLINE
  5
1da
100
AcDbEntity
  8
0
 62
7
100
AcDbSpline
 70
8
 71
3
 72
8
 73
4
 74
0
 40
0
 40
0
 40
0
 40
0
 40
1
 40
1
 40
1
 40
1
 10
44.785167
 20
47.017014
 30
0.0
 10
44.473007
 20
47.121057
 30
0.0
 10
44.122002
 20
47.166937
 30
0.0
 10
43.735655
 20
47.166945
 30
0.0
  0
LINE
  5
1db
100
AcDbEntity
  8
0
 62
7
100
AcDbLine
 10
43.735655
 20
47.166945
 30
0.0
 11
43.735626
 21
47.166945
 31
0.0
  0
ENDSEC
  0
SECTION
  2
OBJECTS
  0
DICTIONARY
  5
C
330
0
100
AcDbDictionary
  3
ACAD_GROUP
350
D
  3
ACAD_MLINESTYLE
350
17
  0
DICTIONARY
  5
D
330
C
100
AcDbDictionary
  0
DICTIONARY
  5
1A
330
C
100
AcDbDictionary
  0
DICTIONARY
  5
17
330
C
100
AcDbDictionary
  3
STANDARD
350
18
  0
DICTIONARY
  5
19
330
C
100
AcDbDictionary
  0
ENDSEC
  0
EOF
