<?xml version="1.0" encoding="UTF-8" standalone="no"?>
<!-- Created with Inkscape (http://www.inkscape.org/) -->

<svg
   xmlns:dc="http://purl.org/dc/elements/1.1/"
   xmlns:cc="http://creativecommons.org/ns#"
   xmlns:rdf="http://www.w3.org/1999/02/22-rdf-syntax-ns#"
   xmlns:svg="http://www.w3.org/2000/svg"
   xmlns="http://www.w3.org/2000/svg"
   xmlns:xlink="http://www.w3.org/1999/xlink"
   xmlns:sodipodi="http://sodipodi.sourceforge.net/DTD/sodipodi-0.dtd"
   xmlns:inkscape="http://www.inkscape.org/namespaces/inkscape"
   version="1.0"
   width="100mm"
   height="100mm"
   id="svg2"
   sodipodi:version="0.32"
   inkscape:version="0.91 r13725"
   sodipodi:docname="logo-re_open.svg"
   inkscape:output_extension="org.inkscape.output.svg.inkscape"
   inkscape:export-filename="/home/equinox/realraum/git/logo/logo-aktuell.png"
   inkscape:export-xdpi="275.48813"
   inkscape:export-ydpi="275.48813">
  <sodipodi:namedview
     inkscape:window-height="1151"
     inkscape:window-width="1920"
     inkscape:pageshadow="2"
     inkscape:pageopacity="0.0"
     guidetolerance="10.0"
     gridtolerance="10.0"
     objecttolerance="10.0"
     borderopacity="1.0"
     bordercolor="#666666"
     pagecolor="#ffffff"
     id="base"
     showgrid="false"
     inkscape:zoom="2.7516667"
     inkscape:cx="177.16535"
     inkscape:cy="177.16535"
     inkscape:window-x="0"
     inkscape:window-y="25"
     inkscape:current-layer="g3408"
     inkscape:document-units="mm"
     units="mm"
     showguides="false"
     inkscape:guide-bbox="true"
     inkscape:window-maximized="1"
     showborder="false"
     inkscape:showpageshadow="false" />
  <metadata
     id="metadata8">
    <rdf:RDF>
      <cc:Work
         rdf:about="">
        <dc:format>image/svg+xml</dc:format>
        <dc:type
           rdf:resource="http://purl.org/dc/dcmitype/StillImage" />
        <dc:title />
      </cc:Work>
    </rdf:RDF>
  </metadata>
  <defs
     id="defs4">
    <inkscape:perspective
       sodipodi:type="inkscape:persp3d"
       inkscape:vp_x="0 : 380.90848 : 1"
       inkscape:vp_y="0 : 1000 : 0"
       inkscape:vp_z="637.79529 : 380.90848 : 1"
       inkscape:persp3d-origin="318.89764 : 253.93899 : 1"
       id="perspective10" />
  </defs>
  <text
     xml:space="preserve"
     style="font-style:normal;font-weight:normal;font-size:52.42951965px;line-height:125%;font-family:Sans;letter-spacing:0px;word-spacing:0px;fill:#000000;fill-opacity:1;stroke:none"
     x="172.74368"
     y="378.11536"
     id="text3529"
     sodipodi:linespacing="125%"
     transform="scale(1.0000019,0.99999812)"><tspan
       sodipodi:role="line"
       id="tspan3531"
       x="172.74368"
       y="378.11536"
       style="font-style:normal;font-variant:normal;font-weight:normal;font-stretch:normal;font-family:'Trebuchet MS';-inkscape-font-specification:'Trebuchet MS'" /></text>
  <text
     xml:space="preserve"
     style="font-style:normal;font-weight:normal;font-size:78.16189575px;line-height:125%;font-family:Sans;letter-spacing:0px;word-spacing:0px;fill:#000000;fill-opacity:1;stroke:none"
     x="203.0845"
     y="375.37604"
     id="text3537"
     sodipodi:linespacing="125%"
     transform="scale(1.0000019,0.99999812)"><tspan
       sodipodi:role="line"
       id="tspan3539"
       x="203.0845"
       y="375.37604" /></text>
  <text
     sodipodi:linespacing="125%"
     id="text4902"
     y="378.11536"
     x="172.74368"
     style="font-style:normal;font-weight:normal;font-size:52.42951965px;line-height:125%;font-family:Sans;letter-spacing:0px;word-spacing:0px;fill:#000000;fill-opacity:1;stroke:none"
     xml:space="preserve"
     transform="scale(1.0000019,0.99999812)"><tspan
       style="font-style:normal;font-variant:normal;font-weight:normal;font-stretch:normal;font-family:'Trebuchet MS';-inkscape-font-specification:'Trebuchet MS'"
       y="378.11536"
       x="172.74368"
       id="tspan4904"
       sodipodi:role="line" /></text>
  <text
     sodipodi:linespacing="125%"
     id="text4906"
     y="375.37604"
     x="203.0845"
     style="font-style:normal;font-weight:normal;font-size:78.16189575px;line-height:125%;font-family:Sans;letter-spacing:0px;word-spacing:0px;fill:#000000;fill-opacity:1;stroke:none"
     xml:space="preserve"
     transform="scale(1.0000019,0.99999812)"><tspan
       y="375.37604"
       x="203.0845"
       id="tspan4908"
       sodipodi:role="line" /></text>
  <text
     xml:space="preserve"
     style="font-style:normal;font-weight:normal;font-size:52.42951965px;line-height:125%;font-family:Sans;letter-spacing:0px;word-spacing:0px;fill:#000000;fill-opacity:1;stroke:none"
     x="172.74368"
     y="378.11536"
     id="text4912"
     sodipodi:linespacing="125%"
     transform="scale(1.0000019,0.99999812)"><tspan
       sodipodi:role="line"
       id="tspan4914"
       x="172.74368"
       y="378.11536"
       style="font-style:normal;font-variant:normal;font-weight:normal;font-stretch:normal;font-family:'Trebuchet MS';-inkscape-font-specification:'Trebuchet MS'" /></text>
  <text
     xml:space="preserve"
     style="font-style:normal;font-weight:normal;font-size:78.16189575px;line-height:125%;font-family:Sans;letter-spacing:0px;word-spacing:0px;fill:#000000;fill-opacity:1;stroke:none"
     x="203.0845"
     y="375.37604"
     id="text4916"
     sodipodi:linespacing="125%"
     transform="scale(1.0000019,0.99999812)"><tspan
       sodipodi:role="line"
       id="tspan4918"
       x="203.0845"
       y="375.37604" /></text>
  <g
     id="g3408">
    <g
       id="g3392" />
    <g
       id="g4205">
      <path
         inkscape:connector-curvature="0"
         style="fill:#761407;fill-opacity:1;stroke:none"
         d="M 174.87952,0.00283033 C 78.13461,1.2296398 -1.7838599e-8,80.166585 -1.7838599e-8,177.19813 -1.7838599e-8,274.99368 79.39529,354.33072 177.1936,354.33072 c 97.79832,0 177.13091,-79.33704 177.13089,-177.13259 0,-0.76406 0.014,-1.55231 0,-2.31407 l 0,-139.604726 C 353.93643,15.832552 338.1178,0.14932543 318.6113,0.00283033 l -141.4177,0 -0.81277,0 c -0.49184,0 -1.00873,-0.00636013 -1.50131,0 z M 309.91695,15.140093 c 4.32352,5.5e-5 8.04643,0.927121 10.94572,2.938723 2.93358,1.975676 4.62813,5.159596 4.62815,8.694316 -2e-5,2.091358 -0.5541,4.193322 -1.50131,6.254842 -0.89442,1.893981 -1.88516,3.523732 -3.00144,4.816239 -0.81736,0.903351 -1.67691,1.824274 -2.56488,2.689095 2.49103,1.398691 4.59737,3.162453 6.19216,5.379378 l 0.0627,0 c 0.008,0.01357 -0.008,0.111781 0,0.125404 1.88498,2.535991 2.81448,5.562234 2.81451,8.818538 -3e-5,6.015355 -2.49585,11.077865 -7.19304,14.448718 -4.51934,3.281781 -10.08278,5.046943 -16.44934,5.253974 0,0 -0.0526,-0.0024 -0.0627,0 -1.57154,0 -3.12124,-0.793526 -4.19042,-1.939035 -0.84551,-0.910481 -1.62671,-1.900336 -1.62671,-3.377637 0,-0.680529 0.0283,-1.362075 0.18811,-2.001741 l 0.50043,-1.750933 1.75094,-0.0627 c 5.49749,-0.184777 9.38133,-1.380803 11.69578,-3.189534 2.31448,-1.808732 3.37765,-4.204522 3.37765,-8.005769 -1e-5,-3.71476 -1.47417,-5.912036 -5.50361,-7.693449 -1.0461,-0.470698 -1.8618,-0.895749 -2.56489,-1.375897 -0.70308,-0.480148 -1.63932,-0.88484 -1.81364,-2.627577 l -0.0627,-0.812765 0.43773,-0.688542 c 0.58756,-0.913982 1.51941,-2.098245 3.00262,-3.878071 l 0,-0.06152 c 1.42318,-1.65269 2.53965,-3.207961 3.31495,-4.629318 l 0,-0.06271 c 0.73247,-1.27213 1.06236,-2.484244 1.06239,-3.876889 -3e-5,-1.241802 -0.30882,-1.936777 -1.12509,-2.690277 -0.705,-0.650696 -1.82571,-1.187758 -3.87809,-1.187794 -0.35932,1.8e-5 -1.69398,0.219769 -3.56458,0.687361 -0.98761,0.246912 -1.77457,0.43221 -2.37678,0.563132 -0.60222,0.130916 -0.75345,0.250941 -1.56401,0.250813 -1.48776,2.37e-4 -2.03993,-0.527267 -2.81451,-1.063572 l -0.0627,-0.06271 -0.0627,-0.0627 c -0.88548,-0.7378 -1.75094,-1.809192 -1.75094,-3.252234 0,-1.60912 1.02849,-2.609533 1.93904,-3.252234 0.91052,-0.642689 1.96392,-1.186067 3.31495,-1.689409 2.78619,-1.071525 5.62465,-1.625465 8.50624,-1.625525 z M 178.06906,40.533308 c 32.98969,0.278701 65.63976,12.996736 90.37909,34.776072 37.03182,32.00516 52.62436,85.16269 42.15616,132.66134 -9.14962,44.22947 -43.32326,81.10217 -85.2505,96.88558 C 181.84364,322.41519 129.5483,314.01648 92.943973,284.96668 52.314522,253.91945 32.641391,198.80331 42.968929,148.86501 55.241266,88.354949 113.00409,40.883721 174.87952,40.596013 c 1.06473,-0.01702 2.12538,-0.07169 3.18954,-0.06271 z"
         id="path4975" />
      <g
         id="g4195">
        <use
           height="637.80121"
           width="637.79529"
           transform="matrix(-1,0,0,1,332.23517,0)"
           id="use3794"
           xlink:href="#path3792"
           y="0"
           x="0" />
        <path
           id="path4910"
           d="m 237.11282,91.321577 c -12.38468,1.69e-4 -27.25295,3.613083 -44.65811,10.820583 -17.40536,7.20783 -27.13839,10.82074 -29.14661,10.82058 -0.33481,-1.8685 -0.50045,-5.09387 -0.50036,-9.63219 -9e-5,-5.872752 -8.34533,-8.818917 -25.0811,-8.819093 -7.69854,1.76e-4 -10.00065,1.895302 -12.0089,8.568903 -1.59924,5.3985 -1.34057,9.52467 -1.56366,14.44829 -0.33475,11.924 -0.18768,10.67309 -0.18764,16.01196 0,0.0833 -1.3e-4,0.0477 0,0.1251 -0.0178,0.066 -0.0388,0.0991 -0.0625,0.25019 l 0.25018,92.3815 c 0.008,25.1462 0.94208,38.52909 4.94117,40.65539 2.00825,1.06779 1.58865,2.18911 12.63436,2.18911 11.38029,0 18.40031,-1.78355 21.07813,-5.25391 1.33878,-2.13557 2.0014,-4.24415 2.00148,-6.37977 0.33461,-2.13559 0.50028,-4.80257 0.50037,-8.00598 -9e-5,-3.47033 -9e-5,-5.74977 0,-6.81758 l 0,-6.0045 -1.00074,-68.05083 0,-26.01944 c 2.00822,-2.66938 5.71515,-4.84048 11.07071,-6.44231 2.67763,-0.80072 5.16244,-1.5758 7.50556,-2.37678 2.67762,-0.80072 5.88762,-1.46745 9.5696,-2.00149 4.01651,-0.80072 7.32953,-1.35913 10.0074,-1.62621 2.67758,-0.53377 6.38456,-1.09218 11.07072,-1.62622 4.68589,-0.80071 8.16466,-1.29658 10.50778,-1.56366 2.6776,-0.26682 6.55019,-0.65435 11.57108,-1.1884 5.35533,-0.53376 8.99975,-0.98384 11.00816,-1.25093 2.3429,-3.73717 3.56497,-9.17942 3.56514,-16.38724 -1.7e-4,-7.20751 -1.05664,-11.766355 -3.06476,-13.635187 -1.67376,-2.135436 -4.98685,-3.189705 -10.00742,-3.189886 z"
           style="fill:#761407;fill-opacity:1;stroke:none"
           inkscape:connector-curvature="0" />
        <g
           id="g4189">
          <rect
             y="208.56573"
             x="15.814789"
             height="115.37119"
             width="300.93765"
             id="rect3011"
             style="fill:#ffffff;fill-opacity:1;fill-rule:evenodd;stroke:#000000;stroke-width:6.82698774;stroke-linecap:butt;stroke-linejoin:round;stroke-miterlimit:4;stroke-dasharray:none;stroke-opacity:1" />
          <g
             transform="scale(0.92315902,1.083237)"
             style="font-style:normal;font-variant:normal;font-weight:bold;font-stretch:normal;font-size:140.83100891px;line-height:125%;font-family:'Ubuntu Mono';-inkscape-font-specification:'Ubuntu Mono Bold';text-align:start;letter-spacing:0px;word-spacing:0px;writing-mode:lr-tb;text-anchor:start;fill:#00bc00;fill-opacity:1;stroke:none"
             id="text3781">
            <g
               id="g3386">
              <path
                 sodipodi:nodetypes="csccccsscccsssccccccccccsccccsccsssccccccscccccssccccccscccccccccsccsccccccscccsccscccccccccccsccccsssccscssscccssscccccsccccccccssccccscscsccssscccccccsccsssccsccccsccsccsscccsscsscccccscccscccscssccccccccscsccsscc"
                 inkscape:connector-curvature="0"
                 id="text3781-1"
                 d="m 94.525212,209.68009 c -4.993795,0 -9.575574,0.64044 -13.732396,1.93945 -4.131299,1.29103 -7.582143,3.05192 -10.320294,5.32032 -2.644868,2.12994 -4.947777,4.4942 -6.894517,7.08986 l -0.002,0.002 -0.002,0.004 c -1.934945,2.60218 -3.550398,5.92271 -4.896476,9.96095 -1.354217,4.06267 -2.041011,8.02979 -2.041011,11.88675 0,10.01876 3.601617,18.43338 10.687479,24.86918 l 0.002,0.002 0.002,0.002 c 7.117443,6.40573 15.741053,9.6465 25.607374,9.6465 9.942619,0 18.583369,-3.41282 25.636679,-10.14259 7.08242,-6.75758 10.66013,-15.59482 10.66013,-26.1563 0,-10.60296 -3.37849,-19.14782 -10.12694,-25.24224 -6.62881,-6.10464 -14.91551,-9.18165 -24.580028,-9.18165 z m 137.025128,0.37304 c -0.96989,0 -1.82531,0.11071 -2.6035,0.45118 -0.77821,0.34046 -1.48195,1.00532 -1.7793,1.83789 l -0.006,0.0156 -0.004,0.0137 c -0.19911,0.59734 -0.33906,1.11489 -0.42187,1.59962 -0.13638,0.69457 -0.0898,1.29926 -0.0254,2.33008 0.0583,0.93365 0.0898,2.48047 0.0898,4.5879 0,1.98502 -0.15479,10.29828 -0.4668,24.77544 l 0,0.0215 0.0937,11.53713 -0.1875,16.6426 0,0.008 c 0,1.8776 -0.0389,2.98655 0.5293,4.12305 0.3006,0.60121 0.86205,1.04599 1.42578,1.27149 0.56374,0.22549 1.14353,0.29101 1.76562,0.29101 1.6718,0 3.09357,-0.26802 4.2207,-1.0664 1.12712,-0.79838 1.74608,-2.18209 1.74608,-3.58986 l 0,-2.33203 0.28125,-26.87505 -0.18164,-15.86526 c 0.14833,0.16738 0.29706,0.3315 0.50391,0.62109 l 0.0312,0.0449 0.0352,0.043 c 0.26172,0.31408 0.69718,0.76734 1.49804,1.59961 0.80087,0.83227 1.91846,1.98097 3.35546,3.44923 l 0.01,0.01 0.0117,0.0117 c 2.89355,2.83198 12.27455,12.33758 28.06245,28.43755 l 9.55466,9.74025 0.004,0.004 c 0.2062,0.2062 0.64362,0.6736 1.26172,1.35351 0.63455,0.698 1.17895,1.27466 1.64062,1.73633 l 0.0391,0.041 0.043,0.0352 c 0.40613,0.34813 1.05702,0.93535 1.92382,1.74025 l 0.0391,0.0371 0.043,0.0332 c 1.13576,0.9086 2.45524,1.44726 3.82226,1.44726 1.79604,0 3.44785,-0.44687 4.26953,-1.85546 l 0.0117,-0.0215 0.0117,-0.0215 c 0.73604,-1.36696 0.83202,-3.07787 0.83202,-5.66017 l 0.0937,-3.80274 -0.002,0.01 c 0.24979,-8.24312 0.3747,-16.51909 0.375,-24.82427 l 0,-0.0293 0.5625,-29.28521 0,-0.0137 c 0,-0.67322 -0.0291,-1.23481 -0.11328,-1.74025 -0.0809,-0.48564 -0.16637,-0.95655 -0.66602,-1.48828 -0.55472,-0.63271 -1.41878,-0.96094 -2.19335,-0.96094 -0.46459,0 -0.98084,0.0626 -1.88672,0.17383 -0.90587,0.11125 -2.12168,0.27687 -3.65624,0.4961 l -1.24219,0.17773 -0.0234,1.25391 c -0.24971,13.73416 -0.375,23.97421 -0.375,30.73248 l -0.0937,11.78908 0,0.006 c 0,2.18252 -0.16717,3.79866 -0.28907,5.56837 -1.94541,-2.01012 -5.5702,-5.70529 -14.40622,-14.64846 l -0.006,-0.006 c -5.11504,-5.2398 -9.07949,-9.28071 -11.89061,-12.12307 -2.81248,-2.84374 -4.37749,-4.41114 -5.0371,-4.9883 l 0.0371,0.0332 c -0.93444,-0.87604 -3.13481,-3.10393 -6.49999,-6.59376 -3.3567,-3.48105 -6.34,-6.42943 -8.97264,-8.87698 -0.97524,-1.04025 -1.8358,-1.84489 -2.64256,-2.43164 -0.80677,-0.58674 -1.55435,-1.03125 -2.55274,-1.03125 z m -91.7088,0.75 c -2.52157,0 -4.5854,0.50241 -5.70898,2.13672 l -0.0176,0.0254 -0.0176,0.0274 c -0.99714,1.59543 -1.16016,3.77555 -1.16016,7.05471 l -0.0937,7.19727 0,0.01 0,46.61923 c 0,1.62062 0.12938,2.87122 0.77148,3.94141 l 0.0176,0.0293 0.0195,0.0293 c 0.52267,0.78399 1.28513,1.06486 2.05859,1.24804 0.77346,0.18319 1.65894,0.25196 2.72656,0.25196 2.22736,0 4.12283,-0.5256 5.32616,-1.91407 1.41649,-1.63443 1.57616,-4.03577 1.57616,-7.70509 l 0,-0.006 -0.27928,-36.32039 0,-11.13478 c 0,-0.80016 0.11031,-1.18276 0.10936,-1.23633 6.63284,0.0117 11.43357,1.28174 14.47459,3.56251 3.05508,2.29132 4.55858,5.58321 4.55858,10.40432 0,3.77454 -1.14919,6.77509 -3.5078,9.28907 -2.35862,2.51399 -6.0116,4.53688 -11.05076,5.95509 l -0.90039,0.2539 -0.1543,0.92384 c -0.139,0.83404 -0.20703,1.69514 -0.20703,2.58203 0,1.04575 0.38859,2.13814 1.21289,2.82033 0.8243,0.68218 1.86833,0.90039 2.97656,0.90039 4.31351,0 8.22774,-1.14862 11.59373,-3.43751 3.31654,-2.21281 5.99157,-4.81357 7.98044,-7.79689 l 0.01,-0.0137 0.008,-0.0137 c 0.98024,-1.54039 1.82028,-3.54759 2.5918,-6.05079 0.84483,-2.53876 1.28906,-4.86778 1.28906,-7.00393 0,-9.41564 -5.03508,-16.34853 -14.41013,-19.99809 l -0.006,-0.002 c -4.61016,-1.82897 -11.78454,-2.62891 -21.78706,-2.62891 z m 60.82605,0 -13.19529,0.1875 c -1.60441,0 -2.89206,0.0665 -3.92382,0.22657 -1.01576,0.15762 -1.8239,0.26926 -2.5703,1.08398 -0.64388,0.66453 -0.70475,1.27251 -0.81446,2.00392 -0.11179,0.74526 -0.15625,1.6418 -0.15625,2.74609 l 0,0.01 0.0937,7.01173 -0.0937,7.56642 -0.28125,33.4278 0,0.008 c 0,3.79193 0.0611,6.70397 0.18946,8.77346 0.0642,1.03474 0.14395,1.85339 0.25195,2.50586 0.054,0.32623 0.11326,0.61081 0.20117,0.88868 0.0879,0.27785 0.14823,0.55838 0.53906,0.94922 l 0.0645,0.0645 0.0723,0.0566 c 0.8447,0.65698 1.5619,0.67355 2.63671,0.79297 1.07481,0.11942 2.44916,0.17383 4.16601,0.17383 l 17.13083,0 c 4.65927,0 8.24286,-0.0477 10.77341,-0.14258 1.26528,-0.0474 2.26518,-0.10626 3.02735,-0.18164 0.38107,-0.0377 0.70055,-0.0778 0.98631,-0.13086 0.28577,-0.0531 0.50365,-0.0728 0.89649,-0.28711 l 0.0937,-0.0508 0.084,-0.0644 c 0.47907,-0.3593 0.52391,-0.58287 0.65039,-0.83008 0.12649,-0.24722 0.23839,-0.51423 0.35938,-0.834 0.24198,-0.63952 0.51414,-1.48167 0.83203,-2.5625 l -0.0606,0.16407 c 0.59171,-1.38065 0.96289,-2.33567 0.96289,-3.38869 0,-0.68054 -0.39641,-1.52013 -1.00781,-1.92773 -0.6114,-0.4076 -1.23925,-0.48242 -1.87109,-0.48242 l -0.13867,0 -3.98046,0.75781 c -1.56451,0.17254 -4.31094,0.27148 -8.14451,0.27148 -5.60033,0 -9.84259,-0.094 -12.68358,-0.27734 -1.4205,-0.0917 -2.49684,-0.20841 -3.166,-0.33008 -0.12069,-0.0219 -0.14032,-0.0352 -0.23242,-0.0566 -0.0236,-0.26705 -0.0479,-0.56808 -0.0664,-1.01172 -0.0453,-1.08591 -0.0703,-2.6646 -0.0703,-4.7129 l 0,-5.23243 0.0937,-7.584 0,-0.008 c 0,-0.68534 0.0352,-1.8 0.0625,-2.82617 l 19.24214,0.0879 0.004,0 c 1.86066,0 3.01117,-0.02 4.02343,-0.35742 1.29193,-0.43064 1.90012,-1.53363 2.40429,-2.83009 l 0.006,-0.0117 0.004,-0.0137 c 0.48036,-1.30382 0.74609,-2.52599 0.74609,-3.6914 0,-0.49332 -0.21996,-0.99068 -0.49414,-1.31056 -0.27418,-0.31988 -0.57839,-0.51186 -0.88281,-0.66406 -0.60883,-0.30442 -1.27407,-0.46561 -2.10156,-0.60352 -1.65497,-0.27583 -3.94589,-0.39453 -6.9824,-0.39453 l -1.59571,0 -14.51559,0.0859 c 0.008,-7.27788 0.0613,-12.9034 0.16015,-16.78324 2.4304,-0.33447 6.08395,-0.57403 11.82615,-0.57422 l 11.50974,0.1875 0.0117,0 c 0.61717,0 1.15526,-0.0434 1.6875,-0.20312 0.51282,-0.15385 1.09752,-0.49539 1.44727,-1.13086 0.20409,-0.3371 0.35222,-0.74246 0.37108,-1.1797 0.0591,-0.30585 0.12109,-0.6029 0.12109,-0.92578 0,-0.36666 0.028,-0.65166 0.0645,-0.83398 l 0.004,-0.0234 0.39844,-2.39063 0,-0.12304 c 0,-0.77787 -0.40356,-1.43327 -0.86913,-1.91603 -0.41426,-0.46086 -0.78984,-0.5798 -1.14063,-0.68164 -0.36953,-0.10728 -0.757,-0.17005 -1.21289,-0.22265 -0.90929,-0.10492 -2.08404,-0.15015 -3.57616,-0.1504 l -0.01,0 -12.36131,-0.0937 z M 95.55646,220.0219 c 6.05116,0 11.14511,2.25163 15.59372,6.93751 l 0.006,0.006 0.008,0.008 c 4.47493,4.59271 6.6953,10.38569 6.69531,17.69339 0,7.30368 -2.25194,13.2011 -6.80273,17.98832 -4.46951,4.70476 -10.20392,7.0293 -17.560513,7.0293 -7.291226,0 -12.887014,-2.29 -17.164031,-6.91407 l -0.002,-0.002 c -4.227237,-4.63932 -6.353504,-10.64295 -6.353504,-18.2891 0,-7.61245 2.358671,-13.42935 7.109363,-17.82816 4.773235,-4.41968 10.835034,-6.62892 18.470668,-6.62892 z"
                 style="color:#000000;font-style:normal;font-variant:normal;font-weight:bold;font-stretch:normal;font-size:128.3401947px;line-height:125%;font-family:'Ubuntu Mono';-inkscape-font-specification:'Ubuntu Mono Bold';text-indent:0;text-align:start;text-decoration:none;text-decoration-line:none;text-decoration-style:solid;text-decoration-color:#000000;letter-spacing:-6.78166246px;word-spacing:0px;text-transform:none;direction:ltr;block-progression:tb;writing-mode:lr-tb;baseline-shift:baseline;text-anchor:start;white-space:normal;clip-rule:nonzero;display:inline;overflow:visible;visibility:visible;opacity:1;isolation:auto;mix-blend-mode:normal;color-interpolation:sRGB;color-interpolation-filters:linearRGB;solid-color:#000000;solid-opacity:1;fill:#00bc00;fill-opacity:1;fill-rule:nonzero;stroke:none;stroke-width:2.94803143;stroke-linecap:butt;stroke-linejoin:miter;stroke-miterlimit:4;stroke-dasharray:none;stroke-dashoffset:0;stroke-opacity:1;color-rendering:auto;image-rendering:auto;shape-rendering:auto;text-rendering:auto;enable-background:accumulate" />
            </g>
          </g>
        </g>
        <path
           sodipodi:nodetypes="cc"
           inkscape:connector-curvature="0"
           id="path3792"
           d="M 14.969756,207.98848 C 151.6415,96.075178 167.75741,109.81062 167.75741,109.81062"
           style="fill:none;stroke:#000000;stroke-width:5.34946203;stroke-linecap:butt;stroke-linejoin:miter;stroke-miterlimit:4;stroke-dasharray:none;stroke-opacity:1" />
      </g>
    </g>
  </g>
</svg>
