  0
SECTION
  2
HEADER
  9
$ACADVER
  1
AC1014
  9
$HANDSEED
  5
FFFF
  9
$MEASUREMENT
 70
     1
  0
ENDSEC
  0
SECTION
  2
TABLES
  0
TABLE
  2
VPORT
  5
8
330
0
100
AcDbSymbolTable
 70
     4
  0
VPORT
  5
2E
330
8
100
AcDbSymbolTableRecord
100
AcDbViewportTableRecord
  2
*ACTIVE
 70
     0
 10
0.0
 20
0.0
 11
1.0
 21
1.0
 12
210.0
 22
148.5
 13
0.0
 23
0.0
 14
10.0
 24
10.0
 15
10.0
 25
10.0
 16
0.0
 26
0.0
 36
1.0
 17
0.0
 27
0.0
 37
0.0
 40
341.0
 41
1.24
 42
50.0
 43
0.0
 44
0.0
 50
0.0
 51
0.0
 71
     0
 72
   100
 73
     1
 74
     3
 75
     0
 76
     0
 77
     0
 78
     0
  0
ENDTAB
  0
TABLE
  2
LTYPE
  5
5
330
0
100
AcDbSymbolTable
 70
     1
  0
LTYPE
  5
14
330
5
100
AcDbSymbolTableRecord
100
AcDbLinetypeTableRecord
  2
BYBLOCK
 70
     0
  3

 72
    65
 73
     0
 40
0.0
  0
LTYPE
  5
15
330
5
100
AcDbSymbolTableRecord
100
AcDbLinetypeTableRecord
  2
BYLAYER
 70
     0
  3

 72
    65
 73
     0
 40
0.0
  0
LTYPE
  5
16
330
5
100
AcDbSymbolTableRecord
100
AcDbLinetypeTableRecord
  2
CONTINUOUS
 70
     0
  3
Solid line
 72
    65
 73
     0
 40
0.0
  0
ENDTAB
  0
TABLE
  2
LAYER
  5
2
100
AcDbSymbolTable
 70
1
  0
LAYER
  5
50
100
AcDbSymbolTableRecord
100
AcDbLayerTableRecord
  2
0
 70
0
  6
CONTINUOUS
  0
ENDTAB
  0
TABLE
  2
STYLE
  5
3
330
0
100
AcDbSymbolTable
 70
     1
  0
STYLE
  5
11
330
3
100
AcDbSymbolTableRecord
100
AcDbTextStyleTableRecord
  2
STANDARD
 70
     0
 40
0.0
 41
1.0
 50
0.0
 71
     0
 42
2.5
  3
txt
  4

  0
ENDTAB
  0
TABLE
  2
VIEW
  5
6
330
0
100
AcDbSymbolTable
 70
     0
  0
ENDTAB
  0
TABLE
  2
UCS
  5
7
330
0
100
AcDbSymbolTable
 70
     0
  0
ENDTAB
  0
TABLE
  2
APPID
  5
9
330
0
100
AcDbSymbolTable
 70
     2
  0
APPID
  5
12
330
9
100
AcDbSymbolTableRecord
100
AcDbRegAppTableRecord
  2
ACAD
 70
     0
  0
ENDTAB
  0
TABLE
  2
DIMSTYLE
  5
A
330
0
100
AcDbSymbolTable
 70
     1
  0
DIMSTYLE
105
27
330
A
100
AcDbSymbolTableRecord
100
AcDbDimStyleTableRecord
  2
ISO-25
 70
     0
  3

  4

  5

  6

  7

 40
1.0
 41
2.5
 42
0.625
 43
3.75
 44
1.25
 45
0.0
 46
0.0
 47
0.0
 48
0.0
140
2.5
141
2.5
142
0.0
143
0.03937007874016
144
1.0
145
0.0
146
1.0
147
0.625
 71
     0
 72
     0
 73
     0
 74
     0
 75
     0
 76
     0
 77
     1
 78
     8
170
     0
171
     3
172
     1
173
     0
174
     0
175
     0
176
     0
177
     0
178
     0
270
     2
271
     2
272
     2
273
     2
274
     3
340
11
275
     0
280
     0
281
     0
282
     0
283
     0
284
     8
285
     0
286
     0
287
     3
288
     0
  0
ENDTAB
  0
TABLE
  2
BLOCK_RECORD
  5
1
330
0
100
AcDbSymbolTable
 70
     1
  0
BLOCK_RECORD
  5
1F
330
1
100
AcDbSymbolTableRecord
100
AcDbBlockTableRecord
  2
*MODEL_SPACE
  0
BLOCK_RECORD
  5
1B
330
1
100
AcDbSymbolTableRecord
100
AcDbBlockTableRecord
  2
*PAPER_SPACE
  0
ENDTAB
  0
ENDSEC
  0
SECTION
  2
BLOCKS
  0
BLOCK
  5
20
330
1F
100
AcDbEntity
  8
0
100
AcDbBlockBegin
  2
*MODEL_SPACE
 70
     0
 10
0.0
 20
0.0
 30
0.0
  3
*MODEL_SPACE
  1

  0
ENDBLK
  5
21
330
1F
100
AcDbEntity
  8
0
100
AcDbBlockEnd
  0
BLOCK
  5
1C
330
1B
100
AcDbEntity
 67
     1
  8
0
100
AcDbBlockBegin
  2
*PAPER_SPACE
  1

  0
ENDBLK
  5
1D
330
1B
100
AcDbEntity
 67
     1
  8
0
100
AcDbBlockEnd
  0
ENDSEC
  0
SECTION
  2
ENTITIES
  0
LINE
  5
100
100
AcDbEntity
  8
0
 62
7
100
AcDbLine
 10
41.957467
 20
45.643668
 30
0.0
 11
36.570979
 21
40.257182
 31
0.0
  0
LINE
  5
101
100
AcDbEntity
  8
0
 62
7
100
AcDbLine
 10
37.016329
 20
39.904286
 30
0.0
 11
42.463418
 21
45.351376
 31
0.0
  0
LINE
  5
102
100
AcDbEntity
  8
0
 62
7
100
AcDbLine
 10
43.452226
 20
45.541938
 30
0.0
 11
37.459068
 21
39.548780
 31
0.0
  0
LINE
  5
103
100
AcDbEntity
  8
0
 62
7
100
AcDbLine
 10
37.898699
 20
39.190166
 30
0.0
 11
44.008870
 21
45.300336
 31
0.0
  0
LINE
  5
104
100
AcDbEntity
  8
0
 62
7
100
AcDbLine
 10
43.715796
 20
44.209018
 30
0.0
 11
38.311669
 21
38.804891
 31
0.0
  0
LINE
  5
105
100
AcDbEntity
  8
0
 62
7
100
AcDbLine
 10
38.724611
 20
38.419588
 30
0.0
 11
43.240446
 21
42.935423
 31
0.0
  0
LINE
  5
106
100
AcDbEntity
  8
0
 62
7
100
AcDbLine
 10
43.750171
 20
42.646903
 30
0.0
 11
39.107722
 21
38.004455
 31
0.0
  0
LINE
  5
107
100
AcDbEntity
  8
0
 62
7
100
AcDbLine
 10
39.490836
 20
37.589322
 30
0.0
 11
44.200933
 21
42.299422
 31
0.0
  0
LINE
  5
108
100
AcDbEntity
  8
0
 62
7
100
AcDbLine
 10
44.351891
 20
41.652134
 30
0.0
 11
43.041872
 21
40.342116
 31
0.0
  0
LINE
  5
109
100
AcDbEntity
  8
0
 62
7
100
AcDbLine
 10
39.834402
 20
37.134644
 30
0.0
 11
42.176590
 21
39.476834
 31
0.0
  0
LINE
  5
10a
100
AcDbEntity
  8
0
 62
7
100
AcDbLine
 10
42.619851
 20
39.121847
 30
0.0
 11
40.173865
 21
36.675861
 31
0.0
  0
LINE
  5
10b
100
AcDbEntity
  8
0
 62
7
100
AcDbLine
 10
40.513325
 20
36.217078
 30
0.0
 11
43.467782
 21
39.171535
 31
0.0
  0
LINE
  5
10c
100
AcDbEntity
  8
0
 62
7
100
AcDbLine
 10
44.622813
 20
39.528321
 30
0.0
 11
40.852787
 21
35.758294
 31
0.0
  0
LINE
  5
10d
100
AcDbEntity
  8
0
 62
7
100
AcDbLine
 10
10.813321
 20
43.236343
 30
0.0
 11
8.828577
 21
41.251599
 31
0.0
  0
LINE
  5
10e
100
AcDbEntity
  8
0
 62
7
100
AcDbLine
 10
6.473813
 20
38.098589
 30
0.0
 11
13.904129
 21
45.528905
 31
0.0
  0
LINE
  5
10f
100
AcDbEntity
  8
0
 62
7
100
AcDbLine
 10
15.720016
 20
46.546548
 30
0.0
 11
5.454677
 21
36.281209
 31
0.0
  0
LINE
  5
110
100
AcDbEntity
  8
0
 62
7
100
AcDbLine
 10
4.748452
 20
34.776738
 30
0.0
 11
17.214213
 21
47.242499
 31
0.0
  0
LINE
  5
111
100
AcDbEntity
  8
0
 62
7
100
AcDbLine
 10
18.495970
 20
47.726012
 30
0.0
 11
4.293236
 21
33.523278
 31
0.0
  0
LINE
  5
112
100
AcDbEntity
  8
0
 62
7
100
AcDbLine
 10
3.912926
 20
32.344724
 30
0.0
 11
19.654992
 21
48.086789
 31
0.0
  0
LINE
  5
113
100
AcDbEntity
  8
0
 62
7
100
AcDbLine
 10
20.746380
 20
48.379932
 30
0.0
 11
3.639352
 21
31.272903
 31
0.0
  0
LINE
  5
114
100
AcDbEntity
  8
0
 62
7
100
AcDbLine
 10
3.414349
 20
30.249656
 30
0.0
 11
21.749426
 21
48.584733
 31
0.0
  0
LINE
  5
115
100
AcDbEntity
  8
0
 62
7
100
AcDbLine
 10
22.704802
 20
48.741864
 30
0.0
 11
3.271766
 21
29.308827
 31
0.0
  0
LINE
  5
116
100
AcDbEntity
  8
0
 62
7
100
AcDbLine
 10
3.129182
 20
28.367999
 30
0.0
 11
23.630419
 21
48.869236
 31
0.0
  0
LINE
  5
117
100
AcDbEntity
  8
0
 62
7
100
AcDbLine
 10
24.482214
 20
48.922786
 30
0.0
 11
16.403771
 21
40.844343
 31
0.0
  0
LINE
  5
118
100
AcDbEntity
  8
0
 62
7
100
AcDbLine
 10
18.282035
 20
41.924361
 30
0.0
 11
25.334010
 21
48.976337
 31
0.0
  0
LINE
  5
119
100
AcDbEntity
  8
0
 62
7
100
AcDbLine
 10
26.155920
 20
49.000001
 30
0.0
 11
19.718517
 21
42.562599
 31
0.0
  0
LINE
  5
11a
100
AcDbEntity
  8
0
 62
7
100
AcDbLine
 10
20.936115
 20
42.981951
 30
0.0
 11
26.954164
 21
49.000001
 31
0.0
  0
LINE
  5
11b
100
AcDbEntity
  8
0
 62
7
100
AcDbLine
 10
27.752409
 20
49.000001
 30
0.0
 11
22.027253
 21
43.274844
 31
0.0
  0
LINE
  5
11c
100
AcDbEntity
  8
0
 62
7
100
AcDbLine
 10
23.038350
 20
43.487697
 30
0.0
 11
28.550656
 21
49.000001
 31
0.0
  0
LINE
  5
11d
100
AcDbEntity
  8
0
 62
7
100
AcDbLine
 10
29.348898
 20
49.000001
 30
0.0
 11
23.972379
 21
43.623481
 31
0.0
  0
LINE
  5
11e
100
AcDbEntity
  8
0
 62
7
100
AcDbLine
 10
24.838137
 20
43.690994
 30
0.0
 11
30.147144
 21
49.000001
 31
0.0
  0
LINE
  5
11f
100
AcDbEntity
  8
0
 62
7
100
AcDbLine
 10
30.945390
 20
49.000001
 30
0.0
 11
25.680060
 21
43.734672
 31
0.0
  0
LINE
  5
120
100
AcDbEntity
  8
0
 62
7
100
AcDbLine
 10
26.463712
 20
43.720078
 30
0.0
 11
31.743633
 21
49.000000
 31
0.0
  0
LINE
  5
121
100
AcDbEntity
  8
0
 62
7
100
AcDbLine
 10
32.541879
 20
49.000000
 30
0.0
 11
27.220331
 21
43.678452
 31
0.0
  0
LINE
  5
122
100
AcDbEntity
  8
0
 62
7
100
AcDbLine
 10
27.956966
 20
43.616842
 30
0.0
 11
33.340125
 21
49.000000
 31
0.0
  0
LINE
  5
123
100
AcDbEntity
  8
0
 62
7
100
AcDbLine
 10
34.138370
 20
49.000000
 30
0.0
 11
28.652603
 21
43.514232
 31
0.0
  0
LINE
  5
124
100
AcDbEntity
  8
0
 62
7
100
AcDbLine
 10
29.345738
 20
43.409123
 30
0.0
 11
34.936613
 21
49.000000
 31
0.0
  0
LINE
  5
125
100
AcDbEntity
  8
0
 62
7
100
AcDbLine
 10
35.734859
 20
49.000000
 30
0.0
 11
29.989249
 21
43.254391
 31
0.0
  0
LINE
  5
126
100
AcDbEntity
  8
0
 62
7
100
AcDbLine
 10
30.632764
 20
43.099659
 30
0.0
 11
36.533105
 21
49.000000
 31
0.0
  0
LINE
  5
127
100
AcDbEntity
  8
0
 62
7
100
AcDbLine
 10
37.331348
 20
49.000000
 30
0.0
 11
31.247467
 21
42.916117
 31
0.0
  0
LINE
  5
128
100
AcDbEntity
  8
0
 62
7
100
AcDbLine
 10
31.844971
 20
42.715376
 30
0.0
 11
38.129594
 21
49.000000
 31
0.0
  0
LINE
  5
129
100
AcDbEntity
  8
0
 62
7
100
AcDbLine
 10
38.927840
 20
49.000000
 30
0.0
 11
32.439012
 21
42.511173
 31
0.0
  0
LINE
  5
12a
100
AcDbEntity
  8
0
 62
7
100
AcDbLine
 10
32.994704
 20
42.268619
 30
0.0
 11
39.726085
 21
49.000000
 31
0.0
  0
LINE
  5
12b
100
AcDbEntity
  8
0
 62
7
100
AcDbLine
 10
40.524328
 20
49.000000
 30
0.0
 11
33.550394
 21
42.026066
 31
0.0
  0
LINE
  5
12c
100
AcDbEntity
  8
0
 62
7
100
AcDbLine
 10
34.088979
 20
41.766404
 30
0.0
 11
41.322574
 21
49.000000
 31
0.0
  0
LINE
  5
12d
100
AcDbEntity
  8
0
 62
7
100
AcDbLine
 10
42.120820
 20
49.000000
 30
0.0
 11
34.605646
 21
41.484826
 31
0.0
  0
LINE
  5
12e
100
AcDbEntity
  8
0
 62
7
100
AcDbLine
 10
35.122313
 20
41.203248
 30
0.0
 11
42.919063
 21
49.000000
 31
0.0
  0
LINE
  5
12f
100
AcDbEntity
  8
0
 62
7
100
AcDbLine
 10
43.717309
 20
49.000000
 30
0.0
 11
35.612332
 21
40.895024
 31
0.0
  0
LINE
  5
130
100
AcDbEntity
  8
0
 62
7
100
AcDbLine
 10
36.091656
 20
40.576103
 30
0.0
 11
44.501235
 21
48.985682
 31
0.0
  0
LINE
  5
131
100
AcDbEntity
  8
0
 62
7
100
AcDbLine
 10
45.222473
 20
48.908673
 30
0.0
 11
43.021402
 21
46.707604
 31
0.0
  0
LINE
  5
132
100
AcDbEntity
  8
0
 62
7
100
AcDbLine
 10
43.864395
 20
46.752351
 30
0.0
 11
45.841155
 21
48.729112
 31
0.0
  0
LINE
  5
133
100
AcDbEntity
  8
0
 62
7
100
AcDbLine
 10
46.405109
 20
48.494819
 30
0.0
 11
44.541832
 21
46.631545
 31
0.0
  0
LINE
  5
134
100
AcDbEntity
  8
0
 62
7
100
AcDbLine
 10
45.082068
 20
46.373533
 30
0.0
 11
46.922842
 21
48.214309
 31
0.0
  0
LINE
  5
135
100
AcDbEntity
  8
0
 62
7
100
AcDbLine
 10
47.363518
 20
47.856739
 30
0.0
 11
45.461530
 21
45.954752
 31
0.0
  0
LINE
  5
136
100
AcDbEntity
  8
0
 62
7
100
AcDbLine
 10
45.641881
 20
45.336856
 30
0.0
 11
47.770638
 21
47.465613
 31
0.0
  0
LINE
  5
137
100
AcDbEntity
  8
0
 62
7
100
AcDbLine
 10
48.134476
 20
47.031207
 30
0.0
 11
45.303299
 21
44.200030
 31
0.0
  0
LINE
  5
138
100
AcDbEntity
  8
0
 62
7
100
AcDbLine
 10
45.122417
 20
43.220904
 30
0.0
 11
48.430344
 21
46.528829
 31
0.0
  0
LINE
  5
139
100
AcDbEntity
  8
0
 62
7
100
AcDbLine
 10
48.684205
 20
45.984446
 30
0.0
 11
45.514853
 21
42.815094
 31
0.0
  0
LINE
  5
13a
100
AcDbEntity
  8
0
 62
7
100
AcDbLine
 10
45.797117
 20
42.299114
 30
0.0
 11
48.880663
 21
45.382658
 31
0.0
  0
LINE
  5
13b
100
AcDbEntity
  8
0
 62
7
100
AcDbLine
 10
48.973373
 20
44.677124
 30
0.0
 11
45.922441
 21
41.626191
 31
0.0
  0
LINE
  5
13c
100
AcDbEntity
  8
0
 62
7
100
AcDbLine
 10
45.699722
 20
40.605227
 30
0.0
 11
49.003983
 21
43.909489
 31
0.0
  0
LINE
  5
13d
100
AcDbEntity
  8
0
 62
7
100
AcDbLine
 10
49.003983
 20
43.111244
 30
0.0
 11
41.147472
 21
35.254733
 31
0.0
  0
LINE
  5
13e
100
AcDbEntity
  8
0
 62
7
100
AcDbLine
 10
41.428890
 20
34.737905
 30
0.0
 11
49.003983
 21
42.312999
 31
0.0
  0
LINE
  5
13f
100
AcDbEntity
  8
0
 62
7
100
AcDbLine
 10
49.003983
 20
41.514754
 30
0.0
 11
41.710305
 21
34.221077
 31
0.0
  0
LINE
  5
140
100
AcDbEntity
  8
0
 62
7
100
AcDbLine
 10
41.991723
 20
33.704249
 30
0.0
 11
49.003983
 21
40.716509
 31
0.0
  0
LINE
  5
141
100
AcDbEntity
  8
0
 62
7
100
AcDbLine
 10
49.003983
 20
39.918264
 30
0.0
 11
42.227370
 21
33.141651
 31
0.0
  0
LINE
  5
142
100
AcDbEntity
  8
0
 62
7
100
AcDbLine
 10
42.448632
 20
32.564667
 30
0.0
 11
49.003983
 21
39.120019
 31
0.0
  0
LINE
  5
143
100
AcDbEntity
  8
0
 62
7
100
AcDbLine
 10
49.003983
 20
38.321774
 30
0.0
 11
42.669892
 21
31.987683
 31
0.0
  0
LINE
  5
144
100
AcDbEntity
  8
0
 62
7
100
AcDbLine
 10
42.891154
 20
31.410700
 30
0.0
 11
49.003983
 21
37.523529
 31
0.0
  0
LINE
  5
145
100
AcDbEntity
  8
0
 62
7
100
AcDbLine
 10
49.003983
 20
36.725284
 30
0.0
 11
43.051112
 21
30.772412
 31
0.0
  0
LINE
  5
146
100
AcDbEntity
  8
0
 62
7
100
AcDbLine
 10
43.206757
 20
30.129814
 30
0.0
 11
49.003983
 21
35.927039
 31
0.0
  0
LINE
  5
147
100
AcDbEntity
  8
0
 62
7
100
AcDbLine
 10
49.003983
 20
35.128794
 30
0.0
 11
43.362403
 21
29.487215
 31
0.0
  0
LINE
  5
148
100
AcDbEntity
  8
0
 62
7
100
AcDbLine
 10
43.491356
 20
28.817922
 30
0.0
 11
49.003983
 21
34.330549
 31
0.0
  0
LINE
  5
149
100
AcDbEntity
  8
0
 62
7
100
AcDbLine
 10
49.003983
 20
33.532304
 30
0.0
 11
43.571106
 21
28.099427
 31
0.0
  0
LINE
  5
14a
100
AcDbEntity
  8
0
 62
7
100
AcDbLine
 10
43.650857
 20
27.380933
 30
0.0
 11
49.003983
 21
32.734060
 31
0.0
  0
LINE
  5
14b
100
AcDbEntity
  8
0
 62
7
100
AcDbLine
 10
49.003983
 20
31.935814
 30
0.0
 11
43.723724
 21
26.655554
 31
0.0
  0
LINE
  5
14c
100
AcDbEntity
  8
0
 62
7
100
AcDbLine
 10
43.709387
 20
25.842978
 30
0.0
 11
49.003977
 21
31.137569
 31
0.0
  0
LINE
  5
14d
100
AcDbEntity
  8
0
 62
7
100
AcDbLine
 10
49.003977
 20
30.339324
 30
0.0
 11
43.695053
 21
25.030401
 31
0.0
  0
LINE
  5
14e
100
AcDbEntity
  8
0
 62
7
100
AcDbLine
 10
43.660568
 20
24.197671
 30
0.0
 11
49.003977
 21
29.541079
 31
0.0
  0
LINE
  5
14f
100
AcDbEntity
  8
0
 62
7
100
AcDbLine
 10
49.003977
 20
28.742834
 30
0.0
 11
43.519192
 21
23.258052
 31
0.0
  0
LINE
  5
150
100
AcDbEntity
  8
0
 62
7
100
AcDbLine
 10
43.377815
 20
22.318430
 30
0.0
 11
49.003977
 21
27.944589
 31
0.0
  0
LINE
  5
151
100
AcDbEntity
  8
0
 62
7
100
AcDbLine
 10
49.003977
 20
27.146344
 30
0.0
 11
43.121529
 21
21.263898
 31
0.0
  0
LINE
  5
152
100
AcDbEntity
  8
0
 62
7
100
AcDbLine
 10
42.808164
 20
20.152287
 30
0.0
 11
49.003977
 21
26.348099
 31
0.0
  0
LINE
  5
153
100
AcDbEntity
  8
0
 62
7
100
AcDbLine
 10
48.982980
 20
25.528863
 30
0.0
 11
42.257613
 21
18.803496
 31
0.0
  0
LINE
  5
154
100
AcDbEntity
  8
0
 62
7
100
AcDbLine
 10
41.420243
 20
17.167883
 30
0.0
 11
48.940483
 21
24.688122
 31
0.0
  0
LINE
  5
155
100
AcDbEntity
  8
0
 62
7
100
AcDbLine
 10
48.897989
 20
23.847380
 30
0.0
 11
39.431660
 21
14.381054
 31
0.0
  0
LINE
  5
156
100
AcDbEntity
  8
0
 62
7
100
AcDbLine
 10
29.077689
 20
3.228837
 30
0.0
 11
48.777957
 21
22.929105
 31
0.0
  0
LINE
  5
157
100
AcDbEntity
  8
0
 62
7
100
AcDbLine
 10
48.634040
 20
21.986946
 30
0.0
 11
30.019848
 21
3.372753
 31
0.0
  0
LINE
  5
158
100
AcDbEntity
  8
0
 62
7
100
AcDbLine
 10
31.007296
 20
3.561955
 30
0.0
 11
48.444839
 21
20.999498
 31
0.0
  0
LINE
  5
159
100
AcDbEntity
  8
0
 62
7
100
AcDbLine
 10
48.168278
 20
19.924691
 30
0.0
 11
32.082102
 21
3.838516
 31
0.0
  0
LINE
  5
15a
100
AcDbEntity
  8
0
 62
7
100
AcDbLine
 10
33.210675
 20
4.168843
 30
0.0
 11
47.837951
 21
18.796119
 31
0.0
  0
LINE
  5
15b
100
AcDbEntity
  8
0
 62
7
100
AcDbLine
 10
47.376698
 20
17.536623
 30
0.0
 11
34.470171
 21
4.630095
 31
0.0
  0
LINE
  5
15c
100
AcDbEntity
  8
0
 62
7
100
AcDbLine
 10
35.902302
 20
5.263981
 30
0.0
 11
46.742810
 21
16.104489
 31
0.0
  0
LINE
  5
15d
100
AcDbEntity
  8
0
 62
7
100
AcDbLine
 10
45.847635
 20
14.411068
 30
0.0
 11
37.595725
 21
6.159159
 31
0.0
  0
LINE
  5
15e
100
AcDbEntity
  8
0
 62
7
100
AcDbLine
 10
40.057194
 20
7.822384
 30
0.0
 11
44.184409
 21
11.949599
 31
0.0
  0
LINE
  5
15f
100
AcDbEntity
  8
0
 62
7
100
AcDbLine
 10
20.781447
 20
36.722944
 30
0.0
 11
19.255830
 21
35.197328
 31
0.0
  0
LINE
  5
160
100
AcDbEntity
  8
0
 62
7
100
AcDbLine
 10
19.148777
 20
34.292029
 30
0.0
 11
21.554398
 21
36.697651
 31
0.0
  0
LINE
  5
161
100
AcDbEntity
  8
0
 62
7
100
AcDbLine
 10
22.313777
 20
36.658785
 30
0.0
 11
19.124962
 21
33.469969
 31
0.0
  0
LINE
  5
162
100
AcDbEntity
  8
0
 62
7
100
AcDbLine
 10
19.113647
 20
32.660411
 30
0.0
 11
22.973176
 21
36.519940
 31
0.0
  0
LINE
  5
163
100
AcDbEntity
  8
0
 62
7
100
AcDbLine
 10
23.560477
 20
36.308996
 30
0.0
 11
19.102335
 21
31.850854
 31
0.0
  0
LINE
  5
164
100
AcDbEntity
  8
0
 62
7
100
AcDbLine
 10
19.093981
 20
31.044254
 30
0.0
 11
24.017450
 21
35.967723
 31
0.0
  0
LINE
  5
165
100
AcDbEntity
  8
0
 62
7
100
AcDbLine
 10
24.156636
 20
35.308664
 30
0.0
 11
19.096063
 21
30.248092
 31
0.0
  0
LINE
  5
166
100
AcDbEntity
  8
0
 62
7
100
AcDbLine
 10
19.098152
 20
29.451930
 30
0.0
 11
24.196274
 21
34.550051
 31
0.0
  0
LINE
  5
167
100
AcDbEntity
  8
0
 62
7
100
AcDbLine
 10
25.040885
 20
34.596418
 30
0.0
 11
19.100234
 21
28.655767
 31
0.0
  0
LINE
  5
168
100
AcDbEntity
  8
0
 62
7
100
AcDbLine
 10
19.102323
 20
27.859605
 30
0.0
 11
26.322061
 21
35.079343
 31
0.0
  0
LINE
  5
169
100
AcDbEntity
  8
0
 62
7
100
AcDbLine
 10
27.649786
 20
35.608823
 30
0.0
 11
19.104406
 21
27.063443
 31
0.0
  0
LINE
  5
16a
100
AcDbEntity
  8
0
 62
7
100
AcDbLine
 10
19.106494
 20
26.267280
 30
0.0
 11
28.941226
 21
36.102010
 31
0.0
  0
LINE
  5
16b
100
AcDbEntity
  8
0
 62
7
100
AcDbLine
 10
30.147957
 20
36.510498
 30
0.0
 11
19.108577
 21
25.471118
 31
0.0
  0
LINE
  5
16c
100
AcDbEntity
  8
0
 62
7
100
AcDbLine
 10
25.752678
 20
31.316990
 30
0.0
 11
31.255180
 21
36.819491
 31
0.0
  0
LINE
  5
16d
100
AcDbEntity
  8
0
 62
7
100
AcDbLine
 10
24.337605
 20
29.901917
 30
0.0
 11
19.110643
 21
24.674956
 31
0.0
  0
LINE
  5
16e
100
AcDbEntity
  8
0
 62
7
100
AcDbLine
 10
26.902892
 20
31.668960
 30
0.0
 11
32.240003
 21
37.006069
 31
0.0
  0
LINE
  5
16f
100
AcDbEntity
  8
0
 62
7
100
AcDbLine
 10
24.337605
 20
29.103672
 30
0.0
 11
19.112726
 21
23.878794
 31
0.0
  0
LINE
  5
170
100
AcDbEntity
  8
0
 62
7
100
AcDbLine
 10
27.913183
 20
31.881006
 30
0.0
 11
33.134035
 21
37.101857
 31
0.0
  0
LINE
  5
171
100
AcDbEntity
  8
0
 62
7
100
AcDbLine
 10
24.337605
 20
28.305428
 30
0.0
 11
19.114809
 21
23.082631
 31
0.0
  0
LINE
  5
172
100
AcDbEntity
  8
0
 62
7
100
AcDbLine
 10
28.867391
 20
32.036968
 30
0.0
 11
33.956247
 21
37.125824
 31
0.0
  0
LINE
  5
173
100
AcDbEntity
  8
0
 62
7
100
AcDbLine
 10
24.337605
 20
27.507183
 30
0.0
 11
19.116891
 21
22.286468
 31
0.0
  0
LINE
  5
174
100
AcDbEntity
  8
0
 62
7
100
AcDbLine
 10
29.808212
 20
32.179546
 30
0.0
 11
34.650474
 21
37.021808
 31
0.0
  0
LINE
  5
175
100
AcDbEntity
  8
0
 62
7
100
AcDbLine
 10
24.343492
 20
26.714825
 30
0.0
 11
19.118974
 21
21.490308
 31
0.0
  0
LINE
  5
176
100
AcDbEntity
  8
0
 62
7
100
AcDbLine
 10
30.741981
 20
32.315068
 30
0.0
 11
35.119330
 21
36.692417
 31
0.0
  0
LINE
  5
177
100
AcDbEntity
  8
0
 62
7
100
AcDbLine
 10
24.355096
 20
25.928184
 30
0.0
 11
19.121057
 21
20.694145
 31
0.0
  0
LINE
  5
178
100
AcDbEntity
  8
0
 62
7
100
AcDbLine
 10
31.683215
 20
32.458058
 30
0.0
 11
35.372689
 21
36.147531
 31
0.0
  0
LINE
  5
179
100
AcDbEntity
  8
0
 62
7
100
AcDbLine
 10
24.366699
 20
25.141542
 30
0.0
 11
19.123140
 21
19.897982
 31
0.0
  0
LINE
  5
17a
100
AcDbEntity
  8
0
 62
7
100
AcDbLine
 10
32.596102
 20
32.572701
 30
0.0
 11
35.444374
 21
35.420973
 31
0.0
  0
LINE
  5
17b
100
AcDbEntity
  8
0
 62
7
100
AcDbLine
 10
24.378303
 20
24.354901
 30
0.0
 11
19.135356
 21
19.111953
 31
0.0
  0
LINE
  5
17c
100
AcDbEntity
  8
0
 62
7
100
AcDbLine
 10
33.487033
 20
32.665385
 30
0.0
 11
35.452722
 21
34.631073
 31
0.0
  0
LINE
  5
17d
100
AcDbEntity
  8
0
 62
7
100
AcDbLine
 10
24.389907
 20
23.568259
 30
0.0
 11
19.144848
 21
18.323202
 31
0.0
  0
LINE
  5
17e
100
AcDbEntity
  8
0
 62
7
100
AcDbLine
 10
34.382123
 20
32.762232
 30
0.0
 11
35.371453
 21
33.751562
 31
0.0
  0
LINE
  5
17f
100
AcDbEntity
  8
0
 62
7
100
AcDbLine
 10
24.401510
 20
22.781618
 30
0.0
 11
19.154340
 21
17.534447
 31
0.0
  0
LINE
  5
180
100
AcDbEntity
  8
0
 62
7
100
AcDbLine
 10
19.197393
 20
16.779254
 30
0.0
 11
24.413114
 21
21.994978
 31
0.0
  0
LINE
  5
181
100
AcDbEntity
  8
0
 62
7
100
AcDbLine
 10
24.424719
 20
21.208334
 30
0.0
 11
19.242708
 21
16.026325
 31
0.0
  0
LINE
  5
182
100
AcDbEntity
  8
0
 62
7
100
AcDbLine
 10
19.352047
 20
15.337417
 30
0.0
 11
24.436322
 21
20.421693
 31
0.0
  0
LINE
  5
183
100
AcDbEntity
  8
0
 62
7
100
AcDbLine
 10
24.447924
 20
19.635052
 30
0.0
 11
19.508332
 21
14.695461
 31
0.0
  0
LINE
  5
184
100
AcDbEntity
  8
0
 62
7
100
AcDbLine
 10
19.892726
 20
14.281610
 30
0.0
 11
24.459528
 21
18.848411
 31
0.0
  0
LINE
  5
185
100
AcDbEntity
  8
0
 62
7
100
AcDbLine
 10
24.467966
 20
18.058604
 30
0.0
 11
20.535730
 21
14.126368
 31
0.0
  0
LINE
  5
186
100
AcDbEntity
  8
0
 62
7
100
AcDbLine
 10
21.281763
 20
14.074154
 30
0.0
 11
24.467966
 21
17.260358
 31
0.0
  0
LINE
  5
187
100
AcDbEntity
  8
0
 62
7
100
AcDbLine
 10
24.457883
 20
16.452032
 30
0.0
 11
22.100765
 21
14.094912
 31
0.0
  0
LINE
  5
188
100
AcDbEntity
  8
0
 62
7
100
AcDbLine
 10
23.008385
 20
14.204287
 30
0.0
 11
24.404493
 21
15.600395
 31
0.0
  0
LINE
  5
189
100
AcDbEntity
  8
0
 62
5
100
AcDbLine
 10
19.123861
 20
19.622093
 30
0.0
 11
19.092476
 21
31.619667
 31
0.0
  0
SPLINE
  5
18a
100
AcDbEntity
  8
0
 62
5
100
AcDbSpline
 70
8
 71
3
 72
8
 73
4
 74
0
 40
0
 40
0
 40
0
 40
0
 40
1
 40
1
 40
1
 40
1
 10
19.092476
 20
31.619667
 30
0.0
 10
19.135925
 20
31.896906
 30
0.0
 10
19.099715
 20
30.970345
 30
0.0
 10
19.099718
 20
31.663506
 30
0.0
  0
SPLINE
  5
18b
100
AcDbEntity
  8
0
 62
5
100
AcDbSpline
 70
8
 71
3
 72
8
 73
4
 74
0
 40
0
 40
0
 40
0
 40
0
 40
1
 40
1
 40
1
 40
1
 10
19.099718
 20
31.663506
 30
0.0
 10
19.099713
 20
32.356629
 30
0.0
 10
19.085296
 20
32.193407
 30
0.0
 10
19.128755
 20
33.741449
 30
0.0
  0
SPLINE
  5
18c
100
AcDbEntity
  8
0
 62
5
100
AcDbSpline
 70
8
 71
3
 72
8
 73
4
 74
0
 40
0
 40
0
 40
0
 40
0
 40
1
 40
1
 40
1
 40
1
 10
19.128755
 20
33.741449
 30
0.0
 10
19.157717
 20
34.380661
 30
0.0
 10
19.121784
 20
34.919772
 30
0.0
 10
19.329401
 20
35.620637
 30
0.0
  0
SPLINE
  5
18d
100
AcDbEntity
  8
0
 62
5
100
AcDbSpline
 70
8
 71
3
 72
8
 73
4
 74
0
 40
0
 40
0
 40
0
 40
0
 40
1
 40
1
 40
1
 40
1
 10
19.329401
 20
35.620637
 30
0.0
 10
19.590116
 20
36.487043
 30
0.0
 10
19.883600
 20
36.731291
 30
0.0
 10
20.883040
 20
36.731314
 30
0.0
  0
SPLINE
  5
18e
100
AcDbEntity
  8
0
 62
5
100
AcDbSpline
 70
8
 71
3
 72
8
 73
4
 74
0
 40
0
 40
0
 40
0
 40
0
 40
1
 40
1
 40
1
 40
1
 10
20.883040
 20
36.731314
 30
0.0
 10
23.055712
 20
36.731291
 30
0.0
 10
24.142052
 20
36.350063
 30
0.0
 10
24.142063
 20
35.587629
 30
0.0
  0
SPLINE
  5
18f
100
AcDbEntity
  8
0
 62
5
100
AcDbSpline
 70
8
 71
3
 72
8
 73
4
 74
0
 40
0
 40
0
 40
0
 40
0
 40
1
 40
1
 40
1
 40
1
 10
24.142063
 20
35.587629
 30
0.0
 10
24.142052
 20
34.998438
 30
0.0
 10
24.163777
 20
34.582553
 30
0.0
 10
24.207244
 20
34.339974
 30
0.0
  0
SPLINE
  5
190
100
AcDbEntity
  8
0
 62
5
100
AcDbSpline
 70
8
 71
3
 72
8
 73
4
 74
0
 40
0
 40
0
 40
0
 40
0
 40
1
 40
1
 40
1
 40
1
 10
24.207244
 20
34.339974
 30
0.0
 10
24.467954
 20
34.339953
 30
0.0
 10
25.728108
 20
34.807824
 30
0.0
 10
27.987708
 20
35.743586
 30
0.0
  0
SPLINE
  5
191
100
AcDbEntity
  8
0
 62
5
100
AcDbSpline
 70
8
 71
3
 72
8
 73
4
 74
0
 40
0
 40
0
 40
0
 40
0
 40
1
 40
1
 40
1
 40
1
 10
27.987708
 20
35.743586
 30
0.0
 10
30.247282
 20
36.679305
 30
0.0
 10
32.180970
 20
37.147176
 30
0.0
 10
33.788773
 20
37.147199
 30
0.0
  0
SPLINE
  5
192
100
AcDbEntity
  8
0
 62
5
100
AcDbSpline
 70
8
 71
3
 72
8
 73
4
 74
0
 40
0
 40
0
 40
0
 40
0
 40
1
 40
1
 40
1
 40
1
 10
33.788773
 20
37.147199
 30
0.0
 10
34.440554
 20
37.147176
 30
0.0
 10
34.875089
 20
37.008548
 30
0.0
 10
35.092380
 20
36.731314
 30
0.0
  0
SPLINE
  5
193
100
AcDbEntity
  8
0
 62
5
100
AcDbSpline
 70
8
 71
3
 72
8
 73
4
 74
0
 40
0
 40
0
 40
0
 40
0
 40
1
 40
1
 40
1
 40
1
 10
35.092380
 20
36.731314
 30
0.0
 10
35.353083
 20
36.488691
 30
0.0
 10
35.483442
 20
35.899522
 30
0.0
 10
35.483464
 20
34.963802
 30
0.0
  0
SPLINE
  5
194
100
AcDbEntity
  8
0
 62
5
100
AcDbSpline
 70
8
 71
3
 72
8
 73
4
 74
0
 40
0
 40
0
 40
0
 40
0
 40
1
 40
1
 40
1
 40
1
 10
35.483464
 20
34.963802
 30
0.0
 10
35.483442
 20
34.028040
 30
0.0
 10
35.331355
 20
33.317570
 30
0.0
 10
35.027198
 20
32.832390
 30
0.0
  0
SPLINE
  5
195
100
AcDbEntity
  8
0
 62
5
100
AcDbSpline
 70
8
 71
3
 72
8
 73
4
 74
0
 40
0
 40
0
 40
0
 40
0
 40
1
 40
1
 40
1
 40
1
 10
35.027198
 20
32.832390
 30
0.0
 10
34.766459
 20
32.797714
 30
0.0
 10
34.288470
 20
32.745728
 30
0.0
 10
33.593230
 20
32.676433
 30
0.0
  0
SPLINE
  5
196
100
AcDbEntity
  8
0
 62
5
100
AcDbSpline
 70
8
 71
3
 72
8
 73
4
 74
0
 40
0
 40
0
 40
0
 40
0
 40
1
 40
1
 40
1
 40
1
 10
33.593230
 20
32.676433
 30
0.0
 10
32.941407
 20
32.607100
 30
0.0
 10
32.441690
 20
32.555114
 30
0.0
 10
32.094080
 20
32.520476
 30
0.0
  0
SPLINE
  5
197
100
AcDbEntity
  8
0
 62
5
100
AcDbSpline
 70
8
 71
3
 72
8
 73
4
 74
0
 40
0
 40
0
 40
0
 40
0
 40
1
 40
1
 40
1
 40
1
 10
32.094080
 20
32.520476
 30
0.0
 10
31.789886
 20
32.485800
 30
0.0
 10
31.333623
 20
32.416486
 30
0.0
 10
30.725291
 20
32.312533
 30
0.0
  0
SPLINE
  5
198
100
AcDbEntity
  8
0
 62
5
100
AcDbSpline
 70
8
 71
3
 72
8
 73
4
 74
0
 40
0
 40
0
 40
0
 40
0
 40
1
 40
1
 40
1
 40
1
 10
30.725291
 20
32.312533
 30
0.0
 10
30.116924
 20
32.243201
 30
0.0
 10
29.638933
 20
32.173887
 30
0.0
 10
29.291322
 20
32.104590
 30
0.0
  0
SPLINE
  5
199
100
AcDbEntity
  8
0
 62
5
100
AcDbSpline
 70
8
 71
3
 72
8
 73
4
 74
0
 40
0
 40
0
 40
0
 40
0
 40
1
 40
1
 40
1
 40
1
 10
29.291322
 20
32.104590
 30
0.0
 10
28.943675
 20
32.069916
 30
0.0
 10
28.509141
 20
32.000601
 30
0.0
 10
27.987708
 20
31.896648
 30
0.0
  0
SPLINE
  5
19a
100
AcDbEntity
  8
0
 62
5
100
AcDbSpline
 70
8
 71
3
 72
8
 73
4
 74
0
 40
0
 40
0
 40
0
 40
0
 40
1
 40
1
 40
1
 40
1
 10
27.987708
 20
31.896648
 30
0.0
 10
27.509708
 20
31.827316
 30
0.0
 10
27.096896
 20
31.740673
 30
0.0
 10
26.749282
 20
31.636719
 30
0.0
  0
SPLINE
  5
19b
100
AcDbEntity
  8
0
 62
5
100
AcDbSpline
 70
8
 71
3
 72
8
 73
4
 74
0
 40
0
 40
0
 40
0
 40
0
 40
1
 40
1
 40
1
 40
1
 10
26.749282
 20
31.636719
 30
0.0
 10
26.445093
 20
31.532731
 30
0.0
 10
26.119191
 20
31.428759
 30
0.0
 10
25.771574
 20
31.324805
 30
0.0
  0
SPLINE
  5
19c
100
AcDbEntity
  8
0
 62
5
100
AcDbSpline
 70
8
 71
3
 72
8
 73
4
 74
0
 40
0
 40
0
 40
0
 40
0
 40
1
 40
1
 40
1
 40
1
 10
25.771574
 20
31.324805
 30
0.0
 10
25.076304
 20
31.116846
 30
0.0
 10
24.598315
 20
30.839589
 30
0.0
 10
24.337605
 20
30.493035
 30
0.0
  0
LINE
  5
19d
100
AcDbEntity
  8
0
 62
5
100
AcDbLine
 10
24.337605
 20
30.493035
 30
0.0
 11
24.337605
 21
27.113967
 31
0.0
  0
LINE
  5
19e
100
AcDbEntity
  8
0
 62
5
100
AcDbLine
 10
24.337605
 20
27.113967
 30
0.0
 11
24.467966
 21
18.276403
 31
0.0
  0
LINE
  5
19f
100
AcDbEntity
  8
0
 62
5
100
AcDbLine
 10
24.467966
 20
18.276403
 30
0.0
 11
24.467966
 21
17.496618
 31
0.0
  0
SPLINE
  5
1a0
100
AcDbEntity
  8
0
 62
5
100
AcDbSpline
 70
8
 71
3
 72
8
 73
4
 74
0
 40
0
 40
0
 40
0
 40
0
 40
1
 40
1
 40
1
 40
1
 10
24.467966
 20
17.496618
 30
0.0
 10
24.467954
 20
17.357987
 30
0.0
 10
24.467954
 20
17.063401
 30
0.0
 10
24.467966
 20
16.612862
 30
0.0
  0
SPLINE
  5
1a1
100
AcDbEntity
  8
0
 62
5
100
AcDbSpline
 70
8
 71
3
 72
8
 73
4
 74
0
 40
0
 40
0
 40
0
 40
0
 40
1
 40
1
 40
1
 40
1
 10
24.467966
 20
16.612862
 30
0.0
 10
24.467954
 20
16.196976
 30
0.0
 10
24.446226
 20
15.850404
 30
0.0
 10
24.402785
 20
15.573149
 30
0.0
  0
SPLINE
  5
1a2
100
AcDbEntity
  8
0
 62
5
100
AcDbSpline
 70
8
 71
3
 72
8
 73
4
 74
0
 40
0
 40
0
 40
0
 40
0
 40
1
 40
1
 40
1
 40
1
 10
24.402785
 20
15.573149
 30
0.0
 10
24.402774
 20
15.295891
 30
0.0
 10
24.315866
 20
15.018633
 30
0.0
 10
24.142063
 20
14.741381
 30
0.0
  0
SPLINE
  5
1a3
100
AcDbEntity
  8
0
 62
5
100
AcDbSpline
 70
8
 71
3
 72
8
 73
4
 74
0
 40
0
 40
0
 40
0
 40
0
 40
1
 40
1
 40
1
 40
1
 10
24.142063
 20
14.741381
 30
0.0
 10
23.794423
 20
14.290839
 30
0.0
 10
22.881898
 20
14.065566
 30
0.0
 10
21.404484
 20
14.065566
 30
0.0
  0
SPLINE
  5
1a4
100
AcDbEntity
  8
0
 62
5
100
AcDbSpline
 70
8
 71
3
 72
8
 73
4
 74
0
 40
0
 40
0
 40
0
 40
0
 40
1
 40
1
 40
1
 40
1
 10
21.404484
 20
14.065566
 30
0.0
 10
19.970507
 20
14.065566
 30
0.0
 10
20.026724
 20
14.207163
 30
0.0
 10
19.766008
 20
14.345793
 30
0.0
  0
SPLINE
  5
1a5
100
AcDbEntity
  8
0
 62
5
100
AcDbSpline
 70
8
 71
3
 72
8
 73
4
 74
0
 40
0
 40
0
 40
0
 40
0
 40
1
 40
1
 40
1
 40
1
 10
19.766008
 20
14.345793
 30
0.0
 10
19.244559
 20
14.623048
 30
0.0
 10
19.128684
 20
16.373509
 30
0.0
 10
19.128689
 20
19.665936
 30
0.0
  0
SPLINE
  5
1a6
100
AcDbEntity
  8
0
 62
5
100
AcDbSpline
 70
8
 71
3
 72
8
 73
4
 74
0
 40
0
 40
0
 40
0
 40
0
 40
1
 40
1
 40
1
 40
1
 10
26.127148
 20
43.738595
 30
0.0
 10
30.409938
 20
43.702413
 30
0.0
 10
34.643853
 20
42.057926
 30
0.0
 10
37.855565
 20
39.230407
 30
0.0
  0
SPLINE
  5
1a7
100
AcDbEntity
  8
0
 62
5
100
AcDbSpline
 70
8
 71
3
 72
8
 73
4
 74
0
 40
0
 40
0
 40
0
 40
0
 40
1
 40
1
 40
1
 40
1
 10
37.855565
 20
39.230407
 30
0.0
 10
42.663116
 20
35.075312
 30
0.0
 10
44.689906
 20
28.173132
 30
0.0
 10
43.330901
 20
22.006585
 30
0.0
  0
SPLINE
  5
1a8
100
AcDbEntity
  8
0
 62
5
100
AcDbSpline
 70
8
 71
3
 72
8
 73
4
 74
0
 40
0
 40
0
 40
0
 40
0
 40
1
 40
1
 40
1
 40
1
 10
43.330901
 20
22.006585
 30
0.0
 10
42.143082
 20
16.264458
 30
0.0
 10
37.702967
 20
11.471526
 30
0.0
 10
32.259888
 20
9.422435
 30
0.0
  0
SPLINE
  5
1a9
100
AcDbEntity
  8
0
 62
5
100
AcDbSpline
 70
8
 71
3
 72
8
 73
4
 74
0
 40
0
 40
0
 40
0
 40
0
 40
1
 40
1
 40
1
 40
1
 10
32.259888
 20
9.422435
 30
0.0
 10
26.611305
 20
7.142841
 30
0.0
 10
19.826007
 20
8.238278
 30
0.0
 10
15.073958
 20
12.009690
 30
0.0
  0
SPLINE
  5
1aa
100
AcDbEntity
  8
0
 62
5
100
AcDbSpline
 70
8
 71
3
 72
8
 73
4
 74
0
 40
0
 40
0
 40
0
 40
0
 40
1
 40
1
 40
1
 40
1
 10
15.073958
 20
12.009690
 30
0.0
 10
9.799358
 20
16.040422
 30
0.0
 10
7.248380
 20
23.193691
 30
0.0
 10
8.589122
 20
29.676969
 30
0.0
  0
SPLINE
  5
1ab
100
AcDbEntity
  8
0
 62
5
100
AcDbSpline
 70
8
 71
3
 72
8
 73
4
 74
0
 40
0
 40
0
 40
0
 40
0
 40
1
 40
1
 40
1
 40
1
 10
8.589122
 20
29.676969
 30
0.0
 10
10.182342
 20
37.532734
 30
0.0
 10
17.679857
 20
43.699011
 30
0.0
 10
25.712655
 20
43.736363
 30
0.0
  0
SPLINE
  5
1ac
100
AcDbEntity
  8
0
 62
5
100
AcDbSpline
 70
8
 71
3
 72
8
 73
4
 74
0
 40
0
 40
0
 40
0
 40
0
 40
1
 40
1
 40
1
 40
1
 10
25.712655
 20
43.736363
 30
0.0
 10
25.850879
 20
43.738564
 30
0.0
 10
25.988995
 20
43.739761
 30
0.0
 10
26.127148
 20
43.738592
 30
0.0
  0
LINE
  5
1ad
100
AcDbEntity
  8
0
 62
5
100
AcDbLine
 10
26.127148
 20
43.738592
 30
0.0
 11
26.127148
 21
43.738595
 31
0.0
  0
LINE
  5
1ae
100
AcDbEntity
  8
0
 62
7
100
AcDbLine
 10
10.948751
 20
35.389322
 30
0.0
 11
3.083243
 21
27.523815
 31
0.0
  0
LINE
  5
1af
100
AcDbEntity
  8
0
 62
7
100
AcDbLine
 10
3.041092
 20
26.683419
 30
0.0
 11
9.926118
 21
33.568446
 31
0.0
  0
LINE
  5
1b0
100
AcDbEntity
  8
0
 62
7
100
AcDbLine
 10
9.322633
 20
32.166714
 30
0.0
 11
3.013989
 21
25.858071
 31
0.0
  0
LINE
  5
1b1
100
AcDbEntity
  8
0
 62
7
100
AcDbLine
 10
3.052396
 20
25.098232
 30
0.0
 11
8.912677
 21
30.958514
 31
0.0
  0
LINE
  5
1b2
100
AcDbEntity
  8
0
 62
7
100
AcDbLine
 10
8.643074
 20
29.890666
 30
0.0
 11
3.090803
 21
24.338395
 31
0.0
  0
LINE
  5
1b3
100
AcDbEntity
  8
0
 62
7
100
AcDbLine
 10
3.135491
 20
23.584837
 30
0.0
 11
8.459679
 21
28.909026
 31
0.0
  0
LINE
  5
1b4
100
AcDbEntity
  8
0
 62
7
100
AcDbLine
 10
8.339160
 20
27.990262
 30
0.0
 11
3.241265
 21
22.892368
 31
0.0
  0
LINE
  5
1b5
100
AcDbEntity
  8
0
 62
7
100
AcDbLine
 10
3.347040
 20
22.199896
 30
0.0
 11
8.264048
 21
27.116905
 31
0.0
  0
LINE
  5
1b6
100
AcDbEntity
  8
0
 62
7
100
AcDbLine
 10
8.245040
 20
26.299652
 30
0.0
 11
3.452815
 21
21.507427
 31
0.0
  0
LINE
  5
1b7
100
AcDbEntity
  8
0
 62
7
100
AcDbLine
 10
3.604455
 20
20.860822
 30
0.0
 11
8.259431
 21
25.515798
 31
0.0
  0
LINE
  5
1b8
100
AcDbEntity
  8
0
 62
7
100
AcDbLine
 10
8.294791
 20
24.752912
 30
0.0
 11
3.767818
 21
20.225938
 31
0.0
  0
LINE
  5
1b9
100
AcDbEntity
  8
0
 62
7
100
AcDbLine
 10
3.931180
 20
19.591057
 30
0.0
 11
8.398202
 21
24.058079
 31
0.0
  0
LINE
  5
1ba
100
AcDbEntity
  8
0
 62
7
100
AcDbLine
 10
8.502042
 20
23.363674
 30
0.0
 11
4.111013
 21
18.972646
 31
0.0
  0
LINE
  5
1bb
100
AcDbEntity
  8
0
 62
7
100
AcDbLine
 10
4.324985
 20
18.388372
 30
0.0
 11
8.605882
 21
22.669269
 31
0.0
  0
LINE
  5
1bc
100
AcDbEntity
  8
0
 62
7
100
AcDbLine
 10
8.745235
 20
22.010376
 30
0.0
 11
4.538957
 21
17.804099
 31
0.0
  0
LINE
  5
1bd
100
AcDbEntity
  8
0
 62
7
100
AcDbLine
 10
4.752929
 20
17.219826
 30
0.0
 11
8.924776
 21
21.391671
 31
0.0
  0
LINE
  5
1be
100
AcDbEntity
  8
0
 62
7
100
AcDbLine
 10
9.104317
 20
20.772969
 30
0.0
 11
4.999262
 21
16.667915
 31
0.0
  0
LINE
  5
1bf
100
AcDbEntity
  8
0
 62
7
100
AcDbLine
 10
5.258859
 20
16.129265
 30
0.0
 11
9.283858
 21
20.154265
 31
0.0
  0
LINE
  5
1c0
100
AcDbEntity
  8
0
 62
7
100
AcDbLine
 10
9.504259
 20
19.576421
 30
0.0
 11
5.518457
 21
15.590619
 31
0.0
  0
LINE
  5
1c1
100
AcDbEntity
  8
0
 62
7
100
AcDbLine
 10
5.778054
 20
15.051972
 30
0.0
 11
9.748945
 21
19.022862
 31
0.0
  0
LINE
  5
1c2
100
AcDbEntity
  8
0
 62
7
100
AcDbLine
 10
9.993631
 20
18.469302
 30
0.0
 11
6.078818
 21
14.554491
 31
0.0
  0
LINE
  5
1c3
100
AcDbEntity
  8
0
 62
7
100
AcDbLine
 10
6.380553
 20
14.057980
 30
0.0
 11
10.238317
 21
17.915743
 31
0.0
  0
LINE
  5
1c4
100
AcDbEntity
  8
0
 62
7
100
AcDbLine
 10
10.507368
 20
17.386551
 30
0.0
 11
6.682288
 21
13.561469
 31
0.0
  0
LINE
  5
1c5
100
AcDbEntity
  8
0
 62
7
100
AcDbLine
 10
6.990298
 20
13.071235
 30
0.0
 11
10.797102
 21
16.878040
 31
0.0
  0
LINE
  5
1c6
100
AcDbEntity
  8
0
 62
7
100
AcDbLine
 10
11.099344
 20
16.382035
 30
0.0
 11
7.331863
 21
12.614554
 31
0.0
  0
LINE
  5
1c7
100
AcDbEntity
  8
0
 62
7
100
AcDbLine
 10
7.673427
 20
12.157874
 30
0.0
 11
11.418249
 21
15.902697
 31
0.0
  0
LINE
  5
1c8
100
AcDbEntity
  8
0
 62
7
100
AcDbLine
 10
11.745339
 20
15.431541
 30
0.0
 11
8.014992
 21
11.701193
 31
0.0
  0
LINE
  5
1c9
100
AcDbEntity
  8
0
 62
7
100
AcDbLine
 10
8.367344
 20
11.255302
 30
0.0
 11
12.093177
 21
14.981134
 31
0.0
  0
LINE
  5
1ca
100
AcDbEntity
  8
0
 62
7
100
AcDbLine
 10
12.444279
 20
14.533990
 30
0.0
 11
8.747424
 21
10.837136
 31
0.0
  0
LINE
  5
1cb
100
AcDbEntity
  8
0
 62
7
100
AcDbLine
 10
9.127503
 20
10.418970
 30
0.0
 11
12.821182
 21
14.112649
 31
0.0
  0
LINE
  5
1cc
100
AcDbEntity
  8
0
 62
7
100
AcDbLine
 10
13.198086
 20
13.691308
 30
0.0
 11
9.507582
 21
10.000804
 31
0.0
  0
LINE
  5
1cd
100
AcDbEntity
  8
0
 62
7
100
AcDbLine
 10
9.901889
 20
9.596868
 30
0.0
 11
13.602363
 21
13.297340
 31
0.0
  0
LINE
  5
1ce
100
AcDbEntity
  8
0
 62
7
100
AcDbLine
 10
14.008824
 20
12.905557
 30
0.0
 11
10.320055
 21
9.216788
 31
0.0
  0
LINE
  5
1cf
100
AcDbEntity
  8
0
 62
7
100
AcDbLine
 10
10.738221
 20
8.836708
 30
0.0
 11
14.437591
 21
12.536077
 31
0.0
  0
LINE
  5
1d0
100
AcDbEntity
  8
0
 62
7
100
AcDbLine
 10
14.874464
 20
12.174705
 30
0.0
 11
11.156387
 21
8.456628
 31
0.0
  0
LINE
  5
1d1
100
AcDbEntity
  8
0
 62
7
100
AcDbLine
 10
11.592542
 20
8.094540
 30
0.0
 11
15.330899
 21
11.832895
 31
0.0
  0
LINE
  5
1d2
100
AcDbEntity
  8
0
 62
7
100
AcDbLine
 10
15.803772
 20
11.507524
 30
0.0
 11
12.049222
 21
7.752975
 31
0.0
  0
LINE
  5
1d3
100
AcDbEntity
  8
0
 62
7
100
AcDbLine
 10
12.505902
 20
7.411410
 30
0.0
 11
16.276646
 21
11.182152
 31
0.0
  0
LINE
  5
1d4
100
AcDbEntity
  8
0
 62
7
100
AcDbLine
 10
16.749519
 20
10.856781
 30
0.0
 11
12.962582
 21
7.069844
 31
0.0
  0
LINE
  5
1d5
100
AcDbEntity
  8
0
 62
7
100
AcDbLine
 10
13.442746
 20
6.751763
 30
0.0
 11
17.255515
 21
10.564532
 31
0.0
  0
LINE
  5
1d6
100
AcDbEntity
  8
0
 62
7
100
AcDbLine
 10
17.784870
 20
10.295642
 30
0.0
 11
13.939256
 21
6.450028
 31
0.0
  0
LINE
  5
1d7
100
AcDbEntity
  8
0
 62
7
100
AcDbLine
 10
14.435767
 20
6.148293
 30
0.0
 11
18.314225
 21
10.026752
 31
0.0
  0
LINE
  5
1d8
100
AcDbEntity
  8
0
 62
7
100
AcDbLine
 10
18.843580
 20
9.757862
 30
0.0
 11
14.932278
 21
5.846561
 31
0.0
  0
LINE
  5
1d9
100
AcDbEntity
  8
0
 62
7
100
AcDbLine
 10
15.461241
 20
5.577278
 30
0.0
 11
19.418279
 21
9.534316
 31
0.0
  0
LINE
  5
1da
100
AcDbEntity
  8
0
 62
7
100
AcDbLine
 10
20.007161
 20
9.324952
 30
0.0
 11
15.999889
 21
5.317682
 31
0.0
  0
LINE
  5
1db
100
AcDbEntity
  8
0
 62
7
100
AcDbLine
 10
16.538537
 20
5.058083
 30
0.0
 11
20.596043
 21
9.115592
 31
0.0
  0
LINE
  5
1dc
100
AcDbEntity
  8
0
 62
7
100
AcDbLine
 10
21.193262
 20
8.914565
 30
0.0
 11
17.078913
 21
4.800213
 31
0.0
  0
LINE
  5
1dd
100
AcDbEntity
  8
0
 62
7
100
AcDbLine
 10
17.663186
 20
4.586244
 30
0.0
 11
21.848217
 21
8.771275
 31
0.0
  0
LINE
  5
1de
100
AcDbEntity
  8
0
 62
7
100
AcDbLine
 10
22.503173
 20
8.627985
 30
0.0
 11
18.247459
 21
4.372271
 31
0.0
  0
LINE
  5
1df
100
AcDbEntity
  8
0
 62
7
100
AcDbLine
 10
18.831732
 20
4.158299
 30
0.0
 11
23.158128
 21
8.484695
 31
0.0
  0
LINE
  5
1e0
100
AcDbEntity
  8
0
 62
7
100
AcDbLine
 10
23.870406
 20
8.398727
 30
0.0
 11
19.437348
 21
3.965671
 31
0.0
  0
LINE
  5
1e1
100
AcDbEntity
  8
0
 62
7
100
AcDbLine
 10
20.072230
 20
3.802307
 30
0.0
 11
24.603193
 21
8.333272
 31
0.0
  0
LINE
  5
1e2
100
AcDbEntity
  8
0
 62
7
100
AcDbLine
 10
25.335981
 20
8.267813
 30
0.0
 11
20.707112
 21
3.638945
 31
0.0
  0
LINE
  5
1e3
100
AcDbEntity
  8
0
 62
7
100
AcDbLine
 10
21.341994
 20
3.475581
 30
0.0
 11
26.132657
 21
8.266244
 31
0.0
  0
LINE
  5
1e4
100
AcDbEntity
  8
0
 62
7
100
AcDbLine
 10
26.963813
 20
8.299154
 30
0.0
 11
22.031627
 21
3.366970
 31
0.0
  0
LINE
  5
1e5
100
AcDbEntity
  8
0
 62
7
100
AcDbLine
 10
22.724097
 20
3.261193
 30
0.0
 11
27.794969
 21
8.332066
 31
0.0
  0
LINE
  5
1e6
100
AcDbEntity
  8
0
 62
7
100
AcDbLine
 10
28.751268
 20
8.490119
 30
0.0
 11
23.416567
 21
3.155419
 31
0.0
  0
LINE
  5
1e7
100
AcDbEntity
  8
0
 62
7
100
AcDbLine
 10
24.153091
 20
3.093697
 30
0.0
 11
29.718164
 21
8.658770
 31
0.0
  0
LINE
  5
1e8
100
AcDbEntity
  8
0
 62
7
100
AcDbLine
 10
30.813965
 20
8.956328
 30
0.0
 11
24.912929
 21
3.055293
 31
0.0
  0
LINE
  5
1e9
100
AcDbEntity
  8
0
 62
7
100
AcDbLine
 10
25.672767
 20
3.016885
 30
0.0
 11
31.991943
 21
9.336061
 31
0.0
  0
LINE
  5
1ea
100
AcDbEntity
  8
0
 62
7
100
AcDbLine
 10
33.379207
 20
9.925078
 30
0.0
 11
26.477941
 21
3.023814
 31
0.0
  0
LINE
  5
1eb
100
AcDbEntity
  8
0
 62
7
100
AcDbLine
 10
27.318682
 20
3.066311
 30
0.0
 11
35.055104
 21
10.802733
 31
0.0
  0
LINE
  5
1ec
100
AcDbEntity
  8
0
 62
7
100
AcDbLine
 10
37.839735
 20
12.789117
 30
0.0
 11
28.159424
 21
3.108808
 31
0.0
  0
SPLINE
  5
1ed
100
AcDbEntity
  8
0
 62
1
100
AcDbSpline
 70
8
 71
3
 72
8
 73
4
 74
0
 40
0
 40
0
 40
0
 40
0
 40
1
 40
1
 40
1
 40
1
 10
25.710426
 20
49.000001
 30
0.0
 10
13.150798
 20
48.840730
 30
0.0
 10
3.006815
 20
38.597193
 30
0.0
 10
3.006815
 20
25.999998
 30
0.0
  0
SPLINE
  5
1ee
100
AcDbEntity
  8
0
 62
1
100
AcDbSpline
 70
8
 71
3
 72
8
 73
4
 74
0
 40
0
 40
0
 40
0
 40
0
 40
1
 40
1
 40
1
 40
1
 10
3.006815
 20
25.999998
 30
0.0
 10
3.006815
 20
13.303617
 30
0.0
 10
13.310433
 20
3.000000
 30
0.0
 10
26.006813
 20
3.000000
 30
0.0
  0
SPLINE
  5
1ef
100
AcDbEntity
  8
0
 62
1
100
AcDbSpline
 70
8
 71
3
 72
8
 73
4
 74
0
 40
0
 40
0
 40
0
 40
0
 40
1
 40
1
 40
1
 40
1
 10
26.006813
 20
3.000000
 30
0.0
 10
38.703194
 20
3.000000
 30
0.0
 10
49.006808
 20
13.303617
 30
0.0
 10
49.006805
 20
25.999998
 30
0.0
  0
SPLINE
  5
1f0
100
AcDbEntity
  8
0
 62
1
100
AcDbSpline
 70
8
 71
3
 72
8
 73
4
 74
0
 40
0
 40
0
 40
0
 40
0
 40
1
 40
1
 40
1
 40
1
 10
49.006805
 20
25.999998
 30
0.0
 10
49.006805
 20
26.099193
 30
0.0
 10
49.005676
 20
26.197491
 30
0.0
 10
49.003983
 20
26.296388
 30
0.0
  0
LINE
  5
1f1
100
AcDbEntity
  8
0
 62
1
100
AcDbLine
 10
49.003983
 20
26.296388
 30
0.0
 11
49.003983
 21
44.420503
 31
0.0
  0
SPLINE
  5
1f2
100
AcDbEntity
  8
0
 62
1
100
AcDbSpline
 70
8
 71
3
 72
8
 73
4
 74
0
 40
0
 40
0
 40
0
 40
0
 40
1
 40
1
 40
1
 40
1
 10
49.003983
 20
44.420503
 30
0.0
 10
48.953595
 20
46.945198
 30
0.0
 10
46.899511
 20
48.980982
 30
0.0
 10
44.367137
 20
49.000001
 30
0.0
  0
LINE
  5
1f3
100
AcDbEntity
  8
0
 62
1
100
AcDbLine
 10
44.367137
 20
49.000001
 30
0.0
 11
26.006813
 21
49.000001
 31
0.0
  0
SPLINE
  5
1f4
100
AcDbEntity
  8
0
 62
1
100
AcDbSpline
 70
8
 71
3
 72
8
 73
4
 74
0
 40
0
 40
0
 40
0
 40
0
 40
1
 40
1
 40
1
 40
1
 10
26.006813
 20
49.000001
 30
0.0
 10
25.971761
 20
49.000001
 30
0.0
 10
25.936970
 20
49.000001
 30
0.0
 10
25.902074
 20
49.000001
 30
0.0
  0
SPLINE
  5
1f5
100
AcDbEntity
  8
0
 62
1
100
AcDbSpline
 70
8
 71
3
 72
8
 73
4
 74
0
 40
0
 40
0
 40
0
 40
0
 40
1
 40
1
 40
1
 40
1
 10
25.902074
 20
49.000001
 30
0.0
 10
25.838223
 20
49.000001
 30
0.0
 10
25.774373
 20
49.000820
 30
0.0
 10
25.710426
 20
49.000001
 30
0.0
  0
LINE
  5
1f6
100
AcDbEntity
  8
0
 62
1
100
AcDbLine
 10
25.710426
 20
49.000001
 30
0.0
 11
25.710426
 21
49.000001
 31
0.0
  0
SPLINE
  5
1f7
100
AcDbEntity
  8
0
 62
5
100
AcDbSpline
 70
8
 71
3
 72
8
 73
4
 74
0
 40
0
 40
0
 40
0
 40
0
 40
1
 40
1
 40
1
 40
1
 10
43.638368
 20
46.778938
 30
0.0
 10
43.264274
 20
46.778931
 30
0.0
 10
42.897645
 20
46.706383
 30
0.0
 10
42.535938
 20
46.567272
 30
0.0
  0
SPLINE
  5
1f8
100
AcDbEntity
  8
0
 62
5
100
AcDbSpline
 70
8
 71
3
 72
8
 73
4
 74
0
 40
0
 40
0
 40
0
 40
0
 40
1
 40
1
 40
1
 40
1
 10
42.535938
 20
46.567272
 30
0.0
 10
42.360542
 20
46.501925
 30
0.0
 10
42.221991
 20
46.439044
 30
0.0
 10
42.103785
 20
46.355605
 30
0.0
  0
SPLINE
  5
1f9
100
AcDbEntity
  8
0
 62
5
100
AcDbSpline
 70
8
 71
3
 72
8
 73
4
 74
0
 40
0
 40
0
 40
0
 40
0
 40
1
 40
1
 40
1
 40
1
 10
42.103785
 20
46.355605
 30
0.0
 10
41.985579
 20
46.272166
 30
0.0
 10
41.848021
 20
46.141177
 30
0.0
 10
41.848021
 20
45.932272
 30
0.0
  0
SPLINE
  5
1fa
100
AcDbEntity
  8
0
 62
5
100
AcDbSpline
 70
8
 71
3
 72
8
 73
4
 74
0
 40
0
 40
0
 40
0
 40
0
 40
1
 40
1
 40
1
 40
1
 10
41.848021
 20
45.932272
 30
0.0
 10
41.848021
 20
45.744928
 30
0.0
 10
41.962372
 20
45.604724
 30
0.0
 10
42.077327
 20
45.508938
 30
0.0
  0
LINE
  5
1fb
100
AcDbEntity
  8
0
 62
5
100
AcDbLine
 10
42.077327
 20
45.508938
 30
0.0
 11
42.086160
 21
45.500119
 31
0.0
  0
LINE
  5
1fc
100
AcDbEntity
  8
0
 62
5
100
AcDbLine
 10
42.086160
 20
45.500119
 30
0.0
 11
42.094994
 21
45.491300
 31
0.0
  0
SPLINE
  5
1fd
100
AcDbEntity
  8
0
 62
5
100
AcDbSpline
 70
8
 71
3
 72
8
 73
4
 74
0
 40
0
 40
0
 40
0
 40
0
 40
1
 40
1
 40
1
 40
1
 10
42.094994
 20
45.491300
 30
0.0
 10
42.195552
 20
45.421674
 30
0.0
 10
42.263447
 20
45.350158
 30
0.0
 10
42.456591
 20
45.350188
 30
0.0
  0
SPLINE
  5
1fe
100
AcDbEntity
  8
0
 62
5
100
AcDbSpline
 70
8
 71
3
 72
8
 73
4
 74
0
 40
0
 40
0
 40
0
 40
0
 40
1
 40
1
 40
1
 40
1
 10
42.456591
 20
45.350188
 30
0.0
 10
42.561820
 20
45.350172
 30
0.0
 10
42.581257
 20
45.368471
 30
0.0
 10
42.659438
 20
45.385466
 30
0.0
  0
SPLINE
  5
1ff
100
AcDbEntity
  8
0
 62
5
100
AcDbSpline
 70
8
 71
3
 72
8
 73
4
 74
0
 40
0
 40
0
 40
0
 40
0
 40
1
 40
1
 40
1
 40
1
 10
42.659438
 20
45.385466
 30
0.0
 10
42.737619
 20
45.402462
 30
0.0
 10
42.839908
 20
45.423966
 30
0.0
 10
42.968119
 20
45.456022
 30
0.0
  0
SPLINE
  5
200
100
AcDbEntity
  8
0
 62
5
100
AcDbSpline
 70
8
 71
3
 72
8
 73
4
 74
0
 40
0
 40
0
 40
0
 40
0
 40
1
 40
1
 40
1
 40
1
 10
42.968119
 20
45.456022
 30
0.0
 10
43.210963
 20
45.516727
 30
0.0
 10
43.388904
 20
45.544214
 30
0.0
 10
43.435549
 20
45.544216
 30
0.0
  0
SPLINE
  5
201
100
AcDbEntity
  8
0
 62
5
100
AcDbSpline
 70
8
 71
3
 72
8
 73
4
 74
0
 40
0
 40
0
 40
0
 40
0
 40
1
 40
1
 40
1
 40
1
 10
43.435549
 20
45.544216
 30
0.0
 10
43.701995
 20
45.544211
 30
0.0
 10
43.846736
 20
45.478763
 30
0.0
 10
43.938258
 20
45.394286
 30
0.0
  0
SPLINE
  5
202
100
AcDbEntity
  8
0
 62
5
100
AcDbSpline
 70
8
 71
3
 72
8
 73
4
 74
0
 40
0
 40
0
 40
0
 40
0
 40
1
 40
1
 40
1
 40
1
 10
43.938258
 20
45.394286
 30
0.0
 10
44.044229
 20
45.296462
 30
0.0
 10
44.088185
 20
45.202726
 30
0.0
 10
44.088188
 20
45.041508
 30
0.0
  0
SPLINE
  5
203
100
AcDbEntity
  8
0
 62
5
100
AcDbSpline
 70
8
 71
3
 72
8
 73
4
 74
0
 40
0
 40
0
 40
0
 40
0
 40
1
 40
1
 40
1
 40
1
 10
44.088188
 20
45.041508
 30
0.0
 10
44.088185
 20
44.860706
 30
0.0
 10
44.042166
 20
44.703955
 30
0.0
 10
43.947077
 20
44.538800
 30
0.0
  0
LINE
  5
204
100
AcDbEntity
  8
0
 62
5
100
AcDbLine
 10
43.947077
 20
44.538800
 30
0.0
 11
43.947077
 21
44.529980
 31
0.0
  0
SPLINE
  5
205
100
AcDbEntity
  8
0
 62
5
100
AcDbSpline
 70
8
 71
3
 72
8
 73
4
 74
0
 40
0
 40
0
 40
0
 40
0
 40
1
 40
1
 40
1
 40
1
 10
43.947077
 20
44.529980
 30
0.0
 10
43.846425
 20
44.345452
 30
0.0
 10
43.699687
 20
44.144819
 30
0.0
 10
43.514924
 20
43.930258
 30
0.0
  0
LINE
  5
206
100
AcDbEntity
  8
0
 62
5
100
AcDbLine
 10
43.514924
 20
43.930258
 30
0.0
 11
43.514924
 21
43.921438
 31
0.0
  0
SPLINE
  5
207
100
AcDbEntity
  8
0
 62
5
100
AcDbSpline
 70
8
 71
3
 72
8
 73
4
 74
0
 40
0
 40
0
 40
0
 40
0
 40
1
 40
1
 40
1
 40
1
 10
43.514924
 20
43.921438
 30
0.0
 10
43.322370
 20
43.690371
 30
0.0
 10
43.203151
 20
43.537388
 30
0.0
 10
43.126869
 20
43.418730
 30
0.0
  0
LINE
  5
208
100
AcDbEntity
  8
0
 62
5
100
AcDbLine
 10
43.126869
 20
43.418730
 30
0.0
 11
43.065133
 21
43.330536
 31
0.0
  0
LINE
  5
209
100
AcDbEntity
  8
0
 62
5
100
AcDbLine
 10
43.065133
 20
43.330536
 30
0.0
 11
43.073966
 21
43.224702
 31
0.0
  0
SPLINE
  5
20a
100
AcDbEntity
  8
0
 62
5
100
AcDbSpline
 70
8
 71
3
 72
8
 73
4
 74
0
 40
0
 40
0
 40
0
 40
0
 40
1
 40
1
 40
1
 40
1
 10
43.073966
 20
43.224702
 30
0.0
 10
43.096601
 20
42.998450
 30
0.0
 10
43.220815
 20
42.943080
 30
0.0
 10
43.312091
 20
42.880744
 30
0.0
  0
SPLINE
  5
20b
100
AcDbEntity
  8
0
 62
5
100
AcDbSpline
 70
8
 71
3
 72
8
 73
4
 74
0
 40
0
 40
0
 40
0
 40
0
 40
1
 40
1
 40
1
 40
1
 10
43.312091
 20
42.880744
 30
0.0
 10
43.403368
 20
42.818408
 30
0.0
 10
43.511425
 20
42.765465
 30
0.0
 10
43.647230
 20
42.704355
 30
0.0
  0
SPLINE
  5
20c
100
AcDbEntity
  8
0
 62
5
100
AcDbSpline
 70
8
 71
3
 72
8
 73
4
 74
0
 40
0
 40
0
 40
0
 40
0
 40
1
 40
1
 40
1
 40
1
 10
43.647230
 20
42.704355
 30
0.0
 10
44.170340
 20
42.473082
 30
0.0
 10
44.361602
 20
42.190030
 30
0.0
 10
44.361605
 20
41.707758
 30
0.0
  0
SPLINE
  5
20d
100
AcDbEntity
  8
0
 62
5
100
AcDbSpline
 70
8
 71
3
 72
8
 73
4
 74
0
 40
0
 40
0
 40
0
 40
0
 40
1
 40
1
 40
1
 40
1
 10
44.361605
 20
41.707758
 30
0.0
 10
44.361605
 20
41.214259
 30
0.0
 10
44.221101
 20
40.901883
 30
0.0
 10
43.920633
 20
40.667063
 30
0.0
  0
SPLINE
  5
20e
100
AcDbEntity
  8
0
 62
5
100
AcDbSpline
 70
8
 71
3
 72
8
 73
4
 74
0
 40
0
 40
0
 40
0
 40
0
 40
1
 40
1
 40
1
 40
1
 10
43.920633
 20
40.667063
 30
0.0
 10
43.620165
 20
40.432244
 30
0.0
 10
43.117383
 20
40.276539
 30
0.0
 10
42.403689
 20
40.252550
 30
0.0
  0
LINE
  5
20f
100
AcDbEntity
  8
0
 62
5
100
AcDbLine
 10
42.403689
 20
40.252550
 30
0.0
 11
42.174383
 21
40.243730
 31
0.0
  0
LINE
  5
210
100
AcDbEntity
  8
0
 62
5
100
AcDbLine
 10
42.174383
 20
40.243730
 30
0.0
 11
42.112647
 21
40.014425
 31
0.0
  0
SPLINE
  5
211
100
AcDbEntity
  8
0
 62
5
100
AcDbSpline
 70
8
 71
3
 72
8
 73
4
 74
0
 40
0
 40
0
 40
0
 40
0
 40
1
 40
1
 40
1
 40
1
 10
42.112647
 20
40.014425
 30
0.0
 10
42.091875
 20
39.931380
 30
0.0
 10
42.086203
 20
39.847011
 30
0.0
 10
42.086203
 20
39.758661
 30
0.0
  0
SPLINE
  5
212
100
AcDbEntity
  8
0
 62
5
100
AcDbSpline
 70
8
 71
3
 72
8
 73
4
 74
0
 40
0
 40
0
 40
0
 40
0
 40
1
 40
1
 40
1
 40
1
 10
42.086203
 20
39.758661
 30
0.0
 10
42.086203
 20
39.566869
 30
0.0
 10
42.188107
 20
39.435893
 30
0.0
 10
42.297869
 20
39.317688
 30
0.0
  0
SPLINE
  5
213
100
AcDbEntity
  8
0
 62
5
100
AcDbSpline
 70
8
 71
3
 72
8
 73
4
 74
0
 40
0
 40
0
 40
0
 40
0
 40
1
 40
1
 40
1
 40
1
 10
42.297869
 20
39.317688
 30
0.0
 10
42.436672
 20
39.168972
 30
0.0
 10
42.640656
 20
39.070745
 30
0.0
 10
42.844675
 20
39.070744
 30
0.0
  0
SPLINE
  5
214
100
AcDbEntity
  8
0
 62
5
100
AcDbSpline
 70
8
 71
3
 72
8
 73
4
 74
0
 40
0
 40
0
 40
0
 40
0
 40
1
 40
1
 40
1
 40
1
 10
42.844675
 20
39.070744
 30
0.0
 10
42.846086
 20
39.070996
 30
0.0
 10
42.853508
 20
39.070744
 30
0.0
 10
42.853508
 20
39.070744
 30
0.0
  0
SPLINE
  5
215
100
AcDbEntity
  8
0
 62
5
100
AcDbSpline
 70
8
 71
3
 72
8
 73
4
 74
0
 40
0
 40
0
 40
0
 40
0
 40
1
 40
1
 40
1
 40
1
 10
42.853508
 20
39.070744
 30
0.0
 10
43.680030
 20
39.097623
 30
0.0
 10
44.401105
 20
39.323782
 30
0.0
 10
44.987814
 20
39.749841
 30
0.0
  0
SPLINE
  5
216
100
AcDbEntity
  8
0
 62
5
100
AcDbSpline
 70
8
 71
3
 72
8
 73
4
 74
0
 40
0
 40
0
 40
0
 40
0
 40
1
 40
1
 40
1
 40
1
 10
44.987814
 20
39.749841
 30
0.0
 10
45.597614
 20
40.187465
 30
0.0
 10
45.922672
 20
40.847435
 30
0.0
 10
45.922675
 20
41.628383
 30
0.0
  0
SPLINE
  5
217
100
AcDbEntity
  8
0
 62
5
100
AcDbSpline
 70
8
 71
3
 72
8
 73
4
 74
0
 40
0
 40
0
 40
0
 40
0
 40
1
 40
1
 40
1
 40
1
 10
45.922675
 20
41.628383
 30
0.0
 10
45.922672
 20
42.051135
 30
0.0
 10
45.796968
 20
42.445673
 30
0.0
 10
45.552258
 20
42.774911
 30
0.0
  0
SPLINE
  5
218
100
AcDbEntity
  8
0
 62
5
100
AcDbSpline
 70
8
 71
3
 72
8
 73
4
 74
0
 40
0
 40
0
 40
0
 40
0
 40
1
 40
1
 40
1
 40
1
 10
45.552258
 20
42.774911
 30
0.0
 10
45.551130
 20
42.776689
 30
0.0
 10
45.553387
 20
42.781958
 30
0.0
 10
45.552258
 20
42.783730
 30
0.0
  0
LINE
  5
219
100
AcDbEntity
  8
0
 62
5
100
AcDbLine
 10
45.552258
 20
42.783730
 30
0.0
 11
45.543425
 21
42.783730
 31
0.0
  0
SPLINE
  5
21a
100
AcDbEntity
  8
0
 62
5
100
AcDbSpline
 70
8
 71
3
 72
8
 73
4
 74
0
 40
0
 40
0
 40
0
 40
0
 40
1
 40
1
 40
1
 40
1
 10
45.543425
 20
42.783730
 30
0.0
 10
45.336387
 20
43.071544
 30
0.0
 10
45.064245
 20
43.307700
 30
0.0
 10
44.740855
 20
43.489286
 30
0.0
  0
SPLINE
  5
21b
100
AcDbEntity
  8
0
 62
5
100
AcDbSpline
 70
8
 71
3
 72
8
 73
4
 74
0
 40
0
 40
0
 40
0
 40
0
 40
1
 40
1
 40
1
 40
1
 10
44.740855
 20
43.489286
 30
0.0
 10
44.856132
 20
43.601561
 30
0.0
 10
44.969884
 20
43.715965
 30
0.0
 10
45.075994
 20
43.833244
 30
0.0
  0
SPLINE
  5
21c
100
AcDbEntity
  8
0
 62
5
100
AcDbSpline
 70
8
 71
3
 72
8
 73
4
 74
0
 40
0
 40
0
 40
0
 40
0
 40
1
 40
1
 40
1
 40
1
 10
45.075994
 20
43.833244
 30
0.0
 10
45.220913
 20
44.001044
 30
0.0
 10
45.347935
 20
44.213537
 30
0.0
 10
45.464050
 20
44.459425
 30
0.0
  0
SPLINE
  5
21d
100
AcDbEntity
  8
0
 62
5
100
AcDbSpline
 70
8
 71
3
 72
8
 73
4
 74
0
 40
0
 40
0
 40
0
 40
0
 40
1
 40
1
 40
1
 40
1
 10
45.464050
 20
44.459425
 30
0.0
 10
45.587017
 20
44.727063
 30
0.0
 10
45.658075
 20
44.999302
 30
0.0
 10
45.658078
 20
45.270813
 30
0.0
  0
SPLINE
  5
21e
100
AcDbEntity
  8
0
 62
5
100
AcDbSpline
 70
8
 71
3
 72
8
 73
4
 74
0
 40
0
 40
0
 40
0
 40
0
 40
1
 40
1
 40
1
 40
1
 10
45.658078
 20
45.270813
 30
0.0
 10
45.658075
 20
45.729711
 30
0.0
 10
45.439197
 20
46.143207
 30
0.0
 10
45.058355
 20
46.399702
 30
0.0
  0
SPLINE
  5
21f
100
AcDbEntity
  8
0
 62
5
100
AcDbSpline
 70
8
 71
3
 72
8
 73
4
 74
0
 40
0
 40
0
 40
0
 40
0
 40
1
 40
1
 40
1
 40
1
 10
45.058355
 20
46.399702
 30
0.0
 10
44.681967
 20
46.660860
 30
0.0
 10
44.199711
 20
46.778931
 30
0.0
 10
43.638425
 20
46.778938
 30
0.0
  0
LINE
  5
220
100
AcDbEntity
  8
0
 62
5
100
AcDbLine
 10
43.638425
 20
46.778938
 30
0.0
 11
43.638368
 21
46.778938
 31
0.0
  0
ENDSEC
  0
SECTION
  2
OBJECTS
  0
DICTIONARY
  5
C
330
0
100
AcDbDictionary
  3
ACAD_GROUP
350
D
  3
ACAD_MLINESTYLE
350
17
  0
DICTIONARY
  5
D
330
C
100
AcDbDictionary
  0
DICTIONARY
  5
1A
330
C
100
AcDbDictionary
  0
DICTIONARY
  5
17
330
C
100
AcDbDictionary
  3
STANDARD
350
18
  0
DICTIONARY
  5
19
330
C
100
AcDbDictionary
  0
ENDSEC
  0
EOF
