<?xml version="1.0" encoding="UTF-8" standalone="no"?>
<!-- Created with Inkscape (http://www.inkscape.org/) -->
<svg
   xmlns:dc="http://purl.org/dc/elements/1.1/"
   xmlns:cc="http://creativecommons.org/ns#"
   xmlns:rdf="http://www.w3.org/1999/02/22-rdf-syntax-ns#"
   xmlns:svg="http://www.w3.org/2000/svg"
   xmlns="http://www.w3.org/2000/svg"
   xmlns:sodipodi="http://sodipodi.sourceforge.net/DTD/sodipodi-0.dtd"
   xmlns:inkscape="http://www.inkscape.org/namespaces/inkscape"
   version="1.0"
   width="6377.9526"
   height="826.828"
   id="svg2"
   sodipodi:version="0.32"
   inkscape:version="0.46"
   sodipodi:docname="logo-schrift2-bl.svg"
   inkscape:output_extension="org.inkscape.output.svg.inkscape">
  <metadata
     id="metadata8">
    <rdf:RDF>
      <cc:Work
         rdf:about="">
        <dc:format>image/svg+xml</dc:format>
        <dc:type
           rdf:resource="http://purl.org/dc/dcmitype/StillImage" />
      </cc:Work>
    </rdf:RDF>
  </metadata>
  <sodipodi:namedview
     inkscape:window-height="1140"
     inkscape:window-width="1910"
     inkscape:pageshadow="2"
     inkscape:pageopacity="0.0"
     guidetolerance="10.0"
     gridtolerance="10.0"
     objecttolerance="10.0"
     borderopacity="1.0"
     bordercolor="#666666"
     pagecolor="#ffffff"
     id="base"
     showgrid="false"
     inkscape:zoom="0.21668395"
     inkscape:cx="3188.9764"
     inkscape:cy="413.414"
     inkscape:window-x="5"
     inkscape:window-y="55"
     inkscape:current-layer="svg2"
     showborder="false"
     inkscape:showpageshadow="false" />
  <defs
     id="defs4">
    <inkscape:perspective
       sodipodi:type="inkscape:persp3d"
       inkscape:vp_x="0 : 380.90848 : 1"
       inkscape:vp_y="0 : 1000 : 0"
       inkscape:vp_z="637.79529 : 380.90848 : 1"
       inkscape:persp3d-origin="318.89764 : 253.93899 : 1"
       id="perspective10" />
  </defs>
  <path
     style="fill:#ffffff;fill-opacity:1;stroke:none;stroke-width:0.98720366000000004;stroke-linejoin:round;stroke-miterlimit:4;stroke-dasharray:none;stroke-opacity:1"
     id="rect3134"
     d="M 5959.2156,0.00769 C 5733.4643,2.87046 5551.1326,186.99145 5551.1326,413.41784 C 5551.1326,641.62713 5736.3334,826.828 5964.5429,826.828 C 6192.752,826.828 6377.9528,641.62717 6377.9528,413.41784 C 6377.9528,411.63496 6377.9354,409.86807 6377.9127,408.09047 L 6377.9127,82.32119 C 6376.9965,36.94143 6340.0758,0.34946 6294.5581,0.00769 L 5964.5429,0.00769 C 5963.9128,0.00769 5963.2874,0.01034 5962.6602,0.00769 C 5961.5126,0.00285 5960.3649,-0.00686 5959.2156,0.00769 z M 6273.2085,61.9331 C 6286.2563,61.93318 6296.0319,64.07764 6302.489,68.38198 C 6308.9899,72.64168 6312.222,79.07977 6312.222,87.68862 C 6312.222,93.56249 6310.6696,98.38224 6307.5756,102.14856 C 6304.4816,105.87016 6299.93,108.47491 6293.8768,109.99938 C 6300.6472,111.74816 6305.7607,114.7827 6309.2578,119.13198 C 6312.7999,123.43641 6314.5855,128.95391 6314.5855,135.63473 C 6314.5851,145.58882 6310.7519,153.14488 6303.1298,158.34608 C 6295.5068,163.50243 6284.4211,166.07671 6269.8037,166.07671 C 6264.6471,166.07671 6259.4633,165.68691 6254.2626,164.83498 C 6249.1061,164.02787 6243.988,162.76886 6238.9212,161.10987 L 6238.9212,141.16236 C 6243.7635,143.5836 6248.548,145.39448 6253.301,146.64993 C 6258.0987,147.86058 6262.8219,148.49252 6267.4406,148.49248 C 6274.3008,148.49252 6279.5503,147.304 6283.1821,144.92757 C 6286.8586,142.55114 6288.6694,139.11236 6288.6698,134.67341 C 6288.6698,130.09998 6286.7884,126.67075 6283.0217,124.33914 C 6279.3002,121.96279 6273.7877,120.77427 6266.4794,120.77423 L 6256.1449,120.77423 L 6256.1449,104.07119 L 6267.0396,104.07119 C 6273.5413,104.07131 6278.3559,103.08482 6281.5401,101.06707 C 6284.7229,99.00451 6286.3464,95.86413 6286.3464,91.69411 C 6286.3464,87.83815 6284.794,84.86926 6281.7001,82.7618 C 6278.6061,80.65447 6274.2115,79.59753 6268.5618,79.59745 C 6264.3921,79.59753 6260.2042,80.05787 6255.9448,80.99938 C 6251.685,81.94105 6247.4218,83.36688 6243.2071,85.2052 L 6243.2071,66.219 C 6248.3185,64.78429 6253.4064,63.69205 6258.4282,62.97453 C 6263.4495,62.25725 6268.3658,61.93318 6273.2085,61.9331 z M 5966.7059,94.57808 C 6043.686,95.22843 6119.7877,124.78707 6177.5164,175.60987 C 6263.929,250.29497 6300.3591,374.35717 6275.9321,485.19685 C 6254.5817,588.40785 6174.7734,674.5577 6076.9378,711.3888 C 5975.4082,752.36308 5853.4466,732.67337 5768.0315,664.88464 C 5673.2241,592.43483 5627.3719,463.85952 5651.4707,347.32667 C 5680.1083,206.12438 5814.8709,95.28957 5959.2553,94.61819 C 5961.7399,94.57875 5964.2225,94.55712 5966.7059,94.57808 z M 6123.1562,351.85215 C 6113.3025,347.24031 6103.4496,343.88603 6093.5967,341.78932 C 6083.9526,339.48355 6074.2047,338.33049 6064.3514,338.33025 C 6035.4207,338.33049 6013.0938,347.65959 5997.3704,366.31755 C 5981.8567,384.76631 5974.1002,411.28599 5974.1006,445.87676 L 5974.1006,608.13997 L 5861.5222,608.13997 L 5861.5222,255.9408 L 5974.1006,255.9408 L 5974.1006,313.80206 C 5988.5656,290.7417 6005.1273,273.97033 6023.7859,263.48788 C 6042.6533,252.7965 6065.1898,247.4506 6091.3953,247.45023 C 6095.1689,247.4506 6099.2567,247.66025 6103.6596,248.07916 C 6108.0616,248.28917 6114.4555,248.9181 6122.8416,249.96598 L 6123.1562,351.85215" />
  <path
     style="font-size:30.28391075000000043px;font-style:normal;font-variant:normal;font-weight:bold;font-stretch:normal;text-align:start;line-height:100%;writing-mode:lr-tb;text-anchor:start;fill:#ffffff;fill-opacity:1;stroke:none;stroke-width:1px;stroke-linecap:butt;stroke-linejoin:miter;stroke-opacity:1;font-family:ae_AlMothnna"
     id="text5129"
     d="M 434.01971,386.54846 C 417.67382,378.89827 401.32867,373.3338 384.98377,369.85542 C 368.98584,366.03051 352.81445,364.11773 336.46968,364.1174 C 288.47669,364.11773 251.43897,379.59351 225.3564,410.54499 C 199.62092,441.14908 186.75341,485.14245 186.75366,542.52427 L 186.75366,811.70007 L 0,811.70007 L 0,227.44298 L 186.75366,227.44298 L 186.75366,323.42808 C 210.74969,285.17372 238.22374,257.35158 269.17567,239.96277 C 300.47479,222.22681 337.86028,213.35858 381.33216,213.35825 C 387.59162,213.35858 394.37314,213.70651 401.67689,214.40134 C 408.9796,214.74951 419.5866,215.79305 433.49811,217.53117 L 434.01971,386.54846 M 1111.1321,518.00642 L 1111.1321,571.21561 L 674.50421,571.21561 C 679.0251,615.0351 694.8486,647.89969 721.97492,669.8091 C 749.10088,691.71885 787.00825,702.67378 835.69652,702.67345 C 874.99437,702.67378 915.16196,696.93551 956.19946,685.45881 C 997.58402,673.63459 1040.0122,655.89834 1083.4843,632.2497 L 1083.4843,776.22733 C 1039.3166,792.92053 995.14955,805.44003 950.98296,813.78673 C 906.81551,822.48103 862.64859,826.828 818.48187,826.828 C 712.75897,826.828 630.5108,800.04977 571.73755,746.49294 C 513.31161,692.58813 484.09886,617.12172 484.09895,520.09317 C 484.09886,424.80405 512.79009,349.85908 570.17261,295.25821 C 627.90269,240.65887 707.19459,213.35858 808.04879,213.35825 C 899.86015,213.35858 973.23981,241.00668 1028.1884,296.30171 C 1083.4836,351.59802 1111.1313,425.49933 1111.1321,518.00642 M 919.16174,455.92908 C 919.16141,420.45676 908.72825,391.93937 887.86246,370.37702 C 867.34332,348.46807 840.39096,337.51309 807.00521,337.5128 C 770.83678,337.51309 741.44995,347.7725 718.84521,368.29048 C 696.23965,388.46161 682.15489,417.67481 676.59087,455.92908 L 919.16174,455.92908 M 1513.8524,548.78447 C 1474.9016,548.7848 1445.5146,555.39223 1425.692,568.60738 C 1406.2163,581.82299 1396.479,601.29814 1396.4792,627.0332 C 1396.479,650.68176 1404.3039,669.28729 1419.9535,682.85025 C 1435.9512,696.06581 1458.0345,702.67378 1486.2043,702.67345 C 1521.3288,702.67378 1550.8897,690.15399 1574.8861,665.11396 C 1598.8822,639.72683 1610.8803,608.07966 1610.8807,570.17236 L 1610.8807,548.78447 L 1513.8524,548.78447 M 1799.1993,478.36026 L 1799.1993,811.70007 L 1610.8807,811.70007 L 1610.8807,725.10496 C 1585.8406,760.57762 1557.6712,786.48657 1526.3722,802.83188 C 1495.072,818.82943 1456.9914,826.828 1412.129,826.828 C 1351.6162,826.828 1302.4065,809.26564 1264.4997,774.14066 C 1226.9402,738.66784 1208.1603,692.76206 1208.1606,636.42307 C 1208.1603,567.91202 1231.635,517.65894 1278.5844,485.66355 C 1325.8813,453.66887 1399.9566,437.67127 1500.8108,437.67094 L 1610.8807,437.67094 L 1610.8807,423.06486 C 1610.8803,393.50427 1599.2298,371.94275 1575.9297,358.37901 C 1552.6285,344.46857 1516.2862,337.51309 1466.903,337.5128 C 1426.909,337.51309 1389.6974,341.51266 1355.2682,349.51094 C 1320.8386,357.51009 1288.8436,369.50819 1259.2831,385.50545 L 1259.2831,243.0926 C 1299.2767,233.35554 1339.4442,226.05229 1379.7861,221.1829 C 1420.1275,215.96698 1460.469,213.35858 1500.8108,213.35825 C 1606.1852,213.35858 1682.1733,234.22483 1728.7756,275.95678 C 1775.7242,317.34229 1799.1985,384.81001 1799.1993,478.36026 M 1973.9549,0 L 2160.7086,0 L 2160.7086,811.70007 L 1973.9549,811.70007 L 1973.9549,0 M 2775.2219,386.54846 C 2758.8762,378.89827 2742.5308,373.3338 2726.1861,369.85542 C 2710.1879,366.03051 2694.0164,364.11773 2677.6718,364.1174 C 2629.679,364.11773 2592.6413,379.59351 2566.5585,410.54499 C 2540.8232,441.14908 2527.9554,485.14245 2527.9558,542.52427 L 2527.9558,811.70007 L 2341.2021,811.70007 L 2341.2021,227.44298 L 2527.9558,227.44298 L 2527.9558,323.42808 C 2551.952,285.17372 2579.4257,257.35158 2610.3779,239.96277 C 2641.677,222.22681 2679.0625,213.35858 2722.5345,213.35825 C 2728.7939,213.35858 2735.5753,213.70651 2742.879,214.40134 C 2750.1819,214.74951 2760.7889,215.79305 2774.7001,217.53117 L 2775.2219,386.54846 M 3130.9928,548.78447 C 3092.042,548.7848 3062.6555,555.39223 3042.8328,568.60738 C 3023.3572,581.82299 3013.6197,601.29814 3013.6197,627.0332 C 3013.6197,650.68176 3021.4444,669.28729 3037.0944,682.85025 C 3053.0916,696.06581 3075.1752,702.67378 3103.3451,702.67345 C 3138.4697,702.67378 3168.0301,690.15399 3192.027,665.11396 C 3216.0227,639.72683 3228.0211,608.07966 3228.0215,570.17236 L 3228.0215,548.78447 L 3130.9928,548.78447 M 3416.3402,478.36026 L 3416.3402,811.70007 L 3228.0215,811.70007 L 3228.0215,725.10496 C 3202.9814,760.57762 3174.812,786.48657 3143.5126,802.83188 C 3112.213,818.82943 3074.1321,826.828 3029.2698,826.828 C 2968.7571,826.828 2919.5474,809.26564 2881.6405,774.14066 C 2844.081,738.66784 2825.3012,692.76206 2825.3012,636.42307 C 2825.3012,567.91202 2848.7758,517.65894 2895.7252,485.66355 C 2943.0221,453.66887 3017.0974,437.67127 3117.9516,437.67094 L 3228.0215,437.67094 L 3228.0215,423.06486 C 3228.0211,393.50427 3216.3706,371.94275 3193.0705,358.37901 C 3169.7694,344.46857 3133.4271,337.51309 3084.0438,337.5128 C 3044.0498,337.51309 3006.8382,341.51266 2972.409,349.51094 C 2937.9795,357.51009 2905.9844,369.50819 2876.4238,385.50545 L 2876.4238,243.0926 C 2916.4174,233.35554 2956.5852,226.05229 2996.9268,221.1829 C 3037.268,215.96698 3077.6098,213.35858 3117.9516,213.35825 C 3223.326,213.35858 3299.3141,234.22483 3345.9163,275.95678 C 3392.8646,317.34229 3416.3393,384.81001 3416.3402,478.36026 M 3584.8357,584.25705 L 3584.8357,227.44298 L 3772.6324,227.44298 L 3772.6324,285.86863 C 3772.6321,317.51621 3772.4581,357.33621 3772.1108,405.32849 C 3771.7628,452.9735 3771.5889,484.79464 3771.5892,500.79174 C 3771.5889,547.74118 3772.806,581.64898 3775.2408,602.51527 C 3777.6748,623.034 3781.848,637.98793 3787.7604,647.37759 C 3795.4111,659.54995 3805.3227,668.93982 3817.4952,675.54733 C 3830.0146,682.15497 3844.2732,685.45881 3860.2711,685.45881 C 3899.2212,685.45881 3929.8248,670.5048 3952.0829,640.59607 C 3974.3397,610.68813 3985.4686,569.12919 3985.469,515.91967 L 3985.469,227.44298 L 4172.2225,227.44298 L 4172.2225,811.70007 L 3985.469,811.70007 L 3985.469,727.19126 C 3957.299,761.2729 3927.3907,786.48657 3895.7439,802.83188 C 3864.4438,818.82943 3829.8407,826.828 3791.9338,826.828 C 3724.4657,826.828 3672.9957,806.13572 3637.5229,764.75079 C 3602.3977,723.3661 3584.8353,663.20155 3584.8357,584.25705 M 4894.1971,324.47124 C 4917.8456,288.30364 4945.8412,260.82938 4978.1846,242.0491 C 5010.8745,222.92242 5046.6952,213.35858 5085.6466,213.35825 C 5152.7656,213.35858 5203.8884,234.05124 5239.0141,275.43551 C 5274.1382,316.82077 5291.7,376.98549 5291.7017,455.92908 L 5291.7017,811.70007 L 5103.9047,811.70007 L 5103.9047,507.05157 C 5104.2515,502.53101 5104.4256,497.83591 5104.4264,492.9668 C 5104.7732,488.09844 5104.9469,481.143 5104.9477,472.1006 C 5104.9469,430.71591 5098.861,400.80756 5086.6893,382.37521 C 5074.5171,363.59604 5054.8676,354.20638 5027.7418,354.20571 C 4992.2688,354.20638 4964.7954,368.8125 4945.3199,398.02516 C 4926.1924,427.23819 4916.2808,469.49245 4915.5855,524.7879 L 4915.5855,811.70007 L 4727.7889,811.70007 L 4727.7889,507.05157 C 4727.7884,442.36646 4722.2239,400.80756 4711.0956,382.37521 C 4699.9665,363.59604 4680.1437,354.20638 4651.6268,354.20571 C 4615.8058,354.20638 4588.1583,368.98646 4568.6832,398.54656 C 4549.2077,427.76 4539.4697,469.66629 4539.4701,524.26654 L 4539.4701,811.70007 L 4351.6735,811.70007 L 4351.6735,227.44298 L 4539.4701,227.44298 L 4539.4701,312.99462 C 4562.4228,279.95722 4588.6796,255.09144 4618.2408,238.39737 C 4648.1488,221.70492 4681.0131,213.35858 4716.8338,213.35825 C 4757.1752,213.35858 4792.8218,223.09638 4823.7741,242.57087 C 4854.7247,262.0468 4878.2,289.34664 4894.1971,324.47124" />
</svg>
