<?xml version="1.0" encoding="UTF-8" standalone="no"?>
<!-- Created with Inkscape (http://www.inkscape.org/) -->
<svg
   xmlns:dc="http://purl.org/dc/elements/1.1/"
   xmlns:cc="http://creativecommons.org/ns#"
   xmlns:rdf="http://www.w3.org/1999/02/22-rdf-syntax-ns#"
   xmlns:svg="http://www.w3.org/2000/svg"
   xmlns="http://www.w3.org/2000/svg"
   xmlns:sodipodi="http://sodipodi.sourceforge.net/DTD/sodipodi-0.dtd"
   xmlns:inkscape="http://www.inkscape.org/namespaces/inkscape"
   version="1.0"
   width="265.74802"
   height="317.21805"
   id="svg2"
   sodipodi:version="0.32"
   inkscape:version="0.46"
   sodipodi:docname="logo-tshirt.svg"
   inkscape:output_extension="org.inkscape.output.svg.inkscape">
  <metadata
     id="metadata8">
    <rdf:RDF>
      <cc:Work
         rdf:about="">
        <dc:format>image/svg+xml</dc:format>
        <dc:type
           rdf:resource="http://purl.org/dc/dcmitype/StillImage" />
      </cc:Work>
    </rdf:RDF>
  </metadata>
  <sodipodi:namedview
     inkscape:window-height="1175"
     inkscape:window-width="1919"
     inkscape:pageshadow="2"
     inkscape:pageopacity="0"
     guidetolerance="10.0"
     gridtolerance="10.0"
     objecttolerance="10.0"
     borderopacity="1.0"
     bordercolor="#666666"
     pagecolor="#000000"
     id="base"
     showgrid="false"
     inkscape:zoom="3.0073951"
     inkscape:cx="132.87402"
     inkscape:cy="158.60903"
     inkscape:window-x="1921"
     inkscape:window-y="24"
     inkscape:current-layer="svg2"
     showborder="false"
     inkscape:showpageshadow="false"
     units="cm" />
  <defs
     id="defs4" />
  <path
     style="fill:#ffffff;fill-opacity:1;stroke:none;stroke-width:0.98720366;stroke-linejoin:round;stroke-miterlimit:4;stroke-dasharray:none;stroke-opacity:1"
     id="rect3134"
     d="M 131.1644,0.0024717558 C 58.718084,0.92115176 0.20566749,60.007822 0.20566749,132.67081 C 0.20566749,205.90594 59.638884,265.33915 132.87401,265.33915 C 206.10914,265.33915 265.54235,205.90595 265.54235,132.67081 C 265.54235,132.09865 265.53673,131.53164 265.52949,130.9612 L 265.52949,26.417872 C 265.23541,11.854952 253.38707,0.11214176 238.77987,0.0024717558 L 132.87401,0.0024717558 C 132.67182,0.0024717558 132.47114,0.0033117558 132.26986,0.0024717558 C 131.90156,0.0009117558 131.53326,-0.0022082442 131.1644,0.0024717558 z M 231.92858,19.875082 C 236.1158,19.875112 239.25297,20.563292 241.32501,21.944612 C 243.41141,23.311602 244.44855,25.377662 244.44859,28.140342 C 244.44854,30.025342 243.95032,31.572062 242.9575,32.780712 C 241.96463,33.975032 240.50385,34.810932 238.56135,35.300132 C 240.73407,35.861332 242.375,36.835162 243.49737,38.230902 C 244.63407,39.612252 245.20697,41.382882 245.20698,43.526832 C 245.20696,46.721222 243.9768,49.146052 241.53068,50.815172 C 239.08451,52.469912 235.5268,53.296032 230.83597,53.296032 C 229.18123,53.296032 227.51766,53.170952 225.84854,52.897552 C 224.19379,52.638542 222.55133,52.234502 220.92537,51.702112 L 220.92537,45.300712 C 222.47938,46.077732 224.01479,46.658852 225.54004,47.061742 C 227.07967,47.450252 228.59549,47.653052 230.07758,47.653032 C 232.27909,47.653052 233.96374,47.271642 235.12928,46.509012 C 236.30916,45.746392 236.89029,44.642852 236.89031,43.218332 C 236.8903,41.750662 236.28653,40.650182 235.07786,39.901942 C 233.88357,39.139332 232.11448,38.757932 229.76907,38.757922 L 226.45268,38.757922 L 226.45268,33.397712 L 229.94903,33.397712 C 232.03542,33.397742 233.58061,33.081172 234.60226,32.433652 C 235.62385,31.771762 236.14475,30.763962 236.14476,29.425762 C 236.14476,28.188332 235.6465,27.235582 234.65367,26.559272 C 233.66082,25.883002 232.2505,25.543822 230.43749,25.543782 C 229.09929,25.543822 227.75538,25.691542 226.38841,25.993682 C 225.02147,26.295882 223.65335,26.753442 222.30078,27.343382 L 222.30078,21.250482 C 223.94113,20.790062 225.5738,20.439552 227.18538,20.209292 C 228.79693,19.979102 230.37455,19.875112 231.92858,19.875082 z M 133.56813,30.351262 C 158.27208,30.559972 182.69407,40.045682 201.21986,56.355342 C 228.95073,80.322692 240.64165,120.13576 232.80267,155.70556 C 225.95108,188.82723 200.33968,216.47377 168.94293,228.2933 C 136.36084,241.44244 97.221953,235.12379 69.811234,213.36956 C 39.38634,190.11954 24.67182,148.85816 32.405473,111.46135 C 41.595473,66.147812 84.842554,30.579582 131.17725,30.364122 C 131.97456,30.351472 132.77123,30.344532 133.56813,30.351262 z M 183.77498,112.91363 C 180.61287,111.43363 177.45087,110.35721 174.28894,109.68435 C 171.19413,108.94439 168.06577,108.57436 164.90384,108.57428 C 155.61956,108.57436 148.4546,111.56818 143.4089,117.55574 C 138.43037,123.47618 135.94113,131.98667 135.94118,143.08727 L 135.94118,195.15951 L 99.813545,195.15951 L 99.813545,82.134502 L 135.94118,82.134502 L 135.94118,100.70289 C 140.58322,93.302552 145.89809,87.920412 151.88579,84.556462 C 157.94061,81.125472 165.17287,79.409902 173.58254,79.409792 C 174.79344,79.409902 176.10534,79.477182 177.51823,79.611622 C 178.93096,79.679022 180.9829,79.880852 183.67407,80.217122 L 183.77498,112.91363" />
  <path
     style="font-size:30.28391075px;font-style:normal;font-variant:normal;font-weight:bold;font-stretch:normal;text-align:start;line-height:100%;writing-mode:lr-tb;text-anchor:start;fill:#ffffff;fill-opacity:1;stroke:none;stroke-width:1px;stroke-linecap:butt;stroke-linejoin:miter;stroke-opacity:1;font-family:ae_AlMothnna"
     id="text5129"
     d="M 21.79637,295.1073 C 20.975482,294.72311 20.154632,294.44367 19.333795,294.26898 C 18.530382,294.0769 17.718262,293.98084 16.897428,293.98082 C 14.487233,293.98084 12.627208,294.75803 11.317345,296.3124 C 10.024916,297.84933 9.3787132,300.05867 9.3787257,302.94037 L 9.3787257,316.45832 L 0,316.45832 L 0,287.11706 L 9.3787257,287.11706 L 9.3787257,291.93741 C 10.583799,290.01629 11.963541,288.61907 13.517941,287.7458 C 15.089774,286.85511 16.967266,286.40975 19.150411,286.40973 C 19.464761,286.40975 19.805328,286.42722 20.17212,286.46212 C 20.538861,286.4796 21.071541,286.53201 21.770174,286.6193 L 21.79637,295.1073 M 55.800793,301.70909 L 55.800793,304.38124 L 33.873444,304.38124 C 34.100481,306.58185 34.895136,308.2323 36.257415,309.33259 C 37.619673,310.43289 39.523373,310.98304 41.968485,310.98303 C 43.942014,310.98304 45.959223,310.69487 48.020114,310.11851 C 50.098439,309.5247 52.229172,308.63399 54.41233,307.44636 L 54.41233,314.67689 C 52.194239,315.51522 49.976181,316.14394 47.758143,316.56311 C 45.540064,316.99974 43.32201,317.21804 41.103969,317.21804 C 35.79459,317.21804 31.664107,315.87324 28.712528,313.18363 C 25.77839,310.47654 24.311332,306.68664 24.311336,301.81389 C 24.311332,297.02849 25.752199,293.26477 28.633936,290.52273 C 31.533127,287.78076 35.515148,286.40975 40.580023,286.40973 C 45.190768,286.40975 48.875877,287.79823 51.635385,290.57513 C 54.412293,293.3521 55.800755,297.06341 55.800793,301.70909 M 46.160089,298.59158 C 46.160073,296.81017 45.636123,295.37803 44.588248,294.29518 C 43.557781,293.19492 42.204239,292.64476 40.527614,292.64475 C 38.711244,292.64476 37.235444,293.15998 36.10024,294.19039 C 34.964994,295.20338 34.257661,296.67046 33.978236,298.59158 L 46.160089,298.59158 M 76.025317,303.25476 C 74.069217,303.25477 72.593409,303.5866 71.597921,304.25026 C 70.619855,304.91394 70.13085,305.89198 70.130863,307.18439 C 70.13085,308.37202 70.523817,309.30638 71.309738,309.98751 C 72.113134,310.65119 73.222154,310.98304 74.636833,310.98303 C 76.400779,310.98304 77.885321,310.3543 79.090417,309.0968 C 80.295492,307.82186 80.898033,306.23255 80.898054,304.32885 L 80.898054,303.25476 L 76.025317,303.25476 M 90.35537,299.71807 L 90.35537,316.45832 L 80.898054,316.45832 L 80.898054,312.10953 C 79.64055,313.89096 78.225883,315.1921 76.654058,316.01296 C 75.082171,316.81635 73.169767,317.21804 70.916788,317.21804 C 67.877851,317.21804 65.406551,316.33606 63.50288,314.57209 C 61.616651,312.79066 60.67353,310.48528 60.673547,307.65595 C 60.67353,304.21534 61.852422,301.69164 64.210213,300.08484 C 66.585451,298.47807 70.305496,297.67468 75.370371,297.67466 L 80.898054,297.67466 L 80.898054,296.94115 C 80.898033,295.45662 80.31295,294.37381 79.142825,293.69264 C 77.972642,292.99406 76.147542,292.64476 73.667529,292.64475 C 71.659042,292.64476 69.790284,292.84562 68.061255,293.24729 C 66.332209,293.649 64.725426,294.25155 63.240905,295.05492 L 63.240905,287.90298 C 65.249376,287.41399 67.26658,287.04722 69.292538,286.80268 C 71.318475,286.54074 73.344413,286.40975 75.370371,286.40973 C 80.66225,286.40975 84.47835,287.45765 86.818708,289.55342 C 89.176458,291.63179 90.355333,295.02 90.35537,299.71807 M 99.131557,275.69493 L 108.51028,275.69493 L 108.51028,316.45832 L 99.131557,316.45832 L 99.131557,275.69493 M 139.371,295.1073 C 138.55012,294.72311 137.72926,294.44367 136.90843,294.26898 C 136.10501,294.0769 135.29288,293.98084 134.47206,293.98082 C 132.06187,293.98084 130.20184,294.75803 128.89197,296.3124 C 127.59955,297.84933 126.95333,300.05867 126.95335,302.94037 L 126.95335,316.45832 L 117.57463,316.45832 L 117.57463,287.11706 L 126.95335,287.11706 L 126.95335,291.93741 C 128.15843,290.01629 129.53816,288.61907 131.09257,287.7458 C 132.66441,286.85511 134.5419,286.40975 136.72505,286.40973 C 137.0394,286.40975 137.37996,286.42722 137.74675,286.46212 C 138.1135,286.4796 138.64618,286.53201 139.3448,286.6193 L 139.371,295.1073 M 157.23773,303.25476 C 155.28163,303.25477 153.80585,303.5866 152.81035,304.25026 C 151.8323,304.91394 151.34328,305.89198 151.34328,307.18439 C 151.34328,308.37202 151.73624,309.30638 152.52218,309.98751 C 153.32555,310.65119 154.43459,310.98304 155.84927,310.98303 C 157.61322,310.98304 159.09774,310.3543 160.30285,309.0968 C 161.50792,307.82186 162.11047,306.23255 162.11049,304.32885 L 162.11049,303.25476 L 157.23773,303.25476 M 171.56781,299.71807 L 171.56781,316.45832 L 162.11049,316.45832 L 162.11049,312.10953 C 160.85298,313.89096 159.43832,315.1921 157.86647,316.01296 C 156.29461,316.81635 154.3822,317.21804 152.12923,317.21804 C 149.09029,317.21804 146.61899,316.33606 144.71532,314.57209 C 142.82909,312.79066 141.88597,310.48528 141.88597,307.65595 C 141.88597,304.21534 143.06486,301.69164 145.42265,300.08484 C 147.79789,298.47807 151.51793,297.67468 156.58281,297.67466 L 162.11049,297.67466 L 162.11049,296.94115 C 162.11047,295.45662 161.52538,294.37381 160.35526,293.69264 C 159.18508,292.99406 157.35998,292.64476 154.87996,292.64475 C 152.87148,292.64476 151.00272,292.84562 149.27369,293.24729 C 147.54465,293.649 145.93786,294.25155 144.45334,295.05492 L 144.45334,287.90298 C 146.46181,287.41399 148.47902,287.04722 150.50497,286.80268 C 152.53089,286.54074 154.55685,286.40975 156.58281,286.40973 C 161.87468,286.40975 165.69079,287.45765 168.03114,289.55342 C 170.38887,291.63179 171.56777,295.02 171.56781,299.71807 M 180.02962,305.03618 L 180.02962,287.11706 L 189.46073,287.11706 L 189.46073,290.05119 C 189.46071,291.64052 189.45197,293.64027 189.43453,296.05043 C 189.41705,298.44315 189.40832,300.0412 189.40834,300.84457 C 189.40832,303.20237 189.46944,304.90521 189.59172,305.95311 C 189.71395,306.98355 189.92353,307.73454 190.22045,308.20608 C 190.60466,308.81737 191.10243,309.28893 191.71372,309.62076 C 192.34244,309.95259 193.05851,310.11851 193.86192,310.11851 C 195.81799,310.11851 197.35489,309.36752 198.47269,307.86552 C 199.59042,306.36354 200.14931,304.27647 200.14933,301.6043 L 200.14933,287.11706 L 209.52806,287.11706 L 209.52806,316.45832 L 200.14933,316.45832 L 200.14933,312.21431 C 198.73464,313.92588 197.23265,315.1921 195.64336,316.01296 C 194.07147,316.81635 192.33371,317.21804 190.43004,317.21804 C 187.0418,317.21804 184.45699,316.17888 182.67556,314.10054 C 180.91158,312.02221 180.0296,309.00076 180.02962,305.03618 M 245.78545,291.9898 C 246.97307,290.17347 248.37899,288.79372 250.00328,287.85058 C 251.64495,286.89004 253.44387,286.40975 255.39999,286.40973 C 258.7707,286.40975 261.33807,287.44893 263.10207,289.52724 C 264.86599,291.6056 265.74795,294.62705 265.74803,298.59158 L 265.74803,316.45832 L 256.31691,316.45832 L 256.31691,301.15894 C 256.33432,300.93192 256.34307,300.69613 256.34312,300.45161 C 256.36053,300.20712 256.36924,299.85782 256.36928,299.40371 C 256.36924,297.32538 256.06362,295.82339 255.45237,294.89772 C 254.84107,293.95464 253.85428,293.48309 252.49203,293.48306 C 250.71057,293.48309 249.33087,294.21661 248.35282,295.68366 C 247.39224,297.15073 246.89449,299.27273 246.85957,302.04966 L 246.85957,316.45832 L 237.42846,316.45832 L 237.42846,301.15894 C 237.42844,297.91047 237.149,295.82339 236.59013,294.89772 C 236.03123,293.95464 235.03573,293.48309 233.60362,293.48306 C 231.8047,293.48309 230.41623,294.22535 229.43821,295.70985 C 228.46015,297.17694 227.97112,299.28146 227.97114,302.02347 L 227.97114,316.45832 L 218.54003,316.45832 L 218.54003,287.11706 L 227.97114,287.11706 L 227.97114,291.41345 C 229.12382,289.75432 230.44242,288.50556 231.92698,287.66719 C 233.42895,286.8289 235.07938,286.40975 236.8783,286.40973 C 238.90422,286.40975 240.69441,286.89878 242.24882,287.87678 C 243.80316,288.85486 244.98207,290.22585 245.78545,291.9898" />
</svg>
