  0
SECTION
  2
HEADER
  9
$ACADVER
  1
AC1014
  9
$HANDSEED
  5
FFFF
  9
$MEASUREMENT
 70
     1
  0
ENDSEC
  0
SECTION
  2
TABLES
  0
TABLE
  2
VPORT
  5
8
330
0
100
AcDbSymbolTable
 70
     4
  0
VPORT
  5
2E
330
8
100
AcDbSymbolTableRecord
100
AcDbViewportTableRecord
  2
*ACTIVE
 70
     0
 10
0.0
 20
0.0
 11
1.0
 21
1.0
 12
210.0
 22
148.5
 13
0.0
 23
0.0
 14
10.0
 24
10.0
 15
10.0
 25
10.0
 16
0.0
 26
0.0
 36
1.0
 17
0.0
 27
0.0
 37
0.0
 40
341.0
 41
1.24
 42
50.0
 43
0.0
 44
0.0
 50
0.0
 51
0.0
 71
     0
 72
   100
 73
     1
 74
     3
 75
     0
 76
     0
 77
     0
 78
     0
  0
ENDTAB
  0
TABLE
  2
LTYPE
  5
5
330
0
100
AcDbSymbolTable
 70
     1
  0
LTYPE
  5
14
330
5
100
AcDbSymbolTableRecord
100
AcDbLinetypeTableRecord
  2
BYBLOCK
 70
     0
  3

 72
    65
 73
     0
 40
0.0
  0
LTYPE
  5
15
330
5
100
AcDbSymbolTableRecord
100
AcDbLinetypeTableRecord
  2
BYLAYER
 70
     0
  3

 72
    65
 73
     0
 40
0.0
  0
LTYPE
  5
16
330
5
100
AcDbSymbolTableRecord
100
AcDbLinetypeTableRecord
  2
CONTINUOUS
 70
     0
  3
Solid line
 72
    65
 73
     0
 40
0.0
  0
ENDTAB
  0
TABLE
  2
LAYER
  5
2
100
AcDbSymbolTable
 70
1
  0
LAYER
  5
50
100
AcDbSymbolTableRecord
100
AcDbLayerTableRecord
  2
0
 70
0
  6
CONTINUOUS
  0
ENDTAB
  0
TABLE
  2
STYLE
  5
3
330
0
100
AcDbSymbolTable
 70
     1
  0
STYLE
  5
11
330
3
100
AcDbSymbolTableRecord
100
AcDbTextStyleTableRecord
  2
STANDARD
 70
     0
 40
0.0
 41
1.0
 50
0.0
 71
     0
 42
2.5
  3
txt
  4

  0
ENDTAB
  0
TABLE
  2
VIEW
  5
6
330
0
100
AcDbSymbolTable
 70
     0
  0
ENDTAB
  0
TABLE
  2
UCS
  5
7
330
0
100
AcDbSymbolTable
 70
     0
  0
ENDTAB
  0
TABLE
  2
APPID
  5
9
330
0
100
AcDbSymbolTable
 70
     2
  0
APPID
  5
12
330
9
100
AcDbSymbolTableRecord
100
AcDbRegAppTableRecord
  2
ACAD
 70
     0
  0
ENDTAB
  0
TABLE
  2
DIMSTYLE
  5
A
330
0
100
AcDbSymbolTable
 70
     1
  0
DIMSTYLE
105
27
330
A
100
AcDbSymbolTableRecord
100
AcDbDimStyleTableRecord
  2
ISO-25
 70
     0
  3

  4

  5

  6

  7

 40
1.0
 41
2.5
 42
0.625
 43
3.75
 44
1.25
 45
0.0
 46
0.0
 47
0.0
 48
0.0
140
2.5
141
2.5
142
0.0
143
0.03937007874016
144
1.0
145
0.0
146
1.0
147
0.625
 71
     0
 72
     0
 73
     0
 74
     0
 75
     0
 76
     0
 77
     1
 78
     8
170
     0
171
     3
172
     1
173
     0
174
     0
175
     0
176
     0
177
     0
178
     0
270
     2
271
     2
272
     2
273
     2
274
     3
340
11
275
     0
280
     0
281
     0
282
     0
283
     0
284
     8
285
     0
286
     0
287
     3
288
     0
  0
ENDTAB
  0
TABLE
  2
BLOCK_RECORD
  5
1
330
0
100
AcDbSymbolTable
 70
     1
  0
BLOCK_RECORD
  5
1F
330
1
100
AcDbSymbolTableRecord
100
AcDbBlockTableRecord
  2
*MODEL_SPACE
  0
BLOCK_RECORD
  5
1B
330
1
100
AcDbSymbolTableRecord
100
AcDbBlockTableRecord
  2
*PAPER_SPACE
  0
ENDTAB
  0
ENDSEC
  0
SECTION
  2
BLOCKS
  0
BLOCK
  5
20
330
1F
100
AcDbEntity
  8
0
100
AcDbBlockBegin
  2
*MODEL_SPACE
 70
     0
 10
0.0
 20
0.0
 30
0.0
  3
*MODEL_SPACE
  1

  0
ENDBLK
  5
21
330
1F
100
AcDbEntity
  8
0
100
AcDbBlockEnd
  0
BLOCK
  5
1C
330
1B
100
AcDbEntity
 67
     1
  8
0
100
AcDbBlockBegin
  2
*PAPER_SPACE
  1

  0
ENDBLK
  5
1D
330
1B
100
AcDbEntity
 67
     1
  8
0
100
AcDbBlockEnd
  0
ENDSEC
  0
SECTION
  2
ENTITIES
  0
SPLINE
  5
100
100
AcDbEntity
  8
0
 62
7
100
AcDbSpline
 70
8
 71
3
 72
8
 73
4
 74
0
 40
0
 40
0
 40
0
 40
0
 40
1
 40
1
 40
1
 40
1
 10
72.879947
 20
138.897642
 30
0.0
 10
37.277854
 20
138.446163
 30
0.0
 10
8.523254
 20
109.409366
 30
0.0
 10
8.523254
 20
73.700782
 30
0.0
  0
SPLINE
  5
101
100
AcDbEntity
  8
0
 62
7
100
AcDbSpline
 70
8
 71
3
 72
8
 73
4
 74
0
 40
0
 40
0
 40
0
 40
0
 40
1
 40
1
 40
1
 40
1
 10
8.523254
 20
73.700782
 30
0.0
 10
8.523254
 20
37.711040
 30
0.0
 10
37.730360
 20
8.503936
 30
0.0
 10
73.720100
 20
8.503936
 30
0.0
  0
SPLINE
  5
102
100
AcDbEntity
  8
0
 62
7
100
AcDbSpline
 70
8
 71
3
 72
8
 73
4
 74
0
 40
0
 40
0
 40
0
 40
0
 40
1
 40
1
 40
1
 40
1
 10
73.720100
 20
8.503936
 30
0.0
 10
109.709840
 20
8.503936
 30
0.0
 10
138.916936
 20
37.711040
 30
0.0
 10
138.916928
 20
73.700782
 30
0.0
  0
SPLINE
  5
103
100
AcDbEntity
  8
0
 62
7
100
AcDbSpline
 70
8
 71
3
 72
8
 73
4
 74
0
 40
0
 40
0
 40
0
 40
0
 40
1
 40
1
 40
1
 40
1
 10
138.916928
 20
73.700782
 30
0.0
 10
138.916928
 20
73.981963
 30
0.0
 10
138.913728
 20
74.260605
 30
0.0
 10
138.908928
 20
74.540942
 30
0.0
  0
SPLINE
  5
104
100
AcDbEntity
  8
0
 62
7
100
AcDbSpline
 70
8
 71
3
 72
8
 73
4
 74
0
 40
0
 40
0
 40
0
 40
0
 40
1
 40
1
 40
1
 40
1
 10
138.908928
 20
125.916387
 30
0.0
 10
138.766096
 20
133.073002
 30
0.0
 10
132.943496
 20
138.843728
 30
0.0
 10
125.765112
 20
138.897642
 30
0.0
  0
LWPOLYLINE
  5
105
100
AcDbEntity
  8
0
 62
7
100
AcDbPolyline
 90
2
 70
0
 10
138.908928
 20
74.540942
 30
0.0
 10
138.908928
 20
125.916387
 30
0.0
  0
SPLINE
  5
106
100
AcDbEntity
  8
0
 62
7
100
AcDbSpline
 70
8
 71
3
 72
8
 73
4
 74
0
 40
0
 40
0
 40
0
 40
0
 40
1
 40
1
 40
1
 40
1
 10
73.720100
 20
138.897642
 30
0.0
 10
73.620739
 20
138.897642
 30
0.0
 10
73.522120
 20
138.897642
 30
0.0
 10
73.423203
 20
138.897642
 30
0.0
  0
SPLINE
  5
107
100
AcDbEntity
  8
0
 62
7
100
AcDbSpline
 70
8
 71
3
 72
8
 73
4
 74
0
 40
0
 40
0
 40
0
 40
0
 40
1
 40
1
 40
1
 40
1
 10
73.423203
 20
138.897642
 30
0.0
 10
73.242207
 20
138.897642
 30
0.0
 10
73.061214
 20
138.899962
 30
0.0
 10
72.879947
 20
138.897642
 30
0.0
  0
LWPOLYLINE
  5
108
100
AcDbEntity
  8
0
 62
7
100
AcDbPolyline
 90
2
 70
0
 10
125.765112
 20
138.897642
 30
0.0
 10
73.720100
 20
138.897642
 30
0.0
  0
SPLINE
  5
109
100
AcDbEntity
  8
0
 62
7
100
AcDbSpline
 70
8
 71
3
 72
8
 73
4
 74
0
 40
0
 40
0
 40
0
 40
0
 40
1
 40
1
 40
1
 40
1
 10
74.061206
 20
123.983420
 30
0.0
 10
86.201400
 20
123.880854
 30
0.0
 10
98.203048
 20
119.219319
 30
0.0
 10
107.307112
 20
111.204303
 30
0.0
  0
SPLINE
  5
10a
100
AcDbEntity
  8
0
 62
7
100
AcDbSpline
 70
8
 71
3
 72
8
 73
4
 74
0
 40
0
 40
0
 40
0
 40
0
 40
1
 40
1
 40
1
 40
1
 10
107.307112
 20
111.204303
 30
0.0
 10
120.934816
 20
99.426082
 30
0.0
 10
126.680048
 20
79.860847
 30
0.0
 10
122.827752
 20
62.380872
 30
0.0
  0
SPLINE
  5
10b
100
AcDbEntity
  8
0
 62
7
100
AcDbSpline
 70
8
 71
3
 72
8
 73
4
 74
0
 40
0
 40
0
 40
0
 40
0
 40
1
 40
1
 40
1
 40
1
 10
122.827752
 20
62.380872
 30
0.0
 10
119.460704
 20
46.103976
 30
0.0
 10
106.874552
 20
32.517712
 30
0.0
 10
91.445352
 20
26.709264
 30
0.0
  0
SPLINE
  5
10c
100
AcDbEntity
  8
0
 62
7
100
AcDbSpline
 70
8
 71
3
 72
8
 73
4
 74
0
 40
0
 40
0
 40
0
 40
0
 40
1
 40
1
 40
1
 40
1
 10
91.445352
 20
26.709264
 30
0.0
 10
75.433620
 20
20.247424
 30
0.0
 10
56.199705
 20
23.352600
 30
0.0
 10
42.729330
 20
34.043216
 30
0.0
  0
SPLINE
  5
10d
100
AcDbEntity
  8
0
 62
7
100
AcDbSpline
 70
8
 71
3
 72
8
 73
4
 74
0
 40
0
 40
0
 40
0
 40
0
 40
1
 40
1
 40
1
 40
1
 10
42.729330
 20
34.043216
 30
0.0
 10
27.777707
 20
45.468912
 30
0.0
 10
20.546588
 20
65.745896
 30
0.0
 10
24.347117
 20
84.123692
 30
0.0
  0
SPLINE
  5
10e
100
AcDbEntity
  8
0
 62
7
100
AcDbSpline
 70
8
 71
3
 72
8
 73
4
 74
0
 40
0
 40
0
 40
0
 40
0
 40
1
 40
1
 40
1
 40
1
 10
24.347117
 20
84.123692
 30
0.0
 10
28.863333
 20
106.392002
 30
0.0
 10
50.116130
 20
123.871211
 30
0.0
 10
72.886266
 20
123.977091
 30
0.0
  0
SPLINE
  5
10f
100
AcDbEntity
  8
0
 62
7
100
AcDbSpline
 70
8
 71
3
 72
8
 73
4
 74
0
 40
0
 40
0
 40
0
 40
0
 40
1
 40
1
 40
1
 40
1
 10
72.886266
 20
123.977091
 30
0.0
 10
73.278082
 20
123.983331
 30
0.0
 10
73.669593
 20
123.986723
 30
0.0
 10
74.061206
 20
123.983411
 30
0.0
  0
LWPOLYLINE
  5
110
100
AcDbEntity
  8
0
 62
7
100
AcDbPolyline
 90
2
 70
0
 10
72.879947
 20
138.897642
 30
0.0
 10
72.879947
 20
138.897642
 30
0.0
  0
LWPOLYLINE
  5
111
100
AcDbEntity
  8
0
 62
7
100
AcDbPolyline
 90
2
 70
0
 10
74.061206
 20
123.983411
 30
0.0
 10
74.061206
 20
123.983420
 30
0.0
  0
SPLINE
  5
112
100
AcDbEntity
  8
0
 62
7
100
AcDbSpline
 70
8
 71
3
 72
8
 73
4
 74
0
 40
0
 40
0
 40
0
 40
0
 40
1
 40
1
 40
1
 40
1
 10
54.263499
 20
89.772880
 30
0.0
 10
54.386659
 20
90.558755
 30
0.0
 10
54.284017
 20
87.932281
 30
0.0
 10
54.284028
 20
89.897147
 30
0.0
  0
SPLINE
  5
113
100
AcDbEntity
  8
0
 62
7
100
AcDbSpline
 70
8
 71
3
 72
8
 73
4
 74
0
 40
0
 40
0
 40
0
 40
0
 40
1
 40
1
 40
1
 40
1
 10
54.284028
 20
89.897147
 30
0.0
 10
54.284012
 20
91.861906
 30
0.0
 10
54.243150
 20
91.399229
 30
0.0
 10
54.366339
 20
95.787381
 30
0.0
  0
SPLINE
  5
114
100
AcDbEntity
  8
0
 62
7
100
AcDbSpline
 70
8
 71
3
 72
8
 73
4
 74
0
 40
0
 40
0
 40
0
 40
0
 40
1
 40
1
 40
1
 40
1
 10
54.366339
 20
95.787381
 30
0.0
 10
54.448434
 20
97.599321
 30
0.0
 10
54.346577
 20
99.127508
 30
0.0
 10
54.935097
 20
101.114213
 30
0.0
  0
SPLINE
  5
115
100
AcDbEntity
  8
0
 62
7
100
AcDbSpline
 70
8
 71
3
 72
8
 73
4
 74
0
 40
0
 40
0
 40
0
 40
0
 40
1
 40
1
 40
1
 40
1
 10
54.935097
 20
101.114213
 30
0.0
 10
55.674133
 20
103.570165
 30
0.0
 10
56.506055
 20
104.262524
 30
0.0
 10
59.339114
 20
104.262588
 30
0.0
  0
SPLINE
  5
116
100
AcDbEntity
  8
0
 62
7
100
AcDbSpline
 70
8
 71
3
 72
8
 73
4
 74
0
 40
0
 40
0
 40
0
 40
0
 40
1
 40
1
 40
1
 40
1
 10
59.339114
 20
104.262588
 30
0.0
 10
65.497870
 20
104.262524
 30
0.0
 10
68.577259
 20
103.181878
 30
0.0
 10
68.577290
 20
101.020647
 30
0.0
  0
SPLINE
  5
117
100
AcDbEntity
  8
0
 62
7
100
AcDbSpline
 70
8
 71
3
 72
8
 73
4
 74
0
 40
0
 40
0
 40
0
 40
0
 40
1
 40
1
 40
1
 40
1
 10
68.577290
 20
101.020647
 30
0.0
 10
68.577259
 20
99.350498
 30
0.0
 10
68.638844
 20
98.171611
 30
0.0
 10
68.762053
 20
97.483986
 30
0.0
  0
SPLINE
  5
118
100
AcDbEntity
  8
0
 62
7
100
AcDbSpline
 70
8
 71
3
 72
8
 73
4
 74
0
 40
0
 40
0
 40
0
 40
0
 40
1
 40
1
 40
1
 40
1
 10
68.762053
 20
97.483986
 30
0.0
 10
69.501075
 20
97.483928
 30
0.0
 10
73.073166
 20
98.810175
 30
0.0
 10
79.478331
 20
101.462730
 30
0.0
  0
SPLINE
  5
119
100
AcDbEntity
  8
0
 62
7
100
AcDbSpline
 70
8
 71
3
 72
8
 73
4
 74
0
 40
0
 40
0
 40
0
 40
0
 40
1
 40
1
 40
1
 40
1
 10
79.478331
 20
101.462730
 30
0.0
 10
85.883424
 20
104.115162
 30
0.0
 10
91.364740
 20
105.441410
 30
0.0
 10
95.922293
 20
105.441475
 30
0.0
  0
SPLINE
  5
11a
100
AcDbEntity
  8
0
 62
7
100
AcDbSpline
 70
8
 71
3
 72
8
 73
4
 74
0
 40
0
 40
0
 40
0
 40
0
 40
1
 40
1
 40
1
 40
1
 10
95.922293
 20
105.441475
 30
0.0
 10
97.769864
 20
105.441410
 30
0.0
 10
99.001615
 20
105.048448
 30
0.0
 10
99.617559
 20
104.262588
 30
0.0
  0
SPLINE
  5
11b
100
AcDbEntity
  8
0
 62
7
100
AcDbSpline
 70
8
 71
3
 72
8
 73
4
 74
0
 40
0
 40
0
 40
0
 40
0
 40
1
 40
1
 40
1
 40
1
 10
99.617559
 20
104.262588
 30
0.0
 10
100.356555
 20
103.574840
 30
0.0
 10
100.726076
 20
101.904752
 30
0.0
 10
100.726144
 20
99.252317
 30
0.0
  0
SPLINE
  5
11c
100
AcDbEntity
  8
0
 62
7
100
AcDbSpline
 70
8
 71
3
 72
8
 73
4
 74
0
 40
0
 40
0
 40
0
 40
0
 40
1
 40
1
 40
1
 40
1
 10
100.726144
 20
99.252317
 30
0.0
 10
100.726076
 20
96.599764
 30
0.0
 10
100.294967
 20
94.585833
 30
0.0
 10
99.432793
 20
93.210519
 30
0.0
  0
SPLINE
  5
11d
100
AcDbEntity
  8
0
 62
7
100
AcDbSpline
 70
8
 71
3
 72
8
 73
4
 74
0
 40
0
 40
0
 40
0
 40
0
 40
1
 40
1
 40
1
 40
1
 10
99.432793
 20
93.210519
 30
0.0
 10
98.693683
 20
93.112226
 30
0.0
 10
97.338754
 20
92.964864
 30
0.0
 10
95.367994
 20
92.768436
 30
0.0
  0
SPLINE
  5
11e
100
AcDbEntity
  8
0
 62
7
100
AcDbSpline
 70
8
 71
3
 72
8
 73
4
 74
0
 40
0
 40
0
 40
0
 40
0
 40
1
 40
1
 40
1
 40
1
 10
95.367994
 20
92.768436
 30
0.0
 10
93.520311
 20
92.571903
 30
0.0
 10
92.103793
 20
92.424542
 30
0.0
 10
91.118441
 20
92.326354
 30
0.0
  0
SPLINE
  5
11f
100
AcDbEntity
  8
0
 62
7
100
AcDbSpline
 70
8
 71
3
 72
8
 73
4
 74
0
 40
0
 40
0
 40
0
 40
0
 40
1
 40
1
 40
1
 40
1
 10
91.118441
 20
92.326354
 30
0.0
 10
90.256154
 20
92.228061
 30
0.0
 10
88.962814
 20
92.031580
 30
0.0
 10
87.238409
 20
91.736910
 30
0.0
  0
SPLINE
  5
120
100
AcDbEntity
  8
0
 62
7
100
AcDbSpline
 70
8
 71
3
 72
8
 73
4
 74
0
 40
0
 40
0
 40
0
 40
0
 40
1
 40
1
 40
1
 40
1
 10
87.238409
 20
91.736910
 30
0.0
 10
85.513903
 20
91.540377
 30
0.0
 10
84.158963
 20
91.343897
 30
0.0
 10
83.173611
 20
91.147466
 30
0.0
  0
SPLINE
  5
121
100
AcDbEntity
  8
0
 62
7
100
AcDbSpline
 70
8
 71
3
 72
8
 73
4
 74
0
 40
0
 40
0
 40
0
 40
0
 40
1
 40
1
 40
1
 40
1
 10
83.173611
 20
91.147466
 30
0.0
 10
82.188158
 20
91.049175
 30
0.0
 10
80.956406
 20
90.852694
 30
0.0
 10
79.478331
 20
90.558023
 30
0.0
  0
SPLINE
  5
122
100
AcDbEntity
  8
0
 62
7
100
AcDbSpline
 70
8
 71
3
 72
8
 73
4
 74
0
 40
0
 40
0
 40
0
 40
0
 40
1
 40
1
 40
1
 40
1
 10
79.478331
 20
90.558023
 30
0.0
 10
78.123369
 20
90.361491
 30
0.0
 10
76.953196
 20
90.115890
 30
0.0
 10
75.967831
 20
89.821218
 30
0.0
  0
SPLINE
  5
123
100
AcDbEntity
  8
0
 62
7
100
AcDbSpline
 70
8
 71
3
 72
8
 73
4
 74
0
 40
0
 40
0
 40
0
 40
0
 40
1
 40
1
 40
1
 40
1
 10
75.967831
 20
89.821218
 30
0.0
 10
75.105563
 20
89.526447
 30
0.0
 10
74.181746
 20
89.231725
 30
0.0
 10
73.196377
 20
88.937052
 30
0.0
  0
SPLINE
  5
124
100
AcDbEntity
  8
0
 62
7
100
AcDbSpline
 70
8
 71
3
 72
8
 73
4
 74
0
 40
0
 40
0
 40
0
 40
0
 40
1
 40
1
 40
1
 40
1
 10
73.196377
 20
88.937052
 30
0.0
 10
71.225533
 20
88.347561
 30
0.0
 10
69.870602
 20
87.561636
 30
0.0
 10
69.131581
 20
86.579277
 30
0.0
  0
LWPOLYLINE
  5
125
100
AcDbEntity
  8
0
 62
7
100
AcDbPolyline
 90
2
 70
0
 10
54.352464
 20
55.764009
 30
0.0
 10
54.263499
 20
89.772880
 30
0.0
  0
SPLINE
  5
126
100
AcDbEntity
  8
0
 62
7
100
AcDbSpline
 70
8
 71
3
 72
8
 73
4
 74
0
 40
0
 40
0
 40
0
 40
0
 40
1
 40
1
 40
1
 40
1
 10
69.501108
 20
49.739040
 30
0.0
 10
69.501075
 20
49.346072
 30
0.0
 10
69.501075
 20
48.511024
 30
0.0
 10
69.501108
 20
47.233905
 30
0.0
  0
SPLINE
  5
127
100
AcDbEntity
  8
0
 62
7
100
AcDbSpline
 70
8
 71
3
 72
8
 73
4
 74
0
 40
0
 40
0
 40
0
 40
0
 40
1
 40
1
 40
1
 40
1
 10
69.501108
 20
47.233905
 30
0.0
 10
69.501075
 20
46.055019
 30
0.0
 10
69.439485
 20
45.072608
 30
0.0
 10
69.316344
 20
44.286690
 30
0.0
  0
SPLINE
  5
128
100
AcDbEntity
  8
0
 62
7
100
AcDbSpline
 70
8
 71
3
 72
8
 73
4
 74
0
 40
0
 40
0
 40
0
 40
0
 40
1
 40
1
 40
1
 40
1
 10
69.316344
 20
44.286690
 30
0.0
 10
69.316312
 20
43.500763
 30
0.0
 10
69.069961
 20
42.714836
 30
0.0
 10
68.577290
 20
41.928918
 30
0.0
  0
SPLINE
  5
129
100
AcDbEntity
  8
0
 62
7
100
AcDbSpline
 70
8
 71
3
 72
8
 73
4
 74
0
 40
0
 40
0
 40
0
 40
0
 40
1
 40
1
 40
1
 40
1
 10
68.577290
 20
41.928918
 30
0.0
 10
67.591854
 20
40.651790
 30
0.0
 10
65.005168
 20
40.013226
 30
0.0
 10
60.817223
 20
40.013226
 30
0.0
  0
SPLINE
  5
12a
100
AcDbEntity
  8
0
 62
7
100
AcDbSpline
 70
8
 71
3
 72
8
 73
4
 74
0
 40
0
 40
0
 40
0
 40
0
 40
1
 40
1
 40
1
 40
1
 10
60.817223
 20
40.013226
 30
0.0
 10
56.752407
 20
40.013226
 30
0.0
 10
56.911761
 20
40.414601
 30
0.0
 10
56.172724
 20
40.807569
 30
0.0
  0
SPLINE
  5
12b
100
AcDbEntity
  8
0
 62
7
100
AcDbSpline
 70
8
 71
3
 72
8
 73
4
 74
0
 40
0
 40
0
 40
0
 40
0
 40
1
 40
1
 40
1
 40
1
 10
56.172724
 20
40.807569
 30
0.0
 10
54.694602
 20
41.593487
 30
0.0
 10
54.366136
 20
46.555420
 30
0.0
 10
54.366150
 20
55.888284
 30
0.0
  0
LWPOLYLINE
  5
12c
100
AcDbEntity
  8
0
 62
7
100
AcDbPolyline
 90
4
 70
0
 10
69.131581
 20
86.579277
 30
0.0
 10
69.131581
 20
77.000818
 30
0.0
 10
69.501108
 20
51.949458
 30
0.0
 10
69.501108
 20
49.739040
 30
0.0
  0
ENDSEC
  0
SECTION
  2
OBJECTS
  0
DICTIONARY
  5
C
330
0
100
AcDbDictionary
  3
ACAD_GROUP
350
D
  3
ACAD_MLINESTYLE
350
17
  0
DICTIONARY
  5
D
330
C
100
AcDbDictionary
  0
DICTIONARY
  5
1A
330
C
100
AcDbDictionary
  0
DICTIONARY
  5
17
330
C
100
AcDbDictionary
  3
STANDARD
350
18
  0
DICTIONARY
  5
19
330
C
100
AcDbDictionary
  0
ENDSEC
  0
EOF
