<?xml version="1.0" encoding="UTF-8" standalone="no"?>
<!-- Created with Inkscape (http://www.inkscape.org/) -->

<svg
   xmlns:dc="http://purl.org/dc/elements/1.1/"
   xmlns:cc="http://creativecommons.org/ns#"
   xmlns:rdf="http://www.w3.org/1999/02/22-rdf-syntax-ns#"
   xmlns:svg="http://www.w3.org/2000/svg"
   xmlns="http://www.w3.org/2000/svg"
   xmlns:sodipodi="http://sodipodi.sourceforge.net/DTD/sodipodi-0.dtd"
   xmlns:inkscape="http://www.inkscape.org/namespaces/inkscape"
   version="1.0"
   width="135"
   height="81"
   id="svg2"
   sodipodi:version="0.32"
   inkscape:version="0.48.5 r10040"
   sodipodi:docname="logo-wiki_roomnames1.svg"
   inkscape:output_extension="org.inkscape.output.svg.inkscape">
  <metadata
     id="metadata7">
    <rdf:RDF>
      <cc:Work
         rdf:about="">
        <dc:format>image/svg+xml</dc:format>
        <dc:type
           rdf:resource="http://purl.org/dc/dcmitype/StillImage" />
        <dc:title />
      </cc:Work>
    </rdf:RDF>
  </metadata>
  <sodipodi:namedview
     inkscape:window-height="1050"
     inkscape:window-width="1400"
     inkscape:pageshadow="2"
     inkscape:pageopacity="0.50196078"
     guidetolerance="10.0"
     gridtolerance="10.0"
     objecttolerance="10.0"
     borderopacity="1.0"
     bordercolor="#666666"
     pagecolor="#000000"
     id="base"
     showgrid="false"
     inkscape:zoom="9.4222222"
     inkscape:cx="67.5"
     inkscape:cy="40.5"
     inkscape:window-x="0"
     inkscape:window-y="28"
     inkscape:current-layer="svg2"
     showborder="false"
     inkscape:showpageshadow="false"
     showguides="true"
     inkscape:guide-bbox="true"
     inkscape:window-maximized="0">
    <sodipodi:guide
       orientation="0,1"
       position="83.881371,79.966116"
       id="guide3027" />
    <sodipodi:guide
       orientation="0,1"
       position="72.610183,-0.11864409"
       id="guide3029" />
    <sodipodi:guide
       orientation="0,1"
       position="113.54239,17.322037"
       id="guide3031" />
  </sodipodi:namedview>
  <defs
     id="defs4">
    <inkscape:perspective
       sodipodi:type="inkscape:persp3d"
       inkscape:vp_x="0 : 318.9006 : 1"
       inkscape:vp_y="0 : 1000 : 0"
       inkscape:vp_z="637.79529 : 318.9006 : 1"
       inkscape:persp3d-origin="318.89764 : 212.6004 : 1"
       id="perspective9" />
  </defs>
  <path
     style="fill:#ffffff;fill-opacity:1;stroke:none"
     d="M 39.416681,1.033884 C 17.554909,1.3111353 -0.08991281,19.147249 -0.08991281,41.076257 c 0,22.101668 17.93938781,40.042373 40.03919681,40.042373 22.099816,0 40.039196,-17.940696 40.039196,-40.042373 1e-5,-0.172669 0.002,-0.360483 0,-0.53264 l 0,-29.608794 C 80.20575,6.4378529 75.39825,0.96497822 70.27631,1.033884 l -30.327026,0 c -0.06102,0 -0.127237,2.56e-4 -0.187976,0 -0.111144,-4.71e-4 -0.233319,-0.00102 -0.344627,0 z m 0.06266,4.5118187 c 0.09877,-0.00102 0.21468,-4.199e-4 0.313296,0 0.05389,2.253e-4 0.10251,0 0.156647,0 l 28.353266,0 c 3.91122,0.029389 7.09572,3.1813604 7.17447,7.0810453 l 0,27.979528 c 0.002,0.152752 0,0.316778 0,0.469981 0,19.611013 -15.91828,35.530564 -35.527736,35.530554 -19.609449,0 -35.5277378,-15.919551 -35.5277378,-35.530554 0,-19.457801 15.6595588,-35.2845456 35.0577948,-35.5305543 z M 66.92405,8.0836045 c -0.58483,1.03e-5 -1.15766,0.095848 -1.72313,0.3133171 -0.2742,0.1021964 -0.47312,0.2142028 -0.65792,0.3446518 -0.18479,0.1304489 -0.40728,0.3313601 -0.40728,0.6579688 0,0.2929085 0.16491,0.5082276 0.34462,0.6579788 l 0.0313,0.03134 c 0.15721,0.108853 0.26199,0.219374 0.56393,0.219333 0.16451,2.1e-5 0.19108,-0.03615 0.3133,-0.06267 0.12222,-0.02652 0.30084,-0.04393 0.50127,-0.094 0.37964,-0.09493 0.64766,-0.1566631 0.72058,-0.1566631 0.41654,1.02e-5 0.64016,0.1185801 0.78325,0.2506581 0.16566,0.152936 0.25062,0.280589 0.25063,0.53264 -1e-5,0.282668 -0.0706,0.556428 -0.2193,0.814642 -0.15736,0.288485 -0.40042,0.604495 -0.68926,0.939951 -0.30103,0.361262 -0.476,0.597788 -0.59526,0.783308 l -0.094,0.156654 0,0.156663 c 0.0354,0.353735 0.23326,0.435185 0.37595,0.53264 0.1427,0.09749 0.3203,0.186463 0.5326,0.281993 0.81779,0.361589 1.09654,0.812605 1.09654,1.566606 0,0.771552 -0.21952,1.262136 -0.68924,1.629265 -0.46974,0.367129 -1.23399,0.589134 -2.34973,0.626644 l -0.37595,0.03134 -0.094,0.344652 c -0.0325,0.129834 -0.0313,0.269182 -0.0313,0.407311 0,0.299861 0.1417,0.5045 0.31329,0.689303 0.21699,0.232514 0.55829,0.375987 0.87724,0.375987 1.2921,-0.04209 2.43505,-0.367835 3.35225,-1.033954 0.95332,-0.684194 1.44117,-1.724253 1.44117,-2.945213 0,-0.660939 -0.18137,-1.27119 -0.56393,-1.785929 -0.002,-0.002 0.002,-0.02857 0,-0.03133 l -0.0313,0 c -0.32367,-0.449971 -0.74763,-0.812717 -1.25319,-1.096614 0.18022,-0.175536 0.36672,-0.34929 0.53261,-0.532651 0.22654,-0.262342 0.41374,-0.58686 0.59526,-0.971296 0.19224,-0.418431 0.31329,-0.860119 0.31329,-1.284613 0,-0.7174539 -0.34451,-1.3535806 -0.93988,-1.7545941 C 68.56004,8.2706094 67.80152,8.0836145 66.92405,8.0836043 z M 39.542,13.222057 c -12.557789,0.05837 -24.296081,9.713105 -26.786787,21.995109 -2.096002,10.136206 1.904923,21.30174 10.150782,27.603541 7.428948,5.896376 18.018936,7.637176 26.849447,4.073173 C 58.26469,63.690247 65.22376,56.194805 67.08069,47.217342 69.20525,37.576327 66.04343,26.768 58.52772,20.271779 53.506806,15.851118 46.863941,13.278625 40.168592,13.222058 c -0.215976,-0.002 -0.410504,-0.0031 -0.626592,0 z m 12.625819,10.308251 c 1.018939,4.2e-5 1.696728,0.224535 2.036422,0.657979 0.40756,0.379325 0.595227,1.294271 0.595263,2.757215 -3.6e-5,1.463006 -0.24509,2.562652 -0.720581,3.321199 -0.407619,0.05417 -1.137519,0.142317 -2.224399,0.250658 -1.019006,0.108392 -1.806295,0.196498 -2.349719,0.250647 -0.47555,0.05417 -1.179397,0.150807 -2.13041,0.313328 -0.951069,0.108402 -1.712307,0.236311 -2.255731,0.344651 -0.543481,0.05417 -1.221258,0.150796 -2.036422,0.313317 -0.747265,0.108392 -1.399003,0.244801 -1.942434,0.407322 -0.475543,0.162572 -0.960386,0.338784 -1.503819,0.501315 -1.086926,0.325124 -1.848157,0.742788 -2.25573,1.284613 l 0,5.295117 0.187978,13.817428 0,1.221954 c -1.8e-5,0.216742 -1.8e-5,0.67423 0,1.378617 -1.8e-5,0.650207 -0.02607,1.195791 -0.09398,1.629265 -1.8e-5,0.433475 -0.135575,0.851149 -0.407285,1.284613 -0.54347,0.704398 -1.951159,1.065291 -4.260823,1.065291 -2.241757,0 -2.161445,-0.221904 -2.569024,-0.438656 -0.80958,-0.430475 -1.000057,-3.161167 -1.002547,-8.24032 l -0.06266,-18.767902 c 0.0034,-0.02171 0.02854,-0.01853 0.03133,-0.03134 -10e-4,-0.01454 0.0017,-0.02406 0,-0.03133 -9e-6,-1.083651 -0.03662,-0.838267 0.03133,-3.25854 0.04527,-0.999365 -0.01128,-1.849448 0.313295,-2.945213 0.407582,-1.354564 0.881267,-1.723218 2.443707,-1.723259 3.39657,4.1e-5 5.075374,0.593906 5.075392,1.785928 -1.8e-5,0.921161 0.02603,1.563318 0.09398,1.942582 0.407572,3.1e-5 2.388824,-0.730233 5.92129,-2.193239 3.532426,-1.462945 6.572075,-2.19321 9.085577,-2.19325 z"
     id="path5796"
     inkscape:connector-curvature="0" />
  <flowRoot
     xml:space="preserve"
     id="flowRoot2997"
     style="font-size:40px;font-style:normal;font-weight:normal;line-height:125%;letter-spacing:0px;word-spacing:0px;fill:#000000;fill-opacity:1;stroke:none;font-family:Sans"
     transform="translate(0,1.1328735)"><flowRegion
       id="flowRegion2999"><rect
         id="rect3001"
         width="23.491529"
         height="80.796623"
         x="85.186455"
         y="2.2738922" /></flowRegion><flowPara
       id="flowPara3003" /></flowRoot>  <flowRoot
     xml:space="preserve"
     id="flowRoot3005"
     style="font-size:40px;font-style:normal;font-weight:normal;line-height:125%;letter-spacing:0px;word-spacing:0px;fill:#000000;fill-opacity:1;stroke:none;font-family:Sans"
     transform="translate(0,1.1328735)"><flowRegion
       id="flowRegion3007"><rect
         id="rect3009"
         width="25.271191"
         height="85.661034"
         x="84.474594"
         y="1.9179598" /></flowRegion><flowPara
       id="flowPara3011">OLGA</flowPara><flowPara
       id="flowPara3013" /></flowRoot>  <text
     xml:space="preserve"
     style="font-size:39.15546036px;font-style:normal;font-weight:normal;line-height:125%;letter-spacing:0px;word-spacing:0px;fill:#000000;fill-opacity:1;stroke:#ffffff;stroke-width:1;stroke-opacity:1;font-family:Sans"
     x="124.65038"
     y="-2.6611471"
     id="text3015"
     sodipodi:linespacing="125%"
     transform="scale(1.0215689,0.9788865)"><tspan
       sodipodi:role="line"
       id="tspan3017"
       x="-2.6611471"
       y="124.65038"
       style="font-size:15.66218376px;font-style:normal;font-variant:normal;font-weight:bold;font-stretch:normal;text-align:start;line-height:100%;letter-spacing:1.25px;writing-mode:tb-rl;text-anchor:start;fill:#ffffff;stroke:#ffffff;stroke-width:1;stroke-opacity:1;font-family:Cagliostro;-inkscape-font-specification:Cagliostro">OLGA</tspan></text>
  <text
     sodipodi:linespacing="125%"
     id="text3019"
     y="-2.5407369"
     x="106.9929"
     style="font-size:39.13939285px;font-style:normal;font-weight:normal;line-height:125%;letter-spacing:0px;word-spacing:0px;fill:#000000;fill-opacity:1;stroke:#ffffff;stroke-width:1;stroke-opacity:1;font-family:Sans"
     xml:space="preserve"
     transform="scale(1.0219883,0.97848479)"><tspan
       style="font-size:15.65575695px;font-style:normal;font-variant:normal;font-weight:bold;font-stretch:normal;text-align:start;line-height:100%;letter-spacing:-3.93999934px;writing-mode:tb-rl;text-anchor:start;fill:#ffffff;stroke:#ffffff;stroke-width:1;stroke-opacity:1;font-family:Cagliostro;-inkscape-font-specification:Cagliostro"
       y="106.9929"
       x="-2.5407369"
       id="tspan3021"
       sodipodi:role="line">MaSha</tspan></text>
  <text
     xml:space="preserve"
     style="font-size:40.43012619px;font-style:normal;font-weight:normal;line-height:125%;letter-spacing:0px;word-spacing:0px;fill:#000000;fill-opacity:1;stroke:#ffffff;stroke-width:1;stroke-opacity:1;font-family:Sans"
     x="86.766579"
     y="-2.868119"
     id="text3023"
     sodipodi:linespacing="125%"
     transform="scale(1.0526968,0.94994114)"><tspan
       sodipodi:role="line"
       id="tspan3025"
       x="-2.868119"
       y="86.766579"
       style="font-size:16.17205048px;font-style:normal;font-variant:normal;font-weight:bold;font-stretch:normal;text-align:start;line-height:0%;letter-spacing:-4.21999979px;writing-mode:tb-rl;text-anchor:start;fill:#ffffff;stroke:#ffffff;stroke-width:1;stroke-opacity:1;font-family:Cagliostro;-inkscape-font-specification:Cagliostro">LoHTR</tspan></text>
</svg>
