<?xml version="1.0" encoding="UTF-8" standalone="no"?>
<!-- Created with Inkscape (http://www.inkscape.org/) -->

<svg
   xmlns:dc="http://purl.org/dc/elements/1.1/"
   xmlns:cc="http://creativecommons.org/ns#"
   xmlns:rdf="http://www.w3.org/1999/02/22-rdf-syntax-ns#"
   xmlns:svg="http://www.w3.org/2000/svg"
   xmlns="http://www.w3.org/2000/svg"
   xmlns:sodipodi="http://sodipodi.sourceforge.net/DTD/sodipodi-0.dtd"
   xmlns:inkscape="http://www.inkscape.org/namespaces/inkscape"
   version="1.0"
   width="2625.4934"
   height="234.7814"
   id="svg2"
   sodipodi:version="0.32"
   inkscape:version="0.91 r13725"
   sodipodi:docname="made-by-in-realraum.svg"
   inkscape:output_extension="org.inkscape.output.svg.inkscape"
   inkscape:export-filename="/home/equinox/realraum/git/logo/logo-aktuell.png"
   inkscape:export-xdpi="275.48813"
   inkscape:export-ydpi="275.48813">
  <sodipodi:namedview
     inkscape:window-height="1034"
     inkscape:window-width="1916"
     inkscape:pageshadow="2"
     inkscape:pageopacity="0.0"
     guidetolerance="10.0"
     gridtolerance="10.0"
     objecttolerance="10.0"
     borderopacity="1.0"
     bordercolor="#666666"
     pagecolor="#ffffff"
     id="base"
     showgrid="false"
     inkscape:zoom="0.52447285"
     inkscape:cx="1312.7467"
     inkscape:cy="117.3907"
     inkscape:window-x="0"
     inkscape:window-y="28"
     inkscape:current-layer="svg2"
     inkscape:document-units="mm"
     units="mm"
     showguides="true"
     inkscape:guide-bbox="true"
     inkscape:window-maximized="0"
     showborder="false"
     inkscape:showpageshadow="false"
     fit-margin-top="0"
     fit-margin-left="0"
     fit-margin-right="0"
     fit-margin-bottom="0">
    <sodipodi:guide
       position="1950.5304,54.97698"
       orientation="0,1"
       id="guide4830" />
  </sodipodi:namedview>
  <metadata
     id="metadata8">
    <rdf:RDF>
      <cc:Work
         rdf:about="">
        <dc:format>image/svg+xml</dc:format>
        <dc:type
           rdf:resource="http://purl.org/dc/dcmitype/StillImage" />
        <dc:title></dc:title>
      </cc:Work>
    </rdf:RDF>
  </metadata>
  <defs
     id="defs4">
    <inkscape:perspective
       sodipodi:type="inkscape:persp3d"
       inkscape:vp_x="0 : 380.90848 : 1"
       inkscape:vp_y="0 : 1000 : 0"
       inkscape:vp_z="637.79529 : 380.90848 : 1"
       inkscape:persp3d-origin="318.89764 : 253.93899 : 1"
       id="perspective10" />
  </defs>
  <text
     xml:space="preserve"
     style="font-style:normal;font-weight:normal;font-size:18.78186989px;line-height:125%;font-family:Sans;letter-spacing:0px;word-spacing:0px;fill:#000000;fill-opacity:1;stroke:none"
     x="1407.0474"
     y="272.22894"
     id="text3529"
     sodipodi:linespacing="125%"><tspan
       sodipodi:role="line"
       id="tspan3531"
       x="1407.0474"
       y="272.22894"
       style="font-style:normal;font-variant:normal;font-weight:normal;font-stretch:normal;font-family:'Trebuchet MS';-inkscape-font-specification:'Trebuchet MS'" /></text>
  <text
     xml:space="preserve"
     style="font-style:normal;font-weight:normal;font-size:28px;line-height:125%;font-family:Sans;letter-spacing:0px;word-spacing:0px;fill:#000000;fill-opacity:1;stroke:none"
     x="1417.9164"
     y="271.24765"
     id="text3537"
     sodipodi:linespacing="125%"><tspan
       sodipodi:role="line"
       id="tspan3539"
       x="1417.9164"
       y="271.24765" /></text>
  <text
     xml:space="preserve"
     style="font-style:normal;font-weight:normal;font-size:40px;line-height:125%;font-family:Sans;letter-spacing:0px;word-spacing:0px;fill:#000000;fill-opacity:1;stroke:none"
     x="1821.9"
     y="166.69572"
     id="text2998"
     sodipodi:linespacing="125%"><tspan
       sodipodi:role="line"
       id="tspan3000"
       x="1821.9"
       y="166.69572"
       style="font-style:normal;font-variant:normal;font-weight:normal;font-stretch:normal;font-family:Cagliostro;-inkscape-font-specification:Cagliostro" /></text>
  <text
     xml:space="preserve"
     style="font-style:normal;font-weight:normal;font-size:40px;line-height:125%;font-family:Sans;letter-spacing:0px;word-spacing:0px;fill:#000000;fill-opacity:1;stroke:none"
     x="-15.6"
     y="175.02905"
     id="text3002"
     sodipodi:linespacing="125%"><tspan
       sodipodi:role="line"
       x="-15.6"
       y="175.02905"
       id="tspan3008"
       style="font-style:normal;font-variant:normal;font-weight:normal;font-stretch:normal;font-size:200px;font-family:Cagliostro;-inkscape-font-specification:Cagliostro">made with        by würfel in </tspan></text>
  <flowRoot
     xml:space="preserve"
     id="flowRoot3014"
     style="font-style:normal;font-weight:normal;font-size:40px;line-height:125%;font-family:Sans;letter-spacing:0px;word-spacing:0px;fill:#000000;fill-opacity:1;stroke:none;stroke-width:1px;stroke-linecap:butt;stroke-linejoin:miter;stroke-opacity:1"
     transform="translate(1328.15,102.03038)"><flowRegion
       id="flowRegion3016"><rect
         id="rect3018"
         width="512.5"
         height="468.75"
         x="285.41666"
         y="-60.334656" /></flowRegion><flowPara
       id="flowPara3020" /></flowRoot>  <path
     style="fill:#000000;fill-opacity:1;stroke:none"
     d="m 2506.586,0.00177778 c -64.1035,0.81289 -115.8759,53.11677022 -115.8759,117.41053222 0,64.80001 52.6078,117.36909 117.4093,117.36909 64.8017,0 117.3682,-52.56908 117.3682,-117.36909 0,-0.50627 0.013,-1.02867 0,-1.53343 l 0,-92.502743 c -0.2573,-12.88558 -10.7393,-23.27728922 -23.6643,-23.37435922 l -93.7039,0 -0.5387,0 c -0.3258,0 -0.6683,-0.004 -0.9947,0 z m 89.4766,10.02941922 c 2.8648,4e-5 5.3316,0.61497 7.2526,1.94787 1.9438,1.3091 3.0668,3.41857 3.0668,5.7607 0,1.38574 -0.367,2.77841 -0.9946,4.14439 -0.5926,1.25496 -1.2497,2.33475 -1.9893,3.19118 -0.5416,0.59857 -1.1108,1.20905 -1.6991,1.78208 1.6505,0.92678 3.0461,2.095231 4.1028,3.564181 l 0.041,0 c 0,0.009 0,0.0739 0,0.0829 1.249,1.68036 1.865,3.68594 1.865,5.84359 0,3.98581 -1.6536,7.33998 -4.766,9.57354 -2.9946,2.17452 -6.6812,3.3441 -10.8996,3.48128 0,0 -0.035,-10e-4 -0.041,0 -1.0414,0 -2.0683,-0.52574 -2.7767,-1.28476 -0.5603,-0.6033 -1.0776,-1.2591 -1.0776,-2.23797 0,-0.45092 0.019,-0.90236 0.1246,-1.3262 l 0.3314,-1.16043 1.1605,-0.0414 c 3.6426,-0.12244 6.2163,-0.91516 7.75,-2.11364 1.5335,-1.19848 2.2379,-2.78609 2.2379,-5.30482 0,-2.46143 -0.9771,-3.91722 -3.647,-5.0976 -0.6932,-0.31189 -1.2334,-0.59361 -1.6992,-0.91176 -0.4659,-0.31815 -1.0864,-0.5859 -1.2018,-1.740651 l -0.041,-0.53877 0.2901,-0.45588 c 0.3893,-0.60561 1.0065,-1.3902 1.9893,-2.56952 l 0,-0.0414 c 0.943,-1.09508 1.6827,-2.12505 2.1965,-3.06685 l 0,-0.0414 c 0.4853,-0.84293 0.7045,-1.64674 0.7045,-2.56952 0,-0.82283 -0.2052,-1.28281 -0.746,-1.78209 -0.4671,-0.43115 -1.2096,-0.78741 -2.5694,-0.78743 -0.2382,10e-6 -1.1229,0.14605 -2.3623,0.45588 -0.6544,0.16361 -1.1759,0.28625 -1.5749,0.373 -0.399,0.0867 -0.499,0.16585 -1.0361,0.16577 -0.9858,1.5e-4 -1.3517,-0.34919 -1.8649,-0.70455 l -0.041,-0.0414 -0.041,-0.0414 c -0.5867,-0.48887 -1.1605,-1.19891 -1.1605,-2.15508 0,-1.06621 0.6814,-1.72922 1.2848,-2.15508 0.6034,-0.42586 1.3014,-0.78547 2.1965,-1.11899 1.8462,-0.71 3.7269,-1.0775 5.6363,-1.07754 z m -87.3629,16.82622 c 21.8591,0.18467 43.4935,8.611671 59.8858,23.042801 24.5375,21.20685 34.8692,56.429562 27.9329,87.902482 -6.0625,29.30675 -28.7063,53.73839 -56.4874,64.19658 -28.8301,11.63464 -63.4817,6.06944 -87.736,-13.17916 -26.9212,-20.57211 -39.9564,-57.09244 -33.1133,-90.181892 8.1318,-40.09437 46.4055,-71.548731 87.4043,-71.739361 0.7056,-0.0113 1.4086,-0.0474 2.1137,-0.0414 z m 39.1227,33.652441 c -8.2061,1.2e-4 -18.0579,2.39406 -29.5907,7.16979 -11.5329,4.77597 -17.982,7.1699 -19.3127,7.16979 -0.2218,-1.23808 -0.3315,-3.37523 -0.3315,-6.38235 0,-3.89132 -5.5296,-5.84348 -16.6189,-5.84359 -5.1011,1.1e-4 -6.6264,1.25584 -7.9571,5.67781 -1.0597,3.57709 -0.8882,6.31112 -1.0361,9.57355 -0.2217,7.90092 -0.1246,7.07206 -0.1246,10.60963 0,0.0553 -1e-4,0.0317 0,0.0828 -0.013,0.0437 -0.025,0.0657 -0.041,0.16578 l 0.1658,61.212602 c 0,16.66204 0.6243,25.52964 3.2741,26.93853 1.3306,0.70753 1.0526,1.45053 8.3716,1.45053 7.5406,0 12.1921,-1.1818 13.9664,-3.48128 0.8871,-1.41505 1.3261,-2.8122 1.3263,-4.22728 0.2217,-1.41506 0.3314,-3.18221 0.3315,-5.30482 -1e-4,-2.29946 -1e-4,-3.80983 0,-4.51738 l 0,-3.97861 -0.6631,-45.09094 0,-17.240662 c 1.3306,-1.76875 3.7869,-3.20733 7.3354,-4.26872 1.7742,-0.53056 3.4207,-1.04413 4.9733,-1.57486 1.7742,-0.53056 3.9011,-0.97235 6.3409,-1.32621 2.6612,-0.53056 4.8566,-0.90057 6.6309,-1.07754 1.7742,-0.35367 4.2305,-0.72368 7.3355,-1.07754 3.1049,-0.53056 5.41,-0.85912 6.9625,-1.03609 1.7742,-0.1768 4.3402,-0.43358 7.667,-0.78744 3.5485,-0.35367 5.9633,-0.6519 7.2941,-0.82888 1.5525,-2.47626 2.3622,-6.08235 2.3623,-10.8583 -1e-4,-4.77575 -0.7001,-7.79647 -2.0307,-9.03476 -1.1091,-1.41496 -3.3043,-2.11353 -6.631,-2.11365 z"
     id="path3021-8"
     inkscape:connector-curvature="0" />
  <g
     transform="translate(15.772693,-12.080177)"
     style="font-style:normal;font-variant:normal;font-weight:normal;font-stretch:normal;font-size:356.15548706px;line-height:125%;font-family:'Droid Sans';-inkscape-font-specification:'Droid Sans';letter-spacing:0px;word-spacing:0px;fill:#000000;fill-opacity:1;stroke:none;stroke-width:1px;stroke-linecap:butt;stroke-linejoin:miter;stroke-opacity:1"
     id="text4148">
    <path
       inkscape:connector-curvature="0"
       d="m 1059.6861,219.43166 q -23.8248,-41.56307 -96.34283,-83.64785 -33.73738,-19.65116 -33.73738,-50.606075 0,-13.042804 4.6954,-25.042183 4.86932,-11.999379 14.43404,-21.390198 9.21692,-9.04301 21.21629,-14.260131 11.30377,-4.869314 24.69438,-4.869314 13.3906,0 24.6944,4.869314 11.8254,5.043217 21.2163,14.260131 9.2169,9.043011 14.0862,21.04239 5.0432,11.825475 5.0432,25.389991 0,-13.564516 4.8693,-25.389991 5.0432,-11.999379 14.2602,-21.04239 9.3908,-9.216914 21.2163,-14.260131 11.3037,-4.869314 24.6943,-4.869314 13.3906,0 24.6944,4.869314 11.9994,5.217121 21.2163,14.260131 9.5647,9.390819 14.2601,21.390198 4.8693,11.999379 4.8693,25.042183 0,31.302725 -33.7373,50.606075 -72.518,42.08478 -96.3429,83.64785 z"
       id="path4155" />
  </g>
  <flowRoot
     xml:space="preserve"
     id="flowRoot4822"
     style="font-style:normal;font-variant:normal;font-weight:normal;font-stretch:normal;font-size:180px;line-height:125%;font-family:'Droid Sans';-inkscape-font-specification:'Droid Sans';letter-spacing:0px;word-spacing:0px;fill:#000000;fill-opacity:1;stroke:none;stroke-width:1px;stroke-linecap:butt;stroke-linejoin:miter;stroke-opacity:1"
     transform="translate(-2.4164062,18.625425)"><flowRegion
       id="flowRegion4824"><rect
         id="rect4826"
         width="491.25671"
         height="205.36142"
         x="1244.2485"
         y="211.51268" /></flowRegion><flowPara
       id="flowPara4828"></flowPara></flowRoot></svg>
