<?xml version="1.0" encoding="UTF-8" standalone="no"?>
<!-- Created with Inkscape (http://www.inkscape.org/) -->

<svg
   xmlns:dc="http://purl.org/dc/elements/1.1/"
   xmlns:cc="http://creativecommons.org/ns#"
   xmlns:rdf="http://www.w3.org/1999/02/22-rdf-syntax-ns#"
   xmlns:svg="http://www.w3.org/2000/svg"
   xmlns="http://www.w3.org/2000/svg"
   xmlns:sodipodi="http://sodipodi.sourceforge.net/DTD/sodipodi-0.dtd"
   xmlns:inkscape="http://www.inkscape.org/namespaces/inkscape"
   version="1.0"
   width="177.16534"
   height="177.16534"
   id="svg2"
   sodipodi:version="0.32"
   inkscape:version="0.48.5 r10040"
   sodipodi:docname="made-in-realraum.svg"
   inkscape:output_extension="org.inkscape.output.svg.inkscape"
   inkscape:export-filename="/home/equinox/realraum/git/logo/logo-aktuell.png"
   inkscape:export-xdpi="275.48813"
   inkscape:export-ydpi="275.48813">
  <sodipodi:namedview
     inkscape:window-height="1034"
     inkscape:window-width="1916"
     inkscape:pageshadow="2"
     inkscape:pageopacity="0.0"
     guidetolerance="10.0"
     gridtolerance="10.0"
     objecttolerance="10.0"
     borderopacity="1.0"
     bordercolor="#666666"
     pagecolor="#ffffff"
     id="base"
     showgrid="false"
     inkscape:zoom="0.48"
     inkscape:cx="88.582672"
     inkscape:cy="88.582672"
     inkscape:window-x="0"
     inkscape:window-y="44"
     inkscape:current-layer="svg2"
     inkscape:document-units="mm"
     units="mm"
     showguides="true"
     inkscape:guide-bbox="true"
     inkscape:window-maximized="0"
     showborder="false"
     inkscape:showpageshadow="false" />
  <metadata
     id="metadata8">
    <rdf:RDF>
      <cc:Work
         rdf:about="">
        <dc:format>image/svg+xml</dc:format>
        <dc:type
           rdf:resource="http://purl.org/dc/dcmitype/StillImage" />
        <dc:title />
      </cc:Work>
    </rdf:RDF>
  </metadata>
  <defs
     id="defs4">
    <inkscape:perspective
       sodipodi:type="inkscape:persp3d"
       inkscape:vp_x="0 : 380.90848 : 1"
       inkscape:vp_y="0 : 1000 : 0"
       inkscape:vp_z="637.79529 : 380.90848 : 1"
       inkscape:persp3d-origin="318.89764 : 253.93899 : 1"
       id="perspective10" />
  </defs>
  <path
     style="fill:#000000;fill-opacity:1;stroke:none"
     d="m 1377.0855,-85.48687 c -48.3723,0.613407 -87.4396,40.081743 -87.4396,88.5976137 0,48.8978833 39.6977,88.5663433 88.5967,88.5663433 48.8991,0 88.5656,-39.66846 88.5656,-88.5663433 0,-0.382029 0.01,-0.776233 0,-1.157117 l 0,-69.8022847 c -0.1941,-9.723415 -8.1038,-17.564961 -17.857,-17.638212 l -70.7086,0 -0.4065,0 c -0.2459,0 -0.5043,-0.0032 -0.7506,0 z m 67.5187,7.568169 c 2.1618,2.8e-5 4.0232,0.464049 5.4728,1.469851 1.4668,0.987844 2.3142,2.579643 2.3142,4.347007 0,1.04568 -0.2769,2.096579 -0.7505,3.127342 -0.4472,0.946994 -0.943,1.7618 -1.5011,2.408054 -0.4087,0.451679 -0.8382,0.912347 -1.2822,1.344757 1.2455,0.699346 2.2986,1.581051 3.096,2.689515 l 0.031,0 c 0,0.0068 0,0.05574 0,0.06255 0.9425,1.267999 1.4073,2.781399 1.4073,4.409553 0,3.007682 -1.2478,5.538731 -3.5964,7.224161 -2.2597,1.640894 -5.0416,2.523448 -8.2248,2.626967 0,0 -0.026,-9.69e-4 -0.031,0 -0.7858,-2e-6 -1.5607,-0.396721 -2.0953,-0.969476 -0.4228,-0.455245 -0.8131,-0.950112 -0.8131,-1.688765 0,-0.340264 0.014,-0.680919 0.094,-1.000749 l 0.2501,-0.875656 0.8757,-0.03127 c 2.7487,-0.09239 4.6908,-0.690577 5.8481,-1.594944 1.1572,-0.904367 1.6887,-2.102376 1.6887,-4.002999 0,-1.857387 -0.7373,-2.955924 -2.752,-3.846631 -0.5231,-0.235353 -0.9307,-0.44794 -1.2822,-0.688015 -0.3516,-0.240075 -0.8198,-0.442114 -0.9069,-1.313484 l -0.031,-0.406555 0.2189,-0.344007 c 0.2938,-0.456992 0.7595,-1.049038 1.5011,-1.938953 l 0,-0.03127 c 0.7116,-0.826346 1.2698,-1.603555 1.6575,-2.314234 l 0,-0.03127 c 0.3662,-0.636069 0.5316,-1.242628 0.5316,-1.938952 0,-0.620902 -0.1548,-0.968007 -0.5629,-1.344758 -0.3525,-0.325347 -0.9128,-0.594176 -1.9389,-0.594195 -0.1797,9e-6 -0.8473,0.110212 -1.7826,0.344008 -0.4938,0.123457 -0.8873,0.216002 -1.1884,0.281461 -0.3011,0.06546 -0.3765,0.125156 -0.7818,0.125093 -0.7439,1.17e-4 -1.02,-0.263496 -1.4073,-0.531648 l -0.031,-0.03127 -0.031,-0.03127 c -0.4427,-0.3689 -0.8757,-0.904696 -0.8757,-1.626218 0,-0.804561 0.5142,-1.304868 0.9695,-1.626218 0.4553,-0.32135 0.982,-0.592711 1.6575,-0.844383 1.3931,-0.535763 2.8123,-0.81308 4.2531,-0.813109 z m -65.9237,12.697011 c 16.4948,0.139353 32.82,6.498333 45.1896,17.388025 18.5159,16.002613 26.3122,42.5815637 21.0781,66.330939 -4.5748,22.11478 -21.6617,40.550813 -42.6252,48.442533 -21.7551,8.77946 -47.9031,4.57998 -66.2053,-9.94495 -20.3147,-15.523653 -30.151,-43.081774 -24.9872,-68.050975 6.1362,-30.255092 35.0174,-53.990444 65.955,-54.134298 0.5324,-0.0085 1.0629,-0.03576 1.595,-0.03127 z m 29.5218,25.394021 c -6.1923,8.8e-5 -13.6264,1.806547 -22.329,5.410303 -8.7027,3.603924 -13.5692,5.410381 -14.5733,5.410302 -0.1674,-0.93425 -0.2502,-2.54694 -0.2502,-4.816107 0,-2.93638 -4.1726,-4.409466 -12.5405,-4.409553 -3.8493,8.7e-5 -5.0003,0.947652 -6.0044,4.284459 -0.7997,2.69926 -0.6703,4.762349 -0.7819,7.224162 -0.1673,5.962012 -0.094,5.336555 -0.094,8.005996 0,0.04167 -10e-5,0.02388 0,0.06255 -0.01,0.03298 -0.019,0.04955 -0.031,0.125094 l 0.1251,46.19085 c 0,12.57312 0.4711,19.26458 2.4706,20.32773 1.0041,0.5339 0.7943,1.09456 6.3172,1.09456 5.6901,0 9.2001,-0.89178 10.539,-2.62696 0.6694,-1.06779 1.0007,-2.12208 1.0008,-3.18989 0.1673,-1.0678 0.2501,-2.40129 0.2502,-4.003 -10e-5,-1.73517 -10e-5,-2.87489 0,-3.4088 l 0,-3.00225 -0.5004,-34.0254894 0,-13.0097446 c 1.0041,-1.334692 2.8576,-2.420244 5.5353,-3.221163 1.3388,-0.40036 2.5812,-0.787896 3.7528,-1.18839 1.3388,-0.40036 2.9438,-0.73373 4.7848,-1.00075 2.0082,-0.400358 3.6648,-0.679565 5.0037,-0.813109 1.3388,-0.266883 3.1923,-0.546087 5.5353,-0.813109 2.343,-0.400357 4.0824,-0.648288 5.2539,-0.781835 1.3388,-0.133404 3.2751,-0.327173 5.7855,-0.594195 2.6777,-0.26688 4.4999,-0.491921 5.5041,-0.625469 1.1715,-1.868586 1.7825,-4.589717 1.7826,-8.193637 -10e-5,-3.603762 -0.5283,-5.88319 -1.5324,-6.817607 -0.8369,-1.067718 -2.4934,-1.594857 -5.0037,-1.594945 z"
     id="path3021"
     inkscape:connector-curvature="0" />
  <text
     xml:space="preserve"
     style="font-size:18.78186989px;font-style:normal;font-weight:normal;line-height:125%;letter-spacing:0px;word-spacing:0px;fill:#000000;fill-opacity:1;stroke:none;font-family:Sans"
     x="78.897285"
     y="170.19858"
     id="text3529"
     sodipodi:linespacing="125%"><tspan
       sodipodi:role="line"
       id="tspan3531"
       x="78.897285"
       y="170.19858"
       style="font-style:normal;font-variant:normal;font-weight:normal;font-stretch:normal;font-family:Trebuchet MS;-inkscape-font-specification:Trebuchet MS" /></text>
  <text
     xml:space="preserve"
     style="font-size:28px;font-style:normal;font-weight:normal;line-height:125%;letter-spacing:0px;word-spacing:0px;fill:#000000;fill-opacity:1;stroke:none;font-family:Sans"
     x="89.766304"
     y="169.21729"
     id="text3537"
     sodipodi:linespacing="125%"><tspan
       sodipodi:role="line"
       id="tspan3539"
       x="89.766304"
       y="169.21729" /></text>
  <text
     xml:space="preserve"
     style="font-size:40px;font-style:normal;font-weight:normal;line-height:125%;letter-spacing:0px;word-spacing:0px;fill:#000000;fill-opacity:1;stroke:none;font-family:Sans"
     x="493.75"
     y="64.665344"
     id="text2998"
     sodipodi:linespacing="125%"><tspan
       sodipodi:role="line"
       id="tspan3000"
       x="493.75"
       y="64.665344"
       style="font-style:normal;font-variant:normal;font-weight:normal;font-stretch:normal;font-family:Cagliostro;-inkscape-font-specification:Cagliostro" /></text>
  <text
     xml:space="preserve"
     style="font-size:40px;font-style:normal;font-weight:normal;line-height:125%;letter-spacing:0px;word-spacing:0px;fill:#000000;fill-opacity:1;stroke:none;font-family:Sans"
     x="-327.08334"
     y="66.748672"
     id="text3002"
     sodipodi:linespacing="125%"><tspan
       sodipodi:role="line"
       x="-327.08334"
       y="66.748672"
       id="tspan3008"
       style="font-size:200px">made with ❤ in </tspan></text>
  <flowRoot
     xml:space="preserve"
     id="flowRoot3014"
     style="fill:black;stroke:none;stroke-opacity:1;stroke-width:1px;stroke-linejoin:miter;stroke-linecap:butt;fill-opacity:1;font-family:Sans;font-style:normal;font-weight:normal;font-size:40px;line-height:125%;letter-spacing:0px;word-spacing:0px"><flowRegion
       id="flowRegion3016"><rect
         id="rect3018"
         width="512.5"
         height="468.75"
         x="285.41666"
         y="-60.334656" /></flowRegion><flowPara
       id="flowPara3020" /></flowRoot></svg>
