<?xml version="1.0" encoding="UTF-8" standalone="no"?>
<!-- Created with Inkscape (http://www.inkscape.org/) -->

<svg
   xmlns:dc="http://purl.org/dc/elements/1.1/"
   xmlns:cc="http://creativecommons.org/ns#"
   xmlns:rdf="http://www.w3.org/1999/02/22-rdf-syntax-ns#"
   xmlns:svg="http://www.w3.org/2000/svg"
   xmlns="http://www.w3.org/2000/svg"
   xmlns:sodipodi="http://sodipodi.sourceforge.net/DTD/sodipodi-0.dtd"
   xmlns:inkscape="http://www.inkscape.org/namespaces/inkscape"
   width="1488.189"
   height="1052.3622"
   id="svg2816"
   version="1.1"
   inkscape:version="0.47 r22583"
   sodipodi:docname="plakat.pdf">
  <defs
     id="defs2818">
    <inkscape:perspective
       sodipodi:type="inkscape:persp3d"
       inkscape:vp_x="0 : 372.04724 : 1"
       inkscape:vp_y="0 : 1000 : 0"
       inkscape:vp_z="1052.3622 : 372.04724 : 1"
       inkscape:persp3d-origin="526.18109 : 248.03149 : 1"
       id="perspective2825" />
    <inkscape:perspective
       id="perspective9"
       inkscape:persp3d-origin="318.89764 : 212.6004 : 1"
       inkscape:vp_z="637.79529 : 318.9006 : 1"
       inkscape:vp_y="0 : 1000 : 0"
       inkscape:vp_x="0 : 318.9006 : 1"
       sodipodi:type="inkscape:persp3d" />
  </defs>
  <sodipodi:namedview
     inkscape:document-units="mm"
     pagecolor="#ffffff"
     bordercolor="#666666"
     borderopacity="1.0"
     inkscape:pageopacity="0.0"
     inkscape:pageshadow="2"
     inkscape:zoom="0.43415836"
     inkscape:cx="855.58302"
     inkscape:cy="380"
     inkscape:current-layer="layer1"
     id="namedview2820"
     showgrid="false"
     units="mm"
     inkscape:window-width="1440"
     inkscape:window-height="851"
     inkscape:window-x="0"
     inkscape:window-y="24"
     inkscape:window-maximized="1" />
  <metadata
     id="metadata2822">
    <rdf:RDF>
      <cc:Work
         rdf:about="">
        <dc:format>image/svg+xml</dc:format>
        <dc:type
           rdf:resource="http://purl.org/dc/dcmitype/StillImage" />
        <dc:title></dc:title>
      </cc:Work>
    </rdf:RDF>
  </metadata>
  <g
     inkscape:label="Layer 1"
     inkscape:groupmode="layer"
     id="layer1"
     transform="translate(0,308.26782)">
    <path
       d="m 249.50383,-262.08839 c -91.71125,1.16299 -165.783281,75.96197 -165.783281,167.947504 0,92.7098054 75.237671,167.947487 167.947471,167.947481 92.70985,0 167.94753,-75.2376699 167.94753,-167.947481 0,-0.724309 -0.008,-1.442099 -0.0163,-2.164232 l 0,-132.343482 c -0.37228,-18.43549 -15.37132,-33.30094 -33.86288,-33.43979 l -134.06834,0 c -0.25598,0 -0.51001,9.5e-4 -0.76483,0 -0.46623,-0.002 -0.93246,-0.006 -1.39943,0 z m 127.55935,25.15714 c 5.30067,4e-5 9.27212,0.87122 11.89516,2.61986 2.64119,1.73051 3.95416,4.34597 3.95416,7.8433 -6e-5,2.38626 -0.63074,4.34427 -1.88759,5.87433 -1.2569,1.51191 -3.1061,2.5701 -5.56515,3.1894 2.75048,0.71043 4.82774,1.94322 6.24859,3.7101 1.43898,1.74869 2.16424,3.99016 2.16424,6.70424 -5e-5,4.04383 -1.55734,7.11347 -4.65389,9.22645 -3.09665,2.09477 -7.60042,3.14057 -13.53864,3.14057 -2.09479,0 -4.20074,-0.15835 -6.31372,-0.50444 -2.09479,-0.32789 -4.17401,-0.83937 -6.23234,-1.51333 l 0,-8.10367 c 1.96724,0.98364 3.91095,1.7193 5.8418,2.22932 1.94904,0.49183 3.86797,0.74855 5.74417,0.74853 2.78697,2e-5 4.91957,-0.48281 6.39505,-1.44823 1.49363,-0.96542 2.22928,-2.36241 2.22934,-4.16575 0,-1.85794 -0.76435,-3.25106 -2.29443,-4.19828 -1.51188,-0.9654 -3.75139,-1.44822 -6.7205,-1.44824 l -4.19827,0 0,-6.7856 4.42608,0 c 2.64123,5e-5 4.59729,-0.4007 5.89064,-1.22042 1.29324,-0.8379 1.95263,-2.11369 1.95268,-3.80774 0,-1.56649 -0.63079,-2.7726 -1.88759,-3.62875 -1.2569,-0.8561 -3.04227,-1.28548 -5.33738,-1.28552 -1.69407,4e-5 -3.39536,0.18704 -5.12581,0.56954 -1.73042,0.38255 -3.46235,0.96179 -5.17461,1.7086 l 0,-7.71312 c 2.07658,-0.58285 4.14341,-1.02658 6.18349,-1.31807 2.04014,-0.2914 4.03723,-0.42304 6.00452,-0.42308 z m -124.51645,13.26201 c 31.27323,0.2642 62.18952,12.27235 85.64169,32.91908 35.10506,30.34075 49.90482,80.74091 39.98128,125.769416 -8.67356,41.929388 -41.0955,76.927682 -80.84127,91.890269 C 256.08207,43.555279 206.53539,35.55638 171.83563,8.0172597 133.32013,-21.415403 114.69275,-73.649004 124.4829,-120.99037 c 11.63381,-57.3633 66.38115,-102.38984 125.03717,-102.66259 1.00936,-0.0161 2.01787,-0.0248 3.02666,-0.0163 z m 63.55787,104.51735 c -4.00299,-1.87357 -8.00583,-3.23623 -12.00857,-4.08802 -3.9178,-0.93672 -7.87802,-1.40515 -11.88081,-1.40526 -11.75311,1.1e-4 -20.82338,3.79005 -27.21084,11.36981 -6.30243,7.4948 -9.45363,18.268407 -9.45352,32.320879 l 0,65.919283 -45.73473,0 0,-143.080602 45.73473,0 0,23.50609 c 5.8764,-9.36823 12.6046,-16.18159 20.18456,-20.44009 7.66493,-4.34336 16.82039,-6.51513 27.46635,-6.51527 1.53292,1.4e-4 3.19365,0.0853 4.98229,0.2555 1.78838,0.0853 4.38599,0.34082 7.79279,0.76652 l 0.12775,41.39116"
       id="rect3134"
       style="fill:#700000;fill-opacity:1;stroke:none" />
    <text
       xml:space="preserve"
       style="font-size:36.53705978px;font-style:normal;font-weight:normal;fill:#000000;fill-opacity:1;stroke:none;font-family:Bitstream Vera Sans"
       x="82.507408"
       y="132.04382"
       id="text2839"><tspan
         sodipodi:role="line"
         id="tspan2841"
         x="82.507408"
         y="132.04382">Wirdorange - Verein für Technik in Kultur und Gesellschaft</tspan><tspan
         sodipodi:role="line"
         x="82.507408"
         y="177.71515"
         id="tspan2843" /></text>
    <text
       xml:space="preserve"
       style="font-size:70.56890869px;font-style:normal;font-weight:normal;fill:#000000;fill-opacity:1;stroke:none;font-family:Bitstream Vera Sans"
       x="80.757202"
       y="199.90294"
       id="text2845"><tspan
         sodipodi:role="line"
         id="tspan2847"
         x="80.757202"
         y="199.90294">www.realraum.at</tspan></text>
    <text
       xml:space="preserve"
       style="font-size:190.39865112px;font-style:normal;font-weight:normal;fill:#000000;fill-opacity:1;stroke:none;font-family:Bitstream Vera Sans"
       x="459.66257"
       y="-27.11241"
       id="text2849"><tspan
         sodipodi:role="line"
         id="tspan2851"
         x="459.66257"
         y="-27.11241"
         style="font-family:Arial Black;-inkscape-font-specification:Arial Black">realraum</tspan></text>
    <path
       style="fill:#700000;fill-opacity:1;stroke:none"
       id="path2853"
       d="m 249.50383,241.51087 c -91.71125,1.163 -165.783281,75.96198 -165.783281,167.94751 0,92.7098 75.237671,167.94748 167.947471,167.94748 92.70985,0 167.94753,-75.23767 167.94753,-167.94748 0,-0.72431 -0.008,-1.4421 -0.0163,-2.16423 l 0,-132.34349 c -0.37228,-18.43548 -15.37132,-33.30093 -33.86288,-33.43979 l -134.06834,0 c -0.25598,0 -0.51001,9.5e-4 -0.76483,0 -0.46623,-0.002 -0.93246,-0.006 -1.39943,0 z m 127.55935,25.15714 c 5.30067,4e-5 9.27212,0.87122 11.89516,2.61986 2.64119,1.73051 3.95416,4.34598 3.95416,7.8433 -6e-5,2.38627 -0.63074,4.34428 -1.88759,5.87434 -1.2569,1.51191 -3.1061,2.57009 -5.56515,3.18939 2.75048,0.71043 4.82774,1.94322 6.24859,3.71011 1.43898,1.74868 2.16424,3.99016 2.16424,6.70423 -5e-5,4.04384 -1.55734,7.11348 -4.65389,9.22645 -3.09665,2.09478 -7.60042,3.14057 -13.53864,3.14057 -2.09479,0 -4.20074,-0.15835 -6.31372,-0.50443 -2.09479,-0.32789 -4.17401,-0.83938 -6.23234,-1.51334 l 0,-8.10366 c 1.96724,0.98363 3.91095,1.7193 5.8418,2.22932 1.94904,0.49183 3.86797,0.74855 5.74417,0.74853 2.78697,2e-5 4.91957,-0.48281 6.39505,-1.44824 1.49363,-0.96542 2.22928,-2.3624 2.22934,-4.16574 0,-1.85794 -0.76435,-3.25107 -2.29443,-4.19828 -1.51188,-0.9654 -3.75139,-1.44822 -6.7205,-1.44824 l -4.19827,0 0,-6.7856 4.42608,0 c 2.64123,5e-5 4.59729,-0.4007 5.89064,-1.22042 1.29324,-0.8379 1.95263,-2.11369 1.95268,-3.80774 0,-1.56649 -0.63079,-2.7726 -1.88759,-3.62876 -1.2569,-0.8561 -3.04227,-1.28547 -5.33738,-1.28552 -1.69407,5e-5 -3.39536,0.18705 -5.12581,0.56954 -1.73042,0.38256 -3.46235,0.96179 -5.17461,1.7086 l 0,-7.71311 c 2.07658,-0.58286 4.14341,-1.02659 6.18349,-1.31808 2.04014,-0.2914 4.03723,-0.42304 6.00452,-0.42308 z m -124.51645,13.26202 c 31.27323,0.2642 62.18952,12.27235 85.64169,32.91907 35.10506,30.34076 49.90482,80.74091 39.98128,125.76942 -8.67356,41.92939 -41.0955,76.92768 -80.84127,91.89027 -41.24636,16.64575 -90.79304,8.64686 -125.4928,-18.89227 -38.5155,-29.43266 -57.14288,-81.66626 -47.35273,-129.00762 11.63381,-57.3633 66.38115,-102.38985 125.03717,-102.6626 1.00936,-0.0161 2.01787,-0.0248 3.02666,-0.0163 z m 63.55787,104.51735 c -4.00299,-1.87357 -8.00583,-3.23624 -12.00857,-4.08802 -3.9178,-0.93672 -7.87802,-1.40516 -11.88081,-1.40526 -11.75311,1e-4 -20.82338,3.79005 -27.21084,11.36981 -6.30243,7.4948 -9.45363,18.2684 -9.45352,32.32087 l 0,65.91929 -45.73473,0 0,-143.0806 45.73473,0 0,23.50609 c 5.8764,-9.36824 12.6046,-16.18159 20.18456,-20.4401 7.66493,-4.34335 16.82039,-6.51513 27.46635,-6.51527 1.53292,1.4e-4 3.19365,0.0853 4.98229,0.25551 1.78838,0.0853 4.38599,0.34082 7.79279,0.76651 l 0.12775,41.39117" />
    <text
       id="text2855"
       y="635.64307"
       x="82.507408"
       style="font-size:36.53705978px;font-style:normal;font-weight:normal;fill:#000000;fill-opacity:1;stroke:none;font-family:Bitstream Vera Sans"
       xml:space="preserve"><tspan
         y="635.64307"
         x="82.507408"
         id="tspan2857"
         sodipodi:role="line">Wirdorange - Verein für Technik in Kultur und Gesellschaft</tspan><tspan
         id="tspan2859"
         y="681.31439"
         x="82.507408"
         sodipodi:role="line" /></text>
    <text
       id="text2861"
       y="703.5022"
       x="80.757202"
       style="font-size:70.56890869px;font-style:normal;font-weight:normal;fill:#000000;fill-opacity:1;stroke:none;font-family:Bitstream Vera Sans"
       xml:space="preserve"><tspan
         y="703.5022"
         x="80.757202"
         id="tspan2863"
         sodipodi:role="line">www.realraum.at</tspan></text>
    <text
       id="text2865"
       y="476.48685"
       x="459.66257"
       style="font-size:190.39865112px;font-style:normal;font-weight:normal;fill:#000000;fill-opacity:1;stroke:none;font-family:Bitstream Vera Sans"
       xml:space="preserve"><tspan
         style="font-family:Arial Black;-inkscape-font-specification:Arial Black"
         y="476.48685"
         x="459.66257"
         id="tspan2867"
         sodipodi:role="line">realraum</tspan></text>
  </g>
</svg>
