<?xml version="1.0" encoding="UTF-8" standalone="no"?>
<!-- Created with Inkscape (http://www.inkscape.org/) -->

<svg
   xmlns:dc="http://purl.org/dc/elements/1.1/"
   xmlns:cc="http://creativecommons.org/ns#"
   xmlns:rdf="http://www.w3.org/1999/02/22-rdf-syntax-ns#"
   xmlns:svg="http://www.w3.org/2000/svg"
   xmlns="http://www.w3.org/2000/svg"
   xmlns:sodipodi="http://sodipodi.sourceforge.net/DTD/sodipodi-0.dtd"
   xmlns:inkscape="http://www.inkscape.org/namespaces/inkscape"
   width="1488.189"
   height="1052.3622"
   id="svg2816"
   version="1.1"
   inkscape:version="0.91 r13725"
   sodipodi:docname="plakat.svg">
  <defs
     id="defs2818">
    <inkscape:perspective
       sodipodi:type="inkscape:persp3d"
       inkscape:vp_x="0 : 372.04724 : 1"
       inkscape:vp_y="0 : 1000 : 0"
       inkscape:vp_z="1052.3622 : 372.04724 : 1"
       inkscape:persp3d-origin="526.18109 : 248.03149 : 1"
       id="perspective2825" />
    <inkscape:perspective
       id="perspective9"
       inkscape:persp3d-origin="318.89764 : 212.6004 : 1"
       inkscape:vp_z="637.79529 : 318.9006 : 1"
       inkscape:vp_y="0 : 1000 : 0"
       inkscape:vp_x="0 : 318.9006 : 1"
       sodipodi:type="inkscape:persp3d" />
    <inkscape:perspective
       id="perspective10"
       inkscape:persp3d-origin="318.89764 : 253.93899 : 1"
       inkscape:vp_z="637.79529 : 380.90848 : 1"
       inkscape:vp_y="0 : 1000 : 0"
       inkscape:vp_x="0 : 380.90848 : 1"
       sodipodi:type="inkscape:persp3d" />
  </defs>
  <sodipodi:namedview
     inkscape:document-units="mm"
     pagecolor="#ffffff"
     bordercolor="#666666"
     borderopacity="1.0"
     inkscape:pageopacity="0.0"
     inkscape:pageshadow="2"
     inkscape:zoom="0.83927514"
     inkscape:cx="744.09448"
     inkscape:cy="383.20057"
     inkscape:current-layer="layer1"
     id="namedview2820"
     showgrid="false"
     units="mm"
     inkscape:window-width="1920"
     inkscape:window-height="1151"
     inkscape:window-x="0"
     inkscape:window-y="25"
     inkscape:window-maximized="1"
     fit-margin-top="10"
     fit-margin-left="10"
     fit-margin-right="10"
     fit-margin-bottom="10"
     inkscape:snap-text-baseline="true" />
  <metadata
     id="metadata2822">
    <rdf:RDF>
      <cc:Work
         rdf:about="">
        <dc:format>image/svg+xml</dc:format>
        <dc:type
           rdf:resource="http://purl.org/dc/dcmitype/StillImage" />
        <dc:title />
      </cc:Work>
    </rdf:RDF>
  </metadata>
  <g
     inkscape:label="Layer 1"
     inkscape:groupmode="layer"
     id="layer1"
     transform="translate(-7.4494614,299.14323)">
    <text
       xml:space="preserve"
       style="font-size:36.53705978px;font-style:normal;font-weight:normal;fill:#000000;fill-opacity:1;stroke:none;font-family:Bitstream Vera Sans"
       x="499.28558"
       y="66.969574"
       id="text2839"><tspan
         sodipodi:role="line"
         id="tspan2841"
         x="499.28558"
         y="66.969574"
         style="-inkscape-font-specification:Cagliostro;font-family:Cagliostro;font-weight:normal;font-style:normal;font-stretch:normal;font-variant:normal">Verein für Technik in Kultur und Gesellschaft</tspan><tspan
         sodipodi:role="line"
         x="499.28558"
         y="112.64089"
         id="tspan2843" /></text>
    <text
       xml:space="preserve"
       style="font-size:70.56890869px;font-style:normal;font-weight:normal;fill:#000000;fill-opacity:1;stroke:none;font-family:Bitstream Vera Sans;stroke-width:2.12598425;stroke-miterlimit:4;stroke-dasharray:none"
       x="1030.035"
       y="690.47528"
       id="text2845"><tspan
         sodipodi:role="line"
         id="tspan2847"
         x="1030.035"
         y="690.47528"
         style="font-style:normal;font-variant:normal;font-weight:normal;font-stretch:normal;font-family:Cagliostro;-inkscape-font-specification:Cagliostro;stroke-width:2.12598425;stroke-miterlimit:4;stroke-dasharray:none;stroke:#000000;stroke-opacity:1;letter-spacing:2.54999958px">realraum.at</tspan><tspan
         sodipodi:role="line"
         x="1030.035"
         y="778.6864"
         id="tspan3010"
         style="font-style:normal;font-variant:normal;font-weight:bold;font-stretch:normal;font-family:Arial;-inkscape-font-specification:Arial Bold;stroke-width:2.12598425;stroke-miterlimit:4;stroke-dasharray:none" /><tspan
         sodipodi:role="line"
         x="1030.035"
         y="866.89758"
         id="tspan3012"
         style="font-style:normal;font-variant:normal;font-weight:bold;font-stretch:normal;font-family:Arial;-inkscape-font-specification:Arial Bold;stroke-width:2.12598425;stroke-miterlimit:4;stroke-dasharray:none" /></text>
    <text
       xml:space="preserve"
       style="font-size:190.39865112px;font-style:normal;font-weight:normal;fill:#000000;fill-opacity:1;stroke:none;font-family:Bitstream Vera Sans;stroke-width:8.08582677;stroke-miterlimit:4;stroke-dasharray:none"
       x="482.57516"
       y="9.1588469"
       id="text2849"><tspan
         sodipodi:role="line"
         id="tspan2851"
         x="482.57516"
         y="9.1588469"
         style="font-family:Cagliostro;-inkscape-font-specification:Cagliostro;font-weight:normal;font-style:normal;font-stretch:normal;font-variant:normal;stroke:#000000;stroke-opacity:1;stroke-width:8.08582677;stroke-miterlimit:4;stroke-dasharray:none;letter-spacing:6.54000269px;word-spacing:0px">realraum</tspan></text>
    <text
       xml:space="preserve"
       style="font-size:60.37466049px;font-style:normal;font-weight:normal;line-height:125%;letter-spacing:0px;word-spacing:0px;fill:#000000;fill-opacity:1;stroke:none;font-family:Sans"
       x="263.26001"
       y="117.89033"
       id="text3537"
       sodipodi:linespacing="125%"
       transform="scale(1.0081974,0.99186925)"><tspan
         sodipodi:role="line"
         id="tspan3539"
         x="263.26001"
         y="117.89033" /></text>
    <text
       xml:space="preserve"
       style="font-size:19.26628876px;font-style:normal;font-variant:normal;font-weight:normal;font-stretch:normal;line-height:125%;letter-spacing:0px;word-spacing:0px;fill:#000000;fill-opacity:1;stroke:none;font-family:Dingbats;-inkscape-font-specification:Dingbats"
       x="-10.606681"
       y="251.16792"
       id="text4148"
       sodipodi:linespacing="125%"
       transform="matrix(0,-0.99186925,1.0081974,0,0,0)"><tspan
         sodipodi:role="line"
         id="tspan4150"
         x="-10.606681"
         y="251.16792"
         style="font-style:normal;font-variant:normal;font-weight:normal;font-stretch:normal;fill:#ffffff;font-family:Cagliostro;-inkscape-font-specification:Cagliostro" /></text>
    <flowRoot
       xml:space="preserve"
       id="flowRoot3027"
       style="font-size:40px;font-style:normal;font-weight:normal;line-height:125%;letter-spacing:0px;word-spacing:0px;fill:#000000;fill-opacity:1;stroke:none;font-family:Sans"
       transform="translate(50.552376,18.271256)"><flowRegion
         id="flowRegion3029"><rect
           id="rect3031"
           width="244.15054"
           height="161.23149"
           x="69.099213"
           y="147.16252" /></flowRegion><flowPara
         id="flowPara3033" /></flowRoot>    <flowRoot
       xml:space="preserve"
       id="flowRoot3035"
       style="font-size:40px;font-style:normal;font-weight:normal;line-height:125%;letter-spacing:0px;word-spacing:0px;fill:#000000;fill-opacity:1;stroke:none;font-family:Sans"
       transform="translate(50.552376,18.271256)"><flowRegion
         id="flowRegion3037"><rect
           id="rect3039"
           width="283.30676"
           height="347.79935"
           x="23.03307"
           y="114.91622" /></flowRegion><flowPara
         id="flowPara3041" /></flowRoot>    <text
       xml:space="preserve"
       style="font-size:32px;font-style:normal;font-variant:normal;font-weight:normal;font-stretch:normal;text-align:start;line-height:125%;letter-spacing:0px;word-spacing:0px;writing-mode:lr-tb;text-anchor:start;fill:#000000;fill-opacity:1;stroke:none;font-family:Sans;-inkscape-font-specification:Sans"
       x="163.23926"
       y="181.40089"
       id="text3014"
       sodipodi:linespacing="125%"><tspan
         sodipodi:role="line"
         x="163.23926"
         y="181.40089"
         id="tspan3036"
         style="-inkscape-font-specification:Cagliostro;font-family:Cagliostro;font-weight:normal;font-style:normal;font-stretch:normal;font-variant:normal">Der realraum ist ein Treffpunkt zum Basteln, Experimentieren, Löten</tspan><tspan
         sodipodi:role="line"
         x="163.23926"
         y="221.40089"
         id="tspan3177"
         style="-inkscape-font-specification:Cagliostro;font-family:Cagliostro;font-weight:normal;font-style:normal;font-stretch:normal;font-variant:normal">und vielem mehr – ein Hackerspace für die Bereiche Software, Computer,</tspan><tspan
         sodipodi:role="line"
         x="163.23926"
         y="261.40088"
         id="tspan3179"
         style="-inkscape-font-specification:Cagliostro;font-family:Cagliostro;font-weight:normal;font-style:normal;font-stretch:normal;font-variant:normal">Elektronik, Molekularbiologie und Pharmazie, … </tspan><tspan
         sodipodi:role="line"
         x="163.23926"
         y="301.40088"
         id="tspan3181"
         style="-inkscape-font-specification:Cagliostro;font-family:Cagliostro;font-weight:normal;font-style:normal;font-stretch:normal;font-variant:normal">Der Raum bietet Platz und Equipment, um an Projekten zu arbeiten,</tspan><tspan
         sodipodi:role="line"
         x="163.23926"
         y="341.40088"
         id="tspan3183"
         style="-inkscape-font-specification:Cagliostro;font-family:Cagliostro;font-weight:normal;font-style:normal;font-stretch:normal;font-variant:normal">sich auszutauschen, oder Vorträge zu veranstalten. .</tspan><tspan
         sodipodi:role="line"
         x="163.23926"
         y="381.40088"
         id="tspan3185"
         style="-inkscape-font-specification:Cagliostro;font-family:Cagliostro;font-weight:normal;font-style:normal;font-stretch:normal;font-variant:normal" /><tspan
         sodipodi:role="line"
         x="163.23926"
         y="421.40088"
         id="tspan3187"
         style="-inkscape-font-specification:Cagliostro;font-family:Cagliostro;font-weight:normal;font-style:normal;font-stretch:normal;font-variant:normal">Zum Kennenlernen kommst du am Besten zu einer unserer</tspan><tspan
         sodipodi:role="line"
         x="163.23926"
         y="461.40088"
         id="tspan3189"
         style="-inkscape-font-specification:Cagliostro;font-family:Cagliostro;font-weight:normal;font-style:normal;font-stretch:normal;font-variant:normal">regelmäßigen oder unregelmäßigen Veranstaltungen.</tspan><tspan
         sodipodi:role="line"
         x="163.23926"
         y="501.40088"
         id="tspan3191"
         style="-inkscape-font-specification:Cagliostro;font-family:Cagliostro;font-weight:normal;font-style:normal;font-stretch:normal;font-variant:normal">Aktuelle Termine findest du unter http://realraum.at </tspan><tspan
         sodipodi:role="line"
         x="163.23926"
         y="541.40088"
         id="tspan3193"
         style="-inkscape-font-specification:Cagliostro;font-family:Cagliostro;font-weight:normal;font-style:normal;font-stretch:normal;font-variant:normal">Falls jemand anwesend ist, frag doch einfach ob wir für Dich Zeit haben,</tspan><tspan
         sodipodi:role="line"
         x="163.23926"
         y="581.40088"
         id="tspan3195"
         style="-inkscape-font-specification:Cagliostro;font-family:Cagliostro;font-weight:normal;font-style:normal;font-stretch:normal;font-variant:normal">oder du kontaktierst uns via e-mail unter realraum@realraum.at.</tspan><tspan
         sodipodi:role="line"
         x="163.23926"
         y="621.40088"
         id="tspan3197"
         style="-inkscape-font-specification:Cagliostro;font-family:Cagliostro;font-weight:normal;font-style:normal;font-stretch:normal;font-variant:normal" /><tspan
         sodipodi:role="line"
         x="163.23926"
         y="661.40088"
         id="tspan3199"
         style="-inkscape-font-specification:Cagliostro;font-family:Cagliostro;font-weight:normal;font-style:normal;font-stretch:normal;font-variant:normal" /><tspan
         sodipodi:role="line"
         x="163.23926"
         y="701.40088"
         id="tspan3201"
         style="-inkscape-font-specification:Cagliostro;font-family:Cagliostro;font-weight:normal;font-style:normal;font-stretch:normal;font-variant:normal" /></text>
    <flowRoot
       xml:space="preserve"
       id="flowRoot3029"
       style="fill:black;stroke:none;stroke-opacity:1;stroke-width:1px;stroke-linejoin:miter;stroke-linecap:butt;fill-opacity:1;font-family:Arab;font-style:normal;font-weight:normal;font-size:12px;line-height:125%;letter-spacing:0px;word-spacing:0px;-inkscape-font-specification:Arab;font-stretch:normal;font-variant:normal"><flowRegion
         id="flowRegion3031"><rect
           id="rect3033"
           width="333.97952"
           height="165.8381"
           x="222.26912"
           y="741.41571" /></flowRegion><flowPara
         id="flowPara3035" /></flowRoot>    <g
       id="g4251"
       transform="matrix(1.9638247,0,0,1.9638247,91.871937,-238.80876)">
      <path
         inkscape:connector-curvature="0"
         id="path3021-6"
         d="M 87.502173,-0.07020328 C 39.129794,0.54320299 0.0625,40.011539 0.0625,88.52741 c 0,48.89788 39.697707,88.56634 88.596779,88.56634 48.899081,0 88.565521,-39.66846 88.565511,-88.56634 0,-0.382029 0.007,-0.776233 0,-1.157117 l 0,-69.802285 C 177.03076,7.8445938 169.12107,0.00304699 159.36783,-0.07020328 l -70.708551,0 -0.40655,0 c -0.24592,0 -0.504268,-0.0031524 -0.750556,0 z M 155.02086,7.4979656 c 2.16176,2.8e-5 4.02316,0.4640486 5.4728,1.469851 1.46679,0.9878439 2.3142,2.5796424 2.31421,4.3470064 -1e-5,1.04568 -0.27695,2.096579 -0.75055,3.127342 -0.44721,0.946994 -0.94297,1.7618 -1.50111,2.408054 -0.40868,0.451679 -0.83822,0.912347 -1.2822,1.344757 1.24551,0.699346 2.29864,1.581051 3.09604,2.689515 l 0.0313,0 c 0.004,0.0068 -0.004,0.05574 0,0.06255 0.94249,1.267999 1.40728,2.781399 1.40729,4.409553 -1e-5,3.007682 -1.24782,5.538731 -3.59641,7.224161 -2.25967,1.640894 -5.04155,2.523448 -8.22483,2.626967 0,0 -0.0263,-9.69e-4 -0.0313,0 -0.78577,-2e-6 -1.56071,-0.396721 -2.0953,-0.969476 -0.42275,-0.455245 -0.81311,-0.950112 -0.81311,-1.688765 0,-0.340264 0.0139,-0.680919 0.0938,-1.000749 l 0.25019,-0.875656 0.87565,-0.03127 c 2.74874,-0.09239 4.69085,-0.690577 5.84807,-1.594944 1.15724,-0.904367 1.68875,-2.102376 1.68875,-4.002999 -1e-5,-1.857387 -0.73731,-2.955924 -2.75203,-3.846631 -0.52304,-0.235353 -0.93066,-0.44794 -1.2822,-0.688015 -0.35154,-0.240075 -0.81976,-0.442114 -0.90692,-1.313484 l -0.0313,-0.406555 0.21892,-0.344007 c 0.29378,-0.456992 0.75951,-1.049038 1.50111,-1.938953 l 0,-0.03127 c 0.71159,-0.826346 1.26982,-1.603555 1.65747,-2.314234 l 0,-0.03127 c 0.36623,-0.636069 0.53163,-1.242628 0.53164,-1.938952 -1e-5,-0.620902 -0.15477,-0.968007 -0.56291,-1.344758 -0.35249,-0.325347 -0.91275,-0.594176 -1.93894,-0.594195 -0.17966,9e-6 -0.84726,0.110212 -1.78256,0.344008 -0.4938,0.123457 -0.88728,0.216002 -1.18838,0.281461 -0.30111,0.06546 -0.37655,0.125156 -0.78183,0.125093 -0.74388,1.17e-4 -1.02,-0.263496 -1.40729,-0.531648 l -0.0313,-0.03127 -0.0313,-0.03127 c -0.44274,-0.3689 -0.87565,-0.904696 -0.87565,-1.626218 0,-0.8045604 0.5142,-1.3048672 0.96947,-1.6262179 0.45526,-0.3213497 0.98196,-0.5927109 1.65748,-0.8443825 1.39309,-0.5357633 2.81235,-0.81308 4.25314,-0.813109 z M 89.097103,20.194976 c 16.494817,0.139353 32.820037,6.498333 45.189677,17.388025 18.51588,16.002613 26.31218,42.581564 21.07809,66.330939 -4.5748,22.11478 -21.6617,40.55081 -42.62528,48.44253 -21.755051,8.77946 -47.903088,4.57998 -66.205218,-9.94495 C 26.219681,126.88787 16.383382,99.329749 21.547141,74.360548 27.6833,44.105456 56.564509,20.370104 87.502173,20.22625 c 0.532359,-0.0085 1.062847,-0.03576 1.59493,-0.03127 z m 29.521837,25.394021 c -6.19233,8.8e-5 -13.62645,1.806547 -22.329017,5.410303 -8.702665,3.603924 -13.569174,5.410381 -14.573279,5.410302 -0.167406,-0.93425 -0.250226,-2.54694 -0.250185,-4.816107 -4.1e-5,-2.93638 -4.172657,-4.409466 -12.540525,-4.409553 -3.849263,8.7e-5 -5.000316,0.947652 -6.004441,4.284459 -0.79962,2.69926 -0.670284,4.762349 -0.781829,7.224162 -0.167375,5.962012 -0.09384,5.336555 -0.09382,8.005996 0,0.04167 -6.6e-5,0.02388 0,0.06255 -0.0089,0.03298 -0.01943,0.04955 -0.03127,0.125094 l 0.125092,46.190847 c 0.0039,12.57312 0.471038,19.26458 2.470578,20.32773 1.004125,0.5339 0.794326,1.09456 6.317172,1.09456 5.690138,0 9.20014,-0.89178 10.539045,-2.62696 0.66939,-1.06779 1.000697,-2.12208 1.00074,-3.18989 0.167307,-1.0678 0.25014,-2.40129 0.250185,-4.003 -4.5e-5,-1.73517 -4.5e-5,-2.87489 0,-3.4088 l 0,-3.00225 -0.50037,-34.025486 0,-13.009745 c 1.004104,-1.334692 2.857568,-2.420244 5.535344,-3.221163 1.338816,-0.40036 2.58122,-0.787896 3.752776,-1.18839 1.33881,-0.40036 2.943807,-0.73373 4.784789,-1.00075 2.008256,-0.400358 3.664761,-0.679565 5.003695,-0.813109 1.33879,-0.266883 3.19227,-0.546087 5.53535,-0.813109 2.34294,-0.400357 4.08232,-0.648288 5.25388,-0.781835 1.3388,-0.133404 3.27509,-0.327173 5.78553,-0.594195 2.67766,-0.26688 4.49987,-0.491921 5.50407,-0.625469 1.17145,-1.868586 1.78248,-4.589717 1.78257,-8.193637 -9e-5,-3.603762 -0.52832,-5.88319 -1.53238,-6.817607 -0.83688,-1.067718 -2.49342,-1.594857 -5.0037,-1.594945 z"
         style="fill:#000000;fill-opacity:1;stroke:none" />
      <text
         sodipodi:linespacing="125%"
         id="text3529"
         y="170.19858"
         x="78.897285"
         style="font-style:normal;font-weight:normal;font-size:18.78186989px;line-height:125%;font-family:Sans;letter-spacing:0px;word-spacing:0px;fill:#000000;fill-opacity:1;stroke:none"
         xml:space="preserve"><tspan
           style="font-style:normal;font-variant:normal;font-weight:normal;font-stretch:normal;font-family:'Trebuchet MS';-inkscape-font-specification:'Trebuchet MS'"
           y="170.19858"
           x="78.897285"
           id="tspan3531"
           sodipodi:role="line" /></text>
      <text
         sodipodi:linespacing="125%"
         id="text3537-6"
         y="169.21729"
         x="89.766304"
         style="font-style:normal;font-weight:normal;font-size:28px;line-height:125%;font-family:Sans;letter-spacing:0px;word-spacing:0px;fill:#000000;fill-opacity:1;stroke:none"
         xml:space="preserve"><tspan
           y="169.21729"
           x="89.766304"
           id="tspan3539-4"
           sodipodi:role="line" /></text>
    </g>
  </g>
</svg>
