<?xml version="1.0" encoding="UTF-8" standalone="no"?>
<!-- Created with Inkscape (http://www.inkscape.org/) -->

<svg
   xmlns:dc="http://purl.org/dc/elements/1.1/"
   xmlns:cc="http://creativecommons.org/ns#"
   xmlns:rdf="http://www.w3.org/1999/02/22-rdf-syntax-ns#"
   xmlns:svg="http://www.w3.org/2000/svg"
   xmlns="http://www.w3.org/2000/svg"
   xmlns:sodipodi="http://sodipodi.sourceforge.net/DTD/sodipodi-0.dtd"
   xmlns:inkscape="http://www.inkscape.org/namespaces/inkscape"
   id="svg2"
   version="1.1"
   inkscape:version="0.91 r13725"
   xml:space="preserve"
   width="582.79999"
   height="370.20001"
   viewBox="0 0 582.79999 370.20001"
   sodipodi:docname="posthorn.svg"><metadata
     id="metadata8"><rdf:RDF><cc:Work
         rdf:about=""><dc:format>image/svg+xml</dc:format><dc:type
           rdf:resource="http://purl.org/dc/dcmitype/StillImage" /></cc:Work></rdf:RDF></metadata><defs
     id="defs6" /><sodipodi:namedview
     pagecolor="#ffffff"
     bordercolor="#666666"
     borderopacity="1"
     objecttolerance="10"
     gridtolerance="10"
     guidetolerance="10"
     inkscape:pageopacity="0"
     inkscape:pageshadow="2"
     inkscape:window-width="1920"
     inkscape:window-height="1028"
     id="namedview4"
     showgrid="false"
     inkscape:zoom="2.1907077"
     inkscape:cx="303.78587"
     inkscape:cy="198.23849"
     inkscape:window-x="0"
     inkscape:window-y="28"
     inkscape:window-maximized="1"
     inkscape:current-layer="g10"
     showguides="true"
     inkscape:guide-bbox="true" /><g
     id="g10"
     inkscape:groupmode="layer"
     inkscape:label="ink_ext_XXXXXX"
     transform="matrix(1.25,0,0,-1.25,0,370.2)"><g
       transform="matrix(1,0,0,-1,6.1694931,-5.952968)"
       style="font-style:normal;font-weight:normal;font-size:8.73946857px;line-height:125%;font-family:Sans;letter-spacing:0px;word-spacing:0px;fill:#000000;fill-opacity:1;stroke:none"
       id="text3529" /><g
       transform="matrix(1,0,0,-1,6.1694931,-5.952968)"
       style="font-style:normal;font-weight:normal;font-size:13.02879429px;line-height:125%;font-family:Sans;letter-spacing:0px;word-spacing:0px;fill:#000000;fill-opacity:1;stroke:none"
       id="text3537" /><g
       id="g4986"
       transform="matrix(1.0004442,0,0,1,-230.08229,105.58437)"
       style="fill:#000000;fill-opacity:1"><path
         id="path3021"
         style="fill:#000000;fill-opacity:1;stroke:none"
         d="m 471.7332,65.30284 c -4.43009,-6e-5 -9.74856,-1.27942 -15.97451,-3.83163 -6.22601,-2.55234 -9.70759,-3.83169 -10.42593,-3.83164 -0.11977,0.66165 -0.17902,1.80377 -0.17899,3.41082 -3e-5,2.07958 -2.98518,3.12284 -8.97167,3.12289 -2.75382,-5e-5 -3.57731,-0.67113 -4.29567,-3.0343 -0.57206,-1.91164 -0.47953,-3.37274 -0.55933,-5.11622 -0.11974,-4.22236 -0.0671,-3.7794 -0.0671,-5.66993 0,-0.0296 -5e-5,-0.017 0,-0.0443 -0.006,-0.0233 -0.0139,-0.0351 -0.0224,-0.0886 l 0.0895,-32.71284 c 0.003,-8.90442 0.33699,-13.64338 1.76749,-14.39632 0.71837,-0.37811 0.56827,-0.77518 4.5194,-0.77518 4.0708,0 6.58191,0.63157 7.53978,1.86045 0.47889,0.75622 0.71591,1.50287 0.71595,2.25911 0.11969,0.75623 0.17895,1.70062 0.17898,2.83497 -3e-5,1.22886 -3e-5,2.03602 0,2.41414 l 0,2.12623 -0.35797,24.09721 0,9.21363 c 0.71835,0.94525 2.04435,1.71405 3.96006,2.28127 0.95782,0.28353 1.84665,0.55799 2.68479,0.84163 0.95781,0.28354 2.10604,0.51963 3.42311,0.70874 1.43674,0.28354 2.62183,0.48127 3.57972,0.57585 0.95779,0.18901 2.28379,0.38675 3.96007,0.57585 1.67617,0.28354 2.92055,0.45913 3.7587,0.55371 0.9578,0.0945 2.34305,0.2317 4.13905,0.42081 1.91564,0.18901 3.21928,0.34839 3.9377,0.44296 0.83807,1.32335 1.27521,3.25049 1.27527,5.80283 -6e-5,2.55222 -0.37796,4.16653 -1.09628,4.8283 -0.59872,0.75616 -1.78383,1.12949 -3.57973,1.12956 z m -21.12036,17.98432 c 11.80063,-0.0987 23.47994,-4.6022 32.32936,-12.31439 13.24653,-11.33322 18.82412,-30.15671 15.07957,-46.97627 -3.27288,-15.66192 -15.4971,-28.71851 -30.49475,-34.30751 -15.56387,-6.217703 -34.27056,-3.243588 -47.36418,7.04312 -14.53342,10.99401 -21.57045,30.51096 -17.87622,48.19442 4.38989,21.42697 25.05193,38.2366 47.18519,38.33847 0.38086,0.006 0.76037,0.0253 1.14103,0.0221 z m 47.16282,8.99215 c 1.54655,-2e-5 2.87823,-0.32864 3.91533,-1.04096 1.04935,-0.69961 1.6556,-1.82694 1.65561,-3.0786 -1e-5,-0.74056 -0.19813,-1.48482 -0.53695,-2.21481 -0.31994,-0.67067 -0.67462,-1.24773 -1.07392,-1.70541 -0.29237,-0.31989 -0.59967,-0.64614 -0.9173,-0.95237 0.89105,-0.49529 1.64447,-1.11972 2.21495,-1.90475 l 0.0224,0 c 0.003,-0.005 -0.003,-0.0395 0,-0.0443 0.67428,-0.89801 1.00679,-1.96982 1.0068,-3.1229 -1e-5,-2.13007 -0.89271,-3.92258 -2.57293,-5.11622 -1.6166,-1.1621 -3.6068,-1.78714 -5.88416,-1.86045 0,0 -0.0188,6.9e-4 -0.0224,0 -0.56216,1e-5 -1.11656,0.28097 -1.49901,0.6866 -0.30244,0.3224 -0.58171,0.67287 -0.58171,1.196 0,0.24098 0.01,0.48223 0.0671,0.70874 l 0.17899,0.62015 0.62645,0.0221 c 1.96649,0.0654 3.3559,0.48907 4.18379,1.12956 0.82791,0.64048 1.20816,1.48892 1.20816,2.83497 0,1.31542 -0.52748,2.09341 -1.96884,2.72422 -0.37419,0.16668 -0.66581,0.31724 -0.91731,0.48726 -0.2515,0.17002 -0.58647,0.31311 -0.64882,0.93022 l -0.0224,0.28793 0.15662,0.24363 c 0.21017,0.32364 0.54336,0.74294 1.07391,1.37319 l 0,0.0221 c 0.50908,0.58522 0.90845,1.13565 1.18578,1.63896 l 0,0.0222 c 0.26201,0.45046 0.38033,0.88003 0.38034,1.37318 -1e-5,0.43973 -0.11072,0.68555 -0.40271,0.95237 -0.25218,0.23042 -0.653,0.4208 -1.38715,0.42082 -0.12853,-1e-5 -0.60614,-0.0781 -1.27527,-0.24363 -0.35327,-0.0874 -0.63477,-0.15298 -0.85018,-0.19934 -0.21542,-0.0463 -0.26939,-0.0886 -0.55933,-0.0886 -0.53219,-8e-5 -0.72973,0.18661 -1.0068,0.37652 l -0.0224,0.0221 -0.0224,0.0221 c -0.31674,0.26126 -0.62645,0.64072 -0.62645,1.15171 0,0.5698 0.36787,0.92412 0.69357,1.15171 0.3257,0.22758 0.70251,0.41976 1.18579,0.59799 0.99663,0.37944 2.01199,0.57583 3.04275,0.57585 z m -45.1718,31.98242 c -50.1553,-0.0224 -91.30063,-38.5455 -90.75188,-89.1125 0.54876,-49.139896 37.8134,-85.542984 88.30297,-86.092184 51.47813,-0.5488 88.63288,21.193464 187.47297,149.72656 3.07264,4.008004 4.00447,6.313504 4.00447,9.662504 0,6.368 -4.82866,11.25625 -12.12742,11.25625 l -85.33709,0 -20.4706,-31.465626 c -16.16323,23.595996 -40.81856,36.038496 -71.09342,36.024996 z m -143.76583,-4.55937 c -7.29906,0 -12.12899,-4.88825 -12.12899,-11.25625 0,-3.349 0.65829,-5.43482 2.90809,-8.782816 l 43.46663,-65.17344 c -1.31742,35.908 15.69483,67.313506 38.41574,85.212506 z"
         inkscape:connector-curvature="0" /></g></g></svg>