<?xml version="1.0" encoding="UTF-8" standalone="no"?>
<!-- Created with Inkscape (http://www.inkscape.org/) -->

<svg
   xmlns:dc="http://purl.org/dc/elements/1.1/"
   xmlns:cc="http://creativecommons.org/ns#"
   xmlns:rdf="http://www.w3.org/1999/02/22-rdf-syntax-ns#"
   xmlns:svg="http://www.w3.org/2000/svg"
   xmlns="http://www.w3.org/2000/svg"
   xmlns:sodipodi="http://sodipodi.sourceforge.net/DTD/sodipodi-0.dtd"
   xmlns:inkscape="http://www.inkscape.org/namespaces/inkscape"
   id="svg4155"
   version="1.1"
   inkscape:version="0.91 r13725"
   xml:space="preserve"
   width="582.8175"
   height="370.20874"
   viewBox="0 0 582.8175 370.20874"
   sodipodi:docname="posthorn2.svg"><metadata
     id="metadata4161"><rdf:RDF><cc:Work
         rdf:about=""><dc:format>image/svg+xml</dc:format><dc:type
           rdf:resource="http://purl.org/dc/dcmitype/StillImage" /><dc:title></dc:title></cc:Work></rdf:RDF></metadata><defs
     id="defs4159"><clipPath
       clipPathUnits="userSpaceOnUse"
       id="clipPath4169"><path
         d="m 0,296.167 466.254,0 L 466.254,0 0,0 0,296.167 Z"
         id="path4171"
         inkscape:connector-curvature="0" /></clipPath><clipPath
       clipPathUnits="userSpaceOnUse"
       id="clipPath4177"><path
         d="m -0.00132751,296.167 466.24432751,0 0,-296.16416187 -466.24432751,0 0,296.16416187 z"
         id="path4179"
         inkscape:connector-curvature="0" /></clipPath></defs><sodipodi:namedview
     pagecolor="#ffffff"
     bordercolor="#666666"
     borderopacity="1"
     objecttolerance="10"
     gridtolerance="10"
     guidetolerance="10"
     inkscape:pageopacity="0"
     inkscape:pageshadow="2"
     inkscape:window-width="1920"
     inkscape:window-height="1028"
     id="namedview4157"
     showgrid="false"
     inkscape:zoom="2.190656"
     inkscape:cx="291.40875"
     inkscape:cy="185.10437"
     inkscape:window-x="0"
     inkscape:window-y="28"
     inkscape:window-maximized="1"
     inkscape:current-layer="g4163" /><g
     id="g4163"
     inkscape:groupmode="layer"
     inkscape:label="Post_Horn_1C_positiv"
     transform="matrix(1.25,0,0,-1.25,0,370.20875)"><path
       id="path4798"
       style="fill:#000000;fill-opacity:1;stroke:none"
       d="m 228.65545,163.59637 c -2.7434,-4e-5 -6.03693,-0.79196 -9.89245,-2.37175 -3.85556,-1.57987 -6.01157,-2.37179 -6.45641,-2.37174 -0.0742,0.40955 -0.11093,1.11651 -0.11079,2.11125 -2e-5,1.28724 -1.84861,1.93301 -5.55584,1.93305 -1.70534,-4e-5 -2.21531,-0.41543 -2.66017,-1.87821 -0.35426,-1.18328 -0.29696,-2.08769 -0.34636,-3.16689 -0.0741,-2.6136 -0.0415,-2.33942 -0.0415,-3.50963 0,-0.0183 -3e-5,-0.011 0,-0.0274 -0.004,-0.0144 -0.008,-0.0218 -0.0139,-0.0548 l 0.0554,-20.24894 c 9.3e-4,-5.51175 0.20869,-8.44512 1.09453,-8.91118 0.44488,-0.23405 0.35191,-0.47983 2.79872,-0.47983 2.5209,0 4.07594,0.39093 4.66912,1.15159 0.29656,0.4681 0.44335,0.93027 0.44338,1.39837 0.074,0.46811 0.11078,1.05267 0.11078,1.75482 -10e-6,0.76065 -10e-6,1.26028 0,1.49434 l 0,1.3161 -0.22166,14.91595 0,5.70316 c 0.44484,0.58509 1.26599,1.06097 2.45231,1.41207 0.59315,0.1755 1.14358,0.3454 1.66261,0.52096 0.59315,0.17551 1.3042,0.32166 2.11982,0.4387 0.88973,0.17552 1.6236,0.2979 2.21679,0.35645 0.59313,0.11695 1.41428,0.2394 2.45234,0.35645 1.03798,0.17552 1.80858,0.2842 2.32762,0.34274 0.59314,0.0586 1.45098,0.14342 2.56318,0.26048 1.18629,0.11695 1.99359,0.21564 2.43849,0.27419 0.51898,0.81915 0.78969,2.01202 0.78973,3.5919 -4e-5,1.57978 -0.23407,2.57904 -0.6789,2.98867 -0.37076,0.46805 -1.10466,0.69915 -2.2168,0.69918 z m -13.58861,68.6161 c -50.623,0 -88.01306,-38.32362 -87.46406,-88.89062 0.549,-49.139 37.83018,-85.543192 88.34218,-86.092192 51.501,-0.548 88.67169,21.194568 187.55469,149.726572 3.075,4.008 4.00782,6.31405 4.00782,9.66405 0,6.368 -4.83138,11.25469 -12.13438,11.25469 l -85.375,0 -51.27969,-78.78906 c -15.758,-24.213 -26.46487,-34.31563 -42.77187,-34.31563 -17.35,0 -30.80157,11.42138 -30.80157,29.75938 0,18.503 12.73944,30.85625 30.19844,30.85625 12.503,0 21.60394,-6.61237 27.98594,-13.93437 l 30.95469,46.74062 c -13.413,14.15 -33.75419,24.02031 -59.21719,24.02031 z m -140.50156,-4.3375 c -7.302,0 -12.134375,-4.88669 -12.134375,-11.25469 0,-3.35 0.658375,-5.43537 2.909375,-8.78437 l 43.48594,-65.17344 c -1.318,35.908 15.70181,67.3145 38.43281,85.2125 l -72.69375,0 z m 261.77812,-14.7625 c 2.96933,-4e-5 5.526,-0.6314 7.5172,-1.99844 2.01472,-1.34263 3.17967,-3.50572 3.17968,-5.9078 -10e-6,-1.42123 -0.38072,-2.84908 -1.03125,-4.25 -0.61427,-1.2871 -1.29586,-2.39511 -2.0625,-3.27344 -0.56134,-0.61391 -1.15109,-1.24044 -1.76093,-1.82813 1.71078,-0.95051 3.1578,-2.14813 4.25312,-3.65469 l 0.0422,0 c 0.005,-0.01 -0.005,-0.0752 0,-0.0844 1.2946,-1.72337 1.93436,-3.78085 1.93437,-5.99374 -1e-5,-4.08786 -1.71465,-7.52802 -4.94063,-9.81875 -3.10382,-2.2302 -6.92442,-3.42963 -11.29687,-3.57031 0,0 -0.0369,0.002 -0.0438,0 -1.07933,1e-5 -2.14383,0.53873 -2.87812,1.31718 -0.58067,0.61874 -1.11719,1.29138 -1.11719,2.29531 0,0.46247 0.0201,0.92624 0.12968,1.36095 l 0.34376,1.18905 1.20312,0.0438 c 3.77559,0.12551 6.44329,0.93801 8.03281,2.16719 1.58957,1.22915 2.31875,2.8574 2.31875,5.44063 0,2.52445 -1.01232,4.01752 -3.77968,5.22812 -0.71843,0.31987 -1.27805,0.60809 -1.76094,0.93437 -0.48287,0.32629 -1.12718,0.60164 -1.24688,1.78594 l -0.0422,0.55313 0.3,0.46718 c 0.40351,0.62111 1.04388,1.42486 2.0625,2.63438 l 0,0.0438 c 0.97743,1.12311 1.7441,2.17941 2.27656,3.14531 l 0,0.0422 c 0.50305,0.86449 0.72967,1.68795 0.72969,2.63437 -2e-5,0.8439 -0.21126,1.31606 -0.77188,1.82813 -0.48417,0.4422 -1.2545,0.80777 -2.66406,0.80781 -0.24675,-2e-5 -1.16375,-0.14951 -2.44843,-0.46719 -0.67828,-0.16772 -1.21922,-0.29384 -1.63282,-0.38281 -0.4136,-0.0889 -0.51675,-0.17031 -1.07343,-0.17031 -1.02179,-1.6e-4 -1.40084,0.35898 -1.93282,0.72343 l -0.0438,0.0422 -0.0422,0.0422 c -0.60813,0.50139 -1.20313,1.22873 -1.20313,2.20938 0,1.09351 0.70593,1.77417 1.33125,2.21093 0.62535,0.43676 1.3487,0.80484 2.27657,1.14688 1.91349,0.72819 3.86317,1.10621 5.84218,1.10625 z" /></g></svg>