<?xml version="1.0" encoding="UTF-8" standalone="no"?>
<!-- Created with Inkscape (http://www.inkscape.org/) -->

<svg
   xmlns:dc="http://purl.org/dc/elements/1.1/"
   xmlns:cc="http://creativecommons.org/ns#"
   xmlns:rdf="http://www.w3.org/1999/02/22-rdf-syntax-ns#"
   xmlns:svg="http://www.w3.org/2000/svg"
   xmlns="http://www.w3.org/2000/svg"
   xmlns:sodipodi="http://sodipodi.sourceforge.net/DTD/sodipodi-0.dtd"
   xmlns:inkscape="http://www.inkscape.org/namespaces/inkscape"
   id="svg2"
   sodipodi:version="0.32"
   inkscape:version="0.91 r13725"
   width="930"
   height="676.28998"
   version="1.0"
   sodipodi:docname="r3CCC.svg"
   inkscape:output_extension="org.inkscape.output.svg.inkscape">
  <metadata
     id="metadata7">
    <rdf:RDF>
      <cc:Work
         rdf:about="">
        <dc:format>image/svg+xml</dc:format>
        <dc:type
           rdf:resource="http://purl.org/dc/dcmitype/StillImage" />
        <dc:title></dc:title>
      </cc:Work>
    </rdf:RDF>
  </metadata>
  <defs
     id="defs5" />
  <sodipodi:namedview
     inkscape:window-height="1028"
     inkscape:window-width="1920"
     inkscape:pageshadow="2"
     inkscape:pageopacity="0.0"
     guidetolerance="10.0"
     gridtolerance="10.0"
     objecttolerance="10.0"
     borderopacity="1.0"
     bordercolor="#666666"
     pagecolor="#ffffff"
     id="base"
     width="930px"
     height="676.29px"
     inkscape:zoom="1.5555743"
     inkscape:cx="453.54798"
     inkscape:cy="320.02011"
     inkscape:window-x="0"
     inkscape:window-y="28"
     inkscape:current-layer="g5489"
     showgrid="false"
     showguides="true"
     inkscape:guide-bbox="true"
     showborder="false"
     inkscape:window-maximized="1" />
  <g
     id="g4206"
     transform="matrix(0.78398178,0,0,0.78398178,-109.41274,-157.49813)" />
  <g
     id="g5485"
     transform="matrix(0.60959472,0,0,0.60959472,322.89658,-4.3756129)">
    <g
       id="g5489">
      <path
         id="path2161"
         style="fill:#000000;fill-opacity:1"
         d="m 597.01489,1014.9478 c -18.476,-12.4624 -28.187,-32.61122 -29.99051,-62.22601 -1.34401,-22.06902 0.86219,-38.69995 10.35437,-78.05433 8.47744,-35.14699 9.61067,-42.18096 10.15081,-63.00427 l 0.46954,-18.10294 -2.62352,-4.82036 c -1.44302,-2.65119 -2.87506,-4.79276 -3.18231,-4.75901 -0.95228,0.10459 -12.5104,13.81676 -19.53273,23.17296 -15.31272,20.40193 -24.00337,40.52602 -25.5859,59.24688 l -0.61233,7.24363 -4.9411,1.02578 c -9.95401,2.06645 -10.19197,1.9985 -11.59552,-3.31119 -1.87571,-7.09579 -0.98989,-24.81953 1.62997,-32.61253 3.55303,-10.56914 11.52755,-25.37323 22.92628,-42.56058 12.65396,-19.08007 20.90366,-34.14818 23.94119,-43.72897 2.48628,-7.84168 2.78526,-8.02334 14.58133,-8.86065 l 8.18689,-0.58113 2.92701,7.45447 c 6.97095,17.75356 9.53679,30.23833 10.37152,50.46521 0.95369,23.10807 -1.48381,43.73698 -11.11371,94.05646 -8.34655,43.61316 -8.24426,42.6161 -5.76335,56.18001 4.28462,23.42537 10.17613,36.99498 21.23002,48.89817 2.66393,2.8686 2.74634,3.2243 2.08142,8.9804 -0.38075,3.2964 -1.0545,6.9505 -1.49722,8.1203 -1.26656,3.3466 -5.19987,2.6424 -12.41215,-2.2223 z m -84.73933,-93.71363 -4.13394,-0.36753 0.50817,-3.78872 c 0.77968,-5.81314 4.51488,-10.64552 10.48683,-13.56732 4.63228,-2.26635 6.78513,-2.6262 20.1356,-3.36568 8.22186,-0.45537 16.54404,-0.84414 18.49372,-0.86392 l 3.54478,-0.036 0,8.96226 c 0,10.59336 2.71211,9.12483 -21.80242,11.80567 -17.23849,1.88513 -18.91816,1.96046 -27.23274,1.22121 z m 85.33423,-12.10421 c -0.78175,-3.11492 0.2206,-9.30843 2.09246,-12.92814 2.24089,-4.33335 8.57486,-10.81285 16.43538,-16.81278 8.10109,-6.18363 15.13092,-13.39788 17.47785,-17.93633 5.05333,-9.77209 8.47651,-42.0933 6.2373,-58.89278 -3.05011,-22.88346 -14.8925,-48.35889 -30.33395,-65.25422 -2.59858,-2.84329 -4.72471,-5.58923 -4.72471,-6.10211 0,-0.51285 4.53672,-5.13241 10.08163,-10.26565 7.10764,-6.57994 10.21466,-8.91491 10.53251,-7.91525 1.251,3.9351 17.02641,33.36404 20.57006,38.3734 7.6671,10.8385 17.84351,18.56355 27.83785,21.13223 2.33089,0.59909 5.84182,1.70564 7.80201,2.45905 5.15974,1.98316 12.24432,1.69161 24.13875,-0.99341 17.79447,-4.01686 23.45919,-2.87534 27.53744,5.54916 3.38184,6.98588 2.70397,8.21865 -6.15244,11.18989 -15.53023,5.21022 -35.99379,5.4352 -56.5031,0.62122 -6.31803,-1.483 -8.62745,-1.69592 -9.45289,-0.87158 -1.23995,1.23836 -1.30699,9.38563 -0.18705,22.74088 0.62826,7.49204 0.41281,10.7548 -1.30022,19.68806 -5.20729,27.15457 -15.38211,47.02784 -32.07297,62.64391 -6.58363,6.15975 -8.97734,7.78467 -13.30302,9.03073 -2.90115,0.83572 -7.71211,2.74261 -10.69115,4.23753 l -5.41636,2.71806 z M 544.0725,742.33077 c -1.42248,-0.42831 -4.08115,-1.70258 -5.90812,-2.83173 -2.72571,-1.68456 -3.32181,-2.61936 -3.32181,-5.20916 l 0,-3.15618 6.38074,-0.62467 c 15.93958,-1.56045 28.8102,-6.82412 41.48704,-16.96689 13.52382,-10.82039 25.2373,-26.41667 44.29814,-58.982 6.13445,-10.48072 10.0041,-16.16173 11.02315,-16.18286 1.91077,-0.0397 6.25116,4.93193 7.0361,8.05923 1.2648,5.03958 -5.99867,29.30913 -12.93138,43.20742 -13.39078,26.84519 -35.86918,45.11418 -63.73591,51.80037 -7.75335,1.8603 -19.65368,2.29392 -24.32795,0.88647 z m -39.95185,-28.74631 c -6.1591,-1.5221 -9.86251,-3.51886 -14.31533,-7.71841 l -3.62849,-3.42213 2.21248,-1.79158 c 3.42532,-2.7736 10.82437,-4.63134 24.23897,-6.08581 6.75878,-0.73282 14.20301,-1.95401 16.54254,-2.71377 25.71161,-8.34939 41.74439,-18.62549 62.52719,-40.0763 10.17051,-10.49737 31.10473,-36.46194 32.65481,-40.50149 0.31428,-0.81896 2.01551,-1.289 4.66537,-1.289 4.8765,0 4.86843,-0.56209 0.19708,13.67591 -10.54769,32.14881 -32.31205,58.75597 -63.40702,77.51578 -6.99214,4.21838 -8.31636,4.62333 -29.67699,9.0755 -24.03543,5.00968 -24.86837,5.09635 -32.01061,3.3313 z M 9.3774803,766.43103 C 10.288312,764.05741 83.003702,643.13957 90.719812,633.53768 106.6057,613.76927 129.81504,589.43164 138.59317,583.33697 c 6.53255,-4.53556 18.08134,-8.26397 29.3657,-9.4804 13.43891,-1.44867 123.92702,-1.39608 209.4928,0.0997 72.59166,1.26901 70.60176,1.10203 91.31284,7.66245 6.41402,2.03172 11.84154,3.51444 12.06103,3.29493 0.21948,-0.21951 -0.76075,-1.91983 -2.17846,-3.7785 -3.33513,-4.37252 -10.7444,-9.23657 -18.49213,-12.13972 -12.94056,-4.84897 -17.32709,-5.1491 -91.21092,-6.24107 -66.6239,-0.98467 -96.59332,-1.69163 -176.29679,-4.15881 l -37.33899,-1.1558 -5.54281,-2.76426 c -9.76327,-4.86899 -8.80606,-1.95626 -47.30508,-50.18707 -20.445989,-25.61432 -33.263144,-48.25868 -37.692884,-58.3698 -1.823502,-4.16224 12.641249,-5.39427 13.833617,-4.15868 3.203349,3.31948 11.209518,19.33211 22.609507,34.58324 24.55169,32.84577 31.88278,41.73772 43.17627,52.36893 11.18395,10.5281 15.10853,13.11976 22.09352,14.58979 13.46012,2.83275 50.05797,3.49471 131.88284,2.38539 94.86206,-1.28609 126.65853,-0.60226 141.47762,3.04272 11.83348,2.91063 26.36435,7.95653 35.4456,12.30857 3.83279,1.83681 7.13427,3.1741 7.33659,2.97175 0.88218,-0.88208 -2.81937,-6.15501 -7.19146,-10.24462 -13.71378,-12.82759 -34.13759,-20.81894 -59.69564,-23.35742 -10.2395,-1.01703 -68.99213,-1.48616 -107.29054,-0.85673 -11.95793,0.19654 -35.77926,0.34746 -52.9363,0.33539 -28.02277,-0.0198 -32.37874,-0.23507 -42.84049,-2.118 -13.85701,-2.49404 -29.35067,-7.46714 -38.46738,-12.34712 -5.46663,-2.9262 -6.96396,-4.2625 -8.69288,-7.75809 -4.97357,-10.05575 -6.53938,-38.92074 -3.04808,-60.92878 l 3.72888,-20.84115 5.85272,-0.68442 c 4.09451,-0.47881 10.16362,-5.36895 8.74045,15.43029 0.0826,0.12997 0.1453,13.66956 0.47396,26.40736 0.65418,25.35169 0.96913,26.92673 6.68659,33.43853 4.16842,4.74757 6.79235,5.94508 15.62916,7.13274 18.71639,2.51551 33.05285,2.92782 101.23627,2.9116 42.07793,-0.01 76.83563,0.39278 83.65825,0.96947 32.00029,2.70493 57.60831,9.09696 79.90286,19.94464 10.81021,5.25985 12.01472,6.13444 19.72428,14.32218 14.50481,15.40437 28.55011,35.99112 36.58343,53.62157 l 3.66112,8.03498 -0.34229,-5.76006 c -0.76338,-12.84622 -19.68117,-44.16335 -49.29243,-81.60034 -5.51724,-6.97532 -10.03128,-13.01287 -10.03128,-13.41679 0,-1.35973 4.1812,-3.67747 6.63417,-3.67747 4.3179,0 15.45308,7.51646 20.51362,13.84708 25.82086,32.3014 41.95161,58.60933 49.47056,80.68203 1.68248,4.93914 4.06185,10.0348 5.28745,11.32365 l 2.22842,2.34341 2.85941,-2.85947 2.8595,-2.85949 -2.44546,-8.46419 c -5.46127,-18.90198 -11.41852,-30.59006 -34.38305,-67.4599 -17.52202,-28.13181 -17.63143,-28.4437 -9.97736,-28.4437 3.31328,0 5.33244,0.86657 10.99144,4.71728 3.81291,2.59452 7.60747,5.25315 8.43244,5.90808 2.4164,1.91853 21.34966,34.02298 27.91763,47.33901 3.3191,6.72929 7.56031,17.17753 9.42477,23.21829 4.94222,16.01224 4.95854,16.03017 10.33795,11.30703 3.4423,-3.02235 3.50033,-3.18609 2.95026,-8.32045 -1.28298,-11.97562 -8.16494,-33.46856 -16.32549,-50.98581 -2.27576,-4.88511 -4.13778,-9.45124 -4.13778,-10.14697 0,-0.69571 1.23177,-2.64346 2.73715,-4.32831 2.63524,-2.94928 2.83766,-3.01145 5.43538,-1.66917 4.39497,2.27081 11.9324,10.51048 15.14546,16.55648 1.64686,3.09877 5.43042,13.8227 8.40788,23.83097 2.97754,10.00827 5.75359,18.19686 6.16894,18.19686 0.41554,0 2.16195,-1.76578 3.88099,-3.92397 7.93281,-9.95917 10.80928,-11.3456 14.77689,-7.12227 2.56586,2.73117 2.60975,6.30315 0.16473,13.40947 -2.52627,7.34284 -2.42811,9.37714 0.51718,10.7191 1.32423,0.60338 3.02572,1.09703 3.78113,1.09703 1.85733,0 1.72739,2.4565 -0.46738,8.83574 -6.49259,18.87105 -20.49272,35.52074 -42.58783,50.64756 -20.98888,14.3695 -48.22087,23.35124 -74.04659,24.4223 -12.81063,0.53128 -20.26395,-0.95569 -26.62688,-5.31215 -4.88889,-3.3473 -5.06413,-6.28407 -0.55618,-9.32198 4.9248,-3.31884 11.43408,-4.86922 25.02373,-5.96014 42.20343,-3.38793 74.14062,-18.72396 97.32362,-46.73416 3.63834,-4.396 3.72038,-4.61225 1.09667,-2.89066 -28.78845,18.88962 -60.15542,32.68072 -83.92026,36.8972 -7.12967,1.26496 -12.42359,1.52971 -23.15964,1.15821 -14.74643,-0.51026 -23.54977,-2.28132 -33.73959,-6.78773 -5.63491,-2.49201 -6.35365,-3.78319 -5.94055,-10.67087 l 0.23992,-4.00097 -77.51382,-0.47667 c -42.63264,-0.26215 -87.49253,-0.47522 -99.68864,-0.47345 -28.20558,0.004 -55.63581,1.81827 -78.97139,5.22309 -11.01438,1.60709 -12.94259,3.0415 -16.62536,12.36778 -2.48117,6.28339 -5.39724,15.3114 -4.53608,32.89367 0.952,19.43703 11.13274,58.82001 7.81384,61.19418 -10.12227,7.24097 -13.3797,7.02371 -14.35757,2.37776 -1.45829,-6.92847 -8.91017,-39.4027 -10.48167,-52.21668 -2.3017,-18.76819 -0.88142,-39.16953 3.68149,-52.88105 1.82966,-5.4981 2.61298,-6.56273 7.29591,-9.91611 9.87065,-7.06822 26.36056,-11.79072 49.41304,-14.15128 5.64892,-0.57843 29.23838,-0.99567 54.82687,-0.96971 24.70164,0.025 68.94615,-0.23223 98.32105,-0.57173 34.19834,-0.39524 62.89941,-0.23556 79.79438,0.44394 14.51193,0.58364 26.56856,0.87795 26.79254,0.65403 0.94086,-0.94088 -10.11087,-6.25046 -16.72076,-8.03315 -13.01444,-3.51003 -18.97966,-3.88294 -76.15951,-4.76089 -31.19454,-0.47898 -81.8149,-1.36986 -112.48959,-1.97977 -84.73746,-1.68482 -92.46663,-1.65878 -99.7282,0.3361 -12.83015,3.52465 -24.05159,8.92455 -33.55785,16.14844 -9.60447,7.29853 -20.6788,19.73475 -47.023616,52.80643 L 20.44017,771.56226 12.984103,770.67739 C 7.0631431,769.9747 8.9238523,767.61314 9.3774803,766.43103 Z M 395.74936,233.91792 c -0.76914,-38.54387 -32.12337,-69.62799 -70.78549,-69.91836 l -280.290657,0 -1.611576,0 c -0.974833,0 -1.99894,-0.0119 -2.97524,0 -191.749457,2.43158 -346.613287,158.88514 -346.613287,351.2034 0,193.83255 163.10846,359.72694 351.911652,359.61801 175.302378,-0.10114 310.132528,-126.28369 344.958158,-239.1456 -10.78206,-10.97172 -91.97266,-8.87235 -99.91031,-1.40853 -36.49801,54.42923 -61.58431,93.53895 -144.56558,130.23756 -88.557549,38.41348 -195.62798,21.87389 -268.17813,-35.70333 -80.528,-61.53618 -119.51937,-170.77734 -99.05008,-269.75594 24.32391,-119.93202 137.649869,-211.4097 260.287615,-211.97996 57.275194,-1.01964 133.067555,20.13868 186.940625,69.8631 86.1386,81.58705 83.57313,171.23638 86.61404,179.52084 3.04091,8.28445 63.05475,-3.00604 83.25614,4.2997 -0.0184,-69.70067 0.0121,-266.83089 0.0121,-266.83089 z M 307.73236,194 c 8.56928,1.2e-4 15.94792,1.83951 21.69434,5.82652 5.81439,3.91583 9.17355,10.22577 9.17359,17.23167 -4e-5,4.14511 -1.09784,8.31087 -2.9752,12.39687 -1.77276,3.75389 -3.73796,6.98382 -5.95044,9.54557 -1.62002,1.79048 -3.32273,3.61658 -5.08268,5.33067 4.93724,2.7722 9.11187,6.26733 12.27279,10.66129 l 0.12407,0 c 0.0159,0.0277 -0.0159,0.2208 0,0.24815 3.73606,5.02639 5.5785,11.02555 5.57854,17.47962 -4e-5,11.92253 -4.94639,21.95568 -14.25627,28.63677 -8.9574,6.50453 -19.98485,10.00303 -32.60346,10.41334 0,0 -0.10425,-0.004 -0.12407,0 -3.11481,0 -6.1867,-1.57261 -8.30583,-3.843 -1.67579,-1.80463 -3.22319,-3.76627 -3.22319,-6.69433 0,-1.3488 0.0551,-2.69919 0.37183,-3.96701 l 0.99176,-3.4711 3.4711,-0.12407 c 10.89608,-0.36628 18.59466,-2.73748 23.18191,-6.32243 4.58733,-3.5849 6.69425,-8.33385 6.69425,-15.86796 -4e-5,-7.36275 -2.92271,-11.71739 -10.90912,-15.24819 -2.07335,-0.93293 -3.68916,-1.77564 -5.08268,-2.72729 -1.39351,-0.95168 -3.24955,-1.75254 -3.59505,-5.20667 l -0.12408,-1.61162 0.86781,-1.36366 c 1.16455,-1.81152 3.01072,-4.15838 5.95044,-7.68605 l 0,-0.12408 c 2.82076,-3.27567 5.0336,-6.35651 6.57026,-9.17367 l 0,-0.12407 c 1.45174,-2.5214 2.10739,-4.92582 2.10743,-7.68609 -4e-5,-2.46127 -0.61351,-3.83718 -2.23139,-5.33063 -1.39728,-1.2897 -3.61816,-2.35535 -7.68601,-2.35543 -0.71218,4e-5 -3.35856,0.43688 -7.06612,1.36367 -1.95743,0.4894 -3.5172,0.85623 -4.71077,1.11571 -1.19361,0.25965 -1.49265,0.49614 -3.0992,0.49586 -2.94876,4.8e-4 -4.0433,-1.04448 -5.57853,-2.10743 l -0.12408,-0.12408 -0.12407,-0.12407 c -1.75503,-1.46233 -3.4711,-3.58626 -3.4711,-6.44638 0,-3.1893 2.0383,-5.17254 3.843,-6.44638 1.80467,-1.27384 3.89252,-2.34952 6.5703,-3.34715 5.52225,-2.1238 11.14824,-3.22307 16.85957,-3.22319 z M 163.43414,344.9939 c -24.54657,3.6e-4 -54.01563,7.16122 -88.512858,21.44658 -34.497586,14.28608 -53.788567,21.4469 -57.768887,21.44658 -0.663579,-3.70339 -0.991879,-10.09614 -0.991721,-19.09115 -1.58e-4,-11.63989 -16.54054023,-17.47926 -49.71101,-17.47962 -15.258574,3.6e-4 -19.821368,3.75655 -23.801767,16.98372 -3.169716,10.69994 -2.657009,18.87809 -3.099196,28.63681 -0.66346,23.63357 -0.371826,21.15423 -0.371826,31.73597 0,0.1653 -2.38e-4,0.0947 0,0.24814 -0.03568,0.13082 -0.0769,0.19662 -0.124074,0.4959 l 0.49586,183.10178 c 0.01586,49.8402 1.867216,76.36533 9.793448,80.57969 3.980399,2.11639 3.148746,4.33886 25.041438,4.33886 22.5558733,0 36.469611,-3.53504 41.777088,-10.41334 2.65348,-4.23275 3.966802,-8.41198 3.966961,-12.64481 0.663221,-4.23279 0.991562,-9.51878 0.99172,-15.868 -1.58e-4,-6.87827 -1.58e-4,-11.39615 0,-13.51258 l 0,-11.90101 -1.98348,-134.87795 0,-51.57101 c 3.98032,-5.29075 11.327487,-9.5939 21.942281,-12.76876 5.30708,-1.58704 10.232028,-3.12326 14.876085,-4.71082 5.30708,-1.58703 11.669345,-2.90852 18.967041,-3.967 7.960798,-1.58704 14.52721,-2.69383 19.834806,-3.22319 5.307001,-1.05792 12.654251,-2.16471 21.942281,-3.22319 9.28748,-1.58704 16.18243,-2.56984 20.82653,-3.09919 5.30704,-0.52885 12.98255,-1.29695 22.934,-2.35543 10.61432,-1.05792 17.83761,-1.94998 21.81829,-2.47938 4.64366,-7.4071 7.0658,-18.19378 7.06615,-32.47982 -3.5e-4,-14.2854 -2.09427,-23.32113 -6.07439,-27.02515 -3.31742,-4.23248 -9.88399,-6.32207 -19.83481,-6.32243 z" />
    </g>
  </g>
</svg>
