<?xml version="1.0" encoding="UTF-8" standalone="no"?>
<!-- Created with Inkscape (http://www.inkscape.org/) -->

<svg
   xmlns:dc="http://purl.org/dc/elements/1.1/"
   xmlns:cc="http://creativecommons.org/ns#"
   xmlns:rdf="http://www.w3.org/1999/02/22-rdf-syntax-ns#"
   xmlns:svg="http://www.w3.org/2000/svg"
   xmlns="http://www.w3.org/2000/svg"
   xmlns:sodipodi="http://sodipodi.sourceforge.net/DTD/sodipodi-0.dtd"
   xmlns:inkscape="http://www.inkscape.org/namespaces/inkscape"
   version="1.0"
   width="502.92899"
   height="495.66095"
   id="svg2"
   sodipodi:version="0.32"
   inkscape:version="0.92.3 (2405546, 2018-03-11)"
   sodipodi:docname="r3mycete.svg"
   inkscape:output_extension="org.inkscape.output.svg.inkscape"
   inkscape:export-filename="./r3mycete.png"
   inkscape:export-xdpi="71.480003"
   inkscape:export-ydpi="71.480003"
   viewBox="0 0 471.49592 464.68214">
  <sodipodi:namedview
     inkscape:window-height="1172"
     inkscape:window-width="1600"
     inkscape:pageshadow="2"
     inkscape:pageopacity="0.0"
     guidetolerance="10.0"
     gridtolerance="10.0"
     objecttolerance="10.0"
     borderopacity="1.0"
     bordercolor="#666666"
     pagecolor="#ffffff"
     id="base"
     showgrid="false"
     inkscape:zoom="0.55386114"
     inkscape:cx="-74.235425"
     inkscape:cy="214.96987"
     inkscape:window-x="1920"
     inkscape:window-y="0"
     inkscape:current-layer="svg2"
     inkscape:document-units="mm"
     units="mm"
     showguides="true"
     inkscape:guide-bbox="true"
     inkscape:window-maximized="1"
     showborder="true"
     inkscape:showpageshadow="true"
     fit-margin-top="50"
     fit-margin-left="50"
     fit-margin-right="50"
     fit-margin-bottom="50" />
  <metadata
     id="metadata8">
    <rdf:RDF>
      <cc:Work
         rdf:about="">
        <dc:format>image/svg+xml</dc:format>
        <dc:type
           rdf:resource="http://purl.org/dc/dcmitype/StillImage" />
        <dc:title></dc:title>
      </cc:Work>
    </rdf:RDF>
  </metadata>
  <defs
     id="defs4">
    <inkscape:perspective
       sodipodi:type="inkscape:persp3d"
       inkscape:vp_x="0 : 380.90848 : 1"
       inkscape:vp_y="0 : 1000 : 0"
       inkscape:vp_z="637.79529 : 380.90848 : 1"
       inkscape:persp3d-origin="318.89763 : 253.93899 : 1"
       id="perspective10" />
  </defs>
  <text
     xml:space="preserve"
     style="font-style:normal;font-weight:normal;line-height:0%;font-family:sans-serif;letter-spacing:0px;word-spacing:0px;fill:#000000;fill-opacity:1;stroke:none"
     x="281.85101"
     y="246.51117"
     id="text3529"><tspan
       sodipodi:role="line"
       id="tspan3531"
       x="281.85101"
       y="246.51117"
       style="font-style:normal;font-variant:normal;font-weight:normal;font-stretch:normal;font-size:18.78186989px;line-height:1.25;font-family:'Trebuchet MS';-inkscape-font-specification:'Trebuchet MS'"> </tspan></text>
  <text
     xml:space="preserve"
     style="font-style:normal;font-weight:normal;line-height:0%;font-family:sans-serif;letter-spacing:0px;word-spacing:0px;fill:#000000;fill-opacity:1;stroke:none"
     x="292.72006"
     y="245.52988"
     id="text3537"><tspan
       sodipodi:role="line"
       id="tspan3539"
       x="292.72006"
       y="245.52988"
       style="font-size:28px;line-height:1.25;font-family:sans-serif"> </tspan></text>
  <path
     style="fill:#761407;fill-opacity:1;stroke:none;stroke-width:2.11284947"
     d="M 220.18581,61.8774 C 117.04793,63.161685 33.75,145.79691 33.75,247.37503 c 0,102.37792 84.64207,185.43212 188.90296,185.43212 104.26091,0 188.83631,-83.0542 188.83629,-185.43212 0,-0.79986 0.015,-1.62524 0,-2.42268 V 98.80669 C 411.07554,78.44869 394.21078,62.030754 373.41526,61.8774 h -150.7623 -0.86683 c -0.52435,0 -1.07519,-0.0054 -1.60032,0 z M 364.1468,77.72294 c 4.60923,6e-5 8.57804,0.97157 11.66891,3.07742 3.12744,2.06829 4.93426,5.40105 4.93428,9.10139 -2e-5,2.18936 -0.5905,4.38964 -1.60029,6.54773 -0.95353,1.98274 -2.01057,3.6887 -3.20062,5.04179 -0.87137,0.9457 -1.78722,1.91018 -2.73386,2.81552 2.65563,1.46423 4.90108,3.31025 6.60127,5.63107 h 0.0667 c 0.009,0.0134 -0.009,0.11672 0,0.13095 2.00955,2.65484 3.00056,5.82344 3.00058,9.23233 -2e-5,6.29719 -2.66056,11.59649 -7.66814,15.12528 -4.81799,3.43556 -10.74942,5.28336 -17.53669,5.50012 0,0 -0.0561,-0.002 -0.0667,0 -1.67539,0 -3.32769,-0.83064 -4.46752,-2.02983 -0.90138,-0.95314 -1.73369,-1.98924 -1.73369,-3.53577 0,-0.71243 0.0297,-1.42564 0.19999,-2.09528 l 0.53345,-1.83338 1.86703,-0.0655 c 5.86077,-0.19347 10.00167,-1.44585 12.46905,-3.33934 2.46743,-1.89349 3.60069,-4.40177 3.60069,-8.38112 -2e-5,-3.88881 -1.57206,-6.18883 -5.86778,-8.05372 -1.11521,-0.49275 -1.98432,-0.93786 -2.73386,-1.44051 -0.74954,-0.50265 -1.74787,-0.92565 -1.9337,-2.75005 l -0.0667,-0.85119 0.46677,-0.72027 c 0.62639,-0.95678 1.6194,-2.19636 3.20062,-4.05958 v -0.0655 c 1.51722,-1.73016 2.70746,-3.35741 3.534,-4.84536 v -0.0655 c 0.78086,-1.33176 1.13352,-2.60171 1.13354,-4.05961 -2e-5,-1.29999 -0.32999,-2.02672 -1.20021,-2.81553 -0.75157,-0.68119 -1.94614,-1.24403 -4.13415,-1.24406 -0.38306,3e-5 -1.80649,0.23077 -3.80071,0.72024 -1.05286,0.25841 -1.89183,0.45226 -2.53382,0.5893 -0.64202,0.13712 -0.80287,0.26216 -1.66699,0.2619 -1.58608,2.4e-4 -2.17481,-0.5517 -3.00058,-1.11315 l -0.0667,-0.0655 -0.0667,-0.0655 c -0.94399,-0.77238 -1.86703,-1.89418 -1.86703,-3.40484 0,-1.68451 1.09636,-2.73199 2.06707,-3.40481 0.97069,-0.67283 2.0937,-1.24098 3.53403,-1.76789 2.97029,-1.12172 5.99639,-1.70235 9.06839,-1.70243 z m -140.56034,26.58385 c 35.16968,0.29176 69.97774,13.60563 96.35186,36.40546 39.47891,33.50481 56.10191,89.15338 44.94197,138.87768 -9.75423,46.30191 -46.18632,84.90159 -90.88414,101.42455 -46.38535,18.38165 -102.1373,9.58914 -141.16046,-20.82182 -43.31427,-32.502 -64.28688,-90.2007 -53.27689,-142.47892 13.0833,-63.34538 74.66281,-113.0403 140.62701,-113.34148 1.13508,-0.0188 2.26617,-0.0749 3.40065,-0.0655 z m 62.94544,53.16767 c -13.20307,1.9e-4 -29.05384,3.78239 -47.60916,11.32762 -18.55551,7.54557 -28.93171,11.32777 -31.07262,11.32758 -0.35694,-1.95604 -0.53353,-5.33254 -0.53344,-10.08352 -9e-5,-6.14791 -8.8968,-9.23212 -26.73846,-9.23231 -8.20728,1.9e-4 -10.66151,1.98411 -12.80248,8.97041 -1.70492,5.65147 -1.42915,9.97098 -1.66697,15.12527 -0.35688,12.48273 -0.19999,11.17322 -0.19999,16.76224 0,0.0872 -1.5e-4,0.0502 0,0.13095 -0.0193,0.069 -0.0414,0.10385 -0.0667,0.2619 l 0.26672,96.71019 c 0.009,26.32447 1.00434,40.33443 5.26769,42.56036 2.14095,1.11783 1.69362,2.29167 13.46925,2.29167 12.13232,0 19.61622,-1.86711 22.47097,-5.50009 1.42725,-2.23562 2.13366,-4.44301 2.13374,-6.67868 0.35674,-2.23568 0.53334,-5.02761 0.53345,-8.38112 -1.1e-4,-3.63296 -1.1e-4,-6.01919 0,-7.13703 v -6.28584 l -1.06687,-71.23945 v -27.2386 c 2.14091,-2.79448 6.09281,-5.06732 11.80226,-6.74421 2.85458,-0.83823 5.50359,-1.6496 8.00154,-2.48813 2.85457,-0.83825 6.27667,-1.53622 10.20197,-2.09528 4.28191,-0.83822 7.81387,-1.4228 10.66869,-1.70243 2.85452,-0.55876 6.80645,-1.14333 11.80228,-1.70238 4.99553,-0.83826 8.70418,-1.35733 11.20214,-1.63696 2.85454,-0.27929 6.98303,-0.68498 12.3357,-1.24406 5.70922,-0.55876 9.59447,-1.02996 11.73559,-1.30954 2.49773,-3.91229 3.80054,-9.60954 3.80073,-17.1551 -1.9e-4,-7.54523 -1.12646,-12.3177 -3.26728,-14.27409 -1.78437,-2.23548 -5.31638,-3.33915 -10.66871,-3.33934 z"
     id="path3021"
     inkscape:connector-curvature="0" />
  <g
     id="g59"
     transform="translate(202.95375,76.3126)">
    <ellipse
       inkscape:export-ydpi="107.16573"
       inkscape:export-xdpi="107.16573"
       ry="124.32837"
       rx="124.67837"
       cy="170.15387"
       cx="18.254612"
       id="path183"
       style="fill:#000000;stroke-width:0.75121307" />
    <path
       inkscape:export-ydpi="107.16573"
       inkscape:export-xdpi="107.16573"
       inkscape:connector-curvature="0"
       id="path170"
       d="m -19.03459,251.9917 c 0.30735,-0.55343 1.19269,-2.44449 1.96743,-4.2024 4.16636,-9.45372 6.57391,-19.55693 7.8702199,-33.02727 0.40649,-4.22369 0.56166,-19.59909 0.24017,-23.7938 C -10.4499,171.48681 -16.31805,157 -27.19865,145.93421 l -2.72692,-2.77331 -4.61671,-0.28027 c -4.86705,-0.29551 -12.75985,-0.17008 -16.92795,0.26894 -10.147965,1.06943 -20.081349,3.51145 -29.314946,7.20673 -0.888066,0.35542 -1.662704,0.59818 -1.72142,0.53946 -0.19226,-0.1924 1.328468,-9.93001 2.032172,-13.01286 2.867598,-12.56269 8.390796,-22.59315 17.383078,-31.56878 6.29282,-6.28118 12.768196,-10.835719 22.038316,-15.500869 10.01167,-5.038374 21.19502,-8.825531 34.6547099,-11.735614 7.69251,-1.663158 21.3657401,-2.579527 32.8742201,-2.203192 6.02153,0.197007 8.78716,0.426791 14.26975,1.186086 29.21604,4.046138 52.12669,17.62306 68.73914,40.734999 0.99754,1.38784 1.81371,2.57049 1.81371,2.62814 0,0.0577 -1.99761,0.17717 -4.43916,0.26574 -26.09377,0.94504 -42.11248,3.3705 -56.58661,8.56808 -6.87245,2.46787 -14.02989,7.87163 -17.23282,13.01053 -4.93762,7.92209 -7.01359,20.39994 -7.92236,47.61815 -0.53431,16.00288 1.17136,28.18467 5.59061,39.92778 2.32082,6.16707 6.56131,14.07048 10.39933,19.38222 l 1.7679,2.44676 -3.37322,0.14775 c -1.85528,0.0811 -15.91076,0.16122 -31.2344101,0.17752 l -27.8611799,0.0283 z"
       style="fill:#ffffff;stroke-width:0.23675451" />
  </g>
</svg>
