<?xml version="1.0" encoding="UTF-8" standalone="no"?>
<!-- Created with Inkscape (http://www.inkscape.org/) -->
<svg
   xmlns:dc="http://purl.org/dc/elements/1.1/"
   xmlns:cc="http://creativecommons.org/ns#"
   xmlns:rdf="http://www.w3.org/1999/02/22-rdf-syntax-ns#"
   xmlns:svg="http://www.w3.org/2000/svg"
   xmlns="http://www.w3.org/2000/svg"
   xmlns:sodipodi="http://sodipodi.sourceforge.net/DTD/sodipodi-0.dtd"
   xmlns:inkscape="http://www.inkscape.org/namespaces/inkscape"
   version="1.0"
   width="637.79529"
   height="99.655472"
   id="svg3595"
   sodipodi:version="0.32"
   inkscape:version="0.46"
   sodipodi:docname="schriftzug-wh.svg"
   inkscape:output_extension="org.inkscape.output.svg.inkscape">
  <metadata
     id="metadata7">
    <rdf:RDF>
      <cc:Work
         rdf:about="">
        <dc:format>image/svg+xml</dc:format>
        <dc:type
           rdf:resource="http://purl.org/dc/dcmitype/StillImage" />
      </cc:Work>
    </rdf:RDF>
  </metadata>
  <sodipodi:namedview
     inkscape:window-height="1144"
     inkscape:window-width="1919"
     inkscape:pageshadow="2"
     inkscape:pageopacity="0.0"
     guidetolerance="10.0"
     gridtolerance="10.0"
     objecttolerance="10.0"
     borderopacity="1.0"
     bordercolor="#666666"
     pagecolor="#ffffff"
     id="base"
     showgrid="false"
     inkscape:zoom="9.5789397"
     inkscape:cx="296.60916"
     inkscape:cy="28.948598"
     inkscape:window-x="1"
     inkscape:window-y="55"
     inkscape:current-layer="svg3595" />
  <defs
     id="defs3597">
    <inkscape:perspective
       sodipodi:type="inkscape:persp3d"
       inkscape:vp_x="0 : 49.827736 : 1"
       inkscape:vp_y="0 : 1000 : 0"
       inkscape:vp_z="637.79529 : 49.827736 : 1"
       inkscape:persp3d-origin="318.89764 : 33.218491 : 1"
       id="perspective9" />
  </defs>
  <path
     style="font-size:30.28391075000000043px;font-style:normal;font-variant:normal;font-weight:bold;font-stretch:normal;text-align:start;line-height:100%;writing-mode:lr-tb;text-anchor:start;fill:#ffffff;fill-opacity:1;stroke:none;stroke-width:1px;stroke-linecap:butt;stroke-linejoin:miter;stroke-opacity:1;font-family:ae_AlMothnna"
     id="text5129"
     d="M 52.31129,46.5897 C 50.34116,45.66764 48.37112,44.99697 46.40111,44.57773 C 44.47292,44.11672 42.52383,43.88618 40.55383,43.88614 C 34.76936,43.88618 30.3053,45.75144 27.16163,49.48194 C 24.0598,53.17057 22.508906,58.47298 22.508936,65.38907 L 22.508936,97.83214 L 7.1054274e-15,97.83214 L 7.1054274e-15,27.41312 L 22.508936,27.41312 L 22.508936,38.98196 C 25.40112,34.37126 28.7125,31.01793 32.44306,28.9221 C 36.21546,26.78443 40.72144,25.71557 45.96099,25.71553 C 46.71543,25.71557 47.53279,25.7575 48.41309,25.84125 C 49.29327,25.88321 50.5717,26.00899 52.24842,26.21848 L 52.31129,46.5897 M 133.92191,62.43399 L 133.92191,68.84716 L 81.29627,68.84716 C 81.84116,74.12861 83.74833,78.0897 87.0178,80.73038 C 90.28722,83.37111 94.8561,84.69148 100.72437,84.69144 C 105.46084,84.69148 110.30214,83.99986 115.24828,82.6166 C 120.23626,81.19146 125.35002,79.05375 130.5896,76.20344 L 130.5896,93.5567 C 125.26618,95.56869 119.94284,97.07763 114.61955,98.08364 C 109.29616,99.13154 103.97283,99.65547 98.64953,99.65547 C 85.90702,99.65547 75.99386,96.42796 68.91007,89.97289 C 61.86814,83.47588 58.3472,74.38011 58.34721,62.6855 C 58.3472,51.20055 61.80528,42.16762 68.72145,35.58672 C 75.67951,29.006 85.23636,25.71557 97.39206,25.71553 C 108.45785,25.71557 117.30211,29.04792 123.92493,35.71249 C 130.58951,42.37721 133.92182,51.28435 133.92191,62.43399 M 110.78422,54.95197 C 110.78418,50.67658 109.5267,47.23945 107.0118,44.6406 C 104.53868,41.99997 101.29018,40.67959 97.26628,40.67956 C 92.90699,40.67959 89.36507,41.91613 86.64058,44.38911 C 83.91599,46.82029 82.21839,50.34128 81.54777,54.95197 L 110.78422,54.95197 M 182.46077,66.14359 C 177.76613,66.14363 174.22419,66.94001 171.83502,68.5328 C 169.48766,70.12564 168.31405,72.47293 168.31408,75.57471 C 168.31405,78.42501 169.25717,80.66749 171.14338,82.3022 C 173.07153,83.89504 175.73318,84.69148 179.12841,84.69144 C 183.36188,84.69148 186.92478,83.1825 189.81701,80.16449 C 192.70919,77.10464 194.15529,73.29029 194.15534,68.72142 L 194.15534,66.14359 L 182.46077,66.14359 M 216.8529,57.65554 L 216.8529,97.83214 L 194.15534,97.83214 L 194.15534,87.39505 C 191.13733,91.67048 187.74213,94.79322 183.96975,96.76328 C 180.19722,98.69142 175.60745,99.65547 170.2003,99.65547 C 162.90685,99.65547 156.97573,97.53872 152.40692,93.3052 C 147.87997,89.02975 145.61648,83.49684 145.61652,76.70645 C 145.61648,68.44899 148.44582,62.39211 154.10452,58.53579 C 159.80509,54.67955 168.7332,52.7514 180.8889,52.75136 L 194.15534,52.75136 L 194.15534,50.99093 C 194.15529,47.42807 192.75109,44.82931 189.94279,43.19451 C 187.13435,41.51792 182.75411,40.67959 176.80208,40.67956 C 171.98171,40.67959 167.49669,41.16165 163.34702,42.12566 C 159.19731,43.08978 155.34103,44.53588 151.77818,46.46399 L 151.77818,29.29933 C 156.59851,28.12575 161.4398,27.24551 166.3021,26.65861 C 171.16435,26.02995 176.0266,25.71557 180.8889,25.71553 C 193.58941,25.71557 202.74805,28.23052 208.36491,33.26037 C 214.02351,38.24846 216.85281,46.38017 216.8529,57.65554 M 237.91575,-5.6843419e-14 L 260.42469,-5.6843419e-14 L 260.42469,97.83214 L 237.91575,97.83214 L 237.91575,-5.6843419e-14 M 334.49042,46.5897 C 332.52031,45.66764 330.55024,44.99697 328.58026,44.57773 C 326.65203,44.11672 324.70293,43.88618 322.73296,43.88614 C 316.9485,43.88618 312.48444,45.75144 309.34075,49.48194 C 306.23894,53.17057 304.68802,58.47298 304.68806,65.38907 L 304.68806,97.83214 L 282.17912,97.83214 L 282.17912,27.41312 L 304.68806,27.41312 L 304.68806,38.98196 C 307.58026,34.37126 310.8916,31.01793 314.62219,28.9221 C 318.39459,26.78443 322.90057,25.71557 328.14014,25.71553 C 328.89457,25.71557 329.71192,25.7575 330.59221,25.84125 C 331.47241,25.88321 332.75085,26.00899 334.42753,26.21848 L 334.49042,46.5897 M 377.37058,66.14359 C 372.67594,66.14363 369.13405,66.94001 366.74487,68.5328 C 364.39753,70.12564 363.2239,72.47293 363.2239,75.57471 C 363.2239,78.42501 364.16699,80.66749 366.05324,82.3022 C 367.98134,83.89504 370.64303,84.69148 374.03827,84.69144 C 378.27175,84.69148 381.83459,83.1825 384.72687,80.16449 C 387.61902,77.10464 389.06515,73.29029 389.0652,68.72142 L 389.0652,66.14359 L 377.37058,66.14359 M 411.76277,57.65554 L 411.76277,97.83214 L 389.0652,97.83214 L 389.0652,87.39505 C 386.04718,91.67048 382.65199,94.79322 378.87956,96.76328 C 375.10709,98.69142 370.5173,99.65547 365.11016,99.65547 C 357.81672,99.65547 351.8856,97.53872 347.31678,93.3052 C 342.78983,89.02975 340.52635,83.49684 340.52635,76.70645 C 340.52635,68.44899 343.35568,62.39211 349.01437,58.53579 C 354.71495,54.67955 363.64305,52.7514 375.79876,52.75136 L 389.0652,52.75136 L 389.0652,50.99093 C 389.06515,47.42807 387.66094,44.82931 384.85264,43.19451 C 382.04422,41.51792 377.66397,40.67959 371.71193,40.67956 C 366.89156,40.67959 362.40654,41.16165 358.25688,42.12566 C 354.10717,43.08978 350.25089,44.53588 346.68803,46.46399 L 346.68803,29.29933 C 351.50836,28.12575 356.34967,27.24551 361.21195,26.65861 C 366.07416,26.02995 370.93646,25.71557 375.79876,25.71553 C 388.49926,25.71557 397.65791,28.23052 403.27476,33.26037 C 408.93332,38.24846 411.76267,46.38017 411.76277,57.65554 M 432.0711,70.41901 L 432.0711,27.41312 L 454.70577,27.41312 L 454.70577,34.45502 C 454.70573,38.26942 454.68476,43.06882 454.64289,48.85321 C 454.60095,54.59574 454.57999,58.43106 454.58003,60.35915 C 454.57999,66.01785 454.72669,70.10467 455.02015,72.61963 C 455.31351,75.0927 455.8165,76.89506 456.5291,78.02677 C 457.45122,79.49387 458.64585,80.62561 460.11296,81.422 C 461.62189,82.2184 463.34045,82.6166 465.26863,82.6166 C 469.96319,82.6166 473.65177,80.81423 476.33447,77.20941 C 479.01703,73.60468 480.35837,68.59569 480.35841,62.18248 L 480.35841,27.41312 L 502.86736,27.41312 L 502.86736,97.83214 L 480.35841,97.83214 L 480.35841,87.64651 C 476.96316,91.75428 473.35839,94.79322 469.54408,96.76328 C 465.77156,98.69142 461.60093,99.65547 457.03211,99.65547 C 448.90035,99.65547 442.69681,97.16148 438.42136,92.17346 C 434.18781,87.18547 432.07106,79.93399 432.0711,70.41901 M 589.88515,39.10769 C 592.73539,34.7485 596.10962,31.4371 600.00791,29.17356 C 603.94795,26.86827 608.26527,25.71557 612.96001,25.71553 C 621.04967,25.71557 627.21137,28.2096 631.44497,33.19754 C 635.6784,38.1856 637.79515,45.4371 637.79528,54.95197 L 637.79528,97.83214 L 615.16057,97.83214 L 615.16057,61.11363 C 615.20241,60.56878 615.22336,60.00289 615.22346,59.41603 C 615.26529,58.82926 615.28625,57.99094 615.28633,56.90108 C 615.28625,51.91309 614.5527,48.30831 613.08572,46.08671 C 611.61859,43.8233 609.25033,42.69159 605.98095,42.69151 C 601.70542,42.69159 598.39407,44.45203 596.04685,47.97296 C 593.74139,51.49393 592.54677,56.58673 592.46301,63.25135 L 592.46301,97.83214 L 569.82834,97.83214 L 569.82834,61.11363 C 569.82828,53.3173 569.15762,48.30831 567.81634,46.08671 C 566.47498,43.8233 564.08579,42.69159 560.64871,42.69151 C 556.3313,42.69159 552.99899,44.473 550.65173,48.0358 C 548.3044,51.55682 547.13072,56.60768 547.13077,63.18851 L 547.13077,97.83214 L 524.4961,97.83214 L 524.4961,27.41312 L 547.13077,27.41312 L 547.13077,37.72444 C 549.89719,33.74253 553.06184,30.74552 556.62478,28.73343 C 560.22951,26.72153 564.19055,25.71557 568.50796,25.71553 C 573.37017,25.71557 577.66657,26.88924 581.39717,29.23645 C 585.12763,31.58383 587.95698,34.87421 589.88515,39.10769" />
</svg>
