<?xml version="1.0" encoding="UTF-8" standalone="no"?>
<!-- Created with Inkscape (http://www.inkscape.org/) -->

<svg
   xmlns:dc="http://purl.org/dc/elements/1.1/"
   xmlns:cc="http://creativecommons.org/ns#"
   xmlns:rdf="http://www.w3.org/1999/02/22-rdf-syntax-ns#"
   xmlns:svg="http://www.w3.org/2000/svg"
   xmlns="http://www.w3.org/2000/svg"
   xmlns:sodipodi="http://sodipodi.sourceforge.net/DTD/sodipodi-0.dtd"
   xmlns:inkscape="http://www.inkscape.org/namespaces/inkscape"
   version="1.0"
   width="50mm"
   height="50mm"
   id="svg2"
   sodipodi:version="0.32"
   inkscape:version="0.92.3 (2405546, 2018-03-11)"
   sodipodi:docname="sticker2.5-red-production.svg"
   inkscape:output_extension="org.inkscape.output.svg.inkscape"
   inkscape:export-filename="/home/equinox/realraum/git/logo/logo-aktuell.png"
   inkscape:export-xdpi="275.48813"
   inkscape:export-ydpi="275.48813"
   viewBox="0 0 177.16535 177.16535">
  <sodipodi:namedview
     inkscape:window-height="1368"
     inkscape:window-width="2560"
     inkscape:pageshadow="2"
     inkscape:pageopacity="0.0"
     guidetolerance="10.0"
     gridtolerance="10.0"
     objecttolerance="10.0"
     borderopacity="1.0"
     bordercolor="#666666"
     pagecolor="#ffffff"
     id="base"
     showgrid="false"
     inkscape:zoom="3.1331118"
     inkscape:cx="-165.64165"
     inkscape:cy="86.563989"
     inkscape:window-x="0"
     inkscape:window-y="35"
     inkscape:current-layer="svg2"
     inkscape:document-units="mm"
     units="mm"
     showguides="true"
     inkscape:guide-bbox="true"
     inkscape:window-maximized="1"
     showborder="true"
     inkscape:showpageshadow="true"
     fit-margin-top="0"
     fit-margin-left="0"
     fit-margin-right="0"
     fit-margin-bottom="0"
     inkscape:pagecheckerboard="true">
    <inkscape:grid
       type="xygrid"
       id="grid4894"
       originx="-70.730037"
       originy="-3.8714942"
       spacingx="1"
       spacingy="1" />
  </sodipodi:namedview>
  <metadata
     id="metadata8">
    <rdf:RDF>
      <cc:Work
         rdf:about="">
        <dc:format>image/svg+xml</dc:format>
        <dc:type
           rdf:resource="http://purl.org/dc/dcmitype/StillImage" />
        <dc:title />
      </cc:Work>
    </rdf:RDF>
  </metadata>
  <defs
     id="defs4">
    <inkscape:perspective
       sodipodi:type="inkscape:persp3d"
       inkscape:vp_x="0 : 380.90847 : 1"
       inkscape:vp_y="0 : 999.99994 : 0"
       inkscape:vp_z="637.79522 : 380.90847 : 1"
       inkscape:persp3d-origin="318.89761 : 253.93899 : 1"
       id="perspective10" />
  </defs>
  <path
     inkscape:connector-curvature="0"
     id="path3379"
     d="M 87.439517,0.00121299 C 39.06708,0.61461299 -3.9731388e-5,40.083042 -3.9731388e-5,88.598972 -3.9731388e-5,137.4969 39.698591,177.16547 88.597717,177.16547 c 48.899143,0 88.564563,-39.66857 88.564563,-88.566498 0,-0.382031 0.007,-0.77537 0,-1.15625 V 17.639902 C 176.96825,7.916473 169.05809,0.07446299 159.30483,0.00121299 h -70.707113 -0.4082 c -0.24592,0 -0.50371,-0.003 -0.75,0 z"
     style="fill:#ffffff;fill-opacity:1;stroke:none;stroke-width:1"
     sodipodi:nodetypes="csssccccsc" />
  <g
     id="g3796">
    <path
       inkscape:connector-curvature="0"
       id="path4874"
       d="M 87.454898,1.1981653 C 39.736107,1.8032834 1.1968915,40.738382 1.1968915,88.598727 c 0,48.237183 39.1621935,87.369733 87.4005605,87.369733 48.238378,0 87.367818,-39.13255 87.367808,-87.369733 0,-0.376867 0.007,-0.76489 0,-1.140627 V 18.598511 C 175.77385,9.0064752 167.97058,1.2704258 158.34912,1.1981653 H 88.597452 88.194765 c -0.242597,0 -0.496906,-0.00311 -0.739867,0 z m 1.574143,19.9918037 c 16.271939,0.13747 32.376369,6.409242 44.578869,17.151797 18.2657,15.786392 25.95669,42.007298 20.79332,65.435774 -4.51298,21.81597 -21.36874,40.00372 -42.04906,47.78881 -21.461106,8.66084 -47.255703,4.51775 -65.310542,-9.81093 -20.040207,-15.3139 -29.744638,-42.499476 -24.65065,-67.131304 6.05325,-29.846297 34.544273,-53.261409 65.06392,-53.403319 0.525166,-0.0084 1.049249,-0.03526 1.574143,-0.03083 z"
       style="fill:#761407;fill-opacity:1;stroke:none;stroke-width:0.9864884" />
    <path
       inkscape:connector-curvature="0"
       id="path4872"
       d="m 154.06152,8.6641839 c 2.13255,2.76e-5 3.9688,0.4577786 5.39885,1.4499911 1.44697,0.974496 2.28293,2.544788 2.28294,4.288272 -1e-5,1.031551 -0.27321,2.068251 -0.74041,3.085086 -0.44116,0.934199 -0.93023,1.737996 -1.48082,2.375518 -0.40316,0.445576 -0.8269,0.900019 -1.26488,1.326587 1.22868,0.689897 2.26758,1.559688 3.05421,2.653175 h 0.0309 c 0.004,0.0067 -0.004,0.05499 0,0.0617 0.92975,1.250866 1.38826,2.743818 1.38827,4.349973 -1e-5,2.967043 -1.23096,5.463894 -3.54782,7.126551 -2.22913,1.618723 -4.97343,2.489352 -8.1137,2.591473 0,0 -0.0259,-9.56e-4 -0.0309,0 -0.77516,-2e-6 -1.53962,-0.391361 -2.06699,-0.956377 -0.41704,-0.449094 -0.80213,-0.937275 -0.80213,-1.665947 0,-0.335667 0.0137,-0.671719 0.0925,-0.987228 l 0.24681,-0.863824 0.86382,-0.03085 c 2.7116,-0.09114 4.62746,-0.681246 5.76905,-1.573393 1.1416,-0.892148 1.66593,-2.07397 1.66593,-3.948912 -1e-5,-1.832291 -0.72735,-2.915985 -2.71484,-3.794657 -0.51598,-0.232173 -0.91809,-0.441888 -1.26488,-0.678719 -0.34679,-0.236831 -0.80868,-0.436141 -0.89467,-1.295737 l -0.0309,-0.401062 0.21596,-0.339359 c 0.28981,-0.450817 0.74925,-1.034863 1.48083,-1.912754 v -0.03085 c 0.70197,-0.815181 1.25266,-1.581888 1.63507,-2.282965 v -0.03085 c 0.36128,-0.627475 0.52445,-1.225838 0.52446,-1.912754 -1e-5,-0.612513 -0.15268,-0.954928 -0.55531,-1.326588 -0.34772,-0.320951 -0.90041,-0.586148 -1.91274,-0.586167 -0.17723,9e-6 -0.83581,0.108723 -1.75847,0.33936 -0.48713,0.121789 -0.87529,0.213084 -1.17233,0.277658 -0.29704,0.06458 -0.37146,0.123465 -0.77126,0.123403 -0.73383,1.15e-4 -1.00622,-0.259936 -1.38828,-0.524465 l -0.0309,-0.03085 -0.0309,-0.03085 c -0.43676,-0.363915 -0.86382,-0.892472 -0.86382,-1.604245 0,-0.79369 0.50725,-1.287236 0.95637,-1.604245 0.44911,-0.317008 0.96869,-0.5847027 1.63509,-0.8329738 1.37426,-0.5285243 2.77435,-0.802094 4.19567,-0.8021226 z"
       style="fill:#ffffff;fill-opacity:1;stroke:none;stroke-width:0.9864884" />
  </g>
  <path
     inkscape:connector-curvature="0"
     style="fill:#761407;fill-opacity:1;stroke:none;stroke-width:0.9864884"
     d="m 118.15145,46.240546 c -6.10867,8.6e-5 -13.44234,1.782137 -22.027321,5.337201 -8.585073,3.555229 -13.385829,5.337278 -14.376371,5.3372 -0.165148,-0.921627 -0.246849,-2.512527 -0.2468,-4.751034 -4.9e-5,-2.896705 -4.116281,-4.349887 -12.371088,-4.349973 -3.79725,8.6e-5 -4.932757,0.934848 -5.92331,4.226569 -0.788816,2.662789 -0.661224,4.698003 -0.771266,7.126553 -0.165109,5.881455 -0.09253,5.264449 -0.09253,7.897822 0,0.04111 -6.9e-5,0.02356 0,0.0617 -0.0089,0.03253 -0.01914,0.04888 -0.03088,0.123404 l 0.1234,45.566732 c 0.0039,12.40324 0.464675,19.00429 2.437198,20.05306 0.990563,0.52669 0.783598,1.07977 6.231815,1.07977 5.613258,0 9.075832,-0.87973 10.396651,-2.59146 0.660346,-1.05336 0.987169,-2.09341 0.987218,-3.14678 0.16504,-1.05337 0.246761,-2.36885 0.2468,-3.94891 -3.9e-5,-1.71173 -3.9e-5,-2.83605 0,-3.36275 v -2.96168 L 82.241357,84.372226 V 71.538264 c 0.990543,-1.316659 2.81896,-2.387543 5.460559,-3.17764 1.32072,-0.394951 2.546343,-0.777251 3.702064,-1.172333 1.32072,-0.394951 2.904034,-0.723817 4.72014,-0.987229 1.981125,-0.394948 3.615243,-0.670383 4.93609,-0.802122 1.3207,-0.263277 3.14914,-0.538709 5.46056,-0.802123 2.31128,-0.394947 4.02716,-0.639528 5.18289,-0.771271 1.32071,-0.131602 3.23084,-0.322752 5.70736,-0.586167 2.64148,-0.263274 4.43907,-0.485274 5.4297,-0.617017 1.15562,-1.843339 1.75839,-4.527703 1.75848,-8.082928 -9e-5,-3.55507 -0.52118,-5.803699 -1.51167,-6.725491 -0.82557,-1.053291 -2.45973,-1.573308 -4.93609,-1.573395 z"
     id="path3021" />
  <g
     aria-label="realraum.at"
     transform="matrix(0,-0.98310234,1.0171881,0,0,0)"
     style="font-style:normal;font-variant:normal;font-weight:normal;font-stretch:normal;font-size:11.53746891px;line-height:0%;font-family:Dingbats;-inkscape-font-specification:Dingbats;letter-spacing:0px;word-spacing:0px;fill:#ffffff;fill-opacity:1;stroke:#ffffff;stroke-width:0;stroke-miterlimit:4;stroke-dasharray:none"
     id="text4918">
    <path
       d="m -129.08554,73.58341 0.0808,-2.561319 q 0.0115,-0.0923 0.0115,-0.323049 0,-0.230749 0.0115,-0.346124 0.0231,-0.115374 0.0577,-0.276899 0.0692,-0.288437 0.33458,-0.288437 0.57688,0 0.57688,0.253825 0,0.196137 0.0115,0.276899 0.0692,0 0.66918,-0.311512 0.59995,-0.311512 1.02683,-0.311512 0.17306,0 0.23075,0.0923 0.0692,0.08076 0.0692,0.392274 0,0.311512 -0.0808,0.473036 -0.0692,0.01154 -0.25382,0.03461 -0.17306,0.02307 -0.26536,0.03461 -0.0808,0.01154 -0.24229,0.04615 -0.16152,0.02308 -0.25382,0.04615 -0.0923,0.01154 -0.23075,0.04615 -0.12691,0.02307 -0.21921,0.05769 -0.0808,0.03461 -0.17307,0.06922 -0.1846,0.06923 -0.25382,0.1846 v 0.749935 l 0.0231,1.96137 v 0.173062 q 0,0.04615 0,0.196137 0,0.138449 -0.0115,0.230749 0,0.0923 -0.0462,0.1846 -0.0923,0.149987 -0.48458,0.149987 -0.38073,0 -0.44996,-0.04615 -0.13845,-0.0923 -0.13845,-1.188359 z"
       style="font-style:normal;font-variant:normal;font-weight:normal;font-stretch:normal;font-family:Cagliostro;-inkscape-font-specification:Cagliostro;fill:#ffffff;fill-opacity:1;stroke-width:0;stroke:#ffffff;stroke-miterlimit:4;stroke-dasharray:none"
       id="path97" />
    <path
       d="m -121.02698,71.956626 q 0,0 -2.64208,0.01154 -0.42688,0 -0.49611,0.06923 -0.0577,0.08076 -0.0577,0.265361 0,0.899923 0.50765,1.384497 0.51919,0.473036 1.17683,0.473036 0.65763,0 1.02683,-0.173062 0.0115,0 0.23075,-0.149987 0.21921,-0.149987 0.29997,-0.149987 0.0923,0 0.13845,0.06923 0.0462,0.06922 0.0462,0.138449 0,0.438424 -0.6461,0.749936 -0.64609,0.299974 -1.5114,0.299974 -0.85378,0 -1.63832,-0.692248 -0.77301,-0.692248 -0.77301,-1.86907 0,-1.176822 0.72686,-1.938295 0.73839,-0.761473 1.9729,-0.761473 0.89993,0 1.45372,0.530724 0.58842,0.553798 0.58842,1.338346 0,0.403811 -0.40382,0.403811 z m -2.99974,-0.565336 q 2.19212,0 2.53825,-0.02307 -0.0346,-0.461498 -0.35767,-0.761472 -0.31151,-0.299975 -0.79608,-0.299975 -0.48458,0 -0.91146,0.346124 -0.41535,0.334587 -0.47304,0.738398 z"
       style="font-style:normal;font-variant:normal;font-weight:normal;font-stretch:normal;font-family:Cagliostro;-inkscape-font-specification:Cagliostro;fill:#ffffff;fill-opacity:1;stroke-width:0;stroke:#ffffff;stroke-miterlimit:4;stroke-dasharray:none"
       id="path99" />
    <path
       d="m -116.11201,74.817919 q -0.34613,0 -0.32305,-0.380737 0,-0.126912 -0.0346,-0.126912 -0.0923,0.03461 -0.3692,0.196137 -1.37295,0.842235 -2.41133,0.103837 -0.47303,-0.334586 -0.47303,-0.922997 0,-0.888385 0.81916,-1.292197 0.8307,-0.403811 2.05367,-0.403811 0.21921,0 0.32305,0.01154 0,-0.196137 0.0115,-0.276899 0,-0.657636 -0.3692,-0.980685 -0.35766,-0.334586 -1.00376,-0.334586 -0.31151,0 -0.66917,0.0923 -0.35766,0.0923 -0.4615,0.0923 -0.10383,0 -0.17306,-0.126912 -0.0577,-0.126912 -0.0577,-0.334587 0,-0.207674 0.50765,-0.323049 0.51919,-0.126912 0.99222,-0.126912 1.11914,0 1.69601,0.588411 0.58841,0.588411 0.58841,1.719083 v 2.376718 q 0,0.311512 -0.11537,0.380737 -0.11538,0.06923 -0.53072,0.06923 z m -0.42689,-1.211435 q 0.0231,-0.323049 0.0231,-0.692248 0,-0.369199 -0.0115,-0.415349 -1.59217,0.149988 -1.9383,0.576874 -0.1846,0.219212 -0.1846,0.507649 0,0.611485 0.91146,0.611485 0.4615,0 0.81916,-0.207674 0.3692,-0.219212 0.38074,-0.380737 z"
       style="font-style:normal;font-variant:normal;font-weight:normal;font-stretch:normal;font-family:Cagliostro;-inkscape-font-specification:Cagliostro;fill:#ffffff;fill-opacity:1;stroke-width:0;stroke:#ffffff;stroke-miterlimit:4;stroke-dasharray:none"
       id="path101" />
    <path
       d="m -113.78433,70.895179 -0.0231,-2.353643 q 0,-0.23075 0,-0.438424 0.0115,-0.219212 0.0115,-0.380737 v -0.542261 q 0,-0.519186 0.0692,-0.703785 0.0808,-0.1846 0.44996,-0.1846 0.38073,0 0.47303,0.05769 0.0923,0.04615 0.0923,0.230749 l 0.0115,4.257326 0.0115,2.538243 q 0,0.346124 0.20767,0.553799 0.20768,0.207674 0.47304,0.207674 0.26536,0 0.53072,-0.05769 0.2769,-0.06923 0.34613,-0.06923 0.14998,0 0.14998,0.184599 0,0.392274 -0.54226,0.576874 -0.38073,0.115375 -0.81916,0.115375 -0.42688,0 -0.69224,-0.149988 -0.26537,-0.149987 -0.41535,-0.369199 -0.13845,-0.219212 -0.21922,-0.623023 -0.11537,-0.565336 -0.11537,-1.63832 z"
       style="font-style:normal;font-variant:normal;font-weight:normal;font-stretch:normal;font-family:Cagliostro;-inkscape-font-specification:Cagliostro;fill:#ffffff;fill-opacity:1;stroke-width:0;stroke:#ffffff;stroke-miterlimit:4;stroke-dasharray:none"
       id="path103" />
    <path
       d="m -110.08928,73.58341 0.0808,-2.561319 q 0.0115,-0.0923 0.0115,-0.323049 0,-0.230749 0.0115,-0.346124 0.0231,-0.115374 0.0577,-0.276899 0.0692,-0.288437 0.33459,-0.288437 0.57687,0 0.57687,0.253825 0,0.196137 0.0115,0.276899 0.0692,0 0.66917,-0.311512 0.59995,-0.311512 1.02683,-0.311512 0.17307,0 0.23075,0.0923 0.0692,0.08076 0.0692,0.392274 0,0.311512 -0.0808,0.473036 -0.0692,0.01154 -0.25383,0.03461 -0.17306,0.02307 -0.26536,0.03461 -0.0808,0.01154 -0.24229,0.04615 -0.16152,0.02308 -0.25382,0.04615 -0.0923,0.01154 -0.23075,0.04615 -0.12691,0.02307 -0.21921,0.05769 -0.0808,0.03461 -0.17306,0.06922 -0.1846,0.06923 -0.25383,0.1846 v 0.749935 l 0.0231,1.96137 v 0.173062 q 0,0.04615 0,0.196137 0,0.138449 -0.0115,0.230749 0,0.0923 -0.0461,0.1846 -0.0923,0.149987 -0.48458,0.149987 -0.38073,0 -0.44996,-0.04615 -0.13845,-0.0923 -0.13845,-1.188359 z"
       style="font-style:normal;font-variant:normal;font-weight:normal;font-stretch:normal;font-family:Cagliostro;-inkscape-font-specification:Cagliostro;fill:#ffffff;fill-opacity:1;stroke-width:0;stroke:#ffffff;stroke-miterlimit:4;stroke-dasharray:none"
       id="path105" />
    <path
       d="m -102.88449,74.817919 q -0.34612,0 -0.32305,-0.380737 0,-0.126912 -0.0346,-0.126912 -0.0923,0.03461 -0.3692,0.196137 -1.37296,0.842235 -2.41133,0.103837 -0.47304,-0.334586 -0.47304,-0.922997 0,-0.888385 0.81917,-1.292197 0.83069,-0.403811 2.05366,-0.403811 0.21922,0 0.32305,0.01154 0,-0.196137 0.0115,-0.276899 0,-0.657636 -0.3692,-0.980685 -0.35766,-0.334586 -1.00376,-0.334586 -0.31151,0 -0.66917,0.0923 -0.35766,0.0923 -0.4615,0.0923 -0.10384,0 -0.17306,-0.126912 -0.0577,-0.126912 -0.0577,-0.334587 0,-0.207674 0.50765,-0.323049 0.51919,-0.126912 0.99222,-0.126912 1.11914,0 1.69601,0.588411 0.58841,0.588411 0.58841,1.719083 v 2.376718 q 0,0.311512 -0.11537,0.380737 -0.11538,0.06923 -0.53073,0.06923 z m -0.42688,-1.211435 q 0.0231,-0.323049 0.0231,-0.692248 0,-0.369199 -0.0115,-0.415349 -1.59217,0.149988 -1.93829,0.576874 -0.1846,0.219212 -0.1846,0.507649 0,0.611485 0.91146,0.611485 0.4615,0 0.81916,-0.207674 0.3692,-0.219212 0.38074,-0.380737 z"
       style="font-style:normal;font-variant:normal;font-weight:normal;font-stretch:normal;font-family:Cagliostro;-inkscape-font-specification:Cagliostro;fill:#ffffff;fill-opacity:1;stroke-width:0;stroke:#ffffff;stroke-miterlimit:4;stroke-dasharray:none"
       id="path107" />
    <path
       d="m -97.130173,73.502647 0.05769,-2.099819 V 70.80288 q 0,-0.484574 0.06923,-0.726861 0.08076,-0.253824 0.323049,-0.253824 0.403811,0 0.576873,0.05769 0.06923,0.0923 0.06923,0.611486 l 0.03461,2.918979 0.04615,1.015298 q 0,0.369199 -0.0923,0.380736 -0.242287,0.03461 -0.449962,0.03461 -0.196137,0 -0.276899,-0.03461 -0.06922,-0.04615 -0.0923,-0.115374 -0.02308,-0.08076 -0.03461,-0.161525 -0.01154,-0.08076 -0.02308,-0.161525 -0.01154,-0.184599 -0.05769,-0.161524 -0.13845,-0.01154 -0.553799,0.346124 -0.161524,0.149987 -0.507648,0.265362 -0.346125,0.126912 -0.842236,0.126912 -0.496111,0 -0.888385,-0.242287 -0.380736,-0.242287 -0.565336,-0.657636 -0.32305,-0.761473 -0.32305,-1.707545 l 0.0231,-1.834458 0.0115,-0.207674 q 0,-0.253824 0.10384,-0.357662 0.10384,-0.115374 0.42689,-0.115374 0.323046,0 0.403808,0.05769 0.0923,0.04615 0.0923,0.253824 l -0.02307,1.684471 q 0,1.326809 0.2769,1.765233 0.126912,0.196136 0.369199,0.334586 0.253824,0.13845 0.599948,0.13845 0.346124,0 0.796085,-0.13845 0.449962,-0.13845 0.449962,-0.415349 z"
       style="font-style:normal;font-variant:normal;font-weight:normal;font-stretch:normal;font-family:Cagliostro;-inkscape-font-specification:Cagliostro;fill:#ffffff;fill-opacity:1;stroke-width:0;stroke:#ffffff;stroke-miterlimit:4;stroke-dasharray:none"
       id="path109" />
    <path
       d="m -93.684077,69.79912 0.496111,0.01154 q 0.01154,0.01154 0.103838,0.392274 0.0923,-0.03461 0.484573,-0.196137 0.796086,-0.311512 1.246047,-0.311512 0.749935,0 1.199897,0.611486 l 0.115374,-0.08076 q 0.126913,-0.08076 0.161525,-0.103837 l 0.13845,-0.08076 q 0.115374,-0.06923 0.173062,-0.0923 0.05769,-0.02307 0.173062,-0.08076 0.126912,-0.05769 0.207674,-0.08076 0.0923,-0.02308 0.207675,-0.05769 0.219211,-0.04615 0.496111,-0.04615 1.211434,0 1.546021,1.153747 0.0923,0.253824 0.115374,1.222972 v 2.145969 q 0,0.392274 -0.138449,0.507648 -0.126913,0.103838 -0.496112,0.103838 -0.357661,0 -0.438423,-0.04615 -0.06923,-0.05769 -0.06923,-0.265362 l 0.03461,-0.692248 v -1.384496 q 0,-0.04615 0,-0.299975 0,-0.253824 -0.01154,-0.438423 0,-0.1846 -0.05769,-0.461499 -0.04615,-0.276899 -0.149987,-0.392274 -0.288436,-0.323049 -0.853772,-0.323049 -1.072985,0 -1.072985,0.703785 l 0.03461,1.04991 v 1.569096 q 0,0.507648 -0.0923,0.669173 -0.04615,0.08076 -0.207675,0.08076 -0.646098,0 -0.749935,-0.161524 -0.08076,-0.115375 -0.06923,-0.357662 0.02307,-0.242287 0.02307,-0.276899 l 0.05769,-2.042132 q 0,-0.657636 -0.219212,-0.899923 -0.219212,-0.242286 -0.68071,-0.242286 -1.107597,0 -1.107597,0.426886 l 0.02308,0.946072 -0.02308,1.995982 q 0,0.06923 0,0.219212 0.01154,0.13845 0,0.1846 l -0.01154,0.13845 q -0.01154,0.0923 -0.03461,0.126912 -0.13845,0.126912 -0.23075,0.138449 -0.253824,0.03461 -0.403811,0.03461 -0.13845,0 -0.196137,-0.01154 -0.04615,-0.01154 -0.08076,-0.03461 -0.03461,-0.03461 -0.05769,-0.05769 -0.02308,-0.03461 -0.04615,-0.0923 -0.01154,-0.06923 -0.02308,-0.115375 0,-0.05769 0,-0.161525 v -0.58841 l 0.04615,-2.399794 0.02308,-0.95761 0.02307,-0.230749 q 0,-0.13845 0.05769,-0.219212 0.06922,-0.0923 0.103837,-0.103837 0.13845,-0.04615 0.230749,-0.04615 z"
       style="font-style:normal;font-variant:normal;font-weight:normal;font-stretch:normal;font-family:Cagliostro;-inkscape-font-specification:Cagliostro;fill:#ffffff;fill-opacity:1;stroke-width:0;stroke:#ffffff;stroke-miterlimit:4;stroke-dasharray:none"
       id="path111" />
    <path
       d="m -84.394612,73.30651 q 0.1846,-0.02308 0.2769,-0.02308 0.738398,0 0.738398,0.715323 0,0.415349 -0.2769,0.692249 -0.276899,0.276899 -0.692248,0.276899 -0.219212,0 -0.565336,-0.219212 -0.334586,-0.230749 -0.334586,-0.669173 0,-0.265362 0.265362,-0.484574 0.276899,-0.219212 0.58841,-0.288437 z"
       style="font-style:normal;font-variant:normal;font-weight:normal;font-stretch:normal;font-family:Cagliostro;-inkscape-font-specification:Cagliostro;fill:#ffffff;fill-opacity:1;stroke-width:0;stroke:#ffffff;stroke-miterlimit:4;stroke-dasharray:none"
       id="path113" />
    <path
       d="m -78.61524,74.817919 q -0.346124,0 -0.323049,-0.380737 0,-0.126912 -0.03461,-0.126912 -0.0923,0.03461 -0.369199,0.196137 -1.372959,0.842235 -2.411331,0.103837 -0.473036,-0.334586 -0.473036,-0.922997 0,-0.888385 0.81916,-1.292197 0.830698,-0.403811 2.05367,-0.403811 0.219212,0 0.323049,0.01154 0,-0.196137 0.01154,-0.276899 0,-0.657636 -0.369199,-0.980685 -0.357661,-0.334586 -1.003759,-0.334586 -0.311512,0 -0.669174,0.0923 -0.357661,0.0923 -0.461498,0.0923 -0.103838,0 -0.173062,-0.126912 -0.05769,-0.126912 -0.05769,-0.334587 0,-0.207674 0.507649,-0.323049 0.519186,-0.126912 0.992222,-0.126912 1.119135,0 1.696008,0.588411 0.588411,0.588411 0.588411,1.719083 v 2.376718 q 0,0.311512 -0.115375,0.380737 -0.115374,0.06923 -0.530723,0.06923 z m -0.426887,-1.211435 q 0.02307,-0.323049 0.02307,-0.692248 0,-0.369199 -0.01154,-0.415349 -1.592171,0.149988 -1.938295,0.576874 -0.184599,0.219212 -0.184599,0.507649 0,0.611485 0.91146,0.611485 0.461498,0 0.81916,-0.207674 0.369199,-0.219212 0.380736,-0.380737 z"
       style="font-style:normal;font-variant:normal;font-weight:normal;font-stretch:normal;font-family:Cagliostro;-inkscape-font-specification:Cagliostro;fill:#ffffff;fill-opacity:1;stroke-width:0;stroke:#ffffff;stroke-miterlimit:4;stroke-dasharray:none"
       id="path115" />
    <path
       d="m -74.94921,71.472053 -0.02308,1.661395 q 0,0.473036 0.161524,0.726861 0.161525,0.242287 0.542262,0.242287 0.380736,0 0.646098,-0.06923 0.496111,-0.13845 0.496111,0.138449 0,0.773011 -1.430646,0.773011 -0.807623,0 -1.257584,-0.726861 -0.219212,-0.461498 -0.219212,-1.096059 l 0.02308,-1.338347 0.02307,-0.969147 q 0,-0.161525 -0.04615,-0.196137 -0.04615,-0.04615 -0.173062,-0.04615 l -0.449962,0.03461 q -0.288436,0 -0.288436,-0.1846 0,-0.323049 0.06923,-0.449961 0.08076,-0.13845 0.288436,-0.13845 l 0.449962,0.03461 q 0.161524,0 0.161524,-0.392274 0,-0.04615 0,-0.05769 v -0.657635 q 0,-0.299975 0.01154,-0.346125 0.138449,-0.06922 0.91146,-0.06922 0.207674,0 0.207674,0.219212 l -0.03461,1.269121 q 0.138449,0.01154 0.449961,0.01154 l 0.922997,-0.06923 q 0.1846,0 0.1846,0.219212 0,0.63456 -0.623023,0.63456 l -0.749936,-0.04615 q -0.184599,0 -0.230749,0.02307 -0.02307,0.207674 -0.02307,0.86531 z"
       style="font-style:normal;font-variant:normal;font-weight:normal;font-stretch:normal;font-family:Cagliostro;-inkscape-font-specification:Cagliostro;fill:#ffffff;fill-opacity:1;stroke-width:0;stroke:#ffffff;stroke-miterlimit:4;stroke-dasharray:none"
       id="path117" />
  </g>
</svg>
