<?xml version="1.0" encoding="UTF-8" standalone="no"?>
<!-- Created with Inkscape (http://www.inkscape.org/) -->

<svg
   xmlns:dc="http://purl.org/dc/elements/1.1/"
   xmlns:cc="http://creativecommons.org/ns#"
   xmlns:rdf="http://www.w3.org/1999/02/22-rdf-syntax-ns#"
   xmlns:svg="http://www.w3.org/2000/svg"
   xmlns="http://www.w3.org/2000/svg"
   xmlns:sodipodi="http://sodipodi.sourceforge.net/DTD/sodipodi-0.dtd"
   xmlns:inkscape="http://www.inkscape.org/namespaces/inkscape"
   version="1.0"
   width="50mm"
   height="50mm"
   id="svg2"
   sodipodi:version="0.32"
   inkscape:version="0.92.3 (2405546, 2018-03-11)"
   sodipodi:docname="sticker2.4-red.svg"
   inkscape:output_extension="org.inkscape.output.svg.inkscape"
   inkscape:export-filename="/home/equinox/realraum/git/logo/logo-aktuell.png"
   inkscape:export-xdpi="275.48813"
   inkscape:export-ydpi="275.48813"
   viewBox="0 0 177.16536 177.16535">
  <sodipodi:namedview
     inkscape:window-height="1368"
     inkscape:window-width="2560"
     inkscape:pageshadow="2"
     inkscape:pageopacity="0.0"
     guidetolerance="10.0"
     gridtolerance="10.0"
     objecttolerance="10.0"
     borderopacity="1.0"
     bordercolor="#666666"
     pagecolor="#ffffff"
     id="base"
     showgrid="false"
     inkscape:zoom="3.1331118"
     inkscape:cx="-26.961632"
     inkscape:cy="139.6427"
     inkscape:window-x="0"
     inkscape:window-y="35"
     inkscape:current-layer="svg2"
     inkscape:document-units="mm"
     units="mm"
     showguides="true"
     inkscape:guide-bbox="true"
     inkscape:window-maximized="1"
     showborder="true"
     inkscape:showpageshadow="true"
     fit-margin-top="0"
     fit-margin-left="0"
     fit-margin-right="0"
     fit-margin-bottom="0"
     inkscape:pagecheckerboard="true">
    <inkscape:grid
       type="xygrid"
       id="grid4894"
       originx="-70.73004"
       originy="-3.8714927"
       spacingx="1"
       spacingy="1" />
  </sodipodi:namedview>
  <metadata
     id="metadata8">
    <rdf:RDF>
      <cc:Work
         rdf:about="">
        <dc:format>image/svg+xml</dc:format>
        <dc:type
           rdf:resource="http://purl.org/dc/dcmitype/StillImage" />
        <dc:title />
      </cc:Work>
    </rdf:RDF>
  </metadata>
  <defs
     id="defs4">
    <inkscape:perspective
       sodipodi:type="inkscape:persp3d"
       inkscape:vp_x="0 : 380.90847 : 1"
       inkscape:vp_y="0 : 999.99994 : 0"
       inkscape:vp_z="637.7953 : 380.90847 : 1"
       inkscape:persp3d-origin="318.89764 : 253.93899 : 1"
       id="perspective10" />
    <path
       id="path4916"
       d="m 236.6209,61.503968 c 1.33881,-0.40036 2.58122,-0.787896 3.75277,-1.18839 1.33881,-0.40036 2.94381,-0.73373 4.78479,-1.00075 2.00826,-0.400358 3.66476,-0.679565 5.0037,-0.813109 1.33879,-0.266883 3.19227,-0.546087 5.53535,-0.813109 2.34294,-0.400357 4.08232,-0.648288 5.25388,-0.781835 1.3388,-0.133404 3.27509,-0.327173 5.78553,-0.594195 2.67766,-0.26688 4.49987,-0.491921 5.50407,-0.625469"
       style="fill:none;fill-opacity:1;stroke:none"
       inkscape:connector-curvature="0"
       sodipodi:nodetypes="cccccccc" />
  </defs>
  <path
     inkscape:connector-curvature="0"
     id="path3379"
     d="M 87.439516,0.00121349 C 39.067081,0.61461349 -3.8962776e-5,40.083043 -3.8962776e-5,88.598973 -3.8962776e-5,137.4969 39.698592,177.16547 88.597721,177.16547 c 48.899139,0 88.564559,-39.66857 88.564559,-88.566497 0,-0.38203 0.007,-0.77537 0,-1.15625 V 17.639903 C 176.96825,7.9164735 169.05809,0.07446349 159.30483,0.00121349 H 88.597721 88.189518 c -0.245921,0 -0.503712,-0.003 -0.750002,0 z"
     style="fill:#ffffff;fill-opacity:1;stroke:none"
     sodipodi:nodetypes="csssccccsc" />
  <path
     style="fill:#761407;fill-opacity:1;stroke:none;stroke-width:0.98311055"
     d="M 87.45876,1.4973857 C 39.903366,2.1004319 1.4961143,40.90221 1.4961143,88.598673 c 0,48.072017 39.0280957,87.070567 87.1012877,87.070567 48.073208,0 87.068658,-38.99855 87.068648,-87.070567 0,-0.375576 0.007,-0.76227 0,-1.136721 V 18.838149 C 175.4753,9.2789588 167.69874,1.5693988 158.11023,1.4973857 H 88.597402 88.196093 c -0.241766,0 -0.495204,-0.0031 -0.737333,0 z m 1.568753,19.9233483 c 16.216227,0.136999 32.265507,6.387296 44.426227,17.093066 18.20316,15.732337 25.86781,41.863458 20.72212,65.21172 -4.49753,21.74127 -21.29557,39.86674 -41.90508,47.62518 -21.38762,8.63118 -47.093892,4.50227 -65.086909,-9.77734 C 27.212285,126.3119 17.541084,99.219398 22.617629,74.671914 28.650152,44.927815 57.043617,21.59288 87.45876,21.451456 c 0.523368,-0.0084 1.045656,-0.03514 1.568753,-0.03072 z"
     id="path4874"
     inkscape:connector-curvature="0" />
  <path
     style="fill:#ffffff;fill-opacity:1;stroke:none;stroke-width:0.98311055"
     d="m 153.83731,8.9378395 c 2.12525,2.75e-5 3.95521,0.456211 5.38037,1.4450255 1.44201,0.97116 2.27511,2.536074 2.27512,4.273588 -10e-6,1.028019 -0.27227,2.061169 -0.73787,3.074523 -0.43966,0.930999 -0.92705,1.732044 -1.47576,2.367383 -0.40178,0.44405 -0.82406,0.896938 -1.26055,1.322045 1.22448,0.687534 2.25982,1.554347 3.04375,2.64409 h 0.0308 c 0.004,0.0067 -0.004,0.0548 0,0.06149 0.92657,1.246583 1.38351,2.734422 1.38352,4.335078 -1e-5,2.956883 -1.22675,5.445184 -3.53567,7.102148 -2.22151,1.61318 -4.9564,2.480829 -8.08592,2.582599 0,0 -0.0258,-9.52e-4 -0.0308,0 -0.7725,-2e-6 -1.53435,-0.39002 -2.05991,-0.953102 -0.41561,-0.447556 -0.79938,-0.934065 -0.79938,-1.660243 0,-0.334517 0.0137,-0.669418 0.0922,-0.983846 l 0.24596,-0.860867 0.86086,-0.03074 c 2.70232,-0.09083 4.61163,-0.678913 5.7493,-1.568006 1.1377,-0.889093 1.66023,-2.066868 1.66023,-3.935391 -10e-6,-1.826016 -0.72486,-2.906 -2.70555,-3.781663 -0.51421,-0.231378 -0.91494,-0.440374 -1.26054,-0.676395 -0.34561,-0.23602 -0.80592,-0.434647 -0.89161,-1.2913 l -0.0308,-0.399688 0.21522,-0.338197 c 0.28882,-0.449274 0.74669,-1.03132 1.47576,-1.906205 v -0.03074 c 0.69957,-0.812389 1.24837,-1.576472 1.62948,-2.275148 v -0.03074 c 0.36004,-0.625326 0.52265,-1.22164 0.52266,-1.906204 -1e-5,-0.610415 -0.15216,-0.951658 -0.5534,-1.322046 -0.34654,-0.319852 -0.89734,-0.58414 -1.9062,-0.584159 -0.17662,9e-6 -0.83295,0.108351 -1.75245,0.338198 -0.48546,0.121372 -0.87229,0.212354 -1.16831,0.276707 -0.29602,0.06436 -0.37019,0.123042 -0.76862,0.122981 -0.73132,1.15e-4 -1.00278,-0.259046 -1.38353,-0.522669 l -0.0308,-0.03074 -0.0308,-0.03074 c -0.43526,-0.362669 -0.86086,-0.889416 -0.86086,-1.598752 0,-0.790971 0.50552,-1.282828 0.9531,-1.598752 0.44757,-0.315922 0.96537,-0.5826998 1.62948,-0.8301208 1.36956,-0.5267146 2.76485,-0.7993475 4.18131,-0.7993761 z"
     id="path4872"
     inkscape:connector-curvature="0" />
  <path
     inkscape:connector-curvature="0"
     style="fill:#761407;fill-opacity:1;stroke:#761407;stroke-width:1.77165354;stroke-opacity:1;stroke-miterlimit:4;stroke-dasharray:none"
     d="m 118.0502,46.385534 c -6.08775,8.6e-5 -13.39631,1.776035 -21.951894,5.318925 -8.555677,3.543056 -13.339994,5.319003 -14.327145,5.318925 -0.164582,-0.918471 -0.246004,-2.503923 -0.245954,-4.734765 -5e-5,-2.886786 -4.102186,-4.334993 -12.328727,-4.335078 -3.784248,8.5e-5 -4.915868,0.931647 -5.903028,4.212097 -0.786115,2.653671 -0.65896,4.681915 -0.768626,7.102149 -0.164543,5.861317 -0.09222,5.246424 -0.09222,7.870779 0,0.04097 -6.8e-5,0.02348 0,0.06149 -0.0088,0.03242 -0.01907,0.04871 -0.03077,0.122981 l 0.122977,45.410703 c 0.0039,12.36077 0.463085,18.93921 2.428854,19.98441 0.98717,0.52488 0.780914,1.07607 6.210476,1.07607 5.594036,0 9.044754,-0.87672 10.361051,-2.58259 0.658084,-1.04976 0.983789,-2.08624 0.983838,-3.13601 0.164474,-1.04976 0.245915,-2.36073 0.245954,-3.93539 -3.9e-5,-1.70586 -3.9e-5,-2.82633 0,-3.35122 v -2.95155 L 82.26307,84.386645 V 71.596628 c 0.987152,-1.312149 2.809308,-2.379367 5.441861,-3.166759 1.316198,-0.393598 2.537625,-0.774589 3.689388,-1.168319 1.316198,-0.393598 2.89409,-0.721337 4.703977,-0.983848 1.974342,-0.393596 3.602864,-0.668087 4.919184,-0.799376 1.31618,-0.262375 3.13836,-0.536863 5.44186,-0.799376 2.30337,-0.393595 4.01338,-0.637338 5.16515,-0.76863 1.31619,-0.131151 3.21977,-0.321647 5.68781,-0.584159 2.63244,-0.262373 4.42387,-0.483613 5.41111,-0.614905 1.15167,-1.837027 1.75238,-4.512199 1.75247,-8.055251 -9e-5,-3.542896 -0.5194,-5.783826 -1.5065,-6.702461 -0.82275,-1.049685 -2.45131,-1.567921 -4.91919,-1.568007 z"
     id="path3021" />
  <text
     id="text4918"
     style="font-style:normal;font-variant:normal;font-weight:normal;font-stretch:normal;font-size:9.03431702px;line-height:0%;font-family:Dingbats;-inkscape-font-specification:Dingbats;letter-spacing:0px;word-spacing:0px;fill:#ffffff;fill-opacity:1;stroke:none;stroke-width:1.07139015"
     xml:space="preserve"
     transform="matrix(0.94676269,-0.26482187,0.27400367,0.97958849,0,0)"
     x="57.23637"
     y="84.613495"><tspan
       style="font-style:normal;font-variant:normal;font-weight:normal;font-stretch:normal;font-family:Cagliostro;-inkscape-font-specification:Cagliostro;fill:#ffffff;fill-opacity:1;stroke-width:1.07139015"
       id="tspan4920">realraum.at</tspan></text>
</svg>
