<?xml version="1.0" encoding="UTF-8" standalone="no"?>
<!-- Created with Inkscape (http://www.inkscape.org/) -->

<svg
   xmlns:dc="http://purl.org/dc/elements/1.1/"
   xmlns:cc="http://creativecommons.org/ns#"
   xmlns:rdf="http://www.w3.org/1999/02/22-rdf-syntax-ns#"
   xmlns:svg="http://www.w3.org/2000/svg"
   xmlns="http://www.w3.org/2000/svg"
   xmlns:sodipodi="http://sodipodi.sourceforge.net/DTD/sodipodi-0.dtd"
   xmlns:inkscape="http://www.inkscape.org/namespaces/inkscape"
   version="1.0"
   width="50mm"
   height="50mm"
   id="svg2"
   sodipodi:version="0.32"
   inkscape:version="0.92.3 (2405546, 2018-03-11)"
   sodipodi:docname="sticker2.5-black_production.svg"
   inkscape:output_extension="org.inkscape.output.svg.inkscape"
   inkscape:export-filename="/home/equinox/realraum/git/logo/logo-aktuell.png"
   inkscape:export-xdpi="275.48813"
   inkscape:export-ydpi="275.48813"
   viewBox="0 0 177.16535 177.16535">
  <sodipodi:namedview
     inkscape:window-height="1368"
     inkscape:window-width="2560"
     inkscape:pageshadow="2"
     inkscape:pageopacity="0.0"
     guidetolerance="10.0"
     gridtolerance="10.0"
     objecttolerance="10.0"
     borderopacity="1.0"
     bordercolor="#666666"
     pagecolor="#ffffff"
     id="base"
     showgrid="false"
     inkscape:zoom="3.1331118"
     inkscape:cx="-58.833445"
     inkscape:cy="150.39829"
     inkscape:window-x="0"
     inkscape:window-y="35"
     inkscape:current-layer="svg2"
     inkscape:document-units="mm"
     units="mm"
     showguides="true"
     inkscape:guide-bbox="true"
     inkscape:window-maximized="1"
     showborder="true"
     inkscape:showpageshadow="true"
     fit-margin-top="0"
     fit-margin-left="0"
     fit-margin-right="0"
     fit-margin-bottom="0"
     inkscape:pagecheckerboard="true">
    <inkscape:grid
       type="xygrid"
       id="grid4894"
       originx="-70.730037"
       originy="-3.8714942"
       spacingx="1"
       spacingy="1" />
  </sodipodi:namedview>
  <metadata
     id="metadata8">
    <rdf:RDF>
      <cc:Work
         rdf:about="">
        <dc:format>image/svg+xml</dc:format>
        <dc:type
           rdf:resource="http://purl.org/dc/dcmitype/StillImage" />
        <dc:title />
      </cc:Work>
    </rdf:RDF>
  </metadata>
  <defs
     id="defs4">
    <inkscape:perspective
       sodipodi:type="inkscape:persp3d"
       inkscape:vp_x="0 : 380.90847 : 1"
       inkscape:vp_y="0 : 999.99994 : 0"
       inkscape:vp_z="637.79522 : 380.90847 : 1"
       inkscape:persp3d-origin="318.89761 : 253.93899 : 1"
       id="perspective10" />
  </defs>
  <path
     inkscape:connector-curvature="0"
     id="path3379"
     d="M 87.439517,0.00121299 C 39.06708,0.61461299 -3.9731388e-5,40.083042 -3.9731388e-5,88.598972 -3.9731388e-5,137.4969 39.698591,177.16547 88.597717,177.16547 c 48.899143,0 88.564563,-39.66857 88.564563,-88.566498 0,-0.382031 0.007,-0.77537 0,-1.15625 V 17.639902 C 176.96825,7.916473 169.05809,0.07446299 159.30483,0.00121299 h -70.707113 -0.4082 c -0.24592,0 -0.50371,-0.003 -0.75,0 z"
     style="fill:#ffffff;fill-opacity:1;stroke:none;stroke-width:1"
     sodipodi:nodetypes="csssccccsc" />
  <g
     id="g3836"
     transform="matrix(0.98648841,0,0,0.98648841,1.1968915,1.1968916)">
    <path
       inkscape:connector-curvature="0"
       id="path4874"
       d="M 87.439453,0.00129111 C 39.067074,0.61469738 0,40.083077 0,88.598948 c 0,48.897872 39.698584,88.566402 88.597656,88.566402 48.899084,0 88.564464,-39.66853 88.564454,-88.566402 0,-0.382029 0.007,-0.775366 0,-1.15625 V 17.639963 C 176.96808,7.9165488 169.05793,0.07454138 159.30469,0.00129111 H 88.597656 88.189453 c -0.24592,0 -0.503712,-0.0031524 -0.75,0 z M 89.035156,20.266916 c 16.494814,0.139353 32.819814,6.497027 45.189454,17.386719 18.51588,16.002613 26.31221,42.582657 21.07812,66.332025 -4.5748,22.11478 -21.66142,40.55164 -42.625,48.44336 -21.755047,8.77946 -47.902944,4.57962 -66.205074,-9.94531 C 26.157965,126.96006 16.320616,99.402133 21.484375,74.432932 27.620534,44.17784 56.501789,20.44202 87.439453,20.298166 c 0.532359,-0.0085 1.06362,-0.03574 1.595703,-0.03125 z"
       style="fill:#000000;fill-opacity:1;stroke:none" />
    <path
       inkscape:connector-curvature="0"
       id="path4872"
       d="m 154.95836,7.5695692 c 2.16176,2.8e-5 4.02316,0.4640486 5.4728,1.469851 1.46679,0.9878438 2.3142,2.5796428 2.31421,4.3470068 -1e-5,1.04568 -0.27695,2.096579 -0.75055,3.127342 -0.44721,0.946994 -0.94297,1.7618 -1.50111,2.408054 -0.40868,0.451679 -0.83822,0.912347 -1.2822,1.344757 1.24551,0.699346 2.29864,1.581051 3.09604,2.689515 h 0.0313 c 0.004,0.0068 -0.004,0.05574 0,0.06255 0.94249,1.267999 1.40728,2.781399 1.40729,4.409553 -1e-5,3.007682 -1.24782,5.538731 -3.59641,7.224161 -2.25967,1.640894 -5.04155,2.523448 -8.22483,2.626967 0,0 -0.0263,-9.69e-4 -0.0313,0 -0.78577,-2e-6 -1.56071,-0.396721 -2.0953,-0.969476 -0.42275,-0.455245 -0.81311,-0.950112 -0.81311,-1.688765 0,-0.340264 0.0139,-0.680919 0.0938,-1.000749 l 0.25019,-0.875656 0.87565,-0.03127 c 2.74874,-0.09239 4.69085,-0.690577 5.84807,-1.594944 1.15724,-0.904367 1.68875,-2.102376 1.68875,-4.002999 -1e-5,-1.857387 -0.73731,-2.955924 -2.75203,-3.846631 -0.52304,-0.235353 -0.93066,-0.44794 -1.2822,-0.688015 -0.35154,-0.240075 -0.81976,-0.442114 -0.90692,-1.313484 l -0.0313,-0.406555 0.21892,-0.344007 c 0.29378,-0.456992 0.75951,-1.049038 1.50111,-1.938953 v -0.03127 c 0.71159,-0.826346 1.26982,-1.603555 1.65747,-2.314234 v -0.03127 c 0.36623,-0.636069 0.53163,-1.242628 0.53164,-1.938952 -1e-5,-0.620902 -0.15477,-0.968007 -0.56291,-1.344758 -0.35249,-0.325347 -0.91275,-0.594176 -1.93894,-0.594195 -0.17966,9e-6 -0.84726,0.110212 -1.78256,0.344008 -0.4938,0.123457 -0.88728,0.216002 -1.18838,0.281461 -0.30111,0.06546 -0.37655,0.125156 -0.78183,0.125093 -0.74388,1.17e-4 -1.02,-0.263496 -1.40729,-0.531648 l -0.0313,-0.03127 -0.0313,-0.03127 c -0.44274,-0.3689 -0.87565,-0.904696 -0.87565,-1.626218 0,-0.804561 0.5142,-1.3048676 0.96947,-1.6262183 0.45526,-0.3213497 0.98196,-0.5927109 1.65748,-0.8443825 1.39309,-0.5357633 2.81235,-0.81308 4.25314,-0.813109 z"
       style="fill:#ffffff;fill-opacity:1;stroke:none" />
  </g>
  <path
     inkscape:connector-curvature="0"
     style="fill:#000000;fill-opacity:1;stroke:none;stroke-width:0.9864884"
     d="m 118.15145,46.240546 c -6.10867,8.6e-5 -13.44234,1.782137 -22.027321,5.337201 -8.585073,3.555229 -13.385829,5.337278 -14.376371,5.3372 -0.165148,-0.921627 -0.246849,-2.512527 -0.2468,-4.751034 -4.9e-5,-2.896705 -4.116281,-4.349887 -12.371088,-4.349973 -3.79725,8.6e-5 -4.932757,0.934848 -5.92331,4.226569 -0.788816,2.662789 -0.661224,4.698003 -0.771266,7.126553 -0.165109,5.881455 -0.09253,5.264449 -0.09253,7.897822 0,0.04111 -6.9e-5,0.02356 0,0.0617 -0.0089,0.03253 -0.01914,0.04888 -0.03088,0.123404 l 0.1234,45.566732 c 0.0039,12.40324 0.464675,19.00429 2.437198,20.05306 0.990563,0.52669 0.783598,1.07977 6.231815,1.07977 5.613258,0 9.075832,-0.87973 10.396651,-2.59146 0.660346,-1.05336 0.987169,-2.09341 0.987218,-3.14678 0.16504,-1.05337 0.246761,-2.36885 0.2468,-3.94891 -3.9e-5,-1.71173 -3.9e-5,-2.83605 0,-3.36275 v -2.96168 L 82.241357,84.372226 V 71.538264 c 0.990543,-1.316659 2.81896,-2.387543 5.460559,-3.17764 1.32072,-0.394951 2.546343,-0.777251 3.702064,-1.172333 1.32072,-0.394951 2.904034,-0.723817 4.72014,-0.987229 1.981125,-0.394948 3.615243,-0.670383 4.93609,-0.802122 1.3207,-0.263277 3.14914,-0.538709 5.46056,-0.802123 2.31128,-0.394947 4.02716,-0.639528 5.18289,-0.771271 1.32071,-0.131602 3.23084,-0.322752 5.70736,-0.586167 2.64148,-0.263274 4.43907,-0.485274 5.4297,-0.617017 1.15562,-1.843339 1.75839,-4.527703 1.75848,-8.082928 -9e-5,-3.55507 -0.52118,-5.803699 -1.51167,-6.725491 -0.82557,-1.053291 -2.45973,-1.573308 -4.93609,-1.573395 z"
     id="path3021" />
  <g
     aria-label="realraum.at"
     transform="matrix(0,-0.98310234,1.0171881,0,0,0)"
     style="font-style:normal;font-variant:normal;font-weight:normal;font-stretch:normal;font-size:11.53746891px;line-height:0%;font-family:Dingbats;-inkscape-font-specification:Dingbats;letter-spacing:0px;word-spacing:0px;fill:#ffffff;fill-opacity:1;stroke:#ffffff;stroke-width:0;stroke-opacity:1;stroke-miterlimit:4;stroke-dasharray:none"
     id="text4918">
    <path
       d="m -129.08554,73.58341 0.0808,-2.561319 q 0.0115,-0.0923 0.0115,-0.323049 0,-0.230749 0.0115,-0.346124 0.0231,-0.115374 0.0577,-0.276899 0.0692,-0.288437 0.33458,-0.288437 0.57688,0 0.57688,0.253825 0,0.196137 0.0115,0.276899 0.0692,0 0.66918,-0.311512 0.59995,-0.311512 1.02683,-0.311512 0.17306,0 0.23075,0.0923 0.0692,0.08076 0.0692,0.392274 0,0.311512 -0.0808,0.473036 -0.0692,0.01154 -0.25382,0.03461 -0.17306,0.02307 -0.26536,0.03461 -0.0808,0.01154 -0.24229,0.04615 -0.16152,0.02308 -0.25382,0.04615 -0.0923,0.01154 -0.23075,0.04615 -0.12691,0.02307 -0.21921,0.05769 -0.0808,0.03461 -0.17307,0.06922 -0.1846,0.06923 -0.25382,0.1846 v 0.749935 l 0.0231,1.96137 v 0.173062 q 0,0.04615 0,0.196137 0,0.138449 -0.0115,0.230749 0,0.0923 -0.0462,0.1846 -0.0923,0.149987 -0.48458,0.149987 -0.38073,0 -0.44996,-0.04615 -0.13845,-0.0923 -0.13845,-1.188359 z"
       style="font-style:normal;font-variant:normal;font-weight:normal;font-stretch:normal;font-family:Cagliostro;-inkscape-font-specification:Cagliostro;fill:#ffffff;fill-opacity:1;stroke-width:0;stroke:#ffffff;stroke-opacity:1;stroke-miterlimit:4;stroke-dasharray:none"
       id="path55" />
    <path
       d="m -121.02698,71.956626 q 0,0 -2.64208,0.01154 -0.42688,0 -0.49611,0.06923 -0.0577,0.08076 -0.0577,0.265361 0,0.899923 0.50765,1.384497 0.51919,0.473036 1.17683,0.473036 0.65763,0 1.02683,-0.173062 0.0115,0 0.23075,-0.149987 0.21921,-0.149987 0.29997,-0.149987 0.0923,0 0.13845,0.06923 0.0462,0.06922 0.0462,0.138449 0,0.438424 -0.6461,0.749936 -0.64609,0.299974 -1.5114,0.299974 -0.85378,0 -1.63832,-0.692248 -0.77301,-0.692248 -0.77301,-1.86907 0,-1.176822 0.72686,-1.938295 0.73839,-0.761473 1.9729,-0.761473 0.89993,0 1.45372,0.530724 0.58842,0.553798 0.58842,1.338346 0,0.403811 -0.40382,0.403811 z m -2.99974,-0.565336 q 2.19212,0 2.53825,-0.02307 -0.0346,-0.461498 -0.35767,-0.761472 -0.31151,-0.299975 -0.79608,-0.299975 -0.48458,0 -0.91146,0.346124 -0.41535,0.334587 -0.47304,0.738398 z"
       style="font-style:normal;font-variant:normal;font-weight:normal;font-stretch:normal;font-family:Cagliostro;-inkscape-font-specification:Cagliostro;fill:#ffffff;fill-opacity:1;stroke-width:0;stroke:#ffffff;stroke-opacity:1;stroke-miterlimit:4;stroke-dasharray:none"
       id="path57" />
    <path
       d="m -116.11201,74.817919 q -0.34613,0 -0.32305,-0.380737 0,-0.126912 -0.0346,-0.126912 -0.0923,0.03461 -0.3692,0.196137 -1.37295,0.842235 -2.41133,0.103837 -0.47303,-0.334586 -0.47303,-0.922997 0,-0.888385 0.81916,-1.292197 0.8307,-0.403811 2.05367,-0.403811 0.21921,0 0.32305,0.01154 0,-0.196137 0.0115,-0.276899 0,-0.657636 -0.3692,-0.980685 -0.35766,-0.334586 -1.00376,-0.334586 -0.31151,0 -0.66917,0.0923 -0.35766,0.0923 -0.4615,0.0923 -0.10383,0 -0.17306,-0.126912 -0.0577,-0.126912 -0.0577,-0.334587 0,-0.207674 0.50765,-0.323049 0.51919,-0.126912 0.99222,-0.126912 1.11914,0 1.69601,0.588411 0.58841,0.588411 0.58841,1.719083 v 2.376718 q 0,0.311512 -0.11537,0.380737 -0.11538,0.06923 -0.53072,0.06923 z m -0.42689,-1.211435 q 0.0231,-0.323049 0.0231,-0.692248 0,-0.369199 -0.0115,-0.415349 -1.59217,0.149988 -1.9383,0.576874 -0.1846,0.219212 -0.1846,0.507649 0,0.611485 0.91146,0.611485 0.4615,0 0.81916,-0.207674 0.3692,-0.219212 0.38074,-0.380737 z"
       style="font-style:normal;font-variant:normal;font-weight:normal;font-stretch:normal;font-family:Cagliostro;-inkscape-font-specification:Cagliostro;fill:#ffffff;fill-opacity:1;stroke-width:0;stroke:#ffffff;stroke-opacity:1;stroke-miterlimit:4;stroke-dasharray:none"
       id="path59" />
    <path
       d="m -113.78433,70.895179 -0.0231,-2.353643 q 0,-0.23075 0,-0.438424 0.0115,-0.219212 0.0115,-0.380737 v -0.542261 q 0,-0.519186 0.0692,-0.703785 0.0808,-0.1846 0.44996,-0.1846 0.38073,0 0.47303,0.05769 0.0923,0.04615 0.0923,0.230749 l 0.0115,4.257326 0.0115,2.538243 q 0,0.346124 0.20767,0.553799 0.20768,0.207674 0.47304,0.207674 0.26536,0 0.53072,-0.05769 0.2769,-0.06923 0.34613,-0.06923 0.14998,0 0.14998,0.184599 0,0.392274 -0.54226,0.576874 -0.38073,0.115375 -0.81916,0.115375 -0.42688,0 -0.69224,-0.149988 -0.26537,-0.149987 -0.41535,-0.369199 -0.13845,-0.219212 -0.21922,-0.623023 -0.11537,-0.565336 -0.11537,-1.63832 z"
       style="font-style:normal;font-variant:normal;font-weight:normal;font-stretch:normal;font-family:Cagliostro;-inkscape-font-specification:Cagliostro;fill:#ffffff;fill-opacity:1;stroke-width:0;stroke:#ffffff;stroke-opacity:1;stroke-miterlimit:4;stroke-dasharray:none"
       id="path61" />
    <path
       d="m -110.08928,73.58341 0.0808,-2.561319 q 0.0115,-0.0923 0.0115,-0.323049 0,-0.230749 0.0115,-0.346124 0.0231,-0.115374 0.0577,-0.276899 0.0692,-0.288437 0.33459,-0.288437 0.57687,0 0.57687,0.253825 0,0.196137 0.0115,0.276899 0.0692,0 0.66917,-0.311512 0.59995,-0.311512 1.02683,-0.311512 0.17307,0 0.23075,0.0923 0.0692,0.08076 0.0692,0.392274 0,0.311512 -0.0808,0.473036 -0.0692,0.01154 -0.25383,0.03461 -0.17306,0.02307 -0.26536,0.03461 -0.0808,0.01154 -0.24229,0.04615 -0.16152,0.02308 -0.25382,0.04615 -0.0923,0.01154 -0.23075,0.04615 -0.12691,0.02307 -0.21921,0.05769 -0.0808,0.03461 -0.17306,0.06922 -0.1846,0.06923 -0.25383,0.1846 v 0.749935 l 0.0231,1.96137 v 0.173062 q 0,0.04615 0,0.196137 0,0.138449 -0.0115,0.230749 0,0.0923 -0.0461,0.1846 -0.0923,0.149987 -0.48458,0.149987 -0.38073,0 -0.44996,-0.04615 -0.13845,-0.0923 -0.13845,-1.188359 z"
       style="font-style:normal;font-variant:normal;font-weight:normal;font-stretch:normal;font-family:Cagliostro;-inkscape-font-specification:Cagliostro;fill:#ffffff;fill-opacity:1;stroke-width:0;stroke:#ffffff;stroke-opacity:1;stroke-miterlimit:4;stroke-dasharray:none"
       id="path63" />
    <path
       d="m -102.88449,74.817919 q -0.34612,0 -0.32305,-0.380737 0,-0.126912 -0.0346,-0.126912 -0.0923,0.03461 -0.3692,0.196137 -1.37296,0.842235 -2.41133,0.103837 -0.47304,-0.334586 -0.47304,-0.922997 0,-0.888385 0.81917,-1.292197 0.83069,-0.403811 2.05366,-0.403811 0.21922,0 0.32305,0.01154 0,-0.196137 0.0115,-0.276899 0,-0.657636 -0.3692,-0.980685 -0.35766,-0.334586 -1.00376,-0.334586 -0.31151,0 -0.66917,0.0923 -0.35766,0.0923 -0.4615,0.0923 -0.10384,0 -0.17306,-0.126912 -0.0577,-0.126912 -0.0577,-0.334587 0,-0.207674 0.50765,-0.323049 0.51919,-0.126912 0.99222,-0.126912 1.11914,0 1.69601,0.588411 0.58841,0.588411 0.58841,1.719083 v 2.376718 q 0,0.311512 -0.11537,0.380737 -0.11538,0.06923 -0.53073,0.06923 z m -0.42688,-1.211435 q 0.0231,-0.323049 0.0231,-0.692248 0,-0.369199 -0.0115,-0.415349 -1.59217,0.149988 -1.93829,0.576874 -0.1846,0.219212 -0.1846,0.507649 0,0.611485 0.91146,0.611485 0.4615,0 0.81916,-0.207674 0.3692,-0.219212 0.38074,-0.380737 z"
       style="font-style:normal;font-variant:normal;font-weight:normal;font-stretch:normal;font-family:Cagliostro;-inkscape-font-specification:Cagliostro;fill:#ffffff;fill-opacity:1;stroke-width:0;stroke:#ffffff;stroke-opacity:1;stroke-miterlimit:4;stroke-dasharray:none"
       id="path65" />
    <path
       d="m -97.130173,73.502647 0.05769,-2.099819 V 70.80288 q 0,-0.484574 0.06923,-0.726861 0.08076,-0.253824 0.323049,-0.253824 0.403811,0 0.576873,0.05769 0.06923,0.0923 0.06923,0.611486 l 0.03461,2.918979 0.04615,1.015298 q 0,0.369199 -0.0923,0.380736 -0.242287,0.03461 -0.449962,0.03461 -0.196137,0 -0.276899,-0.03461 -0.06922,-0.04615 -0.0923,-0.115374 -0.02308,-0.08076 -0.03461,-0.161525 -0.01154,-0.08076 -0.02308,-0.161525 -0.01154,-0.184599 -0.05769,-0.161524 -0.13845,-0.01154 -0.553799,0.346124 -0.161524,0.149987 -0.507648,0.265362 -0.346125,0.126912 -0.842236,0.126912 -0.496111,0 -0.888385,-0.242287 -0.380736,-0.242287 -0.565336,-0.657636 -0.32305,-0.761473 -0.32305,-1.707545 l 0.0231,-1.834458 0.0115,-0.207674 q 0,-0.253824 0.10384,-0.357662 0.10384,-0.115374 0.42689,-0.115374 0.323046,0 0.403808,0.05769 0.0923,0.04615 0.0923,0.253824 l -0.02307,1.684471 q 0,1.326809 0.2769,1.765233 0.126912,0.196136 0.369199,0.334586 0.253824,0.13845 0.599948,0.13845 0.346124,0 0.796085,-0.13845 0.449962,-0.13845 0.449962,-0.415349 z"
       style="font-style:normal;font-variant:normal;font-weight:normal;font-stretch:normal;font-family:Cagliostro;-inkscape-font-specification:Cagliostro;fill:#ffffff;fill-opacity:1;stroke-width:0;stroke:#ffffff;stroke-opacity:1;stroke-miterlimit:4;stroke-dasharray:none"
       id="path67" />
    <path
       d="m -93.684077,69.79912 0.496111,0.01154 q 0.01154,0.01154 0.103838,0.392274 0.0923,-0.03461 0.484573,-0.196137 0.796086,-0.311512 1.246047,-0.311512 0.749935,0 1.199897,0.611486 l 0.115374,-0.08076 q 0.126913,-0.08076 0.161525,-0.103837 l 0.13845,-0.08076 q 0.115374,-0.06923 0.173062,-0.0923 0.05769,-0.02307 0.173062,-0.08076 0.126912,-0.05769 0.207674,-0.08076 0.0923,-0.02308 0.207675,-0.05769 0.219211,-0.04615 0.496111,-0.04615 1.211434,0 1.546021,1.153747 0.0923,0.253824 0.115374,1.222972 v 2.145969 q 0,0.392274 -0.138449,0.507648 -0.126913,0.103838 -0.496112,0.103838 -0.357661,0 -0.438423,-0.04615 -0.06923,-0.05769 -0.06923,-0.265362 l 0.03461,-0.692248 v -1.384496 q 0,-0.04615 0,-0.299975 0,-0.253824 -0.01154,-0.438423 0,-0.1846 -0.05769,-0.461499 -0.04615,-0.276899 -0.149987,-0.392274 -0.288436,-0.323049 -0.853772,-0.323049 -1.072985,0 -1.072985,0.703785 l 0.03461,1.04991 v 1.569096 q 0,0.507648 -0.0923,0.669173 -0.04615,0.08076 -0.207675,0.08076 -0.646098,0 -0.749935,-0.161524 -0.08076,-0.115375 -0.06923,-0.357662 0.02307,-0.242287 0.02307,-0.276899 l 0.05769,-2.042132 q 0,-0.657636 -0.219212,-0.899923 -0.219212,-0.242286 -0.68071,-0.242286 -1.107597,0 -1.107597,0.426886 l 0.02308,0.946072 -0.02308,1.995982 q 0,0.06923 0,0.219212 0.01154,0.13845 0,0.1846 l -0.01154,0.13845 q -0.01154,0.0923 -0.03461,0.126912 -0.13845,0.126912 -0.23075,0.138449 -0.253824,0.03461 -0.403811,0.03461 -0.13845,0 -0.196137,-0.01154 -0.04615,-0.01154 -0.08076,-0.03461 -0.03461,-0.03461 -0.05769,-0.05769 -0.02308,-0.03461 -0.04615,-0.0923 -0.01154,-0.06923 -0.02308,-0.115375 0,-0.05769 0,-0.161525 v -0.58841 l 0.04615,-2.399794 0.02308,-0.95761 0.02307,-0.230749 q 0,-0.13845 0.05769,-0.219212 0.06922,-0.0923 0.103837,-0.103837 0.13845,-0.04615 0.230749,-0.04615 z"
       style="font-style:normal;font-variant:normal;font-weight:normal;font-stretch:normal;font-family:Cagliostro;-inkscape-font-specification:Cagliostro;fill:#ffffff;fill-opacity:1;stroke-width:0;stroke:#ffffff;stroke-opacity:1;stroke-miterlimit:4;stroke-dasharray:none"
       id="path69" />
    <path
       d="m -84.394612,73.30651 q 0.1846,-0.02308 0.2769,-0.02308 0.738398,0 0.738398,0.715323 0,0.415349 -0.2769,0.692249 -0.276899,0.276899 -0.692248,0.276899 -0.219212,0 -0.565336,-0.219212 -0.334586,-0.230749 -0.334586,-0.669173 0,-0.265362 0.265362,-0.484574 0.276899,-0.219212 0.58841,-0.288437 z"
       style="font-style:normal;font-variant:normal;font-weight:normal;font-stretch:normal;font-family:Cagliostro;-inkscape-font-specification:Cagliostro;fill:#ffffff;fill-opacity:1;stroke-width:0;stroke:#ffffff;stroke-opacity:1;stroke-miterlimit:4;stroke-dasharray:none"
       id="path71" />
    <path
       d="m -78.61524,74.817919 q -0.346124,0 -0.323049,-0.380737 0,-0.126912 -0.03461,-0.126912 -0.0923,0.03461 -0.369199,0.196137 -1.372959,0.842235 -2.411331,0.103837 -0.473036,-0.334586 -0.473036,-0.922997 0,-0.888385 0.81916,-1.292197 0.830698,-0.403811 2.05367,-0.403811 0.219212,0 0.323049,0.01154 0,-0.196137 0.01154,-0.276899 0,-0.657636 -0.369199,-0.980685 -0.357661,-0.334586 -1.003759,-0.334586 -0.311512,0 -0.669174,0.0923 -0.357661,0.0923 -0.461498,0.0923 -0.103838,0 -0.173062,-0.126912 -0.05769,-0.126912 -0.05769,-0.334587 0,-0.207674 0.507649,-0.323049 0.519186,-0.126912 0.992222,-0.126912 1.119135,0 1.696008,0.588411 0.588411,0.588411 0.588411,1.719083 v 2.376718 q 0,0.311512 -0.115375,0.380737 -0.115374,0.06923 -0.530723,0.06923 z m -0.426887,-1.211435 q 0.02307,-0.323049 0.02307,-0.692248 0,-0.369199 -0.01154,-0.415349 -1.592171,0.149988 -1.938295,0.576874 -0.184599,0.219212 -0.184599,0.507649 0,0.611485 0.91146,0.611485 0.461498,0 0.81916,-0.207674 0.369199,-0.219212 0.380736,-0.380737 z"
       style="font-style:normal;font-variant:normal;font-weight:normal;font-stretch:normal;font-family:Cagliostro;-inkscape-font-specification:Cagliostro;fill:#ffffff;fill-opacity:1;stroke-width:0;stroke:#ffffff;stroke-opacity:1;stroke-miterlimit:4;stroke-dasharray:none"
       id="path73" />
    <path
       d="m -74.94921,71.472053 -0.02308,1.661395 q 0,0.473036 0.161524,0.726861 0.161525,0.242287 0.542262,0.242287 0.380736,0 0.646098,-0.06923 0.496111,-0.13845 0.496111,0.138449 0,0.773011 -1.430646,0.773011 -0.807623,0 -1.257584,-0.726861 -0.219212,-0.461498 -0.219212,-1.096059 l 0.02308,-1.338347 0.02307,-0.969147 q 0,-0.161525 -0.04615,-0.196137 -0.04615,-0.04615 -0.173062,-0.04615 l -0.449962,0.03461 q -0.288436,0 -0.288436,-0.1846 0,-0.323049 0.06923,-0.449961 0.08076,-0.13845 0.288436,-0.13845 l 0.449962,0.03461 q 0.161524,0 0.161524,-0.392274 0,-0.04615 0,-0.05769 v -0.657635 q 0,-0.299975 0.01154,-0.346125 0.138449,-0.06922 0.91146,-0.06922 0.207674,0 0.207674,0.219212 l -0.03461,1.269121 q 0.138449,0.01154 0.449961,0.01154 l 0.922997,-0.06923 q 0.1846,0 0.1846,0.219212 0,0.63456 -0.623023,0.63456 l -0.749936,-0.04615 q -0.184599,0 -0.230749,0.02307 -0.02307,0.207674 -0.02307,0.86531 z"
       style="font-style:normal;font-variant:normal;font-weight:normal;font-stretch:normal;font-family:Cagliostro;-inkscape-font-specification:Cagliostro;fill:#ffffff;fill-opacity:1;stroke-width:0;stroke:#ffffff;stroke-opacity:1;stroke-miterlimit:4;stroke-dasharray:none"
       id="path75" />
  </g>
</svg>
