<?xml version="1.0" encoding="UTF-8" standalone="no"?>
<!-- Created with Inkscape (http://www.inkscape.org/) -->

<svg
   xmlns:dc="http://purl.org/dc/elements/1.1/"
   xmlns:cc="http://creativecommons.org/ns#"
   xmlns:rdf="http://www.w3.org/1999/02/22-rdf-syntax-ns#"
   xmlns:svg="http://www.w3.org/2000/svg"
   xmlns="http://www.w3.org/2000/svg"
   xmlns:sodipodi="http://sodipodi.sourceforge.net/DTD/sodipodi-0.dtd"
   xmlns:inkscape="http://www.inkscape.org/namespaces/inkscape"
   version="1.0"
   width="50mm"
   height="50mm"
   id="svg2"
   sodipodi:version="0.32"
   inkscape:version="0.92.3 (2405546, 2018-03-11)"
   sodipodi:docname="sticker2.5-red.svg"
   inkscape:output_extension="org.inkscape.output.svg.inkscape"
   inkscape:export-filename="/home/equinox/realraum/git/logo/logo-aktuell.png"
   inkscape:export-xdpi="275.48813"
   inkscape:export-ydpi="275.48813"
   viewBox="0 0 177.16535 177.16535">
  <sodipodi:namedview
     inkscape:window-height="1172"
     inkscape:window-width="1600"
     inkscape:pageshadow="2"
     inkscape:pageopacity="0.0"
     guidetolerance="10.0"
     gridtolerance="10.0"
     objecttolerance="10.0"
     borderopacity="1.0"
     bordercolor="#666666"
     pagecolor="#ffffff"
     id="base"
     showgrid="false"
     inkscape:zoom="3.1331118"
     inkscape:cx="43.57527"
     inkscape:cy="151.51539"
     inkscape:window-x="3520"
     inkscape:window-y="0"
     inkscape:current-layer="svg2"
     inkscape:document-units="mm"
     units="mm"
     showguides="true"
     inkscape:guide-bbox="true"
     inkscape:window-maximized="1"
     showborder="true"
     inkscape:showpageshadow="true"
     fit-margin-top="0"
     fit-margin-left="0"
     fit-margin-right="0"
     fit-margin-bottom="0"
     inkscape:pagecheckerboard="true">
    <inkscape:grid
       type="xygrid"
       id="grid4894"
       originx="-70.730037"
       originy="-3.8714942"
       spacingx="1"
       spacingy="1" />
  </sodipodi:namedview>
  <metadata
     id="metadata8">
    <rdf:RDF>
      <cc:Work
         rdf:about="">
        <dc:format>image/svg+xml</dc:format>
        <dc:type
           rdf:resource="http://purl.org/dc/dcmitype/StillImage" />
        <dc:title></dc:title>
      </cc:Work>
    </rdf:RDF>
  </metadata>
  <defs
     id="defs4">
    <inkscape:perspective
       sodipodi:type="inkscape:persp3d"
       inkscape:vp_x="0 : 380.90847 : 1"
       inkscape:vp_y="0 : 999.99994 : 0"
       inkscape:vp_z="637.79522 : 380.90847 : 1"
       inkscape:persp3d-origin="318.89761 : 253.93899 : 1"
       id="perspective10" />
  </defs>
  <text
     xml:space="preserve"
     style="font-style:normal;font-weight:normal;font-size:11.83786106px;line-height:0%;font-family:sans-serif;letter-spacing:0px;word-spacing:0px;fill:#000000;fill-opacity:1;stroke:none;stroke-width:0.9864884"
     x="9.192132"
     y="172.98566"
     id="text3529"><tspan
       sodipodi:role="line"
       id="tspan3531"
       x="9.192132"
       y="172.98566"
       style="font-style:normal;font-variant:normal;font-weight:normal;font-stretch:normal;font-size:18.52809715px;line-height:1.25;font-family:'Trebuchet MS';-inkscape-font-specification:'Trebuchet MS';stroke-width:0.9864884"> </tspan></text>
  <text
     xml:space="preserve"
     style="font-style:normal;font-weight:normal;font-size:11.83786106px;line-height:0%;font-family:sans-serif;letter-spacing:0px;word-spacing:0px;fill:#000000;fill-opacity:1;stroke:none;stroke-width:0.9864884"
     x="19.914291"
     y="172.01759"
     id="text3537"><tspan
       sodipodi:role="line"
       id="tspan3539"
       x="19.914291"
       y="172.01759"
       style="font-size:27.62167549px;line-height:1.25;font-family:sans-serif;stroke-width:0.9864884"> </tspan></text>
  <path
     inkscape:connector-curvature="0"
     id="path3379"
     d="M 87.439517,0.00121299 C 39.06708,0.61461299 -3.9731388e-5,40.083042 -3.9731388e-5,88.598972 -3.9731388e-5,137.4969 39.698591,177.16547 88.597717,177.16547 c 48.899143,0 88.564563,-39.66857 88.564563,-88.566498 0,-0.382031 0.007,-0.77537 0,-1.15625 V 17.639902 C 176.96825,7.916473 169.05809,0.07446299 159.30483,0.00121299 h -70.707113 -0.4082 c -0.24592,0 -0.50371,-0.003 -0.75,0 z"
     style="fill:#ffffff;fill-opacity:1;stroke:none;stroke-width:1"
     sodipodi:nodetypes="csssccccsc" />
  <g
     id="g3796">
    <path
       inkscape:connector-curvature="0"
       id="path4874"
       d="M 87.454898,1.1981653 C 39.736107,1.8032834 1.1968915,40.738382 1.1968915,88.598727 c 0,48.237183 39.1621935,87.369733 87.4005605,87.369733 48.238378,0 87.367818,-39.13255 87.367808,-87.369733 0,-0.376867 0.007,-0.76489 0,-1.140627 V 18.598511 C 175.77385,9.0064752 167.97058,1.2704258 158.34912,1.1981653 H 88.597452 88.194765 c -0.242597,0 -0.496906,-0.00311 -0.739867,0 z m 1.574143,19.9918037 c 16.271939,0.13747 32.376369,6.409242 44.578869,17.151797 18.2657,15.786392 25.95669,42.007298 20.79332,65.435774 -4.51298,21.81597 -21.36874,40.00372 -42.04906,47.78881 -21.461106,8.66084 -47.255703,4.51775 -65.310542,-9.81093 -20.040207,-15.3139 -29.744638,-42.499476 -24.65065,-67.131304 6.05325,-29.846297 34.544273,-53.261409 65.06392,-53.403319 0.525166,-0.0084 1.049249,-0.03526 1.574143,-0.03083 z"
       style="fill:#761407;fill-opacity:1;stroke:none;stroke-width:0.9864884" />
    <path
       inkscape:connector-curvature="0"
       id="path4872"
       d="m 154.06152,8.6641839 c 2.13255,2.76e-5 3.9688,0.4577786 5.39885,1.4499911 1.44697,0.974496 2.28293,2.544788 2.28294,4.288272 -1e-5,1.031551 -0.27321,2.068251 -0.74041,3.085086 -0.44116,0.934199 -0.93023,1.737996 -1.48082,2.375518 -0.40316,0.445576 -0.8269,0.900019 -1.26488,1.326587 1.22868,0.689897 2.26758,1.559688 3.05421,2.653175 h 0.0309 c 0.004,0.0067 -0.004,0.05499 0,0.0617 0.92975,1.250866 1.38826,2.743818 1.38827,4.349973 -1e-5,2.967043 -1.23096,5.463894 -3.54782,7.126551 -2.22913,1.618723 -4.97343,2.489352 -8.1137,2.591473 0,0 -0.0259,-9.56e-4 -0.0309,0 -0.77516,-2e-6 -1.53962,-0.391361 -2.06699,-0.956377 -0.41704,-0.449094 -0.80213,-0.937275 -0.80213,-1.665947 0,-0.335667 0.0137,-0.671719 0.0925,-0.987228 l 0.24681,-0.863824 0.86382,-0.03085 c 2.7116,-0.09114 4.62746,-0.681246 5.76905,-1.573393 1.1416,-0.892148 1.66593,-2.07397 1.66593,-3.948912 -1e-5,-1.832291 -0.72735,-2.915985 -2.71484,-3.794657 -0.51598,-0.232173 -0.91809,-0.441888 -1.26488,-0.678719 -0.34679,-0.236831 -0.80868,-0.436141 -0.89467,-1.295737 l -0.0309,-0.401062 0.21596,-0.339359 c 0.28981,-0.450817 0.74925,-1.034863 1.48083,-1.912754 v -0.03085 c 0.70197,-0.815181 1.25266,-1.581888 1.63507,-2.282965 v -0.03085 c 0.36128,-0.627475 0.52445,-1.225838 0.52446,-1.912754 -1e-5,-0.612513 -0.15268,-0.954928 -0.55531,-1.326588 -0.34772,-0.320951 -0.90041,-0.586148 -1.91274,-0.586167 -0.17723,9e-6 -0.83581,0.108723 -1.75847,0.33936 -0.48713,0.121789 -0.87529,0.213084 -1.17233,0.277658 -0.29704,0.06458 -0.37146,0.123465 -0.77126,0.123403 -0.73383,1.15e-4 -1.00622,-0.259936 -1.38828,-0.524465 l -0.0309,-0.03085 -0.0309,-0.03085 c -0.43676,-0.363915 -0.86382,-0.892472 -0.86382,-1.604245 0,-0.79369 0.50725,-1.287236 0.95637,-1.604245 0.44911,-0.317008 0.96869,-0.5847027 1.63509,-0.8329738 1.37426,-0.5285243 2.77435,-0.802094 4.19567,-0.8021226 z"
       style="fill:#ffffff;fill-opacity:1;stroke:none;stroke-width:0.9864884" />
  </g>
  <path
     inkscape:connector-curvature="0"
     style="fill:#761407;fill-opacity:1;stroke:none;stroke-width:0.9864884"
     d="m 118.15145,46.240546 c -6.10867,8.6e-5 -13.44234,1.782137 -22.027321,5.337201 -8.585073,3.555229 -13.385829,5.337278 -14.376371,5.3372 -0.165148,-0.921627 -0.246849,-2.512527 -0.2468,-4.751034 -4.9e-5,-2.896705 -4.116281,-4.349887 -12.371088,-4.349973 -3.79725,8.6e-5 -4.932757,0.934848 -5.92331,4.226569 -0.788816,2.662789 -0.661224,4.698003 -0.771266,7.126553 -0.165109,5.881455 -0.09253,5.264449 -0.09253,7.897822 0,0.04111 -6.9e-5,0.02356 0,0.0617 -0.0089,0.03253 -0.01914,0.04888 -0.03088,0.123404 l 0.1234,45.566732 c 0.0039,12.40324 0.464675,19.00429 2.437198,20.05306 0.990563,0.52669 0.783598,1.07977 6.231815,1.07977 5.613258,0 9.075832,-0.87973 10.396651,-2.59146 0.660346,-1.05336 0.987169,-2.09341 0.987218,-3.14678 0.16504,-1.05337 0.246761,-2.36885 0.2468,-3.94891 -3.9e-5,-1.71173 -3.9e-5,-2.83605 0,-3.36275 v -2.96168 L 82.241357,84.372226 V 71.538264 c 0.990543,-1.316659 2.81896,-2.387543 5.460559,-3.17764 1.32072,-0.394951 2.546343,-0.777251 3.702064,-1.172333 1.32072,-0.394951 2.904034,-0.723817 4.72014,-0.987229 1.981125,-0.394948 3.615243,-0.670383 4.93609,-0.802122 1.3207,-0.263277 3.14914,-0.538709 5.46056,-0.802123 2.31128,-0.394947 4.02716,-0.639528 5.18289,-0.771271 1.32071,-0.131602 3.23084,-0.322752 5.70736,-0.586167 2.64148,-0.263274 4.43907,-0.485274 5.4297,-0.617017 1.15562,-1.843339 1.75839,-4.527703 1.75848,-8.082928 -9e-5,-3.55507 -0.52118,-5.803699 -1.51167,-6.725491 -0.82557,-1.053291 -2.45973,-1.573308 -4.93609,-1.573395 z"
     id="path3021" />
  <text
     id="text4918"
     style="font-style:normal;font-variant:normal;font-weight:normal;font-stretch:normal;font-size:11.53746891px;line-height:0%;font-family:Dingbats;-inkscape-font-specification:Dingbats;letter-spacing:0px;word-spacing:0px;fill:#ffffff;fill-opacity:1;stroke:none;stroke-width:1.36824191"
     xml:space="preserve"
     transform="matrix(0,-0.98310234,1.0171881,0,0,0)"
     x="-129.97392"
     y="74.806381"><tspan
       style="font-style:normal;font-variant:normal;font-weight:normal;font-stretch:normal;font-family:Cagliostro;-inkscape-font-specification:Cagliostro;fill:#ffffff;fill-opacity:1;stroke-width:1.36824191"
       id="tspan4920">realraum.at</tspan></text>
</svg>
