<?xml version="1.0" encoding="UTF-8" standalone="no"?>
<!-- Created with Inkscape (http://www.inkscape.org/) -->

<svg
   xmlns:dc="http://purl.org/dc/elements/1.1/"
   xmlns:cc="http://creativecommons.org/ns#"
   xmlns:rdf="http://www.w3.org/1999/02/22-rdf-syntax-ns#"
   xmlns:svg="http://www.w3.org/2000/svg"
   xmlns="http://www.w3.org/2000/svg"
   xmlns:sodipodi="http://sodipodi.sourceforge.net/DTD/sodipodi-0.dtd"
   xmlns:inkscape="http://www.inkscape.org/namespaces/inkscape"
   version="1.0"
   width="50mm"
   height="50mm"
   id="svg2"
   sodipodi:version="0.32"
   inkscape:version="0.92.3 (2405546, 2018-03-11)"
   sodipodi:docname="sticker2.5-black.svg"
   inkscape:output_extension="org.inkscape.output.svg.inkscape"
   inkscape:export-filename="/home/equinox/realraum/git/logo/logo-aktuell.png"
   inkscape:export-xdpi="275.48813"
   inkscape:export-ydpi="275.48813"
   viewBox="0 0 177.16535 177.16535">
  <sodipodi:namedview
     inkscape:window-height="1172"
     inkscape:window-width="1600"
     inkscape:pageshadow="2"
     inkscape:pageopacity="0.0"
     guidetolerance="10.0"
     gridtolerance="10.0"
     objecttolerance="10.0"
     borderopacity="1.0"
     bordercolor="#666666"
     pagecolor="#ffffff"
     id="base"
     showgrid="false"
     inkscape:zoom="3.1331118"
     inkscape:cx="43.57527"
     inkscape:cy="151.51539"
     inkscape:window-x="3520"
     inkscape:window-y="0"
     inkscape:current-layer="svg2"
     inkscape:document-units="mm"
     units="mm"
     showguides="true"
     inkscape:guide-bbox="true"
     inkscape:window-maximized="1"
     showborder="true"
     inkscape:showpageshadow="true"
     fit-margin-top="0"
     fit-margin-left="0"
     fit-margin-right="0"
     fit-margin-bottom="0"
     inkscape:pagecheckerboard="true">
    <inkscape:grid
       type="xygrid"
       id="grid4894"
       originx="-70.730037"
       originy="-3.8714942"
       spacingx="1"
       spacingy="1" />
  </sodipodi:namedview>
  <metadata
     id="metadata8">
    <rdf:RDF>
      <cc:Work
         rdf:about="">
        <dc:format>image/svg+xml</dc:format>
        <dc:type
           rdf:resource="http://purl.org/dc/dcmitype/StillImage" />
        <dc:title></dc:title>
      </cc:Work>
    </rdf:RDF>
  </metadata>
  <defs
     id="defs4">
    <inkscape:perspective
       sodipodi:type="inkscape:persp3d"
       inkscape:vp_x="0 : 380.90847 : 1"
       inkscape:vp_y="0 : 999.99994 : 0"
       inkscape:vp_z="637.79522 : 380.90847 : 1"
       inkscape:persp3d-origin="318.89761 : 253.93899 : 1"
       id="perspective10" />
  </defs>
  <text
     xml:space="preserve"
     style="font-style:normal;font-weight:normal;font-size:11.83786106px;line-height:0%;font-family:sans-serif;letter-spacing:0px;word-spacing:0px;fill:#000000;fill-opacity:1;stroke:none;stroke-width:0.9864884"
     x="9.192132"
     y="172.98566"
     id="text3529"><tspan
       sodipodi:role="line"
       id="tspan3531"
       x="9.192132"
       y="172.98566"
       style="font-style:normal;font-variant:normal;font-weight:normal;font-stretch:normal;font-size:18.52809715px;line-height:1.25;font-family:'Trebuchet MS';-inkscape-font-specification:'Trebuchet MS';stroke-width:0.9864884"> </tspan></text>
  <text
     xml:space="preserve"
     style="font-style:normal;font-weight:normal;font-size:11.83786106px;line-height:0%;font-family:sans-serif;letter-spacing:0px;word-spacing:0px;fill:#000000;fill-opacity:1;stroke:none;stroke-width:0.9864884"
     x="19.914291"
     y="172.01759"
     id="text3537"><tspan
       sodipodi:role="line"
       id="tspan3539"
       x="19.914291"
       y="172.01759"
       style="font-size:27.62167549px;line-height:1.25;font-family:sans-serif;stroke-width:0.9864884"> </tspan></text>
  <path
     inkscape:connector-curvature="0"
     id="path3379"
     d="M 87.439517,0.00121299 C 39.06708,0.61461299 -3.9731388e-5,40.083042 -3.9731388e-5,88.598972 -3.9731388e-5,137.4969 39.698591,177.16547 88.597717,177.16547 c 48.899143,0 88.564563,-39.66857 88.564563,-88.566498 0,-0.382031 0.007,-0.77537 0,-1.15625 V 17.639902 C 176.96825,7.916473 169.05809,0.07446299 159.30483,0.00121299 h -70.707113 -0.4082 c -0.24592,0 -0.50371,-0.003 -0.75,0 z"
     style="fill:#ffffff;fill-opacity:1;stroke:none;stroke-width:1"
     sodipodi:nodetypes="csssccccsc" />
  <g
     id="g3836"
     transform="matrix(0.98648841,0,0,0.98648841,1.1968915,1.1968916)">
    <path
       inkscape:connector-curvature="0"
       id="path4874"
       d="M 87.439453,0.00129111 C 39.067074,0.61469738 0,40.083077 0,88.598948 c 0,48.897872 39.698584,88.566402 88.597656,88.566402 48.899084,0 88.564464,-39.66853 88.564454,-88.566402 0,-0.382029 0.007,-0.775366 0,-1.15625 V 17.639963 C 176.96808,7.9165488 169.05793,0.07454138 159.30469,0.00129111 H 88.597656 88.189453 c -0.24592,0 -0.503712,-0.0031524 -0.75,0 z M 89.035156,20.266916 c 16.494814,0.139353 32.819814,6.497027 45.189454,17.386719 18.51588,16.002613 26.31221,42.582657 21.07812,66.332025 -4.5748,22.11478 -21.66142,40.55164 -42.625,48.44336 -21.755047,8.77946 -47.902944,4.57962 -66.205074,-9.94531 C 26.157965,126.96006 16.320616,99.402133 21.484375,74.432932 27.620534,44.17784 56.501789,20.44202 87.439453,20.298166 c 0.532359,-0.0085 1.06362,-0.03574 1.595703,-0.03125 z"
       style="fill:#000000;fill-opacity:1;stroke:none" />
    <path
       inkscape:connector-curvature="0"
       id="path4872"
       d="m 154.95836,7.5695692 c 2.16176,2.8e-5 4.02316,0.4640486 5.4728,1.469851 1.46679,0.9878438 2.3142,2.5796428 2.31421,4.3470068 -1e-5,1.04568 -0.27695,2.096579 -0.75055,3.127342 -0.44721,0.946994 -0.94297,1.7618 -1.50111,2.408054 -0.40868,0.451679 -0.83822,0.912347 -1.2822,1.344757 1.24551,0.699346 2.29864,1.581051 3.09604,2.689515 h 0.0313 c 0.004,0.0068 -0.004,0.05574 0,0.06255 0.94249,1.267999 1.40728,2.781399 1.40729,4.409553 -1e-5,3.007682 -1.24782,5.538731 -3.59641,7.224161 -2.25967,1.640894 -5.04155,2.523448 -8.22483,2.626967 0,0 -0.0263,-9.69e-4 -0.0313,0 -0.78577,-2e-6 -1.56071,-0.396721 -2.0953,-0.969476 -0.42275,-0.455245 -0.81311,-0.950112 -0.81311,-1.688765 0,-0.340264 0.0139,-0.680919 0.0938,-1.000749 l 0.25019,-0.875656 0.87565,-0.03127 c 2.74874,-0.09239 4.69085,-0.690577 5.84807,-1.594944 1.15724,-0.904367 1.68875,-2.102376 1.68875,-4.002999 -1e-5,-1.857387 -0.73731,-2.955924 -2.75203,-3.846631 -0.52304,-0.235353 -0.93066,-0.44794 -1.2822,-0.688015 -0.35154,-0.240075 -0.81976,-0.442114 -0.90692,-1.313484 l -0.0313,-0.406555 0.21892,-0.344007 c 0.29378,-0.456992 0.75951,-1.049038 1.50111,-1.938953 v -0.03127 c 0.71159,-0.826346 1.26982,-1.603555 1.65747,-2.314234 v -0.03127 c 0.36623,-0.636069 0.53163,-1.242628 0.53164,-1.938952 -1e-5,-0.620902 -0.15477,-0.968007 -0.56291,-1.344758 -0.35249,-0.325347 -0.91275,-0.594176 -1.93894,-0.594195 -0.17966,9e-6 -0.84726,0.110212 -1.78256,0.344008 -0.4938,0.123457 -0.88728,0.216002 -1.18838,0.281461 -0.30111,0.06546 -0.37655,0.125156 -0.78183,0.125093 -0.74388,1.17e-4 -1.02,-0.263496 -1.40729,-0.531648 l -0.0313,-0.03127 -0.0313,-0.03127 c -0.44274,-0.3689 -0.87565,-0.904696 -0.87565,-1.626218 0,-0.804561 0.5142,-1.3048676 0.96947,-1.6262183 0.45526,-0.3213497 0.98196,-0.5927109 1.65748,-0.8443825 1.39309,-0.5357633 2.81235,-0.81308 4.25314,-0.813109 z"
       style="fill:#ffffff;fill-opacity:1;stroke:none" />
  </g>
  <path
     inkscape:connector-curvature="0"
     style="fill:#000000;fill-opacity:1;stroke:none;stroke-width:0.9864884"
     d="m 118.15145,46.240546 c -6.10867,8.6e-5 -13.44234,1.782137 -22.027321,5.337201 -8.585073,3.555229 -13.385829,5.337278 -14.376371,5.3372 -0.165148,-0.921627 -0.246849,-2.512527 -0.2468,-4.751034 -4.9e-5,-2.896705 -4.116281,-4.349887 -12.371088,-4.349973 -3.79725,8.6e-5 -4.932757,0.934848 -5.92331,4.226569 -0.788816,2.662789 -0.661224,4.698003 -0.771266,7.126553 -0.165109,5.881455 -0.09253,5.264449 -0.09253,7.897822 0,0.04111 -6.9e-5,0.02356 0,0.0617 -0.0089,0.03253 -0.01914,0.04888 -0.03088,0.123404 l 0.1234,45.566732 c 0.0039,12.40324 0.464675,19.00429 2.437198,20.05306 0.990563,0.52669 0.783598,1.07977 6.231815,1.07977 5.613258,0 9.075832,-0.87973 10.396651,-2.59146 0.660346,-1.05336 0.987169,-2.09341 0.987218,-3.14678 0.16504,-1.05337 0.246761,-2.36885 0.2468,-3.94891 -3.9e-5,-1.71173 -3.9e-5,-2.83605 0,-3.36275 v -2.96168 L 82.241357,84.372226 V 71.538264 c 0.990543,-1.316659 2.81896,-2.387543 5.460559,-3.17764 1.32072,-0.394951 2.546343,-0.777251 3.702064,-1.172333 1.32072,-0.394951 2.904034,-0.723817 4.72014,-0.987229 1.981125,-0.394948 3.615243,-0.670383 4.93609,-0.802122 1.3207,-0.263277 3.14914,-0.538709 5.46056,-0.802123 2.31128,-0.394947 4.02716,-0.639528 5.18289,-0.771271 1.32071,-0.131602 3.23084,-0.322752 5.70736,-0.586167 2.64148,-0.263274 4.43907,-0.485274 5.4297,-0.617017 1.15562,-1.843339 1.75839,-4.527703 1.75848,-8.082928 -9e-5,-3.55507 -0.52118,-5.803699 -1.51167,-6.725491 -0.82557,-1.053291 -2.45973,-1.573308 -4.93609,-1.573395 z"
     id="path3021" />
  <text
     id="text4918"
     style="font-style:normal;font-variant:normal;font-weight:normal;font-stretch:normal;font-size:11.53746891px;line-height:0%;font-family:Dingbats;-inkscape-font-specification:Dingbats;letter-spacing:0px;word-spacing:0px;fill:#ffffff;fill-opacity:1;stroke:none;stroke-width:1.36824191"
     xml:space="preserve"
     transform="matrix(0,-0.98310234,1.0171881,0,0,0)"
     x="-129.97392"
     y="74.806381"><tspan
       style="font-style:normal;font-variant:normal;font-weight:normal;font-stretch:normal;font-family:Cagliostro;-inkscape-font-specification:Cagliostro;fill:#ffffff;fill-opacity:1;stroke-width:1.36824191"
       id="tspan4920">realraum.at</tspan></text>
</svg>
