<?xml version="1.0" encoding="UTF-8" standalone="no"?>
<!-- Created with Inkscape (http://www.inkscape.org/) -->

<svg
   xmlns:dc="http://purl.org/dc/elements/1.1/"
   xmlns:cc="http://creativecommons.org/ns#"
   xmlns:rdf="http://www.w3.org/1999/02/22-rdf-syntax-ns#"
   xmlns:svg="http://www.w3.org/2000/svg"
   xmlns="http://www.w3.org/2000/svg"
   xmlns:sodipodi="http://sodipodi.sourceforge.net/DTD/sodipodi-0.dtd"
   xmlns:inkscape="http://www.inkscape.org/namespaces/inkscape"
   version="1.0"
   width="50mm"
   height="50mm"
   id="svg2"
   sodipodi:version="0.32"
   inkscape:version="0.92.3 (2405546, 2018-03-11)"
   sodipodi:docname="sticker2.4-black.svg"
   inkscape:output_extension="org.inkscape.output.svg.inkscape"
   inkscape:export-filename="/home/equinox/realraum/git/logo/logo-aktuell.png"
   inkscape:export-xdpi="275.48813"
   inkscape:export-ydpi="275.48813"
   viewBox="0 0 177.16536 177.16535">
  <sodipodi:namedview
     inkscape:window-height="1172"
     inkscape:window-width="1600"
     inkscape:pageshadow="2"
     inkscape:pageopacity="0.0"
     guidetolerance="10.0"
     gridtolerance="10.0"
     objecttolerance="10.0"
     borderopacity="1.0"
     bordercolor="#666666"
     pagecolor="#ffffff"
     id="base"
     showgrid="false"
     inkscape:zoom="3.1331118"
     inkscape:cx="-29.67459"
     inkscape:cy="147.23897"
     inkscape:window-x="3520"
     inkscape:window-y="0"
     inkscape:current-layer="svg2"
     inkscape:document-units="mm"
     units="mm"
     showguides="true"
     inkscape:guide-bbox="true"
     inkscape:window-maximized="1"
     showborder="true"
     inkscape:showpageshadow="true"
     fit-margin-top="0"
     fit-margin-left="0"
     fit-margin-right="0"
     fit-margin-bottom="0"
     inkscape:pagecheckerboard="true">
    <inkscape:grid
       type="xygrid"
       id="grid4894"
       originx="-70.73004"
       originy="-3.8714927"
       spacingx="1"
       spacingy="1" />
  </sodipodi:namedview>
  <metadata
     id="metadata8">
    <rdf:RDF>
      <cc:Work
         rdf:about="">
        <dc:format>image/svg+xml</dc:format>
        <dc:type
           rdf:resource="http://purl.org/dc/dcmitype/StillImage" />
        <dc:title />
      </cc:Work>
    </rdf:RDF>
  </metadata>
  <defs
     id="defs4">
    <inkscape:perspective
       sodipodi:type="inkscape:persp3d"
       inkscape:vp_x="0 : 380.90847 : 1"
       inkscape:vp_y="0 : 999.99994 : 0"
       inkscape:vp_z="637.7953 : 380.90847 : 1"
       inkscape:persp3d-origin="318.89764 : 253.93899 : 1"
       id="perspective10" />
    <path
       id="path4916"
       d="m 236.6209,61.503968 c 1.33881,-0.40036 2.58122,-0.787896 3.75277,-1.18839 1.33881,-0.40036 2.94381,-0.73373 4.78479,-1.00075 2.00826,-0.400358 3.66476,-0.679565 5.0037,-0.813109 1.33879,-0.266883 3.19227,-0.546087 5.53535,-0.813109 2.34294,-0.400357 4.08232,-0.648288 5.25388,-0.781835 1.3388,-0.133404 3.27509,-0.327173 5.78553,-0.594195 2.67766,-0.26688 4.49987,-0.491921 5.50407,-0.625469"
       style="fill:none;fill-opacity:1;stroke:none"
       inkscape:connector-curvature="0"
       sodipodi:nodetypes="cccccccc" />
  </defs>
  <path
     inkscape:connector-curvature="0"
     id="path3379"
     d="M 87.439516,0.00121349 C 39.067081,0.61461349 -3.8962776e-5,40.083043 -3.8962776e-5,88.598973 -3.8962776e-5,137.4969 39.698592,177.16547 88.597721,177.16547 c 48.899139,0 88.564559,-39.66857 88.564559,-88.566497 0,-0.38203 0.007,-0.77537 0,-1.15625 V 17.639903 C 176.96825,7.9164735 169.05809,0.07446349 159.30483,0.00121349 H 88.597721 88.189518 c -0.245921,0 -0.503712,-0.003 -0.750002,0 z"
     style="fill:#ffffff;fill-opacity:1;stroke:none"
     sodipodi:nodetypes="csssccccsc" />
  <text
     xml:space="preserve"
     style="font-style:normal;font-weight:normal;font-size:11.79732609px;line-height:0%;font-family:sans-serif;letter-spacing:0px;word-spacing:0px;fill:#000000;fill-opacity:1;stroke:none;stroke-width:0.98311055"
     x="9.4639778"
     y="172.69664"
     id="text3529"><tspan
       sodipodi:role="line"
       id="tspan3531"
       x="9.4639778"
       y="172.69664"
       style="font-style:normal;font-variant:normal;font-weight:normal;font-stretch:normal;font-size:18.46465302px;line-height:1.25;font-family:'Trebuchet MS';-inkscape-font-specification:'Trebuchet MS';stroke-width:0.98311055"> </tspan></text>
  <text
     xml:space="preserve"
     style="font-style:normal;font-weight:normal;font-size:11.79732609px;line-height:0%;font-family:sans-serif;letter-spacing:0px;word-spacing:0px;fill:#000000;fill-opacity:1;stroke:none;stroke-width:0.98311055"
     x="20.149424"
     y="171.7319"
     id="text3537"><tspan
       sodipodi:role="line"
       id="tspan3539"
       x="20.149424"
       y="171.7319"
       style="font-size:27.52709389px;line-height:1.25;font-family:sans-serif;stroke-width:0.98311055"> </tspan></text>
  <g
     id="g3230"
     transform="matrix(0.98311052,0,0,0.98311052,1.4961143,1.4961146)">
    <path
       inkscape:connector-curvature="0"
       id="path4874"
       d="M 87.439453,0.00129293 C 39.067074,0.6146992 0,40.083078 0,88.598949 c 0,48.897881 39.698584,88.566411 88.597656,88.566411 48.899084,0 88.564464,-39.66853 88.564454,-88.566411 0,-0.382029 0.007,-0.775366 0,-1.15625 V 17.639964 C 176.96808,7.9165506 169.05793,0.0745432 159.30469,0.00129293 H 88.597656 88.189453 c -0.24592,0 -0.503712,-0.0031524 -0.75,0 z M 89.035156,20.266917 c 16.494814,0.139353 32.819814,6.497027 45.189454,17.386719 18.51588,16.002613 26.31221,42.582657 21.07812,66.332034 -4.5748,22.11478 -21.66142,40.55164 -42.625,48.44336 -21.755047,8.77946 -47.902944,4.57962 -66.205074,-9.94531 C 26.157965,126.96007 16.320616,99.402134 21.484375,74.432933 27.620534,44.177841 56.501789,20.442021 87.439453,20.298167 c 0.532359,-0.0085 1.06362,-0.03574 1.595703,-0.03125 z"
       style="fill:#000000;fill-opacity:1;stroke:none" />
    <path
       inkscape:connector-curvature="0"
       id="path4872"
       d="m 154.95836,7.569571 c 2.16176,2.8e-5 4.02316,0.4640486 5.4728,1.469851 1.46679,0.987844 2.3142,2.579642 2.31421,4.347006 -1e-5,1.04568 -0.27695,2.096579 -0.75055,3.127342 -0.44721,0.946994 -0.94297,1.7618 -1.50111,2.408054 -0.40868,0.451679 -0.83822,0.912347 -1.2822,1.344757 1.24551,0.699346 2.29864,1.581051 3.09604,2.689515 h 0.0313 c 0.004,0.0068 -0.004,0.05574 0,0.06255 0.94249,1.267999 1.40728,2.781399 1.40729,4.409553 -1e-5,3.007682 -1.24782,5.538731 -3.59641,7.224161 -2.25967,1.640894 -5.04155,2.523448 -8.22483,2.626967 0,0 -0.0263,-9.69e-4 -0.0313,0 -0.78577,-2e-6 -1.56071,-0.396721 -2.0953,-0.969476 -0.42275,-0.455245 -0.81311,-0.950112 -0.81311,-1.688765 0,-0.340264 0.0139,-0.680919 0.0938,-1.000749 l 0.25019,-0.875656 0.87565,-0.03127 c 2.74874,-0.09239 4.69085,-0.690577 5.84807,-1.594944 1.15724,-0.904367 1.68875,-2.102376 1.68875,-4.002999 -1e-5,-1.857387 -0.73731,-2.955924 -2.75203,-3.846631 -0.52304,-0.235353 -0.93066,-0.44794 -1.2822,-0.688015 -0.35154,-0.240075 -0.81976,-0.442114 -0.90692,-1.313484 l -0.0313,-0.406555 0.21892,-0.344007 c 0.29378,-0.456992 0.75951,-1.049038 1.50111,-1.938953 v -0.03127 c 0.71159,-0.826346 1.26982,-1.603555 1.65747,-2.314234 v -0.03127 c 0.36623,-0.636069 0.53163,-1.242628 0.53164,-1.938952 -1e-5,-0.620902 -0.15477,-0.968007 -0.56291,-1.344758 -0.35249,-0.325347 -0.91275,-0.594176 -1.93894,-0.594195 -0.17966,9e-6 -0.84726,0.110212 -1.78256,0.344008 -0.4938,0.123457 -0.88728,0.216002 -1.18838,0.281461 -0.30111,0.06546 -0.37655,0.125156 -0.78183,0.125093 -0.74388,1.17e-4 -1.02,-0.263496 -1.40729,-0.531648 l -0.0313,-0.03127 -0.0313,-0.03127 c -0.44274,-0.3689 -0.87565,-0.904696 -0.87565,-1.626218 0,-0.80456 0.5142,-1.3048668 0.96947,-1.6262175 0.45526,-0.3213497 0.98196,-0.5927109 1.65748,-0.8443825 1.39309,-0.5357633 2.81235,-0.81308 4.25314,-0.813109 z"
       style="fill:#ffffff;fill-opacity:1;stroke:none" />
  </g>
  <path
     inkscape:connector-curvature="0"
     style="fill:#000000;fill-opacity:1;stroke:#000000;stroke-width:1.77165354;stroke-opacity:1;stroke-miterlimit:4;stroke-dasharray:none"
     d="m 118.0502,46.385534 c -6.08775,8.6e-5 -13.39631,1.776035 -21.951894,5.318925 -8.555677,3.543056 -13.339994,5.319003 -14.327145,5.318925 -0.164582,-0.918471 -0.246004,-2.503923 -0.245954,-4.734765 -5e-5,-2.886786 -4.102186,-4.334993 -12.328727,-4.335078 -3.784248,8.5e-5 -4.915868,0.931647 -5.903028,4.212097 -0.786115,2.653671 -0.65896,4.681915 -0.768626,7.102149 -0.164543,5.861317 -0.09222,5.246424 -0.09222,7.870779 0,0.04097 -6.8e-5,0.02348 0,0.06149 -0.0088,0.03242 -0.01907,0.04871 -0.03077,0.122981 l 0.122977,45.410703 c 0.0039,12.36077 0.463085,18.93921 2.428854,19.98441 0.98717,0.52488 0.780914,1.07607 6.210476,1.07607 5.594036,0 9.044754,-0.87672 10.361051,-2.58259 0.658084,-1.04976 0.983789,-2.08624 0.983838,-3.13601 0.164474,-1.04976 0.245915,-2.36073 0.245954,-3.93539 -3.9e-5,-1.70586 -3.9e-5,-2.82633 0,-3.35122 v -2.95155 L 82.26307,84.386645 V 71.596628 c 0.987152,-1.312149 2.809308,-2.379367 5.441861,-3.166759 1.316198,-0.393598 2.537625,-0.774589 3.689388,-1.168319 1.316198,-0.393598 2.89409,-0.721337 4.703977,-0.983848 1.974342,-0.393596 3.602864,-0.668087 4.919184,-0.799376 1.31618,-0.262375 3.13836,-0.536863 5.44186,-0.799376 2.30337,-0.393595 4.01338,-0.637338 5.16515,-0.76863 1.31619,-0.131151 3.21977,-0.321647 5.68781,-0.584159 2.63244,-0.262373 4.42387,-0.483613 5.41111,-0.614905 1.15167,-1.837027 1.75238,-4.512199 1.75247,-8.055251 -9e-5,-3.542896 -0.5194,-5.783826 -1.5065,-6.702461 -0.82275,-1.049685 -2.45131,-1.567921 -4.91919,-1.568007 z"
     id="path3021" />
  <text
     id="text4918"
     style="font-style:normal;font-variant:normal;font-weight:normal;font-stretch:normal;font-size:9.03431702px;line-height:0%;font-family:Dingbats;-inkscape-font-specification:Dingbats;letter-spacing:0px;word-spacing:0px;fill:#ffffff;fill-opacity:1;stroke:none;stroke-width:1.07139015"
     xml:space="preserve"
     transform="matrix(0.94676269,-0.26482187,0.27400367,0.97958849,0,0)"
     x="57.23637"
     y="84.613495"><tspan
       style="font-style:normal;font-variant:normal;font-weight:normal;font-stretch:normal;font-family:Cagliostro;-inkscape-font-specification:Cagliostro;fill:#ffffff;fill-opacity:1;stroke-width:1.07139015"
       id="tspan4920">realraum.at</tspan></text>
</svg>
