<?xml version="1.0" encoding="UTF-8" standalone="no"?>
<!-- Created with Inkscape (http://www.inkscape.org/) -->

<svg
   xmlns:dc="http://purl.org/dc/elements/1.1/"
   xmlns:cc="http://creativecommons.org/ns#"
   xmlns:rdf="http://www.w3.org/1999/02/22-rdf-syntax-ns#"
   xmlns:svg="http://www.w3.org/2000/svg"
   xmlns="http://www.w3.org/2000/svg"
   xmlns:sodipodi="http://sodipodi.sourceforge.net/DTD/sodipodi-0.dtd"
   xmlns:inkscape="http://www.inkscape.org/namespaces/inkscape"
   width="85mm"
   height="55mm"
   viewBox="0 0 301.1811 194.88188"
   id="svg2"
   version="1.1"
   inkscape:version="0.91 r13725"
   sodipodi:docname="visitenkarte.svg"
   inkscape:export-filename="/home/rdorfer/realraum/logo/visitenkarte.png"
   inkscape:export-xdpi="448.23532"
   inkscape:export-ydpi="448.23532">
  <defs
     id="defs4">
    <inkscape:perspective
       id="perspective10"
       inkscape:persp3d-origin="318.89764 : 253.93899 : 1"
       inkscape:vp_z="637.79529 : 380.90848 : 1"
       inkscape:vp_y="0 : 1000 : 0"
       inkscape:vp_x="0 : 380.90848 : 1"
       sodipodi:type="inkscape:persp3d" />
  </defs>
  <sodipodi:namedview
     id="base"
     pagecolor="#ffffff"
     bordercolor="#666666"
     borderopacity="1.0"
     inkscape:pageopacity="0.0"
     inkscape:pageshadow="2"
     inkscape:zoom="1.979899"
     inkscape:cx="39.486233"
     inkscape:cy="88.950786"
     inkscape:document-units="px"
     inkscape:current-layer="layer1"
     showgrid="false"
     units="mm"
     inkscape:window-width="1920"
     inkscape:window-height="1022"
     inkscape:window-x="0"
     inkscape:window-y="0"
     inkscape:window-maximized="1"
     inkscape:snap-page="false" />
  <metadata
     id="metadata7">
    <rdf:RDF>
      <cc:Work
         rdf:about="">
        <dc:format>image/svg+xml</dc:format>
        <dc:type
           rdf:resource="http://purl.org/dc/dcmitype/StillImage" />
        <dc:title />
      </cc:Work>
    </rdf:RDF>
  </metadata>
  <g
     inkscape:label="Ebene 1"
     inkscape:groupmode="layer"
     id="layer1"
     transform="translate(0,-857.48032)">
    <path
       style="fill:#761407;fill-opacity:1;stroke:none"
       d="m 248.05965,871.40838 c -20.10214,0.25491 -36.33737,16.6568 -36.33737,36.81857 0,20.32053 16.49721,36.80559 36.81823,36.80559 20.32103,0 36.80524,-16.48506 36.80524,-36.80559 0,-0.15876 0.003,-0.32257 0,-0.48086 l 0,-29.00779 c -0.0806,-4.04077 -3.36767,-7.29948 -7.42083,-7.32992 l -29.38441,0 -0.16895,0 c -0.1022,0 -0.20956,-10e-4 -0.31191,0 z m 28.0588,3.14511 c 0.89836,10e-6 1.6719,0.19284 2.27433,0.61082 0.60956,0.41052 0.96172,1.07203 0.96172,1.80649 0,0.43456 -0.11509,0.87128 -0.31191,1.29963 -0.18584,0.39355 -0.39187,0.73216 -0.62381,1.00072 -0.16984,0.1877 -0.34834,0.37914 -0.53285,0.55884 0.5176,0.29063 0.95525,0.65704 1.28662,1.11769 l 0.013,0 c 0.002,0.003 -0.002,0.0232 0,0.026 0.39168,0.52694 0.58483,1.15587 0.58483,1.83248 0,1.24991 -0.51855,2.30174 -1.49456,3.00215 -0.93905,0.68191 -2.09512,1.04867 -3.418,1.09169 0,0 -0.0109,-4e-4 -0.013,0 -0.32654,0 -0.64858,-0.16486 -0.87074,-0.40288 -0.17569,-0.18919 -0.33791,-0.39484 -0.33791,-0.70181 0,-0.1414 0.006,-0.28297 0.039,-0.41588 l 0.10397,-0.36389 0.3639,-0.013 c 1.14229,-0.0384 1.94938,-0.28698 2.43028,-0.66281 0.48092,-0.37583 0.7018,-0.87369 0.7018,-1.66353 0,-0.77188 -0.30641,-1.2284 -1.14366,-1.59855 -0.21736,-0.0978 -0.38676,-0.18615 -0.53285,-0.28592 -0.14609,-0.0998 -0.34067,-0.18373 -0.37689,-0.54584 l -0.013,-0.16896 0.091,-0.14295 c 0.12209,-0.18992 0.31563,-0.43595 0.62382,-0.80578 l 0,-0.013 c 0.29571,-0.34341 0.5277,-0.66639 0.68879,-0.96173 l 0,-0.013 c 0.1522,-0.26434 0.22093,-0.5164 0.22094,-0.80578 -1e-5,-0.25802 -0.0643,-0.40227 -0.23393,-0.55884 -0.14648,-0.1352 -0.37931,-0.24692 -0.80577,-0.24693 -0.0747,10e-6 -0.35209,0.0458 -0.74078,0.14296 -0.20521,0.0513 -0.36872,0.0898 -0.49385,0.11697 -0.12514,0.0272 -0.15649,0.052 -0.32491,0.052 -0.30913,5e-5 -0.42388,-0.1095 -0.58483,-0.22093 l -0.013,-0.013 -0.013,-0.013 c -0.18399,-0.15331 -0.36389,-0.37597 -0.36389,-0.67581 0,-0.33435 0.21368,-0.54227 0.40288,-0.67581 0.18919,-0.13354 0.40808,-0.24631 0.6888,-0.3509 0.57893,-0.22265 1.16873,-0.33789 1.76748,-0.33791 z m -27.39599,5.2765 c 6.85476,0.0579 13.63905,2.70052 18.77951,7.22596 7.69466,6.65022 10.93457,17.69565 8.75944,27.5652 -1.90116,9.19025 -9.00197,16.85173 -17.71382,20.1313 -9.04077,3.64848 -19.90713,1.9033 -27.51296,-4.13283 -8.44219,-6.45118 -12.52987,-17.90353 -10.38396,-28.28 2.55001,-12.57313 14.55219,-22.43685 27.40898,-22.49663 0.22124,-0.004 0.44169,-0.0149 0.66281,-0.013 z m 12.26841,10.55302 c -2.57335,3e-5 -5.66275,0.75074 -9.27929,2.24836 -3.61657,1.49768 -5.63895,2.2484 -6.05622,2.24836 -0.0696,-0.38824 -0.10399,-1.05843 -0.10397,-2.00143 -2e-5,-1.22027 -1.73404,-1.83245 -5.21148,-1.83248 -1.59964,3e-5 -2.07798,0.39381 -2.49527,1.78049 -0.3323,1.12174 -0.27855,1.9791 -0.3249,3.00215 -0.0696,2.47764 -0.039,2.21772 -0.039,3.32706 0,0.0173 -3e-5,0.01 0,0.026 -0.004,0.0137 -0.008,0.0206 -0.013,0.052 l 0.052,19.19557 c 0.002,5.22502 0.19575,8.00579 1.0267,8.44761 0.41728,0.22187 0.33009,0.45487 2.62523,0.45487 2.36465,0 3.82331,-0.3706 4.37972,-1.09169 0.27818,-0.44374 0.41586,-0.88188 0.41588,-1.32563 0.0695,-0.44374 0.10395,-0.9979 0.10397,-1.66353 -2e-5,-0.72108 -2e-5,-1.19472 0,-1.41659 l 0,-1.24765 -0.20794,-14.14 0,-5.40647 c 0.41727,-0.55466 1.18752,-1.00578 2.30032,-1.33862 0.55638,-0.16638 1.07268,-0.32743 1.55955,-0.49386 0.55637,-0.16638 1.22336,-0.30492 1.98842,-0.41588 0.83457,-0.16638 1.52296,-0.28241 2.07939,-0.33791 0.55636,-0.11091 1.32661,-0.22694 2.30032,-0.3379 0.97366,-0.16638 1.6965,-0.26941 2.18336,-0.32491 0.55637,-0.0554 1.36104,-0.13596 2.4043,-0.24693 1.11276,-0.11091 1.87002,-0.20443 2.28733,-0.25993 0.48682,-0.77653 0.74075,-1.90735 0.74079,-3.40503 -4e-5,-1.49762 -0.21956,-2.44488 -0.63682,-2.8332 -0.34778,-0.44371 -1.03619,-0.66278 -2.07939,-0.66281 z"
       id="path3021"
       inkscape:connector-curvature="0" />
    <text
       xml:space="preserve"
       style="font-style:normal;font-weight:normal;font-size:7.80519629px;line-height:125%;font-family:Sans;letter-spacing:0px;word-spacing:0px;fill:#000000;fill-opacity:1;stroke:none"
       x="45.193985"
       y="939.07941"
       id="text3529"
       sodipodi:linespacing="125%"><tspan
         sodipodi:role="line"
         id="tspan3531"
         x="45.193985"
         y="939.07941"
         style="font-style:normal;font-variant:normal;font-weight:normal;font-stretch:normal;font-family:'Trebuchet MS';-inkscape-font-specification:'Trebuchet MS'" /></text>
    <text
       xml:space="preserve"
       style="font-style:normal;font-weight:normal;font-size:11.63598156px;line-height:125%;font-family:Sans;letter-spacing:0px;word-spacing:0px;fill:#000000;fill-opacity:1;stroke:none"
       x="49.710831"
       y="938.67163"
       id="text3537"
       sodipodi:linespacing="125%"><tspan
         sodipodi:role="line"
         id="tspan3539"
         x="49.710831"
         y="938.67163" /></text>
    <text
       xml:space="preserve"
       style="font-style:normal;font-variant:normal;font-weight:normal;font-stretch:normal;font-size:17.76538277px;line-height:125%;font-family:Cagliostro;-inkscape-font-specification:Cagliostro;letter-spacing:0px;word-spacing:0px;fill:#000000;fill-opacity:1;stroke:none;stroke-width:1px;stroke-linecap:butt;stroke-linejoin:miter;stroke-opacity:1"
       x="37.684605"
       y="954.34106"
       id="text3373"
       sodipodi:linespacing="125%"><tspan
         sodipodi:role="line"
         id="tspan3375"
         x="37.684605"
         y="954.34106"
         style="font-style:normal;font-variant:normal;font-weight:normal;font-stretch:normal;font-size:7.21718693px;font-family:Cagliostro;-inkscape-font-specification:Cagliostro" /><tspan
         sodipodi:role="line"
         x="37.684605"
         y="967.44238"
         id="tspan3381"
         style="font-style:normal;font-variant:normal;font-weight:normal;font-stretch:normal;font-size:11.25px;font-family:'TeX Gyre Heros';-inkscape-font-specification:'TeX Gyre Heros';text-align:start;text-anchor:start">Brockmanngasse 15</tspan><tspan
         sodipodi:role="line"
         x="37.684605"
         y="981.50488"
         id="tspan3389"
         style="font-style:normal;font-variant:normal;font-weight:normal;font-stretch:normal;font-size:11.25px;font-family:'TeX Gyre Heros';-inkscape-font-specification:'TeX Gyre Heros';text-align:start;text-anchor:start">8010 Graz</tspan></text>
    <text
       xml:space="preserve"
       style="font-style:normal;font-weight:normal;font-size:36.50628281px;font-family:'Bitstream Vera Sans';fill:#000000;fill-opacity:1;stroke:none;stroke-width:8.08582687;stroke-miterlimit:4;stroke-dasharray:none"
       x="110.72934"
       y="913.69617"
       id="text2849"><tspan
         sodipodi:role="line"
         id="tspan2851"
         x="110.72934"
         y="913.69617"
         style="font-style:normal;font-variant:normal;font-weight:normal;font-stretch:normal;font-size:11.25px;font-family:'TeX Gyre Heros';-inkscape-font-specification:'TeX Gyre Heros';letter-spacing:1.25395417px;word-spacing:0px;stroke:#000000;stroke-width:1.55034435;stroke-miterlimit:4;stroke-dasharray:none;stroke-opacity:1" /></text>
    <text
       xml:space="preserve"
       style="font-style:normal;font-weight:normal;font-size:28.20767403px;line-height:150%;font-family:Sans;text-align:end;letter-spacing:0px;word-spacing:0px;text-anchor:end;fill:#761407;fill-opacity:1;stroke:none;stroke-width:1px;stroke-linecap:butt;stroke-linejoin:miter;stroke-opacity:1"
       x="285.54062"
       y="970.76581"
       id="text3405"
       sodipodi:linespacing="150%"><tspan
         sodipodi:role="line"
         id="tspan3407"
         x="285.54062"
         y="970.76581"
         style="font-style:normal;font-variant:normal;font-weight:normal;font-stretch:normal;font-size:11.25px;line-height:150%;font-family:'TeX Gyre Heros';-inkscape-font-specification:'TeX Gyre Heros';text-align:end;text-anchor:end;fill:#761407;fill-opacity:1">Hackerspace</tspan><tspan
         sodipodi:role="line"
         x="285.54062"
         y="987.64081"
         style="font-style:normal;font-variant:normal;font-weight:normal;font-stretch:normal;font-size:11.25px;line-height:150%;font-family:'TeX Gyre Heros';-inkscape-font-specification:'TeX Gyre Heros';text-align:end;text-anchor:end;fill:#761407;fill-opacity:1"
         id="tspan4171">Makerspace</tspan><tspan
         sodipodi:role="line"
         x="285.54062"
         y="1004.5158"
         style="font-style:normal;font-variant:normal;font-weight:normal;font-stretch:normal;font-size:11.25px;line-height:150%;font-family:'TeX Gyre Heros';-inkscape-font-specification:'TeX Gyre Heros';text-align:end;text-anchor:end;fill:#761407;fill-opacity:1"
         id="tspan4173">Chaostreff</tspan><tspan
         sodipodi:role="line"
         x="285.54062"
         y="1021.3908"
         style="font-style:normal;font-variant:normal;font-weight:normal;font-stretch:normal;font-size:11.25px;line-height:150%;font-family:'TeX Gyre Heros';-inkscape-font-specification:'TeX Gyre Heros';text-align:end;text-anchor:end;fill:#761407;fill-opacity:1"
         id="tspan4175">Open Biolab</tspan><tspan
         sodipodi:role="line"
         x="285.54062"
         y="1038.2659"
         style="font-style:normal;font-variant:normal;font-weight:normal;font-stretch:normal;font-size:11.25px;line-height:150%;font-family:'TeX Gyre Heros';-inkscape-font-specification:'TeX Gyre Heros';text-align:end;text-anchor:end;fill:#761407;fill-opacity:1"
         id="tspan4177">Funkbude</tspan></text>
    <text
       xml:space="preserve"
       style="font-style:normal;font-variant:normal;font-weight:normal;font-stretch:normal;font-size:17.76538277px;line-height:125%;font-family:Cagliostro;-inkscape-font-specification:Cagliostro;letter-spacing:0px;word-spacing:0px;fill:#000000;fill-opacity:1;stroke:none;stroke-width:1px;stroke-linecap:butt;stroke-linejoin:miter;stroke-opacity:1"
       x="37.313354"
       y="1022.8807"
       id="text3373-4"
       sodipodi:linespacing="125%"><tspan
         sodipodi:role="line"
         id="tspan3375-6"
         x="37.313354"
         y="1022.8807"
         style="font-style:normal;font-variant:normal;font-weight:normal;font-stretch:normal;font-size:7.21718693px;font-family:Cagliostro;-inkscape-font-specification:Cagliostro" /><tspan
         sodipodi:role="line"
         x="37.313354"
         y="1035.9821"
         id="tspan3383-1"
         style="font-style:normal;font-variant:normal;font-weight:normal;font-stretch:normal;font-size:11.25px;font-family:'TeX Gyre Heros';-inkscape-font-specification:'TeX Gyre Heros';text-align:start;text-anchor:start">https://realraum.at</tspan><tspan
         sodipodi:role="line"
         x="37.313354"
         y="1050.0446"
         id="tspan3389-7"
         style="font-style:normal;font-variant:normal;font-weight:normal;font-stretch:normal;font-size:10px;font-family:Cagliostro;-inkscape-font-specification:Cagliostro" /></text>
    <text
       xml:space="preserve"
       style="font-style:normal;font-variant:normal;font-weight:normal;font-stretch:normal;font-size:17.76538277px;line-height:125%;font-family:Cagliostro;-inkscape-font-specification:Cagliostro;letter-spacing:0px;word-spacing:0px;fill:#000000;fill-opacity:1;stroke:none;stroke-width:1px;stroke-linecap:butt;stroke-linejoin:miter;stroke-opacity:1"
       x="37.313354"
       y="995.01215"
       id="text3373-1"
       sodipodi:linespacing="125%"><tspan
         sodipodi:role="line"
         id="tspan3375-8"
         x="37.313354"
         y="995.01215"
         style="font-style:normal;font-variant:normal;font-weight:normal;font-stretch:normal;font-size:7.21718693px;font-family:Cagliostro;-inkscape-font-specification:Cagliostro" /><tspan
         sodipodi:role="line"
         x="37.313354"
         y="1008.1135"
         id="tspan3383-6"
         style="font-style:normal;font-variant:normal;font-weight:normal;font-stretch:normal;font-size:11.25px;font-family:'TeX Gyre Heros';-inkscape-font-specification:'TeX Gyre Heros';text-align:start;text-anchor:start">realraum@realraum.at</tspan><tspan
         sodipodi:role="line"
         x="37.313354"
         y="1022.176"
         id="tspan3389-6"
         style="font-style:normal;font-variant:normal;font-weight:normal;font-stretch:normal;font-size:10px;font-family:Cagliostro;-inkscape-font-specification:Cagliostro" /></text>
    <text
       xml:space="preserve"
       style="font-style:normal;font-weight:normal;font-size:40px;line-height:125%;font-family:Sans;letter-spacing:0px;word-spacing:0px;fill:#000000;fill-opacity:1;stroke:none;stroke-width:1px;stroke-linecap:butt;stroke-linejoin:miter;stroke-opacity:1"
       x="15.834015"
       y="968.88556"
       id="text4158"
       sodipodi:linespacing="125%"><tspan
         sodipodi:role="line"
         id="tspan4160"
         x="15.834015"
         y="968.88556"
         style="font-style:normal;font-variant:normal;font-weight:normal;font-stretch:normal;font-size:11.25px;font-family:FontAwesome;-inkscape-font-specification:FontAwesome"></tspan></text>
    <text
       xml:space="preserve"
       style="font-style:normal;font-weight:normal;font-size:40px;line-height:125%;font-family:Sans;letter-spacing:0px;word-spacing:0px;fill:#000000;fill-opacity:1;stroke:none;stroke-width:1px;stroke-linecap:butt;stroke-linejoin:miter;stroke-opacity:1"
       x="17.441158"
       y="1007.8129"
       id="text4162"
       sodipodi:linespacing="125%"><tspan
         sodipodi:role="line"
         id="tspan4164"
         x="17.441158"
         y="1007.8129"
         style="font-style:normal;font-variant:normal;font-weight:normal;font-stretch:normal;font-size:11.25px;font-family:FontAwesome;-inkscape-font-specification:FontAwesome"></tspan></text>
    <text
       xml:space="preserve"
       style="font-style:normal;font-weight:normal;font-size:40px;line-height:125%;font-family:Sans;letter-spacing:0px;word-spacing:0px;fill:#000000;fill-opacity:1;stroke:none;stroke-width:1px;stroke-linecap:butt;stroke-linejoin:miter;stroke-opacity:1"
       x="17.441158"
       y="1037.4237"
       id="text4166"
       sodipodi:linespacing="125%"><tspan
         sodipodi:role="line"
         id="tspan4168"
         x="17.441158"
         y="1037.4237"
         style="font-style:normal;font-variant:normal;font-weight:normal;font-stretch:normal;font-size:11.25px;font-family:FontAwesome;-inkscape-font-specification:FontAwesome"></tspan></text>
    <flowRoot
       xml:space="preserve"
       id="flowRoot3376"
       style="fill:black;stroke:none;stroke-opacity:1;stroke-width:1px;stroke-linejoin:miter;stroke-linecap:butt;fill-opacity:1;font-family:Sans;font-style:normal;font-weight:normal;font-size:40px;line-height:125%;letter-spacing:0px;word-spacing:0px"><flowRegion
         id="flowRegion3378"><rect
           id="rect3380"
           width="304.28571"
           height="101.78571"
           x="-5.7142859"
           y="-14.046681" /></flowRegion><flowPara
         id="flowPara3382" /></flowRoot>    <g
       id="g4198"
       transform="translate(-3.1659855,6.6116703)">
      <text
         sodipodi:linespacing="125%"
         id="text3372"
         y="897.67847"
         x="39.516838"
         style="font-style:normal;font-weight:normal;font-size:40px;line-height:125%;font-family:Sans;letter-spacing:0px;word-spacing:0px;fill:#761407;fill-opacity:1;stroke:none;stroke-width:1px;stroke-linecap:butt;stroke-linejoin:miter;stroke-opacity:1"
         xml:space="preserve"><tspan
           style="font-style:normal;font-variant:normal;font-weight:normal;font-stretch:normal;font-size:25px;font-family:'TeX Gyre Heros';-inkscape-font-specification:'TeX Gyre Heros';fill:#761407;fill-opacity:1"
           y="897.67847"
           x="39.516838"
           id="tspan3374"
           sodipodi:role="line">realraum</tspan></text>
      <text
         sodipodi:linespacing="125%"
         id="text4184"
         y="912.71936"
         x="41.211296"
         style="font-style:normal;font-weight:normal;font-size:10px;line-height:125%;font-family:Sans;letter-spacing:0px;word-spacing:0px;fill:#000000;fill-opacity:1;stroke:none;stroke-width:1px;stroke-linecap:butt;stroke-linejoin:miter;stroke-opacity:1"
         xml:space="preserve"><tspan
           id="tspan4192"
           style="font-size:8.75px"
           y="912.71936"
           x="41.211296"
           sodipodi:role="line">Verein für Technik in Kultur</tspan><tspan
           id="tspan4196"
           style="font-size:8.75px"
           y="923.65686"
           x="41.211296"
           sodipodi:role="line">und Gesellschaft</tspan></text>
    </g>
  </g>
</svg>
