<?xml version="1.0" encoding="UTF-8" standalone="no"?>
<!-- Created with Inkscape (http://www.inkscape.org/) -->

<svg
   xmlns:dc="http://purl.org/dc/elements/1.1/"
   xmlns:cc="http://creativecommons.org/ns#"
   xmlns:rdf="http://www.w3.org/1999/02/22-rdf-syntax-ns#"
   xmlns:svg="http://www.w3.org/2000/svg"
   xmlns="http://www.w3.org/2000/svg"
   xmlns:sodipodi="http://sodipodi.sourceforge.net/DTD/sodipodi-0.dtd"
   xmlns:inkscape="http://www.inkscape.org/namespaces/inkscape"
   version="1.0"
   width="1679.5542"
   height="234.78149"
   id="svg2"
   sodipodi:version="0.32"
   inkscape:version="0.91 r13725"
   sodipodi:docname="made-in-realraum.svg"
   inkscape:output_extension="org.inkscape.output.svg.inkscape"
   inkscape:export-filename="/home/equinox/realraum/git/logo/logo-aktuell.png"
   inkscape:export-xdpi="275.48813"
   inkscape:export-ydpi="275.48813">
  <sodipodi:namedview
     inkscape:window-height="1034"
     inkscape:window-width="1916"
     inkscape:pageshadow="2"
     inkscape:pageopacity="0.0"
     guidetolerance="10.0"
     gridtolerance="10.0"
     objecttolerance="10.0"
     borderopacity="1.0"
     bordercolor="#666666"
     pagecolor="#ffffff"
     id="base"
     showgrid="false"
     inkscape:zoom="0.81986042"
     inkscape:cx="839.77709"
     inkscape:cy="117.39075"
     inkscape:window-x="0"
     inkscape:window-y="28"
     inkscape:current-layer="svg2"
     inkscape:document-units="mm"
     units="mm"
     showguides="true"
     inkscape:guide-bbox="true"
     inkscape:window-maximized="0"
     showborder="false"
     inkscape:showpageshadow="false"
     fit-margin-top="0"
     fit-margin-left="0"
     fit-margin-right="0"
     fit-margin-bottom="0" />
  <metadata
     id="metadata8">
    <rdf:RDF>
      <cc:Work
         rdf:about="">
        <dc:format>image/svg+xml</dc:format>
        <dc:type
           rdf:resource="http://purl.org/dc/dcmitype/StillImage" />
        <dc:title></dc:title>
      </cc:Work>
    </rdf:RDF>
  </metadata>
  <defs
     id="defs4">
    <inkscape:perspective
       sodipodi:type="inkscape:persp3d"
       inkscape:vp_x="0 : 380.90848 : 1"
       inkscape:vp_y="0 : 1000 : 0"
       inkscape:vp_z="637.79529 : 380.90848 : 1"
       inkscape:persp3d-origin="318.89764 : 253.93899 : 1"
       id="perspective10" />
  </defs>
  <path
     style="fill:#000000;fill-opacity:1;stroke:none"
     d="M 1560.6468,0.00186667 C 1496.5433,0.81476067 1444.7709,53.118638 1444.7709,117.4124 c 0,64.80002 52.6078,117.3691 117.4093,117.3691 64.8017,0 117.3682,-52.56908 117.3682,-117.3691 0,-0.50627 0.013,-1.02867 0,-1.53343 l 0,-92.502748 C 1679.2911,10.490644 1668.8091,0.09893967 1655.8841,0.00186667 l -93.7039,0 -0.5387,0 c -0.3258,0 -0.6683,-0.0042 -0.9947,0 z m 89.4766,10.02942233 c 2.8648,3.7e-5 5.3316,0.614963 7.2526,1.947863 1.9438,1.309102 3.0668,3.418571 3.0668,5.760702 0,1.385747 -0.367,2.77841 -0.9946,4.144388 -0.5926,1.254967 -1.2497,2.334757 -1.9893,3.19118 -0.5416,0.59857 -1.1108,1.209053 -1.6991,1.782087 1.6505,0.926781 3.0461,2.095227 4.1028,3.564175 l 0.041,0 c 0,0.009 0,0.07387 0,0.08289 1.249,1.680367 1.865,3.685941 1.865,5.843589 0,3.985814 -1.6536,7.339988 -4.766,9.573539 -2.9946,2.174529 -6.6812,3.344108 -10.8996,3.48128 0,0 -0.035,-0.0013 -0.041,0 -1.0414,0 -2.0683,-0.525738 -2.7767,-1.284752 -0.5603,-0.603303 -1.0776,-1.259102 -1.0776,-2.237973 0,-0.450922 0.019,-0.902362 0.1246,-1.326204 l 0.3314,-1.160429 1.1605,-0.04144 c 3.6426,-0.122437 6.2163,-0.915161 7.75,-2.113638 1.5335,-1.198477 2.2379,-2.786092 2.2379,-5.304819 0,-2.461429 -0.9771,-3.917223 -3.647,-5.097598 -0.6932,-0.311892 -1.2334,-0.593615 -1.6992,-0.911765 -0.4659,-0.31815 -1.0864,-0.585894 -1.2018,-1.740643 l -0.041,-0.538772 0.2901,-0.455882 c 0.3893,-0.60561 1.0065,-1.390196 1.9893,-2.569522 l 0,-0.04144 c 0.943,-1.095083 1.6827,-2.125049 2.1965,-3.066849 l 0,-0.04144 c 0.4853,-0.842926 0.7045,-1.646744 0.7045,-2.569521 0,-0.822826 -0.2052,-1.282813 -0.746,-1.782088 -0.4671,-0.431154 -1.2096,-0.787409 -2.5694,-0.787434 -0.2382,1.2e-5 -1.1229,0.146054 -2.3623,0.455883 -0.6544,0.163607 -1.1759,0.286249 -1.5749,0.372996 -0.399,0.08675 -0.499,0.165858 -1.0361,0.165774 -0.9858,1.55e-4 -1.3517,-0.349188 -1.8649,-0.704546 l -0.041,-0.04144 -0.041,-0.04144 c -0.5867,-0.488871 -1.1605,-1.198914 -1.1605,-2.155082 0,-1.066214 0.6814,-1.729226 1.2848,-2.155083 0.6034,-0.425856 1.3014,-0.785467 2.1965,-1.118985 1.8462,-0.71 3.7269,-1.077503 5.6363,-1.077542 z m -87.3629,16.82622 c 21.8591,0.184672 43.4935,8.611663 59.8858,23.0428 24.5375,21.20685 34.8692,56.429561 27.9329,87.902491 -6.0625,29.30675 -28.7063,53.73839 -56.4874,64.19658 -28.8301,11.63464 -63.4817,6.06944 -87.736,-13.17916 -26.9212,-20.57211 -39.9564,-57.09244 -33.1133,-90.1819 8.1318,-40.094374 46.4055,-71.548729 87.4043,-71.739366 0.7056,-0.01126 1.4086,-0.04739 2.1137,-0.04144 z m 39.1227,33.652441 c -8.2061,1.19e-4 -18.0579,2.39406 -29.5907,7.169789 -11.5329,4.775968 -17.982,7.169896 -19.3127,7.16979 -0.2218,-1.238078 -0.3315,-3.375233 -0.3315,-6.382349 0,-3.891324 -5.5296,-5.843479 -16.6189,-5.843598 -5.1011,1.19e-4 -6.6264,1.255849 -7.9571,5.677814 -1.0597,3.577089 -0.8882,6.311119 -1.0361,9.57355 -0.2217,7.900919 -0.1246,7.072059 -0.1246,10.609629 0,0.0553 -10e-5,0.0317 0,0.0828 -0.013,0.0437 -0.025,0.0657 -0.041,0.16578 l 0.1658,61.212615 c 0,16.66204 0.6243,25.52964 3.2741,26.93853 1.3306,0.70753 1.0526,1.45053 8.3716,1.45053 7.5406,0 12.1921,-1.1818 13.9664,-3.48128 0.8871,-1.41505 1.3261,-2.8122 1.3263,-4.22728 0.2217,-1.41506 0.3314,-3.18221 0.3315,-5.30482 -10e-5,-2.29946 -10e-5,-3.80983 0,-4.51738 l 0,-3.97861 -0.6631,-45.09095 0,-17.24066 c 1.3306,-1.76875 3.7869,-3.20733 7.3354,-4.26872 1.7742,-0.53056 3.4207,-1.044135 4.9733,-1.574865 1.7742,-0.53056 3.9011,-0.97235 6.3409,-1.32621 2.6612,-0.53056 4.8566,-0.90057 6.6309,-1.07754 1.7742,-0.35367 4.2305,-0.72368 7.3355,-1.07754 3.1049,-0.53056 5.41,-0.85912 6.9625,-1.03609 1.7742,-0.1768 4.3402,-0.43358 7.667,-0.78744 3.5485,-0.353673 5.9633,-0.651898 7.2941,-0.82888 1.5525,-2.476263 2.3622,-6.082348 2.3623,-10.858303 -10e-5,-4.775743 -0.7001,-7.796469 -2.0307,-9.034759 -1.1091,-1.414955 -3.3043,-2.113526 -6.631,-2.113646 z"
     id="path3021"
     inkscape:connector-curvature="0" />
  <text
     xml:space="preserve"
     style="font-style:normal;font-weight:normal;font-size:18.78186989px;line-height:125%;font-family:Sans;letter-spacing:0px;word-spacing:0px;fill:#000000;fill-opacity:1;stroke:none"
     x="807.13745"
     y="240.32256"
     id="text3529"
     sodipodi:linespacing="125%"><tspan
       sodipodi:role="line"
       id="tspan3531"
       x="807.13745"
       y="240.32256"
       style="font-style:normal;font-variant:normal;font-weight:normal;font-stretch:normal;font-family:'Trebuchet MS';-inkscape-font-specification:'Trebuchet MS'" /></text>
  <text
     xml:space="preserve"
     style="font-style:normal;font-weight:normal;font-size:28px;line-height:125%;font-family:Sans;letter-spacing:0px;word-spacing:0px;fill:#000000;fill-opacity:1;stroke:none"
     x="818.00647"
     y="239.34126"
     id="text3537"
     sodipodi:linespacing="125%"><tspan
       sodipodi:role="line"
       id="tspan3539"
       x="818.00647"
       y="239.34126" /></text>
  <text
     xml:space="preserve"
     style="font-style:normal;font-weight:normal;font-size:40px;line-height:125%;font-family:Sans;letter-spacing:0px;word-spacing:0px;fill:#000000;fill-opacity:1;stroke:none"
     x="1221.9901"
     y="134.78932"
     id="text2998"
     sodipodi:linespacing="125%"><tspan
       sodipodi:role="line"
       id="tspan3000"
       x="1221.9901"
       y="134.78932"
       style="font-style:normal;font-variant:normal;font-weight:normal;font-stretch:normal;font-family:Cagliostro;-inkscape-font-specification:Cagliostro" /></text>
  <g
     style="font-style:normal;font-weight:normal;font-size:40px;line-height:125%;font-family:Sans;letter-spacing:0px;word-spacing:0px;fill:#000000;fill-opacity:1;stroke:none"
     id="text3002">
    <path
       d="M 8.3999996,90.403949 17,90.603949 q 0.2,0.2 1.8,6.8 1.6,-0.6 8.4,-3.4 13.8,-5.4 21.6,-5.4 13,0 20.8,10.6 l 2,-1.4 q 2.2,-1.4 2.8,-1.8 l 2.4,-1.4 q 2,-1.2 3,-1.6 1,-0.4 3,-1.4 2.2,-1 3.6,-1.4 1.6,-0.4 3.6,-1 3.8,-0.8 8.6,-0.8 21,0 26.8,20.000001 1.6,4.4 2,21.2 l 0,37.2 q 0,6.8 -2.4,8.8 -2.2,1.8 -8.6,1.8 -6.2,0 -7.6,-0.8 -1.2,-1 -1.2,-4.6 l 0.6,-12 0,-24 q 0,-0.8 0,-5.2 0,-4.4 -0.2,-7.6 0,-3.2 -1,-8 -0.8,-4.8 -2.6,-6.8 -5,-5.6 -14.8,-5.6 -18.6,0 -18.6,12.2 l 0.6,18.2 0,27.2 q 0,8.8 -1.6,11.6 -0.8,1.4 -3.6,1.4 -11.2,0 -13,-2.8 -1.4,-2 -1.2,-6.2 0.4,-4.2 0.4,-4.8 l 1,-35.4 q 0,-11.4 -3.8,-15.6 -3.8,-4.2 -11.8,-4.2 -19.2,0 -19.2,7.4 l 0.4,16.4 -0.4,34.6 q 0,1.2 0,3.8 0.2,2.4 0,3.2 l -0.2,2.4 q -0.2,1.6 -0.6,2.2 -2.4,2.2 -4,2.4 -4.4000004,0.6 -7.0000004,0.6 -2.4,0 -3.4,-0.2 -0.8,-0.2 -1.4,-0.6 -0.6,-0.6 -1,-1 -0.39999998,-0.6 -0.79999998,-1.6 -0.2,-1.2 -0.40000000146973,-2 0,-1 0,-2.8 l 0,-10.2 0.80000000146973,-41.6 0.39999998,-16.6 0.4,-4.000001 q 0,-2.4 1,-3.8 1.2,-1.6 1.8,-1.8 2.4,-0.8 4,-0.8 z"
       style="font-style:normal;font-variant:normal;font-weight:normal;font-stretch:normal;font-size:200px;font-family:Cagliostro;-inkscape-font-specification:Cagliostro"
       id="path4158" />
    <path
       d="m 210.63125,177.40395 q -6,0 -5.6,-6.6 0,-2.2 -0.6,-2.2 -1.6,0.6 -6.4,3.4 -23.8,14.6 -41.8,1.8 -8.2,-5.8 -8.2,-16 0,-15.4 14.2,-22.4 14.4,-7 35.6,-7 3.8,0 5.6,0.2 0,-3.4 0.2,-4.8 0,-11.4 -6.4,-17 -6.2,-5.8 -17.4,-5.8 -5.4,0 -11.6,1.6 -6.2,1.6 -8,1.6 -1.8,0 -3,-2.2 -1,-2.200001 -1,-5.800001 0,-3.6 8.8,-5.6 9,-2.2 17.2,-2.2 19.4,0 29.4,10.2 10.2,10.200001 10.2,29.800001 l 0,41.2 q 0,5.4 -2,6.6 -2,1.2 -9.2,1.2 z m -7.4,-21 q 0.4,-5.6 0.4,-12 0,-6.4 -0.2,-7.2 -27.6,2.6 -33.6,10 -3.2,3.8 -3.2,8.8 0,10.6 15.8,10.6 8,0 14.2,-3.6 6.4,-3.8 6.6,-6.6 z"
       style="font-style:normal;font-variant:normal;font-weight:normal;font-stretch:normal;font-size:200px;font-family:Cagliostro;-inkscape-font-specification:Cagliostro"
       id="path4160" />
    <path
       d="m 333.18125,46.203949 0.2,79.800001 0,40.6 q 0,1.8 -0.2,2.4 0,0.6 -0.2,2 0,1.4 -0.2,2 -0.8,2.4 -1.4,2.8 -0.4,0.4 -1,0.8 -1.4,0.8 -6.6,0.8 -5.2,0 -7,-0.6 -0.4,-1 -0.6,-3.6 -0.2,-2.6 -0.4,-3.4 -4.2,3 -13.6,6.4 -9.2,3.4 -16.6,3.4 -18.6,0 -30.2,-12.6 -11.4,-12.6 -11.4,-31.2 0,-25.8 22.4,-39.800001 11,-7.6 28,-7.6 4.6,0 20.4,4.2 l 0.2,-8.8 0,-10.6 q 0,-22.4 0.2,-26.2 0.4,-3.8 0.4,-7.4 0,-3.6 0.2,-4.6 0.2,-1.2 1,-2.8 1.4,-2.4 6.4,-2.4 5,0 6.6,0.8 1.8,0.8 2.6,3 0.8,3 0.8,7.4 l 0,5.2 z m -69.4,85.200001 q 0,16.2 8.4,25.4 8.4,9 22.8,9 7.2,0 12,-1.4 8.2,-2.6 8.2,-7.2 l 0,-37 q 0,-13.2 -1.2,-14.6 -1.2,-2 -7.4,-3 -6,-1.2 -12,-1.2 -13.6,0 -22,8.4 -8.4,8.4 -8.8,21.6 z"
       style="font-style:normal;font-variant:normal;font-weight:normal;font-stretch:normal;font-size:200px;font-family:Cagliostro;-inkscape-font-specification:Cagliostro"
       id="path4162" />
    <path
       d="m 432.85312,127.80395 q 0,0 -45.8,0.2 -7.4,0 -8.6,1.2 -1,1.4 -1,4.6 0,15.6 8.8,24 9,8.2 20.4,8.2 11.4,0 17.8,-3 0.2,0 4,-2.6 3.8,-2.6 5.2,-2.6 1.6,0 2.4,1.2 0.8,1.2 0.8,2.4 0,7.6 -11.2,13 -11.2,5.2 -26.2,5.2 -14.8,0 -28.4,-12 -13.4,-12 -13.4,-32.4 0,-20.4 12.6,-33.6 12.8,-13.200001 34.2,-13.200001 15.6,0 25.2,9.2 10.2,9.600001 10.2,23.200001 0,7 -7,7 z m -52,-9.8 q 38,0 44,-0.4 -0.6,-8 -6.2,-13.2 -5.4,-5.200001 -13.8,-5.200001 -8.4,0 -15.8,6.000001 -7.2,5.8 -8.2,12.8 z"
       style="font-style:normal;font-variant:normal;font-weight:normal;font-stretch:normal;font-size:200px;font-family:Cagliostro;-inkscape-font-specification:Cagliostro"
       id="path4164" />
    <path
       d="m 574.65312,144.60395 q -6,6.4 -8,9.6 -17,25.6 -21,25.6 -1,0 -4,-3.2 -3,-3.2 -4.6,-6 -1.4,-2.8 -15.4,-31.2 -14,-28.6 -17.2,-35.4 -3.2,-7.000001 -3.2,-9.000001 0,-2.2 5.2,-4.4 5.4,-2.2 6.8,-2.2 1.4,0 1.6,0 2.8,0.2 9.2,15.400001 6,12.8 15.2,33 9.4,20 9.2,20 l 4.8,-6 q 14.6,-18.2 14.8,-19 -3,-7.6 -4.2,-9.8 -1.2,-2.2 -3.8,-8.2 -2.6,-6.2 -4.8,-10.4 -2.2,-4.400001 -2.2,-5.800001 0,-1.4 1.8,-2.6 1.8,-1.2 3.6,-2 2,-1 4.4,-2 2.6,-1.2 3.2,-1.2 0.6,-0.2 1.8,1 1.2,1.2 2.4,3.2 1.2,1.8 2.2,3.6 5,9.000001 12.4,25.600001 7.6,16.4 9.4,20.2 3.4,8.6 5,10.2 1.6,0 6.8,-10.4 5.2,-10.6 8,-16.6 3,-6.2 6.4,-13.6 3.4,-7.6 4.6,-10 2.6,-8.000001 6.8,-12.400001 1.4,-1.6 2.8,-1.8 1.6,-0.4 4.2,0.8 2.8,1.2 3.2,2.2 0,3.6 -4,13.600001 -11.6,25.6 -17.4,36 -5.8,10.4 -8.2,14.8 -2.2,4.4 -4.2,8 -2,3.4 -4.2,7.2 -5,8.2 -8.2,8.2 -1.6,0 -10.2,-15.4 -8.6,-15.6 -11,-19.6 z"
       style="font-style:normal;font-variant:normal;font-weight:normal;font-stretch:normal;font-size:200px;font-family:Cagliostro;-inkscape-font-specification:Cagliostro"
       id="path4166" />
    <path
       d="m 665.76562,62.203949 q -2,-0.6 -4.8,-4 -2.6,-3.6 -2.6,-6.6 0.2,-3.2 4,-6.4 4,-3.4 10.2,-3.4 9.2,0 9.2,8.8 0,6.2 -4,9.2 -3.8,3 -7,3 -3,0 -5,-0.6 z m 12.4,71.600001 0.6,39.6 q 0,2.4 -0.6,3 -2,1 -8.4,1 -6.4,0 -8,-0.8 -1.4,-1 -1.4,-5.6 l -0.8,-36.6 q 0,-19.2 0.2,-24.4 l 0.6,-11.800001 q 0,-5.6 1.8,-6.6 1.8,-1 6.8,-1 5.2,0 8.8,0.6 0.4,8.800001 0.4,13.800001 l 0,28.8 z"
       style="font-style:normal;font-variant:normal;font-weight:normal;font-stretch:normal;font-size:200px;font-family:Cagliostro;-inkscape-font-specification:Cagliostro"
       id="path4168" />
    <path
       d="m 732.38437,119.40395 -0.4,28.8 q 0,8.2 2.8,12.6 2.8,4.2 9.4,4.2 6.6,0 11.2,-1.2 8.6,-2.4 8.6,2.4 0,13.4 -24.8,13.4 -14,0 -21.8,-12.6 -3.8,-8 -3.8,-19 l 0.4,-23.2 0.4,-16.8 q 0,-2.8 -0.8,-3.4 -0.8,-0.8 -3,-0.8 l -7.8,0.6 q -5,0 -5,-3.2 0,-5.600001 1.2,-7.800001 1.4,-2.4 5,-2.4 l 7.8,0.6 q 2.8,0 2.8,-6.8 0,-0.8 0,-1 l 0,-11.4 q 0,-5.2 0.2,-6 2.4,-1.2 15.8,-1.2 3.6,0 3.6,3.8 l -0.6,22 q 2.4,0.2 7.8,0.2 l 16,-1.2 q 3.2,0 3.2,3.8 0,11.000001 -10.8,11.000001 l -13,-0.8 q -3.2,0 -4,0.4 -0.4,3.6 -0.4,15 z"
       style="font-style:normal;font-variant:normal;font-weight:normal;font-stretch:normal;font-size:200px;font-family:Cagliostro;-inkscape-font-specification:Cagliostro"
       id="path4170" />
    <path
       d="m 783.78437,168.40395 1,-69.800001 0,-62.4 q 0,-3.4 2,-5 2,-1.6 9.6,-1.6 7.6,0 7.6,4 l 0,5.6 q -0.4,10 -0.4,19.8 0,9.8 0,22.8 0.2,12.8 0.2,14.8 9,-4.4 17.2,-6.2 8.4,-2 12.6,-2 19.4,0 26.4,10 7,10.000001 7,34.000001 0,24 -0.4,28 -0.2,3.8 -0.2,6.8 l 0,4 q 0,4 -1.8,4.8 -4.4,1.6 -8.6,1.6 -4,0 -5.6,-0.4 -1.6,-0.4 -2.2,-2 -0.6,-1.6 -0.8,-2.4 0,-0.8 0,-4 0.2,-3.2 0.2,-4.4 l 0.2,-37.8 q 0,-13.4 -4.2,-18.8 -4,-5.6 -17.6,-5.6 -21.6,0 -21.6,7 l -0.2,17.2 q 0,28.4 -0.4,35 -0.2,6.6 -0.2,8.6 0.2,1.8 0,3.4 -0.2,1.4 -1.2,2.2 -1.8,2 -7.4,2 -5.6,0 -7.4,-0.4 -3.8,-1 -3.8,-8.8 z"
       style="font-style:normal;font-variant:normal;font-weight:normal;font-stretch:normal;font-size:200px;font-family:Cagliostro;-inkscape-font-specification:Cagliostro"
       id="path4172" />
    <path
       d="m 1252.4844,62.203949 q -2,-0.6 -4.8,-4 -2.6,-3.6 -2.6,-6.6 0.2,-3.2 4,-6.4 4,-3.4 10.2,-3.4 9.2,0 9.2,8.8 0,6.2 -4,9.2 -3.8,3 -7,3 -3,0 -5,-0.6 z m 12.4,71.600001 0.6,39.6 q 0,2.4 -0.6,3 -2,1 -8.4,1 -6.4,0 -8,-0.8 -1.4,-1 -1.4,-5.6 l -0.8,-36.6 q 0,-19.2 0.2,-24.4 l 0.6,-11.800001 q 0,-5.6 1.8,-6.6 1.8,-1 6.8,-1 5.2,0 8.8,0.6 0.4,8.800001 0.4,13.800001 l 0,28.8 z"
       style="font-style:normal;font-variant:normal;font-weight:normal;font-stretch:normal;font-size:200px;font-family:Cagliostro;-inkscape-font-specification:Cagliostro"
       id="path4174" />
    <path
       d="m 1303.1031,90.603949 9.4,-0.2 q 0,1 1.2,5 1.2,-0.4 6.8,-2.4 13.2,-4.6 21.8,-4.6 8.8,0 15.4,2.8 6.6,2.6 10.2,6.8 3.6,4.000001 5.8,10.800001 3.2,11 3.2,29.2 0,0 -1,34.2 0,4 -0.8,4.6 -0.6,0.6 -5.6,0.6 -4.8,0 -11.2,-0.8 -0.6,-4.8 -0.6,-16.8 l 0.2,-25.6 q 0,-16 -5.4,-24 -5.4,-8.2 -18.6,-8.2 -13,0 -19.8,3.8 l 0.4,26.8 q 0.2,18 0.2,28 l 0.4,11.8 q 0,3.2 -1.6,4.2 -1.6,0.8 -6.8,0.8 l -10.4,-0.4 -0.8,-41.8 0.8,-30.4 0,-7.200001 q 0,-7 6.8,-7 z"
       style="font-style:normal;font-variant:normal;font-weight:normal;font-stretch:normal;font-size:200px;font-family:Cagliostro;-inkscape-font-specification:Cagliostro"
       id="path4176" />
  </g>
  <flowRoot
     xml:space="preserve"
     id="flowRoot3014"
     style="font-style:normal;font-weight:normal;font-size:40px;line-height:125%;font-family:Sans;letter-spacing:0px;word-spacing:0px;fill:#000000;fill-opacity:1;stroke:none;stroke-width:1px;stroke-linecap:butt;stroke-linejoin:miter;stroke-opacity:1"
     transform="translate(728.24015,70.123968)"><flowRegion
       id="flowRegion3016"><rect
         id="rect3018"
         width="512.5"
         height="468.75"
         x="285.41666"
         y="-60.334656" /></flowRegion><flowPara
       id="flowPara3020" /></flowRoot>  <g
     style="font-style:normal;font-variant:normal;font-weight:normal;font-stretch:normal;font-size:356.15548706px;line-height:125%;font-family:'Droid Sans';-inkscape-font-specification:'Droid Sans';letter-spacing:0px;word-spacing:0px;fill:#000000;fill-opacity:1;stroke:none;stroke-width:1px;stroke-linecap:butt;stroke-linejoin:miter;stroke-opacity:1"
     id="text4148">
    <path
       d="m 1059.6861,219.43166 q -23.8248,-41.56307 -96.34283,-83.64785 -33.73738,-19.65116 -33.73738,-50.606075 0,-13.042804 4.6954,-25.042183 4.86932,-11.999379 14.43404,-21.390198 9.21692,-9.04301 21.21629,-14.260131 11.30377,-4.869314 24.69438,-4.869314 13.3906,0 24.6944,4.869314 11.8254,5.043217 21.2163,14.260131 9.2169,9.043011 14.0862,21.04239 5.0432,11.825475 5.0432,25.389991 0,-13.564516 4.8693,-25.389991 5.0432,-11.999379 14.2602,-21.04239 9.3908,-9.216914 21.2163,-14.260131 11.3037,-4.869314 24.6943,-4.869314 13.3906,0 24.6944,4.869314 11.9994,5.217121 21.2163,14.260131 9.5647,9.390819 14.2601,21.390198 4.8693,11.999379 4.8693,25.042183 0,31.302725 -33.7373,50.606075 -72.518,42.08478 -96.3429,83.64785 z"
       style=""
       id="path4155" />
  </g>
</svg>
